G04 Layer_Color=8388736*
%FSLAX44Y44*%
%MOMM*%
G71*
G01*
G75*
%ADD53R,3.2000X1.8000*%
%ADD54R,6.9000X6.9000*%
%ADD55R,1.5000X1.7000*%
%ADD56R,0.8000X1.2000*%
%ADD57R,1.7000X1.5000*%
%ADD58R,1.2000X0.8000*%
%ADD59R,1.0500X1.0500*%
%ADD60R,1.0500X1.0500*%
%ADD61R,2.8000X1.3000*%
%ADD62R,4.5000X2.2000*%
%ADD63R,2.5000X2.7000*%
%ADD64C,5.2000*%
%ADD65C,2.4000*%
%ADD66R,1.6000X1.6000*%
%ADD67O,1.8500X1.4000*%
%ADD68C,1.6000*%
%ADD69O,1.4000X1.8500*%
%ADD70R,1.4000X1.6000*%
%ADD71R,1.6000X1.6000*%
D53*
X425000Y434600D02*
D03*
Y480400D02*
D03*
D54*
X360000Y457500D02*
D03*
D55*
X424500Y507500D02*
D03*
X405500D02*
D03*
D56*
X487500Y423000D02*
D03*
X478000Y447000D02*
D03*
X497000D02*
D03*
D57*
X524000Y442022D02*
D03*
Y423022D02*
D03*
X546500Y423122D02*
D03*
Y442122D02*
D03*
D58*
X588058Y441777D02*
D03*
X612058Y451278D02*
D03*
Y432277D02*
D03*
X293581Y66000D02*
D03*
X269581Y56500D02*
D03*
Y75500D02*
D03*
D59*
X630000Y447000D02*
D03*
Y433000D02*
D03*
X587500Y283000D02*
D03*
Y297000D02*
D03*
Y243000D02*
D03*
Y257000D02*
D03*
Y165500D02*
D03*
Y179500D02*
D03*
Y128000D02*
D03*
Y142000D02*
D03*
X399500Y63000D02*
D03*
Y77000D02*
D03*
X418000Y77000D02*
D03*
Y63000D02*
D03*
X344100Y63000D02*
D03*
Y77000D02*
D03*
X361600Y63000D02*
D03*
Y77000D02*
D03*
X312500Y66000D02*
D03*
Y80000D02*
D03*
X246581Y59000D02*
D03*
Y73000D02*
D03*
X577500Y427000D02*
D03*
Y413000D02*
D03*
X217081Y78000D02*
D03*
Y92000D02*
D03*
D60*
X615500Y412500D02*
D03*
X629500D02*
D03*
X246581Y92500D02*
D03*
X232581D02*
D03*
D61*
X502500Y277500D02*
D03*
Y312500D02*
D03*
X500000Y162500D02*
D03*
Y197500D02*
D03*
D62*
X550000Y311500D02*
D03*
Y243500D02*
D03*
X547500Y196500D02*
D03*
Y128500D02*
D03*
X210000Y243500D02*
D03*
Y311500D02*
D03*
Y126000D02*
D03*
Y194000D02*
D03*
D63*
X157500Y151000D02*
D03*
Y194000D02*
D03*
Y268500D02*
D03*
Y311500D02*
D03*
D64*
X205000Y35000D02*
D03*
X470000Y525000D02*
D03*
X270000Y575000D02*
D03*
X470000Y75000D02*
D03*
D65*
X47500Y255000D02*
D03*
Y45000D02*
D03*
X187500Y555000D02*
D03*
Y445000D02*
D03*
X45000Y372500D02*
D03*
X215000D02*
D03*
X570000Y512500D02*
D03*
X660000D02*
D03*
D66*
X57500Y80000D02*
D03*
X197500Y480000D02*
D03*
X272500Y295000D02*
D03*
Y177500D02*
D03*
D67*
X37500Y160000D02*
D03*
X57500Y180000D02*
D03*
X37500D02*
D03*
X57500Y200000D02*
D03*
X37500D02*
D03*
X57500Y220000D02*
D03*
X37500D02*
D03*
Y80000D02*
D03*
X57500Y100000D02*
D03*
X37500D02*
D03*
X57500Y120000D02*
D03*
X37500D02*
D03*
X57500Y140000D02*
D03*
X37500D02*
D03*
X57500Y160000D02*
D03*
X177500Y520000D02*
D03*
X197500D02*
D03*
X177500Y500000D02*
D03*
X197500D02*
D03*
X177500Y480000D02*
D03*
D68*
X297900Y295000D02*
D03*
X323300D02*
D03*
X374100D02*
D03*
X399500D02*
D03*
X424900D02*
D03*
X450300D02*
D03*
X297900Y177500D02*
D03*
X323300D02*
D03*
X374100D02*
D03*
X399500D02*
D03*
X424900D02*
D03*
X450300D02*
D03*
X129000Y47000D02*
D03*
D69*
X100000Y382500D02*
D03*
X120000Y362500D02*
D03*
Y382500D02*
D03*
X140000Y362500D02*
D03*
Y382500D02*
D03*
X160000Y362500D02*
D03*
Y382500D02*
D03*
X180000Y362500D02*
D03*
X80000D02*
D03*
Y382500D02*
D03*
X100000Y362500D02*
D03*
X605000Y522500D02*
D03*
X625000Y502500D02*
D03*
Y522500D02*
D03*
D70*
X180000Y382500D02*
D03*
D71*
X605000Y502500D02*
D03*
M02*
