G04 Layer_Physical_Order=3*
G04 Layer_Color=16440176*
%FSLAX44Y44*%
%MOMM*%
G71*
G01*
G75*
%ADD34C,1.4000*%
%ADD35R,1.4000X1.4000*%
%ADD36O,1.6500X1.2000*%
%ADD38C,0.8000*%
G36*
X405345Y602905D02*
X409877Y599877D01*
X412905Y595345D01*
X413925Y590216D01*
X413882Y590000D01*
Y560000D01*
X414348Y557659D01*
X415674Y555674D01*
X417659Y554348D01*
X420000Y553882D01*
X454154D01*
X454450Y550882D01*
X448604Y546396D01*
X443795Y540130D01*
X440772Y532832D01*
X439741Y525000D01*
X440772Y517168D01*
X443795Y509871D01*
X448604Y503604D01*
X454871Y498795D01*
X462168Y495772D01*
X462321Y495752D01*
X463060Y492629D01*
X461979Y491895D01*
X461741Y491824D01*
X461512Y491978D01*
X458000Y492676D01*
X454488Y491978D01*
X453000Y490983D01*
X451512Y491978D01*
X448000Y492676D01*
X444488Y491978D01*
X441511Y489989D01*
X439522Y487012D01*
X438824Y483500D01*
X439522Y479988D01*
X440350Y478750D01*
X439522Y477512D01*
X438824Y474000D01*
X439522Y470488D01*
X440517Y469000D01*
X439522Y467512D01*
X438824Y464000D01*
X439522Y460488D01*
X441511Y457511D01*
X444488Y455522D01*
X448000Y454824D01*
X451512Y455522D01*
X453000Y456517D01*
X454488Y455522D01*
X458000Y454824D01*
X461512Y455522D01*
X463000Y456517D01*
X464488Y455522D01*
X468000Y454824D01*
X471512Y455522D01*
X473374Y456767D01*
X474488Y456022D01*
X478000Y455324D01*
X481512Y456022D01*
X483000Y457017D01*
X484488Y456022D01*
X488000Y455324D01*
X491512Y456022D01*
X493000Y457017D01*
X494488Y456022D01*
X498000Y455324D01*
X501512Y456022D01*
X504489Y458011D01*
X506478Y460988D01*
X507176Y464500D01*
X506478Y468012D01*
X505483Y469500D01*
X506478Y470989D01*
X507176Y474500D01*
X506478Y478012D01*
X505483Y479500D01*
X506478Y480988D01*
X507176Y484500D01*
X506478Y488012D01*
X504489Y490989D01*
X501512Y492978D01*
X498000Y493676D01*
X494488Y492978D01*
X492626Y491733D01*
X491512Y492478D01*
X488000Y493176D01*
X484488Y492478D01*
X483000Y491483D01*
X481512Y492478D01*
X478884Y493001D01*
X478641Y496108D01*
X485129Y498795D01*
X491396Y503604D01*
X496205Y509871D01*
X499228Y517168D01*
X500259Y525000D01*
X499228Y532832D01*
X496205Y540130D01*
X491396Y546396D01*
X485550Y550882D01*
X485846Y553882D01*
X655000D01*
Y527747D01*
X651931Y526476D01*
X648589Y523911D01*
X646024Y520569D01*
X644412Y516677D01*
X643862Y512500D01*
X644412Y508323D01*
X646024Y504431D01*
X648589Y501089D01*
X651931Y498524D01*
X655000Y497253D01*
Y46118D01*
X485846D01*
X485550Y49117D01*
X491396Y53604D01*
X496205Y59871D01*
X499228Y67168D01*
X500259Y75000D01*
X499228Y82832D01*
X496205Y90129D01*
X491396Y96396D01*
X485129Y101205D01*
X477832Y104228D01*
X470000Y105259D01*
X462168Y104228D01*
X454871Y101205D01*
X448604Y96396D01*
X443795Y90129D01*
X440772Y82832D01*
X439741Y75000D01*
X440772Y67168D01*
X443795Y59871D01*
X448604Y53604D01*
X454450Y49117D01*
X454154Y46118D01*
X420000D01*
X417659Y45652D01*
X415674Y44326D01*
X414348Y42341D01*
X413882Y40000D01*
Y20000D01*
X413925Y19784D01*
X412905Y14655D01*
X409877Y10123D01*
X405345Y7095D01*
X400216Y6075D01*
X400000Y6118D01*
X220846D01*
X220550Y9118D01*
X226396Y13604D01*
X231205Y19871D01*
X234228Y27168D01*
X235259Y35000D01*
X234228Y42832D01*
X231205Y50129D01*
X226396Y56396D01*
X220129Y61205D01*
X212832Y64228D01*
X205000Y65259D01*
X197168Y64228D01*
X189871Y61205D01*
X183604Y56396D01*
X178795Y50129D01*
X175772Y42832D01*
X174741Y35000D01*
X175772Y27168D01*
X178795Y19871D01*
X183604Y13604D01*
X189450Y9118D01*
X189154Y6118D01*
X6118D01*
Y413882D01*
X140000D01*
X142341Y414348D01*
X144326Y415674D01*
X145652Y417659D01*
X146117Y420000D01*
Y603882D01*
X254154D01*
X254450Y600882D01*
X248604Y596396D01*
X243795Y590130D01*
X240772Y582832D01*
X239741Y575000D01*
X240772Y567168D01*
X243795Y559871D01*
X248604Y553604D01*
X254871Y548795D01*
X262168Y545772D01*
X270000Y544741D01*
X277832Y545772D01*
X285129Y548795D01*
X291396Y553604D01*
X296205Y559871D01*
X299228Y567168D01*
X300259Y575000D01*
X299228Y582832D01*
X296205Y590130D01*
X291396Y596396D01*
X285550Y600882D01*
X285846Y603882D01*
X400000D01*
X400216Y603925D01*
X405345Y602905D01*
D02*
G37*
%LPC*%
G36*
X421900Y174500D02*
X415301D01*
X415480Y173598D01*
X417690Y170290D01*
X420998Y168080D01*
X421900Y167901D01*
Y174500D01*
D02*
G37*
G36*
X434499D02*
X427900D01*
Y167901D01*
X428802Y168080D01*
X432110Y170290D01*
X434320Y173598D01*
X434499Y174500D01*
D02*
G37*
G36*
X269500D02*
X262500D01*
Y167500D01*
X269500D01*
Y174500D01*
D02*
G37*
G36*
X282500D02*
X275500D01*
Y167500D01*
X282500D01*
Y174500D01*
D02*
G37*
G36*
X421900Y187099D02*
X420998Y186920D01*
X417690Y184710D01*
X415480Y181402D01*
X415301Y180500D01*
X421900D01*
Y187099D01*
D02*
G37*
G36*
X427900D02*
Y180500D01*
X434499D01*
X434320Y181402D01*
X432110Y184710D01*
X428802Y186920D01*
X427900Y187099D01*
D02*
G37*
G36*
X269500Y187500D02*
X262500D01*
Y180500D01*
X269500D01*
Y187500D01*
D02*
G37*
G36*
X282500D02*
X275500D01*
Y180500D01*
X282500D01*
Y187500D01*
D02*
G37*
G36*
X450300Y189735D02*
X445618Y188804D01*
X441648Y186152D01*
X438996Y182182D01*
X438065Y177500D01*
X438996Y172818D01*
X441648Y168848D01*
X445618Y166196D01*
X450300Y165265D01*
X454982Y166196D01*
X458951Y168848D01*
X461604Y172818D01*
X462535Y177500D01*
X461604Y182182D01*
X458951Y186152D01*
X454982Y188804D01*
X450300Y189735D01*
D02*
G37*
G36*
X138599Y44000D02*
X132000D01*
Y37401D01*
X132902Y37580D01*
X136210Y39790D01*
X138420Y43098D01*
X138599Y44000D01*
D02*
G37*
G36*
X126000Y56599D02*
X125098Y56420D01*
X121790Y54210D01*
X119580Y50902D01*
X119401Y50000D01*
X126000D01*
Y56599D01*
D02*
G37*
G36*
X47500Y61138D02*
X43323Y60588D01*
X39431Y58976D01*
X36089Y56411D01*
X33524Y53069D01*
X31912Y49177D01*
X31362Y45000D01*
X31912Y40823D01*
X33524Y36931D01*
X36089Y33589D01*
X39431Y31024D01*
X43323Y29412D01*
X47500Y28862D01*
X51677Y29412D01*
X55569Y31024D01*
X58911Y33589D01*
X61476Y36931D01*
X63088Y40823D01*
X63638Y45000D01*
X63088Y49177D01*
X61476Y53069D01*
X58911Y56411D01*
X55569Y58976D01*
X51677Y60588D01*
X47500Y61138D01*
D02*
G37*
G36*
X126000Y44000D02*
X119401D01*
X119580Y43098D01*
X121790Y39790D01*
X125098Y37580D01*
X126000Y37401D01*
Y44000D01*
D02*
G37*
G36*
X32500Y75000D02*
X27767D01*
X28761Y73511D01*
X31738Y71522D01*
X32500Y71371D01*
Y75000D01*
D02*
G37*
G36*
X610000Y150667D02*
X606684Y150007D01*
X603872Y148128D01*
X601993Y145316D01*
X601334Y142000D01*
X601993Y138684D01*
X603872Y135872D01*
X606684Y133993D01*
X610000Y133334D01*
X613316Y133993D01*
X616128Y135872D01*
X618007Y138684D01*
X618666Y142000D01*
X618007Y145316D01*
X616128Y148128D01*
X613316Y150007D01*
X610000Y150667D01*
D02*
G37*
G36*
X132000Y56599D02*
Y50000D01*
X138599D01*
X138420Y50902D01*
X136210Y54210D01*
X132902Y56420D01*
X132000Y56599D01*
D02*
G37*
G36*
X67500Y75000D02*
X62500D01*
Y70000D01*
X67500D01*
Y75000D01*
D02*
G37*
G36*
X323300Y189735D02*
X318618Y188804D01*
X314648Y186152D01*
X312201Y182489D01*
X310600Y182325D01*
X308999Y182489D01*
X306551Y186152D01*
X302582Y188804D01*
X297900Y189735D01*
X293218Y188804D01*
X289249Y186152D01*
X286596Y182182D01*
X285665Y177500D01*
X286596Y172818D01*
X289249Y168848D01*
X293218Y166196D01*
X297900Y165265D01*
X302582Y166196D01*
X306551Y168848D01*
X308999Y172511D01*
X310600Y172675D01*
X312201Y172511D01*
X314648Y168848D01*
X318618Y166196D01*
X323300Y165265D01*
X327982Y166196D01*
X331951Y168848D01*
X334604Y172818D01*
X335535Y177500D01*
X334604Y182182D01*
X331951Y186152D01*
X327982Y188804D01*
X323300Y189735D01*
D02*
G37*
G36*
X570000Y528638D02*
X565823Y528088D01*
X561931Y526476D01*
X558589Y523911D01*
X556024Y520569D01*
X554412Y516677D01*
X553862Y512500D01*
X554412Y508323D01*
X556024Y504431D01*
X558589Y501089D01*
X561931Y498524D01*
X565823Y496912D01*
X570000Y496362D01*
X574177Y496912D01*
X578069Y498524D01*
X581411Y501089D01*
X583976Y504431D01*
X585588Y508323D01*
X586138Y512500D01*
X585588Y516677D01*
X583976Y520569D01*
X581411Y523911D01*
X578069Y526476D01*
X574177Y528088D01*
X570000Y528638D01*
D02*
G37*
G36*
X387500Y511676D02*
X383988Y510978D01*
X382500Y509983D01*
X381012Y510978D01*
X377500Y511676D01*
X373988Y510978D01*
X372500Y509983D01*
X371012Y510978D01*
X367500Y511676D01*
X363988Y510978D01*
X362500Y509983D01*
X361012Y510978D01*
X357500Y511676D01*
X353988Y510978D01*
X352500Y509983D01*
X351012Y510978D01*
X347500Y511676D01*
X343988Y510978D01*
X342500Y509983D01*
X341012Y510978D01*
X337500Y511676D01*
X333988Y510978D01*
X332500Y509983D01*
X331012Y510978D01*
X327500Y511676D01*
X323988Y510978D01*
X322500Y509983D01*
X321012Y510978D01*
X317500Y511676D01*
X313988Y510978D01*
X312612Y510058D01*
X311236Y510978D01*
X307725Y511676D01*
X304213Y510978D01*
X301236Y508989D01*
X299247Y506012D01*
X298548Y502500D01*
X299247Y498988D01*
X300858Y496578D01*
X299247Y494167D01*
X298548Y490656D01*
X299247Y487144D01*
X300082Y485895D01*
X299247Y484645D01*
X298548Y481133D01*
X299247Y477622D01*
X300082Y476372D01*
X299247Y475123D01*
X298548Y471611D01*
X299247Y468100D01*
X300082Y466850D01*
X299247Y465601D01*
X298548Y462089D01*
X299247Y458577D01*
X300082Y457328D01*
X299247Y456078D01*
X298548Y452567D01*
X299247Y449055D01*
X300082Y447806D01*
X299247Y446556D01*
X298548Y443045D01*
X299247Y439533D01*
X300082Y438283D01*
X299247Y437034D01*
X298548Y433522D01*
X299247Y430011D01*
X300082Y428761D01*
X299247Y427512D01*
X298548Y424000D01*
X299247Y420488D01*
X300742Y418250D01*
X299247Y416012D01*
X298548Y412500D01*
X299247Y408988D01*
X301236Y406011D01*
X304213Y404022D01*
X307725Y403324D01*
X311236Y404022D01*
X312612Y404942D01*
X313988Y404022D01*
X317500Y403324D01*
X321012Y404022D01*
X322500Y405017D01*
X323988Y404022D01*
X327500Y403324D01*
X331012Y404022D01*
X332500Y405017D01*
X333988Y404022D01*
X337500Y403324D01*
X341012Y404022D01*
X342500Y405017D01*
X343988Y404022D01*
X347500Y403324D01*
X351012Y404022D01*
X352500Y405017D01*
X353988Y404022D01*
X357500Y403324D01*
X361012Y404022D01*
X362500Y405017D01*
X363988Y404022D01*
X367500Y403324D01*
X371012Y404022D01*
X372500Y405017D01*
X373988Y404022D01*
X377500Y403324D01*
X381012Y404022D01*
X382500Y405017D01*
X383988Y404022D01*
X387500Y403324D01*
X391012Y404022D01*
X393989Y406011D01*
X395978Y408988D01*
X396676Y412500D01*
X395978Y416012D01*
X393989Y418989D01*
X391012Y420978D01*
X387500Y421676D01*
X383988Y420978D01*
X382500Y419983D01*
X381012Y420978D01*
X377500Y421676D01*
X373988Y420978D01*
X372500Y419983D01*
X371012Y420978D01*
X367500Y421676D01*
X363988Y420978D01*
X362500Y419983D01*
X361012Y420978D01*
X357500Y421676D01*
X353988Y420978D01*
X352500Y419983D01*
X351012Y420978D01*
X347500Y421676D01*
X343988Y420978D01*
X342500Y419983D01*
X341012Y420978D01*
X337500Y421676D01*
X333988Y420978D01*
X332500Y419983D01*
X331012Y420978D01*
X327500Y421676D01*
X323988Y420978D01*
X322500Y419983D01*
X321012Y420978D01*
X317500Y421676D01*
X316783Y424593D01*
X316202Y427512D01*
X315368Y428761D01*
X316202Y430011D01*
X316901Y433522D01*
X316202Y437034D01*
X315368Y438283D01*
X316202Y439533D01*
X316901Y443045D01*
X316202Y446556D01*
X315368Y447806D01*
X316202Y449055D01*
X316901Y452567D01*
X316202Y456078D01*
X315368Y457328D01*
X316202Y458577D01*
X316901Y462089D01*
X316202Y465601D01*
X315368Y466850D01*
X316202Y468100D01*
X316901Y471611D01*
X316202Y475123D01*
X315368Y476372D01*
X316202Y477622D01*
X316901Y481133D01*
X316202Y484645D01*
X315368Y485895D01*
X316202Y487144D01*
X316901Y490656D01*
X319356Y493693D01*
X321012Y494022D01*
X322500Y495017D01*
X323988Y494022D01*
X327500Y493324D01*
X331012Y494022D01*
X332500Y495017D01*
X333988Y494022D01*
X337500Y493324D01*
X341012Y494022D01*
X342500Y495017D01*
X343988Y494022D01*
X347500Y493324D01*
X351012Y494022D01*
X352500Y495017D01*
X353988Y494022D01*
X357500Y493324D01*
X361012Y494022D01*
X362500Y495017D01*
X363988Y494022D01*
X367500Y493324D01*
X371012Y494022D01*
X372500Y495017D01*
X373988Y494022D01*
X377500Y493324D01*
X381012Y494022D01*
X382500Y495017D01*
X383988Y494022D01*
X387500Y493324D01*
X391012Y494022D01*
X393989Y496011D01*
X395978Y498988D01*
X396676Y502500D01*
X395978Y506012D01*
X393989Y508989D01*
X391012Y510978D01*
X387500Y511676D01*
D02*
G37*
G36*
X182500Y528629D02*
Y520000D01*
X177500D01*
Y515000D01*
X167767D01*
X168761Y513511D01*
X169639Y512925D01*
X169517Y509399D01*
X167319Y507930D01*
X164888Y504292D01*
X164035Y500000D01*
X164888Y495708D01*
X167319Y492070D01*
X169517Y490601D01*
X169639Y487075D01*
X168761Y486489D01*
X167767Y485000D01*
X177500D01*
Y480000D01*
X182500D01*
Y471371D01*
X185500Y469684D01*
Y468000D01*
X209500D01*
Y492000D01*
X209500Y492000D01*
X209500D01*
X209609Y494955D01*
X210112Y495708D01*
X210965Y500000D01*
X210112Y504292D01*
X207680Y507930D01*
X205483Y509399D01*
X205361Y512925D01*
X206239Y513511D01*
X207233Y515000D01*
X197500D01*
Y520000D01*
X192500D01*
Y528629D01*
X191738Y528478D01*
X188761Y526489D01*
X186239D01*
X183262Y528478D01*
X182500Y528629D01*
D02*
G37*
G36*
X172500Y475000D02*
X167767D01*
X168761Y473511D01*
X171738Y471522D01*
X172500Y471371D01*
Y475000D01*
D02*
G37*
G36*
X625000Y535965D02*
X620708Y535112D01*
X617069Y532681D01*
X616500Y531828D01*
X613500D01*
X612930Y532681D01*
X609292Y535112D01*
X605000Y535965D01*
X600708Y535112D01*
X597069Y532681D01*
X594638Y529042D01*
X593784Y524750D01*
Y520250D01*
X594332Y517500D01*
X593000Y514500D01*
X593000D01*
Y490500D01*
X617000D01*
X617000Y490500D01*
Y490500D01*
X619955Y490391D01*
X620708Y489888D01*
X625000Y489035D01*
X629292Y489888D01*
X632930Y492319D01*
X635362Y495958D01*
X636215Y500250D01*
Y504750D01*
X635362Y509042D01*
X633051Y512500D01*
X635362Y515958D01*
X636215Y520250D01*
Y524750D01*
X635362Y529042D01*
X632930Y532681D01*
X629292Y535112D01*
X625000Y535965D01*
D02*
G37*
G36*
X187500Y571138D02*
X183323Y570588D01*
X179431Y568976D01*
X176089Y566411D01*
X173524Y563069D01*
X171912Y559177D01*
X171362Y555000D01*
X171912Y550823D01*
X173524Y546931D01*
X176089Y543589D01*
X179431Y541024D01*
X183323Y539412D01*
X187500Y538862D01*
X191677Y539412D01*
X195569Y541024D01*
X198911Y543589D01*
X201476Y546931D01*
X203088Y550823D01*
X203638Y555000D01*
X203088Y559177D01*
X201476Y563069D01*
X198911Y566411D01*
X195569Y568976D01*
X191677Y570588D01*
X187500Y571138D01*
D02*
G37*
G36*
X172500Y528629D02*
X171738Y528478D01*
X168761Y526489D01*
X167767Y525000D01*
X172500D01*
Y528629D01*
D02*
G37*
G36*
X202500D02*
Y525000D01*
X207233D01*
X206239Y526489D01*
X203262Y528478D01*
X202500Y528629D01*
D02*
G37*
G36*
X187500Y461138D02*
X183323Y460588D01*
X179431Y458976D01*
X176089Y456411D01*
X173524Y453069D01*
X171912Y449177D01*
X171362Y445000D01*
X171912Y440823D01*
X173524Y436931D01*
X176089Y433589D01*
X179431Y431024D01*
X183323Y429412D01*
X187500Y428862D01*
X191677Y429412D01*
X195569Y431024D01*
X198911Y433589D01*
X201476Y436931D01*
X203088Y440823D01*
X203638Y445000D01*
X203088Y449177D01*
X201476Y453069D01*
X198911Y456411D01*
X195569Y458976D01*
X191677Y460588D01*
X187500Y461138D01*
D02*
G37*
G36*
X47500Y271138D02*
X43323Y270588D01*
X39431Y268976D01*
X36089Y266411D01*
X33524Y263069D01*
X31912Y259177D01*
X31362Y255000D01*
X31912Y250823D01*
X33524Y246931D01*
X36089Y243589D01*
X39431Y241024D01*
X43323Y239412D01*
X47500Y238862D01*
X51677Y239412D01*
X55569Y241024D01*
X58911Y243589D01*
X61476Y246931D01*
X63088Y250823D01*
X63638Y255000D01*
X63088Y259177D01*
X61476Y263069D01*
X58911Y266411D01*
X55569Y268976D01*
X51677Y270588D01*
X47500Y271138D01*
D02*
G37*
G36*
X587500Y278666D02*
X584184Y278007D01*
X581372Y276128D01*
X579493Y273316D01*
X578834Y270000D01*
X579493Y266684D01*
X581372Y263872D01*
X584184Y261993D01*
X587500Y261334D01*
X590816Y261993D01*
X593628Y263872D01*
X595507Y266684D01*
X596166Y270000D01*
X595507Y273316D01*
X593628Y276128D01*
X590816Y278007D01*
X587500Y278666D01*
D02*
G37*
G36*
X399500Y189735D02*
X394818Y188804D01*
X390849Y186152D01*
X388401Y182489D01*
X386800Y182325D01*
X385199Y182489D01*
X382752Y186152D01*
X378782Y188804D01*
X374100Y189735D01*
X369418Y188804D01*
X365448Y186152D01*
X362796Y182182D01*
X361865Y177500D01*
X362796Y172818D01*
X365448Y168848D01*
X369418Y166196D01*
X374100Y165265D01*
X378782Y166196D01*
X382752Y168848D01*
X385199Y172511D01*
X386800Y172675D01*
X388401Y172511D01*
X390849Y168848D01*
X394818Y166196D01*
X399500Y165265D01*
X404182Y166196D01*
X408152Y168848D01*
X410804Y172818D01*
X411735Y177500D01*
X410804Y182182D01*
X408152Y186152D01*
X404182Y188804D01*
X399500Y189735D01*
D02*
G37*
G36*
X59750Y231215D02*
X55250D01*
X50958Y230362D01*
X47500Y228051D01*
X44042Y230362D01*
X39750Y231215D01*
X35250D01*
X30958Y230362D01*
X27320Y227931D01*
X24888Y224292D01*
X24035Y220000D01*
X24888Y215708D01*
X27320Y212069D01*
X28172Y211500D01*
Y208500D01*
X27320Y207931D01*
X24888Y204292D01*
X24035Y200000D01*
X24888Y195708D01*
X27320Y192069D01*
X28172Y191500D01*
Y188500D01*
X27320Y187931D01*
X24888Y184292D01*
X24035Y180000D01*
X24888Y175708D01*
X27320Y172069D01*
X28172Y171500D01*
Y168500D01*
X27320Y167931D01*
X24888Y164292D01*
X24035Y160000D01*
X24888Y155708D01*
X27320Y152070D01*
X28172Y151500D01*
Y148500D01*
X27320Y147931D01*
X24888Y144292D01*
X24035Y140000D01*
X24888Y135708D01*
X27320Y132070D01*
X28172Y131500D01*
Y128500D01*
X27320Y127931D01*
X24888Y124292D01*
X24035Y120000D01*
X24888Y115708D01*
X27320Y112070D01*
X28172Y111500D01*
Y108500D01*
X27320Y107930D01*
X24888Y104292D01*
X24035Y100000D01*
X24888Y95708D01*
X27320Y92070D01*
X29517Y90601D01*
X29639Y87075D01*
X28761Y86489D01*
X27767Y85000D01*
X37500D01*
Y80000D01*
X42500D01*
Y71371D01*
X43262Y71522D01*
X44500Y72350D01*
X47500Y70746D01*
Y70000D01*
X52500D01*
Y80000D01*
X57500D01*
Y85000D01*
X67500D01*
Y90000D01*
X67500Y90000D01*
X68128Y92740D01*
X70112Y95708D01*
X70965Y100000D01*
X70112Y104292D01*
X67681Y107930D01*
X66828Y108500D01*
Y111500D01*
X67681Y112070D01*
X70112Y115708D01*
X70965Y120000D01*
X70112Y124292D01*
X67681Y127931D01*
X66828Y128500D01*
Y131500D01*
X67681Y132070D01*
X70112Y135708D01*
X70965Y140000D01*
X70112Y144292D01*
X67681Y147931D01*
X66828Y148500D01*
Y151500D01*
X67681Y152070D01*
X70112Y155708D01*
X70965Y160000D01*
X70112Y164292D01*
X67681Y167931D01*
X66828Y168500D01*
Y171500D01*
X67681Y172069D01*
X70112Y175708D01*
X70965Y180000D01*
X70112Y184292D01*
X67681Y187931D01*
X66828Y188500D01*
Y191500D01*
X67681Y192069D01*
X70112Y195708D01*
X70965Y200000D01*
X70112Y204292D01*
X67681Y207931D01*
X66828Y208500D01*
Y211500D01*
X67681Y212069D01*
X70112Y215708D01*
X70965Y220000D01*
X70112Y224292D01*
X67681Y227931D01*
X64042Y230362D01*
X59750Y231215D01*
D02*
G37*
G36*
X565000Y376176D02*
X561488Y375478D01*
X558511Y373489D01*
X556522Y370512D01*
X555824Y367000D01*
X556522Y363488D01*
X558511Y360511D01*
X561488Y358522D01*
X565000Y357824D01*
X568512Y358522D01*
X571489Y360511D01*
X573478Y363488D01*
X574176Y367000D01*
X573478Y370512D01*
X571489Y373489D01*
X568512Y375478D01*
X565000Y376176D01*
D02*
G37*
G36*
X565000Y422176D02*
X561488Y421478D01*
X558511Y419489D01*
X556522Y416512D01*
X555824Y413000D01*
X556522Y409488D01*
X558511Y406511D01*
X561488Y404522D01*
X565000Y403824D01*
X568512Y404522D01*
X571489Y406511D01*
X573478Y409488D01*
X574176Y413000D01*
X573478Y416512D01*
X571489Y419489D01*
X568512Y421478D01*
X565000Y422176D01*
D02*
G37*
G36*
X475500Y323000D02*
X252500D01*
Y262817D01*
X475500D01*
Y323000D01*
D02*
G37*
G36*
X212294Y403500D02*
X27294D01*
X27706Y342000D01*
X212294D01*
Y354443D01*
X214550Y356421D01*
X215000Y356362D01*
X219177Y356912D01*
X223069Y358524D01*
X226411Y361089D01*
X228976Y364431D01*
X230588Y368323D01*
X231138Y372500D01*
X230588Y376677D01*
X228976Y380569D01*
X226411Y383911D01*
X223069Y386476D01*
X219177Y388088D01*
X215000Y388638D01*
X214550Y388579D01*
X212294Y390557D01*
Y403500D01*
D02*
G37*
%LPD*%
D34*
X424900Y177500D02*
D03*
X129000Y47000D02*
D03*
D35*
X272500Y177500D02*
D03*
X57500Y80000D02*
D03*
D36*
X177500Y480000D02*
D03*
X197500Y520000D02*
D03*
X177500D02*
D03*
X37500Y80000D02*
D03*
D38*
X565000Y427500D02*
D03*
X612058Y461611D02*
D03*
X204581Y78000D02*
D03*
M02*
