G04 Layer_Physical_Order=1*
G04 Layer_Color=255*
%FSLAX44Y44*%
%MOMM*%
G71*
G01*
G75*
%ADD10C,1.0000*%
%ADD11R,4.3000X2.0000*%
%ADD12R,2.3000X2.5000*%
%ADD13R,0.8500X0.8500*%
%ADD14R,0.8500X0.8500*%
%ADD15R,1.0000X0.6000*%
%ADD16R,2.6000X1.1000*%
%ADD17R,1.5000X1.3000*%
%ADD18R,0.6000X1.0000*%
%ADD19R,1.3000X1.5000*%
%ADD20R,6.7000X6.7000*%
%ADD21R,3.0000X1.6000*%
%ADD22C,1.0000*%
%ADD23C,0.3000*%
%ADD24C,0.5000*%
%ADD25C,0.8000*%
%ADD26R,1.0000X1.3000*%
%ADD27R,1.1000X2.2500*%
%ADD28R,9.2500X10.8500*%
%ADD29R,9.3000X3.0000*%
%ADD30R,12.7500X1.2000*%
%ADD31R,1.4000X1.4000*%
%ADD32O,1.2000X1.6500*%
%ADD33C,2.2000*%
%ADD34C,1.4000*%
%ADD35R,1.4000X1.4000*%
%ADD36O,1.6500X1.2000*%
%ADD37C,2.4000*%
%ADD38C,5.0000*%
%ADD39C,0.8000*%
%ADD40C,0.7000*%
G36*
X633341Y514132D02*
X633609Y514108D01*
X633927Y514035D01*
X634293Y513913D01*
X634683Y513742D01*
X635074Y513498D01*
X635440Y513180D01*
X635489Y513131D01*
X635587Y513009D01*
X635757Y512790D01*
X635928Y512521D01*
X636099Y512179D01*
X636270Y511789D01*
X636368Y511350D01*
X636416Y510861D01*
Y510837D01*
Y510788D01*
Y510690D01*
X636392Y510593D01*
X636368Y510446D01*
X636343Y510276D01*
X636245Y509909D01*
X636099Y509495D01*
X635855Y509055D01*
X635709Y508835D01*
X635538Y508616D01*
X635342Y508420D01*
X635098Y508225D01*
X635123D01*
X635147Y508176D01*
X635294Y508054D01*
X635513Y507835D01*
X635757Y507517D01*
X636001Y507151D01*
X636221Y506687D01*
X636368Y506175D01*
X636392Y505882D01*
X636416Y505589D01*
Y504271D01*
Y504246D01*
Y504222D01*
Y504149D01*
X636392Y504051D01*
X636368Y503783D01*
X636294Y503465D01*
X636172Y503099D01*
X636001Y502709D01*
X635757Y502318D01*
X635440Y501952D01*
X635391Y501903D01*
X635269Y501805D01*
X635050Y501659D01*
X634781Y501488D01*
X634439Y501293D01*
X634049Y501146D01*
X633609Y501049D01*
X633121Y501000D01*
X630387D01*
X630265Y501024D01*
X630168Y501073D01*
X630046Y501171D01*
X629924Y501269D01*
X629850Y501439D01*
X629826Y501659D01*
Y501684D01*
Y501757D01*
X629850Y501879D01*
X629899Y502001D01*
X629997Y502098D01*
X630094Y502220D01*
X630265Y502294D01*
X630485Y502318D01*
X633268D01*
X633414Y502342D01*
X633609Y502391D01*
X633829Y502465D01*
X634049Y502562D01*
X634293Y502684D01*
X634512Y502879D01*
X634537Y502904D01*
X634610Y502977D01*
X634708Y503099D01*
X634805Y503270D01*
X634903Y503465D01*
X635001Y503709D01*
X635074Y503978D01*
X635098Y504271D01*
Y505589D01*
Y505613D01*
Y505735D01*
X635074Y505882D01*
X635025Y506077D01*
X634952Y506272D01*
X634854Y506516D01*
X634708Y506761D01*
X634512Y506980D01*
X634488Y507005D01*
X634415Y507078D01*
X634293Y507176D01*
X634122Y507273D01*
X633927Y507371D01*
X633683Y507468D01*
X633414Y507542D01*
X633121Y507566D01*
X631705D01*
X631583Y507590D01*
X631486Y507639D01*
X631364Y507737D01*
X631242Y507835D01*
X631168Y508005D01*
X631144Y508225D01*
Y508250D01*
Y508323D01*
X631168Y508445D01*
X631217Y508567D01*
X631315Y508665D01*
X631413Y508787D01*
X631583Y508860D01*
X631803Y508884D01*
X633268D01*
X633414Y508909D01*
X633609Y508957D01*
X633829Y509031D01*
X634049Y509128D01*
X634293Y509250D01*
X634512Y509446D01*
X634537Y509470D01*
X634610Y509543D01*
X634708Y509665D01*
X634805Y509836D01*
X634903Y510056D01*
X635001Y510300D01*
X635074Y510569D01*
X635098Y510861D01*
Y510886D01*
Y511008D01*
X635074Y511154D01*
X635025Y511350D01*
X634952Y511545D01*
X634854Y511789D01*
X634708Y512033D01*
X634512Y512253D01*
X634488Y512277D01*
X634415Y512350D01*
X634293Y512448D01*
X634122Y512546D01*
X633927Y512643D01*
X633683Y512741D01*
X633414Y512814D01*
X633121Y512839D01*
X630387D01*
X630265Y512863D01*
X630168Y512912D01*
X630046Y513009D01*
X629924Y513107D01*
X629850Y513278D01*
X629826Y513498D01*
Y513522D01*
Y513595D01*
X629850Y513717D01*
X629899Y513839D01*
X629997Y513937D01*
X630094Y514059D01*
X630265Y514132D01*
X630485Y514157D01*
X633243D01*
X633341Y514132D01*
D02*
G37*
G36*
X624138D02*
X624407Y514108D01*
X624724Y514035D01*
X625090Y513913D01*
X625481Y513742D01*
X625872Y513498D01*
X626238Y513180D01*
X626287Y513131D01*
X626384Y513009D01*
X626555Y512814D01*
X626726Y512546D01*
X626897Y512204D01*
X627068Y511813D01*
X627165Y511350D01*
X627214Y510861D01*
Y510813D01*
Y510690D01*
X627190Y510520D01*
X627141Y510276D01*
X627068Y509983D01*
X626946Y509665D01*
X626799Y509324D01*
X626604Y508957D01*
X622479Y502318D01*
X626653D01*
X626775Y502294D01*
X626897Y502245D01*
X626994Y502147D01*
X627116Y502050D01*
X627190Y501879D01*
X627214Y501659D01*
Y501635D01*
Y501561D01*
X627190Y501439D01*
X627141Y501342D01*
X627043Y501220D01*
X626946Y501098D01*
X626775Y501024D01*
X626555Y501000D01*
X621185D01*
X621063Y501024D01*
X620965Y501073D01*
X620843Y501146D01*
X620721Y501269D01*
X620648Y501415D01*
X620624Y501635D01*
Y501684D01*
X620648Y501757D01*
X620672Y501903D01*
X620746Y502025D01*
X625554Y509763D01*
X625579Y509787D01*
X625603Y509861D01*
X625652Y509958D01*
X625725Y510105D01*
X625798Y510276D01*
X625847Y510446D01*
X625872Y510642D01*
X625896Y510861D01*
Y510886D01*
Y511008D01*
X625872Y511154D01*
X625823Y511350D01*
X625750Y511545D01*
X625652Y511789D01*
X625505Y512033D01*
X625310Y512253D01*
X625286Y512277D01*
X625213Y512350D01*
X625090Y512448D01*
X624920Y512546D01*
X624724Y512643D01*
X624480Y512741D01*
X624212Y512814D01*
X623919Y512839D01*
X623870D01*
X623723Y512814D01*
X623504Y512741D01*
X623235Y512643D01*
X622918Y512424D01*
X622747Y512301D01*
X622576Y512131D01*
X622405Y511960D01*
X622234Y511716D01*
X622039Y511472D01*
X621868Y511179D01*
Y511154D01*
X621844Y511130D01*
X621722Y511032D01*
X621551Y510910D01*
X621429Y510886D01*
X621283Y510861D01*
X621185D01*
X621063Y510886D01*
X620965Y510935D01*
X620843Y511032D01*
X620721Y511130D01*
X620648Y511301D01*
X620624Y511520D01*
Y511545D01*
Y511618D01*
X620648Y511691D01*
X620697Y511789D01*
X620721Y511813D01*
X620746Y511887D01*
X620819Y512009D01*
X620916Y512155D01*
X621039Y512350D01*
X621185Y512546D01*
X621356Y512741D01*
X621551Y512985D01*
X622015Y513400D01*
X622283Y513620D01*
X622576Y513791D01*
X622869Y513937D01*
X623211Y514059D01*
X623553Y514132D01*
X623919Y514157D01*
X624041D01*
X624138Y514132D01*
D02*
G37*
G36*
X431000Y168000D02*
X569000Y168000D01*
X569000Y119000D01*
X419000Y119000D01*
Y177500D01*
X431000D01*
X431000Y168000D01*
D02*
G37*
G36*
X295000Y400000D02*
X640000Y400000D01*
X640000Y175000D01*
X594750D01*
Y176500D01*
X580250D01*
Y175000D01*
X479000D01*
Y189500D01*
X406000D01*
Y177500D01*
X393000Y177500D01*
Y215000D01*
X479000Y215000D01*
Y215000D01*
X611000Y215000D01*
X611000Y372000D01*
X265000Y372000D01*
X265000Y482000D01*
X207500Y482000D01*
Y487000D01*
X197500D01*
Y493000D01*
X207500D01*
Y497500D01*
X295000D01*
X295000Y400000D01*
D02*
G37*
G36*
X431000Y278000D02*
X571000Y278000D01*
X571000Y229000D01*
X419000Y229000D01*
X419000Y290000D01*
X431000D01*
Y278000D01*
D02*
G37*
G36*
X613618Y514132D02*
X613740Y514083D01*
X613838Y513986D01*
X613960Y513888D01*
X614033Y513717D01*
X614057Y513498D01*
Y513473D01*
Y513449D01*
X614009Y513302D01*
X611617Y504954D01*
X614716D01*
Y506907D01*
Y506931D01*
Y507005D01*
X614741Y507127D01*
X614790Y507249D01*
X614887Y507346D01*
X614985Y507468D01*
X615156Y507542D01*
X615376Y507566D01*
X615473D01*
X615595Y507542D01*
X615717Y507493D01*
X615815Y507395D01*
X615937Y507298D01*
X616010Y507127D01*
X616035Y506907D01*
Y504954D01*
X617426D01*
X617548Y504930D01*
X617670Y504881D01*
X617768Y504783D01*
X617890Y504686D01*
X617963Y504515D01*
X617987Y504295D01*
Y504271D01*
Y504198D01*
X617963Y504076D01*
X617914Y503978D01*
X617816Y503856D01*
X617719Y503734D01*
X617548Y503661D01*
X617328Y503636D01*
X616035D01*
Y501659D01*
Y501635D01*
Y501561D01*
X616010Y501439D01*
X615961Y501342D01*
X615864Y501220D01*
X615766Y501098D01*
X615595Y501024D01*
X615376Y501000D01*
X615278D01*
X615156Y501024D01*
X615058Y501073D01*
X614936Y501171D01*
X614814Y501269D01*
X614741Y501439D01*
X614716Y501659D01*
Y503636D01*
X610664D01*
X610542Y503661D01*
X610445Y503709D01*
X610323Y503783D01*
X610201Y503905D01*
X610127Y504051D01*
X610103Y504271D01*
Y504295D01*
Y504344D01*
X610127Y504466D01*
X612764Y513669D01*
Y513693D01*
X612788Y513742D01*
X612886Y513913D01*
X612983Y514010D01*
X613081Y514083D01*
X613228Y514132D01*
X613398Y514157D01*
X613496D01*
X613618Y514132D01*
D02*
G37*
G36*
X576809D02*
X577077Y514108D01*
X577394Y514035D01*
X577761Y513937D01*
X578151Y513766D01*
X578542Y513522D01*
X578908Y513205D01*
X578957Y513156D01*
X579054Y513034D01*
X579225Y512839D01*
X579396Y512546D01*
X579567Y512204D01*
X579738Y511813D01*
X579835Y511374D01*
X579884Y510861D01*
Y504271D01*
Y504246D01*
Y504222D01*
Y504149D01*
X579860Y504051D01*
X579835Y503783D01*
X579762Y503465D01*
X579640Y503099D01*
X579469Y502709D01*
X579225Y502318D01*
X578908Y501952D01*
X578859Y501903D01*
X578737Y501805D01*
X578542Y501659D01*
X578273Y501488D01*
X577932Y501293D01*
X577541Y501146D01*
X577077Y501049D01*
X576589Y501000D01*
X572537D01*
X572415Y501024D01*
X572317Y501073D01*
X572195Y501171D01*
X572073Y501269D01*
X572000Y501439D01*
X571976Y501659D01*
Y501684D01*
Y501757D01*
X572000Y501879D01*
X572049Y502001D01*
X572146Y502098D01*
X572244Y502220D01*
X572415Y502294D01*
X572635Y502318D01*
X576735D01*
X576882Y502342D01*
X577077Y502391D01*
X577297Y502465D01*
X577517Y502562D01*
X577761Y502684D01*
X577980Y502879D01*
X578005Y502904D01*
X578078Y502977D01*
X578176Y503099D01*
X578273Y503270D01*
X578371Y503465D01*
X578469Y503709D01*
X578542Y503978D01*
X578566Y504271D01*
Y507566D01*
X575173D01*
X575051Y507590D01*
X574953Y507639D01*
X574832Y507737D01*
X574709Y507835D01*
X574636Y508005D01*
X574612Y508225D01*
Y508250D01*
Y508323D01*
X574636Y508445D01*
X574685Y508567D01*
X574783Y508665D01*
X574880Y508787D01*
X575051Y508860D01*
X575271Y508884D01*
X578566D01*
Y510861D01*
Y510886D01*
Y511008D01*
X578542Y511154D01*
X578493Y511350D01*
X578420Y511545D01*
X578322Y511789D01*
X578176Y512033D01*
X577980Y512253D01*
X577956Y512277D01*
X577883Y512350D01*
X577761Y512448D01*
X577590Y512546D01*
X577394Y512643D01*
X577150Y512741D01*
X576882Y512814D01*
X576589Y512839D01*
X572537D01*
X572415Y512863D01*
X572317Y512912D01*
X572195Y513009D01*
X572073Y513107D01*
X572000Y513278D01*
X571976Y513498D01*
Y513522D01*
Y513595D01*
X572000Y513717D01*
X572049Y513839D01*
X572146Y513937D01*
X572244Y514059D01*
X572415Y514132D01*
X572635Y514157D01*
X576711D01*
X576809Y514132D01*
D02*
G37*
G36*
X255000Y362500D02*
X595000Y362500D01*
X595000Y302146D01*
X594750Y299250D01*
X590500D01*
Y292000D01*
X587500D01*
Y289000D01*
X580250D01*
Y288000D01*
X477000Y288000D01*
Y302000D01*
X406000Y302000D01*
Y290000D01*
X393000D01*
X393000Y323000D01*
X477000Y323000D01*
Y323000D01*
X529000D01*
Y334681D01*
X225000Y334681D01*
X225000Y362500D01*
X225000Y400000D01*
X167500Y400000D01*
Y392500D01*
X163000D01*
Y382500D01*
X157000D01*
Y392500D01*
X152500D01*
Y422500D01*
X255000Y422500D01*
Y362500D01*
D02*
G37*
G36*
X586011Y514132D02*
X586279Y514108D01*
X586597Y514035D01*
X586963Y513913D01*
X587354Y513742D01*
X587744Y513498D01*
X588110Y513180D01*
X588159Y513131D01*
X588257Y513009D01*
X588428Y512814D01*
X588598Y512546D01*
X588769Y512204D01*
X588940Y511813D01*
X589038Y511350D01*
X589087Y510861D01*
Y510813D01*
Y510690D01*
X589062Y510520D01*
X589013Y510276D01*
X588940Y509983D01*
X588818Y509665D01*
X588672Y509324D01*
X588476Y508957D01*
X584351Y502318D01*
X588525D01*
X588647Y502294D01*
X588769Y502245D01*
X588867Y502147D01*
X588989Y502050D01*
X589062Y501879D01*
X589087Y501659D01*
Y501635D01*
Y501561D01*
X589062Y501439D01*
X589013Y501342D01*
X588916Y501220D01*
X588818Y501098D01*
X588647Y501024D01*
X588428Y501000D01*
X583058D01*
X582935Y501024D01*
X582838Y501073D01*
X582716Y501146D01*
X582594Y501269D01*
X582520Y501415D01*
X582496Y501635D01*
Y501684D01*
X582520Y501757D01*
X582545Y501903D01*
X582618Y502025D01*
X587427Y509763D01*
X587451Y509787D01*
X587476Y509861D01*
X587524Y509958D01*
X587598Y510105D01*
X587671Y510276D01*
X587720Y510446D01*
X587744Y510642D01*
X587769Y510861D01*
Y510886D01*
Y511008D01*
X587744Y511154D01*
X587695Y511350D01*
X587622Y511545D01*
X587524Y511789D01*
X587378Y512033D01*
X587183Y512253D01*
X587158Y512277D01*
X587085Y512350D01*
X586963Y512448D01*
X586792Y512546D01*
X586597Y512643D01*
X586353Y512741D01*
X586084Y512814D01*
X585791Y512839D01*
X585742D01*
X585596Y512814D01*
X585376Y512741D01*
X585108Y512643D01*
X584790Y512424D01*
X584620Y512301D01*
X584449Y512131D01*
X584278Y511960D01*
X584107Y511716D01*
X583912Y511472D01*
X583741Y511179D01*
Y511154D01*
X583717Y511130D01*
X583595Y511032D01*
X583424Y510910D01*
X583302Y510886D01*
X583155Y510861D01*
X583058D01*
X582935Y510886D01*
X582838Y510935D01*
X582716Y511032D01*
X582594Y511130D01*
X582520Y511301D01*
X582496Y511520D01*
Y511545D01*
Y511618D01*
X582520Y511691D01*
X582569Y511789D01*
X582594Y511813D01*
X582618Y511887D01*
X582691Y512009D01*
X582789Y512155D01*
X582911Y512350D01*
X583058Y512546D01*
X583228Y512741D01*
X583424Y512985D01*
X583887Y513400D01*
X584156Y513620D01*
X584449Y513791D01*
X584742Y513937D01*
X585083Y514059D01*
X585425Y514132D01*
X585791Y514157D01*
X585913D01*
X586011Y514132D01*
D02*
G37*
G36*
X604416D02*
X604684Y514108D01*
X605001Y514035D01*
X605368Y513913D01*
X605758Y513742D01*
X606149Y513498D01*
X606515Y513180D01*
X606564Y513131D01*
X606661Y513009D01*
X606832Y512790D01*
X607003Y512521D01*
X607174Y512179D01*
X607345Y511789D01*
X607442Y511350D01*
X607491Y510861D01*
Y510837D01*
Y510788D01*
Y510690D01*
X607467Y510593D01*
X607442Y510446D01*
X607418Y510276D01*
X607320Y509909D01*
X607174Y509495D01*
X606930Y509055D01*
X606783Y508835D01*
X606613Y508616D01*
X606417Y508420D01*
X606173Y508225D01*
X606198D01*
X606222Y508176D01*
X606368Y508054D01*
X606588Y507835D01*
X606832Y507517D01*
X607076Y507151D01*
X607296Y506687D01*
X607442Y506175D01*
X607467Y505882D01*
X607491Y505589D01*
Y504271D01*
Y504246D01*
Y504222D01*
Y504149D01*
X607467Y504051D01*
X607442Y503783D01*
X607369Y503465D01*
X607247Y503099D01*
X607076Y502709D01*
X606832Y502318D01*
X606515Y501952D01*
X606466Y501903D01*
X606344Y501805D01*
X606124Y501659D01*
X605856Y501488D01*
X605514Y501293D01*
X605124Y501146D01*
X604684Y501049D01*
X604196Y501000D01*
X601462D01*
X601340Y501024D01*
X601242Y501073D01*
X601120Y501171D01*
X600998Y501269D01*
X600925Y501439D01*
X600901Y501659D01*
Y501684D01*
Y501757D01*
X600925Y501879D01*
X600974Y502001D01*
X601072Y502098D01*
X601169Y502220D01*
X601340Y502294D01*
X601560Y502318D01*
X604342D01*
X604489Y502342D01*
X604684Y502391D01*
X604904Y502465D01*
X605124Y502562D01*
X605368Y502684D01*
X605587Y502879D01*
X605612Y502904D01*
X605685Y502977D01*
X605783Y503099D01*
X605880Y503270D01*
X605978Y503465D01*
X606076Y503709D01*
X606149Y503978D01*
X606173Y504271D01*
Y505589D01*
Y505613D01*
Y505735D01*
X606149Y505882D01*
X606100Y506077D01*
X606027Y506272D01*
X605929Y506516D01*
X605783Y506761D01*
X605587Y506980D01*
X605563Y507005D01*
X605490Y507078D01*
X605368Y507176D01*
X605197Y507273D01*
X605001Y507371D01*
X604757Y507468D01*
X604489Y507542D01*
X604196Y507566D01*
X602780D01*
X602658Y507590D01*
X602561Y507639D01*
X602439Y507737D01*
X602317Y507835D01*
X602243Y508005D01*
X602219Y508225D01*
Y508250D01*
Y508323D01*
X602243Y508445D01*
X602292Y508567D01*
X602390Y508665D01*
X602487Y508787D01*
X602658Y508860D01*
X602878Y508884D01*
X604342D01*
X604489Y508909D01*
X604684Y508957D01*
X604904Y509031D01*
X605124Y509128D01*
X605368Y509250D01*
X605587Y509446D01*
X605612Y509470D01*
X605685Y509543D01*
X605783Y509665D01*
X605880Y509836D01*
X605978Y510056D01*
X606076Y510300D01*
X606149Y510569D01*
X606173Y510861D01*
Y510886D01*
Y511008D01*
X606149Y511154D01*
X606100Y511350D01*
X606027Y511545D01*
X605929Y511789D01*
X605783Y512033D01*
X605587Y512253D01*
X605563Y512277D01*
X605490Y512350D01*
X605368Y512448D01*
X605197Y512546D01*
X605001Y512643D01*
X604757Y512741D01*
X604489Y512814D01*
X604196Y512839D01*
X601462D01*
X601340Y512863D01*
X601242Y512912D01*
X601120Y513009D01*
X600998Y513107D01*
X600925Y513278D01*
X600901Y513498D01*
Y513522D01*
Y513595D01*
X600925Y513717D01*
X600974Y513839D01*
X601072Y513937D01*
X601169Y514059D01*
X601340Y514132D01*
X601560Y514157D01*
X604318D01*
X604416Y514132D01*
D02*
G37*
G36*
X597166D02*
X597288Y514083D01*
X597410Y513986D01*
X597508Y513888D01*
X597581Y513717D01*
X597606Y513498D01*
Y513473D01*
Y513400D01*
X597581Y513278D01*
X597532Y513180D01*
X597459Y513058D01*
X597337Y512936D01*
X597191Y512863D01*
X596971Y512839D01*
X593041D01*
Y508884D01*
X595116D01*
X595213Y508860D01*
X595482Y508835D01*
X595799Y508762D01*
X596165Y508640D01*
X596556Y508469D01*
X596946Y508225D01*
X597313Y507908D01*
X597361Y507859D01*
X597459Y507737D01*
X597630Y507517D01*
X597801Y507249D01*
X597972Y506907D01*
X598143Y506516D01*
X598240Y506077D01*
X598289Y505589D01*
Y504271D01*
Y504246D01*
Y504222D01*
Y504149D01*
X598265Y504051D01*
X598240Y503783D01*
X598167Y503465D01*
X598045Y503099D01*
X597874Y502709D01*
X597630Y502318D01*
X597313Y501952D01*
X597264Y501903D01*
X597142Y501805D01*
X596922Y501659D01*
X596654Y501488D01*
X596312Y501293D01*
X595921Y501146D01*
X595482Y501049D01*
X594994Y501000D01*
X592260D01*
X592162Y501024D01*
X592040Y501073D01*
X591918Y501171D01*
X591820Y501269D01*
X591747Y501439D01*
X591723Y501659D01*
Y501684D01*
Y501757D01*
X591747Y501879D01*
X591796Y502001D01*
X591869Y502098D01*
X591991Y502220D01*
X592138Y502294D01*
X592357Y502318D01*
X595140D01*
X595287Y502342D01*
X595482Y502391D01*
X595701Y502465D01*
X595921Y502562D01*
X596165Y502684D01*
X596385Y502879D01*
X596409Y502904D01*
X596483Y502977D01*
X596580Y503099D01*
X596678Y503270D01*
X596776Y503465D01*
X596873Y503709D01*
X596946Y503978D01*
X596971Y504271D01*
Y505589D01*
Y505613D01*
Y505735D01*
X596946Y505882D01*
X596898Y506077D01*
X596824Y506272D01*
X596727Y506516D01*
X596580Y506761D01*
X596385Y506980D01*
X596361Y507005D01*
X596287Y507078D01*
X596165Y507176D01*
X595994Y507273D01*
X595799Y507371D01*
X595555Y507468D01*
X595287Y507542D01*
X594994Y507566D01*
X592260D01*
X592162Y507590D01*
X592040Y507639D01*
X591918Y507737D01*
X591820Y507835D01*
X591747Y508005D01*
X591723Y508225D01*
Y513498D01*
Y513522D01*
Y513595D01*
X591747Y513717D01*
X591796Y513839D01*
X591869Y513937D01*
X591991Y514059D01*
X592138Y514132D01*
X592357Y514157D01*
X597068D01*
X597166Y514132D01*
D02*
G37*
%LPC*%
G36*
X572000Y193500D02*
X550500D01*
Y183500D01*
X572000D01*
Y193500D01*
D02*
G37*
G36*
X497000Y194500D02*
X484000D01*
Y189000D01*
X497000D01*
Y194500D01*
D02*
G37*
G36*
X544500Y193500D02*
X523000D01*
Y183500D01*
X544500D01*
Y193500D01*
D02*
G37*
G36*
X584500Y186750D02*
X580250D01*
Y182500D01*
X584500D01*
Y186750D01*
D02*
G37*
G36*
X594750D02*
X590500D01*
Y182500D01*
X594750D01*
Y186750D01*
D02*
G37*
G36*
X516000Y194500D02*
X503000D01*
Y189000D01*
X516000D01*
Y194500D01*
D02*
G37*
G36*
X497000Y206000D02*
X484000D01*
Y200500D01*
X497000D01*
Y206000D01*
D02*
G37*
G36*
X572000Y209500D02*
X550500D01*
Y199500D01*
X572000D01*
Y209500D01*
D02*
G37*
G36*
X544500D02*
X523000D01*
Y199500D01*
X544500D01*
Y209500D01*
D02*
G37*
G36*
X516000Y206000D02*
X503000D01*
Y200500D01*
X516000D01*
Y206000D01*
D02*
G37*
G36*
X547000Y319500D02*
X525500D01*
Y309500D01*
X547000D01*
Y319500D01*
D02*
G37*
G36*
X518500Y304500D02*
X505500D01*
Y299000D01*
X518500D01*
Y304500D01*
D02*
G37*
G36*
X499500D02*
X486500D01*
Y299000D01*
X499500D01*
Y304500D01*
D02*
G37*
G36*
X518500Y316000D02*
X505500D01*
Y310500D01*
X518500D01*
Y316000D01*
D02*
G37*
G36*
X499500D02*
X486500D01*
Y310500D01*
X499500D01*
Y316000D01*
D02*
G37*
G36*
X574500Y319500D02*
X553000D01*
Y309500D01*
X574500D01*
Y319500D01*
D02*
G37*
G36*
X584500Y299250D02*
X580250D01*
Y295000D01*
X584500D01*
Y299250D01*
D02*
G37*
G36*
X574500Y303500D02*
X553000D01*
Y293500D01*
X574500D01*
Y303500D01*
D02*
G37*
G36*
X547000D02*
X525500D01*
Y293500D01*
X547000D01*
Y303500D01*
D02*
G37*
%LPD*%
D10*
X557500Y80000D02*
D03*
X355000Y557659D02*
D03*
D11*
X210000Y126000D02*
D03*
Y194000D02*
D03*
Y238500D02*
D03*
Y306500D02*
D03*
X547500Y196500D02*
D03*
Y128500D02*
D03*
X550000Y306500D02*
D03*
Y238500D02*
D03*
D12*
X157500Y306500D02*
D03*
Y263500D02*
D03*
Y194000D02*
D03*
Y151000D02*
D03*
D13*
X246581Y73000D02*
D03*
Y59000D02*
D03*
X312500Y80000D02*
D03*
Y66000D02*
D03*
X361600Y77000D02*
D03*
Y63000D02*
D03*
X344100Y77000D02*
D03*
Y63000D02*
D03*
X418000Y63000D02*
D03*
Y77000D02*
D03*
X399500Y77000D02*
D03*
Y63000D02*
D03*
X587500Y142000D02*
D03*
Y128000D02*
D03*
Y179500D02*
D03*
Y165500D02*
D03*
Y252000D02*
D03*
Y238000D02*
D03*
Y292000D02*
D03*
Y278000D02*
D03*
X630000Y433000D02*
D03*
Y447000D02*
D03*
X577500Y413000D02*
D03*
Y427000D02*
D03*
X217500Y89500D02*
D03*
Y75500D02*
D03*
D14*
X233000Y90000D02*
D03*
X247000D02*
D03*
X629500Y412500D02*
D03*
X615500D02*
D03*
D15*
X269581Y75500D02*
D03*
Y56500D02*
D03*
X293581Y66000D02*
D03*
X612058Y432277D02*
D03*
Y451278D02*
D03*
X588058Y441777D02*
D03*
D16*
X500000Y197500D02*
D03*
Y162500D02*
D03*
X502500Y307500D02*
D03*
Y272500D02*
D03*
D17*
X546500Y442122D02*
D03*
Y423122D02*
D03*
X524000Y423022D02*
D03*
Y442022D02*
D03*
D18*
X497000Y447000D02*
D03*
X478000D02*
D03*
X487500Y423000D02*
D03*
D19*
X405500Y507500D02*
D03*
X424500D02*
D03*
D20*
X360000Y457500D02*
D03*
D21*
X425000Y480400D02*
D03*
Y434600D02*
D03*
D22*
X160000Y382500D02*
Y398000D01*
X197500Y490000D02*
X211000D01*
X140000Y194000D02*
X157500D01*
X133000Y187000D02*
X140000Y194000D01*
X133000Y111000D02*
Y187000D01*
X109500Y306500D02*
X157500D01*
X93000Y290000D02*
X109500Y306500D01*
X93000Y148000D02*
Y290000D01*
X157500Y99500D02*
Y151000D01*
X138000Y80000D02*
X157500Y99500D01*
X57500Y80000D02*
X138000D01*
X113000Y130000D02*
Y254000D01*
X103000Y120000D02*
X113000Y130000D01*
X57500Y120000D02*
X103000D01*
X85000Y140000D02*
X93000Y148000D01*
X57500Y140000D02*
X85000D01*
X122000Y100000D02*
X133000Y111000D01*
X57500Y100000D02*
X122000D01*
X113000Y254000D02*
X122500Y263500D01*
X157500D01*
X272500Y126000D02*
Y177500D01*
X210000Y126000D02*
X272500D01*
Y238500D02*
Y290000D01*
X210000Y238500D02*
X272500D01*
X210000Y126000D02*
Y151000D01*
X157500D02*
X210000D01*
Y238500D02*
Y263000D01*
X209500Y263500D02*
X210000Y263000D01*
X157500Y263500D02*
X209500D01*
X297900Y290000D02*
Y307000D01*
X210000D02*
X297900D01*
Y177500D02*
Y194500D01*
X210000D02*
X297900D01*
X210000Y306500D02*
Y307000D01*
X37500Y160000D02*
X57500D01*
X546500Y197500D02*
X547500Y196500D01*
X500000Y197500D02*
X546500D01*
X210000Y194000D02*
Y194500D01*
X210000Y194000D02*
X210000Y194000D01*
X157500Y194000D02*
X210000D01*
X157500Y306500D02*
X210000D01*
X37500Y100000D02*
X57500D01*
X37500Y80000D02*
X57500D01*
D23*
X247000Y73419D02*
Y90000D01*
X257500Y75500D02*
X269581D01*
X255000Y73000D02*
X257500Y75500D01*
X246581Y73000D02*
X255000D01*
X246581D02*
X247000Y73419D01*
X293581Y66000D02*
X312500D01*
X323300Y162500D02*
Y177500D01*
X312500Y151700D02*
X323300Y162500D01*
X312500Y80000D02*
Y151700D01*
X202500Y90000D02*
X233000D01*
X130000Y17500D02*
X202500Y90000D01*
X30000Y17500D02*
X130000D01*
X15000Y32500D02*
X30000Y17500D01*
X15000Y32500D02*
Y390000D01*
X25000Y400000D01*
X135000D01*
X140000Y395000D01*
Y382500D02*
Y395000D01*
X487500Y423000D02*
X487622Y423122D01*
X524000D01*
D24*
X408000Y275000D02*
X431000D01*
X361600Y228600D02*
X408000Y275000D01*
X361600Y77000D02*
Y228600D01*
X416479Y48500D02*
X439833D01*
X376646Y8666D02*
X416479Y48500D01*
X418000Y118000D02*
X424000Y124000D01*
X418000Y77000D02*
Y118000D01*
X399500Y63000D02*
X418000D01*
X344100D02*
X361600D01*
X443500Y551500D02*
X470000Y525000D01*
X416479Y551500D02*
X443500D01*
X411500Y556479D02*
X416479Y551500D01*
X411500Y556479D02*
Y585500D01*
X395500Y601500D02*
X411500Y585500D01*
X296500Y601500D02*
X395500D01*
X270000Y575000D02*
X296500Y601500D01*
X610000Y62021D02*
Y142000D01*
X596479Y48500D02*
X610000Y62021D01*
X496500Y48500D02*
X596479D01*
X470000Y75000D02*
X496500Y48500D01*
X226334Y8666D02*
X376646D01*
X205000Y30000D02*
X226334Y8666D01*
X205000Y30000D02*
Y35000D01*
X466334Y75000D02*
X470000D01*
X439833Y48500D02*
X466334Y75000D01*
X550500Y238000D02*
X587500D01*
Y142000D02*
Y165500D01*
X548000Y128000D02*
X587500D01*
X399500Y77000D02*
Y177500D01*
Y76081D02*
Y77000D01*
X246581Y59000D02*
X257500D01*
X260000Y56500D01*
X269581D01*
X323300D01*
X327500Y60700D01*
Y71500D01*
X333000Y77000D01*
X344100D01*
Y234600D02*
X399500Y290000D01*
X344100Y77000D02*
Y234600D01*
X399500Y177500D02*
X399500Y177500D01*
X587500Y252000D02*
Y265000D01*
Y278000D01*
X587500Y142000D02*
X610000D01*
X612058Y432277D02*
X629278D01*
X612058Y451278D02*
Y461611D01*
X478000Y447000D02*
Y464500D01*
X497000Y447000D02*
Y463500D01*
X523978Y423000D02*
X524000Y423022D01*
X456422Y434600D02*
X468022Y423000D01*
X425000Y434600D02*
X456422D01*
X468022Y423000D02*
X487500D01*
X523978D01*
X546400Y423022D02*
X546500Y423122D01*
X524000Y423022D02*
X546400D01*
X578000Y412500D02*
X615500D01*
X629500D02*
Y432500D01*
X612058Y451278D02*
X625722D01*
X630000Y447000D01*
X497000Y447000D02*
X507277D01*
X512255Y442022D01*
X524000D01*
X577000Y427500D02*
X577500Y427000D01*
X565000Y427500D02*
X577000D01*
X546845Y441777D02*
X588058D01*
X217500Y75500D02*
X217500Y75500D01*
X205000Y75500D02*
X217500D01*
D25*
X547500Y128500D02*
X548500Y129500D01*
X547500Y196500D02*
X548000Y197000D01*
X587500D01*
D26*
X398000Y507500D02*
D03*
D27*
X424500Y496250D02*
D03*
D28*
X348750Y461750D02*
D03*
D29*
X456500Y474000D02*
D03*
D30*
X241250Y510000D02*
D03*
D31*
X160000Y382500D02*
D03*
D32*
X80000Y362500D02*
D03*
X160000D02*
D03*
X140000Y382500D02*
D03*
Y362500D02*
D03*
X120000Y382500D02*
D03*
Y362500D02*
D03*
X100000Y382500D02*
D03*
Y362500D02*
D03*
X80000Y382500D02*
D03*
D33*
X195000Y372500D02*
D03*
X45000D02*
D03*
X187500Y455000D02*
D03*
Y565000D02*
D03*
D34*
X450300Y177500D02*
D03*
X424900D02*
D03*
X399500D02*
D03*
X374100D02*
D03*
X323300D02*
D03*
X297900D02*
D03*
X450300Y290000D02*
D03*
X424900D02*
D03*
X399500D02*
D03*
X374100D02*
D03*
X323300D02*
D03*
X297900D02*
D03*
X129000Y47000D02*
D03*
D35*
X272500Y177500D02*
D03*
Y290000D02*
D03*
X197500Y490000D02*
D03*
X57500Y80000D02*
D03*
D36*
X177500Y490000D02*
D03*
X197500Y510000D02*
D03*
X177500D02*
D03*
X197500Y530000D02*
D03*
X177500D02*
D03*
X57500Y160000D02*
D03*
X37500Y140000D02*
D03*
X57500D02*
D03*
X37500Y120000D02*
D03*
X57500D02*
D03*
X37500Y100000D02*
D03*
X57500D02*
D03*
X37500Y80000D02*
D03*
Y220000D02*
D03*
X57500D02*
D03*
X37500Y200000D02*
D03*
X57500D02*
D03*
X37500Y180000D02*
D03*
X57500D02*
D03*
X37500Y160000D02*
D03*
D37*
X47500Y45000D02*
D03*
Y255000D02*
D03*
D38*
X470000Y75000D02*
D03*
X270000Y575000D02*
D03*
X470000Y525000D02*
D03*
X205000Y35000D02*
D03*
D39*
X317500Y502500D02*
D03*
X327500D02*
D03*
X337500D02*
D03*
X347500D02*
D03*
X357500D02*
D03*
X367500D02*
D03*
X377500D02*
D03*
X387500D02*
D03*
X478000Y484000D02*
D03*
Y474500D02*
D03*
Y464500D02*
D03*
X488000Y484000D02*
D03*
Y474500D02*
D03*
Y464500D02*
D03*
X498000Y484500D02*
D03*
Y474500D02*
D03*
Y464500D02*
D03*
X468000Y464000D02*
D03*
Y474000D02*
D03*
Y484000D02*
D03*
X458000Y464000D02*
D03*
Y474000D02*
D03*
Y483500D02*
D03*
X448000Y464000D02*
D03*
Y474000D02*
D03*
Y483500D02*
D03*
X307725Y502500D02*
D03*
Y412500D02*
D03*
X387500D02*
D03*
X377500D02*
D03*
X367500D02*
D03*
X357500D02*
D03*
X347500D02*
D03*
X337500D02*
D03*
X327500D02*
D03*
X317500D02*
D03*
X307725Y490656D02*
D03*
Y452567D02*
D03*
Y443045D02*
D03*
Y433522D02*
D03*
Y424000D02*
D03*
Y471611D02*
D03*
Y462089D02*
D03*
Y481133D02*
D03*
X612058Y461611D02*
D03*
X565000Y427500D02*
D03*
Y413000D02*
D03*
X205000Y75500D02*
D03*
D40*
X610000Y142000D02*
D03*
X587500Y265000D02*
D03*
M02*
