G04 Layer_Color=16711935*
%FSLAX44Y44*%
%MOMM*%
G71*
G01*
G75*
%ADD64C,2.4000*%
%ADD65O,1.4000X1.8500*%
%ADD66R,1.6000X1.6000*%
%ADD67R,1.4000X1.6000*%
%ADD68C,1.6000*%
%ADD69R,1.6000X1.6000*%
%ADD70O,1.8500X1.4000*%
%ADD71C,5.2000*%
D64*
X660000Y512500D02*
D03*
X570000D02*
D03*
X215000Y372500D02*
D03*
X45000D02*
D03*
X187500Y445000D02*
D03*
Y555000D02*
D03*
X47500Y45000D02*
D03*
Y255000D02*
D03*
D65*
X625000Y522500D02*
D03*
Y502500D02*
D03*
X605000Y522500D02*
D03*
X100000Y362500D02*
D03*
X80000Y382500D02*
D03*
Y362500D02*
D03*
X180000D02*
D03*
X160000Y382500D02*
D03*
Y362500D02*
D03*
X140000Y382500D02*
D03*
Y362500D02*
D03*
X120000Y382500D02*
D03*
Y362500D02*
D03*
X100000Y382500D02*
D03*
D66*
X605000Y502500D02*
D03*
D67*
X180000Y382500D02*
D03*
D68*
X450300Y177500D02*
D03*
X424900D02*
D03*
X399500D02*
D03*
X374100D02*
D03*
X323300D02*
D03*
X297900D02*
D03*
X450300Y295000D02*
D03*
X424900D02*
D03*
X399500D02*
D03*
X374100D02*
D03*
X323300D02*
D03*
X297900D02*
D03*
X129000Y47000D02*
D03*
D69*
X272500Y177500D02*
D03*
Y295000D02*
D03*
X197500Y480000D02*
D03*
X57500Y80000D02*
D03*
D70*
X177500Y480000D02*
D03*
X197500Y500000D02*
D03*
X177500D02*
D03*
X197500Y520000D02*
D03*
X177500D02*
D03*
X57500Y160000D02*
D03*
X37500Y140000D02*
D03*
X57500D02*
D03*
X37500Y120000D02*
D03*
X57500D02*
D03*
X37500Y100000D02*
D03*
X57500D02*
D03*
X37500Y80000D02*
D03*
Y220000D02*
D03*
X57500D02*
D03*
X37500Y200000D02*
D03*
X57500D02*
D03*
X37500Y180000D02*
D03*
X57500D02*
D03*
X37500Y160000D02*
D03*
D71*
X470000Y75000D02*
D03*
X270000Y575000D02*
D03*
X470000Y525000D02*
D03*
X205000Y35000D02*
D03*
M02*
