G04 Layer_Color=16711935*
%FSLAX44Y44*%
%MOMM*%
G71*
G01*
G75*
%ADD61C,5.2000*%
%ADD62R,1.6000X1.6000*%
%ADD63C,1.6000*%
%ADD64R,1.6000X1.6000*%
%ADD65C,2.4000*%
%ADD66O,1.4000X1.8500*%
%ADD67R,1.4000X1.6000*%
%ADD68O,1.8500X1.4000*%
D61*
X-75000Y-472500D02*
D03*
X190000Y17500D02*
D03*
X-10000Y67500D02*
D03*
X190000Y-432500D02*
D03*
D62*
X-7500Y-330000D02*
D03*
X-222500Y-427500D02*
D03*
X-82500Y-27500D02*
D03*
X-7500Y-212500D02*
D03*
D63*
X17900Y-330000D02*
D03*
X43300D02*
D03*
X94100D02*
D03*
X119500D02*
D03*
X144900D02*
D03*
X170300D02*
D03*
X325000Y15000D02*
D03*
X345000Y-5000D02*
D03*
Y15000D02*
D03*
X-102500Y12500D02*
D03*
X-82500D02*
D03*
X-102500Y-7500D02*
D03*
X-82500D02*
D03*
X-102500Y-27500D02*
D03*
X17900Y-212500D02*
D03*
X43300D02*
D03*
X94100D02*
D03*
X119500D02*
D03*
X144900D02*
D03*
X170300D02*
D03*
X-151000Y-460500D02*
D03*
D64*
X325000Y-5000D02*
D03*
D65*
X290000Y5000D02*
D03*
X380000D02*
D03*
X-235000Y-135000D02*
D03*
X-65000D02*
D03*
X-232500Y-252500D02*
D03*
Y-462500D02*
D03*
X-92500Y47500D02*
D03*
Y-62500D02*
D03*
D66*
X-180000Y-125000D02*
D03*
X-160000Y-145000D02*
D03*
Y-125000D02*
D03*
X-140000Y-145000D02*
D03*
Y-125000D02*
D03*
X-120000Y-145000D02*
D03*
Y-125000D02*
D03*
X-100000Y-145000D02*
D03*
X-200000D02*
D03*
Y-125000D02*
D03*
X-180000Y-145000D02*
D03*
D67*
X-100000Y-125000D02*
D03*
D68*
X-242500Y-347500D02*
D03*
X-222500Y-327500D02*
D03*
X-242500D02*
D03*
X-222500Y-307500D02*
D03*
X-242500D02*
D03*
X-222500Y-287500D02*
D03*
X-242500D02*
D03*
Y-427500D02*
D03*
X-222500Y-407500D02*
D03*
X-242500D02*
D03*
X-222500Y-387500D02*
D03*
X-242500D02*
D03*
X-222500Y-367500D02*
D03*
X-242500D02*
D03*
X-222500Y-347500D02*
D03*
M02*
