G04 Layer_Color=8388736*
%FSLAX44Y44*%
%MOMM*%
G71*
G01*
G75*
%ADD53R,1.0500X1.0500*%
%ADD54R,4.5000X2.2000*%
%ADD55R,2.5000X2.7000*%
%ADD56R,1.0500X1.0500*%
%ADD57R,1.2000X0.8000*%
%ADD58R,2.8000X1.3000*%
%ADD59R,1.7000X1.5000*%
%ADD60R,0.8000X1.2000*%
%ADD61R,1.5000X1.7000*%
%ADD62R,6.9000X6.9000*%
%ADD63R,3.2000X1.8000*%
%ADD64C,1.6000*%
%ADD65C,2.4000*%
%ADD66O,1.4000X1.8500*%
%ADD67R,1.6000X1.6000*%
%ADD68R,1.4000X1.6000*%
%ADD69R,1.6000X1.6000*%
%ADD70O,1.8500X1.4000*%
%ADD71C,5.2000*%
D53*
X217081Y92000D02*
D03*
Y78000D02*
D03*
X577500Y413000D02*
D03*
Y427000D02*
D03*
X246581Y73000D02*
D03*
Y59000D02*
D03*
X312500Y80000D02*
D03*
Y66000D02*
D03*
X361600Y77000D02*
D03*
Y63000D02*
D03*
X344100Y77000D02*
D03*
Y63000D02*
D03*
X418000Y63000D02*
D03*
Y77000D02*
D03*
X399500Y77000D02*
D03*
Y63000D02*
D03*
X587500Y142000D02*
D03*
Y128000D02*
D03*
Y179500D02*
D03*
Y165500D02*
D03*
Y257000D02*
D03*
Y243000D02*
D03*
Y297000D02*
D03*
Y283000D02*
D03*
X630000Y433000D02*
D03*
Y447000D02*
D03*
D54*
X210000Y194000D02*
D03*
Y126000D02*
D03*
Y311500D02*
D03*
Y243500D02*
D03*
X547500Y128500D02*
D03*
Y196500D02*
D03*
X550000Y243500D02*
D03*
Y311500D02*
D03*
D55*
X157500D02*
D03*
Y268500D02*
D03*
Y194000D02*
D03*
Y151000D02*
D03*
D56*
X232581Y92500D02*
D03*
X246581D02*
D03*
X629500Y412500D02*
D03*
X615500D02*
D03*
D57*
X269581Y75500D02*
D03*
Y56500D02*
D03*
X293581Y66000D02*
D03*
X612058Y432277D02*
D03*
Y451278D02*
D03*
X588058Y441777D02*
D03*
D58*
X500000Y197500D02*
D03*
Y162500D02*
D03*
X502500Y312500D02*
D03*
Y277500D02*
D03*
D59*
X546500Y442122D02*
D03*
Y423122D02*
D03*
X524000Y423022D02*
D03*
Y442022D02*
D03*
D60*
X497000Y447000D02*
D03*
X478000D02*
D03*
X487500Y423000D02*
D03*
D61*
X405500Y507500D02*
D03*
X424500D02*
D03*
D62*
X360000Y457500D02*
D03*
D63*
X425000Y480400D02*
D03*
Y434600D02*
D03*
D64*
X129000Y47000D02*
D03*
X450300Y177500D02*
D03*
X424900D02*
D03*
X399500D02*
D03*
X374100D02*
D03*
X323300D02*
D03*
X297900D02*
D03*
X450300Y295000D02*
D03*
X424900D02*
D03*
X399500D02*
D03*
X374100D02*
D03*
X323300D02*
D03*
X297900D02*
D03*
D65*
X660000Y512500D02*
D03*
X570000D02*
D03*
X215000Y372500D02*
D03*
X45000D02*
D03*
X187500Y445000D02*
D03*
Y555000D02*
D03*
X47500Y45000D02*
D03*
Y255000D02*
D03*
D66*
X625000Y522500D02*
D03*
Y502500D02*
D03*
X605000Y522500D02*
D03*
X100000Y362500D02*
D03*
X80000Y382500D02*
D03*
Y362500D02*
D03*
X180000D02*
D03*
X160000Y382500D02*
D03*
Y362500D02*
D03*
X140000Y382500D02*
D03*
Y362500D02*
D03*
X120000Y382500D02*
D03*
Y362500D02*
D03*
X100000Y382500D02*
D03*
D67*
X605000Y502500D02*
D03*
D68*
X180000Y382500D02*
D03*
D69*
X272500Y177500D02*
D03*
Y295000D02*
D03*
X197500Y480000D02*
D03*
X57500Y80000D02*
D03*
D70*
X177500Y480000D02*
D03*
X197500Y500000D02*
D03*
X177500D02*
D03*
X197500Y520000D02*
D03*
X177500D02*
D03*
X57500Y160000D02*
D03*
X37500Y140000D02*
D03*
X57500D02*
D03*
X37500Y120000D02*
D03*
X57500D02*
D03*
X37500Y100000D02*
D03*
X57500D02*
D03*
X37500Y80000D02*
D03*
Y220000D02*
D03*
X57500D02*
D03*
X37500Y200000D02*
D03*
X57500D02*
D03*
X37500Y180000D02*
D03*
X57500D02*
D03*
X37500Y160000D02*
D03*
D71*
X470000Y75000D02*
D03*
X270000Y575000D02*
D03*
X470000Y525000D02*
D03*
X205000Y35000D02*
D03*
M02*
