G04 Layer_Physical_Order=4*
G04 Layer_Color=16711680*
%FSLAX44Y44*%
%MOMM*%
G71*
G01*
G75*
%ADD22C,1.0000*%
%ADD23C,0.3000*%
%ADD24C,0.5000*%
%ADD30R,12.7500X1.2000*%
%ADD31R,1.4000X1.4000*%
%ADD32O,1.2000X1.6500*%
%ADD33C,2.2000*%
%ADD34C,1.4000*%
%ADD35R,1.4000X1.4000*%
%ADD36O,1.6500X1.2000*%
%ADD37C,2.4000*%
%ADD38C,5.0000*%
%ADD39C,0.8000*%
%ADD40C,0.7000*%
%ADD41R,1.0000X0.8500*%
%ADD42R,1.0000X0.6000*%
%ADD43R,9.2500X10.8400*%
G36*
X405345Y602905D02*
X409877Y599877D01*
X412905Y595345D01*
X413925Y590216D01*
X413882Y590000D01*
Y560000D01*
X414348Y557659D01*
X415674Y555674D01*
X417659Y554348D01*
X420000Y553882D01*
X445176D01*
X446187Y551058D01*
X444954Y550046D01*
X440549Y544679D01*
X437276Y538555D01*
X435260Y531910D01*
X434580Y525000D01*
X435260Y518090D01*
X437276Y511445D01*
X440549Y505321D01*
X444954Y499954D01*
X450321Y495549D01*
X451143Y495110D01*
X450121Y492254D01*
X448000Y492676D01*
X444488Y491978D01*
X441511Y489989D01*
X439522Y487012D01*
X438824Y483500D01*
X439522Y479988D01*
X440350Y478750D01*
X439522Y477512D01*
X438824Y474000D01*
X439522Y470488D01*
X440517Y469000D01*
X439522Y467512D01*
X438824Y464000D01*
X439522Y460488D01*
X441511Y457511D01*
X444488Y455522D01*
X448000Y454824D01*
X451512Y455522D01*
X453000Y456517D01*
X454488Y455522D01*
X458000Y454824D01*
X461512Y455522D01*
X463000Y456517D01*
X464488Y455522D01*
X468000Y454824D01*
X471512Y455522D01*
X473374Y456767D01*
X474488Y456022D01*
X478000Y455324D01*
X481512Y456022D01*
X483000Y457017D01*
X484488Y456022D01*
X488000Y455324D01*
X491512Y456022D01*
X493000Y457017D01*
X494488Y456022D01*
X498000Y455324D01*
X501512Y456022D01*
X504489Y458011D01*
X506478Y460988D01*
X507176Y464500D01*
X506478Y468012D01*
X505483Y469500D01*
X506478Y470989D01*
X507176Y474500D01*
X506478Y478012D01*
X505483Y479500D01*
X506478Y480988D01*
X507176Y484500D01*
X506478Y488012D01*
X504489Y490989D01*
X501512Y492978D01*
X498000Y493676D01*
X494488Y492978D01*
X493374Y492233D01*
X490869Y493192D01*
X490410Y496149D01*
X495046Y499954D01*
X499451Y505321D01*
X502724Y511445D01*
X504740Y518090D01*
X505420Y525000D01*
X504740Y531910D01*
X502724Y538555D01*
X499451Y544679D01*
X495046Y550046D01*
X493813Y551058D01*
X494824Y553882D01*
X648882D01*
Y46118D01*
X485846D01*
X485550Y49117D01*
X491396Y53604D01*
X496205Y59871D01*
X499228Y67168D01*
X500259Y75000D01*
X499228Y82832D01*
X496205Y90129D01*
X491396Y96396D01*
X485129Y101205D01*
X477832Y104228D01*
X470000Y105259D01*
X462168Y104228D01*
X454871Y101205D01*
X448604Y96396D01*
X443795Y90129D01*
X440772Y82832D01*
X439741Y75000D01*
X440772Y67168D01*
X443795Y59871D01*
X448604Y53604D01*
X454450Y49117D01*
X454154Y46118D01*
X420000D01*
X417659Y45652D01*
X415674Y44326D01*
X414348Y42341D01*
X413882Y40000D01*
Y20000D01*
X413925Y19784D01*
X412905Y14655D01*
X409877Y10123D01*
X405345Y7095D01*
X400216Y6075D01*
X400000Y6118D01*
X229824D01*
X228813Y8942D01*
X230046Y9954D01*
X234451Y15321D01*
X237724Y21445D01*
X239740Y28090D01*
X240420Y35000D01*
X239740Y41910D01*
X237724Y48555D01*
X234451Y54679D01*
X230046Y60046D01*
X224679Y64451D01*
X218555Y67724D01*
X211910Y69740D01*
X205000Y70420D01*
X198090Y69740D01*
X191445Y67724D01*
X185321Y64451D01*
X179954Y60046D01*
X175549Y54679D01*
X172276Y48555D01*
X170260Y41910D01*
X169580Y35000D01*
X170260Y28090D01*
X172276Y21445D01*
X173732Y18720D01*
X172190Y16147D01*
X29090D01*
X22647Y22590D01*
Y41799D01*
X25647Y42095D01*
X26345Y38583D01*
X28004Y34579D01*
X30412Y30976D01*
X33476Y27912D01*
X37079Y25504D01*
X41083Y23845D01*
X45333Y23000D01*
X49667D01*
X53917Y23845D01*
X57921Y25504D01*
X61524Y27912D01*
X64588Y30976D01*
X66996Y34579D01*
X68654Y38583D01*
X69500Y42833D01*
Y47167D01*
X68654Y51417D01*
X66996Y55421D01*
X64588Y59024D01*
X61524Y62088D01*
X57921Y64496D01*
X53917Y66155D01*
X49667Y67000D01*
X45333D01*
X41083Y66155D01*
X37079Y64496D01*
X33476Y62088D01*
X30412Y59024D01*
X28004Y55421D01*
X26345Y51417D01*
X25647Y47905D01*
X22647Y48201D01*
Y87000D01*
X25495D01*
X27099Y84000D01*
X26772Y83512D01*
X26670Y83000D01*
X37500D01*
Y80000D01*
X40500D01*
Y70973D01*
X43262Y71522D01*
X44500Y72350D01*
X47500Y70746D01*
Y70000D01*
X54500D01*
Y80000D01*
X57500D01*
Y83000D01*
X67500D01*
Y87000D01*
X255000Y87000D01*
X255000Y217000D01*
X580000D01*
X580000Y256180D01*
X583000Y257784D01*
X584184Y256993D01*
X584819Y256867D01*
X602353Y239333D01*
Y145855D01*
X601993Y145316D01*
X601334Y142000D01*
X601993Y138684D01*
X603872Y135872D01*
X606684Y133993D01*
X610000Y133334D01*
X613316Y133993D01*
X616128Y135872D01*
X618007Y138684D01*
X618666Y142000D01*
X618007Y145316D01*
X617647Y145855D01*
Y242500D01*
X617647Y242500D01*
X617065Y245426D01*
X615407Y247907D01*
X615407Y247907D01*
X595633Y267681D01*
X595507Y268316D01*
X593628Y271128D01*
X590816Y273007D01*
X587500Y273666D01*
X584184Y273007D01*
X583000Y272216D01*
X580000Y273820D01*
X580000Y408000D01*
X575817D01*
X573778Y411000D01*
X574176Y413000D01*
X573478Y416512D01*
X571489Y419489D01*
X568512Y421478D01*
X565000Y422176D01*
X561488Y421478D01*
X558511Y419489D01*
X556522Y416512D01*
X556230Y415045D01*
X549186Y408000D01*
X400098Y408000D01*
Y516000D01*
X399710Y517951D01*
X398605Y519605D01*
X396951Y520710D01*
X395000Y521098D01*
X302500D01*
X302500Y521098D01*
X207959D01*
X207322Y521992D01*
X206631Y524098D01*
X208228Y526488D01*
X208330Y527000D01*
X197500D01*
Y530000D01*
X194500D01*
Y539027D01*
X191738Y538478D01*
X188761Y536489D01*
X186239D01*
X183262Y538478D01*
X180500Y539027D01*
Y530000D01*
X177500D01*
Y527000D01*
X166670D01*
X166772Y526488D01*
X168761Y523511D01*
X169639Y522925D01*
X169517Y519399D01*
X167319Y517930D01*
X164888Y514292D01*
X164035Y510000D01*
X164888Y505708D01*
X167319Y502070D01*
X169517Y500601D01*
X169639Y497075D01*
X168761Y496489D01*
X166772Y493512D01*
X166670Y493000D01*
X177500D01*
Y490000D01*
X180500D01*
Y480973D01*
X181244Y481121D01*
X183996Y479037D01*
X183990Y477092D01*
X183098Y476555D01*
X181083Y476155D01*
X177079Y474496D01*
X173476Y472089D01*
X170411Y469024D01*
X168004Y465421D01*
X166345Y461417D01*
X165500Y457167D01*
Y452833D01*
X166345Y448583D01*
X168004Y444579D01*
X170411Y440976D01*
X173476Y437911D01*
X177079Y435504D01*
X181083Y433845D01*
X185333Y433000D01*
X189667D01*
X193917Y433845D01*
X197921Y435504D01*
X201524Y437911D01*
X204589Y440976D01*
X206996Y444579D01*
X208654Y448583D01*
X209500Y452833D01*
Y457167D01*
X208654Y461417D01*
X206996Y465421D01*
X204589Y469024D01*
X201524Y472089D01*
X197921Y474496D01*
X196705Y475000D01*
X197301Y478000D01*
X209500D01*
Y498902D01*
X297402D01*
Y408000D01*
X154755Y408000D01*
X153607Y410772D01*
X153907Y411072D01*
X153907Y411072D01*
X155565Y413553D01*
X156147Y416479D01*
X156147Y416479D01*
Y582863D01*
X167137Y593853D01*
X237190D01*
X238732Y591280D01*
X237276Y588555D01*
X235260Y581910D01*
X234580Y575000D01*
X235260Y568090D01*
X237276Y561445D01*
X240549Y555321D01*
X244954Y549954D01*
X250321Y545549D01*
X256445Y542276D01*
X263090Y540260D01*
X270000Y539580D01*
X276910Y540260D01*
X283555Y542276D01*
X289679Y545549D01*
X295046Y549954D01*
X299451Y555321D01*
X302724Y561445D01*
X304740Y568090D01*
X305420Y575000D01*
X304740Y581910D01*
X302724Y588555D01*
X299451Y594679D01*
X295046Y600046D01*
X293813Y601058D01*
X294824Y603882D01*
X400000D01*
X400216Y603925D01*
X405345Y602905D01*
D02*
G37*
G36*
X565000Y387000D02*
X565000Y233000D01*
X240000Y233000D01*
X240000Y98000D01*
X72607Y98000D01*
X70965Y100000D01*
X70112Y104292D01*
X67681Y107930D01*
X65483Y109399D01*
X65361Y112925D01*
X66239Y113511D01*
X68228Y116488D01*
X68330Y117000D01*
X57500D01*
Y123000D01*
X68330D01*
X68228Y123512D01*
X66239Y126489D01*
X65361Y127075D01*
X65483Y130601D01*
X67681Y132070D01*
X70112Y135708D01*
X70965Y140000D01*
X70112Y144292D01*
X67681Y147931D01*
X65483Y149399D01*
X65361Y152925D01*
X66239Y153511D01*
X68228Y156488D01*
X68330Y157000D01*
X57500D01*
Y163000D01*
X68330D01*
X68291Y163196D01*
X68479Y164069D01*
X69616Y166196D01*
X71196D01*
X136000Y231000D01*
Y231780D01*
X136123Y231964D01*
X136627Y234500D01*
Y349380D01*
X137000Y349686D01*
Y362500D01*
X143000D01*
Y351670D01*
X143512Y351772D01*
X146489Y353761D01*
X148467Y356722D01*
X148553Y356738D01*
X151447D01*
X151533Y356722D01*
X153511Y353761D01*
X156488Y351772D01*
X157000Y351670D01*
Y362500D01*
X160000D01*
Y365500D01*
X169027D01*
X168893Y366173D01*
X170986Y368962D01*
X172908Y368990D01*
X173444Y368098D01*
X173845Y366083D01*
X175504Y362079D01*
X177911Y358476D01*
X180976Y355411D01*
X184579Y353004D01*
X188583Y351345D01*
X192833Y350500D01*
X197167D01*
X201417Y351345D01*
X205421Y353004D01*
X209024Y355411D01*
X212089Y358476D01*
X214496Y362079D01*
X216154Y366083D01*
X217000Y370333D01*
Y374667D01*
X216154Y378917D01*
X214496Y382921D01*
X213775Y384000D01*
X215379Y387000D01*
X565000Y387000D01*
D02*
G37*
%LPC*%
G36*
X434499Y174500D02*
X427900D01*
Y167901D01*
X428802Y168080D01*
X432110Y170290D01*
X434320Y173598D01*
X434499Y174500D01*
D02*
G37*
G36*
X282500D02*
X275500D01*
Y167500D01*
X282500D01*
Y174500D01*
D02*
G37*
G36*
X421900D02*
X415301D01*
X415480Y173598D01*
X417690Y170290D01*
X420998Y168080D01*
X421900Y167901D01*
Y174500D01*
D02*
G37*
G36*
X269500Y187500D02*
X262500D01*
Y180500D01*
X269500D01*
Y187500D01*
D02*
G37*
G36*
X427900Y187099D02*
Y180500D01*
X434499D01*
X434320Y181402D01*
X432110Y184710D01*
X428802Y186920D01*
X427900Y187099D01*
D02*
G37*
G36*
X323300Y189735D02*
X318618Y188804D01*
X314648Y186152D01*
X312201Y182489D01*
X310600Y182325D01*
X308999Y182489D01*
X306551Y186152D01*
X302582Y188804D01*
X297900Y189735D01*
X293218Y188804D01*
X289249Y186152D01*
X286596Y182182D01*
X285665Y177500D01*
X286596Y172818D01*
X289249Y168848D01*
X293218Y166196D01*
X297900Y165265D01*
X302582Y166196D01*
X306551Y168848D01*
X308999Y172511D01*
X310600Y172675D01*
X312201Y172511D01*
X314648Y168848D01*
X318618Y166196D01*
X323300Y165265D01*
X327982Y166196D01*
X331951Y168848D01*
X334604Y172818D01*
X335535Y177500D01*
X334604Y182182D01*
X331951Y186152D01*
X327982Y188804D01*
X323300Y189735D01*
D02*
G37*
G36*
X282500Y187500D02*
X275500D01*
Y180500D01*
X282500D01*
Y187500D01*
D02*
G37*
G36*
X421900Y187099D02*
X420998Y186920D01*
X417690Y184710D01*
X415480Y181402D01*
X415301Y180500D01*
X421900D01*
Y187099D01*
D02*
G37*
G36*
X126000Y56599D02*
X125098Y56420D01*
X121790Y54210D01*
X119580Y50902D01*
X119401Y50000D01*
X126000D01*
Y56599D01*
D02*
G37*
G36*
X132000Y56599D02*
Y50000D01*
X138599D01*
X138420Y50902D01*
X136210Y54210D01*
X132902Y56420D01*
X132000Y56599D01*
D02*
G37*
G36*
X126000Y44000D02*
X119401D01*
X119580Y43098D01*
X121790Y39790D01*
X125098Y37580D01*
X126000Y37401D01*
Y44000D01*
D02*
G37*
G36*
X138599D02*
X132000D01*
Y37401D01*
X132902Y37580D01*
X136210Y39790D01*
X138420Y43098D01*
X138599Y44000D01*
D02*
G37*
G36*
X450300Y189735D02*
X445618Y188804D01*
X441648Y186152D01*
X438996Y182182D01*
X438065Y177500D01*
X438996Y172818D01*
X441648Y168848D01*
X445618Y166196D01*
X450300Y165265D01*
X454982Y166196D01*
X458951Y168848D01*
X461604Y172818D01*
X462535Y177500D01*
X461604Y182182D01*
X458951Y186152D01*
X454982Y188804D01*
X450300Y189735D01*
D02*
G37*
G36*
X269500Y174500D02*
X262500D01*
Y167500D01*
X269500D01*
Y174500D01*
D02*
G37*
G36*
X67500Y77000D02*
X60500D01*
Y70000D01*
X67500D01*
Y77000D01*
D02*
G37*
G36*
X34500D02*
X26670D01*
X26772Y76488D01*
X28761Y73511D01*
X31738Y71522D01*
X34500Y70973D01*
Y77000D01*
D02*
G37*
G36*
X399500Y189735D02*
X394818Y188804D01*
X390849Y186152D01*
X388401Y182489D01*
X386800Y182325D01*
X385199Y182489D01*
X382752Y186152D01*
X378782Y188804D01*
X374100Y189735D01*
X369418Y188804D01*
X365448Y186152D01*
X362796Y182182D01*
X361865Y177500D01*
X362796Y172818D01*
X365448Y168848D01*
X369418Y166196D01*
X374100Y165265D01*
X378782Y166196D01*
X382752Y168848D01*
X385199Y172511D01*
X386800Y172675D01*
X388401Y172511D01*
X390849Y168848D01*
X394818Y166196D01*
X399500Y165265D01*
X404182Y166196D01*
X408152Y168848D01*
X410804Y172818D01*
X411735Y177500D01*
X410804Y182182D01*
X408152Y186152D01*
X404182Y188804D01*
X399500Y189735D01*
D02*
G37*
G36*
X200500Y539027D02*
Y533000D01*
X208330D01*
X208228Y533512D01*
X206239Y536489D01*
X203262Y538478D01*
X200500Y539027D01*
D02*
G37*
G36*
X189667Y587000D02*
X185333D01*
X181083Y586155D01*
X177079Y584496D01*
X173476Y582089D01*
X170411Y579024D01*
X168004Y575421D01*
X166345Y571417D01*
X165500Y567167D01*
Y562833D01*
X166345Y558583D01*
X168004Y554579D01*
X170411Y550976D01*
X173476Y547911D01*
X177079Y545504D01*
X181083Y543845D01*
X185333Y543000D01*
X189667D01*
X193917Y543845D01*
X197921Y545504D01*
X201524Y547911D01*
X204589Y550976D01*
X206996Y554579D01*
X208654Y558583D01*
X209500Y562833D01*
Y567167D01*
X208654Y571417D01*
X206996Y575421D01*
X204589Y579024D01*
X201524Y582089D01*
X197921Y584496D01*
X193917Y586155D01*
X189667Y587000D01*
D02*
G37*
G36*
X174500Y487000D02*
X166670D01*
X166772Y486488D01*
X168761Y483511D01*
X171738Y481522D01*
X174500Y480973D01*
Y487000D01*
D02*
G37*
G36*
Y539027D02*
X171738Y538478D01*
X168761Y536489D01*
X166772Y533512D01*
X166670Y533000D01*
X174500D01*
Y539027D01*
D02*
G37*
G36*
X399500Y302235D02*
X394818Y301304D01*
X390849Y298652D01*
X388401Y294989D01*
X386800Y294825D01*
X385199Y294989D01*
X382752Y298652D01*
X378782Y301304D01*
X374100Y302235D01*
X369418Y301304D01*
X365448Y298652D01*
X362796Y294682D01*
X361865Y290000D01*
X362796Y285318D01*
X365448Y281348D01*
X369418Y278696D01*
X374100Y277765D01*
X378782Y278696D01*
X382752Y281348D01*
X385199Y285011D01*
X386800Y285175D01*
X388401Y285011D01*
X390849Y281348D01*
X394818Y278696D01*
X399500Y277765D01*
X404182Y278696D01*
X408152Y281348D01*
X410804Y285318D01*
X411735Y290000D01*
X410804Y294682D01*
X408152Y298652D01*
X404182Y301304D01*
X399500Y302235D01*
D02*
G37*
G36*
X169027Y359500D02*
X163000D01*
Y351670D01*
X163512Y351772D01*
X166489Y353761D01*
X168478Y356738D01*
X169027Y359500D01*
D02*
G37*
G36*
X427900Y299599D02*
Y293000D01*
X434499D01*
X434320Y293902D01*
X432110Y297210D01*
X428802Y299420D01*
X427900Y299599D01*
D02*
G37*
G36*
X323300Y302235D02*
X318618Y301304D01*
X314648Y298652D01*
X312201Y294989D01*
X310600Y294825D01*
X308999Y294989D01*
X306551Y298652D01*
X302582Y301304D01*
X297900Y302235D01*
X293218Y301304D01*
X289249Y298652D01*
X286596Y294682D01*
X285665Y290000D01*
X286596Y285318D01*
X289249Y281348D01*
X293218Y278696D01*
X297900Y277765D01*
X302582Y278696D01*
X306551Y281348D01*
X308999Y285011D01*
X310600Y285175D01*
X312201Y285011D01*
X314648Y281348D01*
X318618Y278696D01*
X323300Y277765D01*
X327982Y278696D01*
X331951Y281348D01*
X334604Y285318D01*
X335535Y290000D01*
X334604Y294682D01*
X331951Y298652D01*
X327982Y301304D01*
X323300Y302235D01*
D02*
G37*
G36*
X282500Y287000D02*
X275500D01*
Y280000D01*
X282500D01*
Y287000D01*
D02*
G37*
G36*
X421900D02*
X415301D01*
X415480Y286098D01*
X417690Y282790D01*
X420998Y280580D01*
X421900Y280401D01*
Y287000D01*
D02*
G37*
G36*
X450300Y302235D02*
X445618Y301304D01*
X441648Y298652D01*
X438996Y294682D01*
X438065Y290000D01*
X438996Y285318D01*
X441648Y281348D01*
X445618Y278696D01*
X450300Y277765D01*
X454982Y278696D01*
X458951Y281348D01*
X461604Y285318D01*
X462535Y290000D01*
X461604Y294682D01*
X458951Y298652D01*
X454982Y301304D01*
X450300Y302235D01*
D02*
G37*
G36*
X269500Y287000D02*
X262500D01*
Y280000D01*
X269500D01*
Y287000D01*
D02*
G37*
G36*
X282500Y300000D02*
X275500D01*
Y293000D01*
X282500D01*
Y300000D01*
D02*
G37*
G36*
X421900Y299599D02*
X420998Y299420D01*
X417690Y297210D01*
X415480Y293902D01*
X415301Y293000D01*
X421900D01*
Y299599D01*
D02*
G37*
G36*
X434499Y287000D02*
X427900D01*
Y280401D01*
X428802Y280580D01*
X432110Y282790D01*
X434320Y286098D01*
X434499Y287000D01*
D02*
G37*
G36*
X269500Y300000D02*
X262500D01*
Y293000D01*
X269500D01*
Y300000D01*
D02*
G37*
%LPD*%
D22*
X160000Y346561D02*
Y362500D01*
X57500Y160000D02*
X75000D01*
X57500Y120000D02*
X73000D01*
X57500Y80000D02*
X73000D01*
X37500D02*
X57500D01*
X37500Y160000D02*
X57500D01*
X37500Y100000D02*
X57500D01*
D23*
X73000Y230000D02*
X80000Y237000D01*
X47500Y230000D02*
X73000D01*
X37500Y220000D02*
X47500Y230000D01*
X80000Y380000D02*
X90000Y370000D01*
X80000Y380000D02*
Y382500D01*
X37500Y200000D02*
X47500Y210000D01*
X100000Y382500D02*
X110000Y372500D01*
X37500Y180000D02*
X47500Y190000D01*
X120000Y382500D02*
X130000Y372500D01*
Y234500D02*
Y372500D01*
X57500Y220000D02*
X73000D01*
X90000Y237000D01*
Y370000D01*
X80000Y237000D02*
Y362500D01*
X57500Y180000D02*
X75500D01*
X130000Y234500D01*
X47500Y210000D02*
X75000D01*
X100000Y235000D01*
Y362500D01*
X57500Y200000D02*
X75000D01*
X110000Y235000D01*
Y372500D01*
X47500Y190000D02*
X75000D01*
X120000Y235000D01*
Y362500D01*
D24*
X140000Y387000D02*
X149000Y396000D01*
X243500Y601500D02*
X270000Y575000D01*
X163970Y601500D02*
X243500D01*
X148500Y586030D02*
X163970Y601500D01*
X148500Y416479D02*
Y586030D01*
X143521Y411500D02*
X148500Y416479D01*
X33476Y411500D02*
X143521D01*
X15000Y393024D02*
X33476Y411500D01*
X15000Y120000D02*
Y393024D01*
X205000Y32571D02*
Y35000D01*
X180929Y8500D02*
X205000Y32571D01*
X25923Y8500D02*
X180929D01*
X15000Y19423D02*
X25923Y8500D01*
X15000Y19423D02*
Y120000D01*
X37500D01*
X610000Y142000D02*
Y242500D01*
X587500Y265000D02*
X610000Y242500D01*
X140000Y382500D02*
Y387000D01*
X548000Y396000D02*
X565000Y413000D01*
X149000Y396000D02*
X548000D01*
D30*
X241250Y510000D02*
D03*
D31*
X160000Y382500D02*
D03*
D32*
X80000Y362500D02*
D03*
X160000D02*
D03*
X140000Y382500D02*
D03*
Y362500D02*
D03*
X120000Y382500D02*
D03*
Y362500D02*
D03*
X100000Y382500D02*
D03*
Y362500D02*
D03*
X80000Y382500D02*
D03*
D33*
X195000Y372500D02*
D03*
X45000D02*
D03*
X187500Y455000D02*
D03*
Y565000D02*
D03*
D34*
X450300Y177500D02*
D03*
X424900D02*
D03*
X399500D02*
D03*
X374100D02*
D03*
X323300D02*
D03*
X297900D02*
D03*
X450300Y290000D02*
D03*
X424900D02*
D03*
X399500D02*
D03*
X374100D02*
D03*
X323300D02*
D03*
X297900D02*
D03*
X129000Y47000D02*
D03*
D35*
X272500Y177500D02*
D03*
Y290000D02*
D03*
X197500Y490000D02*
D03*
X57500Y80000D02*
D03*
D36*
X177500Y490000D02*
D03*
X197500Y510000D02*
D03*
X177500D02*
D03*
X197500Y530000D02*
D03*
X177500D02*
D03*
X57500Y160000D02*
D03*
X37500Y140000D02*
D03*
X57500D02*
D03*
X37500Y120000D02*
D03*
X57500D02*
D03*
X37500Y100000D02*
D03*
X57500D02*
D03*
X37500Y80000D02*
D03*
Y220000D02*
D03*
X57500D02*
D03*
X37500Y200000D02*
D03*
X57500D02*
D03*
X37500Y180000D02*
D03*
X57500D02*
D03*
X37500Y160000D02*
D03*
D37*
X47500Y45000D02*
D03*
Y255000D02*
D03*
D38*
X470000Y75000D02*
D03*
X270000Y575000D02*
D03*
X470000Y525000D02*
D03*
X205000Y35000D02*
D03*
D39*
X317500Y502500D02*
D03*
X327500D02*
D03*
X337500D02*
D03*
X347500D02*
D03*
X357500D02*
D03*
X367500D02*
D03*
X377500D02*
D03*
X387500D02*
D03*
X478000Y484000D02*
D03*
Y474500D02*
D03*
Y464500D02*
D03*
X488000Y484000D02*
D03*
Y474500D02*
D03*
Y464500D02*
D03*
X498000Y484500D02*
D03*
Y474500D02*
D03*
Y464500D02*
D03*
X468000Y464000D02*
D03*
Y474000D02*
D03*
Y484000D02*
D03*
X458000Y464000D02*
D03*
Y474000D02*
D03*
Y483500D02*
D03*
X448000Y464000D02*
D03*
Y474000D02*
D03*
Y483500D02*
D03*
X307725Y502500D02*
D03*
Y412500D02*
D03*
X387500D02*
D03*
X377500D02*
D03*
X367500D02*
D03*
X357500D02*
D03*
X347500D02*
D03*
X337500D02*
D03*
X327500D02*
D03*
X317500D02*
D03*
X307725Y490656D02*
D03*
Y452567D02*
D03*
Y443045D02*
D03*
Y433522D02*
D03*
Y424000D02*
D03*
Y471611D02*
D03*
Y462089D02*
D03*
Y481133D02*
D03*
X612058Y461611D02*
D03*
X565000Y427500D02*
D03*
Y413000D02*
D03*
X205000Y75500D02*
D03*
D40*
X610000Y142000D02*
D03*
X587500Y265000D02*
D03*
D41*
X90000Y100000D02*
D03*
Y86000D02*
D03*
D42*
X90002Y93000D02*
D03*
D43*
X348750Y461800D02*
D03*
M02*
