G04 Layer_Physical_Order=4*
G04 Layer_Color=16711680*
%FSLAX44Y44*%
%MOMM*%
G71*
G01*
G75*
%ADD22C,0.3000*%
%ADD23C,1.0000*%
%ADD24C,0.5000*%
%ADD30C,2.2000*%
%ADD31O,1.2000X1.6500*%
%ADD32R,1.4000X1.4000*%
%ADD33R,1.2000X1.4000*%
%ADD34C,1.4000*%
%ADD35R,1.4000X1.4000*%
%ADD36O,1.6500X1.2000*%
%ADD37C,5.0000*%
%ADD38C,0.8000*%
%ADD39C,0.7000*%
%ADD40R,1.0000X0.8500*%
%ADD41R,1.0000X0.6000*%
%ADD42R,9.2500X14.2400*%
%ADD43R,12.7500X1.2000*%
G36*
X602353Y223000D02*
Y145855D01*
X601993Y145316D01*
X601334Y142000D01*
X601993Y138684D01*
X603872Y135872D01*
X606684Y133993D01*
X610000Y133334D01*
X613316Y133993D01*
X616128Y135872D01*
X618007Y138684D01*
X618666Y142000D01*
X618007Y145316D01*
X617647Y145855D01*
Y223000D01*
X698883D01*
Y46118D01*
X485846D01*
X485550Y49117D01*
X491396Y53604D01*
X496205Y59871D01*
X499228Y67168D01*
X500259Y75000D01*
X499228Y82832D01*
X496205Y90129D01*
X491396Y96396D01*
X485129Y101205D01*
X477832Y104228D01*
X470000Y105259D01*
X462168Y104228D01*
X454871Y101205D01*
X448604Y96396D01*
X443795Y90129D01*
X440772Y82832D01*
X439741Y75000D01*
X440772Y67168D01*
X443795Y59871D01*
X448604Y53604D01*
X454450Y49117D01*
X454154Y46118D01*
X420000D01*
X417659Y45652D01*
X415674Y44326D01*
X414348Y42341D01*
X413882Y40000D01*
Y20000D01*
X413925Y19784D01*
X412905Y14655D01*
X409877Y10123D01*
X405345Y7095D01*
X400216Y6075D01*
X400000Y6118D01*
X229824D01*
X228813Y8942D01*
X230046Y9954D01*
X234451Y15321D01*
X237724Y21445D01*
X239740Y28090D01*
X240420Y35000D01*
X239740Y41910D01*
X237724Y48555D01*
X234451Y54679D01*
X230046Y60046D01*
X224679Y64451D01*
X218555Y67724D01*
X211910Y69740D01*
X205000Y70420D01*
X198090Y69740D01*
X191445Y67724D01*
X185321Y64451D01*
X179954Y60046D01*
X175549Y54679D01*
X172276Y48555D01*
X170260Y41910D01*
X169580Y35000D01*
X170260Y28090D01*
X172276Y21445D01*
X173732Y18720D01*
X172190Y16147D01*
X57000D01*
X57000Y25122D01*
X57921Y25504D01*
X61524Y27912D01*
X64588Y30976D01*
X66996Y34579D01*
X68654Y38583D01*
X69500Y42833D01*
Y47167D01*
X68654Y51417D01*
X66996Y55421D01*
X64588Y59024D01*
X61524Y62088D01*
X57921Y64496D01*
X57000Y64878D01*
X57000Y70000D01*
X67500D01*
Y75000D01*
X57500D01*
Y85000D01*
X67500D01*
Y89000D01*
X250000D01*
Y223000D01*
X602353Y223000D01*
D02*
G37*
G36*
X698883Y233000D02*
X617647D01*
Y242500D01*
X617647Y242500D01*
X617065Y245426D01*
X615407Y247907D01*
X615407Y247907D01*
X595693Y267621D01*
X596166Y270000D01*
X595507Y273316D01*
X593628Y276128D01*
X590816Y278007D01*
X587500Y278666D01*
X584184Y278007D01*
X581372Y276128D01*
X579493Y273316D01*
X578834Y270000D01*
X579493Y266684D01*
X579853Y266145D01*
Y265000D01*
X579853Y265000D01*
X580435Y262074D01*
X582093Y259593D01*
X602353Y239333D01*
Y233000D01*
X240000Y233000D01*
X240000Y96500D01*
X71846Y96500D01*
X70577Y98046D01*
X70965Y100000D01*
X70112Y104292D01*
X67681Y107930D01*
X64583Y110000D01*
X64335Y111774D01*
X64446Y112314D01*
X66239Y113511D01*
X67233Y115000D01*
X57500D01*
Y125000D01*
X67233D01*
X66239Y126489D01*
X64446Y127686D01*
X64335Y128226D01*
X64583Y130000D01*
X67681Y132070D01*
X70112Y135708D01*
X70965Y140000D01*
X70112Y144292D01*
X67681Y147931D01*
X64583Y150000D01*
X64335Y151775D01*
X64446Y152314D01*
X66239Y153511D01*
X67233Y155000D01*
X57500D01*
Y165000D01*
X67916D01*
X68555Y166196D01*
X82987D01*
X140000Y223210D01*
X140000Y349035D01*
X144292Y349888D01*
X147930Y352319D01*
X149000Y353920D01*
X151000D01*
X152070Y352319D01*
X155708Y349888D01*
X160000Y349035D01*
X164292Y349888D01*
X167931Y352319D01*
X170000Y355417D01*
X171774Y355665D01*
X172314Y355554D01*
X173511Y353761D01*
X175000Y352767D01*
Y362500D01*
X180000D01*
Y367500D01*
X188629D01*
X188478Y368262D01*
X186982Y370500D01*
X187927Y372500D01*
X189000D01*
Y381000D01*
X192908D01*
X194019Y379337D01*
X193845Y378917D01*
X193000Y374667D01*
Y370333D01*
X193845Y366083D01*
X195504Y362079D01*
X197911Y358476D01*
X200976Y355411D01*
X204579Y353004D01*
X208583Y351345D01*
X212833Y350500D01*
X217167D01*
X221417Y351345D01*
X225421Y353004D01*
X229024Y355411D01*
X232089Y358476D01*
X234496Y362079D01*
X236154Y366083D01*
X237000Y370333D01*
Y374667D01*
X236154Y378917D01*
X235981Y379337D01*
X237092Y381000D01*
X558373Y381000D01*
Y373281D01*
X556522Y370512D01*
X555824Y367000D01*
X556522Y363488D01*
X558511Y360511D01*
X561488Y358522D01*
X565000Y357824D01*
X568512Y358522D01*
X571489Y360511D01*
X573478Y363488D01*
X574176Y367000D01*
X573478Y370512D01*
X571627Y373281D01*
Y381000D01*
X593000D01*
X593000Y461128D01*
X621586Y489714D01*
X625000Y489035D01*
X629292Y489888D01*
X632930Y492319D01*
X635362Y495958D01*
X636215Y500250D01*
Y504750D01*
X635362Y509042D01*
X632930Y512681D01*
X632546Y515343D01*
X633478Y516738D01*
X633629Y517500D01*
X625000D01*
Y522500D01*
X620000D01*
Y532233D01*
X618511Y531239D01*
X616522Y528262D01*
X616020Y525735D01*
X613980D01*
X613478Y528262D01*
X611489Y531239D01*
X610000Y532233D01*
Y522500D01*
X605000D01*
Y517500D01*
X596371D01*
X596522Y516738D01*
X596839Y516264D01*
X595896Y514500D01*
X593000D01*
X593000Y553882D01*
X698883D01*
Y233000D01*
D02*
G37*
%LPC*%
G36*
X282500Y187500D02*
X275500D01*
Y180500D01*
X282500D01*
Y187500D01*
D02*
G37*
G36*
X434499Y174500D02*
X427900D01*
Y167901D01*
X428802Y168080D01*
X432110Y170290D01*
X434320Y173598D01*
X434499Y174500D01*
D02*
G37*
G36*
X269500Y187500D02*
X262500D01*
Y180500D01*
X269500D01*
Y187500D01*
D02*
G37*
G36*
X421900Y187099D02*
X420998Y186920D01*
X417690Y184710D01*
X415480Y181402D01*
X415301Y180500D01*
X421900D01*
Y187099D01*
D02*
G37*
G36*
X399500Y189735D02*
X394818Y188804D01*
X390849Y186152D01*
X388401Y182489D01*
X386800Y182325D01*
X385199Y182489D01*
X382752Y186152D01*
X378782Y188804D01*
X374100Y189735D01*
X369418Y188804D01*
X365448Y186152D01*
X362796Y182182D01*
X361865Y177500D01*
X362796Y172818D01*
X365448Y168848D01*
X369418Y166196D01*
X374100Y165265D01*
X378782Y166196D01*
X382752Y168848D01*
X385199Y172511D01*
X386800Y172675D01*
X388401Y172511D01*
X390849Y168848D01*
X394818Y166196D01*
X399500Y165265D01*
X404182Y166196D01*
X408152Y168848D01*
X410804Y172818D01*
X411735Y177500D01*
X410804Y182182D01*
X408152Y186152D01*
X404182Y188804D01*
X399500Y189735D01*
D02*
G37*
G36*
X323300D02*
X318618Y188804D01*
X314648Y186152D01*
X312201Y182489D01*
X310600Y182325D01*
X308999Y182489D01*
X306551Y186152D01*
X302582Y188804D01*
X297900Y189735D01*
X293218Y188804D01*
X289249Y186152D01*
X286596Y182182D01*
X285665Y177500D01*
X286596Y172818D01*
X289249Y168848D01*
X293218Y166196D01*
X297900Y165265D01*
X302582Y166196D01*
X306551Y168848D01*
X308999Y172511D01*
X310600Y172675D01*
X312201Y172511D01*
X314648Y168848D01*
X318618Y166196D01*
X323300Y165265D01*
X327982Y166196D01*
X331951Y168848D01*
X334604Y172818D01*
X335535Y177500D01*
X334604Y182182D01*
X331951Y186152D01*
X327982Y188804D01*
X323300Y189735D01*
D02*
G37*
G36*
X427900Y187099D02*
Y180500D01*
X434499D01*
X434320Y181402D01*
X432110Y184710D01*
X428802Y186920D01*
X427900Y187099D01*
D02*
G37*
G36*
X421900Y174500D02*
X415301D01*
X415480Y173598D01*
X417690Y170290D01*
X420998Y168080D01*
X421900Y167901D01*
Y174500D01*
D02*
G37*
G36*
X126000Y56599D02*
X125098Y56420D01*
X121790Y54210D01*
X119580Y50902D01*
X119401Y50000D01*
X126000D01*
Y56599D01*
D02*
G37*
G36*
X138599Y44000D02*
X132000D01*
Y37401D01*
X132902Y37580D01*
X136210Y39790D01*
X138420Y43098D01*
X138599Y44000D01*
D02*
G37*
G36*
X126000D02*
X119401D01*
X119580Y43098D01*
X121790Y39790D01*
X125098Y37580D01*
X126000Y37401D01*
Y44000D01*
D02*
G37*
G36*
X132000Y56599D02*
Y50000D01*
X138599D01*
X138420Y50902D01*
X136210Y54210D01*
X132902Y56420D01*
X132000Y56599D01*
D02*
G37*
G36*
X282500Y174500D02*
X275500D01*
Y167500D01*
X282500D01*
Y174500D01*
D02*
G37*
G36*
X269500D02*
X262500D01*
Y167500D01*
X269500D01*
Y174500D01*
D02*
G37*
G36*
X450300Y189735D02*
X445618Y188804D01*
X441648Y186152D01*
X438996Y182182D01*
X438065Y177500D01*
X438996Y172818D01*
X441648Y168848D01*
X445618Y166196D01*
X450300Y165265D01*
X454982Y166196D01*
X458951Y168848D01*
X461604Y172818D01*
X462535Y177500D01*
X461604Y182182D01*
X458951Y186152D01*
X454982Y188804D01*
X450300Y189735D01*
D02*
G37*
G36*
X427900Y304599D02*
Y298000D01*
X434499D01*
X434320Y298902D01*
X432110Y302210D01*
X428802Y304420D01*
X427900Y304599D01*
D02*
G37*
G36*
X188629Y357500D02*
X185000D01*
Y352767D01*
X186489Y353761D01*
X188478Y356738D01*
X188629Y357500D01*
D02*
G37*
G36*
X282500Y305000D02*
X275500D01*
Y298000D01*
X282500D01*
Y305000D01*
D02*
G37*
G36*
X421900Y304599D02*
X420998Y304420D01*
X417690Y302210D01*
X415480Y298902D01*
X415301Y298000D01*
X421900D01*
Y304599D01*
D02*
G37*
G36*
X630000Y532233D02*
Y527500D01*
X633629D01*
X633478Y528262D01*
X631489Y531239D01*
X630000Y532233D01*
D02*
G37*
G36*
X600000Y532233D02*
X598511Y531239D01*
X596522Y528262D01*
X596371Y527500D01*
X600000D01*
Y532233D01*
D02*
G37*
G36*
X612058Y470788D02*
X608546Y470089D01*
X605569Y468100D01*
X603580Y465123D01*
X602882Y461611D01*
X603580Y458100D01*
X605569Y455122D01*
X608546Y453133D01*
X612058Y452435D01*
X615570Y453133D01*
X618547Y455122D01*
X620536Y458100D01*
X621234Y461611D01*
X620536Y465123D01*
X618547Y468100D01*
X615570Y470089D01*
X612058Y470788D01*
D02*
G37*
G36*
X662167Y534500D02*
X657833D01*
X653583Y533655D01*
X649579Y531996D01*
X645976Y529589D01*
X642911Y526524D01*
X640504Y522921D01*
X638845Y518917D01*
X638000Y514667D01*
Y510333D01*
X638845Y506083D01*
X640504Y502079D01*
X642911Y498476D01*
X645976Y495411D01*
X649579Y493004D01*
X653583Y491345D01*
X657833Y490500D01*
X662167D01*
X666417Y491345D01*
X670421Y493004D01*
X674024Y495411D01*
X677088Y498476D01*
X679496Y502079D01*
X681154Y506083D01*
X682000Y510333D01*
Y514667D01*
X681154Y518917D01*
X679496Y522921D01*
X677088Y526524D01*
X674024Y529589D01*
X670421Y531996D01*
X666417Y533655D01*
X662167Y534500D01*
D02*
G37*
G36*
X282500Y292000D02*
X275500D01*
Y285000D01*
X282500D01*
Y292000D01*
D02*
G37*
G36*
X421900D02*
X415301D01*
X415480Y291098D01*
X417690Y287790D01*
X420998Y285580D01*
X421900Y285401D01*
Y292000D01*
D02*
G37*
G36*
X450300Y307235D02*
X445618Y306304D01*
X441648Y303652D01*
X438996Y299682D01*
X438065Y295000D01*
X438996Y290318D01*
X441648Y286348D01*
X445618Y283696D01*
X450300Y282765D01*
X454982Y283696D01*
X458951Y286348D01*
X461604Y290318D01*
X462535Y295000D01*
X461604Y299682D01*
X458951Y303652D01*
X454982Y306304D01*
X450300Y307235D01*
D02*
G37*
G36*
X269500Y292000D02*
X262500D01*
Y285000D01*
X269500D01*
Y292000D01*
D02*
G37*
G36*
X399500Y307235D02*
X394818Y306304D01*
X390849Y303652D01*
X388196Y299682D01*
X387820Y297789D01*
X385780D01*
X385404Y299682D01*
X382752Y303652D01*
X378782Y306304D01*
X374100Y307235D01*
X369418Y306304D01*
X365448Y303652D01*
X362796Y299682D01*
X361865Y295000D01*
X362796Y290318D01*
X365448Y286348D01*
X369418Y283696D01*
X374100Y282765D01*
X378782Y283696D01*
X382752Y286348D01*
X385404Y290318D01*
X385780Y292211D01*
X387820D01*
X388196Y290318D01*
X390849Y286348D01*
X394818Y283696D01*
X399500Y282765D01*
X404182Y283696D01*
X408152Y286348D01*
X410804Y290318D01*
X411735Y295000D01*
X410804Y299682D01*
X408152Y303652D01*
X404182Y306304D01*
X399500Y307235D01*
D02*
G37*
G36*
X269500Y305000D02*
X262500D01*
Y298000D01*
X269500D01*
Y305000D01*
D02*
G37*
G36*
X434499Y292000D02*
X427900D01*
Y285401D01*
X428802Y285580D01*
X432110Y287790D01*
X434320Y291098D01*
X434499Y292000D01*
D02*
G37*
G36*
X323300Y307235D02*
X318618Y306304D01*
X314648Y303652D01*
X311996Y299682D01*
X311620Y297789D01*
X309580D01*
X309204Y299682D01*
X306551Y303652D01*
X302582Y306304D01*
X297900Y307235D01*
X293218Y306304D01*
X289249Y303652D01*
X286596Y299682D01*
X285665Y295000D01*
X286596Y290318D01*
X289249Y286348D01*
X293218Y283696D01*
X297900Y282765D01*
X302582Y283696D01*
X306551Y286348D01*
X309204Y290318D01*
X309580Y292211D01*
X311620D01*
X311996Y290318D01*
X314648Y286348D01*
X318618Y283696D01*
X323300Y282765D01*
X327982Y283696D01*
X331951Y286348D01*
X334604Y290318D01*
X335535Y295000D01*
X334604Y299682D01*
X331951Y303652D01*
X327982Y306304D01*
X323300Y307235D01*
D02*
G37*
%LPD*%
D22*
X503500Y401000D02*
X605000Y502500D01*
X159346Y401000D02*
X503500D01*
X150000Y391655D02*
X159346Y401000D01*
X518292Y395792D02*
X625000Y502500D01*
X170000Y395792D02*
X518292D01*
X160000Y362500D02*
X170000Y372500D01*
Y395792D01*
X150000Y372500D02*
Y391655D01*
X140000Y362500D02*
X150000Y372500D01*
X565000Y367000D02*
Y413000D01*
X57500Y180000D02*
X85000D01*
X79000Y190000D02*
X110000Y221000D01*
X47500Y190000D02*
X79000D01*
X37500Y180000D02*
X47500Y190000D01*
X57500Y200000D02*
X76000D01*
X72000Y210000D02*
X90000Y228000D01*
X47500Y210000D02*
X72000D01*
X37500Y200000D02*
X47500Y210000D01*
X60000Y220000D02*
X80000Y240000D01*
X57500Y220000D02*
X60000D01*
X67825Y240825D02*
Y378171D01*
X58000Y231000D02*
X67825Y240825D01*
X40000Y231000D02*
X58000D01*
X85000Y180000D02*
X130000Y225000D01*
Y372500D01*
X140000Y382500D01*
X110000Y221000D02*
Y372500D01*
X120000Y382500D01*
X76000Y200000D02*
X100000Y224000D01*
Y362500D01*
X90000Y228000D02*
Y372500D01*
X100000Y382500D01*
X80000Y240000D02*
Y362500D01*
X37500Y220000D02*
Y228500D01*
X40000Y231000D01*
X67825Y378171D02*
X72154Y382500D01*
X80000D01*
D23*
X605000Y522500D02*
X625000D01*
X180000Y362500D02*
Y382500D01*
X37500Y80000D02*
X57500D01*
X37500Y160000D02*
X57500D01*
X37500Y100000D02*
X57500D01*
D24*
X148500Y416479D02*
Y586030D01*
X143521Y411500D02*
X148500Y416479D01*
Y586030D02*
X163970Y601500D01*
X587500Y265000D02*
Y270000D01*
X243500Y601500D02*
X270000Y575000D01*
X163970Y601500D02*
X243500D01*
X33476Y411500D02*
X143521D01*
X15000Y393024D02*
X33476Y411500D01*
X15000Y120000D02*
Y393024D01*
X205000Y32571D02*
Y35000D01*
X180929Y8500D02*
X205000Y32571D01*
X25923Y8500D02*
X180929D01*
X15000Y19423D02*
X25923Y8500D01*
X15000Y19423D02*
Y120000D01*
X37500D01*
X610000Y142000D02*
Y242500D01*
X587500Y265000D02*
X610000Y242500D01*
D30*
X660000Y512500D02*
D03*
X570000D02*
D03*
X215000Y372500D02*
D03*
X45000D02*
D03*
X187500Y445000D02*
D03*
Y555000D02*
D03*
X47500Y45000D02*
D03*
Y255000D02*
D03*
D31*
X625000Y522500D02*
D03*
Y502500D02*
D03*
X605000Y522500D02*
D03*
X100000Y362500D02*
D03*
X80000Y382500D02*
D03*
Y362500D02*
D03*
X180000D02*
D03*
X160000Y382500D02*
D03*
Y362500D02*
D03*
X140000Y382500D02*
D03*
Y362500D02*
D03*
X120000Y382500D02*
D03*
Y362500D02*
D03*
X100000Y382500D02*
D03*
D32*
X605000Y502500D02*
D03*
D33*
X180000Y382500D02*
D03*
D34*
X450300Y177500D02*
D03*
X424900D02*
D03*
X399500D02*
D03*
X374100D02*
D03*
X323300D02*
D03*
X297900D02*
D03*
X450300Y295000D02*
D03*
X424900D02*
D03*
X399500D02*
D03*
X374100D02*
D03*
X323300D02*
D03*
X297900D02*
D03*
X129000Y47000D02*
D03*
D35*
X272500Y177500D02*
D03*
Y295000D02*
D03*
X197500Y480000D02*
D03*
X57500Y80000D02*
D03*
D36*
X177500Y480000D02*
D03*
X197500Y500000D02*
D03*
X177500D02*
D03*
X197500Y520000D02*
D03*
X177500D02*
D03*
X57500Y160000D02*
D03*
X37500Y140000D02*
D03*
X57500D02*
D03*
X37500Y120000D02*
D03*
X57500D02*
D03*
X37500Y100000D02*
D03*
X57500D02*
D03*
X37500Y80000D02*
D03*
Y220000D02*
D03*
X57500D02*
D03*
X37500Y200000D02*
D03*
X57500D02*
D03*
X37500Y180000D02*
D03*
X57500D02*
D03*
X37500Y160000D02*
D03*
D37*
X470000Y75000D02*
D03*
X270000Y575000D02*
D03*
X470000Y525000D02*
D03*
X205000Y35000D02*
D03*
D38*
X565000Y413000D02*
D03*
Y427500D02*
D03*
X565000Y367000D02*
D03*
X317500Y502500D02*
D03*
X327500D02*
D03*
X337500D02*
D03*
X347500D02*
D03*
X357500D02*
D03*
X367500D02*
D03*
X377500D02*
D03*
X387500D02*
D03*
X478000Y484000D02*
D03*
Y474500D02*
D03*
Y464500D02*
D03*
X488000Y484000D02*
D03*
Y474500D02*
D03*
Y464500D02*
D03*
X498000Y484500D02*
D03*
Y474500D02*
D03*
Y464500D02*
D03*
X468000Y464000D02*
D03*
Y474000D02*
D03*
Y484000D02*
D03*
X458000Y464000D02*
D03*
Y474000D02*
D03*
Y483500D02*
D03*
X448000Y464000D02*
D03*
Y474000D02*
D03*
Y483500D02*
D03*
X307725Y502500D02*
D03*
Y412500D02*
D03*
X387500D02*
D03*
X377500D02*
D03*
X367500D02*
D03*
X357500D02*
D03*
X347500D02*
D03*
X337500D02*
D03*
X327500D02*
D03*
X317500D02*
D03*
X307725Y490656D02*
D03*
Y452567D02*
D03*
Y443045D02*
D03*
Y433522D02*
D03*
Y424000D02*
D03*
Y471611D02*
D03*
Y462089D02*
D03*
Y481133D02*
D03*
X612058Y461611D02*
D03*
X204581Y78000D02*
D03*
D39*
X610000Y142000D02*
D03*
X587500Y270000D02*
D03*
D40*
X90000Y100000D02*
D03*
Y86000D02*
D03*
D41*
X90000Y93000D02*
D03*
D42*
X348750Y478800D02*
D03*
D43*
X241250Y500000D02*
D03*
M02*
