G04 Layer_Physical_Order=2*
G04 Layer_Color=36540*
%FSLAX44Y44*%
%MOMM*%
G71*
G01*
G75*
%ADD32O,1.6500X1.2000*%
%ADD33C,1.4000*%
%ADD37C,0.8000*%
G36*
X405345Y602905D02*
X409877Y599877D01*
X412905Y595345D01*
X413925Y590216D01*
X413882Y590000D01*
Y560000D01*
X414348Y557659D01*
X415674Y555674D01*
X417659Y554348D01*
X420000Y553882D01*
X454154D01*
X454450Y550882D01*
X448604Y546396D01*
X443795Y540130D01*
X440772Y532832D01*
X439741Y525000D01*
X440772Y517168D01*
X443795Y509871D01*
X448604Y503604D01*
X454871Y498795D01*
X462168Y495772D01*
X470000Y494741D01*
X477832Y495772D01*
X485129Y498795D01*
X491396Y503604D01*
X496205Y509871D01*
X499228Y517168D01*
X500259Y525000D01*
X499228Y532832D01*
X496205Y540130D01*
X491396Y546396D01*
X485550Y550882D01*
X485846Y553882D01*
X655000D01*
Y527747D01*
X651931Y526476D01*
X648589Y523911D01*
X646024Y520569D01*
X644412Y516677D01*
X643862Y512500D01*
X644412Y508323D01*
X646024Y504431D01*
X648589Y501089D01*
X651931Y498524D01*
X655000Y497253D01*
Y46118D01*
X485846D01*
X485550Y49117D01*
X491396Y53604D01*
X496205Y59871D01*
X499228Y67168D01*
X500259Y75000D01*
X499228Y82832D01*
X496205Y90129D01*
X491396Y96396D01*
X485129Y101205D01*
X477832Y104228D01*
X470000Y105259D01*
X462168Y104228D01*
X454871Y101205D01*
X448604Y96396D01*
X443795Y90129D01*
X440772Y82832D01*
X439741Y75000D01*
X440772Y67168D01*
X443795Y59871D01*
X448604Y53604D01*
X454450Y49117D01*
X454154Y46118D01*
X420000D01*
X417659Y45652D01*
X415674Y44326D01*
X414348Y42341D01*
X413882Y40000D01*
Y20000D01*
X413925Y19784D01*
X412905Y14655D01*
X409877Y10123D01*
X405345Y7095D01*
X400216Y6075D01*
X400000Y6118D01*
X220846D01*
X220550Y9118D01*
X226396Y13604D01*
X231205Y19871D01*
X234228Y27168D01*
X235259Y35000D01*
X234228Y42832D01*
X231205Y50129D01*
X226396Y56396D01*
X220129Y61205D01*
X212832Y64228D01*
X205000Y65259D01*
X197168Y64228D01*
X189871Y61205D01*
X183604Y56396D01*
X178795Y50129D01*
X175772Y42832D01*
X174741Y35000D01*
X175772Y27168D01*
X178795Y19871D01*
X183604Y13604D01*
X189450Y9118D01*
X189154Y6118D01*
X6118D01*
Y413882D01*
X140000D01*
X141378Y412754D01*
X141393Y404623D01*
X139274Y402500D01*
X27500D01*
X27912Y341000D01*
X212500D01*
Y354416D01*
X214755Y356394D01*
X215000Y356362D01*
X219177Y356912D01*
X223069Y358524D01*
X226411Y361089D01*
X228976Y364431D01*
X230588Y368323D01*
X231138Y372500D01*
X230588Y376677D01*
X228976Y380569D01*
X226411Y383911D01*
X223069Y386476D01*
X219177Y388088D01*
X215000Y388638D01*
X214755Y388606D01*
X212500Y390584D01*
Y394902D01*
X395000D01*
X396951Y395290D01*
X398605Y396395D01*
X399710Y398049D01*
X400098Y400000D01*
Y600890D01*
X403068Y603358D01*
X405345Y602905D01*
D02*
G37*
G36*
X253445Y603692D02*
X254200Y600690D01*
X248604Y596396D01*
X243795Y590130D01*
X240772Y582832D01*
X239741Y575000D01*
X240772Y567168D01*
X243795Y559871D01*
X248604Y553604D01*
X254871Y548795D01*
X262168Y545772D01*
X270000Y544741D01*
X277832Y545772D01*
X285129Y548795D01*
X291396Y553604D01*
X296205Y559871D01*
X299228Y567168D01*
X300259Y575000D01*
X299228Y582832D01*
X296205Y590130D01*
X291396Y596396D01*
X285919Y600599D01*
X286914Y603596D01*
X395000Y603286D01*
Y400000D01*
X212500D01*
Y402500D01*
X146495D01*
X146122Y601759D01*
X148241Y603882D01*
X187199D01*
X253445Y603692D01*
D02*
G37*
%LPC*%
G36*
X307499Y174500D02*
X300900D01*
Y167901D01*
X301802Y168080D01*
X305110Y170290D01*
X307320Y173598D01*
X307499Y174500D01*
D02*
G37*
G36*
X450300Y189735D02*
X445618Y188804D01*
X441648Y186152D01*
X439201Y182489D01*
X437600Y182325D01*
X435998Y182489D01*
X433551Y186152D01*
X429582Y188804D01*
X424900Y189735D01*
X420218Y188804D01*
X416249Y186152D01*
X413801Y182489D01*
X412200Y182325D01*
X410598Y182489D01*
X408152Y186152D01*
X404182Y188804D01*
X399500Y189735D01*
X394818Y188804D01*
X390849Y186152D01*
X388401Y182489D01*
X386800Y182325D01*
X385199Y182489D01*
X382752Y186152D01*
X378782Y188804D01*
X374100Y189735D01*
X369418Y188804D01*
X365448Y186152D01*
X362796Y182182D01*
X361865Y177500D01*
X362796Y172818D01*
X365448Y168848D01*
X369418Y166196D01*
X374100Y165265D01*
X378782Y166196D01*
X382752Y168848D01*
X385199Y172511D01*
X386800Y172675D01*
X388401Y172511D01*
X390849Y168848D01*
X394818Y166196D01*
X399500Y165265D01*
X404182Y166196D01*
X408152Y168848D01*
X410598Y172511D01*
X412200Y172675D01*
X413801Y172511D01*
X416249Y168848D01*
X420218Y166196D01*
X424900Y165265D01*
X429582Y166196D01*
X433551Y168848D01*
X435998Y172511D01*
X437600Y172675D01*
X439201Y172511D01*
X441648Y168848D01*
X445618Y166196D01*
X450300Y165265D01*
X454982Y166196D01*
X458951Y168848D01*
X461604Y172818D01*
X462535Y177500D01*
X461604Y182182D01*
X458951Y186152D01*
X454982Y188804D01*
X450300Y189735D01*
D02*
G37*
G36*
X300900Y187099D02*
Y180500D01*
X307499D01*
X307320Y181402D01*
X305110Y184710D01*
X301802Y186920D01*
X300900Y187099D01*
D02*
G37*
G36*
X294900D02*
X293998Y186920D01*
X290690Y184710D01*
X288480Y181402D01*
X288301Y180500D01*
X294900D01*
Y187099D01*
D02*
G37*
G36*
Y174500D02*
X288301D01*
X288480Y173598D01*
X290690Y170290D01*
X293998Y168080D01*
X294900Y167901D01*
Y174500D01*
D02*
G37*
G36*
X204581Y87176D02*
X201069Y86478D01*
X198092Y84489D01*
X196103Y81512D01*
X195405Y78000D01*
X196103Y74488D01*
X198092Y71511D01*
X201069Y69522D01*
X204581Y68824D01*
X208093Y69522D01*
X211070Y71511D01*
X213059Y74488D01*
X213757Y78000D01*
X213059Y81512D01*
X211070Y84489D01*
X208093Y86478D01*
X204581Y87176D01*
D02*
G37*
G36*
X129000Y59235D02*
X124318Y58304D01*
X120349Y55651D01*
X117696Y51682D01*
X116765Y47000D01*
X117696Y42318D01*
X120349Y38349D01*
X124318Y35696D01*
X129000Y34765D01*
X133682Y35696D01*
X137652Y38349D01*
X140304Y42318D01*
X141235Y47000D01*
X140304Y51682D01*
X137652Y55651D01*
X133682Y58304D01*
X129000Y59235D01*
D02*
G37*
G36*
X47500Y61138D02*
X43323Y60588D01*
X39431Y58976D01*
X36089Y56411D01*
X33524Y53069D01*
X31912Y49177D01*
X31362Y45000D01*
X31912Y40823D01*
X33524Y36931D01*
X36089Y33589D01*
X39431Y31024D01*
X43323Y29412D01*
X47500Y28862D01*
X51677Y29412D01*
X55569Y31024D01*
X58911Y33589D01*
X61476Y36931D01*
X63088Y40823D01*
X63638Y45000D01*
X63088Y49177D01*
X61476Y53069D01*
X58911Y56411D01*
X55569Y58976D01*
X51677Y60588D01*
X47500Y61138D01*
D02*
G37*
G36*
X284500Y189500D02*
X260500D01*
Y165500D01*
X284500D01*
Y189500D01*
D02*
G37*
G36*
X323300Y189735D02*
X318618Y188804D01*
X314648Y186152D01*
X311996Y182182D01*
X311065Y177500D01*
X311996Y172818D01*
X314648Y168848D01*
X318618Y166196D01*
X323300Y165265D01*
X327982Y166196D01*
X331951Y168848D01*
X334604Y172818D01*
X335535Y177500D01*
X334604Y182182D01*
X331951Y186152D01*
X327982Y188804D01*
X323300Y189735D01*
D02*
G37*
G36*
X610000Y150667D02*
X606684Y150007D01*
X603872Y148128D01*
X601993Y145316D01*
X601334Y142000D01*
X601993Y138684D01*
X603872Y135872D01*
X606684Y133993D01*
X610000Y133334D01*
X613316Y133993D01*
X616128Y135872D01*
X618007Y138684D01*
X618666Y142000D01*
X618007Y145316D01*
X616128Y148128D01*
X613316Y150007D01*
X610000Y150667D01*
D02*
G37*
G36*
X59750Y231215D02*
X55250D01*
X50958Y230362D01*
X47500Y228051D01*
X44042Y230362D01*
X39750Y231215D01*
X35250D01*
X30958Y230362D01*
X27320Y227931D01*
X24888Y224292D01*
X24035Y220000D01*
X24888Y215708D01*
X27320Y212069D01*
X28172Y211500D01*
Y208500D01*
X27320Y207931D01*
X24888Y204292D01*
X24035Y200000D01*
X24888Y195708D01*
X27320Y192069D01*
X28172Y191500D01*
Y188500D01*
X27320Y187931D01*
X24888Y184292D01*
X24035Y180000D01*
X24888Y175708D01*
X27320Y172069D01*
X28172Y171500D01*
Y168500D01*
X27320Y167931D01*
X24888Y164292D01*
X24035Y160000D01*
X24888Y155708D01*
X27320Y152070D01*
X28172Y151500D01*
Y148500D01*
X27320Y147931D01*
X24888Y144292D01*
X24035Y140000D01*
X24888Y135708D01*
X27320Y132070D01*
X28172Y131500D01*
Y128500D01*
X27320Y127931D01*
X24888Y124292D01*
X24035Y120000D01*
X24888Y115708D01*
X27320Y112070D01*
X29517Y110601D01*
X29639Y107075D01*
X28761Y106489D01*
X27767Y105000D01*
X37500D01*
Y95000D01*
X27767D01*
X28761Y93511D01*
X29639Y92925D01*
X29517Y89399D01*
X27320Y87931D01*
X24888Y84292D01*
X24035Y80000D01*
X24888Y75708D01*
X27320Y72070D01*
X30958Y69638D01*
X35250Y68784D01*
X39750D01*
X42500Y69332D01*
X45500Y68000D01*
Y68000D01*
X69500D01*
Y92000D01*
X68837D01*
X67233Y95000D01*
X67233Y95000D01*
X57500D01*
Y105000D01*
X67233D01*
X66239Y106489D01*
X65361Y107075D01*
X65483Y110601D01*
X67681Y112070D01*
X70112Y115708D01*
X70965Y120000D01*
X70112Y124292D01*
X67681Y127931D01*
X66828Y128500D01*
Y131500D01*
X67681Y132070D01*
X70112Y135708D01*
X70965Y140000D01*
X70112Y144292D01*
X67681Y147931D01*
X66828Y148500D01*
Y151500D01*
X67681Y152070D01*
X70112Y155708D01*
X70965Y160000D01*
X70112Y164292D01*
X67681Y167931D01*
X66828Y168500D01*
Y171500D01*
X67681Y172069D01*
X70112Y175708D01*
X70965Y180000D01*
X70112Y184292D01*
X67681Y187931D01*
X66828Y188500D01*
Y191500D01*
X67681Y192069D01*
X70112Y195708D01*
X70965Y200000D01*
X70112Y204292D01*
X67681Y207931D01*
X66828Y208500D01*
Y211500D01*
X67681Y212069D01*
X70112Y215708D01*
X70965Y220000D01*
X70112Y224292D01*
X67681Y227931D01*
X64042Y230362D01*
X59750Y231215D01*
D02*
G37*
G36*
X570000Y528638D02*
X565823Y528088D01*
X561931Y526476D01*
X558589Y523911D01*
X556024Y520569D01*
X554412Y516677D01*
X553862Y512500D01*
X554412Y508323D01*
X556024Y504431D01*
X558589Y501089D01*
X561931Y498524D01*
X565823Y496912D01*
X570000Y496362D01*
X574177Y496912D01*
X578069Y498524D01*
X581411Y501089D01*
X583976Y504431D01*
X585588Y508323D01*
X586138Y512500D01*
X585588Y516677D01*
X583976Y520569D01*
X581411Y523911D01*
X578069Y526476D01*
X574177Y528088D01*
X570000Y528638D01*
D02*
G37*
G36*
X612058Y470788D02*
X608546Y470089D01*
X605569Y468100D01*
X603580Y465123D01*
X602882Y461611D01*
X603580Y458100D01*
X605569Y455122D01*
X608546Y453133D01*
X612058Y452435D01*
X615570Y453133D01*
X618547Y455122D01*
X620536Y458100D01*
X621234Y461611D01*
X620536Y465123D01*
X618547Y468100D01*
X615570Y470089D01*
X612058Y470788D01*
D02*
G37*
G36*
X625000Y535965D02*
X620708Y535112D01*
X617069Y532681D01*
X616500Y531828D01*
X613500D01*
X612930Y532681D01*
X609292Y535112D01*
X605000Y535965D01*
X600708Y535112D01*
X597069Y532681D01*
X594638Y529042D01*
X593784Y524750D01*
Y520250D01*
X594332Y517500D01*
X593000Y514500D01*
X593000D01*
Y490500D01*
X617000D01*
X617000Y490500D01*
Y490500D01*
X619955Y490391D01*
X620708Y489888D01*
X625000Y489035D01*
X629292Y489888D01*
X632930Y492319D01*
X635362Y495958D01*
X636215Y500250D01*
Y504750D01*
X635362Y509042D01*
X633051Y512500D01*
X635362Y515958D01*
X636215Y520250D01*
Y524750D01*
X635362Y529042D01*
X632930Y532681D01*
X629292Y535112D01*
X625000Y535965D01*
D02*
G37*
G36*
X587500Y278666D02*
X584184Y278007D01*
X581372Y276128D01*
X579493Y273316D01*
X578834Y270000D01*
X579493Y266684D01*
X581372Y263872D01*
X584184Y261993D01*
X587500Y261334D01*
X590816Y261993D01*
X593628Y263872D01*
X595507Y266684D01*
X596166Y270000D01*
X595507Y273316D01*
X593628Y276128D01*
X590816Y278007D01*
X587500Y278666D01*
D02*
G37*
G36*
X47500Y271138D02*
X43323Y270588D01*
X39431Y268976D01*
X36089Y266411D01*
X33524Y263069D01*
X31912Y259177D01*
X31362Y255000D01*
X31912Y250823D01*
X33524Y246931D01*
X36089Y243589D01*
X39431Y241024D01*
X43323Y239412D01*
X47500Y238862D01*
X51677Y239412D01*
X55569Y241024D01*
X58911Y243589D01*
X61476Y246931D01*
X63088Y250823D01*
X63638Y255000D01*
X63088Y259177D01*
X61476Y263069D01*
X58911Y266411D01*
X55569Y268976D01*
X51677Y270588D01*
X47500Y271138D01*
D02*
G37*
G36*
X475500Y323000D02*
X252500D01*
Y262817D01*
X475500D01*
Y323000D01*
D02*
G37*
G36*
X565000Y436676D02*
X561488Y435978D01*
X558511Y433989D01*
X556522Y431012D01*
X555824Y427500D01*
X556522Y423988D01*
X558511Y421011D01*
Y419489D01*
X556522Y416512D01*
X555824Y413000D01*
X556522Y409488D01*
X558511Y406511D01*
X561488Y404522D01*
X565000Y403824D01*
X568512Y404522D01*
X571489Y406511D01*
X573478Y409488D01*
X574176Y413000D01*
X573478Y416512D01*
X571489Y419489D01*
Y421011D01*
X573478Y423988D01*
X574176Y427500D01*
X573478Y431012D01*
X571489Y433989D01*
X568512Y435978D01*
X565000Y436676D01*
D02*
G37*
G36*
X565000Y376176D02*
X561488Y375478D01*
X558511Y373489D01*
X556522Y370512D01*
X555824Y367000D01*
X556522Y363488D01*
X558511Y360511D01*
X561488Y358522D01*
X565000Y357824D01*
X568512Y358522D01*
X571489Y360511D01*
X573478Y363488D01*
X574176Y367000D01*
X573478Y370512D01*
X571489Y373489D01*
X568512Y375478D01*
X565000Y376176D01*
D02*
G37*
G36*
X199750Y531216D02*
X195250D01*
X190958Y530362D01*
X187500Y528051D01*
X184042Y530362D01*
X179750Y531216D01*
X175250D01*
X170958Y530362D01*
X167319Y527930D01*
X164888Y524292D01*
X164035Y520000D01*
X164888Y515708D01*
X167319Y512070D01*
X169517Y510601D01*
X169639Y507075D01*
X168761Y506489D01*
X167767Y505000D01*
X177500D01*
Y495000D01*
X167767D01*
X168761Y493511D01*
X169639Y492925D01*
X169517Y489399D01*
X167319Y487930D01*
X164888Y484292D01*
X164035Y480000D01*
X164888Y475708D01*
X167319Y472069D01*
X170958Y469638D01*
X175250Y468784D01*
X179750D01*
X182500Y469332D01*
X185500Y468000D01*
Y468000D01*
X209500D01*
Y492000D01*
X208837D01*
X207233Y495000D01*
X197500D01*
Y505000D01*
X207233D01*
X206239Y506489D01*
X205361Y507075D01*
X205483Y510601D01*
X207680Y512070D01*
X210112Y515708D01*
X210965Y520000D01*
X210112Y524292D01*
X207680Y527930D01*
X204042Y530362D01*
X199750Y531216D01*
D02*
G37*
G36*
X187500Y571138D02*
X183323Y570588D01*
X179431Y568976D01*
X176089Y566411D01*
X173524Y563069D01*
X171912Y559177D01*
X171362Y555000D01*
X171912Y550823D01*
X173524Y546931D01*
X176089Y543589D01*
X179431Y541024D01*
X183323Y539412D01*
X187500Y538862D01*
X191677Y539412D01*
X195569Y541024D01*
X198911Y543589D01*
X201476Y546931D01*
X203088Y550823D01*
X203638Y555000D01*
X203088Y559177D01*
X201476Y563069D01*
X198911Y566411D01*
X195569Y568976D01*
X191677Y570588D01*
X187500Y571138D01*
D02*
G37*
G36*
Y461138D02*
X183323Y460588D01*
X179431Y458976D01*
X176089Y456411D01*
X173524Y453069D01*
X171912Y449177D01*
X171362Y445000D01*
X171912Y440823D01*
X173524Y436931D01*
X176089Y433589D01*
X179431Y431024D01*
X183323Y429412D01*
X187500Y428862D01*
X191677Y429412D01*
X195569Y431024D01*
X198911Y433589D01*
X201476Y436931D01*
X203088Y440823D01*
X203638Y445000D01*
X203088Y449177D01*
X201476Y453069D01*
X198911Y456411D01*
X195569Y458976D01*
X191677Y460588D01*
X187500Y461138D01*
D02*
G37*
%LPD*%
D32*
X57500Y100000D02*
D03*
X37500D02*
D03*
X177500Y500000D02*
D03*
X197500D02*
D03*
D33*
X297900Y177500D02*
D03*
D37*
X307725Y481133D02*
D03*
Y462089D02*
D03*
Y471611D02*
D03*
Y424000D02*
D03*
Y433522D02*
D03*
Y443045D02*
D03*
Y452567D02*
D03*
Y490656D02*
D03*
X317500Y412500D02*
D03*
X327500D02*
D03*
X337500D02*
D03*
X347500D02*
D03*
X357500D02*
D03*
X367500D02*
D03*
X377500D02*
D03*
X387500D02*
D03*
X307725D02*
D03*
Y502500D02*
D03*
X448000Y483500D02*
D03*
Y474000D02*
D03*
Y464000D02*
D03*
X458000Y483500D02*
D03*
Y474000D02*
D03*
Y464000D02*
D03*
X468000Y484000D02*
D03*
Y474000D02*
D03*
Y464000D02*
D03*
X498000Y464500D02*
D03*
Y474500D02*
D03*
Y484500D02*
D03*
X488000Y464500D02*
D03*
Y474500D02*
D03*
Y484000D02*
D03*
X478000Y464500D02*
D03*
Y474500D02*
D03*
Y484000D02*
D03*
X387500Y502500D02*
D03*
X377500D02*
D03*
X367500D02*
D03*
X357500D02*
D03*
X347500D02*
D03*
X337500D02*
D03*
X327500D02*
D03*
X317500D02*
D03*
M02*
