G04 Layer_Physical_Order=1*
G04 Layer_Color=255*
%FSLAX44Y44*%
%MOMM*%
G71*
G01*
G75*
%ADD10R,1.3000X1.5000*%
%ADD11R,1.5000X1.3000*%
%ADD12R,0.8500X0.8500*%
%ADD13R,0.8500X0.8500*%
%ADD14R,2.6000X1.1000*%
%ADD15R,2.3000X2.5000*%
%ADD16R,3.0000X1.6000*%
%ADD17R,6.7000X6.7000*%
%ADD18R,4.3000X2.4000*%
%ADD19C,1.0000*%
%ADD20R,1.0000X0.7000*%
%ADD21R,0.7000X1.0000*%
%ADD22C,0.3000*%
%ADD23C,0.5000*%
%ADD24C,1.0000*%
%ADD25C,0.8000*%
%ADD26R,9.3000X3.0000*%
%ADD27R,1.1000X2.2500*%
%ADD28R,1.0000X1.3000*%
%ADD29C,5.0000*%
%ADD30R,1.4000X1.4000*%
%ADD31C,1.4000*%
%ADD32R,1.4000X1.4000*%
%ADD33C,2.2000*%
%ADD34O,1.2000X1.6500*%
%ADD35R,1.2000X1.4000*%
%ADD36O,1.6500X1.2000*%
%ADD37C,0.8000*%
G36*
X151000Y-224500D02*
X291627Y-224500D01*
X291627Y-276500D01*
X139000Y-276500D01*
X139000Y-212500D01*
X151000D01*
Y-224500D01*
D02*
G37*
G36*
X-27000Y-97534D02*
X-27000Y-150500D01*
X311058Y-150500D01*
X315000Y-154442D01*
X315000Y-200354D01*
X314750Y-203250D01*
X310500D01*
Y-210500D01*
X307500D01*
Y-213500D01*
X300250D01*
Y-215250D01*
X298250D01*
Y-219500D01*
X292120D01*
X291627Y-219402D01*
X197000Y-219402D01*
Y-200500D01*
X126000Y-200500D01*
Y-212500D01*
X113000D01*
X113000Y-179500D01*
X197000Y-179500D01*
Y-179500D01*
X244293D01*
X245500Y-182000D01*
X245500Y-182500D01*
Y-194000D01*
X267000D01*
Y-182000D01*
X250207D01*
X249000Y-179500D01*
X249000Y-179000D01*
X249000Y-174500D01*
X-38451Y-174500D01*
X-41000Y-171951D01*
X-41000Y-110500D01*
X-114000Y-110500D01*
Y-112601D01*
X-117000Y-114170D01*
Y-125000D01*
X-123000D01*
Y-114170D01*
X-123512Y-114272D01*
X-124000Y-114599D01*
X-127000Y-112995D01*
X-127000Y-98872D01*
X-123628Y-95500D01*
X-29034Y-95500D01*
X-27000Y-97534D01*
D02*
G37*
G36*
X151000Y-339500D02*
X291000Y-339500D01*
X291000Y-392500D01*
X139000Y-392500D01*
X139000Y-330000D01*
X151000D01*
X151000Y-339500D01*
D02*
G37*
G36*
X9267Y-20500D02*
X14000Y-25233D01*
X14000Y-109500D01*
X354290D01*
X360000Y-115210D01*
X360000Y-329500D01*
X357000Y-332500D01*
X314750D01*
Y-331000D01*
X300250D01*
Y-332500D01*
X199000D01*
Y-318000D01*
X126000D01*
Y-330000D01*
X113000Y-330000D01*
Y-292500D01*
X199000Y-292500D01*
Y-292500D01*
X331000Y-292500D01*
X331000Y-130500D01*
X-9329Y-130500D01*
X-13000Y-126829D01*
Y-35500D01*
X-72500Y-35500D01*
Y-30500D01*
X-82500D01*
Y-24500D01*
X-72500D01*
Y-20500D01*
X9267Y-20500D01*
D02*
G37*
G36*
X114500Y30000D02*
X114500Y-97000D01*
X22000D01*
X22000Y29500D01*
X36000Y43500D01*
X101000Y43500D01*
X114500Y30000D01*
D02*
G37*
%LPC*%
G36*
X219500Y-198000D02*
X206500D01*
Y-203500D01*
X219500D01*
Y-198000D01*
D02*
G37*
G36*
X304500Y-203250D02*
X300250D01*
Y-207500D01*
X304500D01*
Y-203250D01*
D02*
G37*
G36*
X294500Y-182000D02*
X273000D01*
Y-194000D01*
X294500D01*
Y-182000D01*
D02*
G37*
G36*
X238500Y-198000D02*
X225500D01*
Y-203500D01*
X238500D01*
Y-198000D01*
D02*
G37*
G36*
X294500Y-200000D02*
X273000D01*
Y-212000D01*
X294500D01*
Y-200000D01*
D02*
G37*
G36*
X238500Y-186500D02*
X225500D01*
Y-192000D01*
X238500D01*
Y-186500D01*
D02*
G37*
G36*
X267000Y-200000D02*
X245500D01*
Y-212000D01*
X267000D01*
Y-200000D01*
D02*
G37*
G36*
X219500Y-186500D02*
X206500D01*
Y-192000D01*
X219500D01*
Y-186500D01*
D02*
G37*
G36*
X236000Y-313000D02*
X223000D01*
Y-318500D01*
X236000D01*
Y-313000D01*
D02*
G37*
G36*
X217000D02*
X204000D01*
Y-318500D01*
X217000D01*
Y-313000D01*
D02*
G37*
G36*
X292000Y-297000D02*
X270500D01*
Y-309000D01*
X292000D01*
Y-297000D01*
D02*
G37*
G36*
X264500D02*
X243000D01*
Y-309000D01*
X264500D01*
Y-297000D01*
D02*
G37*
G36*
X292000Y-315000D02*
X270500D01*
Y-327000D01*
X292000D01*
Y-315000D01*
D02*
G37*
G36*
X264500D02*
X243000D01*
Y-327000D01*
X264500D01*
Y-315000D01*
D02*
G37*
G36*
X314750Y-320750D02*
X310500D01*
Y-325000D01*
X314750D01*
Y-320750D01*
D02*
G37*
G36*
X304500D02*
X300250D01*
Y-325000D01*
X304500D01*
Y-320750D01*
D02*
G37*
G36*
X217000Y-301500D02*
X204000D01*
Y-307000D01*
X217000D01*
Y-301500D01*
D02*
G37*
G36*
X236000D02*
X223000D01*
Y-307000D01*
X236000D01*
Y-301500D01*
D02*
G37*
%LPD*%
D10*
X144500Y0D02*
D03*
X125500D02*
D03*
D11*
X244000Y-65478D02*
D03*
Y-84478D02*
D03*
X266500Y-84378D02*
D03*
Y-65378D02*
D03*
D12*
X335500Y-95000D02*
D03*
X349500D02*
D03*
X-33419Y-415000D02*
D03*
X-47419D02*
D03*
D13*
X307500Y-224500D02*
D03*
Y-210500D02*
D03*
Y-342000D02*
D03*
Y-328000D02*
D03*
Y-379500D02*
D03*
Y-365500D02*
D03*
X119500Y-444500D02*
D03*
Y-430500D02*
D03*
X138000Y-430500D02*
D03*
Y-444500D02*
D03*
X81600Y-444500D02*
D03*
Y-430500D02*
D03*
X32500Y-441500D02*
D03*
Y-427500D02*
D03*
X-33419Y-448500D02*
D03*
Y-434500D02*
D03*
X-62919Y-429500D02*
D03*
Y-415500D02*
D03*
X307500Y-264500D02*
D03*
Y-250500D02*
D03*
X64100Y-444500D02*
D03*
Y-430500D02*
D03*
X350000Y-60500D02*
D03*
Y-74500D02*
D03*
X297500Y-80500D02*
D03*
Y-94500D02*
D03*
D14*
X220000Y-345000D02*
D03*
Y-310000D02*
D03*
X222500Y-230000D02*
D03*
Y-195000D02*
D03*
D15*
X-122500Y-356500D02*
D03*
Y-313500D02*
D03*
Y-239000D02*
D03*
Y-196000D02*
D03*
D16*
X145000Y-72900D02*
D03*
Y-27100D02*
D03*
D17*
X80000Y-50000D02*
D03*
D18*
X270000Y-197000D02*
D03*
Y-263000D02*
D03*
X267500Y-378000D02*
D03*
Y-312000D02*
D03*
X-70000Y-263000D02*
D03*
Y-197000D02*
D03*
Y-314500D02*
D03*
Y-380500D02*
D03*
D19*
X365000Y-370000D02*
D03*
X0Y0D02*
D03*
D20*
X-10419Y-432000D02*
D03*
Y-451000D02*
D03*
X13581Y-441500D02*
D03*
X308058Y-65722D02*
D03*
X332058Y-56223D02*
D03*
Y-75223D02*
D03*
D21*
X217000Y-60500D02*
D03*
X198000D02*
D03*
X207500Y-84500D02*
D03*
D22*
X-250000Y-490000D02*
X-152919D01*
X-33419Y-434500D02*
Y-415000D01*
X-77919D02*
X-47419D01*
X-152919Y-490000D02*
X-77919Y-415000D01*
X207622Y-84378D02*
X244000D01*
X207500Y-84500D02*
X207622Y-84378D01*
X-265000Y-117500D02*
X-255000Y-107500D01*
X-265000Y-475000D02*
Y-117500D01*
Y-475000D02*
X-250000Y-490000D01*
X32500Y-427500D02*
Y-355800D01*
X43300Y-345000D01*
Y-330000D01*
X13581Y-441500D02*
X32500D01*
X-33419Y-434500D02*
X-25000D01*
X-22500Y-432000D01*
X-10419D01*
X-26000Y-85183D02*
X-20000Y-91183D01*
Y-137500D02*
Y-91183D01*
Y-137500D02*
X-17000Y-140500D01*
X285000D01*
X-160000Y-145000D02*
X-150000Y-135000D01*
X-255000Y-107500D02*
X-150000D01*
X-122683Y-85183D02*
X-26000D01*
X-150000Y-135000D02*
Y-107500D01*
X-145000D01*
X-122683Y-85183D01*
D23*
X-75419Y-429500D02*
X-62919D01*
X-62919Y-429500D01*
X266845Y-65722D02*
X308058D01*
X232255Y-65478D02*
X244000D01*
X227278Y-60500D02*
X232255Y-65478D01*
X217000Y-60500D02*
X227278D01*
X345722Y-56223D02*
X350000Y-60500D01*
X332058Y-56223D02*
X345722D01*
X349500Y-95000D02*
Y-75000D01*
X298000Y-95000D02*
X335500D01*
X244000Y-84478D02*
X266400D01*
X266500Y-84378D01*
X207500Y-84500D02*
X243978D01*
X188022D02*
X207500D01*
X145000Y-72900D02*
X176422D01*
X188022Y-84500D01*
X243978D02*
X244000Y-84478D01*
X198000Y-60500D02*
Y-43000D01*
X332058Y-56223D02*
Y-45889D01*
Y-75223D02*
X349278D01*
X307500Y-365500D02*
X330000D01*
X307500Y-237500D02*
Y-224500D01*
Y-250500D02*
Y-237500D01*
X119500Y-330000D02*
X119500Y-330000D01*
X64100Y-430500D02*
Y-267900D01*
X119500Y-212500D01*
X53000Y-430500D02*
X64100D01*
X47500Y-436000D02*
X53000Y-430500D01*
X47500Y-446800D02*
Y-436000D01*
X43300Y-451000D02*
X47500Y-446800D01*
X-10419Y-451000D02*
X43300D01*
X-20000D02*
X-10419D01*
X-22500Y-448500D02*
X-20000Y-451000D01*
X-33419Y-448500D02*
X-22500D01*
X119500Y-431419D02*
Y-430500D01*
Y-330000D01*
X268000Y-379500D02*
X307500D01*
Y-365500D02*
Y-342000D01*
X270500Y-264500D02*
X307500D01*
X186334Y-432500D02*
X190000D01*
X-75000Y-477500D02*
Y-472500D01*
X330000Y-419521D02*
Y-365500D01*
X64100Y-444500D02*
X81600D01*
X119500D02*
X138000D01*
X81600Y-430500D02*
Y-273900D01*
X128000Y-227500D01*
X151000D01*
X217000Y-60500D02*
Y-44000D01*
X218000Y-43000D01*
X297000Y-80000D02*
X297500Y-80500D01*
X285000Y-80000D02*
X297000D01*
X285000Y-94500D02*
X297500D01*
X132000Y-456500D02*
X162334D01*
X186334Y-432500D01*
X-75000Y-477500D02*
X-70000Y-472500D01*
X116000D01*
X132000Y-456500D01*
X-10000Y67500D02*
X-7500Y65000D01*
X110000D01*
X157500Y17500D01*
X190000D01*
Y-432500D02*
X317021D01*
X330000Y-419521D01*
X138000Y-430500D02*
Y-394500D01*
X147500Y-385000D01*
D24*
X-242500Y-427500D02*
X-222500D01*
X-242500Y-407500D02*
X-222500D01*
X-122500Y-313500D02*
X-70000D01*
X-70000Y-313500D01*
Y-313000D01*
X220000Y-310000D02*
X266500D01*
X267500Y-311000D01*
X-242500Y-347500D02*
X-222500D01*
X-7500Y-264000D02*
Y-212500D01*
X-157500Y-239000D02*
X-122500D01*
X-222500Y-407500D02*
X-158000D01*
X-147000Y-396500D01*
X-222500Y-367500D02*
X-195000D01*
X-187000Y-359500D01*
X-222500Y-387500D02*
X-177000D01*
X-167000Y-377500D01*
X-222500Y-427500D02*
X-142000D01*
X-122500Y-408000D01*
Y-356500D01*
X-170500Y-196000D02*
X-122500D01*
X-147000Y-396500D02*
Y-320500D01*
X-140000Y-313500D01*
X-122500D01*
X-187000Y-359500D02*
Y-212500D01*
X-170500Y-196000D01*
X-167000Y-377500D02*
Y-248500D01*
X-157500Y-239000D01*
X-82500Y-27500D02*
X-67167D01*
X-120000Y-125000D02*
Y-109500D01*
X-69000Y-264000D02*
X-7500D01*
X-70000Y-263000D02*
X-69000Y-264000D01*
X-122500Y-196000D02*
X-70000D01*
X-7500Y-367500D02*
Y-330000D01*
X-21500Y-381500D02*
X-7500Y-367500D01*
X-70000Y-381500D02*
X-21500D01*
X-70000Y-313000D02*
X12000D01*
X17900Y-318900D01*
Y-330000D02*
Y-318900D01*
X-70000Y-196000D02*
X-69500Y-195500D01*
X12500D01*
X17900Y-200900D01*
Y-212500D02*
Y-200900D01*
X-122500Y-356500D02*
X-76000D01*
X-70000Y-362500D01*
Y-381500D02*
Y-362500D01*
X-122500Y-239000D02*
X-76000D01*
X-70000Y-245000D01*
Y-263000D02*
Y-245000D01*
D25*
X268000Y-310500D02*
X307500D01*
X267500Y-311000D02*
X268000Y-310500D01*
X267500Y-379000D02*
X268500Y-378000D01*
D26*
X176500Y-33500D02*
D03*
D27*
X144500Y-11250D02*
D03*
D28*
X118000Y-0D02*
D03*
D29*
X-75000Y-472500D02*
D03*
X190000Y17500D02*
D03*
X-10000Y67500D02*
D03*
X190000Y-432500D02*
D03*
D30*
X-7500Y-330000D02*
D03*
X-222500Y-427500D02*
D03*
X-82500Y-27500D02*
D03*
X-7500Y-212500D02*
D03*
D31*
X17900Y-330000D02*
D03*
X43300D02*
D03*
X94100D02*
D03*
X119500D02*
D03*
X144900D02*
D03*
X170300D02*
D03*
X325000Y15000D02*
D03*
X345000Y-5000D02*
D03*
Y15000D02*
D03*
X-102500Y12500D02*
D03*
X-82500D02*
D03*
X-102500Y-7500D02*
D03*
X-82500D02*
D03*
X-102500Y-27500D02*
D03*
X17900Y-212500D02*
D03*
X43300D02*
D03*
X94100D02*
D03*
X119500D02*
D03*
X144900D02*
D03*
X170300D02*
D03*
X-151000Y-460500D02*
D03*
D32*
X325000Y-5000D02*
D03*
D33*
X290000Y5000D02*
D03*
X380000D02*
D03*
X-235000Y-135000D02*
D03*
X-65000D02*
D03*
X-232500Y-252500D02*
D03*
Y-462500D02*
D03*
X-92500Y47500D02*
D03*
Y-62500D02*
D03*
D34*
X-180000Y-125000D02*
D03*
X-160000Y-145000D02*
D03*
Y-125000D02*
D03*
X-140000Y-145000D02*
D03*
Y-125000D02*
D03*
X-120000Y-145000D02*
D03*
Y-125000D02*
D03*
X-100000Y-145000D02*
D03*
X-200000D02*
D03*
Y-125000D02*
D03*
X-180000Y-145000D02*
D03*
D35*
X-100000Y-125000D02*
D03*
D36*
X-242500Y-347500D02*
D03*
X-222500Y-327500D02*
D03*
X-242500D02*
D03*
X-222500Y-307500D02*
D03*
X-242500D02*
D03*
X-222500Y-287500D02*
D03*
X-242500D02*
D03*
Y-427500D02*
D03*
X-222500Y-407500D02*
D03*
X-242500D02*
D03*
X-222500Y-387500D02*
D03*
X-242500D02*
D03*
X-222500Y-367500D02*
D03*
X-242500D02*
D03*
X-222500Y-347500D02*
D03*
D37*
X-75419Y-429500D02*
D03*
X332058Y-45889D02*
D03*
X27725Y-26367D02*
D03*
Y-45411D02*
D03*
Y-35889D02*
D03*
Y-83500D02*
D03*
Y-73978D02*
D03*
Y-64455D02*
D03*
Y-54933D02*
D03*
Y-16844D02*
D03*
Y-5000D02*
D03*
X307500Y-237500D02*
D03*
X168000Y-24000D02*
D03*
Y-33500D02*
D03*
Y-43500D02*
D03*
X178000Y-24000D02*
D03*
Y-33500D02*
D03*
Y-43500D02*
D03*
X188000Y-23500D02*
D03*
Y-33500D02*
D03*
Y-43500D02*
D03*
X218000Y-43000D02*
D03*
Y-33000D02*
D03*
Y-23000D02*
D03*
X208000Y-43000D02*
D03*
Y-33000D02*
D03*
Y-23500D02*
D03*
X198000Y-43000D02*
D03*
Y-33000D02*
D03*
Y-23500D02*
D03*
X330000Y-365500D02*
D03*
X107500Y-5000D02*
D03*
X97500D02*
D03*
X87500D02*
D03*
X77500D02*
D03*
X67500D02*
D03*
X57500D02*
D03*
X47500D02*
D03*
X37500D02*
D03*
X285000Y-140500D02*
D03*
X285000Y-80000D02*
D03*
Y-94500D02*
D03*
X57500Y-93000D02*
D03*
X27725D02*
D03*
X107500D02*
D03*
X97500D02*
D03*
X87500D02*
D03*
X77500D02*
D03*
X67500D02*
D03*
X47500D02*
D03*
X37500D02*
D03*
M02*
