G04 Layer_Color=8388736*
%FSLAX44Y44*%
%MOMM*%
G71*
G01*
G75*
%ADD49R,1.5000X1.7000*%
%ADD50R,1.7000X1.5000*%
%ADD51R,1.0500X1.0500*%
%ADD52R,1.0500X1.0500*%
%ADD53R,2.8000X1.3000*%
%ADD54R,2.5000X2.7000*%
%ADD55R,3.2000X1.8000*%
%ADD56R,6.9000X6.9000*%
%ADD57R,4.5000X2.6000*%
%ADD58C,2.0000*%
%ADD59R,1.2000X0.9000*%
%ADD60R,0.9000X1.2000*%
%ADD61C,5.2000*%
%ADD62R,1.6000X1.6000*%
%ADD63C,1.6000*%
%ADD64R,1.6000X1.6000*%
%ADD65C,2.4000*%
%ADD66O,1.4000X1.8500*%
%ADD67R,1.4000X1.6000*%
%ADD68O,1.8500X1.4000*%
D49*
X144500Y0D02*
D03*
X125500D02*
D03*
D50*
X244000Y-65478D02*
D03*
Y-84478D02*
D03*
X266500Y-84378D02*
D03*
Y-65378D02*
D03*
D51*
X335500Y-95000D02*
D03*
X349500D02*
D03*
X-33419Y-415000D02*
D03*
X-47419D02*
D03*
D52*
X307500Y-224500D02*
D03*
Y-210500D02*
D03*
Y-342000D02*
D03*
Y-328000D02*
D03*
Y-379500D02*
D03*
Y-365500D02*
D03*
X119500Y-444500D02*
D03*
Y-430500D02*
D03*
X138000Y-430500D02*
D03*
Y-444500D02*
D03*
X81600Y-444500D02*
D03*
Y-430500D02*
D03*
X32500Y-441500D02*
D03*
Y-427500D02*
D03*
X-33419Y-448500D02*
D03*
Y-434500D02*
D03*
X-62919Y-429500D02*
D03*
Y-415500D02*
D03*
X307500Y-264500D02*
D03*
Y-250500D02*
D03*
X64100Y-444500D02*
D03*
Y-430500D02*
D03*
X350000Y-60500D02*
D03*
Y-74500D02*
D03*
X297500Y-80500D02*
D03*
Y-94500D02*
D03*
D53*
X220000Y-345000D02*
D03*
Y-310000D02*
D03*
X222500Y-230000D02*
D03*
Y-195000D02*
D03*
D54*
X-122500Y-356500D02*
D03*
Y-313500D02*
D03*
Y-239000D02*
D03*
Y-196000D02*
D03*
D55*
X145000Y-72900D02*
D03*
Y-27100D02*
D03*
D56*
X80000Y-50000D02*
D03*
D57*
X270000Y-197000D02*
D03*
Y-263000D02*
D03*
X267500Y-378000D02*
D03*
Y-312000D02*
D03*
X-70000Y-263000D02*
D03*
Y-197000D02*
D03*
Y-314500D02*
D03*
Y-380500D02*
D03*
D58*
X365000Y-370000D02*
D03*
X0Y0D02*
D03*
D59*
X-10419Y-432000D02*
D03*
Y-451000D02*
D03*
X13581Y-441500D02*
D03*
X308058Y-65722D02*
D03*
X332058Y-56223D02*
D03*
Y-75223D02*
D03*
D60*
X217000Y-60500D02*
D03*
X198000D02*
D03*
X207500Y-84500D02*
D03*
D61*
X-75000Y-472500D02*
D03*
X190000Y17500D02*
D03*
X-10000Y67500D02*
D03*
X190000Y-432500D02*
D03*
D62*
X-7500Y-330000D02*
D03*
X-222500Y-427500D02*
D03*
X-82500Y-27500D02*
D03*
X-7500Y-212500D02*
D03*
D63*
X17900Y-330000D02*
D03*
X43300D02*
D03*
X94100D02*
D03*
X119500D02*
D03*
X144900D02*
D03*
X170300D02*
D03*
X325000Y15000D02*
D03*
X345000Y-5000D02*
D03*
Y15000D02*
D03*
X-102500Y12500D02*
D03*
X-82500D02*
D03*
X-102500Y-7500D02*
D03*
X-82500D02*
D03*
X-102500Y-27500D02*
D03*
X17900Y-212500D02*
D03*
X43300D02*
D03*
X94100D02*
D03*
X119500D02*
D03*
X144900D02*
D03*
X170300D02*
D03*
X-151000Y-460500D02*
D03*
D64*
X325000Y-5000D02*
D03*
D65*
X290000Y5000D02*
D03*
X380000D02*
D03*
X-235000Y-135000D02*
D03*
X-65000D02*
D03*
X-232500Y-252500D02*
D03*
Y-462500D02*
D03*
X-92500Y47500D02*
D03*
Y-62500D02*
D03*
D66*
X-180000Y-125000D02*
D03*
X-160000Y-145000D02*
D03*
Y-125000D02*
D03*
X-140000Y-145000D02*
D03*
Y-125000D02*
D03*
X-120000Y-145000D02*
D03*
Y-125000D02*
D03*
X-100000Y-145000D02*
D03*
X-200000D02*
D03*
Y-125000D02*
D03*
X-180000Y-145000D02*
D03*
D67*
X-100000Y-125000D02*
D03*
D68*
X-242500Y-347500D02*
D03*
X-222500Y-327500D02*
D03*
X-242500D02*
D03*
X-222500Y-307500D02*
D03*
X-242500D02*
D03*
X-222500Y-287500D02*
D03*
X-242500D02*
D03*
Y-427500D02*
D03*
X-222500Y-407500D02*
D03*
X-242500D02*
D03*
X-222500Y-387500D02*
D03*
X-242500D02*
D03*
X-222500Y-367500D02*
D03*
X-242500D02*
D03*
X-222500Y-347500D02*
D03*
M02*
