G04 Layer_Physical_Order=1*
G04 Layer_Color=255*
%FSLAX44Y44*%
%MOMM*%
G71*
G01*
G75*
%ADD10C,1.0000*%
%ADD11R,0.8500X0.8500*%
%ADD12R,0.8500X0.8500*%
%ADD13P,1.2021X4X180.0*%
%ADD14R,0.6000X1.0000*%
%ADD15R,1.5000X3.3500*%
%ADD16R,2.4000X0.8000*%
%ADD17O,2.2000X0.6500*%
%ADD18O,2.8000X0.6500*%
%ADD19O,0.6500X2.2000*%
%ADD20R,2.2000X2.2000*%
%ADD21R,1.0000X2.5000*%
%ADD22R,1.3000X1.5000*%
%ADD23R,0.7000X2.0000*%
G04:AMPARAMS|DCode=24|XSize=0.2mm|YSize=1.2mm|CornerRadius=0mm|HoleSize=0mm|Usage=FLASHONLY|Rotation=135.000|XOffset=0mm|YOffset=0mm|HoleType=Round|Shape=Round|*
%AMOVALD24*
21,1,1.0000,0.2000,0.0000,0.0000,225.0*
1,1,0.2000,0.3535,0.3535*
1,1,0.2000,-0.3535,-0.3535*
%
%ADD24OVALD24*%

G04:AMPARAMS|DCode=25|XSize=0.2mm|YSize=1.2mm|CornerRadius=0mm|HoleSize=0mm|Usage=FLASHONLY|Rotation=225.000|XOffset=0mm|YOffset=0mm|HoleType=Round|Shape=Round|*
%AMOVALD25*
21,1,1.0000,0.2000,0.0000,0.0000,315.0*
1,1,0.2000,-0.3535,0.3535*
1,1,0.2000,0.3535,-0.3535*
%
%ADD25OVALD25*%

%ADD26O,1.2000X0.2000*%
%ADD27O,0.2000X1.2000*%
%ADD28R,2.4000X1.4000*%
%ADD29R,1.2500X1.0000*%
%ADD30R,1.6000X1.2000*%
%ADD31C,0.2000*%
%ADD32C,0.3000*%
%ADD33C,0.5000*%
%ADD34C,0.8000*%
%ADD35C,0.6000*%
%ADD36C,0.4000*%
%ADD37C,2.7000*%
%ADD38C,1.8000*%
%ADD39R,1.8000X1.8000*%
%ADD40C,2.2000*%
%ADD41C,1.4000*%
%ADD42R,1.4000X1.4000*%
%ADD43C,0.7000*%
G36*
X309416Y-21868D02*
X309684Y-21892D01*
X310002Y-21965D01*
X310368Y-22087D01*
X310758Y-22258D01*
X311149Y-22502D01*
X311515Y-22820D01*
X311564Y-22868D01*
X311661Y-22991D01*
X311832Y-23210D01*
X312003Y-23479D01*
X312174Y-23821D01*
X312345Y-24211D01*
X312442Y-24650D01*
X312491Y-25139D01*
Y-25163D01*
Y-25212D01*
Y-25310D01*
X312467Y-25407D01*
X312442Y-25554D01*
X312418Y-25724D01*
X312320Y-26091D01*
X312174Y-26505D01*
X311930Y-26945D01*
X311783Y-27165D01*
X311612Y-27384D01*
X311417Y-27580D01*
X311173Y-27775D01*
X311198D01*
X311222Y-27824D01*
X311368Y-27946D01*
X311588Y-28165D01*
X311832Y-28483D01*
X312076Y-28849D01*
X312296Y-29313D01*
X312442Y-29825D01*
X312467Y-30118D01*
X312491Y-30411D01*
Y-31729D01*
Y-31754D01*
Y-31778D01*
Y-31851D01*
X312467Y-31949D01*
X312442Y-32217D01*
X312369Y-32535D01*
X312247Y-32901D01*
X312076Y-33291D01*
X311832Y-33682D01*
X311515Y-34048D01*
X311466Y-34097D01*
X311344Y-34195D01*
X311124Y-34341D01*
X310856Y-34512D01*
X310514Y-34707D01*
X310124Y-34853D01*
X309684Y-34951D01*
X309196Y-35000D01*
X306462D01*
X306340Y-34976D01*
X306243Y-34927D01*
X306120Y-34829D01*
X305998Y-34732D01*
X305925Y-34561D01*
X305901Y-34341D01*
Y-34316D01*
Y-34243D01*
X305925Y-34121D01*
X305974Y-33999D01*
X306072Y-33902D01*
X306169Y-33779D01*
X306340Y-33706D01*
X306560Y-33682D01*
X309342D01*
X309489Y-33658D01*
X309684Y-33609D01*
X309904Y-33535D01*
X310124Y-33438D01*
X310368Y-33316D01*
X310587Y-33121D01*
X310612Y-33096D01*
X310685Y-33023D01*
X310783Y-32901D01*
X310880Y-32730D01*
X310978Y-32535D01*
X311075Y-32291D01*
X311149Y-32022D01*
X311173Y-31729D01*
Y-30411D01*
Y-30387D01*
Y-30265D01*
X311149Y-30118D01*
X311100Y-29923D01*
X311027Y-29728D01*
X310929Y-29483D01*
X310783Y-29239D01*
X310587Y-29020D01*
X310563Y-28995D01*
X310490Y-28922D01*
X310368Y-28824D01*
X310197Y-28727D01*
X310002Y-28629D01*
X309757Y-28531D01*
X309489Y-28458D01*
X309196Y-28434D01*
X307780D01*
X307658Y-28410D01*
X307561Y-28361D01*
X307439Y-28263D01*
X307316Y-28165D01*
X307243Y-27994D01*
X307219Y-27775D01*
Y-27750D01*
Y-27677D01*
X307243Y-27555D01*
X307292Y-27433D01*
X307390Y-27336D01*
X307487Y-27213D01*
X307658Y-27140D01*
X307878Y-27116D01*
X309342D01*
X309489Y-27091D01*
X309684Y-27043D01*
X309904Y-26969D01*
X310124Y-26872D01*
X310368Y-26750D01*
X310587Y-26554D01*
X310612Y-26530D01*
X310685Y-26457D01*
X310783Y-26335D01*
X310880Y-26164D01*
X310978Y-25944D01*
X311075Y-25700D01*
X311149Y-25431D01*
X311173Y-25139D01*
Y-25114D01*
Y-24992D01*
X311149Y-24846D01*
X311100Y-24650D01*
X311027Y-24455D01*
X310929Y-24211D01*
X310783Y-23967D01*
X310587Y-23747D01*
X310563Y-23723D01*
X310490Y-23650D01*
X310368Y-23552D01*
X310197Y-23454D01*
X310002Y-23357D01*
X309757Y-23259D01*
X309489Y-23186D01*
X309196Y-23161D01*
X306462D01*
X306340Y-23137D01*
X306243Y-23088D01*
X306120Y-22991D01*
X305998Y-22893D01*
X305925Y-22722D01*
X305901Y-22502D01*
Y-22478D01*
Y-22405D01*
X305925Y-22283D01*
X305974Y-22161D01*
X306072Y-22063D01*
X306169Y-21941D01*
X306340Y-21868D01*
X306560Y-21843D01*
X309318D01*
X309416Y-21868D01*
D02*
G37*
G36*
X318618D02*
X318740Y-21917D01*
X318838Y-22014D01*
X318960Y-22112D01*
X319033Y-22283D01*
X319057Y-22502D01*
Y-22527D01*
Y-22551D01*
X319009Y-22698D01*
X316616Y-31046D01*
X319716D01*
Y-29093D01*
Y-29069D01*
Y-28995D01*
X319741Y-28873D01*
X319790Y-28751D01*
X319887Y-28654D01*
X319985Y-28531D01*
X320156Y-28458D01*
X320376Y-28434D01*
X320473D01*
X320595Y-28458D01*
X320717Y-28507D01*
X320815Y-28605D01*
X320937Y-28702D01*
X321010Y-28873D01*
X321035Y-29093D01*
Y-31046D01*
X322426D01*
X322548Y-31070D01*
X322670Y-31119D01*
X322768Y-31216D01*
X322890Y-31314D01*
X322963Y-31485D01*
X322987Y-31705D01*
Y-31729D01*
Y-31802D01*
X322963Y-31924D01*
X322914Y-32022D01*
X322816Y-32144D01*
X322719Y-32266D01*
X322548Y-32339D01*
X322328Y-32364D01*
X321035D01*
Y-34341D01*
Y-34365D01*
Y-34439D01*
X321010Y-34561D01*
X320961Y-34658D01*
X320864Y-34780D01*
X320766Y-34902D01*
X320595Y-34976D01*
X320376Y-35000D01*
X320278D01*
X320156Y-34976D01*
X320058Y-34927D01*
X319936Y-34829D01*
X319814Y-34732D01*
X319741Y-34561D01*
X319716Y-34341D01*
Y-32364D01*
X315665D01*
X315542Y-32339D01*
X315445Y-32291D01*
X315323Y-32217D01*
X315201Y-32095D01*
X315128Y-31949D01*
X315103Y-31729D01*
Y-31705D01*
Y-31656D01*
X315128Y-31534D01*
X317764Y-22332D01*
Y-22307D01*
X317788Y-22258D01*
X317886Y-22087D01*
X317983Y-21990D01*
X318081Y-21917D01*
X318228Y-21868D01*
X318398Y-21843D01*
X318496D01*
X318618Y-21868D01*
D02*
G37*
G36*
X329138D02*
X329407Y-21892D01*
X329724Y-21965D01*
X330090Y-22087D01*
X330481Y-22258D01*
X330872Y-22502D01*
X331238Y-22820D01*
X331287Y-22868D01*
X331384Y-22991D01*
X331555Y-23186D01*
X331726Y-23454D01*
X331897Y-23796D01*
X332068Y-24187D01*
X332165Y-24650D01*
X332214Y-25139D01*
Y-25187D01*
Y-25310D01*
X332190Y-25480D01*
X332141Y-25724D01*
X332068Y-26017D01*
X331946Y-26335D01*
X331799Y-26676D01*
X331604Y-27043D01*
X327479Y-33682D01*
X331653D01*
X331775Y-33706D01*
X331897Y-33755D01*
X331994Y-33853D01*
X332116Y-33950D01*
X332190Y-34121D01*
X332214Y-34341D01*
Y-34365D01*
Y-34439D01*
X332190Y-34561D01*
X332141Y-34658D01*
X332043Y-34780D01*
X331946Y-34902D01*
X331775Y-34976D01*
X331555Y-35000D01*
X326185D01*
X326063Y-34976D01*
X325965Y-34927D01*
X325843Y-34853D01*
X325721Y-34732D01*
X325648Y-34585D01*
X325624Y-34365D01*
Y-34316D01*
X325648Y-34243D01*
X325672Y-34097D01*
X325746Y-33975D01*
X330554Y-26237D01*
X330579Y-26213D01*
X330603Y-26139D01*
X330652Y-26042D01*
X330725Y-25895D01*
X330798Y-25724D01*
X330847Y-25554D01*
X330872Y-25358D01*
X330896Y-25139D01*
Y-25114D01*
Y-24992D01*
X330872Y-24846D01*
X330823Y-24650D01*
X330750Y-24455D01*
X330652Y-24211D01*
X330505Y-23967D01*
X330310Y-23747D01*
X330286Y-23723D01*
X330213Y-23650D01*
X330090Y-23552D01*
X329920Y-23454D01*
X329724Y-23357D01*
X329480Y-23259D01*
X329212Y-23186D01*
X328919Y-23161D01*
X328870D01*
X328723Y-23186D01*
X328504Y-23259D01*
X328235Y-23357D01*
X327918Y-23576D01*
X327747Y-23698D01*
X327576Y-23869D01*
X327405Y-24040D01*
X327235Y-24284D01*
X327039Y-24528D01*
X326868Y-24821D01*
Y-24846D01*
X326844Y-24870D01*
X326722Y-24968D01*
X326551Y-25090D01*
X326429Y-25114D01*
X326283Y-25139D01*
X326185D01*
X326063Y-25114D01*
X325965Y-25065D01*
X325843Y-24968D01*
X325721Y-24870D01*
X325648Y-24699D01*
X325624Y-24480D01*
Y-24455D01*
Y-24382D01*
X325648Y-24309D01*
X325697Y-24211D01*
X325721Y-24187D01*
X325746Y-24113D01*
X325819Y-23991D01*
X325916Y-23845D01*
X326039Y-23650D01*
X326185Y-23454D01*
X326356Y-23259D01*
X326551Y-23015D01*
X327015Y-22600D01*
X327283Y-22380D01*
X327576Y-22209D01*
X327869Y-22063D01*
X328211Y-21941D01*
X328553Y-21868D01*
X328919Y-21843D01*
X329041D01*
X329138Y-21868D01*
D02*
G37*
G36*
X281809D02*
X282077Y-21892D01*
X282395Y-21965D01*
X282761Y-22063D01*
X283151Y-22234D01*
X283542Y-22478D01*
X283908Y-22795D01*
X283957Y-22844D01*
X284054Y-22966D01*
X284225Y-23161D01*
X284396Y-23454D01*
X284567Y-23796D01*
X284738Y-24187D01*
X284835Y-24626D01*
X284884Y-25139D01*
Y-31729D01*
Y-31754D01*
Y-31778D01*
Y-31851D01*
X284860Y-31949D01*
X284835Y-32217D01*
X284762Y-32535D01*
X284640Y-32901D01*
X284469Y-33291D01*
X284225Y-33682D01*
X283908Y-34048D01*
X283859Y-34097D01*
X283737Y-34195D01*
X283542Y-34341D01*
X283273Y-34512D01*
X282931Y-34707D01*
X282541Y-34853D01*
X282077Y-34951D01*
X281589Y-35000D01*
X277537D01*
X277415Y-34976D01*
X277317Y-34927D01*
X277195Y-34829D01*
X277073Y-34732D01*
X277000Y-34561D01*
X276976Y-34341D01*
Y-34316D01*
Y-34243D01*
X277000Y-34121D01*
X277049Y-33999D01*
X277146Y-33902D01*
X277244Y-33779D01*
X277415Y-33706D01*
X277635Y-33682D01*
X281735D01*
X281882Y-33658D01*
X282077Y-33609D01*
X282297Y-33535D01*
X282516Y-33438D01*
X282761Y-33316D01*
X282980Y-33121D01*
X283005Y-33096D01*
X283078Y-33023D01*
X283176Y-32901D01*
X283273Y-32730D01*
X283371Y-32535D01*
X283468Y-32291D01*
X283542Y-32022D01*
X283566Y-31729D01*
Y-28434D01*
X280173D01*
X280051Y-28410D01*
X279953Y-28361D01*
X279832Y-28263D01*
X279709Y-28165D01*
X279636Y-27994D01*
X279612Y-27775D01*
Y-27750D01*
Y-27677D01*
X279636Y-27555D01*
X279685Y-27433D01*
X279783Y-27336D01*
X279880Y-27213D01*
X280051Y-27140D01*
X280271Y-27116D01*
X283566D01*
Y-25139D01*
Y-25114D01*
Y-24992D01*
X283542Y-24846D01*
X283493Y-24650D01*
X283420Y-24455D01*
X283322Y-24211D01*
X283176Y-23967D01*
X282980Y-23747D01*
X282956Y-23723D01*
X282883Y-23650D01*
X282761Y-23552D01*
X282590Y-23454D01*
X282395Y-23357D01*
X282150Y-23259D01*
X281882Y-23186D01*
X281589Y-23161D01*
X277537D01*
X277415Y-23137D01*
X277317Y-23088D01*
X277195Y-22991D01*
X277073Y-22893D01*
X277000Y-22722D01*
X276976Y-22502D01*
Y-22478D01*
Y-22405D01*
X277000Y-22283D01*
X277049Y-22161D01*
X277146Y-22063D01*
X277244Y-21941D01*
X277415Y-21868D01*
X277635Y-21843D01*
X281711D01*
X281809Y-21868D01*
D02*
G37*
G36*
X291011D02*
X291280Y-21892D01*
X291597Y-21965D01*
X291963Y-22087D01*
X292353Y-22258D01*
X292744Y-22502D01*
X293110Y-22820D01*
X293159Y-22868D01*
X293257Y-22991D01*
X293428Y-23186D01*
X293598Y-23454D01*
X293769Y-23796D01*
X293940Y-24187D01*
X294038Y-24650D01*
X294087Y-25139D01*
Y-25187D01*
Y-25310D01*
X294062Y-25480D01*
X294013Y-25724D01*
X293940Y-26017D01*
X293818Y-26335D01*
X293672Y-26676D01*
X293476Y-27043D01*
X289351Y-33682D01*
X293525D01*
X293647Y-33706D01*
X293769Y-33755D01*
X293867Y-33853D01*
X293989Y-33950D01*
X294062Y-34121D01*
X294087Y-34341D01*
Y-34365D01*
Y-34439D01*
X294062Y-34561D01*
X294013Y-34658D01*
X293916Y-34780D01*
X293818Y-34902D01*
X293647Y-34976D01*
X293428Y-35000D01*
X288057D01*
X287935Y-34976D01*
X287838Y-34927D01*
X287716Y-34853D01*
X287594Y-34732D01*
X287521Y-34585D01*
X287496Y-34365D01*
Y-34316D01*
X287521Y-34243D01*
X287545Y-34097D01*
X287618Y-33975D01*
X292427Y-26237D01*
X292451Y-26213D01*
X292476Y-26139D01*
X292524Y-26042D01*
X292598Y-25895D01*
X292671Y-25724D01*
X292720Y-25554D01*
X292744Y-25358D01*
X292768Y-25139D01*
Y-25114D01*
Y-24992D01*
X292744Y-24846D01*
X292695Y-24650D01*
X292622Y-24455D01*
X292524Y-24211D01*
X292378Y-23967D01*
X292183Y-23747D01*
X292158Y-23723D01*
X292085Y-23650D01*
X291963Y-23552D01*
X291792Y-23454D01*
X291597Y-23357D01*
X291353Y-23259D01*
X291084Y-23186D01*
X290791Y-23161D01*
X290742D01*
X290596Y-23186D01*
X290376Y-23259D01*
X290108Y-23357D01*
X289790Y-23576D01*
X289620Y-23698D01*
X289449Y-23869D01*
X289278Y-24040D01*
X289107Y-24284D01*
X288912Y-24528D01*
X288741Y-24821D01*
Y-24846D01*
X288717Y-24870D01*
X288594Y-24968D01*
X288424Y-25090D01*
X288302Y-25114D01*
X288155Y-25139D01*
X288057D01*
X287935Y-25114D01*
X287838Y-25065D01*
X287716Y-24968D01*
X287594Y-24870D01*
X287521Y-24699D01*
X287496Y-24480D01*
Y-24455D01*
Y-24382D01*
X287521Y-24309D01*
X287569Y-24211D01*
X287594Y-24187D01*
X287618Y-24113D01*
X287691Y-23991D01*
X287789Y-23845D01*
X287911Y-23650D01*
X288057Y-23454D01*
X288228Y-23259D01*
X288424Y-23015D01*
X288887Y-22600D01*
X289156Y-22380D01*
X289449Y-22209D01*
X289742Y-22063D01*
X290083Y-21941D01*
X290425Y-21868D01*
X290791Y-21843D01*
X290913D01*
X291011Y-21868D01*
D02*
G37*
G36*
X302166D02*
X302288Y-21917D01*
X302410Y-22014D01*
X302508Y-22112D01*
X302581Y-22283D01*
X302605Y-22502D01*
Y-22527D01*
Y-22600D01*
X302581Y-22722D01*
X302532Y-22820D01*
X302459Y-22942D01*
X302337Y-23064D01*
X302190Y-23137D01*
X301971Y-23161D01*
X298041D01*
Y-27116D01*
X300116D01*
X300213Y-27140D01*
X300482Y-27165D01*
X300799Y-27238D01*
X301165Y-27360D01*
X301556Y-27531D01*
X301946Y-27775D01*
X302313Y-28092D01*
X302361Y-28141D01*
X302459Y-28263D01*
X302630Y-28483D01*
X302801Y-28751D01*
X302972Y-29093D01*
X303143Y-29483D01*
X303240Y-29923D01*
X303289Y-30411D01*
Y-31729D01*
Y-31754D01*
Y-31778D01*
Y-31851D01*
X303265Y-31949D01*
X303240Y-32217D01*
X303167Y-32535D01*
X303045Y-32901D01*
X302874Y-33291D01*
X302630Y-33682D01*
X302313Y-34048D01*
X302264Y-34097D01*
X302142Y-34195D01*
X301922Y-34341D01*
X301653Y-34512D01*
X301312Y-34707D01*
X300921Y-34853D01*
X300482Y-34951D01*
X299994Y-35000D01*
X297260D01*
X297162Y-34976D01*
X297040Y-34927D01*
X296918Y-34829D01*
X296820Y-34732D01*
X296747Y-34561D01*
X296723Y-34341D01*
Y-34316D01*
Y-34243D01*
X296747Y-34121D01*
X296796Y-33999D01*
X296869Y-33902D01*
X296991Y-33779D01*
X297138Y-33706D01*
X297357Y-33682D01*
X300140D01*
X300287Y-33658D01*
X300482Y-33609D01*
X300702Y-33535D01*
X300921Y-33438D01*
X301165Y-33316D01*
X301385Y-33121D01*
X301409Y-33096D01*
X301483Y-33023D01*
X301580Y-32901D01*
X301678Y-32730D01*
X301775Y-32535D01*
X301873Y-32291D01*
X301946Y-32022D01*
X301971Y-31729D01*
Y-30411D01*
Y-30387D01*
Y-30265D01*
X301946Y-30118D01*
X301898Y-29923D01*
X301824Y-29728D01*
X301727Y-29483D01*
X301580Y-29239D01*
X301385Y-29020D01*
X301361Y-28995D01*
X301287Y-28922D01*
X301165Y-28824D01*
X300994Y-28727D01*
X300799Y-28629D01*
X300555Y-28531D01*
X300287Y-28458D01*
X299994Y-28434D01*
X297260D01*
X297162Y-28410D01*
X297040Y-28361D01*
X296918Y-28263D01*
X296820Y-28165D01*
X296747Y-27994D01*
X296723Y-27775D01*
Y-22502D01*
Y-22478D01*
Y-22405D01*
X296747Y-22283D01*
X296796Y-22161D01*
X296869Y-22063D01*
X296991Y-21941D01*
X297138Y-21868D01*
X297357Y-21843D01*
X302069D01*
X302166Y-21868D01*
D02*
G37*
G36*
X338365D02*
X338487Y-21917D01*
X338585Y-22014D01*
X338707Y-22112D01*
X338780Y-22283D01*
X338805Y-22502D01*
Y-34365D01*
Y-34390D01*
Y-34463D01*
X338780Y-34561D01*
X338731Y-34683D01*
X338634Y-34805D01*
X338536Y-34902D01*
X338365Y-34976D01*
X338146Y-35000D01*
X338048D01*
X337926Y-34976D01*
X337828Y-34927D01*
X337706Y-34853D01*
X337584Y-34732D01*
X337511Y-34585D01*
X337486Y-34365D01*
Y-24089D01*
X335949Y-25602D01*
X335924Y-25627D01*
X335827Y-25700D01*
X335680Y-25773D01*
X335509Y-25798D01*
X335412D01*
X335290Y-25773D01*
X335192Y-25724D01*
X335070Y-25627D01*
X334948Y-25529D01*
X334875Y-25358D01*
X334850Y-25139D01*
Y-25114D01*
Y-25090D01*
X334875Y-24968D01*
X334924Y-24821D01*
X335021Y-24675D01*
X337608Y-22112D01*
Y-22087D01*
X337657Y-22063D01*
X337779Y-21965D01*
X337950Y-21892D01*
X338048Y-21843D01*
X338243D01*
X338365Y-21868D01*
D02*
G37*
G36*
X275000Y93000D02*
X197500D01*
Y155000D01*
X275000D01*
Y93000D01*
D02*
G37*
G36*
X264500Y26000D02*
X240500Y26000D01*
Y50000D01*
Y76500D01*
X264500D01*
Y26000D01*
D02*
G37*
%LPC*%
G36*
X249500Y118500D02*
X237500D01*
Y111500D01*
X249500D01*
Y118500D01*
D02*
G37*
G36*
X267500D02*
X255500D01*
Y111500D01*
X267500D01*
Y118500D01*
D02*
G37*
G36*
X249500Y105500D02*
X237500D01*
Y98500D01*
X249500D01*
Y105500D01*
D02*
G37*
G36*
X267500D02*
X255500D01*
Y98500D01*
X267500D01*
Y105500D01*
D02*
G37*
%LPD*%
D10*
X68000Y281000D02*
D03*
X527000Y-33000D02*
D03*
D11*
X203000Y260200D02*
D03*
X217000D02*
D03*
X132000Y252500D02*
D03*
X118000D02*
D03*
X302000Y117500D02*
D03*
X288000D02*
D03*
X347919D02*
D03*
X333919D02*
D03*
X569500Y155000D02*
D03*
X555500D02*
D03*
X589500Y207500D02*
D03*
X575500D02*
D03*
X572000Y92500D02*
D03*
X558000D02*
D03*
X575500Y173772D02*
D03*
X589500D02*
D03*
X502000Y127500D02*
D03*
X488000D02*
D03*
X503000Y112500D02*
D03*
X517000D02*
D03*
X534500Y12500D02*
D03*
X520500D02*
D03*
X575500Y190886D02*
D03*
X589500D02*
D03*
X363919Y117500D02*
D03*
X377919D02*
D03*
X73000Y85000D02*
D03*
X87000D02*
D03*
X441500Y62000D02*
D03*
X455500D02*
D03*
X72999Y147499D02*
D03*
X86999D02*
D03*
X205000Y83500D02*
D03*
X219000D02*
D03*
D12*
X157500Y215500D02*
D03*
Y201500D02*
D03*
X88500Y49500D02*
D03*
Y35500D02*
D03*
X590000Y120500D02*
D03*
Y134500D02*
D03*
X535000Y123000D02*
D03*
Y137000D02*
D03*
X120000Y120500D02*
D03*
Y134500D02*
D03*
X107500Y134500D02*
D03*
Y120500D02*
D03*
X302500Y152000D02*
D03*
Y138000D02*
D03*
X352167Y152000D02*
D03*
Y138000D02*
D03*
X315000Y152000D02*
D03*
Y138000D02*
D03*
X327500Y152000D02*
D03*
Y138000D02*
D03*
X378369Y152000D02*
D03*
Y138000D02*
D03*
X365506Y152000D02*
D03*
Y138000D02*
D03*
X464292Y102000D02*
D03*
Y88000D02*
D03*
X405000Y295500D02*
D03*
Y309500D02*
D03*
X390000Y295500D02*
D03*
Y309500D02*
D03*
X360000Y295500D02*
D03*
Y309500D02*
D03*
X375000Y295500D02*
D03*
Y309500D02*
D03*
X290919Y48000D02*
D03*
Y62000D02*
D03*
X278419Y48000D02*
D03*
Y62000D02*
D03*
X335919Y48000D02*
D03*
Y62000D02*
D03*
X323419Y48000D02*
D03*
Y62000D02*
D03*
X380919Y48000D02*
D03*
Y62000D02*
D03*
X368419Y48000D02*
D03*
Y62000D02*
D03*
X160000Y309500D02*
D03*
Y295500D02*
D03*
X132500Y309500D02*
D03*
Y295500D02*
D03*
X97500Y309300D02*
D03*
Y295300D02*
D03*
X303419Y62000D02*
D03*
Y48000D02*
D03*
X348419Y62000D02*
D03*
Y48000D02*
D03*
X393419Y62000D02*
D03*
Y48000D02*
D03*
X160000Y268000D02*
D03*
Y282000D02*
D03*
X132500Y268000D02*
D03*
Y282000D02*
D03*
X97500D02*
D03*
Y268000D02*
D03*
X422500Y295500D02*
D03*
Y309500D02*
D03*
X339529Y152000D02*
D03*
Y138000D02*
D03*
X71000Y49500D02*
D03*
Y35500D02*
D03*
D13*
X407550Y137550D02*
D03*
X417450Y147450D02*
D03*
D14*
X562500Y110500D02*
D03*
X553000Y134500D02*
D03*
X572000D02*
D03*
X333419Y102000D02*
D03*
X342919Y78000D02*
D03*
X323919D02*
D03*
X378419Y102000D02*
D03*
X387919Y78000D02*
D03*
X368919D02*
D03*
X288419Y102000D02*
D03*
X297919Y78000D02*
D03*
X278919D02*
D03*
D15*
X86750Y115000D02*
D03*
X48250D02*
D03*
Y182500D02*
D03*
X86750D02*
D03*
D16*
X402419Y357700D02*
D03*
Y345000D02*
D03*
Y332300D02*
D03*
X363419Y357700D02*
D03*
Y345000D02*
D03*
Y332300D02*
D03*
D17*
X242250Y222100D02*
D03*
Y234800D02*
D03*
Y260200D02*
D03*
Y272900D02*
D03*
X322750D02*
D03*
Y260200D02*
D03*
Y247500D02*
D03*
Y234800D02*
D03*
Y222100D02*
D03*
D18*
X245250Y247500D02*
D03*
D19*
X257100Y287750D02*
D03*
X269800D02*
D03*
X282500D02*
D03*
X295200D02*
D03*
X307900D02*
D03*
Y207250D02*
D03*
X295200D02*
D03*
X282500D02*
D03*
X269800D02*
D03*
X257100D02*
D03*
D20*
X492000Y37000D02*
D03*
X534000D02*
D03*
Y91000D02*
D03*
X492000Y91100D02*
D03*
D21*
X457114Y312500D02*
D03*
Y362500D02*
D03*
X477114Y312500D02*
D03*
Y362500D02*
D03*
X497114Y312500D02*
D03*
Y362500D02*
D03*
X517114Y312500D02*
D03*
Y362500D02*
D03*
D22*
X195500Y37500D02*
D03*
X214500D02*
D03*
D23*
X167500Y176500D02*
D03*
X187500Y83500D02*
D03*
X177500D02*
D03*
X157500D02*
D03*
X147500D02*
D03*
X147500Y176500D02*
D03*
X157500D02*
D03*
X177500D02*
D03*
X167500Y83500D02*
D03*
X187500Y176500D02*
D03*
D24*
X499314Y220700D02*
D03*
X434914Y156300D02*
D03*
D25*
Y220700D02*
D03*
X499314Y156300D02*
D03*
D26*
X499864Y213500D02*
D03*
Y208500D02*
D03*
Y203500D02*
D03*
Y198500D02*
D03*
Y193500D02*
D03*
Y188500D02*
D03*
Y183500D02*
D03*
Y178500D02*
D03*
Y173500D02*
D03*
Y168500D02*
D03*
Y163500D02*
D03*
X434364D02*
D03*
Y168500D02*
D03*
Y173500D02*
D03*
Y178500D02*
D03*
Y183500D02*
D03*
Y188500D02*
D03*
Y193500D02*
D03*
Y198500D02*
D03*
Y203500D02*
D03*
Y208500D02*
D03*
Y213500D02*
D03*
D27*
X492114Y155750D02*
D03*
X487114D02*
D03*
X482114D02*
D03*
X477114D02*
D03*
X472114D02*
D03*
X467114D02*
D03*
X462114D02*
D03*
X457114D02*
D03*
X452114D02*
D03*
X447114D02*
D03*
X442114D02*
D03*
X447114Y221250D02*
D03*
X452114D02*
D03*
X457114D02*
D03*
X462114D02*
D03*
X467114D02*
D03*
X472114D02*
D03*
X477114D02*
D03*
X482114D02*
D03*
X487114D02*
D03*
X492114D02*
D03*
X442114D02*
D03*
D28*
X252500Y108500D02*
D03*
Y76500D02*
D03*
D29*
X441708Y82500D02*
D03*
Y102500D02*
D03*
D30*
X413500Y101500D02*
D03*
Y69500D02*
D03*
D31*
X520000Y152500D02*
X558386Y190886D01*
X503114Y152500D02*
X520000D01*
X558386Y190886D02*
X575500D01*
X360000Y248056D02*
X365556Y242500D01*
X447614D01*
X360000Y248056D02*
Y295500D01*
X315000Y193500D02*
X323500Y202000D01*
X296500Y193500D02*
X315000D01*
X316450Y190000D02*
X319950Y193500D01*
X285000Y190000D02*
X316450D01*
X322500Y190000D02*
X339529D01*
X317500Y185000D02*
X322500Y190000D01*
X273500Y185000D02*
X317500D01*
X321450Y184000D02*
X327450D01*
X318950Y181500D02*
X321450Y184000D01*
X269000Y181500D02*
X318950D01*
X315000Y175000D02*
X386000D01*
X267079D02*
X315000D01*
X384550Y171500D02*
X387550Y168500D01*
X319985Y171500D02*
X384550D01*
X317485Y169000D02*
X319985Y171500D01*
X302500Y169000D02*
X317485D01*
X264000D02*
X302500D01*
X242250Y199829D02*
X267079Y175000D01*
X352450Y193550D02*
Y196000D01*
X351450Y197000D02*
X352450Y196000D01*
X339529Y190000D02*
X378899D01*
X344014Y186000D02*
X383000D01*
X500000Y2500D02*
X536535D01*
X550000Y15964D01*
X472500Y30000D02*
X500000Y2500D01*
X387500Y97500D02*
Y160000D01*
X413500Y111336D02*
X450253D01*
X413500Y101500D02*
Y111336D01*
X387500Y160000D02*
X391000Y163500D01*
X434364D01*
X472114Y221250D02*
Y282500D01*
X484000Y188500D02*
X499864D01*
X519000Y193500D02*
X522500Y190000D01*
X410000Y185000D02*
X413500Y188500D01*
X492114Y145000D02*
Y155750D01*
Y145000D02*
X502000Y135114D01*
Y127500D02*
Y135114D01*
X487114Y128386D02*
Y155750D01*
Y128386D02*
X488000Y127500D01*
X482114Y134944D02*
Y155750D01*
X464292Y117122D02*
X482114Y134944D01*
X464292Y102000D02*
Y117122D01*
X462114Y202886D02*
Y221250D01*
X482114D02*
Y248614D01*
X487114Y221250D02*
Y233614D01*
X489000Y235500D01*
X492114Y221250D02*
Y228614D01*
X413500Y188500D02*
X434364D01*
X482114Y155750D02*
Y171910D01*
X472500Y181524D02*
X482114Y171910D01*
X295200Y194800D02*
Y207250D01*
X382450Y198500D02*
X434364D01*
X382399Y193500D02*
X434364D01*
X282500Y192500D02*
Y207250D01*
X269800Y188700D02*
Y207250D01*
X242250Y199829D02*
Y222100D01*
X319950Y193500D02*
X319950Y193500D01*
X381500Y202500D02*
X382500Y203500D01*
X364444Y202000D02*
X366000Y200444D01*
X379950Y196000D02*
X382450Y198500D01*
X319950Y193500D02*
X323450Y197000D01*
X351450D01*
X295200Y194800D02*
X296500Y193500D01*
X282500Y192500D02*
X285000Y190000D01*
X269800Y188700D02*
X273500Y185000D01*
X390500Y178500D02*
X434364D01*
X383000Y186000D02*
X390500Y178500D01*
X342014Y184000D02*
X344014Y186000D01*
X327450Y184000D02*
X342014D01*
X387500Y173500D02*
X434364D01*
X257100Y193400D02*
X269000Y181500D01*
X257100Y193400D02*
Y207250D01*
X387550Y168500D02*
X434364D01*
X225000Y208000D02*
X264000Y169000D01*
X225000Y208000D02*
Y230800D01*
X229000Y234800D01*
X242250D01*
X472500Y181524D02*
Y206000D01*
X482500Y190000D02*
X484000Y188500D01*
X499864Y213500D02*
X507500D01*
X520000Y226000D01*
X462114Y202886D02*
X462500Y202500D01*
X366500Y202500D02*
X381500D01*
X382500Y203500D02*
X434364D01*
X366000Y200444D02*
Y202000D01*
X366500Y202500D01*
X309150Y208500D02*
X378419D01*
X434364D01*
X426500Y213500D02*
X434364D01*
X441708Y102500D02*
X442208Y102000D01*
X455500Y62000D02*
Y101500D01*
X455000Y102000D02*
X455500Y101500D01*
X442208Y102000D02*
X455000D01*
X464292D01*
X457500Y297500D02*
Y320000D01*
X499864Y208500D02*
X511000D01*
X530000Y227500D01*
X499864Y198500D02*
X513500D01*
X499864Y183500D02*
X525000D01*
X499864Y203500D02*
X513500D01*
X499864Y193500D02*
X519000D01*
X496996Y289504D02*
Y319496D01*
X499864Y178500D02*
X524950D01*
X499864Y173500D02*
X524899D01*
X550000Y198601D01*
X525000Y183500D02*
X543000Y201500D01*
X524950Y178500D02*
X546500Y200050D01*
X518300Y370800D02*
X527500D01*
X574500Y208500D02*
X575500Y207500D01*
X499864Y168500D02*
X526000D01*
X553500Y196000D01*
X434364Y183500D02*
X451000D01*
X452500Y185000D01*
Y187500D01*
X442000Y155636D02*
X442114Y155750D01*
Y221250D02*
Y227886D01*
X477114Y221250D02*
Y274614D01*
X482114Y248614D02*
X482500Y249000D01*
X486000D01*
X465000Y239000D02*
X467114Y236886D01*
Y221250D02*
Y236886D01*
X497500Y370000D02*
Y377500D01*
X500000Y380000D01*
X527500D01*
X456417Y362500D02*
X457114D01*
X456417Y341083D02*
X467500Y330000D01*
X456417Y341083D02*
Y362500D01*
X477114Y274614D02*
X480000Y277500D01*
X467500Y297500D02*
Y330000D01*
Y297500D02*
X472500Y292500D01*
X487450D01*
X457500Y297500D02*
X466000Y289000D01*
X486000D01*
X527500Y380000D02*
X531000Y376500D01*
Y271399D02*
Y376500D01*
X513500Y198500D02*
X539500Y224500D01*
X517500Y275000D02*
Y312500D01*
X527500Y269950D02*
Y370800D01*
Y269950D02*
X550000Y247450D01*
X531000Y271399D02*
X553500Y248899D01*
X530000Y227500D02*
Y235000D01*
X486000Y289000D02*
X536000Y239000D01*
Y226000D02*
Y239000D01*
X513500Y203500D02*
X536000Y226000D01*
X487450Y292500D02*
X539500Y240450D01*
Y224500D02*
Y240450D01*
X543000Y201500D02*
Y243500D01*
X496996Y289504D02*
X543000Y243500D01*
X546500Y200050D02*
Y246000D01*
X517500Y275000D02*
X546500Y246000D01*
X550000Y198601D02*
Y247450D01*
X553500Y196000D02*
Y248899D01*
X465000Y239000D02*
Y242500D01*
X447114Y221250D02*
Y232830D01*
X467114Y139614D02*
Y155750D01*
X450253Y111336D02*
X477114Y138197D01*
Y155750D01*
X462500Y135000D02*
X467114Y139614D01*
X378899Y190000D02*
X382399Y193500D01*
X354899Y196000D02*
X379950D01*
X352450Y193550D02*
X354899Y196000D01*
X302500Y152000D02*
Y169000D01*
X323500Y202000D02*
X364444D01*
X386000Y175000D02*
X387500Y173500D01*
X420000Y150000D02*
X428614D01*
X434914Y156300D01*
X520000Y226000D02*
Y235500D01*
X390000Y247500D02*
X391500Y246000D01*
X390000Y247500D02*
Y295500D01*
X499864Y163500D02*
X525950D01*
X557000Y194550D01*
Y204500D01*
X560000Y207500D01*
X575500D01*
X499314Y156300D02*
X503114Y152500D01*
X472114Y155750D02*
Y162886D01*
X462500Y172500D02*
X472114Y162886D01*
X387500Y97500D02*
X400169Y84831D01*
Y60907D02*
Y84831D01*
Y60907D02*
X431076Y30000D01*
X472500D01*
X550000Y15964D02*
Y75000D01*
X558000Y83000D01*
Y92500D01*
X492114Y228614D02*
X499000Y235500D01*
X457114Y221250D02*
Y237950D01*
X452114Y221250D02*
Y238000D01*
X444444Y235500D02*
X447114Y232830D01*
X499314Y220700D02*
X510000Y231386D01*
Y235500D01*
X457114Y149614D02*
Y155750D01*
X447500Y140000D02*
X457114Y149614D01*
X397500Y115000D02*
X432500D01*
X462114Y144614D01*
Y155750D01*
X427500Y142114D02*
X434614D01*
X442114Y149614D01*
Y155750D01*
X420000Y135000D02*
X432500D01*
X447114Y149614D01*
Y155750D01*
X452114Y174614D02*
X452500Y175000D01*
X452114Y155750D02*
Y174614D01*
X425000Y230614D02*
X434914Y220700D01*
X449064Y246000D02*
X457114Y237950D01*
X447614Y242500D02*
X452114Y238000D01*
X417500Y222500D02*
X426500Y213500D01*
X425000Y230614D02*
Y235000D01*
X422500Y252500D02*
Y295500D01*
X391500Y246000D02*
X449064D01*
X435000Y235000D02*
X442114Y227886D01*
D32*
X387419Y324504D02*
X391923Y320000D01*
X387419Y324504D02*
Y349831D01*
X379550Y357700D02*
X387419Y349831D01*
X431000Y285000D02*
Y368772D01*
X435500Y294500D02*
Y370636D01*
X442499Y299999D02*
Y370001D01*
X363419Y345000D02*
X379550D01*
X381619Y342931D01*
Y318381D02*
Y342931D01*
X339800Y264800D02*
Y313700D01*
X335200Y260200D02*
X339800Y264800D01*
X339529Y152000D02*
Y162985D01*
X365506Y152500D02*
Y162985D01*
X378369Y152500D02*
Y162985D01*
X352450Y152500D02*
Y162985D01*
X327500Y152000D02*
Y162985D01*
X315000Y152000D02*
Y162985D01*
X207500Y172500D02*
Y215000D01*
X195000Y160000D02*
X207500Y172500D01*
X535000Y150000D02*
X540000Y155000D01*
X535000Y137000D02*
Y150000D01*
X540000Y155000D02*
X555500D01*
X360000Y309500D02*
X375000D01*
X335919Y62000D02*
X348419D01*
X323419D02*
X335919D01*
X235000Y-7000D02*
Y13000D01*
X157500Y83500D02*
Y102500D01*
X152500Y107500D02*
X157500Y102500D01*
X112500Y107500D02*
X152500D01*
X107500Y112500D02*
X112500Y107500D01*
X107500Y112500D02*
Y120500D01*
X177500Y83500D02*
Y115000D01*
X172000Y120500D02*
X177500Y115000D01*
X120000Y120500D02*
X172000D01*
X280000Y317500D02*
X295200Y302300D01*
X259800Y317500D02*
X280000D01*
X235400Y341900D02*
X259800Y317500D01*
X275000Y312500D02*
X282500Y305000D01*
X239400Y312500D02*
X275000D01*
X210000Y341900D02*
X239400Y312500D01*
X177500Y160000D02*
X195000D01*
X177500D02*
Y176500D01*
X184600Y341900D02*
X219000Y307500D01*
X265000D01*
X269800Y302700D01*
X322750Y272900D02*
Y305350D01*
X286200Y341900D02*
X322750Y305350D01*
X213350Y287750D02*
X257100D01*
X282500D02*
Y305000D01*
X295200Y287750D02*
Y302300D01*
X307900Y287750D02*
Y299600D01*
X265600Y341900D02*
X307900Y299600D01*
X260800Y341900D02*
X265600D01*
X322750Y260200D02*
X335200D01*
X269800Y287750D02*
Y302700D01*
X322750Y222100D02*
X344600D01*
X322750Y247500D02*
X346500D01*
X368919Y62500D02*
Y78000D01*
X368419Y62000D02*
X393419D01*
X323919Y62500D02*
Y78000D01*
X278919Y62000D02*
Y78000D01*
X333419Y102000D02*
Y117000D01*
X378419Y102000D02*
Y117000D01*
X377919Y117500D02*
X378419Y118000D01*
X157500Y67500D02*
Y83500D01*
Y67500D02*
X172500Y52500D01*
X212500D01*
X214500Y50500D01*
Y37500D02*
Y50500D01*
X177500Y60000D02*
Y83500D01*
X220500Y57000D02*
X235000Y42500D01*
Y13000D02*
Y42500D01*
X303419Y62000D02*
X311600D01*
X278919D02*
X290919D01*
X303419D01*
X386114Y31886D02*
X405000Y13000D01*
X370614Y27386D02*
X385000Y13000D01*
X320114Y27386D02*
X370614D01*
X315000Y32500D02*
X320114Y27386D01*
X365727Y31886D02*
X386114D01*
X358419Y39194D02*
X365727Y31886D01*
X348419Y62000D02*
X358419D01*
X425000Y13000D02*
Y30419D01*
X393419Y62000D02*
X425000Y30419D01*
X358419Y62000D02*
X358419Y62000D01*
Y39194D02*
Y62000D01*
X575500Y175886D02*
Y190886D01*
X575500Y190886D02*
X575500Y190886D01*
X311600Y62000D02*
X315000Y58600D01*
Y32500D02*
Y58600D01*
X187500Y176500D02*
Y220000D01*
X147500Y176500D02*
Y225000D01*
X333919Y117500D02*
Y127886D01*
X377919Y117500D02*
Y127886D01*
X157500Y176500D02*
Y201500D01*
X177500D01*
Y176500D02*
Y201500D01*
X195500Y13500D02*
Y37500D01*
X195000Y13000D02*
X195500Y13500D01*
X214500Y13500D02*
Y37500D01*
Y13500D02*
X215000Y13000D01*
X363419Y320919D02*
Y332300D01*
Y357700D02*
X379550D01*
X287919Y102500D02*
Y117500D01*
X572000Y92500D02*
Y134500D01*
X590000D01*
X539500Y110500D02*
X562500D01*
X535000Y115000D02*
X539500Y110500D01*
X535000Y115000D02*
Y123000D01*
X177500Y60000D02*
X180500Y57000D01*
X220500D01*
X89700Y295300D02*
X97500D01*
X311600Y341900D02*
X339800Y313700D01*
X147500Y225000D02*
X157300Y234800D01*
X207500D01*
X187500Y220000D02*
X192500Y225000D01*
X207500D01*
X97500Y295300D02*
X112800D01*
X117500Y300000D01*
Y322500D01*
X80000Y305000D02*
X89700Y295300D01*
X80000Y305000D02*
Y365000D01*
X108400Y347900D02*
X110000Y346300D01*
X97500Y309300D02*
X108400Y320200D01*
Y347900D01*
X80000Y365000D02*
X107500Y392500D01*
X346500Y247500D02*
Y292000D01*
X159200Y341900D02*
X213350Y287750D01*
X121300Y328700D02*
Y378478D01*
Y328700D02*
X125250Y324750D01*
X121300Y378478D02*
X130822Y388000D01*
X152000Y295500D02*
X160000D01*
X146700Y300800D02*
Y354200D01*
X107500Y392500D02*
X420000D01*
X130822Y388000D02*
X418136D01*
X153300Y360800D02*
X316778D01*
X339478Y383500D01*
X416272D01*
X418136Y388000D02*
X435500Y370636D01*
X146700Y300800D02*
X152000Y295500D01*
X146700Y354200D02*
X153300Y360800D01*
X416272Y383500D02*
X431000Y368772D01*
X435500Y294500D02*
X445000Y285000D01*
X420000Y392500D02*
X442499Y370001D01*
X391923Y320000D02*
X417500D01*
X422500Y315000D01*
Y309500D02*
Y315000D01*
X381619Y318381D02*
X390000Y310000D01*
X360000Y317500D02*
X363419Y320919D01*
X360000Y309500D02*
Y317500D01*
X445000Y285000D02*
X450000D01*
X431000D02*
X431000Y285000D01*
X132500Y307000D02*
Y346600D01*
X133800Y347900D01*
X125250Y295000D02*
Y324750D01*
Y295000D02*
X130500D01*
X160000Y309500D02*
Y315000D01*
X167500Y322500D01*
X132500Y282000D02*
Y295500D01*
X130500Y295000D02*
X131250Y294250D01*
X160000Y282000D02*
Y295500D01*
X97500Y282000D02*
Y295300D01*
X92500Y252500D02*
X118000D01*
X132000Y232000D02*
Y252500D01*
X127500Y227500D02*
X132000Y232000D01*
X390000Y309500D02*
X405000D01*
X287919Y117500D02*
X297919Y127500D01*
X324341D01*
D33*
X420000Y345000D02*
Y352500D01*
X287500Y162500D02*
X293000Y157000D01*
X250000Y162500D02*
X287500D01*
X285000Y127500D02*
Y153500D01*
X375000Y285000D02*
Y295500D01*
X250000Y162500D02*
Y170000D01*
X293000Y138000D02*
Y157000D01*
Y138000D02*
X302500D01*
X462500Y172500D02*
Y177500D01*
X452500Y187500D02*
X462500Y177500D01*
X270000Y97500D02*
X277500Y90000D01*
X342500D01*
X110000Y147500D02*
X205000D01*
X107500Y145000D02*
X110000Y147500D01*
X107500Y134500D02*
Y145000D01*
X138500Y83500D02*
X147500D01*
X67500Y115000D02*
X67500Y115000D01*
X48250Y115000D02*
X67500D01*
X118500Y49500D02*
X155000Y13000D01*
X88500Y49500D02*
X118500D01*
X87500Y50500D02*
Y84500D01*
X87000Y85000D02*
X87500Y84500D01*
X115000Y195000D02*
Y205000D01*
X102500Y182500D02*
X115000Y195000D01*
X86750Y182500D02*
X102500D01*
X231000Y76500D02*
X247500D01*
X224000Y83500D02*
X231000Y76500D01*
X219000Y83500D02*
X224000D01*
X160000Y225000D02*
X175000D01*
X157500Y222500D02*
X160000Y225000D01*
X157500Y215500D02*
Y222500D01*
X365506Y138000D02*
X378369D01*
X352167D02*
X365506D01*
X339529D02*
X352167D01*
X315000D02*
X339529D01*
X302500D02*
X315000D01*
X441500Y56000D02*
X447500Y50000D01*
X441500Y56000D02*
Y62000D01*
X415000Y82500D02*
X441708D01*
X441500Y62000D02*
Y82292D01*
X413500Y81000D02*
X415000Y82500D01*
X413500Y69500D02*
Y81000D01*
X517000Y112500D02*
Y124500D01*
X507500Y12500D02*
X520500D01*
X322750Y234800D02*
X347300D01*
X322750D02*
X322950Y235000D01*
X477114Y362500D02*
Y382114D01*
X402419Y332300D02*
X402619Y332500D01*
X420000D01*
Y345000D01*
X402419D02*
X420000D01*
X402500Y132500D02*
X407550Y137550D01*
X402500Y125000D02*
Y132500D01*
X55750Y190000D02*
X67500D01*
X410000Y154900D02*
X417450Y147450D01*
Y147550D01*
X71000Y66000D02*
X73000Y68000D01*
X71000Y49500D02*
Y66000D01*
X589500Y173772D02*
X600000D01*
X380919Y38386D02*
Y48000D01*
X335919Y47500D02*
X346305D01*
X380919Y48000D02*
X393419D01*
X335919Y37886D02*
Y47500D01*
X323419Y38386D02*
Y48000D01*
X368419Y38386D02*
Y48000D01*
X278419Y38386D02*
Y48000D01*
X290919Y48000D02*
X303419D01*
X347919Y117500D02*
X363919D01*
X290919Y38386D02*
Y48000D01*
X502000Y127500D02*
X503000Y126500D01*
Y112500D02*
Y126500D01*
Y102100D02*
Y112500D01*
X492000Y91100D02*
X503000Y102100D01*
X187500Y83500D02*
X205000D01*
X217000Y260200D02*
X242250D01*
X589500Y190886D02*
Y207500D01*
X475556Y103231D02*
X488000Y115675D01*
Y127500D01*
X475556Y76440D02*
Y103231D01*
X516000Y55000D02*
X534000Y37000D01*
X475556Y76440D02*
X496996Y55000D01*
X516000D01*
X534000Y15000D02*
Y37000D01*
X203000Y260200D02*
X203500Y259700D01*
X402419Y357700D02*
Y372419D01*
X477114Y312500D02*
Y334614D01*
X405000Y285000D02*
Y295500D01*
X347919Y95419D02*
Y117500D01*
X342500Y90000D02*
X347919Y95419D01*
X297919Y78000D02*
X307000D01*
X333838D02*
X342919D01*
X387919D02*
Y87081D01*
X302000Y90500D02*
Y117500D01*
X464292Y78208D02*
Y88000D01*
X589500Y207500D02*
X600000D01*
X600000Y207500D01*
X569500Y155000D02*
X582500D01*
X553000Y134500D02*
Y138000D01*
X560000Y145000D01*
X590500Y120000D02*
X600000D01*
X590000Y120500D02*
X590500Y120000D01*
X560000Y145000D02*
X600000D01*
Y120000D02*
Y145000D01*
Y173772D01*
X71000Y35500D02*
X88500D01*
X55001Y147499D02*
X72999D01*
X48250Y154250D02*
X55001Y147499D01*
X48250Y154250D02*
Y182500D01*
X52500Y85000D02*
X73000D01*
X48250Y89250D02*
X52500Y85000D01*
X48250Y89250D02*
Y115000D01*
X73000Y68000D02*
Y85000D01*
X205000Y83500D02*
Y97500D01*
X203500Y247500D02*
X242250D01*
X203500D02*
Y259700D01*
X120000Y134500D02*
X120500Y135000D01*
X167500D01*
Y160000D02*
Y176500D01*
X97500Y268000D02*
X132500D01*
X145000D02*
Y285000D01*
X132500Y268000D02*
X145000D01*
X160000D01*
D34*
X175000Y13000D02*
Y32500D01*
X152500Y55000D02*
X175000Y32500D01*
X140000Y55000D02*
X152500D01*
D35*
X135000Y195500D02*
Y222500D01*
X86999Y147499D02*
X135000Y195500D01*
X87000Y85000D02*
Y114750D01*
X86750Y115000D02*
X87000Y114750D01*
X86750Y115000D02*
Y147250D01*
X185000Y272500D02*
X212500D01*
X217000Y268000D01*
Y260200D02*
Y268000D01*
X135000Y222500D02*
X185000Y272500D01*
D36*
X242250Y272900D02*
X259600D01*
X265708Y266792D01*
Y251908D02*
Y266792D01*
X261300Y247500D02*
X265708Y251908D01*
X242250Y247500D02*
X261300D01*
D37*
X35000Y255000D02*
D03*
D38*
X184600Y347900D02*
D03*
X159200D02*
D03*
X133800D02*
D03*
X159200Y373300D02*
D03*
X184600D02*
D03*
X133800D02*
D03*
X210000D02*
D03*
X260800D02*
D03*
X235400D02*
D03*
X210000Y347900D02*
D03*
X235400D02*
D03*
X311600Y373300D02*
D03*
X286200Y347900D02*
D03*
Y373300D02*
D03*
X260800Y347900D02*
D03*
X108400Y373300D02*
D03*
Y347900D02*
D03*
D39*
X311600D02*
D03*
D40*
X460000Y3000D02*
D03*
X350000D02*
D03*
X120000Y3000D02*
D03*
X270000D02*
D03*
D41*
X425000Y-7000D02*
D03*
Y13000D02*
D03*
X405000Y-7000D02*
D03*
Y13000D02*
D03*
X385000Y-7000D02*
D03*
X100000Y67500D02*
D03*
Y235000D02*
D03*
X235000Y-7000D02*
D03*
X155000D02*
D03*
X175000Y13000D02*
D03*
Y-7000D02*
D03*
X195000Y13000D02*
D03*
Y-7000D02*
D03*
X215000Y13000D02*
D03*
Y-7000D02*
D03*
X235000Y13000D02*
D03*
D42*
X385000Y13000D02*
D03*
X155000Y13000D02*
D03*
D43*
X242500Y135000D02*
D03*
X420000Y352500D02*
D03*
X315000Y175000D02*
D03*
X285000Y153500D02*
D03*
X339529Y162985D02*
D03*
X365506D02*
D03*
X378369D02*
D03*
X352450D02*
D03*
X327500Y162985D02*
D03*
X315000Y162985D02*
D03*
X207500Y215000D02*
D03*
X219000Y187000D02*
D03*
Y194000D02*
D03*
Y180000D02*
D03*
X352450Y196000D02*
D03*
X347000Y292000D02*
D03*
X375000Y285000D02*
D03*
X250000Y170000D02*
D03*
X140000Y55000D02*
D03*
X285000Y127500D02*
D03*
X138500Y83500D02*
D03*
X67500Y115000D02*
D03*
X115000Y205000D02*
D03*
X260000Y30000D02*
D03*
X252500D02*
D03*
X245000D02*
D03*
X260000Y37500D02*
D03*
X252500D02*
D03*
X245000D02*
D03*
X260000Y45000D02*
D03*
X245000D02*
D03*
X265000Y325000D02*
D03*
X192500Y320000D02*
D03*
X384500Y223000D02*
D03*
X447500Y50000D02*
D03*
X517000Y124500D02*
D03*
X507500Y12500D02*
D03*
X347300Y234800D02*
D03*
X477114Y382114D02*
D03*
X402500Y125000D02*
D03*
X67500Y190000D02*
D03*
X410000Y155000D02*
D03*
X427500Y142114D02*
D03*
X420000Y135000D02*
D03*
X397500Y115000D02*
D03*
X240000Y322500D02*
D03*
X472114Y282500D02*
D03*
X344600Y222100D02*
D03*
X522500Y190000D02*
D03*
X600000Y173772D02*
D03*
X380919Y38386D02*
D03*
X335919Y37886D02*
D03*
X323419Y38386D02*
D03*
X368419Y38386D02*
D03*
X278419Y38386D02*
D03*
X290919Y38386D02*
D03*
X410000Y185000D02*
D03*
X489000Y235500D02*
D03*
X327450Y184000D02*
D03*
X472500Y206000D02*
D03*
X482500Y190000D02*
D03*
X462500Y202500D02*
D03*
X333919Y127886D02*
D03*
X377919D02*
D03*
X366000Y202000D02*
D03*
X378419Y208500D02*
D03*
X452500Y187500D02*
D03*
X462500Y172500D02*
D03*
X486000Y249000D02*
D03*
X480000Y277500D02*
D03*
X530000Y235000D02*
D03*
X465000Y242500D02*
D03*
X462500Y135000D02*
D03*
X339529Y190000D02*
D03*
X205000Y147500D02*
D03*
X217500D02*
D03*
X230000D02*
D03*
X242500D02*
D03*
X255000D02*
D03*
X267500D02*
D03*
X205000Y135000D02*
D03*
X217500D02*
D03*
X230000D02*
D03*
X255000D02*
D03*
X267500D02*
D03*
X230000Y110000D02*
D03*
X217500D02*
D03*
X205000D02*
D03*
X267500Y122500D02*
D03*
X255000D02*
D03*
X242500D02*
D03*
X230000D02*
D03*
X217500D02*
D03*
X205000D02*
D03*
Y97500D02*
D03*
X217500D02*
D03*
X520000Y235500D02*
D03*
X402419Y372419D02*
D03*
X477114Y334614D02*
D03*
X405000Y285000D02*
D03*
X307000Y78000D02*
D03*
X333838D02*
D03*
X387919Y87081D02*
D03*
X464292Y78208D02*
D03*
X600000Y207500D02*
D03*
X582500Y155000D02*
D03*
X73000Y68000D02*
D03*
X230000Y97500D02*
D03*
X203500Y247500D02*
D03*
X499000Y235500D02*
D03*
X444444D02*
D03*
X167500Y135000D02*
D03*
Y160000D02*
D03*
X207500Y225000D02*
D03*
X207500Y234800D02*
D03*
X175000Y225000D02*
D03*
X145000Y285000D02*
D03*
X117500Y322500D02*
D03*
X92500D02*
D03*
X164500Y105500D02*
D03*
X103000Y105500D02*
D03*
X510000Y235500D02*
D03*
X447500Y140000D02*
D03*
X452500Y175000D02*
D03*
X442499Y299999D02*
D03*
X450000Y285000D02*
D03*
X431000Y285000D02*
D03*
X417500Y222500D02*
D03*
X425000Y235000D02*
D03*
X422500Y252500D02*
D03*
X435000Y235000D02*
D03*
X252500Y45000D02*
D03*
X167500Y322500D02*
D03*
X219000Y201000D02*
D03*
X92500Y252500D02*
D03*
X127500Y227500D02*
D03*
X324341Y127500D02*
D03*
X357500Y107500D02*
D03*
M02*
