G04 Layer_Physical_Order=1*
G04 Layer_Color=255*
%FSLAX44Y44*%
%MOMM*%
G71*
G01*
G75*
%ADD10R,0.8500X0.8500*%
%ADD11R,0.8500X0.8500*%
%ADD12P,1.2021X4X180.0*%
%ADD13R,0.6000X1.0000*%
%ADD14O,2.2000X0.6500*%
%ADD15O,2.8000X0.6500*%
%ADD16O,0.6500X2.2000*%
%ADD17R,2.2000X2.2000*%
G04:AMPARAMS|DCode=18|XSize=1mm|YSize=2.5mm|CornerRadius=0mm|HoleSize=0mm|Usage=FLASHONLY|Rotation=0.000|XOffset=0mm|YOffset=0mm|HoleType=Round|Shape=Octagon|*
%AMOCTAGOND18*
4,1,8,-0.2500,1.2500,0.2500,1.2500,0.5000,1.0000,0.5000,-1.0000,0.2500,-1.2500,-0.2500,-1.2500,-0.5000,-1.0000,-0.5000,1.0000,-0.2500,1.2500,0.0*
%
%ADD18OCTAGOND18*%

%ADD19R,1.0000X2.5000*%
%ADD20R,1.3000X1.5000*%
%ADD21R,0.7000X2.0000*%
%ADD22R,1.2500X1.0000*%
%ADD23R,1.6000X1.2000*%
%ADD24R,1.1000X2.6000*%
%ADD25R,2.4000X1.4000*%
%ADD26C,1.0000*%
%ADD27C,0.3000*%
G04:AMPARAMS|DCode=28|XSize=0.3mm|YSize=1.2mm|CornerRadius=0mm|HoleSize=0mm|Usage=FLASHONLY|Rotation=135.000|XOffset=0mm|YOffset=0mm|HoleType=Round|Shape=Round|*
%AMOVALD28*
21,1,0.9000,0.3000,0.0000,0.0000,225.0*
1,1,0.3000,0.3182,0.3182*
1,1,0.3000,-0.3182,-0.3182*
%
%ADD28OVALD28*%

G04:AMPARAMS|DCode=29|XSize=0.3mm|YSize=1.2mm|CornerRadius=0mm|HoleSize=0mm|Usage=FLASHONLY|Rotation=45.000|XOffset=0mm|YOffset=0mm|HoleType=Round|Shape=Round|*
%AMOVALD29*
21,1,0.9000,0.3000,0.0000,0.0000,135.0*
1,1,0.3000,0.3182,-0.3182*
1,1,0.3000,-0.3182,0.3182*
%
%ADD29OVALD29*%

%ADD30O,1.2000X0.3000*%
%ADD31O,0.3000X1.2000*%
%ADD32R,2.4000X0.8000*%
G04:AMPARAMS|DCode=33|XSize=2.4mm|YSize=0.8mm|CornerRadius=0mm|HoleSize=0mm|Usage=FLASHONLY|Rotation=0.000|XOffset=0mm|YOffset=0mm|HoleType=Round|Shape=Octagon|*
%AMOCTAGOND33*
4,1,8,1.2000,-0.2000,1.2000,0.2000,1.0000,0.4000,-1.0000,0.4000,-1.2000,0.2000,-1.2000,-0.2000,-1.0000,-0.4000,1.0000,-0.4000,1.2000,-0.2000,0.0*
%
%ADD33OCTAGOND33*%

%ADD34C,0.3000*%
%ADD35C,0.5000*%
%ADD36C,0.2000*%
%ADD37C,0.4000*%
%ADD38C,2.2000*%
%ADD39O,1.2000X1.6500*%
%ADD40R,1.4000X1.4000*%
%ADD41C,1.4000*%
%ADD42C,1.8000*%
%ADD43R,1.8000X1.8000*%
%ADD44C,0.7000*%
%ADD45C,0.8000*%
%ADD46C,0.7500*%
G36*
X25949Y207467D02*
X26217Y207442D01*
X26535Y207369D01*
X26901Y207247D01*
X27291Y207076D01*
X27682Y206832D01*
X28048Y206515D01*
X28097Y206466D01*
X28194Y206344D01*
X28341Y206124D01*
X28512Y205856D01*
X28707Y205514D01*
X28853Y205124D01*
X28951Y204684D01*
X29000Y204196D01*
Y201560D01*
Y201535D01*
Y201462D01*
X28976Y201340D01*
X28927Y201243D01*
X28829Y201120D01*
X28732Y200998D01*
X28561Y200925D01*
X28341Y200901D01*
X28243D01*
X28121Y200925D01*
X27999Y200974D01*
X27902Y201072D01*
X27780Y201169D01*
X27706Y201340D01*
X27682Y201560D01*
Y204196D01*
Y204245D01*
Y204342D01*
X27657Y204489D01*
X27609Y204684D01*
X27535Y204904D01*
X27438Y205124D01*
X27316Y205368D01*
X27120Y205587D01*
X27096Y205612D01*
X27023Y205685D01*
X26901Y205783D01*
X26730Y205880D01*
X26535Y205978D01*
X26291Y206075D01*
X26022Y206149D01*
X25729Y206173D01*
X24265D01*
X24118Y206149D01*
X23923Y206100D01*
X23728Y206027D01*
X23484Y205929D01*
X23239Y205783D01*
X23020Y205587D01*
X22995Y205563D01*
X22922Y205490D01*
X22824Y205368D01*
X22727Y205197D01*
X22629Y205002D01*
X22531Y204757D01*
X22458Y204489D01*
X22434Y204196D01*
Y202878D01*
Y202854D01*
Y202780D01*
X22410Y202658D01*
X22361Y202561D01*
X22263Y202439D01*
X22165Y202316D01*
X21995Y202243D01*
X21775Y202219D01*
X21677D01*
X21555Y202243D01*
X21433Y202292D01*
X21335Y202390D01*
X21213Y202487D01*
X21140Y202658D01*
X21116Y202878D01*
Y204196D01*
Y204245D01*
Y204342D01*
X21091Y204489D01*
X21042Y204684D01*
X20969Y204904D01*
X20872Y205124D01*
X20750Y205368D01*
X20554Y205587D01*
X20530Y205612D01*
X20457Y205685D01*
X20335Y205783D01*
X20164Y205880D01*
X19944Y205978D01*
X19700Y206075D01*
X19432Y206149D01*
X19139Y206173D01*
X18992D01*
X18846Y206149D01*
X18650Y206100D01*
X18455Y206027D01*
X18211Y205929D01*
X17967Y205783D01*
X17747Y205587D01*
X17723Y205563D01*
X17650Y205490D01*
X17552Y205368D01*
X17454Y205197D01*
X17357Y205002D01*
X17259Y204757D01*
X17186Y204489D01*
X17161Y204196D01*
Y201560D01*
Y201535D01*
Y201462D01*
X17137Y201340D01*
X17088Y201243D01*
X16991Y201120D01*
X16893Y200998D01*
X16722Y200925D01*
X16502Y200901D01*
X16405D01*
X16283Y200925D01*
X16161Y200974D01*
X16063Y201072D01*
X15941Y201169D01*
X15868Y201340D01*
X15843Y201560D01*
Y204196D01*
Y204220D01*
Y204269D01*
Y204318D01*
X15868Y204416D01*
X15892Y204684D01*
X15965Y205002D01*
X16087Y205368D01*
X16258Y205758D01*
X16502Y206149D01*
X16820Y206515D01*
X16868Y206564D01*
X16991Y206661D01*
X17210Y206832D01*
X17479Y207003D01*
X17821Y207174D01*
X18211Y207345D01*
X18650Y207442D01*
X19139Y207491D01*
X19310D01*
X19407Y207467D01*
X19554Y207442D01*
X19724Y207418D01*
X20091Y207320D01*
X20505Y207174D01*
X20945Y206930D01*
X21165Y206783D01*
X21384Y206612D01*
X21579Y206417D01*
X21775Y206173D01*
Y206198D01*
X21824Y206222D01*
X21946Y206368D01*
X22165Y206588D01*
X22483Y206832D01*
X22849Y207076D01*
X23313Y207296D01*
X23825Y207442D01*
X24118Y207467D01*
X24411Y207491D01*
X25851D01*
X25949Y207467D01*
D02*
G37*
G36*
X275000Y143000D02*
X197500D01*
Y205000D01*
X275000D01*
Y143000D01*
D02*
G37*
G36*
X28561Y189062D02*
X28658Y189013D01*
X28780Y188916D01*
X28902Y188818D01*
X28976Y188647D01*
X29000Y188428D01*
Y183155D01*
Y183131D01*
Y183057D01*
X28976Y182935D01*
X28927Y182838D01*
X28853Y182716D01*
X28732Y182594D01*
X28585Y182521D01*
X28365Y182496D01*
X28317D01*
X28243Y182521D01*
X28097Y182545D01*
X27975Y182618D01*
X20237Y187427D01*
X20213Y187451D01*
X20139Y187476D01*
X20042Y187524D01*
X19895Y187598D01*
X19724Y187671D01*
X19554Y187720D01*
X19358Y187744D01*
X19139Y187768D01*
X18992D01*
X18846Y187744D01*
X18650Y187695D01*
X18455Y187622D01*
X18211Y187524D01*
X17967Y187378D01*
X17747Y187183D01*
X17723Y187158D01*
X17650Y187085D01*
X17552Y186963D01*
X17454Y186792D01*
X17357Y186597D01*
X17259Y186353D01*
X17186Y186084D01*
X17161Y185791D01*
Y185742D01*
X17186Y185596D01*
X17259Y185376D01*
X17357Y185108D01*
X17576Y184790D01*
X17698Y184620D01*
X17869Y184449D01*
X18040Y184278D01*
X18284Y184107D01*
X18528Y183912D01*
X18821Y183741D01*
X18846D01*
X18870Y183717D01*
X18968Y183594D01*
X19090Y183424D01*
X19114Y183302D01*
X19139Y183155D01*
Y183131D01*
Y183057D01*
X19114Y182935D01*
X19065Y182838D01*
X18968Y182716D01*
X18870Y182594D01*
X18699Y182521D01*
X18479Y182496D01*
X18382D01*
X18309Y182521D01*
X18211Y182569D01*
X18187Y182594D01*
X18113Y182618D01*
X17991Y182691D01*
X17845Y182789D01*
X17650Y182911D01*
X17454Y183057D01*
X17259Y183228D01*
X17015Y183424D01*
X16600Y183887D01*
X16380Y184156D01*
X16209Y184449D01*
X16063Y184742D01*
X15941Y185083D01*
X15868Y185425D01*
X15843Y185791D01*
Y185816D01*
Y185865D01*
Y185913D01*
X15868Y186011D01*
X15892Y186280D01*
X15965Y186597D01*
X16087Y186963D01*
X16258Y187353D01*
X16502Y187744D01*
X16820Y188110D01*
X16868Y188159D01*
X16991Y188257D01*
X17186Y188428D01*
X17454Y188598D01*
X17796Y188769D01*
X18187Y188940D01*
X18650Y189038D01*
X19139Y189087D01*
X19310D01*
X19480Y189062D01*
X19724Y189013D01*
X20017Y188940D01*
X20335Y188818D01*
X20676Y188672D01*
X21042Y188476D01*
X27682Y184351D01*
Y188428D01*
Y188452D01*
Y188525D01*
X27706Y188647D01*
X27755Y188769D01*
X27853Y188867D01*
X27950Y188989D01*
X28121Y189062D01*
X28341Y189087D01*
X28439D01*
X28561Y189062D01*
D02*
G37*
G36*
X25949Y198265D02*
X26217Y198240D01*
X26535Y198167D01*
X26901Y198045D01*
X27291Y197874D01*
X27682Y197630D01*
X28048Y197313D01*
X28097Y197264D01*
X28194Y197142D01*
X28341Y196922D01*
X28512Y196653D01*
X28707Y196312D01*
X28853Y195921D01*
X28951Y195482D01*
X29000Y194994D01*
Y192358D01*
Y192333D01*
Y192260D01*
X28976Y192162D01*
X28927Y192040D01*
X28829Y191918D01*
X28732Y191820D01*
X28561Y191747D01*
X28341Y191723D01*
X28243D01*
X28121Y191747D01*
X27999Y191796D01*
X27902Y191869D01*
X27780Y191991D01*
X27706Y192138D01*
X27682Y192358D01*
Y194994D01*
Y195042D01*
Y195140D01*
X27657Y195287D01*
X27609Y195482D01*
X27535Y195702D01*
X27438Y195921D01*
X27316Y196165D01*
X27120Y196385D01*
X27096Y196409D01*
X27023Y196483D01*
X26901Y196580D01*
X26730Y196678D01*
X26535Y196776D01*
X26291Y196873D01*
X26022Y196946D01*
X25729Y196971D01*
X24265D01*
X24118Y196946D01*
X23923Y196898D01*
X23728Y196824D01*
X23484Y196727D01*
X23239Y196580D01*
X23020Y196385D01*
X22995Y196361D01*
X22922Y196287D01*
X22824Y196165D01*
X22727Y195994D01*
X22629Y195799D01*
X22531Y195555D01*
X22458Y195287D01*
X22434Y194994D01*
Y192358D01*
Y192333D01*
Y192260D01*
X22410Y192162D01*
X22361Y192040D01*
X22263Y191918D01*
X22165Y191820D01*
X21995Y191747D01*
X21775Y191723D01*
X16405D01*
X16283Y191747D01*
X16161Y191796D01*
X16063Y191869D01*
X15941Y191991D01*
X15868Y192138D01*
X15843Y192358D01*
Y196971D01*
Y196995D01*
Y197069D01*
X15868Y197166D01*
X15917Y197288D01*
X16014Y197410D01*
X16112Y197508D01*
X16283Y197581D01*
X16502Y197605D01*
X16600D01*
X16722Y197581D01*
X16820Y197532D01*
X16942Y197459D01*
X17064Y197337D01*
X17137Y197190D01*
X17161Y196971D01*
Y193041D01*
X21116D01*
Y194994D01*
Y195018D01*
Y195067D01*
Y195116D01*
X21140Y195213D01*
X21165Y195482D01*
X21238Y195799D01*
X21360Y196165D01*
X21531Y196556D01*
X21775Y196946D01*
X22092Y197313D01*
X22141Y197361D01*
X22263Y197459D01*
X22483Y197630D01*
X22751Y197801D01*
X23093Y197972D01*
X23484Y198143D01*
X23923Y198240D01*
X24411Y198289D01*
X25851D01*
X25949Y198265D01*
D02*
G37*
G36*
X28561Y227190D02*
X28658Y227141D01*
X28780Y227043D01*
X28902Y226946D01*
X28976Y226775D01*
X29000Y226555D01*
Y221283D01*
Y221258D01*
Y221185D01*
X28976Y221063D01*
X28927Y220965D01*
X28853Y220843D01*
X28732Y220721D01*
X28585Y220648D01*
X28365Y220623D01*
X28317D01*
X28243Y220648D01*
X28097Y220672D01*
X27975Y220746D01*
X20237Y225554D01*
X20213Y225579D01*
X20139Y225603D01*
X20042Y225652D01*
X19895Y225725D01*
X19724Y225798D01*
X19554Y225847D01*
X19358Y225872D01*
X19139Y225896D01*
X18992D01*
X18846Y225872D01*
X18650Y225823D01*
X18455Y225749D01*
X18211Y225652D01*
X17967Y225505D01*
X17747Y225310D01*
X17723Y225286D01*
X17650Y225212D01*
X17552Y225091D01*
X17454Y224920D01*
X17357Y224724D01*
X17259Y224480D01*
X17186Y224212D01*
X17161Y223919D01*
Y223870D01*
X17186Y223724D01*
X17259Y223504D01*
X17357Y223235D01*
X17576Y222918D01*
X17698Y222747D01*
X17869Y222576D01*
X18040Y222405D01*
X18284Y222235D01*
X18528Y222039D01*
X18821Y221868D01*
X18846D01*
X18870Y221844D01*
X18968Y221722D01*
X19090Y221551D01*
X19114Y221429D01*
X19139Y221283D01*
Y221258D01*
Y221185D01*
X19114Y221063D01*
X19065Y220965D01*
X18968Y220843D01*
X18870Y220721D01*
X18699Y220648D01*
X18479Y220623D01*
X18382D01*
X18309Y220648D01*
X18211Y220697D01*
X18187Y220721D01*
X18113Y220746D01*
X17991Y220819D01*
X17845Y220916D01*
X17650Y221038D01*
X17454Y221185D01*
X17259Y221356D01*
X17015Y221551D01*
X16600Y222015D01*
X16380Y222283D01*
X16209Y222576D01*
X16063Y222869D01*
X15941Y223211D01*
X15868Y223553D01*
X15843Y223919D01*
Y223943D01*
Y223992D01*
Y224041D01*
X15868Y224139D01*
X15892Y224407D01*
X15965Y224724D01*
X16087Y225091D01*
X16258Y225481D01*
X16502Y225872D01*
X16820Y226238D01*
X16868Y226287D01*
X16991Y226384D01*
X17186Y226555D01*
X17454Y226726D01*
X17796Y226897D01*
X18187Y227068D01*
X18650Y227165D01*
X19139Y227214D01*
X19310D01*
X19480Y227190D01*
X19724Y227141D01*
X20017Y227068D01*
X20335Y226946D01*
X20676Y226799D01*
X21042Y226604D01*
X27682Y222479D01*
Y226555D01*
Y226579D01*
Y226653D01*
X27706Y226775D01*
X27755Y226897D01*
X27853Y226994D01*
X27950Y227116D01*
X28121Y227190D01*
X28341Y227214D01*
X28439D01*
X28561Y227190D01*
D02*
G37*
G36*
X25924Y217963D02*
X26022Y217914D01*
X26144Y217817D01*
X26266Y217719D01*
X26339Y217548D01*
X26364Y217328D01*
Y216035D01*
X28439D01*
X28561Y216010D01*
X28658Y215961D01*
X28780Y215864D01*
X28902Y215766D01*
X28976Y215595D01*
X29000Y215375D01*
Y215351D01*
Y215278D01*
X28976Y215156D01*
X28927Y215058D01*
X28829Y214936D01*
X28732Y214814D01*
X28561Y214741D01*
X28341Y214716D01*
X26364D01*
Y210762D01*
Y210738D01*
Y210665D01*
X26339Y210543D01*
X26291Y210445D01*
X26217Y210323D01*
X26095Y210201D01*
X25949Y210128D01*
X25729Y210103D01*
X25656D01*
X25534Y210128D01*
X16331Y212764D01*
X16307D01*
X16258Y212788D01*
X16087Y212886D01*
X15990Y212983D01*
X15917Y213081D01*
X15868Y213228D01*
X15843Y213398D01*
Y213423D01*
Y213496D01*
X15868Y213618D01*
X15917Y213740D01*
X16014Y213838D01*
X16112Y213960D01*
X16283Y214033D01*
X16502Y214057D01*
X16551D01*
X16698Y214009D01*
X25046Y211616D01*
Y214716D01*
X22995D01*
X22873Y214741D01*
X22751Y214790D01*
X22654Y214887D01*
X22531Y214985D01*
X22458Y215156D01*
X22434Y215375D01*
Y215400D01*
Y215473D01*
X22458Y215595D01*
X22507Y215717D01*
X22605Y215815D01*
X22702Y215937D01*
X22873Y216010D01*
X23093Y216035D01*
X25046D01*
Y217328D01*
Y217353D01*
Y217426D01*
X25070Y217548D01*
X25119Y217670D01*
X25217Y217768D01*
X25314Y217890D01*
X25485Y217963D01*
X25705Y217987D01*
X25802D01*
X25924Y217963D01*
D02*
G37*
G36*
X267000Y77000D02*
X243000D01*
X243000Y133000D01*
X267000D01*
X267000Y77000D01*
D02*
G37*
G36*
X28561Y233780D02*
X28683Y233731D01*
X28805Y233634D01*
X28902Y233536D01*
X28976Y233365D01*
X29000Y233146D01*
Y233121D01*
Y233048D01*
X28976Y232926D01*
X28927Y232828D01*
X28853Y232706D01*
X28732Y232584D01*
X28585Y232511D01*
X28365Y232486D01*
X18089D01*
X19602Y230949D01*
X19627Y230924D01*
X19700Y230827D01*
X19773Y230680D01*
X19798Y230509D01*
Y230485D01*
Y230412D01*
X19773Y230290D01*
X19724Y230192D01*
X19627Y230070D01*
X19529Y229948D01*
X19358Y229875D01*
X19139Y229850D01*
X19090D01*
X18968Y229875D01*
X18821Y229923D01*
X18675Y230021D01*
X16112Y232609D01*
X16087D01*
X16063Y232657D01*
X15965Y232779D01*
X15892Y232950D01*
X15843Y233048D01*
Y233146D01*
Y233170D01*
Y233243D01*
X15868Y233365D01*
X15917Y233487D01*
X16014Y233585D01*
X16112Y233707D01*
X16283Y233780D01*
X16502Y233805D01*
X28463D01*
X28561Y233780D01*
D02*
G37*
G36*
X25949Y179860D02*
X26217Y179835D01*
X26535Y179762D01*
X26901Y179640D01*
X27291Y179469D01*
X27682Y179225D01*
X28048Y178908D01*
X28097Y178859D01*
X28194Y178737D01*
X28341Y178542D01*
X28512Y178273D01*
X28707Y177931D01*
X28853Y177541D01*
X28951Y177077D01*
X29000Y176589D01*
Y172635D01*
Y172610D01*
Y172537D01*
X28976Y172415D01*
X28927Y172317D01*
X28829Y172195D01*
X28732Y172073D01*
X28561Y172000D01*
X28341Y171976D01*
X28243D01*
X28121Y172000D01*
X27999Y172049D01*
X27902Y172146D01*
X27780Y172244D01*
X27706Y172415D01*
X27682Y172635D01*
Y176589D01*
Y176638D01*
Y176735D01*
X27657Y176882D01*
X27609Y177077D01*
X27535Y177297D01*
X27438Y177516D01*
X27316Y177761D01*
X27120Y177980D01*
X27096Y178005D01*
X27023Y178078D01*
X26901Y178176D01*
X26730Y178273D01*
X26535Y178371D01*
X26291Y178468D01*
X26022Y178542D01*
X25729Y178566D01*
X22434D01*
Y175271D01*
Y175247D01*
Y175173D01*
X22410Y175051D01*
X22361Y174953D01*
X22263Y174832D01*
X22165Y174709D01*
X21995Y174636D01*
X21775Y174612D01*
X21677D01*
X21555Y174636D01*
X21433Y174685D01*
X21335Y174783D01*
X21213Y174880D01*
X21140Y175051D01*
X21116Y175271D01*
Y178566D01*
X18992D01*
X18846Y178542D01*
X18650Y178493D01*
X18455Y178420D01*
X18211Y178322D01*
X17967Y178176D01*
X17747Y177980D01*
X17723Y177956D01*
X17650Y177883D01*
X17552Y177761D01*
X17454Y177590D01*
X17357Y177395D01*
X17259Y177150D01*
X17186Y176882D01*
X17161Y176589D01*
Y172635D01*
Y172610D01*
Y172537D01*
X17137Y172415D01*
X17088Y172317D01*
X16991Y172195D01*
X16893Y172073D01*
X16722Y172000D01*
X16502Y171976D01*
X16405D01*
X16283Y172000D01*
X16161Y172049D01*
X16063Y172146D01*
X15941Y172244D01*
X15868Y172415D01*
X15843Y172635D01*
Y176589D01*
Y176613D01*
Y176662D01*
Y176711D01*
X15868Y176809D01*
X15892Y177077D01*
X15965Y177395D01*
X16063Y177761D01*
X16234Y178151D01*
X16478Y178542D01*
X16795Y178908D01*
X16844Y178957D01*
X16966Y179054D01*
X17161Y179225D01*
X17454Y179396D01*
X17796Y179567D01*
X18187Y179738D01*
X18626Y179835D01*
X19139Y179884D01*
X25851D01*
X25949Y179860D01*
D02*
G37*
G36*
X504364Y265001D02*
X504364Y262001D01*
X493864Y262001D01*
X493864Y263759D01*
X494619Y264501D01*
X497613Y264502D01*
X498112Y265002D01*
X504364Y265001D01*
D02*
G37*
G36*
X436114Y265000D02*
X436613Y264501D01*
X439609Y264499D01*
X440364Y263759D01*
X440364Y262000D01*
X429864Y262000D01*
X429864Y265000D01*
X436114Y265000D01*
D02*
G37*
G36*
X443613Y275750D02*
X443613Y265250D01*
X441855Y265250D01*
X441114Y266005D01*
X441112Y268999D01*
X440612Y269499D01*
X440613Y275750D01*
X443613Y275750D01*
D02*
G37*
G36*
X493614Y269500D02*
X493114Y269001D01*
X493113Y266005D01*
X492373Y265250D01*
X490614Y265250D01*
X490614Y275750D01*
X493614Y275750D01*
X493614Y269500D01*
D02*
G37*
G36*
X493113Y210996D02*
X493114Y207999D01*
X493614Y207500D01*
X493614Y201250D01*
X490614Y201250D01*
X490614Y211750D01*
X492373Y211751D01*
X493113Y210996D01*
D02*
G37*
G36*
X443613Y211750D02*
X443613Y201250D01*
X440613Y201250D01*
X440612Y207502D01*
X441112Y208001D01*
X441114Y210995D01*
X441855Y211750D01*
X443613Y211750D01*
D02*
G37*
G36*
X440364Y215000D02*
X440364Y213241D01*
X439609Y212501D01*
X436613Y212500D01*
X436114Y212000D01*
X429864Y212000D01*
X429864Y215000D01*
X440364Y215000D01*
D02*
G37*
G36*
X504364Y214999D02*
X504364Y211999D01*
X498112Y211999D01*
X497613Y212498D01*
X494619Y212500D01*
X493864Y213241D01*
X493864Y214999D01*
X504364Y214999D01*
D02*
G37*
%LPC*%
G36*
X252000Y168000D02*
X240000D01*
Y161000D01*
X252000D01*
Y168000D01*
D02*
G37*
G36*
X270000D02*
X258000D01*
Y161000D01*
X270000D01*
Y168000D01*
D02*
G37*
G36*
X252000Y155000D02*
X240000D01*
Y148000D01*
X252000D01*
Y155000D01*
D02*
G37*
G36*
X270000D02*
X258000D01*
Y148000D01*
X270000D01*
Y155000D01*
D02*
G37*
%LPD*%
D10*
X203000Y310200D02*
D03*
X217000D02*
D03*
X302000Y167500D02*
D03*
X288000D02*
D03*
X347919D02*
D03*
X333919D02*
D03*
X569500Y205000D02*
D03*
X555500D02*
D03*
X583000Y157500D02*
D03*
X597000D02*
D03*
X503000Y162500D02*
D03*
X517000D02*
D03*
X532000Y62500D02*
D03*
X518000D02*
D03*
X363919Y167500D02*
D03*
X377919D02*
D03*
X70500Y145000D02*
D03*
X84500D02*
D03*
X443000Y92500D02*
D03*
X457000D02*
D03*
X70499Y197499D02*
D03*
X84499D02*
D03*
X205000Y133500D02*
D03*
X219000D02*
D03*
X434500Y162500D02*
D03*
X420500D02*
D03*
X420500Y175000D02*
D03*
X434500D02*
D03*
X502000Y177500D02*
D03*
X488000D02*
D03*
D11*
X157500Y265500D02*
D03*
Y251500D02*
D03*
X115000Y104500D02*
D03*
Y90500D02*
D03*
X590000Y170500D02*
D03*
Y184500D02*
D03*
X535000Y173000D02*
D03*
Y187000D02*
D03*
X600000Y225500D02*
D03*
Y239500D02*
D03*
X120000Y170500D02*
D03*
Y184500D02*
D03*
X107500Y184500D02*
D03*
Y170500D02*
D03*
X302500Y202000D02*
D03*
Y188000D02*
D03*
X352167Y202000D02*
D03*
Y188000D02*
D03*
X315000Y202000D02*
D03*
Y188000D02*
D03*
X327500Y202000D02*
D03*
Y188000D02*
D03*
X378369Y202000D02*
D03*
Y188000D02*
D03*
X365506Y202000D02*
D03*
Y188000D02*
D03*
X460000Y132000D02*
D03*
Y118000D02*
D03*
X405000Y345500D02*
D03*
Y359500D02*
D03*
X390000Y345500D02*
D03*
Y359500D02*
D03*
X360000Y345500D02*
D03*
Y359500D02*
D03*
X375000Y345500D02*
D03*
Y359500D02*
D03*
X290919Y98000D02*
D03*
Y112000D02*
D03*
X278419Y98000D02*
D03*
Y112000D02*
D03*
X335919Y98000D02*
D03*
Y112000D02*
D03*
X323419Y98000D02*
D03*
Y112000D02*
D03*
X380919Y98000D02*
D03*
Y112000D02*
D03*
X368419Y98000D02*
D03*
Y112000D02*
D03*
X160000Y359500D02*
D03*
Y345500D02*
D03*
X133500Y359500D02*
D03*
Y345500D02*
D03*
X97500Y359300D02*
D03*
Y345300D02*
D03*
X565000Y239500D02*
D03*
Y225500D02*
D03*
X303419Y112000D02*
D03*
Y98000D02*
D03*
X348419Y112000D02*
D03*
Y98000D02*
D03*
X393419Y112000D02*
D03*
Y98000D02*
D03*
X160000Y318000D02*
D03*
Y332000D02*
D03*
X133500Y318000D02*
D03*
Y332000D02*
D03*
X97500D02*
D03*
Y318000D02*
D03*
X582500Y239500D02*
D03*
Y225500D02*
D03*
X422500Y345500D02*
D03*
Y359500D02*
D03*
X339529Y202000D02*
D03*
Y188000D02*
D03*
X97500Y104500D02*
D03*
Y90500D02*
D03*
D12*
X407550Y187550D02*
D03*
X417450Y197450D02*
D03*
D13*
X562500Y160500D02*
D03*
X553000Y184500D02*
D03*
X572000D02*
D03*
X333419Y152000D02*
D03*
X342919Y128000D02*
D03*
X323919D02*
D03*
X378419Y152000D02*
D03*
X387919Y128000D02*
D03*
X368919D02*
D03*
X288419Y152000D02*
D03*
X297919Y128000D02*
D03*
X278919D02*
D03*
D14*
X242250Y272100D02*
D03*
Y284800D02*
D03*
Y310200D02*
D03*
Y322900D02*
D03*
X322750D02*
D03*
Y310200D02*
D03*
Y297500D02*
D03*
Y284800D02*
D03*
Y272100D02*
D03*
D15*
X245250Y297500D02*
D03*
D16*
X257100Y337750D02*
D03*
X269800D02*
D03*
X282500D02*
D03*
X295200D02*
D03*
X307900D02*
D03*
Y257250D02*
D03*
X295200D02*
D03*
X282500D02*
D03*
X269800D02*
D03*
X257100D02*
D03*
D17*
X487500Y85000D02*
D03*
X529500D02*
D03*
Y139000D02*
D03*
X487500Y139100D02*
D03*
D18*
X457114Y362500D02*
D03*
D19*
Y412500D02*
D03*
X477114Y362500D02*
D03*
Y412500D02*
D03*
X497114Y362500D02*
D03*
Y412500D02*
D03*
X517114Y362500D02*
D03*
Y412500D02*
D03*
D20*
X195500Y87500D02*
D03*
X214500D02*
D03*
D21*
X167500Y226500D02*
D03*
X187500Y133500D02*
D03*
X177500D02*
D03*
X157500D02*
D03*
X147500D02*
D03*
X147500Y226500D02*
D03*
X157500D02*
D03*
X177500D02*
D03*
X167500Y133500D02*
D03*
X187500Y226500D02*
D03*
D22*
X442500Y112500D02*
D03*
Y132500D02*
D03*
D23*
X420000Y111500D02*
D03*
Y143500D02*
D03*
D24*
X50000Y170000D02*
D03*
X85000D02*
D03*
Y230000D02*
D03*
X50000D02*
D03*
D25*
X255000Y158000D02*
D03*
Y126000D02*
D03*
D26*
X88000Y280000D02*
D03*
X520000Y21000D02*
D03*
D27*
X442114Y275750D02*
D03*
X429864Y263500D02*
D03*
X442114Y201250D02*
D03*
X429864Y213500D02*
D03*
X504364D02*
D03*
X492114Y201250D02*
D03*
Y275750D02*
D03*
X504364Y263500D02*
D03*
D28*
X499314Y270700D02*
D03*
X434914Y206300D02*
D03*
D29*
X499314D02*
D03*
X434914Y270700D02*
D03*
D30*
X499864Y258500D02*
D03*
Y253500D02*
D03*
Y248500D02*
D03*
Y243500D02*
D03*
Y238500D02*
D03*
Y233500D02*
D03*
Y228500D02*
D03*
Y223500D02*
D03*
Y218500D02*
D03*
X434364D02*
D03*
Y223500D02*
D03*
Y228500D02*
D03*
Y233500D02*
D03*
Y238500D02*
D03*
Y243500D02*
D03*
Y248500D02*
D03*
Y253500D02*
D03*
Y258500D02*
D03*
D31*
X487114Y205750D02*
D03*
X482114D02*
D03*
X477114D02*
D03*
X472114D02*
D03*
X467114D02*
D03*
X462114D02*
D03*
X457114D02*
D03*
X452114D02*
D03*
X447114D02*
D03*
Y271250D02*
D03*
X452114D02*
D03*
X457114D02*
D03*
X462114D02*
D03*
X467114D02*
D03*
X472114D02*
D03*
X477114D02*
D03*
X482114D02*
D03*
X487114D02*
D03*
D32*
X402419Y407700D02*
D03*
Y395000D02*
D03*
Y382300D02*
D03*
X363419Y395000D02*
D03*
Y382300D02*
D03*
D33*
Y407700D02*
D03*
D34*
X184000Y110000D02*
X217500D01*
X177500Y116500D02*
X184000Y110000D01*
X177500Y116500D02*
Y133500D01*
X217500Y110000D02*
X235000Y92500D01*
X175000Y25000D02*
Y40000D01*
Y25000D02*
X180000Y20000D01*
X130822Y438000D02*
X418136D01*
X107500Y442500D02*
X420000D01*
X422500Y359500D02*
Y381500D01*
X421700Y382300D02*
X422500Y381500D01*
X402419Y382300D02*
X421700D01*
X363000Y381881D02*
X363419Y382300D01*
X363000Y371000D02*
Y381881D01*
Y371000D02*
X390000D01*
X390000Y371000D01*
Y359500D02*
Y371000D01*
X342000Y395000D02*
X363419D01*
X342000Y369000D02*
Y395000D01*
Y369000D02*
X351500Y359500D01*
X360000D01*
X340000Y314000D02*
Y342000D01*
X311600Y423300D02*
X333000Y401900D01*
Y349000D02*
Y401900D01*
Y349000D02*
X340000Y342000D01*
X133500Y332000D02*
Y345500D01*
X133800Y359800D02*
Y397900D01*
X133500Y359500D02*
X133800Y359800D01*
X286200Y383800D02*
Y397900D01*
X435500Y344500D02*
Y420636D01*
X339529Y202000D02*
Y212985D01*
X365506Y202500D02*
Y212985D01*
X378369Y202500D02*
Y212985D01*
X352450Y202500D02*
Y212985D01*
X327500Y202000D02*
Y212985D01*
X315000Y202000D02*
Y212985D01*
X207500Y222500D02*
Y265000D01*
X195000Y210000D02*
X207500Y222500D01*
X535000Y200000D02*
X540000Y205000D01*
X535000Y187000D02*
Y200000D01*
X540000Y205000D02*
X555500D01*
X360000Y359500D02*
X375000D01*
X335919Y112000D02*
X348419D01*
X323419D02*
X335919D01*
X157500Y133500D02*
Y152500D01*
X152500Y157500D02*
X157500Y152500D01*
X112500Y157500D02*
X152500D01*
X107500Y162500D02*
X112500Y157500D01*
X107500Y162500D02*
Y170500D01*
X177500Y133500D02*
Y165000D01*
X172000Y170500D02*
X177500Y165000D01*
X120000Y170500D02*
X172000D01*
X322750Y297500D02*
X346500D01*
X368919Y112500D02*
Y128000D01*
X368419Y112000D02*
X393419D01*
X323919Y112500D02*
Y128000D01*
X278919Y112000D02*
Y128000D01*
X333419Y152000D02*
Y167000D01*
X378419Y152000D02*
Y167000D01*
X377919Y167500D02*
X378419Y168000D01*
X157500Y117500D02*
Y133500D01*
Y117500D02*
X172500Y102500D01*
X212500D01*
X214500Y100500D01*
Y87500D02*
Y100500D01*
X235000Y60000D02*
Y92500D01*
X303419Y112000D02*
X311600D01*
X278919D02*
X290919D01*
X303419D01*
X315000Y82500D02*
X320114Y77386D01*
X358419Y89194D02*
X365727Y81886D01*
X348419Y112000D02*
X358419D01*
X358419Y112000D01*
Y89194D02*
Y112000D01*
X311600D02*
X315000Y108600D01*
Y82500D02*
Y108600D01*
X187500Y226500D02*
Y270000D01*
X147500Y226500D02*
Y275000D01*
X333919Y167500D02*
Y177886D01*
X377919Y167500D02*
Y177886D01*
X157500Y226500D02*
Y251500D01*
X177500D01*
Y226500D02*
Y251500D01*
X287919Y152500D02*
Y167500D01*
X572000Y184500D02*
X590000D01*
X539500Y160500D02*
X562500D01*
X535000Y165000D02*
X539500Y160500D01*
X535000Y165000D02*
Y173000D01*
X89700Y345300D02*
X97500D01*
X147500Y275000D02*
X157300Y284800D01*
X207500D01*
X187500Y270000D02*
X192500Y275000D01*
X207500D01*
X97500Y345300D02*
X112800D01*
X117500Y350000D01*
Y372500D01*
X80000Y355000D02*
X89700Y345300D01*
X80000Y355000D02*
Y415000D01*
X346500Y297500D02*
Y342000D01*
X121300Y428478D02*
X130822Y438000D01*
X435500Y344500D02*
X445000Y335000D01*
X130500Y345000D02*
X131250Y344250D01*
X160000Y332000D02*
Y345500D01*
X97500Y332000D02*
Y345300D01*
X390000Y359500D02*
X405000D01*
X80000Y415000D02*
X107500Y442500D01*
X418136Y438000D02*
X435500Y420636D01*
X442499Y349999D02*
Y420001D01*
X420000Y442500D02*
X442499Y420001D01*
X322750Y310200D02*
X336200D01*
X340000Y314000D01*
X257100Y337750D02*
Y374900D01*
X273300Y384700D02*
Y410800D01*
Y384700D02*
X282500Y375500D01*
Y337750D02*
Y375500D01*
X299100Y383900D02*
Y410400D01*
X322750Y322900D02*
Y373250D01*
X311600Y384400D02*
X322750Y373250D01*
X311600Y384400D02*
Y397900D01*
X269800Y337750D02*
Y377200D01*
X260800Y386200D02*
X269800Y377200D01*
X295200Y337750D02*
Y374800D01*
X286200Y383800D02*
X295200Y374800D01*
X307900Y337750D02*
Y375100D01*
X299100Y383900D02*
X307900Y375100D01*
X235000Y60000D02*
X255000D01*
X195000Y40000D02*
X210000Y25000D01*
X305000D01*
X320000Y40000D01*
Y67500D01*
X180000Y20000D02*
X312500D01*
X332500Y40000D01*
Y67500D01*
X431000Y335000D02*
Y408000D01*
X431000Y335000D02*
X431000Y335000D01*
X416000Y423000D02*
X431000Y408000D01*
X146700Y350800D02*
Y389000D01*
Y350800D02*
X152000Y345500D01*
X160000D01*
X445000Y335000D02*
X450000D01*
X442500Y132500D02*
X443000Y132000D01*
X452000D01*
X393419Y112000D02*
X435000Y70419D01*
Y60000D02*
Y70419D01*
X365727Y81886D02*
X407114D01*
X415000Y74000D01*
Y60000D02*
Y74000D01*
X320114Y77386D02*
X390614D01*
X395000Y73000D01*
Y60000D02*
Y73000D01*
X322750Y272100D02*
X347100D01*
X177500Y210000D02*
Y226500D01*
Y210000D02*
X195000D01*
X97500Y359300D02*
Y366500D01*
X108400Y377400D01*
X124000Y345000D02*
X130500D01*
X121300Y380700D02*
Y428478D01*
Y380700D02*
X124000Y378000D01*
Y345000D02*
Y378000D01*
X92500Y302500D02*
X183500D01*
X572000Y157500D02*
X583000D01*
X572000D02*
Y184500D01*
X160000Y359500D02*
Y372000D01*
X160500Y372500D01*
X167500D01*
X195000Y63000D02*
X195500Y63500D01*
Y87500D01*
X214500Y63500D02*
X215000Y63000D01*
X214500Y63500D02*
Y87500D01*
X298419Y178000D02*
X317000D01*
X287919Y167500D02*
X298419Y178000D01*
X452000Y132000D02*
X460000D01*
X452000Y97500D02*
X457000Y92500D01*
X452000Y97500D02*
Y132000D01*
X108400Y377400D02*
Y397900D01*
X235400Y396600D02*
X257100Y374900D01*
X260800Y386200D02*
Y397900D01*
Y423300D02*
X273300Y410800D01*
X286200Y423300D02*
X299100Y410400D01*
D35*
X235000Y126000D02*
X255000D01*
X227500Y133500D02*
X235000Y126000D01*
X219000Y133500D02*
X227500D01*
X115000Y104500D02*
Y132500D01*
X175000Y60000D02*
Y77000D01*
X147500Y104500D02*
X175000Y77000D01*
X115000Y104500D02*
X147500D01*
X135000Y139000D02*
X140500Y133500D01*
X147500D01*
X404000Y409281D02*
Y423000D01*
X402419Y407700D02*
X404000Y409281D01*
X339000Y408000D02*
Y425000D01*
Y408000D02*
X339300Y407700D01*
X363419D01*
X287500Y212500D02*
X293000Y207000D01*
X250000Y212500D02*
X287500D01*
X285000Y177500D02*
Y203500D01*
X293000Y188000D02*
Y207000D01*
Y188000D02*
X302500D01*
X271750Y145750D02*
X277500Y140000D01*
X342500D01*
X107500Y184500D02*
Y195000D01*
X365506Y188000D02*
X378369D01*
X352167D02*
X365506D01*
X339529D02*
X352167D01*
X315000D02*
X339529D01*
X302500D02*
X315000D01*
X322750Y284800D02*
X347300D01*
X322750D02*
X322950Y285000D01*
X477114Y412500D02*
Y432114D01*
X410000Y204900D02*
X417450Y197450D01*
Y197550D01*
X380919Y98000D02*
X393419D01*
X335919Y87886D02*
Y97500D01*
X323419Y88386D02*
Y98000D01*
X278419Y88386D02*
Y98000D01*
X290919Y98000D02*
X303419D01*
X347919Y167500D02*
X363919D01*
X290919Y88386D02*
Y98000D01*
X502000Y177500D02*
X503000Y176500D01*
Y162500D02*
Y176500D01*
Y152100D02*
Y162500D01*
X492000Y141100D02*
X503000Y152100D01*
X187500Y133500D02*
X205000D01*
X217000Y310200D02*
X242250D01*
X477114Y362500D02*
Y384614D01*
X405000Y335000D02*
Y345500D01*
X347919Y145419D02*
Y167500D01*
X342500Y140000D02*
X347919Y145419D01*
X297919Y128000D02*
X307000D01*
X333838D02*
X342919D01*
X302000Y140500D02*
Y167500D01*
X569500Y205000D02*
X582500D01*
X590500Y170000D02*
X600000D01*
X590000Y170500D02*
X590500Y170000D01*
X205000Y133500D02*
Y147500D01*
X97500Y318000D02*
X132500D01*
X160000D01*
X368419Y88386D02*
Y98000D01*
X517000Y162500D02*
Y174500D01*
X452500Y237500D02*
X462500Y227500D01*
Y222500D02*
Y227500D01*
X375000Y335000D02*
Y345500D01*
X421000Y112500D02*
X442500D01*
X420000Y111500D02*
X421000Y112500D01*
X442500Y93000D02*
Y112500D01*
Y93000D02*
X443000Y92500D01*
Y80000D02*
Y92500D01*
Y80000D02*
X452500D01*
X420500Y162500D02*
Y175000D01*
X48250Y232500D02*
X50000Y230750D01*
X207500Y297500D02*
X242250D01*
X203000Y302000D02*
Y310200D01*
Y302000D02*
X207500Y297500D01*
X335919Y97500D02*
X346305D01*
X387919Y128000D02*
Y137081D01*
X385000Y140000D02*
X387919Y137081D01*
X354919Y140000D02*
X385000D01*
X342919Y128000D02*
X354919Y140000D01*
X380919Y88386D02*
Y98000D01*
X50000Y165000D02*
X50000Y165000D01*
X62500D01*
X107500Y195000D02*
X110000Y197500D01*
X120000Y184500D02*
X120500Y185000D01*
X121500Y184000D01*
X178000D01*
X83000Y318000D02*
X97500D01*
X250000Y212500D02*
X250000Y212500D01*
X84500Y145000D02*
Y162750D01*
X86750Y165000D01*
X84499Y170501D02*
Y197499D01*
X97500Y90500D02*
X115000D01*
X70500Y131500D02*
Y145000D01*
Y131500D02*
X97500Y104500D01*
X62500Y165000D02*
X67500D01*
X70500Y162000D01*
Y145000D02*
Y162000D01*
X55001Y197499D02*
X70499D01*
X50000Y202500D02*
X55001Y197499D01*
X50000Y202500D02*
Y230000D01*
X62500D01*
X85000D02*
Y255000D01*
X157500Y265500D02*
X170500D01*
X210000Y380000D02*
X217000Y373000D01*
Y310200D02*
Y373000D01*
X84500Y145000D02*
X102500D01*
X115000Y132500D01*
X110000Y197500D02*
X207500D01*
X530000Y91000D02*
Y110843D01*
X520843Y120000D02*
X530000Y110843D01*
X460000Y103657D02*
Y118000D01*
Y103657D02*
X511157D01*
X582500Y205000D02*
Y225500D01*
X600000D01*
X565000Y215000D02*
Y225500D01*
X553000Y184500D02*
Y194500D01*
X599500D01*
X600000Y170000D02*
Y207500D01*
X167500Y226500D02*
X168000Y226000D01*
X167500Y207000D02*
Y226500D01*
X532000Y62500D02*
Y82500D01*
X530000Y91000D02*
X534000Y87000D01*
X507500Y62500D02*
X518000D01*
X507500D02*
Y82500D01*
X470000Y125000D02*
X475000Y120000D01*
X520843D01*
X488000Y170500D02*
Y177500D01*
X470000Y125000D02*
Y152500D01*
X488000Y170500D01*
X401000Y181000D02*
X407550Y187550D01*
X401000Y175000D02*
Y181000D01*
Y175000D02*
X420500D01*
X507500Y82500D02*
X510000Y85000D01*
X210000Y380000D02*
Y397900D01*
D36*
X360000Y298056D02*
X365556Y292500D01*
X360000Y298056D02*
Y345500D01*
X322500Y240000D02*
X339529D01*
X317500Y235000D02*
X322500Y240000D01*
X273500Y235000D02*
X317500D01*
X321450Y234000D02*
X327450D01*
X318950Y231500D02*
X321450Y234000D01*
X269000Y231500D02*
X318950D01*
X315000Y225000D02*
X386000D01*
X267079D02*
X315000D01*
X384550Y221500D02*
X387550Y218500D01*
X319985Y221500D02*
X384550D01*
X317485Y219000D02*
X319985Y221500D01*
X302500Y219000D02*
X317485D01*
X264000D02*
X302500D01*
X242250Y249829D02*
X267079Y225000D01*
X352450Y243550D02*
Y246000D01*
X351450Y247000D02*
X352450Y246000D01*
X339529Y240000D02*
X378899D01*
X344014Y236000D02*
X383000D01*
X387500Y147500D02*
Y210000D01*
X391000Y213500D01*
X434364D01*
X410000Y235000D02*
X413500Y238500D01*
X492114Y195000D02*
Y205750D01*
Y195000D02*
X502000Y185114D01*
Y177500D02*
Y185114D01*
X487114Y178386D02*
Y205750D01*
Y178386D02*
X488000Y177500D01*
X492114Y271250D02*
Y278614D01*
X413500Y238500D02*
X434364D01*
X482114Y205750D02*
Y221910D01*
X295200Y244800D02*
Y257250D01*
X382450Y248500D02*
X434364D01*
X382399Y243500D02*
X434364D01*
X282500Y242500D02*
Y257250D01*
X269800Y238700D02*
Y257250D01*
X242250Y249829D02*
Y272100D01*
X319950Y243500D02*
X319950Y243500D01*
X381500Y252500D02*
X382500Y253500D01*
X364444Y252000D02*
X366000Y250444D01*
X379950Y246000D02*
X382450Y248500D01*
X319950Y243500D02*
X323450Y247000D01*
X351450D01*
X269800Y238700D02*
X273500Y235000D01*
X390500Y228500D02*
X434364D01*
X383000Y236000D02*
X390500Y228500D01*
X342014Y234000D02*
X344014Y236000D01*
X327450Y234000D02*
X342014D01*
X387500Y223500D02*
X434364D01*
X257100Y243400D02*
X269000Y231500D01*
X257100Y243400D02*
Y257250D01*
X387550Y218500D02*
X434364D01*
X225000Y258000D02*
X264000Y219000D01*
X225000Y258000D02*
Y280800D01*
X229000Y284800D01*
X242250D01*
X482500Y240000D02*
X484000Y238500D01*
X499864Y263500D02*
X507500D01*
X520000Y276000D01*
X366500Y252500D02*
X381500D01*
X382500Y253500D02*
X434364D01*
X366000Y250444D02*
Y252000D01*
X366500Y252500D01*
X309150Y258500D02*
X378419D01*
X434364D01*
X499864D02*
X511000D01*
X530000Y277500D01*
X499864Y248500D02*
X513500D01*
X499864Y233500D02*
X525000D01*
X499864Y253500D02*
X513500D01*
X499864Y243500D02*
X519000D01*
X496996Y339504D02*
Y369496D01*
X499864Y228500D02*
X524950D01*
X499864Y223500D02*
X524899D01*
X550000Y248601D01*
X525000Y233500D02*
X543000Y251500D01*
X524950Y228500D02*
X546500Y250050D01*
X499864Y218500D02*
X526000D01*
X553500Y246000D01*
X442000Y205636D02*
X442114Y205750D01*
Y271250D02*
Y277886D01*
X497500Y420000D02*
Y427500D01*
X500000Y430000D01*
X527500D01*
X467500Y347500D02*
Y380000D01*
Y347500D02*
X472500Y342500D01*
X487450D01*
X466000Y339000D02*
X486000D01*
X513500Y248500D02*
X539500Y274500D01*
X527500Y319950D02*
X550000Y297450D01*
X486000Y339000D02*
X536000Y289000D01*
Y276000D02*
Y289000D01*
X513500Y253500D02*
X536000Y276000D01*
X487450Y342500D02*
X539500Y290450D01*
Y274500D02*
Y290450D01*
X543000Y251500D02*
Y293500D01*
X496996Y339504D02*
X543000Y293500D01*
X546500Y250050D02*
Y296000D01*
X517500Y325000D02*
X546500Y296000D01*
X550000Y248601D02*
Y297450D01*
X553500Y246000D02*
Y298899D01*
X467114Y189614D02*
Y205750D01*
X378899Y240000D02*
X382399Y243500D01*
X354899Y246000D02*
X379950D01*
X352450Y243550D02*
X354899Y246000D01*
X302500Y202000D02*
Y219000D01*
X323500Y252000D02*
X364444D01*
X386000Y225000D02*
X387500Y223500D01*
X390000Y297500D02*
X391500Y296000D01*
X390000Y297500D02*
Y345500D01*
X472114Y205750D02*
Y212886D01*
X387500Y147500D02*
X400169Y134831D01*
Y110907D02*
Y134831D01*
X457114Y199614D02*
Y205750D01*
X434614Y192114D02*
X442114Y199614D01*
Y205750D01*
X452114D02*
Y224614D01*
X519000Y243500D02*
X522500Y240000D01*
X420000Y200000D02*
X428614D01*
X434914Y206300D01*
X447114Y199614D02*
Y205750D01*
X432500Y185000D02*
X447114Y199614D01*
X427500Y192114D02*
X434614D01*
X420000Y185000D02*
X432500D01*
X477114Y271250D02*
Y327114D01*
X482500Y332500D01*
X472500Y231524D02*
X482114Y221910D01*
X472500Y231524D02*
Y256000D01*
X452114Y224614D02*
X452500Y225000D01*
X457114Y271250D02*
Y287950D01*
X452114Y271250D02*
Y288000D01*
X462500Y222500D02*
X472114Y212886D01*
X462500Y185000D02*
X467114Y189614D01*
X447500Y190000D02*
X457114Y199614D01*
X446000Y190000D02*
X447500D01*
X462114Y193114D02*
Y205750D01*
X445000Y176000D02*
X462114Y193114D01*
X445000Y175000D02*
Y176000D01*
X434500Y175000D02*
X434500Y175000D01*
X445000D01*
X434500Y162500D02*
Y175000D01*
X449064Y296000D02*
X457114Y287950D01*
X447614Y292500D02*
X452114Y288000D01*
X425000Y280614D02*
X434914Y270700D01*
X422500Y302500D02*
Y345500D01*
X391500Y296000D02*
X449064D01*
X365556Y292500D02*
X447614D01*
X425000Y280614D02*
Y285000D01*
X420000Y143500D02*
X431000D01*
X477114Y189614D02*
Y205750D01*
X482114Y189614D02*
Y205750D01*
X417500Y272500D02*
X426500Y263500D01*
X434364D01*
X442500Y132500D02*
Y150000D01*
X499314Y206300D02*
X503114Y202500D01*
X499864Y213500D02*
X525950D01*
X503114Y202500D02*
X520000D01*
X525950Y213500D02*
X559950Y247500D01*
X592500D01*
X598000Y242000D01*
X600000D01*
X520000Y202500D02*
X557000Y239500D01*
X565000D01*
X597000Y149500D02*
Y157500D01*
X545000Y129500D02*
X560500Y145000D01*
X592500D01*
X597000Y149500D01*
X400169Y110907D02*
X441076Y70000D01*
X482500D01*
X532500Y319900D02*
X553500Y298899D01*
X532500Y319900D02*
Y425000D01*
X527500Y430000D02*
X532500Y425000D01*
X518300Y420800D02*
X519100Y420000D01*
X517114Y412500D02*
X527500D01*
Y319950D02*
Y412500D01*
X457114Y390386D02*
Y412500D01*
Y390386D02*
X467500Y380000D01*
X457114Y347886D02*
Y362500D01*
Y347886D02*
X466000Y339000D01*
X517500Y325000D02*
Y362114D01*
X517114Y362500D02*
X517500Y362114D01*
X472114Y271250D02*
Y332500D01*
X467114Y271250D02*
Y280886D01*
X465000Y283000D02*
X467114Y280886D01*
X465000Y283000D02*
Y292500D01*
X487114Y271250D02*
Y279114D01*
X489000Y281000D01*
X482114Y271250D02*
Y287114D01*
X486000Y291000D01*
Y299000D01*
X499314Y270700D02*
X510000Y281386D01*
X447114Y271250D02*
Y277886D01*
X444444Y280556D02*
X447114Y277886D01*
X444444Y280556D02*
Y285500D01*
X435000Y285000D02*
X442114Y277886D01*
X462114Y257114D02*
Y271250D01*
X457499Y252500D02*
X462114Y257114D01*
X490500Y238500D02*
X499864D01*
X489000Y240000D02*
X490500Y238500D01*
X482500Y240000D02*
X489000D01*
X434364Y233500D02*
X443500D01*
X447500Y237500D01*
X452500D01*
X492114Y278614D02*
X499500Y286000D01*
X500000Y285500D01*
Y285000D02*
Y285500D01*
X510000Y281386D02*
Y285000D01*
X520000Y276000D02*
X520000Y276000D01*
X520000Y276000D02*
Y285000D01*
X530000Y277500D02*
Y285000D01*
X489000Y281000D02*
X489000Y281000D01*
X489000Y281000D02*
Y285000D01*
X565000Y239500D02*
X582500D01*
X282500Y242500D02*
X286500Y238500D01*
X314950D01*
X319950Y243500D01*
X295200Y244800D02*
X298000Y242000D01*
X313500D01*
X323500Y252000D01*
X545000Y59900D02*
Y129500D01*
X537601Y52500D02*
X545000Y59900D01*
X482500Y70000D02*
X500000Y52500D01*
X537601D01*
X431000Y143500D02*
X477114Y189614D01*
X442500Y150000D02*
X482114Y189614D01*
D37*
X242250Y322900D02*
X259600D01*
X265708Y316792D01*
Y301908D02*
Y316792D01*
X261300Y297500D02*
X265708Y301908D01*
X242250Y297500D02*
X261300D01*
D38*
X290000Y50000D02*
D03*
X120000D02*
D03*
X470000D02*
D03*
X360000D02*
D03*
D39*
X235000Y60000D02*
D03*
X215000Y40000D02*
D03*
Y60000D02*
D03*
X195000Y40000D02*
D03*
Y60000D02*
D03*
X175000Y40000D02*
D03*
Y60000D02*
D03*
X155000Y40000D02*
D03*
X255000D02*
D03*
Y60000D02*
D03*
X235000Y40000D02*
D03*
X435000D02*
D03*
Y60000D02*
D03*
X415000Y40000D02*
D03*
Y60000D02*
D03*
X395000Y40000D02*
D03*
D40*
X155000Y60000D02*
D03*
X395000D02*
D03*
D41*
X200000Y340000D02*
D03*
X97500Y127500D02*
D03*
D42*
X184600Y397900D02*
D03*
X159200D02*
D03*
X133800D02*
D03*
X159200Y423300D02*
D03*
X184600D02*
D03*
X133800D02*
D03*
X210000D02*
D03*
X260800D02*
D03*
X235400D02*
D03*
X210000Y397900D02*
D03*
X235400D02*
D03*
X311600D02*
D03*
X286200D02*
D03*
Y423300D02*
D03*
X260800Y397900D02*
D03*
X108400Y423300D02*
D03*
Y397900D02*
D03*
D43*
X311600Y423300D02*
D03*
D44*
X135000Y139000D02*
D03*
X210000Y162500D02*
D03*
X227500D02*
D03*
X404000Y423000D02*
D03*
X339000Y425000D02*
D03*
X97000Y197000D02*
D03*
X315000Y225000D02*
D03*
X285000Y203500D02*
D03*
X339529Y212985D02*
D03*
X365506D02*
D03*
X378369D02*
D03*
X352450D02*
D03*
X327500Y212985D02*
D03*
X315000Y212985D02*
D03*
X207500Y265000D02*
D03*
X352450Y246000D02*
D03*
X347000Y342000D02*
D03*
X285000Y177500D02*
D03*
X347300Y284800D02*
D03*
X477114Y432114D02*
D03*
X410000Y205000D02*
D03*
X472114Y332500D02*
D03*
X335919Y87886D02*
D03*
X323419Y88386D02*
D03*
X278419Y88386D02*
D03*
X290919Y88386D02*
D03*
X410000Y235000D02*
D03*
X327450Y234000D02*
D03*
X472500Y256000D02*
D03*
X482500Y240000D02*
D03*
X333919Y177886D02*
D03*
X377919D02*
D03*
X366000Y252000D02*
D03*
X378419Y258500D02*
D03*
X486000Y299000D02*
D03*
X339529Y240000D02*
D03*
X477114Y384614D02*
D03*
X405000Y335000D02*
D03*
X333838Y128000D02*
D03*
X582500Y205000D02*
D03*
X207500Y275000D02*
D03*
X207500Y284800D02*
D03*
X117500Y372500D02*
D03*
X92500D02*
D03*
X442499Y349999D02*
D03*
X167500Y372500D02*
D03*
X92500Y302500D02*
D03*
X357500Y157500D02*
D03*
X368419Y88386D02*
D03*
X517000Y174500D02*
D03*
X522500Y240000D02*
D03*
X320000Y67500D02*
D03*
X332500D02*
D03*
X457499Y252500D02*
D03*
X427500Y192114D02*
D03*
X420000Y185000D02*
D03*
X482500Y332500D02*
D03*
X452500Y237500D02*
D03*
Y225000D02*
D03*
X444444Y285500D02*
D03*
X462500Y222500D02*
D03*
X431000Y335000D02*
D03*
X416000Y423000D02*
D03*
X146700Y389000D02*
D03*
X435000Y285000D02*
D03*
X462500Y185000D02*
D03*
X446000Y190000D02*
D03*
X450000Y335000D02*
D03*
X375000D02*
D03*
X445000Y175000D02*
D03*
X452500Y80000D02*
D03*
X407500Y165000D02*
D03*
X270000Y281000D02*
D03*
X422500Y302500D02*
D03*
X425000Y285000D02*
D03*
X382500Y280000D02*
D03*
X207500Y297500D02*
D03*
X347500Y272500D02*
D03*
X458000Y142000D02*
D03*
X380919Y88386D02*
D03*
X417500Y272500D02*
D03*
X62500Y165000D02*
D03*
X178000Y184000D02*
D03*
X83000Y318000D02*
D03*
X250000Y212500D02*
D03*
X85000Y210000D02*
D03*
X97500Y160000D02*
D03*
X62500Y230000D02*
D03*
X85000Y255000D02*
D03*
X109000Y362000D02*
D03*
X170500Y265500D02*
D03*
X183500Y302500D02*
D03*
X245000Y197500D02*
D03*
X262500D02*
D03*
X227500D02*
D03*
X210000D02*
D03*
Y180000D02*
D03*
X227500D02*
D03*
X245000D02*
D03*
X262500D02*
D03*
X470000Y80000D02*
D03*
X511157Y103657D02*
D03*
X600000Y207500D02*
D03*
X565000Y215000D02*
D03*
X465000Y292500D02*
D03*
X500000Y285000D02*
D03*
X510000D02*
D03*
X520000D02*
D03*
X530000D02*
D03*
X489000D02*
D03*
X167500Y207000D02*
D03*
X467500Y165000D02*
D03*
X261000Y281000D02*
D03*
X279000D02*
D03*
X510000Y85000D02*
D03*
X317000Y178000D02*
D03*
D45*
X261000Y83000D02*
D03*
X248000D02*
D03*
X118000Y221000D02*
D03*
X307000Y128000D02*
D03*
X118000Y232000D02*
D03*
Y243000D02*
D03*
D46*
X401000Y175000D02*
D03*
M02*
