G04 Layer_Color=16711935*
%FSLAX44Y44*%
%MOMM*%
G71*
G01*
G75*
%ADD35C,0.2000*%
D35*
X435000Y165000D02*
G03*
X425000Y175000I-10000J0D01*
G01*
X-30000D02*
G03*
X-40000Y165000I0J-10000D01*
G01*
X-100000Y75000D02*
G03*
X-110000Y65000I0J-10000D01*
G01*
Y-215000D02*
G03*
X-100000Y-225000I10000J0D01*
G01*
X505000Y65000D02*
G03*
X495000Y75000I-10000J0D01*
G01*
Y-225000D02*
G03*
X505000Y-215000I0J10000D01*
G01*
X-40000Y-265000D02*
G03*
X-30000Y-275000I10000J0D01*
G01*
X425000D02*
G03*
X435000Y-265000I0J10000D01*
G01*
X425000Y-325000D02*
Y-275000D01*
X-30000Y-325000D02*
X425000D01*
X-30000D02*
Y-275000D01*
X425000Y175000D02*
Y225000D01*
X-30000D02*
X425000D01*
X-30000Y175000D02*
Y225000D01*
X435000Y75000D02*
Y165000D01*
X-30000Y175000D02*
X425000D01*
X-40000Y75000D02*
Y165000D01*
Y-265000D02*
Y-225000D01*
X-100000Y75000D02*
X-40000D01*
X-100000Y-225000D02*
X-40000D01*
X435000Y75000D02*
X495000D01*
X505000Y-215000D02*
Y65000D01*
X435000Y-225000D02*
X495000D01*
X435000Y-265000D02*
Y-225000D01*
X-110000Y-215000D02*
Y65000D01*
X-30000Y-275000D02*
X425000D01*
M02*
