G04 Layer_Physical_Order=2*
G04 Layer_Color=36540*
%FSLAX44Y44*%
%MOMM*%
G71*
G01*
G75*
%ADD32C,0.3000*%
%ADD38C,1.8000*%
%ADD41C,1.4000*%
%ADD42R,1.4000X1.4000*%
%ADD43C,0.7000*%
G36*
X348000Y313000D02*
X199612D01*
X198246Y316000D01*
X199094Y317269D01*
X199637Y320000D01*
X199094Y322731D01*
X197547Y325047D01*
X195231Y326594D01*
X192500Y327137D01*
X189769Y326594D01*
X187453Y325047D01*
X185906Y322731D01*
X185363Y320000D01*
X185906Y317269D01*
X187453Y314953D01*
X189769Y313406D01*
X192500Y312863D01*
X192500Y310285D01*
X192500Y60000D01*
X440000D01*
Y-43882D01*
X80000D01*
Y-43773D01*
X78556Y-43485D01*
X77332Y-42668D01*
X76515Y-41444D01*
X76227Y-40000D01*
X76118D01*
Y0D01*
X75652Y2341D01*
X74326Y4326D01*
X72341Y5652D01*
X70000Y6118D01*
X10000D01*
Y6227D01*
X8556Y6515D01*
X7332Y7332D01*
X6515Y8556D01*
X6227Y10000D01*
X6118D01*
Y35000D01*
X16340D01*
X16976Y30171D01*
X18840Y25670D01*
X21806Y21806D01*
X25670Y18840D01*
X30171Y16976D01*
X35000Y16340D01*
X39829Y16976D01*
X44330Y18840D01*
X48194Y21806D01*
X51160Y25670D01*
X53024Y30171D01*
X53660Y35000D01*
X150000D01*
Y279922D01*
X150047Y279953D01*
X151594Y282269D01*
X152137Y285000D01*
X151594Y287731D01*
X150047Y290047D01*
X150000Y290078D01*
Y313000D01*
X121394D01*
X120331Y315777D01*
X120372Y316000D01*
X122547Y317453D01*
X124094Y319769D01*
X124637Y322500D01*
X124094Y325231D01*
X122547Y327547D01*
X120231Y329094D01*
X117500Y329637D01*
X114769Y329094D01*
X112453Y327547D01*
X110906Y325231D01*
X110363Y322500D01*
X110906Y319769D01*
X112453Y317453D01*
X114628Y316000D01*
X114669Y315777D01*
X113606Y313000D01*
X96394D01*
X95331Y315777D01*
X95372Y316000D01*
X97547Y317453D01*
X99094Y319769D01*
X99637Y322500D01*
X99094Y325231D01*
X97547Y327547D01*
X95231Y329094D01*
X92500Y329637D01*
X89769Y329094D01*
X87453Y327547D01*
X85906Y325231D01*
X85363Y322500D01*
X85906Y319769D01*
X87453Y317453D01*
X89628Y316000D01*
X89669Y315777D01*
X88606Y313000D01*
X76118D01*
Y392500D01*
X348000D01*
X348000Y313000D01*
D02*
G37*
G36*
X538882Y300000D02*
X539348Y297659D01*
X540674Y295674D01*
X542659Y294348D01*
X545000Y293883D01*
X605000D01*
Y293773D01*
X606444Y293485D01*
X607668Y292668D01*
X608485Y291444D01*
X608773Y290000D01*
X608882D01*
Y178478D01*
X605882Y177568D01*
X605047Y178819D01*
X602731Y180366D01*
X600000Y180909D01*
X597269Y180366D01*
X594953Y178819D01*
X593406Y176503D01*
X592863Y173772D01*
X593406Y171041D01*
X594953Y168725D01*
X597269Y167178D01*
X600000Y166635D01*
X602731Y167178D01*
X605047Y168725D01*
X605882Y169976D01*
X608882Y169066D01*
Y10000D01*
X608773D01*
X608485Y8556D01*
X607668Y7332D01*
X606444Y6515D01*
X605000Y6227D01*
Y6118D01*
X545000D01*
X542659Y5652D01*
X540674Y4326D01*
X539348Y2341D01*
X538882Y0D01*
Y-40000D01*
X538773D01*
X538485Y-41444D01*
X537668Y-42668D01*
X536444Y-43485D01*
X535000Y-43773D01*
Y-43882D01*
X447500D01*
Y-8481D01*
X450500Y-7490D01*
X454537Y-10188D01*
X460000Y-11274D01*
X465462Y-10188D01*
X470093Y-7093D01*
X473188Y-2463D01*
X474274Y3000D01*
X473188Y8462D01*
X470093Y13093D01*
X465462Y16188D01*
X460000Y17274D01*
X454537Y16188D01*
X450500Y13490D01*
X447500Y14481D01*
Y42863D01*
X450231Y43406D01*
X452547Y44953D01*
X454094Y47269D01*
X454637Y50000D01*
X454094Y52731D01*
X452547Y55047D01*
X450231Y56594D01*
X447500Y57137D01*
Y67500D01*
X200000D01*
Y208259D01*
X201009Y208956D01*
X203000Y209588D01*
X204768Y208406D01*
X207500Y207863D01*
X210231Y208406D01*
X212546Y209953D01*
X214093Y212269D01*
X214637Y215000D01*
X214093Y217731D01*
X212578Y220000D01*
X214093Y222268D01*
X214637Y225000D01*
X214093Y227731D01*
X212644Y229900D01*
X214094Y232069D01*
X214637Y234800D01*
X214094Y237531D01*
X212547Y239847D01*
X210231Y241394D01*
X209923Y244514D01*
X210094Y244769D01*
X210637Y247500D01*
X210094Y250231D01*
X208547Y252547D01*
X206231Y254094D01*
X203500Y254637D01*
X203000Y254538D01*
X200000Y256914D01*
Y307000D01*
X356000Y307000D01*
X356000Y392500D01*
X538882Y392500D01*
Y300000D01*
D02*
G37*
%LPC*%
G36*
X164500Y112637D02*
X161769Y112094D01*
X159453Y110547D01*
X157906Y108231D01*
X157363Y105500D01*
X157906Y102769D01*
X159453Y100453D01*
X161769Y98906D01*
X164500Y98363D01*
X167231Y98906D01*
X169547Y100453D01*
X171094Y102769D01*
X171637Y105500D01*
X171094Y108231D01*
X169547Y110547D01*
X167231Y112094D01*
X164500Y112637D01*
D02*
G37*
G36*
X260000Y52137D02*
X257269Y51594D01*
X256250Y50913D01*
X255231Y51594D01*
X252500Y52137D01*
X249769Y51594D01*
X248750Y50913D01*
X247731Y51594D01*
X245000Y52137D01*
X242269Y51594D01*
X239953Y50047D01*
X238406Y47731D01*
X237863Y45000D01*
X238406Y42269D01*
X239087Y41250D01*
X238406Y40231D01*
X237863Y37500D01*
X238406Y34769D01*
X239087Y33750D01*
X238406Y32731D01*
X237863Y30000D01*
X238406Y27269D01*
X239317Y25906D01*
X237608Y23187D01*
X235000Y23706D01*
X230903Y22891D01*
X227430Y20570D01*
X226804Y19633D01*
X223196D01*
X222570Y20570D01*
X219097Y22891D01*
X215000Y23706D01*
X210903Y22891D01*
X207430Y20570D01*
X206804Y19633D01*
X203196D01*
X202570Y20570D01*
X199097Y22891D01*
X195000Y23706D01*
X190903Y22891D01*
X187430Y20570D01*
X186804Y19633D01*
X183196D01*
X182570Y20570D01*
X179097Y22891D01*
X175000Y23706D01*
X170903Y22891D01*
X168000Y20951D01*
X165942Y21617D01*
X165000Y22280D01*
Y23000D01*
X158000D01*
Y13000D01*
X155000D01*
Y10000D01*
X145000D01*
Y3000D01*
X145720D01*
X146383Y2059D01*
X147049Y0D01*
X145109Y-2903D01*
X144294Y-7000D01*
X145109Y-11097D01*
X147430Y-14570D01*
X150903Y-16891D01*
X155000Y-17706D01*
X159097Y-16891D01*
X162570Y-14570D01*
X163196Y-13633D01*
X166804D01*
X167430Y-14570D01*
X170903Y-16891D01*
X175000Y-17706D01*
X179097Y-16891D01*
X182570Y-14570D01*
X183196Y-13633D01*
X186804D01*
X187430Y-14570D01*
X190903Y-16891D01*
X195000Y-17706D01*
X199097Y-16891D01*
X202570Y-14570D01*
X203196Y-13633D01*
X206804D01*
X207430Y-14570D01*
X210903Y-16891D01*
X215000Y-17706D01*
X219097Y-16891D01*
X222570Y-14570D01*
X223196Y-13633D01*
X226804D01*
X227430Y-14570D01*
X230903Y-16891D01*
X235000Y-17706D01*
X239097Y-16891D01*
X242570Y-14570D01*
X244891Y-11097D01*
X245706Y-7000D01*
X244891Y-2903D01*
X242570Y570D01*
X241633Y1196D01*
Y4804D01*
X242570Y5430D01*
X244891Y8903D01*
X245706Y13000D01*
X244891Y17097D01*
X242788Y20244D01*
X243205Y21478D01*
X244275Y23007D01*
X245000Y22863D01*
X247731Y23406D01*
X248750Y24087D01*
X249769Y23406D01*
X252500Y22863D01*
X255231Y23406D01*
X256250Y24087D01*
X257269Y23406D01*
X260000Y22863D01*
X262731Y23406D01*
X265047Y24953D01*
X266594Y27269D01*
X267137Y30000D01*
X266594Y32731D01*
X265913Y33750D01*
X266594Y34769D01*
X267137Y37500D01*
X266594Y40231D01*
X265913Y41250D01*
X266594Y42269D01*
X267137Y45000D01*
X266594Y47731D01*
X265047Y50047D01*
X262731Y51594D01*
X260000Y52137D01*
D02*
G37*
G36*
X167500Y142137D02*
X164769Y141594D01*
X162453Y140047D01*
X160906Y137731D01*
X160363Y135000D01*
X160906Y132269D01*
X162453Y129953D01*
X164769Y128406D01*
X167500Y127863D01*
X170231Y128406D01*
X172547Y129953D01*
X174094Y132269D01*
X174637Y135000D01*
X174094Y137731D01*
X172547Y140047D01*
X170231Y141594D01*
X167500Y142137D01*
D02*
G37*
G36*
X152000Y23000D02*
X145000D01*
Y16000D01*
X152000D01*
Y23000D01*
D02*
G37*
G36*
X270000Y17274D02*
X264538Y16188D01*
X259907Y13093D01*
X256812Y8462D01*
X255726Y3000D01*
X256812Y-2463D01*
X259907Y-7093D01*
X264538Y-10188D01*
X270000Y-11274D01*
X275462Y-10188D01*
X280093Y-7093D01*
X283188Y-2463D01*
X284274Y3000D01*
X283188Y8462D01*
X280093Y13093D01*
X275462Y16188D01*
X270000Y17274D01*
D02*
G37*
G36*
X350000Y17274D02*
X344538Y16188D01*
X339907Y13093D01*
X336812Y8462D01*
X335726Y3000D01*
X336812Y-2463D01*
X339907Y-7093D01*
X344538Y-10188D01*
X350000Y-11274D01*
X355462Y-10188D01*
X360093Y-7093D01*
X363188Y-2463D01*
X364274Y3000D01*
X363188Y8462D01*
X360093Y13093D01*
X355462Y16188D01*
X350000Y17274D01*
D02*
G37*
G36*
X120000Y17274D02*
X114537Y16188D01*
X109907Y13093D01*
X106812Y8462D01*
X105726Y3000D01*
X106812Y-2463D01*
X109907Y-7093D01*
X114537Y-10188D01*
X120000Y-11274D01*
X125463Y-10188D01*
X130093Y-7093D01*
X133188Y-2463D01*
X134274Y3000D01*
X133188Y8462D01*
X130093Y13093D01*
X125463Y16188D01*
X120000Y17274D01*
D02*
G37*
G36*
X380919Y45523D02*
X378188Y44980D01*
X375872Y43433D01*
X374325Y41117D01*
X373782Y38386D01*
X374325Y35655D01*
X375872Y33339D01*
X378188Y31792D01*
X380919Y31249D01*
X383650Y31792D01*
X385966Y33339D01*
X387513Y35655D01*
X388056Y38386D01*
X387513Y41117D01*
X385966Y43433D01*
X383650Y44980D01*
X380919Y45523D01*
D02*
G37*
G36*
X290919Y45523D02*
X288188Y44980D01*
X285872Y43433D01*
X284325Y41117D01*
X283782Y38386D01*
X284325Y35655D01*
X285872Y33339D01*
X288188Y31792D01*
X290919Y31249D01*
X293650Y31792D01*
X295966Y33339D01*
X297513Y35655D01*
X298056Y38386D01*
X297513Y41117D01*
X295966Y43433D01*
X293650Y44980D01*
X290919Y45523D01*
D02*
G37*
G36*
X335919Y45023D02*
X333188Y44480D01*
X330872Y42933D01*
X329325Y40617D01*
X328782Y37886D01*
X329325Y35155D01*
X330872Y32839D01*
X333188Y31292D01*
X335919Y30749D01*
X338650Y31292D01*
X340966Y32839D01*
X342513Y35155D01*
X343056Y37886D01*
X342513Y40617D01*
X340966Y42933D01*
X338650Y44480D01*
X335919Y45023D01*
D02*
G37*
G36*
X425000Y23706D02*
X420903Y22891D01*
X417430Y20570D01*
X416804Y19633D01*
X413196D01*
X412570Y20570D01*
X409097Y22891D01*
X405000Y23706D01*
X400903Y22891D01*
X398500Y21285D01*
X395500Y22671D01*
Y23500D01*
X374500D01*
Y2500D01*
X375330D01*
X376715Y-500D01*
X375109Y-2903D01*
X374294Y-7000D01*
X375109Y-11097D01*
X377430Y-14570D01*
X380903Y-16891D01*
X385000Y-17706D01*
X389097Y-16891D01*
X392570Y-14570D01*
X393497Y-13183D01*
X397105D01*
X397790Y-14210D01*
X401098Y-16420D01*
X402000Y-16599D01*
Y-7000D01*
X408000D01*
Y-16599D01*
X408902Y-16420D01*
X412210Y-14210D01*
X412895Y-13183D01*
X416503D01*
X417430Y-14570D01*
X420903Y-16891D01*
X425000Y-17706D01*
X429097Y-16891D01*
X432570Y-14570D01*
X434891Y-11097D01*
X435706Y-7000D01*
X434891Y-2903D01*
X432570Y570D01*
X431633Y1196D01*
Y4804D01*
X432570Y5430D01*
X434891Y8903D01*
X435706Y13000D01*
X434891Y17097D01*
X432570Y20570D01*
X429097Y22891D01*
X425000Y23706D01*
D02*
G37*
G36*
X311600Y386045D02*
X306723Y385075D01*
X302588Y382312D01*
X300577Y379302D01*
X297223D01*
X295212Y382312D01*
X291077Y385075D01*
X286200Y386045D01*
X281323Y385075D01*
X277188Y382312D01*
X274866Y378837D01*
X274431Y378702D01*
X272423Y378634D01*
X271533Y378837D01*
X269452Y381951D01*
X265482Y384604D01*
X263800Y384938D01*
Y373300D01*
X257800D01*
Y384938D01*
X256118Y384604D01*
X252148Y381951D01*
X250067Y378837D01*
X249177Y378634D01*
X247169Y378702D01*
X246734Y378837D01*
X244412Y382312D01*
X240277Y385075D01*
X235400Y386045D01*
X230523Y385075D01*
X226388Y382312D01*
X224377Y379302D01*
X221023D01*
X219012Y382312D01*
X214877Y385075D01*
X210000Y386045D01*
X205123Y385075D01*
X200988Y382312D01*
X198977Y379302D01*
X195623D01*
X193612Y382312D01*
X189477Y385075D01*
X184600Y386045D01*
X179723Y385075D01*
X175588Y382312D01*
X173577Y379302D01*
X170223D01*
X168212Y382312D01*
X164077Y385075D01*
X159200Y386045D01*
X154323Y385075D01*
X150188Y382312D01*
X148177Y379302D01*
X144823D01*
X142812Y382312D01*
X138677Y385075D01*
X133800Y386045D01*
X128923Y385075D01*
X124788Y382312D01*
X122777Y379302D01*
X119423D01*
X117412Y382312D01*
X113277Y385075D01*
X108400Y386045D01*
X103523Y385075D01*
X99388Y382312D01*
X96625Y378177D01*
X95655Y373300D01*
X96625Y368423D01*
X99388Y364288D01*
X102398Y362277D01*
Y358923D01*
X99388Y356912D01*
X96625Y352777D01*
X95655Y347900D01*
X96625Y343023D01*
X99388Y338888D01*
X103523Y336125D01*
X108400Y335155D01*
X113277Y336125D01*
X117412Y338888D01*
X119423Y341898D01*
X122777D01*
X124788Y338888D01*
X128923Y336125D01*
X133800Y335155D01*
X138677Y336125D01*
X142812Y338888D01*
X144823Y341898D01*
X148177D01*
X150188Y338888D01*
X154323Y336125D01*
X159200Y335155D01*
X164077Y336125D01*
X168212Y338888D01*
X170223Y341898D01*
X173577D01*
X175588Y338888D01*
X179723Y336125D01*
X184600Y335155D01*
X189477Y336125D01*
X193612Y338888D01*
X195623Y341898D01*
X198977D01*
X200988Y338888D01*
X205123Y336125D01*
X210000Y335155D01*
X214877Y336125D01*
X219012Y338888D01*
X221023Y341898D01*
X224377D01*
X226388Y338888D01*
X230523Y336125D01*
X235400Y335155D01*
X240277Y336125D01*
X244412Y338888D01*
X246423Y341898D01*
X249777D01*
X251788Y338888D01*
X255923Y336125D01*
X260800Y335155D01*
X265677Y336125D01*
X269812Y338888D01*
X271823Y341898D01*
X275177D01*
X277188Y338888D01*
X281323Y336125D01*
X286200Y335155D01*
X291077Y336125D01*
X295212Y338888D01*
X296100Y340217D01*
X299100Y339307D01*
Y335400D01*
X324100D01*
Y360400D01*
X320193D01*
X319283Y363400D01*
X320612Y364288D01*
X323375Y368423D01*
X324345Y373300D01*
X323375Y378177D01*
X320612Y382312D01*
X316477Y385075D01*
X311600Y386045D01*
D02*
G37*
G36*
X167500Y329637D02*
X164769Y329094D01*
X162453Y327547D01*
X160906Y325231D01*
X160363Y322500D01*
X160906Y319769D01*
X162453Y317453D01*
X164769Y315906D01*
X167500Y315363D01*
X170231Y315906D01*
X172547Y317453D01*
X174094Y319769D01*
X174637Y322500D01*
X174094Y325231D01*
X172547Y327547D01*
X170231Y329094D01*
X167500Y329637D01*
D02*
G37*
G36*
X265000Y332137D02*
X262269Y331594D01*
X259953Y330047D01*
X258406Y327731D01*
X257863Y325000D01*
X258406Y322269D01*
X259953Y319953D01*
X262269Y318406D01*
X265000Y317863D01*
X267731Y318406D01*
X270047Y319953D01*
X271594Y322269D01*
X272137Y325000D01*
X271594Y327731D01*
X270047Y330047D01*
X267731Y331594D01*
X265000Y332137D01*
D02*
G37*
G36*
X167500Y167137D02*
X164769Y166594D01*
X162453Y165047D01*
X160906Y162731D01*
X160363Y160000D01*
X160906Y157269D01*
X162453Y154953D01*
X164769Y153406D01*
X167500Y152863D01*
X170231Y153406D01*
X172547Y154953D01*
X174094Y157269D01*
X174637Y160000D01*
X174094Y162731D01*
X172547Y165047D01*
X170231Y166594D01*
X167500Y167137D01*
D02*
G37*
G36*
X175000Y232137D02*
X172269Y231594D01*
X169953Y230047D01*
X168406Y227731D01*
X167863Y225000D01*
X168406Y222269D01*
X169953Y219953D01*
X172269Y218406D01*
X175000Y217863D01*
X177731Y218406D01*
X180047Y219953D01*
X181594Y222269D01*
X182137Y225000D01*
X181594Y227731D01*
X180047Y230047D01*
X177731Y231594D01*
X175000Y232137D01*
D02*
G37*
G36*
X387919Y94218D02*
X385188Y93675D01*
X382872Y92128D01*
X381325Y89812D01*
X380782Y87081D01*
X381325Y84350D01*
X382872Y82034D01*
X385188Y80487D01*
X387919Y79944D01*
X390650Y80487D01*
X392966Y82034D01*
X394513Y84350D01*
X395056Y87081D01*
X394513Y89812D01*
X392966Y92128D01*
X390650Y93675D01*
X387919Y94218D01*
D02*
G37*
G36*
X333838Y85137D02*
X331107Y84594D01*
X328791Y83047D01*
X327244Y80731D01*
X326701Y78000D01*
X327244Y75269D01*
X328791Y72953D01*
X331107Y71406D01*
X333838Y70863D01*
X336569Y71406D01*
X338885Y72953D01*
X340432Y75269D01*
X340975Y78000D01*
X340432Y80731D01*
X338885Y83047D01*
X336569Y84594D01*
X333838Y85137D01*
D02*
G37*
G36*
X307000D02*
X304269Y84594D01*
X301953Y83047D01*
X300406Y80731D01*
X299863Y78000D01*
X300406Y75269D01*
X301953Y72953D01*
X304269Y71406D01*
X307000Y70863D01*
X309731Y71406D01*
X312047Y72953D01*
X313594Y75269D01*
X314137Y78000D01*
X313594Y80731D01*
X312047Y83047D01*
X309731Y84594D01*
X307000Y85137D01*
D02*
G37*
G36*
X517000Y131637D02*
X514269Y131094D01*
X511953Y129547D01*
X510406Y127231D01*
X509863Y124500D01*
X510406Y121769D01*
X511953Y119453D01*
X514269Y117906D01*
X517000Y117363D01*
X519731Y117906D01*
X522047Y119453D01*
X523594Y121769D01*
X524137Y124500D01*
X523594Y127231D01*
X522047Y129547D01*
X519731Y131094D01*
X517000Y131637D01*
D02*
G37*
G36*
X285000Y134637D02*
X282269Y134094D01*
X279953Y132547D01*
X278406Y130231D01*
X277863Y127500D01*
X278406Y124769D01*
X279953Y122453D01*
X282269Y120906D01*
X285000Y120363D01*
X287731Y120906D01*
X290047Y122453D01*
X291594Y124769D01*
X292137Y127500D01*
X291594Y130231D01*
X290047Y132547D01*
X287731Y134094D01*
X285000Y134637D01*
D02*
G37*
G36*
X402500Y132137D02*
X399769Y131594D01*
X397453Y130047D01*
X395906Y127731D01*
X395363Y125000D01*
X395906Y122269D01*
X395704Y121780D01*
X394769Y121594D01*
X392453Y120047D01*
X390906Y117731D01*
X390363Y115000D01*
X390906Y112269D01*
X392453Y109953D01*
X394769Y108406D01*
X397500Y107863D01*
X400231Y108406D01*
X402547Y109953D01*
X404094Y112269D01*
X404637Y115000D01*
X404094Y117731D01*
X404296Y118220D01*
X405231Y118406D01*
X407547Y119953D01*
X409094Y122269D01*
X409637Y125000D01*
X409094Y127731D01*
X407547Y130047D01*
X405231Y131594D01*
X402500Y132137D01*
D02*
G37*
G36*
X377919Y135023D02*
X375188Y134480D01*
X372872Y132933D01*
X371325Y130617D01*
X370782Y127886D01*
X371325Y125155D01*
X372872Y122839D01*
X375188Y121292D01*
X377919Y120749D01*
X380650Y121292D01*
X382966Y122839D01*
X384513Y125155D01*
X385056Y127886D01*
X384513Y130617D01*
X382966Y132933D01*
X380650Y134480D01*
X377919Y135023D01*
D02*
G37*
G36*
X507500Y19637D02*
X504769Y19094D01*
X502453Y17547D01*
X500906Y15231D01*
X500363Y12500D01*
X500906Y9769D01*
X502453Y7453D01*
X504769Y5906D01*
X507500Y5363D01*
X510231Y5906D01*
X512547Y7453D01*
X514094Y9769D01*
X514637Y12500D01*
X514094Y15231D01*
X512547Y17547D01*
X510231Y19094D01*
X507500Y19637D01*
D02*
G37*
G36*
X580000Y73660D02*
X575171Y73024D01*
X570670Y71160D01*
X566806Y68194D01*
X563840Y64330D01*
X561976Y59830D01*
X561340Y55000D01*
Y35000D01*
X561976Y30171D01*
X563840Y25670D01*
X566806Y21806D01*
X570670Y18840D01*
X575171Y16976D01*
X580000Y16340D01*
X584829Y16976D01*
X589330Y18840D01*
X593194Y21806D01*
X596160Y25670D01*
X598024Y30171D01*
X598660Y35000D01*
Y55000D01*
X598024Y59830D01*
X596160Y64330D01*
X593194Y68194D01*
X589330Y71160D01*
X584829Y73024D01*
X580000Y73660D01*
D02*
G37*
G36*
X347000Y299137D02*
X344269Y298594D01*
X341953Y297047D01*
X340406Y294731D01*
X339863Y292000D01*
X340406Y289269D01*
X341953Y286953D01*
X344269Y285406D01*
X347000Y284863D01*
X349731Y285406D01*
X352047Y286953D01*
X353594Y289269D01*
X354137Y292000D01*
X353594Y294731D01*
X352047Y297047D01*
X349731Y298594D01*
X347000Y299137D01*
D02*
G37*
G36*
X442499Y307136D02*
X439768Y306593D01*
X437529Y305097D01*
X430811D01*
X430808Y305098D01*
X428857Y304710D01*
X427203Y303605D01*
X413160Y289562D01*
X410174Y289856D01*
X410047Y290047D01*
X407731Y291594D01*
X405000Y292137D01*
X402269Y291594D01*
X399953Y290047D01*
X398406Y287731D01*
X397863Y285000D01*
X398406Y282269D01*
X399953Y279953D01*
X400144Y279826D01*
X400438Y276840D01*
X399395Y275797D01*
X398290Y274143D01*
X397902Y272192D01*
Y240000D01*
X398290Y238049D01*
X399395Y236395D01*
X410395Y225395D01*
X410875Y225075D01*
X410363Y222500D01*
X410906Y219769D01*
X412453Y217453D01*
X414769Y215906D01*
X415902Y213500D01*
Y193083D01*
X412902Y191480D01*
X412731Y191594D01*
X410000Y192137D01*
X407269Y191594D01*
X404953Y190047D01*
X403406Y187731D01*
X402863Y185000D01*
X403406Y182269D01*
X404953Y179953D01*
X407269Y178406D01*
X409544Y177954D01*
X410098Y177758D01*
X412402Y175282D01*
Y164024D01*
X410083Y162121D01*
X410000Y162137D01*
X407269Y161594D01*
X404953Y160047D01*
X403406Y157731D01*
X402863Y155000D01*
X403406Y152269D01*
X404953Y149953D01*
X407269Y148406D01*
X410000Y147863D01*
X410083Y147879D01*
X412402Y145976D01*
Y137500D01*
X412790Y135549D01*
X412930Y135339D01*
X412863Y135000D01*
X413406Y132269D01*
X414953Y129953D01*
X417269Y128406D01*
X420000Y127863D01*
X422731Y128406D01*
X425047Y129953D01*
X426594Y132269D01*
X427137Y135000D01*
X427178Y135041D01*
X427500Y134977D01*
X430231Y135520D01*
X432547Y137067D01*
X434094Y139383D01*
X434637Y142114D01*
X434094Y144845D01*
X432547Y147161D01*
X430231Y148708D01*
X427500Y149251D01*
X425598Y148873D01*
X422598Y150591D01*
Y174832D01*
X424605Y176839D01*
X425710Y178493D01*
X426098Y180444D01*
Y211388D01*
X428605Y213895D01*
X429710Y215549D01*
X430098Y217500D01*
Y224192D01*
X429710Y226143D01*
X429270Y226802D01*
X431433Y228965D01*
X432269Y228406D01*
X435000Y227863D01*
X437731Y228406D01*
X437985Y228576D01*
X438856Y228363D01*
X440902Y226917D01*
Y142711D01*
X440363Y140000D01*
X440906Y137269D01*
X442453Y134953D01*
X444769Y133406D01*
X447500Y132863D01*
X450231Y133406D01*
X452525Y134939D01*
X452722Y134901D01*
X455552Y134051D01*
X455906Y132269D01*
X457453Y129953D01*
X459769Y128406D01*
X462500Y127863D01*
X465231Y128406D01*
X467547Y129953D01*
X469094Y132269D01*
X469637Y135000D01*
X469094Y137731D01*
X467547Y140047D01*
X465231Y141594D01*
X462500Y142137D01*
X459769Y141594D01*
X457475Y140061D01*
X457278Y140099D01*
X454448Y140949D01*
X454094Y142731D01*
X452547Y145047D01*
X451098Y146015D01*
Y166712D01*
X452500Y167863D01*
X455231Y168406D01*
X457547Y169953D01*
X459094Y172269D01*
X459637Y175000D01*
X459100Y177698D01*
X462605Y181203D01*
X463710Y182857D01*
X464098Y184808D01*
Y190192D01*
X463710Y192143D01*
X462605Y193797D01*
X460542Y195860D01*
Y233727D01*
X463542Y235653D01*
X465000Y235363D01*
X467731Y235906D01*
X470047Y237453D01*
X471594Y239769D01*
X472137Y242500D01*
X471594Y245231D01*
X470047Y247547D01*
X467731Y249094D01*
X465000Y249637D01*
X463542Y249347D01*
X460542Y251273D01*
Y279556D01*
X460154Y281507D01*
X459048Y283161D01*
X457119Y285091D01*
X456594Y287731D01*
X455047Y290047D01*
X452731Y291594D01*
X450000Y292137D01*
X448194Y291778D01*
X447024Y294604D01*
X447546Y294953D01*
X449093Y297268D01*
X449636Y299999D01*
X449093Y302731D01*
X447546Y305046D01*
X445230Y306593D01*
X442499Y307136D01*
D02*
G37*
G36*
X472114Y289637D02*
X469383Y289094D01*
X467067Y287547D01*
X465520Y285231D01*
X464977Y282500D01*
X465520Y279769D01*
X467067Y277453D01*
X469383Y275906D01*
X472114Y275363D01*
X473243Y275588D01*
X473406Y274769D01*
X474953Y272453D01*
X477269Y270906D01*
X480000Y270363D01*
X482731Y270906D01*
X485047Y272453D01*
X486594Y274769D01*
X487137Y277500D01*
X486594Y280231D01*
X485047Y282547D01*
X482731Y284094D01*
X480000Y284637D01*
X478871Y284412D01*
X478708Y285231D01*
X477161Y287547D01*
X474845Y289094D01*
X472114Y289637D01*
D02*
G37*
G36*
X580000Y283660D02*
X575171Y283024D01*
X570670Y281160D01*
X566806Y278194D01*
X563840Y274330D01*
X561976Y269830D01*
X561340Y265000D01*
Y245000D01*
X561976Y240170D01*
X563840Y235670D01*
X566806Y231806D01*
X570670Y228840D01*
X575171Y226976D01*
X580000Y226340D01*
X584829Y226976D01*
X589330Y228840D01*
X593194Y231806D01*
X596160Y235670D01*
X598024Y240170D01*
X598660Y245000D01*
Y265000D01*
X598024Y269830D01*
X596160Y274330D01*
X593194Y278194D01*
X589330Y281160D01*
X584829Y283024D01*
X580000Y283660D01*
D02*
G37*
G36*
X486000Y256137D02*
X483269Y255594D01*
X480953Y254047D01*
X479406Y251731D01*
X478863Y249000D01*
X479406Y246269D01*
X480953Y243953D01*
X482303Y243052D01*
X483242Y241626D01*
X483166Y239368D01*
X482406Y238231D01*
X481863Y235500D01*
X482406Y232769D01*
X483953Y230453D01*
X486269Y228906D01*
X489000Y228363D01*
X491731Y228906D01*
X494000Y230422D01*
X496269Y228906D01*
X499000Y228363D01*
X501731Y228906D01*
X504047Y230453D01*
X504953D01*
X507269Y228906D01*
X510000Y228363D01*
X512731Y228906D01*
X515000Y230422D01*
X517269Y228906D01*
X520000Y228363D01*
X522731Y228906D01*
X524751Y230256D01*
X524953Y229953D01*
X527269Y228406D01*
X530000Y227863D01*
X532731Y228406D01*
X535047Y229953D01*
X536594Y232269D01*
X537137Y235000D01*
X536594Y237731D01*
X535047Y240047D01*
X532731Y241594D01*
X530000Y242137D01*
X527269Y241594D01*
X525249Y240244D01*
X525047Y240547D01*
X522731Y242094D01*
X520000Y242637D01*
X517269Y242094D01*
X515000Y240578D01*
X512731Y242094D01*
X510000Y242637D01*
X507269Y242094D01*
X504953Y240547D01*
X504047D01*
X501731Y242094D01*
X499000Y242637D01*
X496269Y242094D01*
X495495Y241577D01*
X494528Y241666D01*
X492887Y242502D01*
X492173Y245639D01*
X492594Y246269D01*
X493137Y249000D01*
X492594Y251731D01*
X491047Y254047D01*
X488731Y255594D01*
X486000Y256137D01*
D02*
G37*
G36*
X477114Y389251D02*
X474383Y388708D01*
X472067Y387161D01*
X470520Y384845D01*
X469977Y382114D01*
X470520Y379383D01*
X472067Y377067D01*
X474383Y375520D01*
X477114Y374977D01*
X479845Y375520D01*
X482161Y377067D01*
X483708Y379383D01*
X484251Y382114D01*
X483708Y384845D01*
X482161Y387161D01*
X479845Y388708D01*
X477114Y389251D01*
D02*
G37*
G36*
X420000Y359637D02*
X417269Y359094D01*
X414953Y357547D01*
X413406Y355231D01*
X412863Y352500D01*
X413406Y349769D01*
X414953Y347453D01*
X417269Y345906D01*
X420000Y345363D01*
X422731Y345906D01*
X425047Y347453D01*
X426594Y349769D01*
X427137Y352500D01*
X426594Y355231D01*
X425047Y357547D01*
X422731Y359094D01*
X420000Y359637D01*
D02*
G37*
G36*
X250000Y177137D02*
X247269Y176594D01*
X244953Y175047D01*
X243406Y172731D01*
X242863Y170000D01*
X243406Y167269D01*
X244953Y164953D01*
X247269Y163406D01*
X250000Y162863D01*
X252731Y163406D01*
X255047Y164953D01*
X256594Y167269D01*
X257137Y170000D01*
X256594Y172731D01*
X255047Y175047D01*
X252731Y176594D01*
X250000Y177137D01*
D02*
G37*
G36*
X219000Y208137D02*
X216269Y207594D01*
X213953Y206047D01*
X212406Y203731D01*
X211863Y201000D01*
X212406Y198269D01*
X212920Y197500D01*
X212406Y196731D01*
X211863Y194000D01*
X212406Y191269D01*
X212920Y190500D01*
X212406Y189731D01*
X211863Y187000D01*
X212406Y184269D01*
X212920Y183500D01*
X212406Y182731D01*
X211863Y180000D01*
X212406Y177269D01*
X213953Y174953D01*
X216269Y173406D01*
X219000Y172863D01*
X221731Y173406D01*
X224047Y174953D01*
X225594Y177269D01*
X226137Y180000D01*
X225594Y182731D01*
X225080Y183500D01*
X225594Y184269D01*
X226137Y187000D01*
X225594Y189731D01*
X225080Y190500D01*
X225594Y191269D01*
X226137Y194000D01*
X225594Y196731D01*
X225080Y197500D01*
X225594Y198269D01*
X226137Y201000D01*
X225594Y203731D01*
X224047Y206047D01*
X221731Y207594D01*
X219000Y208137D01*
D02*
G37*
G36*
X333919Y135023D02*
X331188Y134480D01*
X328872Y132933D01*
X328853Y132904D01*
X327072Y134094D01*
X324341Y134637D01*
X321609Y134094D01*
X319294Y132547D01*
X317747Y130231D01*
X317204Y127500D01*
X317747Y124769D01*
X319294Y122453D01*
X321609Y120906D01*
X324341Y120363D01*
X327072Y120906D01*
X329387Y122453D01*
X329407Y122482D01*
X331188Y121292D01*
X333919Y120749D01*
X336650Y121292D01*
X338966Y122839D01*
X340513Y125155D01*
X341056Y127886D01*
X340513Y130617D01*
X338966Y132933D01*
X336650Y134480D01*
X333919Y135023D01*
D02*
G37*
G36*
X285000Y160637D02*
X282269Y160094D01*
X279953Y158547D01*
X278406Y156231D01*
X277863Y153500D01*
X278406Y150769D01*
X279953Y148453D01*
X282269Y146906D01*
X285000Y146363D01*
X287731Y146906D01*
X290047Y148453D01*
X291594Y150769D01*
X292137Y153500D01*
X291594Y156231D01*
X290047Y158547D01*
X287731Y160094D01*
X285000Y160637D01*
D02*
G37*
G36*
X347300Y241937D02*
X344569Y241394D01*
X342253Y239847D01*
X340706Y237531D01*
X340163Y234800D01*
X340706Y232069D01*
X341084Y231503D01*
X341731Y229187D01*
X340319Y227659D01*
X339553Y227147D01*
X338006Y224831D01*
X337463Y222100D01*
X338006Y219369D01*
X339553Y217053D01*
X341869Y215506D01*
X344600Y214963D01*
X347331Y215506D01*
X349647Y217053D01*
X351194Y219369D01*
X351737Y222100D01*
X351194Y224831D01*
X350816Y225397D01*
X350169Y227712D01*
X351581Y229241D01*
X352347Y229753D01*
X353894Y232069D01*
X354437Y234800D01*
X353894Y237531D01*
X352347Y239847D01*
X350031Y241394D01*
X347300Y241937D01*
D02*
G37*
G36*
X384500Y230137D02*
X381769Y229594D01*
X379453Y228047D01*
X377906Y225731D01*
X377363Y223000D01*
X377906Y220269D01*
X379040Y218573D01*
X378753Y217218D01*
X378444Y216498D01*
X377756Y215505D01*
X375688Y215094D01*
X373372Y213547D01*
X371825Y211231D01*
X371633Y210263D01*
X368789Y208627D01*
X368484Y208643D01*
X366000Y209137D01*
X363269Y208594D01*
X360953Y207047D01*
X359406Y204731D01*
X359168Y203534D01*
X356032Y202025D01*
X355181Y202594D01*
X352450Y203137D01*
X349718Y202594D01*
X347403Y201047D01*
X345856Y198731D01*
X345692Y197909D01*
X342385Y196510D01*
X342260Y196594D01*
X339529Y197137D01*
X336797Y196594D01*
X334482Y195047D01*
X332935Y192731D01*
X332870Y192405D01*
X330181Y190594D01*
X327450Y191137D01*
X324718Y190594D01*
X322403Y189047D01*
X320856Y186731D01*
X320313Y184000D01*
X320433Y183397D01*
X317733Y181593D01*
X317731Y181594D01*
X315000Y182137D01*
X312269Y181594D01*
X309953Y180047D01*
X308406Y177731D01*
X307863Y175000D01*
X308406Y172269D01*
X309953Y169953D01*
Y168032D01*
X308406Y165717D01*
X307863Y162985D01*
X308406Y160254D01*
X309953Y157939D01*
X312269Y156391D01*
X315000Y155848D01*
X317731Y156391D01*
X319216Y157384D01*
X321250Y157732D01*
X323284Y157384D01*
X324769Y156391D01*
X327500Y155848D01*
X330231Y156391D01*
X331390Y157166D01*
X333514Y157697D01*
X335639Y157166D01*
X336797Y156391D01*
X339529Y155848D01*
X342260Y156391D01*
X344575Y157939D01*
X347403D01*
X349718Y156391D01*
X352450Y155848D01*
X355181Y156391D01*
X357496Y157939D01*
X360459D01*
X362775Y156391D01*
X365506Y155848D01*
X368237Y156391D01*
X370553Y157939D01*
X373322D01*
X375637Y156391D01*
X378369Y155848D01*
X381100Y156391D01*
X383415Y157939D01*
X384963Y160254D01*
X385506Y162985D01*
X384963Y165717D01*
X383415Y168032D01*
X381100Y169579D01*
X378369Y170123D01*
X375637Y169579D01*
X373322Y168032D01*
X370553D01*
X368237Y169579D01*
X365506Y170123D01*
X362775Y169579D01*
X360459Y168032D01*
X357496D01*
X355181Y169579D01*
X352450Y170123D01*
X349718Y169579D01*
X347403Y168032D01*
X344575D01*
X342260Y169579D01*
X339529Y170123D01*
X336797Y169579D01*
X335639Y168805D01*
X333514Y168274D01*
X331390Y168805D01*
X330231Y169579D01*
X327500Y170122D01*
X324769Y169579D01*
X321296Y170601D01*
X320991Y171072D01*
X320967Y171331D01*
X321594Y172269D01*
X322137Y175000D01*
X322017Y175603D01*
X324717Y177407D01*
X324718Y177406D01*
X327450Y176863D01*
X330181Y177406D01*
X332496Y178953D01*
X334044Y181269D01*
X334108Y181595D01*
X336797Y183406D01*
X339529Y182863D01*
X342260Y183406D01*
X344575Y184953D01*
X346123Y187269D01*
X346286Y188091D01*
X349593Y189490D01*
X349718Y189406D01*
X352450Y188863D01*
X355181Y189406D01*
X357496Y190953D01*
X359044Y193269D01*
X359282Y194466D01*
X362418Y195975D01*
X363269Y195406D01*
X366000Y194863D01*
X368731Y195406D01*
X371047Y196953D01*
X372594Y199269D01*
X372786Y200237D01*
X375630Y201873D01*
X375935Y201857D01*
X378419Y201363D01*
X381150Y201906D01*
X383466Y203453D01*
X385013Y205769D01*
X385556Y208500D01*
X385013Y211231D01*
X383880Y212927D01*
X384166Y214282D01*
X384475Y215002D01*
X385163Y215995D01*
X387231Y216406D01*
X389547Y217953D01*
X391094Y220269D01*
X391637Y223000D01*
X391094Y225731D01*
X389547Y228047D01*
X387231Y229594D01*
X384500Y230137D01*
D02*
G37*
G36*
X522500Y197137D02*
X519769Y196594D01*
X517453Y195047D01*
X515906Y192731D01*
X515363Y190000D01*
X515906Y187269D01*
X517453Y184953D01*
X519769Y183406D01*
X522500Y182863D01*
X525231Y183406D01*
X527547Y184953D01*
X529094Y187269D01*
X529637Y190000D01*
X529094Y192731D01*
X527547Y195047D01*
X525231Y196594D01*
X522500Y197137D01*
D02*
G37*
G36*
X472500Y213137D02*
X469769Y212594D01*
X467453Y211047D01*
X465906Y208731D01*
X465363Y206000D01*
X465906Y203269D01*
X467453Y200953D01*
X469769Y199406D01*
X472500Y198863D01*
X475231Y199406D01*
X477547Y200953D01*
X479094Y203269D01*
X479637Y206000D01*
X479094Y208731D01*
X477547Y211047D01*
X475231Y212594D01*
X472500Y213137D01*
D02*
G37*
%LPD*%
D32*
X420000Y135000D02*
X421000Y136000D01*
X425000Y217500D02*
Y224192D01*
X421000Y213500D02*
X425000Y217500D01*
X421000Y180444D02*
Y213500D01*
X417500Y176944D02*
X421000Y180444D01*
X417500Y137500D02*
Y176944D01*
X403000Y272192D02*
X430808Y300000D01*
X403000Y240000D02*
Y272192D01*
X430808Y300000D02*
X430808Y299999D01*
X442499D01*
X420192Y229000D02*
X425000Y224192D01*
X403000Y240000D02*
X414000Y229000D01*
X420192D01*
X431000Y285000D02*
X450944Y265056D01*
Y232808D02*
Y265056D01*
X446000Y141500D02*
X447500Y140000D01*
X446000Y227864D02*
X450944Y232808D01*
X446000Y141500D02*
Y227864D01*
X450000Y285000D02*
X455444Y279556D01*
Y193749D02*
Y279556D01*
Y193749D02*
X459000Y190192D01*
Y184808D02*
Y190192D01*
X452500Y178308D02*
X459000Y184808D01*
X452500Y175000D02*
Y178308D01*
D38*
X260800Y373300D02*
D03*
D41*
X405000Y-7000D02*
D03*
D42*
X155000Y13000D02*
D03*
D43*
X242500Y135000D02*
D03*
X219000Y187000D02*
D03*
Y194000D02*
D03*
X375000Y285000D02*
D03*
X420000Y135000D02*
D03*
X240000Y322500D02*
D03*
X323419Y38386D02*
D03*
X368419Y38386D02*
D03*
X278419Y38386D02*
D03*
X482500Y190000D02*
D03*
X462500Y202500D02*
D03*
Y172500D02*
D03*
X205000Y147500D02*
D03*
X217500D02*
D03*
X230000D02*
D03*
X242500D02*
D03*
X255000D02*
D03*
X267500D02*
D03*
X205000Y135000D02*
D03*
X217500D02*
D03*
X230000D02*
D03*
X255000D02*
D03*
X267500D02*
D03*
X230000Y110000D02*
D03*
X217500D02*
D03*
X205000D02*
D03*
X267500Y122500D02*
D03*
X255000D02*
D03*
X242500D02*
D03*
X230000D02*
D03*
X217500D02*
D03*
X205000D02*
D03*
Y97500D02*
D03*
X217500D02*
D03*
X402419Y372419D02*
D03*
X477114Y334614D02*
D03*
X464292Y78208D02*
D03*
X600000Y207500D02*
D03*
X582500Y155000D02*
D03*
X230000Y97500D02*
D03*
X447500Y140000D02*
D03*
X452500Y175000D02*
D03*
X442499Y299999D02*
D03*
X450000Y285000D02*
D03*
X431000Y285000D02*
D03*
X357500Y107500D02*
D03*
M02*
