G04 Layer_Color=16711935*
%FSLAX44Y44*%
%MOMM*%
G71*
G01*
G75*
%ADD58R,0.9000X1.2000*%
%ADD69R,1.6000X1.8500*%
%ADD72R,1.0500X1.0500*%
%ADD78R,0.8000X2.2000*%
%ADD80R,1.0500X1.0500*%
%ADD81C,2.0000*%
%ADD82R,1.6000X1.6000*%
%ADD83C,1.6000*%
%ADD84C,2.6000*%
%ADD85C,1.9000*%
%ADD86R,1.9000X1.9000*%
%ADD87O,3.4000X5.4000*%
%ADD88R,1.2000X0.9000*%
%ADD89R,2.2000X0.8000*%
%ADD90R,7.8500X6.2500*%
%ADD91R,3.0500X3.6500*%
%ADD92R,2.8000X1.3000*%
D58*
X357500Y-123000D02*
D03*
X348000Y-147000D02*
D03*
X367000D02*
D03*
X307000D02*
D03*
X288000D02*
D03*
X297500Y-123000D02*
D03*
D69*
X31000Y-148000D02*
D03*
Y-178000D02*
D03*
D72*
X324500Y-100000D02*
D03*
X310500D02*
D03*
X53000Y87500D02*
D03*
X67000D02*
D03*
X67000Y72500D02*
D03*
X53000D02*
D03*
X385500Y-35000D02*
D03*
X399500D02*
D03*
X329000Y-40000D02*
D03*
X315000D02*
D03*
D78*
X5000Y17500D02*
D03*
X55000D02*
D03*
X45000D02*
D03*
X35000D02*
D03*
X25000D02*
D03*
X15000D02*
D03*
X5000Y-102500D02*
D03*
X15000D02*
D03*
X25000D02*
D03*
X35000D02*
D03*
X45000D02*
D03*
X55000D02*
D03*
D80*
X260000Y5000D02*
D03*
Y19000D02*
D03*
X327500Y-123000D02*
D03*
Y-137000D02*
D03*
X-23000Y14000D02*
D03*
Y0D02*
D03*
X-12500Y-90500D02*
D03*
Y-104500D02*
D03*
X235000Y-115500D02*
D03*
Y-129500D02*
D03*
X342500Y-179500D02*
D03*
Y-165500D02*
D03*
X282500Y-179500D02*
D03*
Y-165500D02*
D03*
X10000Y73000D02*
D03*
Y87000D02*
D03*
X25000Y73000D02*
D03*
Y87000D02*
D03*
X-30000Y-78000D02*
D03*
Y-92000D02*
D03*
X-45000Y-78000D02*
D03*
Y-92000D02*
D03*
X367500Y-165500D02*
D03*
Y-179500D02*
D03*
X355000Y-165500D02*
D03*
Y-179500D02*
D03*
X307500Y-165500D02*
D03*
Y-179500D02*
D03*
X295000Y-165500D02*
D03*
Y-179500D02*
D03*
X-17500Y87000D02*
D03*
Y73000D02*
D03*
X40000Y73000D02*
D03*
Y87000D02*
D03*
X270000Y-123000D02*
D03*
Y-137000D02*
D03*
X192501Y-59499D02*
D03*
Y-45499D02*
D03*
X380000Y-132000D02*
D03*
Y-118000D02*
D03*
X352500Y-9500D02*
D03*
Y4500D02*
D03*
X390000Y-5500D02*
D03*
Y-19500D02*
D03*
X353000Y-65000D02*
D03*
Y-79000D02*
D03*
D81*
X370000Y125000D02*
D03*
X202500Y-167500D02*
D03*
D82*
X45000Y-215000D02*
D03*
X285000D02*
D03*
D83*
X125000Y-235000D02*
D03*
X145000Y-215000D02*
D03*
Y-235000D02*
D03*
X45000D02*
D03*
X65000Y-215000D02*
D03*
Y-235000D02*
D03*
X85000Y-215000D02*
D03*
Y-235000D02*
D03*
X105000Y-215000D02*
D03*
Y-235000D02*
D03*
X125000Y-215000D02*
D03*
X285000Y-235000D02*
D03*
X305000Y-215000D02*
D03*
Y-235000D02*
D03*
X325000Y-215000D02*
D03*
Y-235000D02*
D03*
X-12500Y-147500D02*
D03*
X89000Y65000D02*
D03*
D84*
X10000Y-225000D02*
D03*
X180000D02*
D03*
X250000D02*
D03*
X360000D02*
D03*
D85*
X-1600Y122900D02*
D03*
Y148300D02*
D03*
X150800Y122900D02*
D03*
X176200Y148300D02*
D03*
Y122900D02*
D03*
X201600D02*
D03*
X125400D02*
D03*
X100000D02*
D03*
X125400Y148300D02*
D03*
X150800D02*
D03*
X100000D02*
D03*
X23800D02*
D03*
X74600D02*
D03*
X49200D02*
D03*
X23800Y122900D02*
D03*
X49200D02*
D03*
X74600D02*
D03*
D86*
X201600Y148300D02*
D03*
D87*
X-75000Y30000D02*
D03*
X470000D02*
D03*
Y-180000D02*
D03*
X-75000Y-180000D02*
D03*
D88*
X399500Y-63000D02*
D03*
Y-82000D02*
D03*
X375500Y-72500D02*
D03*
D89*
X90000Y-47500D02*
D03*
Y-37500D02*
D03*
X-30000Y-47500D02*
D03*
Y-37500D02*
D03*
D90*
X127500Y-100750D02*
D03*
D91*
X108450Y-154250D02*
D03*
X146550D02*
D03*
D92*
X63000Y-179500D02*
D03*
Y-144500D02*
D03*
X160000Y-42500D02*
D03*
Y-7500D02*
D03*
X197500Y-85000D02*
D03*
Y-120000D02*
D03*
M02*
