G04 Layer_Physical_Order=4*
G04 Layer_Color=16711680*
%FSLAX44Y44*%
%MOMM*%
G71*
G01*
G75*
%ADD10R,0.8500X0.8500*%
%ADD11R,0.8500X0.8500*%
%ADD13R,0.6000X1.0000*%
%ADD23R,1.6000X1.2000*%
%ADD26C,1.0000*%
%ADD34C,0.3000*%
%ADD35C,0.5000*%
%ADD36C,0.2000*%
%ADD37C,0.4000*%
%ADD38C,2.2000*%
%ADD39O,1.2000X1.6500*%
%ADD40R,1.4000X1.4000*%
%ADD41C,1.4000*%
%ADD42C,1.8000*%
%ADD43R,1.8000X1.8000*%
%ADD44C,0.7000*%
%ADD45C,0.8000*%
%ADD46C,0.7500*%
%ADD50R,2.9000X3.5000*%
%ADD51R,7.7000X6.1000*%
%ADD52R,1.0000X0.6000*%
%ADD53R,2.0000X0.6500*%
%ADD54R,0.6000X2.0000*%
%ADD55R,1.6000X1.0000*%
%ADD56R,2.6000X1.1000*%
%ADD57R,2.6000X1.5000*%
G36*
X292500Y212500D02*
X255608D01*
X255608Y212500D01*
X255181Y214646D01*
X253965Y216465D01*
X252146Y217681D01*
X250000Y218108D01*
X247854Y217681D01*
X246035Y216465D01*
X244819Y214646D01*
X244392Y212500D01*
X244392Y212500D01*
X168041D01*
X167500Y212608D01*
X166958Y212500D01*
X112500D01*
X112500Y251000D01*
X292500D01*
X292500Y212500D01*
D02*
G37*
G36*
X205000Y118000D02*
X139000Y118000D01*
X139000Y76000D01*
X147000Y76000D01*
X160000Y63000D01*
X160000Y40000D01*
X151000D01*
X151000Y64000D01*
X145000Y70000D01*
X141000D01*
X125000Y70000D01*
X125000Y134000D01*
X205000Y134000D01*
X205000Y118000D01*
D02*
G37*
G36*
X271000Y90000D02*
X160000Y90000D01*
X160000Y83000D01*
X175000Y68000D01*
X175000Y60000D01*
X170000Y60000D01*
X170000Y65000D01*
X156000Y79000D01*
X144000Y79000D01*
Y100000D01*
X202000D01*
Y98000D01*
X235000D01*
Y100000D01*
X242000D01*
Y105000D01*
X271000D01*
X271000Y90000D01*
D02*
G37*
%LPC*%
G36*
X212000Y242750D02*
X176000D01*
X176000Y222250D01*
X188000Y222250D01*
X212000D01*
Y232250D01*
Y242750D01*
D02*
G37*
G36*
X267000Y241000D02*
X254000D01*
Y235500D01*
X267000D01*
Y241000D01*
D02*
G37*
G36*
X286000D02*
X273000D01*
Y235500D01*
X286000D01*
Y241000D01*
D02*
G37*
G36*
X267000Y229500D02*
X254000D01*
Y224000D01*
X267000D01*
Y229500D01*
D02*
G37*
G36*
X286000D02*
X273000D01*
Y224000D01*
X286000D01*
Y229500D01*
D02*
G37*
%LPD*%
D10*
X425500Y237500D02*
D03*
X439500D02*
D03*
X509500Y240000D02*
D03*
X495500D02*
D03*
X163000Y347500D02*
D03*
X177000D02*
D03*
X177000Y362500D02*
D03*
X163000D02*
D03*
X420500Y175000D02*
D03*
X434500D02*
D03*
D11*
X462500Y195500D02*
D03*
Y209500D02*
D03*
X500000Y255500D02*
D03*
Y269500D02*
D03*
X462500Y279500D02*
D03*
Y265500D02*
D03*
X490000Y157000D02*
D03*
Y143000D02*
D03*
X302501Y229501D02*
D03*
Y215501D02*
D03*
X380000Y138000D02*
D03*
Y152000D02*
D03*
X150000Y362000D02*
D03*
Y348000D02*
D03*
X92500Y348000D02*
D03*
Y362000D02*
D03*
X405000Y95500D02*
D03*
Y109500D02*
D03*
X417500Y95500D02*
D03*
Y109500D02*
D03*
X465000Y95500D02*
D03*
Y109500D02*
D03*
X477500Y95500D02*
D03*
Y109500D02*
D03*
X65000Y183000D02*
D03*
Y197000D02*
D03*
X80000Y183000D02*
D03*
Y197000D02*
D03*
X135000Y362000D02*
D03*
Y348000D02*
D03*
X120000Y362000D02*
D03*
Y348000D02*
D03*
X370000Y294000D02*
D03*
Y280000D02*
D03*
X392500Y109500D02*
D03*
Y95500D02*
D03*
X452500Y109500D02*
D03*
Y95500D02*
D03*
X345000Y145500D02*
D03*
Y159500D02*
D03*
X97500Y170500D02*
D03*
Y184500D02*
D03*
X87000Y275000D02*
D03*
Y289000D02*
D03*
X437500Y138000D02*
D03*
Y152000D02*
D03*
D13*
X467500Y152000D02*
D03*
X458000Y128000D02*
D03*
X477000D02*
D03*
X407500Y152000D02*
D03*
X398000Y128000D02*
D03*
X417000D02*
D03*
D23*
X152000D02*
D03*
Y96000D02*
D03*
D26*
X22000Y174000D02*
D03*
X518000Y427000D02*
D03*
D34*
X315000Y212985D02*
Y225000D01*
X339529Y212985D02*
Y240000D01*
X327500Y212985D02*
Y233950D01*
X352450Y214036D02*
Y246000D01*
Y214036D02*
X352500Y213985D01*
X365556D02*
X366000Y214429D01*
X92500Y348000D02*
X105000D01*
X105000Y348000D01*
X366000Y214429D02*
Y252000D01*
X378419Y213985D02*
Y258500D01*
X510000Y285000D02*
Y302000D01*
X412500Y247500D02*
X435000D01*
X333919Y177886D02*
X367886D01*
X331227Y184386D02*
X336611D01*
X336749Y184249D01*
X366749D01*
X367886Y177886D02*
X397500Y207500D01*
X377919Y177886D02*
X402500Y202467D01*
Y237500D01*
X412500Y247500D01*
X397500Y207500D02*
Y238864D01*
X410636Y252000D01*
X432000D01*
X366749Y184249D02*
X393000Y210500D01*
Y240728D01*
X408772Y256500D01*
X421500D01*
X425000Y260000D01*
X167500Y372500D02*
Y380000D01*
X171700Y384200D01*
Y410800D01*
X92500Y302500D02*
Y348000D01*
X332500Y67500D02*
Y72500D01*
X440000Y87500D02*
Y105000D01*
X444500Y109500D01*
X452500D01*
X332500Y72500D02*
X335000Y75000D01*
X320000Y67500D02*
X332500Y80000D01*
X350000D01*
X379500Y109500D01*
X392500D01*
X500000Y152000D02*
Y197500D01*
X509500Y207000D01*
Y212000D01*
X490500D02*
X509500D01*
X471500Y231000D02*
Y245808D01*
Y231000D02*
X490500Y212000D01*
X471500Y245808D02*
X479000Y253308D01*
X476000Y232864D02*
Y242692D01*
X485000Y251692D01*
Y262500D01*
X492000Y269500D01*
X500000D01*
X504500Y179500D02*
X509500Y184500D01*
Y193000D01*
X509000Y116000D02*
Y177636D01*
X536500Y205136D01*
Y301000D01*
X495000Y342500D02*
X536500Y301000D01*
X444371Y285500D02*
X444444D01*
X435000Y247500D02*
X444444Y256944D01*
X432000Y252000D02*
X435000Y255000D01*
X444444Y256944D02*
Y285500D01*
X435000Y255000D02*
Y285000D01*
X347500Y342500D02*
X495000D01*
X407500Y152000D02*
Y165000D01*
X259000Y25000D02*
X484950D01*
X255000Y29000D02*
X259000Y25000D01*
X255000Y29000D02*
Y40000D01*
X241000Y20000D02*
X486314D01*
X235000Y26000D02*
X241000Y20000D01*
X235000Y26000D02*
Y40000D01*
X225000Y15000D02*
X487678D01*
X215000Y25000D02*
X225000Y15000D01*
X215000Y25000D02*
Y40000D01*
X511000Y319000D02*
X530000Y300000D01*
X207500Y284800D02*
X241700Y319000D01*
X506500Y314500D02*
X520000Y301000D01*
X207500Y275000D02*
X247000Y314500D01*
X502000Y310000D02*
X510000Y302000D01*
X207500Y265000D02*
X252500Y310000D01*
X241700Y319000D02*
X511000D01*
X247000Y314500D02*
X506500D01*
X252500Y310000D02*
X502000D01*
X425000Y260000D02*
Y285000D01*
X347500Y272500D02*
X348500D01*
X370000Y294000D01*
Y295000D02*
X425660D01*
X417000Y110000D02*
Y128000D01*
Y110000D02*
X417500Y109500D01*
X417500Y109500D01*
X393500Y109500D02*
X417500D01*
X418500D01*
X477000Y110000D02*
Y128000D01*
X491000Y143000D02*
X500000Y152000D01*
X380000Y152000D02*
X407500D01*
X437500D02*
X467500D01*
X484950Y25000D02*
X491000Y31050D01*
Y143000D01*
X335000Y75000D02*
X427500D01*
X440000Y87500D01*
X95000Y152500D02*
X142500D01*
X145000Y155000D01*
Y172500D01*
X80000Y167500D02*
X95000Y152500D01*
X80000Y167500D02*
Y183000D01*
X65000Y175000D02*
Y183000D01*
Y175000D02*
X92000Y148000D01*
X148000D01*
X155000Y155000D01*
Y172500D01*
X105000Y348000D02*
X120000D01*
X125000Y292500D02*
Y327500D01*
X120000Y332500D02*
X125000Y327500D01*
X120000Y332500D02*
Y348000D01*
X135000Y292500D02*
Y348000D01*
X150000Y362000D02*
X162500D01*
X163000Y347500D02*
Y362500D01*
X117500Y372500D02*
X132500D01*
X135000Y370000D01*
Y362000D02*
Y370000D01*
X145000Y292500D02*
Y327500D01*
X87000Y289000D02*
Y297000D01*
X92500Y302500D01*
X87000Y268000D02*
Y275000D01*
Y268000D02*
X89000Y266000D01*
X141000D01*
X145000Y270000D01*
Y292500D01*
X355000Y267000D02*
X412000D01*
X417500Y272500D01*
X401000Y438000D02*
X416000Y423000D01*
X146700Y389000D02*
Y431700D01*
X153000Y438000D01*
X401000D01*
X344000Y256000D02*
X355000Y267000D01*
X183500Y302500D02*
X191000Y295000D01*
Y270000D02*
Y295000D01*
Y270000D02*
X205000Y256000D01*
X344000D01*
X425660Y295000D02*
X429660Y299000D01*
X486000D01*
X453500Y109500D02*
X478500D01*
X500000Y269500D02*
Y285000D01*
X520000Y301000D02*
X520000Y301000D01*
X520000Y285000D02*
Y301000D01*
X530000Y285000D02*
Y300000D01*
X488500Y285000D02*
X489000D01*
X479500Y275500D02*
X489000Y285000D01*
X479000Y253308D02*
Y275000D01*
X145000Y327500D02*
X150000Y332500D01*
Y348000D01*
X467500Y165000D02*
X467500Y165000D01*
X467500Y152000D02*
Y165000D01*
X509500Y193000D02*
X518000D01*
X519000Y194000D01*
X476000Y232864D02*
X488864Y220000D01*
X519000D01*
Y194000D02*
Y220000D01*
X487678Y15000D02*
X503000Y30322D01*
X486314Y20000D02*
X498500Y32186D01*
X503000Y30322D02*
Y110000D01*
X509000Y116000D01*
X498500Y113500D02*
X504500Y119500D01*
X498500Y32186D02*
Y113500D01*
X504500Y119500D02*
Y179500D01*
X324841Y178000D02*
X331227Y184386D01*
X317000Y178000D02*
X324841D01*
X159200Y423300D02*
X171700Y410800D01*
D35*
X307000Y128000D02*
Y154500D01*
X80000Y197000D02*
X97000D01*
X62500Y217500D02*
X97500D01*
X333838Y128000D02*
Y141338D01*
X338000Y145500D01*
X345000D01*
X453500Y95500D02*
X453500Y95500D01*
X495500Y251000D02*
X500000Y255500D01*
X495500Y240000D02*
Y251000D01*
X412500Y237500D02*
X425500D01*
X410000Y235000D02*
X412500Y237500D01*
X482500Y240000D02*
X495500D01*
X462500Y279500D02*
Y290000D01*
X92500Y362000D02*
Y370000D01*
X345000Y159500D02*
X355500D01*
X357500Y157500D01*
X509500Y240000D02*
X522500D01*
X457499Y260499D02*
X462500Y265500D01*
X457499Y252500D02*
Y260499D01*
X439500Y237500D02*
X452500D01*
X462500Y185000D02*
Y195500D01*
X420500Y147000D02*
Y175000D01*
X417500Y95500D02*
X428000D01*
X452500Y80000D02*
Y95500D01*
X453500Y95500D02*
X466000D01*
X410000Y199360D02*
Y205000D01*
X237500Y174250D02*
X253250Y190000D01*
X370000Y280000D02*
X382500D01*
X420500Y147000D02*
X428000Y139500D01*
Y95500D02*
Y139500D01*
X383000Y95500D02*
X392500D01*
X390222Y128000D02*
X398000D01*
X350108Y87886D02*
X390222Y128000D01*
X335919Y87886D02*
X350108D01*
X393500Y95500D02*
X406000D01*
X485500Y182000D02*
Y202500D01*
Y182000D02*
X490000Y177500D01*
Y157000D02*
Y177500D01*
X364500Y138000D02*
X380000D01*
X357500Y145000D02*
X364500Y138000D01*
X357500Y145000D02*
Y157500D01*
X368419Y88386D02*
X376305Y80500D01*
X417500Y85000D02*
Y95500D01*
X458000Y128000D02*
Y142000D01*
X380919Y93419D02*
X383000Y95500D01*
X380919Y88386D02*
Y93419D01*
X376305Y80500D02*
X413000D01*
X417500Y85000D01*
X462500Y209500D02*
Y222500D01*
X477500Y202500D02*
X485500D01*
X470500Y209500D02*
X477500Y202500D01*
X462500Y209500D02*
X470500D01*
X125000Y172500D02*
Y190000D01*
X270000Y218500D02*
Y230000D01*
X230000D02*
X270000D01*
X230000Y215000D02*
Y230000D01*
X173107Y215000D02*
X230000D01*
X170607Y217500D02*
X173107Y215000D01*
X164393Y217500D02*
X170607D01*
X161893Y215000D02*
X164393Y217500D01*
X115000Y215000D02*
X161893D01*
X65000Y197000D02*
Y205000D01*
X70000Y210000D01*
X85000D01*
X97500Y160000D02*
Y168000D01*
Y184500D02*
X113750Y200750D01*
X97500Y217500D02*
X125000Y190000D01*
X62500Y217500D02*
Y230000D01*
X109000Y362000D02*
X120000D01*
X155000Y267000D02*
Y292500D01*
X147000Y259000D02*
X155000Y267000D01*
X89000Y259000D02*
X147000D01*
X85000Y255000D02*
X89000Y259000D01*
X285000Y203500D02*
Y215000D01*
X289499Y229501D02*
X302501D01*
Y190501D02*
Y215501D01*
X253250Y190000D02*
X307500D01*
X175000Y321000D02*
X186000Y332000D01*
X175000Y274000D02*
Y321000D01*
Y274000D02*
X181000Y268000D01*
Y248000D02*
Y268000D01*
X186000Y332000D02*
Y362000D01*
X185500Y362500D02*
X186000Y362000D01*
X177000Y362500D02*
X185500D01*
X470000Y80000D02*
X477500D01*
Y95500D01*
X462500Y290000D02*
X465000Y292500D01*
X177000Y335000D02*
Y347500D01*
X155000Y292500D02*
Y313000D01*
X177000Y335000D01*
X380640Y170000D02*
X410000Y199360D01*
X285000Y177500D02*
X292500Y170000D01*
X380640D01*
D36*
X472500Y256000D02*
Y277485D01*
X492500Y305000D02*
X495000Y302500D01*
X472500Y277485D02*
X487515Y292500D01*
X495000Y295000D02*
Y302500D01*
X492500Y292500D02*
X495000Y295000D01*
X487515Y292500D02*
X492500D01*
X434500Y175000D02*
X445000D01*
X422500Y302500D02*
X423000Y303000D01*
X429000D01*
X431000Y305000D01*
X492500D01*
D37*
X437500Y125500D02*
Y138000D01*
Y125500D02*
X444000Y119000D01*
X464000D02*
X469000Y124000D01*
X444000Y119000D02*
X464000D01*
X469000Y124000D02*
Y136000D01*
X478000Y145000D01*
Y157000D01*
X490000D01*
D38*
X290000Y50000D02*
D03*
X120000D02*
D03*
X470000D02*
D03*
X360000D02*
D03*
D39*
X235000Y60000D02*
D03*
X215000Y40000D02*
D03*
Y60000D02*
D03*
X195000Y40000D02*
D03*
Y60000D02*
D03*
X175000Y40000D02*
D03*
Y60000D02*
D03*
X155000Y40000D02*
D03*
X255000D02*
D03*
Y60000D02*
D03*
X235000Y40000D02*
D03*
X435000D02*
D03*
Y60000D02*
D03*
X415000Y40000D02*
D03*
Y60000D02*
D03*
X395000Y40000D02*
D03*
D40*
X155000Y60000D02*
D03*
X395000D02*
D03*
D41*
X200000Y340000D02*
D03*
X97500Y127500D02*
D03*
D42*
X184600Y397900D02*
D03*
X159200D02*
D03*
X133800D02*
D03*
X159200Y423300D02*
D03*
X184600D02*
D03*
X133800D02*
D03*
X210000D02*
D03*
X260800D02*
D03*
X235400D02*
D03*
X210000Y397900D02*
D03*
X235400D02*
D03*
X311600D02*
D03*
X286200D02*
D03*
Y423300D02*
D03*
X260800Y397900D02*
D03*
X108400Y423300D02*
D03*
Y397900D02*
D03*
D43*
X311600Y423300D02*
D03*
D44*
X135000Y139000D02*
D03*
X210000Y162500D02*
D03*
X227500D02*
D03*
X404000Y423000D02*
D03*
X339000Y425000D02*
D03*
X97000Y197000D02*
D03*
X315000Y225000D02*
D03*
X285000Y203500D02*
D03*
X339529Y212985D02*
D03*
X365506D02*
D03*
X378369D02*
D03*
X352450D02*
D03*
X327500Y212985D02*
D03*
X315000Y212985D02*
D03*
X207500Y265000D02*
D03*
X352450Y246000D02*
D03*
X347000Y342000D02*
D03*
X285000Y177500D02*
D03*
X347300Y284800D02*
D03*
X477114Y432114D02*
D03*
X410000Y205000D02*
D03*
X472114Y332500D02*
D03*
X335919Y87886D02*
D03*
X323419Y88386D02*
D03*
X278419Y88386D02*
D03*
X290919Y88386D02*
D03*
X410000Y235000D02*
D03*
X327450Y234000D02*
D03*
X472500Y256000D02*
D03*
X482500Y240000D02*
D03*
X333919Y177886D02*
D03*
X377919D02*
D03*
X366000Y252000D02*
D03*
X378419Y258500D02*
D03*
X486000Y299000D02*
D03*
X339529Y240000D02*
D03*
X477114Y384614D02*
D03*
X405000Y335000D02*
D03*
X333838Y128000D02*
D03*
X582500Y205000D02*
D03*
X207500Y275000D02*
D03*
X207500Y284800D02*
D03*
X117500Y372500D02*
D03*
X92500D02*
D03*
X442499Y349999D02*
D03*
X167500Y372500D02*
D03*
X92500Y302500D02*
D03*
X357500Y157500D02*
D03*
X368419Y88386D02*
D03*
X517000Y174500D02*
D03*
X522500Y240000D02*
D03*
X320000Y67500D02*
D03*
X332500D02*
D03*
X457499Y252500D02*
D03*
X427500Y192114D02*
D03*
X420000Y185000D02*
D03*
X482500Y332500D02*
D03*
X452500Y237500D02*
D03*
Y225000D02*
D03*
X444444Y285500D02*
D03*
X462500Y222500D02*
D03*
X431000Y335000D02*
D03*
X416000Y423000D02*
D03*
X146700Y389000D02*
D03*
X435000Y285000D02*
D03*
X462500Y185000D02*
D03*
X446000Y190000D02*
D03*
X450000Y335000D02*
D03*
X375000D02*
D03*
X445000Y175000D02*
D03*
X452500Y80000D02*
D03*
X407500Y165000D02*
D03*
X270000Y281000D02*
D03*
X422500Y302500D02*
D03*
X425000Y285000D02*
D03*
X382500Y280000D02*
D03*
X207500Y297500D02*
D03*
X347500Y272500D02*
D03*
X458000Y142000D02*
D03*
X380919Y88386D02*
D03*
X417500Y272500D02*
D03*
X62500Y165000D02*
D03*
X178000Y184000D02*
D03*
X83000Y318000D02*
D03*
X250000Y212500D02*
D03*
X85000Y210000D02*
D03*
X97500Y160000D02*
D03*
X62500Y230000D02*
D03*
X85000Y255000D02*
D03*
X109000Y362000D02*
D03*
X170500Y265500D02*
D03*
X183500Y302500D02*
D03*
X245000Y197500D02*
D03*
X262500D02*
D03*
X227500D02*
D03*
X210000D02*
D03*
Y180000D02*
D03*
X227500D02*
D03*
X245000D02*
D03*
X262500D02*
D03*
X470000Y80000D02*
D03*
X511157Y103657D02*
D03*
X600000Y207500D02*
D03*
X565000Y215000D02*
D03*
X465000Y292500D02*
D03*
X500000Y285000D02*
D03*
X510000D02*
D03*
X520000D02*
D03*
X530000D02*
D03*
X489000D02*
D03*
X167500Y207000D02*
D03*
X467500Y165000D02*
D03*
X261000Y281000D02*
D03*
X279000D02*
D03*
X510000Y85000D02*
D03*
X317000Y178000D02*
D03*
D45*
X261000Y83000D02*
D03*
X248000D02*
D03*
X118000Y221000D02*
D03*
X307000Y128000D02*
D03*
X118000Y232000D02*
D03*
Y243000D02*
D03*
D46*
X401000Y175000D02*
D03*
D50*
X256550Y120750D02*
D03*
X218450D02*
D03*
D51*
X237500Y174250D02*
D03*
D52*
X485500Y202500D02*
D03*
X509500Y193000D02*
D03*
Y212000D02*
D03*
D53*
X80000Y237500D02*
D03*
Y227500D02*
D03*
X200000Y237500D02*
D03*
Y227500D02*
D03*
D54*
X165000Y172500D02*
D03*
X155000D02*
D03*
X145000D02*
D03*
X135000D02*
D03*
X125000D02*
D03*
X115000D02*
D03*
X125000Y292500D02*
D03*
X135000D02*
D03*
X145000D02*
D03*
X155000D02*
D03*
X165000D02*
D03*
X115000D02*
D03*
D55*
X177000Y95000D02*
D03*
Y125000D02*
D03*
D56*
X307500Y155000D02*
D03*
Y190000D02*
D03*
X270000Y267500D02*
D03*
Y232500D02*
D03*
D57*
X270000Y277500D02*
D03*
M02*
