G04 Layer_Physical_Order=3*
G04 Layer_Color=16440176*
%FSLAX44Y44*%
%MOMM*%
G71*
G01*
G75*
%ADD12R,0.8500X0.8500*%
%ADD33C,0.5000*%
%ADD38C,1.8000*%
%ADD41C,1.4000*%
%ADD43C,0.7000*%
%ADD44C,1.0000*%
%ADD45R,2.8000X1.4000*%
%ADD46R,0.8000X2.2000*%
G36*
X538882Y300000D02*
X539348Y297659D01*
X540674Y295674D01*
X542659Y294348D01*
X545000Y293883D01*
X605000D01*
Y293773D01*
X606444Y293485D01*
X607668Y292668D01*
X608485Y291444D01*
X608773Y290000D01*
X608882D01*
Y212206D01*
X605882Y211296D01*
X605047Y212547D01*
X602731Y214094D01*
X600000Y214637D01*
X597269Y214094D01*
X594953Y212547D01*
X593406Y210231D01*
X592863Y207500D01*
X593406Y204769D01*
X594953Y202453D01*
X597269Y200906D01*
X600000Y200363D01*
X602731Y200906D01*
X605047Y202453D01*
X605882Y203704D01*
X608882Y202794D01*
Y10000D01*
X608773D01*
X608485Y8556D01*
X607668Y7332D01*
X606444Y6515D01*
X605000Y6227D01*
Y6118D01*
X545000D01*
X542659Y5652D01*
X540674Y4326D01*
X539348Y2341D01*
X538882Y0D01*
Y-40000D01*
X538773D01*
X538485Y-41444D01*
X537668Y-42668D01*
X536444Y-43485D01*
X535000Y-43773D01*
Y-43882D01*
X80000D01*
Y-43773D01*
X78556Y-43485D01*
X77332Y-42668D01*
X76515Y-41444D01*
X76227Y-40000D01*
X76118D01*
Y0D01*
X75652Y2341D01*
X74326Y4326D01*
X72341Y5652D01*
X70000Y6118D01*
X10000D01*
Y6227D01*
X8556Y6515D01*
X7332Y7332D01*
X6515Y8556D01*
X6227Y10000D01*
X6118D01*
Y290000D01*
X6227D01*
X6515Y291444D01*
X7332Y292668D01*
X8556Y293485D01*
X10000Y293773D01*
Y293883D01*
X70000D01*
X72212Y292067D01*
Y198604D01*
X69212Y196797D01*
X67500Y197137D01*
X64769Y196594D01*
X62453Y195047D01*
X60906Y192731D01*
X60363Y190000D01*
X60906Y187269D01*
X62453Y184953D01*
X64769Y183406D01*
X67500Y182863D01*
X69212Y183203D01*
X72212Y181396D01*
Y74414D01*
X72360Y74056D01*
X72284Y73675D01*
X72898Y72756D01*
X73321Y71736D01*
X73680Y71587D01*
X73895Y71264D01*
X75315Y70315D01*
X76025Y69253D01*
X76274Y68000D01*
X76025Y66747D01*
X75315Y65684D01*
X73895Y64736D01*
X73680Y64413D01*
X73321Y64264D01*
X72898Y63244D01*
X72284Y62325D01*
X72360Y61944D01*
X72212Y61586D01*
Y54000D01*
X73321Y51321D01*
X102321Y22321D01*
Y22321D01*
X105000Y21212D01*
X105000Y21212D01*
X144500Y21212D01*
Y2500D01*
X145330D01*
X146715Y-500D01*
X145109Y-2903D01*
X144294Y-7000D01*
X145109Y-11097D01*
X147430Y-14570D01*
X150903Y-16891D01*
X155000Y-17706D01*
X159097Y-16891D01*
X162570Y-14570D01*
X163497Y-13183D01*
X167105D01*
X167790Y-14210D01*
X171098Y-16420D01*
X172000Y-16599D01*
Y-7000D01*
X178000D01*
Y-16599D01*
X178902Y-16420D01*
X182210Y-14210D01*
X182895Y-13183D01*
X186503D01*
X187430Y-14570D01*
X190903Y-16891D01*
X195000Y-17706D01*
X199097Y-16891D01*
X202570Y-14570D01*
X203196Y-13633D01*
X206804D01*
X207430Y-14570D01*
X210903Y-16891D01*
X215000Y-17706D01*
X219097Y-16891D01*
X222570Y-14570D01*
X223196Y-13633D01*
X226804D01*
X227430Y-14570D01*
X230903Y-16891D01*
X235000Y-17706D01*
X239097Y-16891D01*
X242570Y-14570D01*
X244891Y-11097D01*
X245706Y-7000D01*
X244891Y-2903D01*
X242570Y570D01*
X241633Y1196D01*
Y4804D01*
X242570Y5430D01*
X244891Y8903D01*
X245706Y13000D01*
X244891Y17097D01*
X242570Y20570D01*
X239097Y22891D01*
X235000Y23706D01*
X230903Y22891D01*
X227430Y20570D01*
X226804Y19633D01*
X223196D01*
X222570Y20570D01*
X219097Y22891D01*
X215000Y23706D01*
X210903Y22891D01*
X207430Y20570D01*
X206804Y19633D01*
X203196D01*
X202570Y20570D01*
X199097Y22891D01*
X197216Y23265D01*
X196288Y25000D01*
X196288Y43712D01*
X238360D01*
X239111Y44022D01*
X239145Y44016D01*
X239228Y44071D01*
X239381Y44134D01*
X240465Y44350D01*
X240681Y44673D01*
X241039Y44821D01*
X241302Y45457D01*
X241556Y45627D01*
X242685Y47316D01*
X243747Y48025D01*
X245000Y48275D01*
X246253Y48025D01*
X246645Y47763D01*
X247384Y47616D01*
X248011Y47197D01*
X248750Y47345D01*
X249489Y47197D01*
X250116Y47616D01*
X250855Y47763D01*
X251247Y48025D01*
X252500Y48275D01*
X253753Y48025D01*
X254145Y47763D01*
X254884Y47616D01*
X255511Y47197D01*
X256250Y47345D01*
X256989Y47197D01*
X257616Y47616D01*
X258355Y47763D01*
X258747Y48025D01*
X260000Y48275D01*
X261253Y48025D01*
X262316Y47316D01*
X263444Y45627D01*
X263698Y45457D01*
X263961Y44821D01*
X264319Y44673D01*
X264535Y44350D01*
X265619Y44134D01*
X265772Y44071D01*
X265855Y44016D01*
X265889Y44022D01*
X266640Y43712D01*
X269951D01*
X271371Y41746D01*
X271744Y40712D01*
X271282Y38386D01*
X271825Y35655D01*
X273372Y33339D01*
X275688Y31792D01*
X278419Y31249D01*
X281150Y31792D01*
X283466Y33339D01*
X285013Y35655D01*
X285556Y38386D01*
X285093Y40712D01*
X285467Y41746D01*
X286887Y43712D01*
X314951D01*
X316371Y41746D01*
X316744Y40712D01*
X316282Y38386D01*
X316825Y35655D01*
X318372Y33339D01*
X320688Y31792D01*
X323419Y31249D01*
X326150Y31792D01*
X328466Y33339D01*
X330013Y35655D01*
X330556Y38386D01*
X330093Y40712D01*
X330467Y41746D01*
X331887Y43712D01*
X359951Y43712D01*
X361371Y41746D01*
X361744Y40712D01*
X361282Y38386D01*
X361825Y35655D01*
X363372Y33339D01*
X365688Y31792D01*
X368419Y31249D01*
X371150Y31792D01*
X373466Y33339D01*
X375013Y35655D01*
X375556Y38386D01*
X375093Y40712D01*
X375467Y41746D01*
X376887Y43712D01*
X412500D01*
X412500Y43712D01*
X415179Y44821D01*
Y44821D01*
X437679Y67321D01*
X437679D01*
X438788Y70000D01*
X438788Y70000D01*
X438788Y135038D01*
X441788Y135948D01*
X442453Y134953D01*
X444769Y133406D01*
X447500Y132863D01*
X450231Y133406D01*
X452547Y134953D01*
X454094Y137269D01*
X454637Y140000D01*
X454094Y142731D01*
X452547Y145047D01*
X450231Y146594D01*
X447500Y147137D01*
X444769Y146594D01*
X442453Y145047D01*
X441788Y144052D01*
X438788Y144962D01*
Y147500D01*
X437679Y150179D01*
X435000Y151288D01*
X419272D01*
X416996Y154288D01*
X417137Y155000D01*
X416594Y157731D01*
X415047Y160047D01*
X412731Y161594D01*
X410000Y162137D01*
X407269Y161594D01*
X404953Y160047D01*
X403406Y157731D01*
X402863Y155000D01*
X403004Y154288D01*
X400728Y151288D01*
X397500D01*
X394821Y150179D01*
X393712Y147500D01*
Y122137D01*
X394117Y121158D01*
X392453Y120047D01*
X390906Y117731D01*
X390363Y115000D01*
X390906Y112269D01*
X392453Y109953D01*
X394117Y108842D01*
X393712Y107863D01*
Y88943D01*
X392538Y86216D01*
X391619Y85602D01*
X390598Y85179D01*
X390501Y84943D01*
X389172Y84056D01*
X387919Y83806D01*
X386666Y84056D01*
X385337Y84943D01*
X385240Y85179D01*
X384219Y85602D01*
X383300Y86216D01*
X382920Y86140D01*
X382561Y86288D01*
X342584D01*
X342185Y86123D01*
X341760Y86198D01*
X340888Y85586D01*
X339905Y85179D01*
X339739Y84780D01*
X339386Y84532D01*
X337480Y81532D01*
X337236Y80144D01*
X336961Y78761D01*
X337113Y78000D01*
X336863Y76747D01*
X336153Y75685D01*
X335091Y74975D01*
X333838Y74725D01*
X332585Y74975D01*
X331523Y75685D01*
X330813Y76747D01*
X330564Y78000D01*
X330715Y78761D01*
X330440Y80144D01*
X330196Y81532D01*
X328290Y84532D01*
X327937Y84780D01*
X327771Y85179D01*
X326788Y85586D01*
X325916Y86198D01*
X325491Y86123D01*
X325093Y86288D01*
X315745D01*
X315347Y86123D01*
X314921Y86198D01*
X314050Y85586D01*
X313067Y85179D01*
X312901Y84780D01*
X312548Y84532D01*
X310641Y81532D01*
X310398Y80144D01*
X310123Y78761D01*
X310275Y78000D01*
X310025Y76747D01*
X309315Y75685D01*
X308253Y74975D01*
X307000Y74725D01*
X305747Y74975D01*
X304685Y75685D01*
X303975Y76747D01*
X303725Y78000D01*
X303877Y78761D01*
X303602Y80144D01*
X303358Y81532D01*
X301452Y84532D01*
X301098Y84780D01*
X300933Y85179D01*
X299950Y85586D01*
X299079Y86198D01*
X298653Y86123D01*
X298255Y86288D01*
X145438D01*
X144417Y85865D01*
X143334Y85650D01*
X143118Y85327D01*
X142760Y85179D01*
X142337Y84158D01*
X141723Y83239D01*
X141525Y82247D01*
X140815Y81185D01*
X139753Y80475D01*
X138500Y80225D01*
X137247Y80475D01*
X136185Y81185D01*
X135475Y82247D01*
X135277Y83239D01*
X134663Y84158D01*
X134241Y85179D01*
X133882Y85327D01*
X133666Y85650D01*
X132583Y85865D01*
X131562Y86288D01*
X126288D01*
Y96833D01*
X164500D01*
X167817Y97493D01*
X170628Y99372D01*
X172507Y102183D01*
X173167Y105500D01*
X172507Y108816D01*
X170628Y111628D01*
X167817Y113507D01*
X164500Y114166D01*
X126288D01*
Y171212D01*
X225000D01*
X227679Y172321D01*
X228788Y175000D01*
Y205000D01*
X227679Y207679D01*
X225000Y208788D01*
X215376D01*
X213772Y211788D01*
X214093Y212269D01*
X214637Y215000D01*
X214093Y217731D01*
X212578Y220000D01*
X214093Y222268D01*
X214637Y225000D01*
X214093Y227731D01*
X212644Y229900D01*
X214094Y232069D01*
X214637Y234800D01*
X214094Y237531D01*
X212547Y239847D01*
X210231Y241394D01*
X207500Y241937D01*
X204769Y241394D01*
X202453Y239847D01*
X200906Y237531D01*
X200363Y234800D01*
X200906Y232069D01*
X202355Y229900D01*
X200906Y227731D01*
X200362Y225000D01*
X200906Y222268D01*
X202421Y220000D01*
X200906Y217731D01*
X200362Y215000D01*
X200906Y212269D01*
X201227Y211788D01*
X199623Y208788D01*
X156288D01*
Y333370D01*
X158607Y335273D01*
X159200Y335155D01*
X164077Y336125D01*
X168212Y338888D01*
X170223Y341898D01*
X173577D01*
X175588Y338888D01*
X179723Y336125D01*
X184600Y335155D01*
X189477Y336125D01*
X193612Y338888D01*
X195623Y341898D01*
X198977D01*
X200988Y338888D01*
X205123Y336125D01*
X210000Y335155D01*
X214877Y336125D01*
X219012Y338888D01*
X221023Y341898D01*
X224377D01*
X226388Y338888D01*
X230523Y336125D01*
X235400Y335155D01*
X240277Y336125D01*
X244412Y338888D01*
X246423Y341898D01*
X249777D01*
X251788Y338888D01*
X255923Y336125D01*
X260800Y335155D01*
X265677Y336125D01*
X269812Y338888D01*
X271823Y341898D01*
X275177D01*
X277188Y338888D01*
X281323Y336125D01*
X286200Y335155D01*
X291077Y336125D01*
X295212Y338888D01*
X296100Y340217D01*
X299100Y339307D01*
Y335400D01*
X324100D01*
Y360400D01*
X320193D01*
X319283Y363400D01*
X320612Y364288D01*
X323375Y368423D01*
X324345Y373300D01*
X323375Y378177D01*
X320612Y382312D01*
X316477Y385075D01*
X311600Y386045D01*
X306723Y385075D01*
X302588Y382312D01*
X300577Y379302D01*
X297223D01*
X295212Y382312D01*
X291077Y385075D01*
X286200Y386045D01*
X281323Y385075D01*
X277188Y382312D01*
X275177Y379302D01*
X271823D01*
X269812Y382312D01*
X265677Y385075D01*
X260800Y386045D01*
X255923Y385075D01*
X251788Y382312D01*
X249466Y378837D01*
X249031Y378702D01*
X247023Y378634D01*
X246133Y378837D01*
X244051Y381951D01*
X240082Y384604D01*
X238400Y384938D01*
Y373300D01*
X232400D01*
Y384938D01*
X230718Y384604D01*
X226749Y381951D01*
X224667Y378837D01*
X223777Y378634D01*
X221769Y378702D01*
X221334Y378837D01*
X219012Y382312D01*
X214877Y385075D01*
X210000Y386045D01*
X205123Y385075D01*
X200988Y382312D01*
X198977Y379302D01*
X195623D01*
X193612Y382312D01*
X189477Y385075D01*
X184600Y386045D01*
X179723Y385075D01*
X175588Y382312D01*
X173577Y379302D01*
X170223D01*
X168212Y382312D01*
X164077Y385075D01*
X159200Y386045D01*
X158607Y385927D01*
X156288Y387830D01*
Y393882D01*
X538882D01*
Y300000D01*
D02*
G37*
G36*
X152500Y383857D02*
X150188Y382312D01*
X148177Y379302D01*
X144823D01*
X142812Y382312D01*
X138677Y385075D01*
X133800Y386045D01*
X128923Y385075D01*
X124788Y382312D01*
X122466Y378837D01*
X122031Y378702D01*
X120023Y378634D01*
X119133Y378837D01*
X117051Y381951D01*
X113082Y384604D01*
X111400Y384938D01*
Y373300D01*
X108400D01*
Y370300D01*
X96762D01*
X97096Y368618D01*
X99748Y364649D01*
X102863Y362567D01*
X103066Y361677D01*
X102998Y359669D01*
X102863Y359234D01*
X99388Y356912D01*
X96625Y352777D01*
X95655Y347900D01*
X96625Y343023D01*
X99388Y338888D01*
X103523Y336125D01*
X108400Y335155D01*
X113277Y336125D01*
X117412Y338888D01*
X119423Y341898D01*
X122777D01*
X124788Y338888D01*
X128923Y336125D01*
X133800Y335155D01*
X138677Y336125D01*
X142812Y338888D01*
X144823Y341898D01*
X148177D01*
X150188Y338888D01*
X152500Y337343D01*
Y205000D01*
X225000D01*
Y175000D01*
X122500D01*
Y82500D01*
X131562D01*
X131906Y80769D01*
X133453Y78453D01*
X135769Y76906D01*
X138500Y76363D01*
X141231Y76906D01*
X143547Y78453D01*
X145094Y80769D01*
X145438Y82500D01*
X298255D01*
X300161Y79500D01*
X299863Y78000D01*
X300406Y75269D01*
X301953Y72953D01*
X304269Y71406D01*
X307000Y70863D01*
X309731Y71406D01*
X312047Y72953D01*
X313594Y75269D01*
X314137Y78000D01*
X313839Y79500D01*
X315745Y82500D01*
X325093D01*
X326999Y79500D01*
X326701Y78000D01*
X327244Y75269D01*
X328791Y72953D01*
X331107Y71406D01*
X333838Y70863D01*
X336569Y71406D01*
X338885Y72953D01*
X340432Y75269D01*
X340975Y78000D01*
X340677Y79500D01*
X342584Y82500D01*
X382561D01*
X382872Y82034D01*
X385188Y80487D01*
X387919Y79944D01*
X390650Y80487D01*
X392966Y82034D01*
X393277Y82500D01*
X397500D01*
Y107863D01*
X400231Y108406D01*
X402547Y109953D01*
X404094Y112269D01*
X404637Y115000D01*
X404094Y117731D01*
X402547Y120047D01*
X400231Y121594D01*
X397500Y122137D01*
Y147500D01*
X435000D01*
X435000Y70000D01*
X412500Y47500D01*
X266640Y47500D01*
X266594Y47731D01*
X265047Y50047D01*
X262731Y51594D01*
X260000Y52137D01*
X257269Y51594D01*
X256250Y50913D01*
X255231Y51594D01*
X252500Y52137D01*
X249769Y51594D01*
X248750Y50913D01*
X247731Y51594D01*
X245000Y52137D01*
X242269Y51594D01*
X239953Y50047D01*
X238406Y47731D01*
X238360Y47500D01*
X192500D01*
X192500Y25000D01*
X182788D01*
Y33499D01*
X182250Y34797D01*
Y36750D01*
X180296D01*
X178999Y37287D01*
X171000D01*
X169703Y36750D01*
X167750D01*
Y34799D01*
X167211Y33499D01*
Y25000D01*
X105000Y25000D01*
X76000Y54000D01*
Y61586D01*
X78047Y62953D01*
X79594Y65269D01*
X80137Y68000D01*
X79594Y70731D01*
X78047Y73047D01*
X76000Y74414D01*
X76000Y299409D01*
X76118Y300000D01*
Y393882D01*
X152500D01*
Y383857D01*
D02*
G37*
%LPC*%
G36*
X333919Y135023D02*
X331188Y134480D01*
X328872Y132933D01*
X328853Y132904D01*
X327072Y134094D01*
X324341Y134637D01*
X321609Y134094D01*
X319294Y132547D01*
X317747Y130231D01*
X317204Y127500D01*
X317747Y124769D01*
X319294Y122453D01*
X321609Y120906D01*
X324341Y120363D01*
X327072Y120906D01*
X329387Y122453D01*
X329407Y122482D01*
X331188Y121292D01*
X333919Y120749D01*
X336650Y121292D01*
X338966Y122839D01*
X340513Y125155D01*
X341056Y127886D01*
X340513Y130617D01*
X338966Y132933D01*
X336650Y134480D01*
X333919Y135023D01*
D02*
G37*
G36*
X377919D02*
X375188Y134480D01*
X372872Y132933D01*
X371325Y130617D01*
X370782Y127886D01*
X371325Y125155D01*
X372872Y122839D01*
X375188Y121292D01*
X377919Y120749D01*
X380650Y121292D01*
X382966Y122839D01*
X384513Y125155D01*
X385056Y127886D01*
X384513Y130617D01*
X382966Y132933D01*
X380650Y134480D01*
X377919Y135023D01*
D02*
G37*
G36*
X285000Y134637D02*
X282269Y134094D01*
X279953Y132547D01*
X278406Y130231D01*
X277863Y127500D01*
X278406Y124769D01*
X279953Y122453D01*
X282269Y120906D01*
X285000Y120363D01*
X287731Y120906D01*
X290047Y122453D01*
X291594Y124769D01*
X292137Y127500D01*
X291594Y130231D01*
X290047Y132547D01*
X287731Y134094D01*
X285000Y134637D01*
D02*
G37*
G36*
X357500Y114637D02*
X354769Y114094D01*
X352453Y112547D01*
X350906Y110231D01*
X350363Y107500D01*
X350906Y104769D01*
X352453Y102453D01*
X354769Y100906D01*
X357500Y100363D01*
X360231Y100906D01*
X362547Y102453D01*
X364094Y104769D01*
X364637Y107500D01*
X364094Y110231D01*
X362547Y112547D01*
X360231Y114094D01*
X357500Y114637D01*
D02*
G37*
G36*
X285000Y160637D02*
X282269Y160094D01*
X279953Y158547D01*
X278406Y156231D01*
X277863Y153500D01*
X278406Y150769D01*
X279953Y148453D01*
X282269Y146906D01*
X285000Y146363D01*
X287731Y146906D01*
X290047Y148453D01*
X291594Y150769D01*
X292137Y153500D01*
X291594Y156231D01*
X290047Y158547D01*
X287731Y160094D01*
X285000Y160637D01*
D02*
G37*
G36*
X482500Y197137D02*
X479769Y196594D01*
X477453Y195047D01*
X475906Y192731D01*
X475363Y190000D01*
X475906Y187269D01*
X477453Y184953D01*
X479769Y183406D01*
X482500Y182863D01*
X485231Y183406D01*
X487547Y184953D01*
X489094Y187269D01*
X489637Y190000D01*
X489094Y192731D01*
X487547Y195047D01*
X485231Y196594D01*
X482500Y197137D01*
D02*
G37*
G36*
X378419Y215637D02*
X375688Y215094D01*
X373372Y213547D01*
X371825Y211231D01*
X371633Y210263D01*
X368789Y208627D01*
X368484Y208643D01*
X366000Y209137D01*
X363269Y208594D01*
X360953Y207047D01*
X359406Y204731D01*
X359168Y203534D01*
X356032Y202025D01*
X355181Y202594D01*
X352450Y203137D01*
X349718Y202594D01*
X347403Y201047D01*
X345856Y198731D01*
X345692Y197909D01*
X342385Y196510D01*
X342260Y196594D01*
X339529Y197137D01*
X336797Y196594D01*
X334482Y195047D01*
X332935Y192731D01*
X332870Y192405D01*
X330181Y190594D01*
X327450Y191137D01*
X324718Y190594D01*
X322403Y189047D01*
X320856Y186731D01*
X320313Y184000D01*
X320433Y183397D01*
X317733Y181593D01*
X317731Y181594D01*
X315000Y182137D01*
X312269Y181594D01*
X309953Y180047D01*
X308406Y177731D01*
X307863Y175000D01*
X308406Y172269D01*
X309953Y169953D01*
Y168032D01*
X308406Y165717D01*
X307863Y162985D01*
X308406Y160254D01*
X309953Y157939D01*
X312269Y156391D01*
X315000Y155848D01*
X317731Y156391D01*
X319216Y157384D01*
X321250Y157732D01*
X323284Y157384D01*
X324769Y156391D01*
X327500Y155848D01*
X330231Y156391D01*
X331390Y157166D01*
X333514Y157697D01*
X335639Y157166D01*
X336797Y156391D01*
X339529Y155848D01*
X342260Y156391D01*
X344575Y157939D01*
X347403D01*
X349718Y156391D01*
X352450Y155848D01*
X355181Y156391D01*
X357496Y157939D01*
X360459D01*
X362775Y156391D01*
X365506Y155848D01*
X368237Y156391D01*
X370553Y157939D01*
X373322D01*
X375637Y156391D01*
X378369Y155848D01*
X381100Y156391D01*
X383415Y157939D01*
X384963Y160254D01*
X385506Y162985D01*
X384963Y165717D01*
X383415Y168032D01*
X381100Y169579D01*
X378369Y170123D01*
X375637Y169579D01*
X373322Y168032D01*
X370553D01*
X368237Y169579D01*
X365506Y170123D01*
X362775Y169579D01*
X360459Y168032D01*
X357496D01*
X355181Y169579D01*
X352450Y170123D01*
X349718Y169579D01*
X347403Y168032D01*
X344575D01*
X342260Y169579D01*
X339529Y170123D01*
X336797Y169579D01*
X334482Y168032D01*
X332547D01*
X330231Y169579D01*
X327500Y170122D01*
X324769Y169579D01*
X324738Y169558D01*
X321400Y170625D01*
X321083Y171504D01*
X321594Y172269D01*
X322137Y175000D01*
X322017Y175603D01*
X324717Y177407D01*
X324718Y177406D01*
X327450Y176863D01*
X330181Y177406D01*
X332496Y178953D01*
X334044Y181269D01*
X334108Y181595D01*
X336797Y183406D01*
X339529Y182863D01*
X342260Y183406D01*
X344575Y184953D01*
X346123Y187269D01*
X346286Y188091D01*
X349593Y189490D01*
X349718Y189406D01*
X352450Y188863D01*
X355181Y189406D01*
X357496Y190953D01*
X359044Y193269D01*
X359282Y194466D01*
X362418Y195975D01*
X363269Y195406D01*
X366000Y194863D01*
X368731Y195406D01*
X371047Y196953D01*
X372594Y199269D01*
X372786Y200237D01*
X375630Y201873D01*
X375935Y201857D01*
X378419Y201363D01*
X381150Y201906D01*
X383466Y203453D01*
X385013Y205769D01*
X385556Y208500D01*
X385013Y211231D01*
X383466Y213547D01*
X381150Y215094D01*
X378419Y215637D01*
D02*
G37*
G36*
X452500Y194637D02*
X449769Y194094D01*
X447453Y192547D01*
X445906Y190231D01*
X445363Y187500D01*
X445906Y184769D01*
X447453Y182453D01*
Y180047D01*
X445906Y177731D01*
X445363Y175000D01*
X445906Y172269D01*
X447453Y169953D01*
X449769Y168406D01*
X452500Y167863D01*
X455231Y168406D01*
X456327Y169139D01*
X457453Y167453D01*
X459769Y165906D01*
X462500Y165363D01*
X465231Y165906D01*
X467547Y167453D01*
X469094Y169769D01*
X469637Y172500D01*
X469094Y175231D01*
X467547Y177547D01*
X465231Y179094D01*
X462500Y179637D01*
X460187Y179177D01*
X458504Y180302D01*
X457547Y181217D01*
Y182453D01*
X459094Y184769D01*
X459637Y187500D01*
X459094Y190231D01*
X457547Y192547D01*
X455231Y194094D01*
X452500Y194637D01*
D02*
G37*
G36*
X582500Y162137D02*
X579769Y161594D01*
X577453Y160047D01*
X575906Y157731D01*
X575363Y155000D01*
X575906Y152269D01*
X577453Y149953D01*
X579769Y148406D01*
X582500Y147863D01*
X585231Y148406D01*
X587547Y149953D01*
X589094Y152269D01*
X589637Y155000D01*
X589094Y157731D01*
X587547Y160047D01*
X585231Y161594D01*
X582500Y162137D01*
D02*
G37*
G36*
X267500Y154637D02*
X264769Y154094D01*
X263284Y153102D01*
X261250Y152753D01*
X259216Y153102D01*
X257731Y154094D01*
X255000Y154637D01*
X252269Y154094D01*
X250784Y153102D01*
X248750Y152753D01*
X246716Y153102D01*
X245231Y154094D01*
X242500Y154637D01*
X239769Y154094D01*
X238284Y153102D01*
X236250Y152753D01*
X234216Y153102D01*
X232731Y154094D01*
X230000Y154637D01*
X227269Y154094D01*
X225784Y153102D01*
X223750Y152753D01*
X221716Y153102D01*
X220231Y154094D01*
X217500Y154637D01*
X214769Y154094D01*
X213284Y153102D01*
X211250Y152753D01*
X209216Y153102D01*
X207731Y154094D01*
X205000Y154637D01*
X202269Y154094D01*
X199953Y152547D01*
X198406Y150231D01*
X197863Y147500D01*
X198406Y144769D01*
X199953Y142453D01*
Y140047D01*
X198406Y137731D01*
X197863Y135000D01*
X198406Y132269D01*
X199953Y129953D01*
Y127547D01*
X198406Y125231D01*
X197863Y122500D01*
X198406Y119769D01*
X199953Y117453D01*
Y115047D01*
X198406Y112731D01*
X197863Y110000D01*
X198406Y107269D01*
X199953Y104953D01*
Y102547D01*
X198406Y100231D01*
X197863Y97500D01*
X198406Y94769D01*
X199953Y92453D01*
X202269Y90906D01*
X205000Y90363D01*
X207731Y90906D01*
X209216Y91898D01*
X211250Y92247D01*
X213284Y91898D01*
X214769Y90906D01*
X217500Y90363D01*
X220231Y90906D01*
X221716Y91898D01*
X223750Y92247D01*
X225784Y91898D01*
X227269Y90906D01*
X230000Y90363D01*
X232731Y90906D01*
X235047Y92453D01*
X236594Y94769D01*
X237137Y97500D01*
X236594Y100231D01*
X235047Y102547D01*
Y104953D01*
X236594Y107269D01*
X237137Y110000D01*
X236594Y112731D01*
X236441Y112960D01*
X237074Y115796D01*
X238988Y116428D01*
X239769Y115906D01*
X242500Y115363D01*
X245231Y115906D01*
X246716Y116898D01*
X248750Y117247D01*
X250784Y116898D01*
X252269Y115906D01*
X255000Y115363D01*
X257731Y115906D01*
X259216Y116898D01*
X261250Y117247D01*
X263284Y116898D01*
X264769Y115906D01*
X267500Y115363D01*
X270231Y115906D01*
X272547Y117453D01*
X274094Y119769D01*
X274637Y122500D01*
X274094Y125231D01*
X272547Y127547D01*
Y129953D01*
X274094Y132269D01*
X274637Y135000D01*
X274094Y137731D01*
X272547Y140047D01*
Y142453D01*
X274094Y144769D01*
X274637Y147500D01*
X274094Y150231D01*
X272547Y152547D01*
X270231Y154094D01*
X267500Y154637D01*
D02*
G37*
G36*
X120000Y17274D02*
X114537Y16188D01*
X109907Y13093D01*
X106812Y8462D01*
X105726Y3000D01*
X106812Y-2463D01*
X109907Y-7093D01*
X114537Y-10188D01*
X120000Y-11274D01*
X125463Y-10188D01*
X130093Y-7093D01*
X133188Y-2463D01*
X134274Y3000D01*
X133188Y8462D01*
X130093Y13093D01*
X125463Y16188D01*
X120000Y17274D01*
D02*
G37*
G36*
X270000D02*
X264538Y16188D01*
X259907Y13093D01*
X256812Y8462D01*
X255726Y3000D01*
X256812Y-2463D01*
X259907Y-7093D01*
X264538Y-10188D01*
X270000Y-11274D01*
X275462Y-10188D01*
X280093Y-7093D01*
X283188Y-2463D01*
X284274Y3000D01*
X283188Y8462D01*
X280093Y13093D01*
X275462Y16188D01*
X270000Y17274D01*
D02*
G37*
G36*
X460000Y17274D02*
X454537Y16188D01*
X449907Y13093D01*
X446812Y8462D01*
X445726Y3000D01*
X446812Y-2463D01*
X449907Y-7093D01*
X454537Y-10188D01*
X460000Y-11274D01*
X465462Y-10188D01*
X470093Y-7093D01*
X473188Y-2463D01*
X474274Y3000D01*
X473188Y8462D01*
X470093Y13093D01*
X465462Y16188D01*
X460000Y17274D01*
D02*
G37*
G36*
X382000Y-10000D02*
X375401D01*
X375580Y-10902D01*
X377790Y-14210D01*
X381098Y-16420D01*
X382000Y-16599D01*
Y-10000D01*
D02*
G37*
G36*
X350000Y17274D02*
X344538Y16188D01*
X339907Y13093D01*
X336812Y8462D01*
X335726Y3000D01*
X336812Y-2463D01*
X339907Y-7093D01*
X344538Y-10188D01*
X350000Y-11274D01*
X355462Y-10188D01*
X360093Y-7093D01*
X363188Y-2463D01*
X364274Y3000D01*
X363188Y8462D01*
X360093Y13093D01*
X355462Y16188D01*
X350000Y17274D01*
D02*
G37*
G36*
X35000Y73660D02*
X30171Y73024D01*
X25670Y71160D01*
X21806Y68194D01*
X18840Y64330D01*
X16976Y59829D01*
X16340Y55000D01*
Y35000D01*
X16976Y30171D01*
X18840Y25670D01*
X21806Y21806D01*
X25670Y18840D01*
X30171Y16976D01*
X35000Y16340D01*
X39829Y16976D01*
X44330Y18840D01*
X48194Y21806D01*
X51160Y25670D01*
X53024Y30171D01*
X53660Y35000D01*
Y55000D01*
X53024Y59829D01*
X51160Y64330D01*
X48194Y68194D01*
X44330Y71160D01*
X39829Y73024D01*
X35000Y73660D01*
D02*
G37*
G36*
X464292Y85345D02*
X461561Y84802D01*
X459245Y83255D01*
X457698Y80939D01*
X457155Y78208D01*
X457698Y75477D01*
X459245Y73161D01*
X461561Y71614D01*
X464292Y71071D01*
X467023Y71614D01*
X469339Y73161D01*
X470886Y75477D01*
X471429Y78208D01*
X470886Y80939D01*
X469339Y83255D01*
X467023Y84802D01*
X464292Y85345D01*
D02*
G37*
G36*
X580000Y73660D02*
X575171Y73024D01*
X570670Y71160D01*
X566806Y68194D01*
X563840Y64330D01*
X561976Y59830D01*
X561340Y55000D01*
Y35000D01*
X561976Y30171D01*
X563840Y25670D01*
X566806Y21806D01*
X570670Y18840D01*
X575171Y16976D01*
X580000Y16340D01*
X584829Y16976D01*
X589330Y18840D01*
X593194Y21806D01*
X596160Y25670D01*
X598024Y30171D01*
X598660Y35000D01*
Y55000D01*
X598024Y59830D01*
X596160Y64330D01*
X593194Y68194D01*
X589330Y71160D01*
X584829Y73024D01*
X580000Y73660D01*
D02*
G37*
G36*
X425000Y23706D02*
X420903Y22891D01*
X417430Y20570D01*
X416804Y19633D01*
X413196D01*
X412570Y20570D01*
X409097Y22891D01*
X405000Y23706D01*
X400903Y22891D01*
X398500Y21285D01*
X395500Y22671D01*
Y23500D01*
X374500D01*
Y2500D01*
X375987D01*
X376436Y1930D01*
X377316Y-500D01*
X375580Y-3098D01*
X375401Y-4000D01*
X385000D01*
Y-7000D01*
X388000D01*
Y-16599D01*
X388902Y-16420D01*
X392210Y-14210D01*
X392895Y-13183D01*
X396503D01*
X397430Y-14570D01*
X400903Y-16891D01*
X405000Y-17706D01*
X409097Y-16891D01*
X412570Y-14570D01*
X413196Y-13633D01*
X416804D01*
X417430Y-14570D01*
X420903Y-16891D01*
X425000Y-17706D01*
X429097Y-16891D01*
X432570Y-14570D01*
X434891Y-11097D01*
X435706Y-7000D01*
X434891Y-2903D01*
X432570Y570D01*
X431633Y1196D01*
Y4804D01*
X432570Y5430D01*
X434891Y8903D01*
X435706Y13000D01*
X434891Y17097D01*
X432570Y20570D01*
X429097Y22891D01*
X425000Y23706D01*
D02*
G37*
G36*
X431000Y292137D02*
X428269Y291594D01*
X425953Y290047D01*
X424406Y287731D01*
X423863Y285000D01*
X424406Y282269D01*
X425953Y279953D01*
X428269Y278406D01*
X431000Y277863D01*
X433731Y278406D01*
X436047Y279953D01*
X437594Y282269D01*
X438137Y285000D01*
X437594Y287731D01*
X436047Y290047D01*
X433731Y291594D01*
X431000Y292137D01*
D02*
G37*
G36*
X347000Y299137D02*
X344269Y298594D01*
X341953Y297047D01*
X340406Y294731D01*
X339863Y292000D01*
X340406Y289269D01*
X341953Y286953D01*
X344269Y285406D01*
X347000Y284863D01*
X349731Y285406D01*
X352047Y286953D01*
X353594Y289269D01*
X354137Y292000D01*
X353594Y294731D01*
X352047Y297047D01*
X349731Y298594D01*
X347000Y299137D01*
D02*
G37*
G36*
X442499Y307136D02*
X439768Y306593D01*
X437452Y305046D01*
X435905Y302731D01*
X435362Y299999D01*
X435905Y297268D01*
X437452Y294953D01*
X439768Y293406D01*
X442499Y292862D01*
X444305Y293221D01*
X445475Y290396D01*
X444953Y290047D01*
X443406Y287731D01*
X442863Y285000D01*
X443406Y282269D01*
X444953Y279953D01*
X447269Y278406D01*
X450000Y277863D01*
X452731Y278406D01*
X455047Y279953D01*
X456594Y282269D01*
X457137Y285000D01*
X456594Y287731D01*
X455047Y290047D01*
X452731Y291594D01*
X450000Y292137D01*
X448194Y291778D01*
X447024Y294604D01*
X447546Y294953D01*
X449093Y297268D01*
X449636Y299999D01*
X449093Y302731D01*
X447546Y305046D01*
X445230Y306593D01*
X442499Y307136D01*
D02*
G37*
G36*
X472114Y289637D02*
X469383Y289094D01*
X467067Y287547D01*
X465520Y285231D01*
X464977Y282500D01*
X465520Y279769D01*
X467067Y277453D01*
X469383Y275906D01*
X472114Y275363D01*
X473243Y275588D01*
X473406Y274769D01*
X474953Y272453D01*
X477269Y270906D01*
X480000Y270363D01*
X482731Y270906D01*
X485047Y272453D01*
X486594Y274769D01*
X487137Y277500D01*
X486594Y280231D01*
X485047Y282547D01*
X482731Y284094D01*
X480000Y284637D01*
X478871Y284412D01*
X478708Y285231D01*
X477161Y287547D01*
X474845Y289094D01*
X472114Y289637D01*
D02*
G37*
G36*
X375000Y292137D02*
X372269Y291594D01*
X369953Y290047D01*
X368406Y287731D01*
X367863Y285000D01*
X368406Y282269D01*
X369953Y279953D01*
X372269Y278406D01*
X375000Y277863D01*
X377731Y278406D01*
X380047Y279953D01*
X381594Y282269D01*
X382137Y285000D01*
X381594Y287731D01*
X380047Y290047D01*
X377731Y291594D01*
X375000Y292137D01*
D02*
G37*
G36*
X402419Y379556D02*
X399688Y379013D01*
X397372Y377466D01*
X395825Y375150D01*
X395282Y372419D01*
X395825Y369688D01*
X397372Y367372D01*
X399688Y365825D01*
X402419Y365282D01*
X405150Y365825D01*
X407466Y367372D01*
X409013Y369688D01*
X409556Y372419D01*
X409013Y375150D01*
X407466Y377466D01*
X405150Y379013D01*
X402419Y379556D01*
D02*
G37*
G36*
X477114Y341751D02*
X474383Y341208D01*
X472067Y339661D01*
X470520Y337345D01*
X469977Y334614D01*
X470520Y331883D01*
X472067Y329567D01*
X474383Y328020D01*
X477114Y327477D01*
X479845Y328020D01*
X482161Y329567D01*
X483708Y331883D01*
X484251Y334614D01*
X483708Y337345D01*
X482161Y339661D01*
X479845Y341208D01*
X477114Y341751D01*
D02*
G37*
G36*
X167500Y329637D02*
X164769Y329094D01*
X162453Y327547D01*
X160906Y325231D01*
X160363Y322500D01*
X160906Y319769D01*
X162453Y317453D01*
X164769Y315906D01*
X167500Y315363D01*
X170231Y315906D01*
X172547Y317453D01*
X174094Y319769D01*
X174637Y322500D01*
X174094Y325231D01*
X172547Y327547D01*
X170231Y329094D01*
X167500Y329637D01*
D02*
G37*
G36*
X240000D02*
X237269Y329094D01*
X234953Y327547D01*
X233406Y325231D01*
X232863Y322500D01*
X233406Y319769D01*
X234953Y317453D01*
X237269Y315906D01*
X240000Y315363D01*
X242731Y315906D01*
X245047Y317453D01*
X246594Y319769D01*
X247137Y322500D01*
X246594Y325231D01*
X245047Y327547D01*
X242731Y329094D01*
X240000Y329637D01*
D02*
G37*
G36*
X472500Y213137D02*
X469769Y212594D01*
X467453Y211047D01*
X465231Y209094D01*
X462500Y209637D01*
X459769Y209094D01*
X457453Y207547D01*
X455906Y205231D01*
X455363Y202500D01*
X455906Y199769D01*
X457453Y197453D01*
X459769Y195906D01*
X462500Y195363D01*
X465231Y195906D01*
X467547Y197453D01*
X469769Y199406D01*
X472500Y198863D01*
X475231Y199406D01*
X477547Y200953D01*
X479094Y203269D01*
X479637Y206000D01*
X479094Y208731D01*
X477547Y211047D01*
X475231Y212594D01*
X472500Y213137D01*
D02*
G37*
G36*
X344600Y229237D02*
X341869Y228694D01*
X339553Y227147D01*
X338006Y224831D01*
X337463Y222100D01*
X338006Y219369D01*
X339553Y217053D01*
X341869Y215506D01*
X344600Y214963D01*
X347331Y215506D01*
X349647Y217053D01*
X351194Y219369D01*
X351737Y222100D01*
X351194Y224831D01*
X349647Y227147D01*
X347331Y228694D01*
X344600Y229237D01*
D02*
G37*
G36*
X35000Y283660D02*
X30171Y283024D01*
X25670Y281160D01*
X21806Y278194D01*
X18840Y274330D01*
X16976Y269830D01*
X16340Y265000D01*
Y245000D01*
X16976Y240170D01*
X18840Y235670D01*
X21806Y231806D01*
X25670Y228840D01*
X30171Y226976D01*
X35000Y226340D01*
X39829Y226976D01*
X44330Y228840D01*
X48194Y231806D01*
X51160Y235670D01*
X53024Y240170D01*
X53660Y245000D01*
Y265000D01*
X53024Y269830D01*
X51160Y274330D01*
X48194Y278194D01*
X44330Y281160D01*
X39829Y283024D01*
X35000Y283660D01*
D02*
G37*
G36*
X444444Y242637D02*
X441712Y242094D01*
X439397Y240547D01*
X439366Y240501D01*
X437731Y241594D01*
X435000Y242137D01*
X432269Y241594D01*
X430000Y240078D01*
X427731Y241594D01*
X425000Y242137D01*
X422269Y241594D01*
X419953Y240047D01*
X418406Y237731D01*
X417863Y235000D01*
X418355Y232526D01*
X418163Y231878D01*
X416667Y229471D01*
X414769Y229094D01*
X412453Y227547D01*
X410906Y225231D01*
X410363Y222500D01*
X410906Y219769D01*
X412453Y217453D01*
X414769Y215906D01*
X417500Y215363D01*
X420231Y215906D01*
X422547Y217453D01*
X424094Y219769D01*
X424637Y222500D01*
X424145Y224974D01*
X424337Y225622D01*
X425833Y228029D01*
X427731Y228406D01*
X430000Y229922D01*
X432269Y228406D01*
X435000Y227863D01*
X437731Y228406D01*
X440047Y229953D01*
X440077Y229999D01*
X441712Y228906D01*
X444444Y228363D01*
X447175Y228906D01*
X449490Y230453D01*
X451037Y232769D01*
X451581Y235500D01*
X451037Y238231D01*
X449490Y240547D01*
X447175Y242094D01*
X444444Y242637D01*
D02*
G37*
G36*
X422500Y259637D02*
X419769Y259094D01*
X417453Y257547D01*
X415906Y255231D01*
X415363Y252500D01*
X415906Y249769D01*
X417453Y247453D01*
X419769Y245906D01*
X422500Y245363D01*
X425231Y245906D01*
X427547Y247453D01*
X429094Y249769D01*
X429637Y252500D01*
X429094Y255231D01*
X427547Y257547D01*
X425231Y259094D01*
X422500Y259637D01*
D02*
G37*
G36*
X580000Y283660D02*
X575171Y283024D01*
X570670Y281160D01*
X566806Y278194D01*
X563840Y274330D01*
X561976Y269830D01*
X561340Y265000D01*
Y245000D01*
X561976Y240170D01*
X563840Y235670D01*
X566806Y231806D01*
X570670Y228840D01*
X575171Y226976D01*
X580000Y226340D01*
X584829Y226976D01*
X589330Y228840D01*
X593194Y231806D01*
X596160Y235670D01*
X598024Y240170D01*
X598660Y245000D01*
Y265000D01*
X598024Y269830D01*
X596160Y274330D01*
X593194Y278194D01*
X589330Y281160D01*
X584829Y283024D01*
X580000Y283660D01*
D02*
G37*
G36*
X486000Y256137D02*
X483269Y255594D01*
X480953Y254047D01*
X479406Y251731D01*
X478863Y249000D01*
X479406Y246269D01*
X480953Y243953D01*
X482303Y243052D01*
X483242Y241626D01*
X483166Y239368D01*
X482406Y238231D01*
X481863Y235500D01*
X482406Y232769D01*
X483953Y230453D01*
X486269Y228906D01*
X489000Y228363D01*
X491731Y228906D01*
X494000Y230422D01*
X496269Y228906D01*
X499000Y228363D01*
X501731Y228906D01*
X504047Y230453D01*
X504953D01*
X507269Y228906D01*
X510000Y228363D01*
X512731Y228906D01*
X515000Y230422D01*
X517269Y228906D01*
X520000Y228363D01*
X522731Y228906D01*
X524751Y230256D01*
X524953Y229953D01*
X527269Y228406D01*
X530000Y227863D01*
X532731Y228406D01*
X535047Y229953D01*
X536594Y232269D01*
X537137Y235000D01*
X536594Y237731D01*
X535047Y240047D01*
X532731Y241594D01*
X530000Y242137D01*
X527269Y241594D01*
X525249Y240244D01*
X525047Y240547D01*
X522731Y242094D01*
X520000Y242637D01*
X517269Y242094D01*
X515000Y240578D01*
X512731Y242094D01*
X510000Y242637D01*
X507269Y242094D01*
X504953Y240547D01*
X504047D01*
X501731Y242094D01*
X499000Y242637D01*
X496269Y242094D01*
X495495Y241577D01*
X494528Y241666D01*
X492887Y242502D01*
X492173Y245639D01*
X492594Y246269D01*
X493137Y249000D01*
X492594Y251731D01*
X491047Y254047D01*
X488731Y255594D01*
X486000Y256137D01*
D02*
G37*
G36*
X420000Y142137D02*
X417269Y141594D01*
X414953Y140047D01*
X413406Y137731D01*
X412863Y135000D01*
X413406Y132269D01*
X414953Y129953D01*
X417269Y128406D01*
X420000Y127863D01*
X422731Y128406D01*
X425047Y129953D01*
X426594Y132269D01*
X427137Y135000D01*
X426594Y137731D01*
X425047Y140047D01*
X422731Y141594D01*
X420000Y142137D01*
D02*
G37*
G36*
X100000Y78206D02*
X95903Y77391D01*
X92430Y75070D01*
X90109Y71597D01*
X89294Y67500D01*
X90109Y63403D01*
X92430Y59930D01*
X95903Y57609D01*
X100000Y56794D01*
X104097Y57609D01*
X107570Y59930D01*
X109891Y63403D01*
X110706Y67500D01*
X109891Y71597D01*
X107570Y75070D01*
X104097Y77391D01*
X100000Y78206D01*
D02*
G37*
G36*
X140000Y62137D02*
X137269Y61594D01*
X134953Y60047D01*
X133406Y57731D01*
X132863Y55000D01*
X133406Y52269D01*
X134953Y49953D01*
X137269Y48406D01*
X140000Y47863D01*
X142731Y48406D01*
X145047Y49953D01*
X146594Y52269D01*
X147137Y55000D01*
X146594Y57731D01*
X145047Y60047D01*
X142731Y61594D01*
X140000Y62137D01*
D02*
G37*
G36*
X117500Y329637D02*
X114769Y329094D01*
X112453Y327547D01*
X110906Y325231D01*
X110363Y322500D01*
X110906Y319769D01*
X112453Y317453D01*
X114769Y315906D01*
X117500Y315363D01*
X120231Y315906D01*
X122547Y317453D01*
X124094Y319769D01*
X124637Y322500D01*
X124094Y325231D01*
X122547Y327547D01*
X120231Y329094D01*
X117500Y329637D01*
D02*
G37*
G36*
X105400Y384938D02*
X103718Y384604D01*
X99748Y381951D01*
X97096Y377982D01*
X96762Y376300D01*
X105400D01*
Y384938D01*
D02*
G37*
G36*
X97000Y232000D02*
X90401D01*
X90580Y231098D01*
X92790Y227790D01*
X96098Y225580D01*
X97000Y225401D01*
Y232000D01*
D02*
G37*
G36*
X109599D02*
X103000D01*
Y225401D01*
X103902Y225580D01*
X107210Y227790D01*
X109420Y231098D01*
X109599Y232000D01*
D02*
G37*
G36*
X127500Y234637D02*
X124769Y234094D01*
X122453Y232547D01*
X120906Y230231D01*
X120363Y227500D01*
X120906Y224769D01*
X122453Y222453D01*
X124769Y220906D01*
X127500Y220363D01*
X130231Y220906D01*
X132547Y222453D01*
X134094Y224769D01*
X134637Y227500D01*
X134094Y230231D01*
X132547Y232547D01*
X130231Y234094D01*
X127500Y234637D01*
D02*
G37*
G36*
X92500Y259637D02*
X89769Y259094D01*
X87453Y257547D01*
X85906Y255231D01*
X85363Y252500D01*
X85906Y249769D01*
X87453Y247453D01*
X89769Y245906D01*
X92199Y245423D01*
X92676Y244523D01*
X93115Y242426D01*
X92790Y242210D01*
X90580Y238902D01*
X90401Y238000D01*
X100000D01*
X109599D01*
X109420Y238902D01*
X107210Y242210D01*
X103902Y244420D01*
X100000Y245196D01*
X99276Y245052D01*
X98274Y246444D01*
X97788Y247815D01*
X99094Y249769D01*
X99637Y252500D01*
X99094Y255231D01*
X97547Y257547D01*
X95231Y259094D01*
X92500Y259637D01*
D02*
G37*
%LPD*%
D12*
X175000Y15500D02*
D03*
Y29500D02*
D03*
D33*
Y46000D02*
X176000Y47000D01*
D38*
X235400Y373300D02*
D03*
X108400D02*
D03*
D41*
X385000Y-7000D02*
D03*
X100000Y235000D02*
D03*
X175000Y13000D02*
D03*
Y-7000D02*
D03*
D43*
X420000Y352500D02*
D03*
X219000Y187000D02*
D03*
Y194000D02*
D03*
Y180000D02*
D03*
X250000Y170000D02*
D03*
X138500Y83500D02*
D03*
X67500Y115000D02*
D03*
X115000Y205000D02*
D03*
X260000Y30000D02*
D03*
X252500D02*
D03*
X245000D02*
D03*
X260000Y37500D02*
D03*
X252500D02*
D03*
X245000D02*
D03*
X260000Y45000D02*
D03*
X245000D02*
D03*
X265000Y325000D02*
D03*
X192500Y320000D02*
D03*
X384500Y223000D02*
D03*
X447500Y50000D02*
D03*
X517000Y124500D02*
D03*
X507500Y12500D02*
D03*
X347300Y234800D02*
D03*
X477114Y382114D02*
D03*
X402500Y125000D02*
D03*
X427500Y142114D02*
D03*
X522500Y190000D02*
D03*
X600000Y173772D02*
D03*
X380919Y38386D02*
D03*
X335919Y37886D02*
D03*
X290919Y38386D02*
D03*
X410000Y185000D02*
D03*
X465000Y242500D02*
D03*
X462500Y135000D02*
D03*
X405000Y285000D02*
D03*
X307000Y78000D02*
D03*
X333838D02*
D03*
X387919Y87081D02*
D03*
X73000Y68000D02*
D03*
X203500Y247500D02*
D03*
X167500Y135000D02*
D03*
Y160000D02*
D03*
X175000Y225000D02*
D03*
X145000Y285000D02*
D03*
X92500Y322500D02*
D03*
X164500Y105500D02*
D03*
X103000Y105500D02*
D03*
X252500Y45000D02*
D03*
X219000Y201000D02*
D03*
D44*
X118000Y105500D02*
X164500D01*
D45*
X178000Y32000D02*
D03*
D46*
X174999Y22499D02*
D03*
M02*
