G04 Layer_Physical_Order=2*
G04 Layer_Color=36540*
%FSLAX44Y44*%
%MOMM*%
G71*
G01*
G75*
%ADD34C,0.3000*%
%ADD36C,0.2000*%
%ADD39O,1.2000X1.6500*%
%ADD42C,1.8000*%
%ADD44C,0.7000*%
%ADD45C,0.8000*%
G36*
X187600Y386262D02*
X189282Y386596D01*
X193251Y389249D01*
X195699Y392911D01*
X197300Y393075D01*
X198901Y392911D01*
X201348Y389249D01*
X205318Y386596D01*
X207000Y386262D01*
Y397900D01*
X213000D01*
Y386262D01*
X214682Y386596D01*
X218652Y389249D01*
X221304Y393218D01*
X221425Y393830D01*
X224484D01*
X224567Y393413D01*
X227109Y389609D01*
X230913Y387067D01*
X235000Y386254D01*
X235000Y362000D01*
X195000D01*
Y348085D01*
X193151Y346849D01*
X191051Y343707D01*
X190314Y340000D01*
X191051Y336293D01*
X193151Y333151D01*
X195000Y331915D01*
X195000Y107000D01*
X485000Y107000D01*
X485000Y58150D01*
X482000Y57240D01*
X480093Y60093D01*
X475462Y63188D01*
X470000Y64274D01*
X464538Y63188D01*
X459907Y60093D01*
X456812Y55462D01*
X455726Y50000D01*
X456812Y44538D01*
X459907Y39906D01*
X464538Y36812D01*
X470000Y35726D01*
X475462Y36812D01*
X480093Y39906D01*
X482000Y42760D01*
X485000Y41850D01*
X485000Y6118D01*
X80000D01*
Y6227D01*
X78556Y6515D01*
X77332Y7332D01*
X76515Y8556D01*
X76227Y10000D01*
X76118D01*
Y50000D01*
X75652Y52341D01*
X74326Y54326D01*
X72341Y55652D01*
X70000Y56118D01*
X10000D01*
Y56227D01*
X8556Y56515D01*
X7332Y57332D01*
X6515Y58556D01*
X6227Y60000D01*
X6118D01*
Y85000D01*
X16845D01*
X17463Y80301D01*
X19277Y75922D01*
X22162Y72162D01*
X25922Y69277D01*
X30301Y67463D01*
X35000Y66845D01*
X39699Y67463D01*
X44078Y69277D01*
X47838Y72162D01*
X50723Y75922D01*
X52537Y80301D01*
X53155Y85000D01*
X152500D01*
Y385213D01*
X155500Y386911D01*
X159200Y386175D01*
X163687Y387067D01*
X167491Y389609D01*
X170033Y393413D01*
X170116Y393830D01*
X173174D01*
X173296Y393218D01*
X175949Y389249D01*
X179918Y386596D01*
X181600Y386262D01*
Y397900D01*
X187600D01*
Y386262D01*
D02*
G37*
G36*
X538882Y350000D02*
X539348Y347659D01*
X540674Y345674D01*
X542659Y344348D01*
X545000Y343882D01*
X605000D01*
Y343773D01*
X606444Y343485D01*
X607668Y342668D01*
X608485Y341444D01*
X608773Y340000D01*
X608882D01*
Y60000D01*
X608773D01*
X608485Y58556D01*
X607668Y57332D01*
X606444Y56515D01*
X605000Y56227D01*
Y56118D01*
X545000D01*
X542659Y55652D01*
X540674Y54326D01*
X539348Y52341D01*
X538882Y50000D01*
Y10000D01*
X538773D01*
X538485Y8556D01*
X537668Y7332D01*
X536444Y6515D01*
X535000Y6227D01*
Y6118D01*
X490000D01*
Y112000D01*
X200000D01*
Y260924D01*
X203000Y261835D01*
X203534Y261035D01*
X205354Y259819D01*
X207500Y259392D01*
X209646Y259819D01*
X211465Y261035D01*
X212680Y262854D01*
X213107Y265000D01*
X212680Y267146D01*
X211465Y268965D01*
Y271034D01*
X212680Y272854D01*
X213107Y275000D01*
X212680Y277146D01*
X212268Y277763D01*
X211709Y279900D01*
X212268Y282036D01*
X212681Y282654D01*
X213108Y284800D01*
X212681Y286946D01*
X211465Y288765D01*
X210391Y289483D01*
X210208Y290177D01*
Y292123D01*
X210391Y292817D01*
X211465Y293535D01*
X212681Y295354D01*
X213108Y297500D01*
X212681Y299646D01*
X211465Y301465D01*
X209646Y302681D01*
X207500Y303108D01*
X205354Y302681D01*
X203535Y301465D01*
X203000Y300665D01*
X200000Y301575D01*
Y330314D01*
X200000Y330314D01*
X203707Y331051D01*
X206849Y333151D01*
X208949Y336293D01*
X209686Y340000D01*
X208949Y343707D01*
X206849Y346849D01*
X203707Y348949D01*
X200000Y349686D01*
X200000Y349686D01*
Y357000D01*
X240000D01*
Y385000D01*
X326000D01*
X326000Y442500D01*
X538882Y442500D01*
Y350000D01*
D02*
G37*
G36*
X142500Y435527D02*
X139500Y433924D01*
X138482Y434604D01*
X136800Y434938D01*
Y423300D01*
X130800D01*
Y434938D01*
X129118Y434604D01*
X125148Y431951D01*
X122496Y427982D01*
X122374Y427370D01*
X119316D01*
X119233Y427787D01*
X116691Y431591D01*
X112887Y434133D01*
X108400Y435025D01*
X103913Y434133D01*
X100109Y431591D01*
X97567Y427787D01*
X96675Y423300D01*
X97567Y418813D01*
X100109Y415009D01*
X103913Y412467D01*
X105611Y412129D01*
Y409071D01*
X103913Y408733D01*
X100109Y406191D01*
X97567Y402387D01*
X96675Y397900D01*
X97567Y393413D01*
X100109Y389609D01*
X103913Y387067D01*
X108400Y386175D01*
X112887Y387067D01*
X116691Y389609D01*
X119233Y393413D01*
X119571Y395112D01*
X122629D01*
X122967Y393413D01*
X125509Y389609D01*
X129313Y387067D01*
X133800Y386175D01*
X138287Y387067D01*
X138608Y387282D01*
X142090Y386000D01*
X142500Y385386D01*
Y143075D01*
X139500Y142165D01*
X138965Y142965D01*
X137146Y144181D01*
X135000Y144608D01*
X132854Y144181D01*
X131035Y142965D01*
X129819Y141146D01*
X129392Y139000D01*
X129819Y136854D01*
X131035Y135035D01*
X132854Y133819D01*
X135000Y133392D01*
X137146Y133819D01*
X138965Y135035D01*
X139500Y135835D01*
X142500Y134925D01*
Y95000D01*
X53155Y95000D01*
Y105000D01*
X52537Y109699D01*
X50723Y114078D01*
X47838Y117838D01*
X44078Y120723D01*
X39699Y122537D01*
X35000Y123155D01*
X30301Y122537D01*
X25922Y120723D01*
X22162Y117838D01*
X19277Y114078D01*
X17463Y109699D01*
X16845Y105000D01*
Y95000D01*
X6118D01*
Y340000D01*
X6227D01*
X6515Y341444D01*
X7332Y342668D01*
X8556Y343485D01*
X10000Y343773D01*
Y343882D01*
X70000D01*
X72341Y344348D01*
X74326Y345674D01*
X75652Y347659D01*
X76118Y350000D01*
Y443882D01*
X142500D01*
Y435527D01*
D02*
G37*
%LPC*%
G36*
X167500Y212608D02*
X165354Y212181D01*
X163535Y210965D01*
X162319Y209146D01*
X161892Y207000D01*
X162319Y204854D01*
X163535Y203035D01*
X165354Y201819D01*
X167500Y201392D01*
X169646Y201819D01*
X171465Y203035D01*
X172681Y204854D01*
X173108Y207000D01*
X172681Y209146D01*
X171465Y210965D01*
X169646Y212181D01*
X167500Y212608D01*
D02*
G37*
G36*
X178000Y189608D02*
X175854Y189181D01*
X174035Y187965D01*
X172819Y186146D01*
X172392Y184000D01*
X172819Y181854D01*
X174035Y180035D01*
X175854Y178819D01*
X178000Y178392D01*
X180146Y178819D01*
X181965Y180035D01*
X183181Y181854D01*
X183608Y184000D01*
X183181Y186146D01*
X181965Y187965D01*
X180146Y189181D01*
X178000Y189608D01*
D02*
G37*
G36*
X255000Y70917D02*
X251683Y70257D01*
X248872Y68378D01*
X246993Y65567D01*
X246529Y63235D01*
X243471D01*
X243007Y65567D01*
X241128Y68378D01*
X238316Y70257D01*
X235000Y70917D01*
X231684Y70257D01*
X228872Y68378D01*
X226993Y65567D01*
X226529Y63235D01*
X223471D01*
X223007Y65567D01*
X221128Y68378D01*
X218316Y70257D01*
X215000Y70917D01*
X211683Y70257D01*
X208872Y68378D01*
X206993Y65567D01*
X206529Y63235D01*
X203471D01*
X203007Y65567D01*
X201128Y68378D01*
X198316Y70257D01*
X195000Y70917D01*
X191684Y70257D01*
X188872Y68378D01*
X186993Y65567D01*
X186784Y64516D01*
X183725D01*
X183478Y65762D01*
X181489Y68739D01*
X178512Y70728D01*
X178000Y70830D01*
Y60000D01*
X172000D01*
Y70830D01*
X171488Y70728D01*
X168511Y68739D01*
X167500Y67225D01*
X164500Y68135D01*
Y69500D01*
X145500D01*
Y50500D01*
X146956D01*
X147143Y50293D01*
X148285Y47500D01*
X146993Y45567D01*
X146334Y42250D01*
Y37750D01*
X146993Y34433D01*
X148872Y31622D01*
X151683Y29743D01*
X155000Y29083D01*
X158316Y29743D01*
X161128Y31622D01*
X163007Y34433D01*
X163471Y36765D01*
X166529D01*
X166993Y34433D01*
X168872Y31622D01*
X171684Y29743D01*
X175000Y29083D01*
X178316Y29743D01*
X181128Y31622D01*
X183007Y34433D01*
X183471Y36765D01*
X186529D01*
X186993Y34433D01*
X188872Y31622D01*
X191684Y29743D01*
X195000Y29083D01*
X198316Y29743D01*
X201128Y31622D01*
X203007Y34433D01*
X203471Y36765D01*
X206529D01*
X206993Y34433D01*
X208872Y31622D01*
X211683Y29743D01*
X215000Y29083D01*
X218316Y29743D01*
X221128Y31622D01*
X223007Y34433D01*
X223471Y36765D01*
X226529D01*
X226993Y34433D01*
X228872Y31622D01*
X231684Y29743D01*
X235000Y29083D01*
X238316Y29743D01*
X241128Y31622D01*
X243007Y34433D01*
X243471Y36765D01*
X246529D01*
X246993Y34433D01*
X248872Y31622D01*
X251683Y29743D01*
X255000Y29083D01*
X258316Y29743D01*
X261128Y31622D01*
X263007Y34433D01*
X263666Y37750D01*
Y42250D01*
X263007Y45567D01*
X261128Y48378D01*
X260946Y48500D01*
Y51500D01*
X261128Y51622D01*
X263007Y54433D01*
X263666Y57750D01*
Y62250D01*
X263007Y65567D01*
X261128Y68378D01*
X258316Y70257D01*
X255000Y70917D01*
D02*
G37*
G36*
X332500Y73108D02*
X330354Y72681D01*
X328535Y71465D01*
X327917Y70540D01*
X327607Y70439D01*
X324893D01*
X324583Y70540D01*
X323965Y71465D01*
X322146Y72681D01*
X320000Y73108D01*
X317854Y72681D01*
X316035Y71465D01*
X314819Y69646D01*
X314392Y67500D01*
X314819Y65354D01*
X316035Y63535D01*
X317854Y62319D01*
X320000Y61892D01*
X322146Y62319D01*
X323965Y63535D01*
X324583Y64460D01*
X324893Y64561D01*
X327607D01*
X327917Y64460D01*
X328535Y63535D01*
X330354Y62319D01*
X332500Y61892D01*
X334646Y62319D01*
X336465Y63535D01*
X337681Y65354D01*
X338108Y67500D01*
X337681Y69646D01*
X336465Y71465D01*
X334646Y72681D01*
X332500Y73108D01*
D02*
G37*
G36*
X435000Y70917D02*
X431684Y70257D01*
X428872Y68378D01*
X426993Y65567D01*
X426529Y63235D01*
X423471D01*
X423007Y65567D01*
X421128Y68378D01*
X418316Y70257D01*
X415000Y70917D01*
X411684Y70257D01*
X408872Y68378D01*
X407500Y66325D01*
X404500Y67235D01*
Y69500D01*
X385500D01*
Y50500D01*
X386956D01*
X387143Y50293D01*
X388285Y47500D01*
X386993Y45567D01*
X386334Y42250D01*
Y37750D01*
X386993Y34433D01*
X388872Y31622D01*
X391683Y29743D01*
X395000Y29083D01*
X398316Y29743D01*
X401128Y31622D01*
X403007Y34433D01*
X403216Y35484D01*
X406274D01*
X406522Y34238D01*
X408511Y31261D01*
X411488Y29272D01*
X412000Y29170D01*
Y40000D01*
X418000D01*
Y29170D01*
X418512Y29272D01*
X421489Y31261D01*
X423478Y34238D01*
X423726Y35484D01*
X426784D01*
X426993Y34433D01*
X428872Y31622D01*
X431684Y29743D01*
X435000Y29083D01*
X438316Y29743D01*
X441128Y31622D01*
X443007Y34433D01*
X443666Y37750D01*
Y42250D01*
X443007Y45567D01*
X441128Y48378D01*
X440946Y48500D01*
Y51500D01*
X441128Y51622D01*
X443007Y54433D01*
X443666Y57750D01*
Y62250D01*
X443007Y65567D01*
X441128Y68378D01*
X438316Y70257D01*
X435000Y70917D01*
D02*
G37*
G36*
X120000Y64784D02*
X114342Y63659D01*
X109546Y60454D01*
X106341Y55658D01*
X105216Y50000D01*
X106341Y44342D01*
X109546Y39546D01*
X114342Y36341D01*
X120000Y35216D01*
X125658Y36341D01*
X130454Y39546D01*
X133659Y44342D01*
X134784Y50000D01*
X133659Y55658D01*
X130454Y60454D01*
X125658Y63659D01*
X120000Y64784D01*
D02*
G37*
G36*
X290000D02*
X284342Y63659D01*
X279546Y60454D01*
X276341Y55658D01*
X275216Y50000D01*
X276341Y44342D01*
X279546Y39546D01*
X284342Y36341D01*
X290000Y35216D01*
X295658Y36341D01*
X300454Y39546D01*
X303659Y44342D01*
X304784Y50000D01*
X303659Y55658D01*
X300454Y60454D01*
X295658Y63659D01*
X290000Y64784D01*
D02*
G37*
G36*
X360000Y64274D02*
X354538Y63188D01*
X349907Y60093D01*
X346812Y55462D01*
X345726Y50000D01*
X346812Y44538D01*
X349907Y39906D01*
X354538Y36812D01*
X360000Y35726D01*
X365462Y36812D01*
X370093Y39906D01*
X373188Y44538D01*
X374274Y50000D01*
X373188Y55462D01*
X370093Y60093D01*
X365462Y63188D01*
X360000Y64274D01*
D02*
G37*
G36*
X290919Y93994D02*
X288773Y93567D01*
X286954Y92351D01*
X285738Y90532D01*
X285311Y88386D01*
X285738Y86240D01*
X286954Y84421D01*
X288773Y83205D01*
X290919Y82778D01*
X293065Y83205D01*
X294884Y84421D01*
X296100Y86240D01*
X296527Y88386D01*
X296100Y90532D01*
X294884Y92351D01*
X293065Y93567D01*
X290919Y93994D01*
D02*
G37*
G36*
X261000Y89118D02*
X258659Y88652D01*
X256674Y87326D01*
X256219Y86644D01*
X252781D01*
X252326Y87326D01*
X250341Y88652D01*
X248000Y89118D01*
X245659Y88652D01*
X243674Y87326D01*
X242348Y85341D01*
X241882Y83000D01*
X242348Y80659D01*
X243674Y78674D01*
X245659Y77348D01*
X248000Y76883D01*
X250341Y77348D01*
X252326Y78674D01*
X252781Y79356D01*
X256219D01*
X256674Y78674D01*
X258659Y77348D01*
X261000Y76883D01*
X263341Y77348D01*
X265326Y78674D01*
X266652Y80659D01*
X267118Y83000D01*
X266652Y85341D01*
X265326Y87326D01*
X263341Y88652D01*
X261000Y89118D01*
D02*
G37*
G36*
X380919Y93994D02*
X378773Y93567D01*
X376954Y92351D01*
X375738Y90532D01*
X375311Y88386D01*
X375738Y86240D01*
X376954Y84421D01*
X378773Y83205D01*
X380919Y82778D01*
X383065Y83205D01*
X384884Y84421D01*
X386100Y86240D01*
X386527Y88386D01*
X386100Y90532D01*
X384884Y92351D01*
X383065Y93567D01*
X380919Y93994D01*
D02*
G37*
G36*
X452500Y85608D02*
X450354Y85181D01*
X448535Y83965D01*
X447319Y82146D01*
X446892Y80000D01*
X447319Y77854D01*
X448535Y76035D01*
X450354Y74819D01*
X452500Y74392D01*
X454646Y74819D01*
X456465Y76035D01*
X457681Y77854D01*
X458108Y80000D01*
X457681Y82146D01*
X456465Y83965D01*
X454646Y85181D01*
X452500Y85608D01*
D02*
G37*
G36*
X335919Y93494D02*
X333773Y93067D01*
X331954Y91851D01*
X330738Y90032D01*
X330311Y87886D01*
X330738Y85740D01*
X331954Y83921D01*
X333773Y82705D01*
X335919Y82278D01*
X338065Y82705D01*
X339884Y83921D01*
X341100Y85740D01*
X341527Y87886D01*
X341100Y90032D01*
X339884Y91851D01*
X338065Y93067D01*
X335919Y93494D01*
D02*
G37*
G36*
X183500Y308108D02*
X181354Y307681D01*
X179535Y306465D01*
X178319Y304646D01*
X177892Y302500D01*
X178319Y300354D01*
X179535Y298535D01*
X181354Y297319D01*
X183500Y296892D01*
X185646Y297319D01*
X187465Y298535D01*
X188681Y300354D01*
X189108Y302500D01*
X188681Y304646D01*
X187465Y306465D01*
X185646Y307681D01*
X183500Y308108D01*
D02*
G37*
G36*
X167500Y378108D02*
X165354Y377681D01*
X163535Y376465D01*
X162319Y374646D01*
X161892Y372500D01*
X162319Y370354D01*
X163535Y368535D01*
X165354Y367319D01*
X167500Y366892D01*
X169646Y367319D01*
X171465Y368535D01*
X172681Y370354D01*
X173108Y372500D01*
X172681Y374646D01*
X171465Y376465D01*
X169646Y377681D01*
X167500Y378108D01*
D02*
G37*
G36*
X170500Y271108D02*
X168354Y270681D01*
X166535Y269465D01*
X165319Y267646D01*
X164892Y265500D01*
X165319Y263354D01*
X166535Y261535D01*
X168354Y260319D01*
X170500Y259892D01*
X172646Y260319D01*
X174465Y261535D01*
X175681Y263354D01*
X176108Y265500D01*
X175681Y267646D01*
X174465Y269465D01*
X172646Y270681D01*
X170500Y271108D01*
D02*
G37*
G36*
X285000Y183108D02*
X282854Y182681D01*
X281035Y181465D01*
X279819Y179646D01*
X279392Y177500D01*
X279819Y175354D01*
X281035Y173535D01*
X282854Y172319D01*
X285000Y171892D01*
X287146Y172319D01*
X288965Y173535D01*
X290181Y175354D01*
X290608Y177500D01*
X290181Y179646D01*
X288965Y181465D01*
X287146Y182681D01*
X285000Y183108D01*
D02*
G37*
G36*
X517000Y180108D02*
X514854Y179681D01*
X513035Y178465D01*
X511819Y176646D01*
X511392Y174500D01*
X511819Y172354D01*
X513035Y170535D01*
X514854Y169319D01*
X517000Y168892D01*
X519146Y169319D01*
X520965Y170535D01*
X522181Y172354D01*
X522608Y174500D01*
X522181Y176646D01*
X520965Y178465D01*
X519146Y179681D01*
X517000Y180108D01*
D02*
G37*
G36*
X333838Y133608D02*
X331692Y133181D01*
X329873Y131965D01*
X328657Y130146D01*
X328230Y128000D01*
X328657Y125854D01*
X329873Y124035D01*
X331692Y122819D01*
X333838Y122392D01*
X335984Y122819D01*
X337803Y124035D01*
X339019Y125854D01*
X339446Y128000D01*
X339019Y130146D01*
X337803Y131965D01*
X335984Y133181D01*
X333838Y133608D01*
D02*
G37*
G36*
X458000Y147608D02*
X455854Y147181D01*
X454035Y145965D01*
X452819Y144146D01*
X452392Y142000D01*
X452819Y139854D01*
X454035Y138035D01*
X455854Y136819D01*
X458000Y136392D01*
X460146Y136819D01*
X461965Y138035D01*
X463181Y139854D01*
X463608Y142000D01*
X463181Y144146D01*
X461965Y145965D01*
X460146Y147181D01*
X458000Y147608D01*
D02*
G37*
G36*
X285000Y209108D02*
X282854Y208681D01*
X281035Y207465D01*
X279819Y205646D01*
X279392Y203500D01*
X279819Y201354D01*
X281035Y199535D01*
X282854Y198319D01*
X285000Y197892D01*
X287146Y198319D01*
X288965Y199535D01*
X290181Y201354D01*
X290608Y203500D01*
X290181Y205646D01*
X288965Y207465D01*
X287146Y208681D01*
X285000Y209108D01*
D02*
G37*
G36*
X600000Y213108D02*
X597854Y212681D01*
X596035Y211465D01*
X594819Y209646D01*
X594392Y207500D01*
X594819Y205354D01*
X596035Y203535D01*
X597854Y202319D01*
X600000Y201892D01*
X602146Y202319D01*
X603965Y203535D01*
X605181Y205354D01*
X605608Y207500D01*
X605181Y209646D01*
X603965Y211465D01*
X602146Y212681D01*
X600000Y213108D01*
D02*
G37*
G36*
X333919Y183494D02*
X331773Y183067D01*
X329954Y181851D01*
X328738Y180032D01*
X328311Y177886D01*
X328738Y175740D01*
X329954Y173921D01*
X331773Y172705D01*
X333919Y172278D01*
X336065Y172705D01*
X337884Y173921D01*
X339100Y175740D01*
X339527Y177886D01*
X339100Y180032D01*
X337884Y181851D01*
X336065Y183067D01*
X333919Y183494D01*
D02*
G37*
G36*
X377919D02*
X375773Y183067D01*
X373954Y181851D01*
X372738Y180032D01*
X372311Y177886D01*
X372738Y175740D01*
X373954Y173921D01*
X375773Y172705D01*
X377919Y172278D01*
X380065Y172705D01*
X381884Y173921D01*
X383100Y175740D01*
X383527Y177886D01*
X383100Y180032D01*
X381884Y181851D01*
X380065Y183067D01*
X377919Y183494D01*
D02*
G37*
G36*
X317000Y183608D02*
X314854Y183181D01*
X313035Y181965D01*
X311819Y180146D01*
X311392Y178000D01*
X311819Y175854D01*
X313035Y174035D01*
X314854Y172819D01*
X317000Y172392D01*
X319146Y172819D01*
X320965Y174035D01*
X322181Y175854D01*
X322608Y178000D01*
X322181Y180146D01*
X320965Y181965D01*
X319146Y183181D01*
X317000Y183608D01*
D02*
G37*
G36*
X307000Y134117D02*
X304659Y133652D01*
X302674Y132326D01*
X301348Y130341D01*
X300882Y128000D01*
X301348Y125659D01*
X302674Y123674D01*
X304659Y122348D01*
X307000Y121882D01*
X309341Y122348D01*
X311326Y123674D01*
X312652Y125659D01*
X313118Y128000D01*
X312652Y130341D01*
X311326Y132326D01*
X309341Y133652D01*
X307000Y134117D01*
D02*
G37*
G36*
X580000Y123155D02*
X575301Y122537D01*
X570922Y120723D01*
X567162Y117838D01*
X564277Y114078D01*
X562463Y109699D01*
X561845Y105000D01*
Y85000D01*
X562463Y80301D01*
X564277Y75922D01*
X567162Y72162D01*
X570922Y69277D01*
X575301Y67463D01*
X580000Y66845D01*
X584699Y67463D01*
X589078Y69277D01*
X592838Y72162D01*
X595723Y75922D01*
X597537Y80301D01*
X598155Y85000D01*
Y105000D01*
X597537Y109699D01*
X595723Y114078D01*
X592838Y117838D01*
X589078Y120723D01*
X584699Y122537D01*
X580000Y123155D01*
D02*
G37*
G36*
X510000Y90608D02*
X507854Y90181D01*
X506035Y88965D01*
X504819Y87146D01*
X504392Y85000D01*
X504819Y82854D01*
X506035Y81035D01*
X507854Y79819D01*
X510000Y79392D01*
X512146Y79819D01*
X513965Y81035D01*
X515181Y82854D01*
X515608Y85000D01*
X515181Y87146D01*
X513965Y88965D01*
X512146Y90181D01*
X510000Y90608D01*
D02*
G37*
G36*
X486000Y304608D02*
X483854Y304181D01*
X482035Y302965D01*
X480819Y301146D01*
X480392Y299000D01*
X480819Y296854D01*
X482035Y295035D01*
X483854Y293819D01*
X486000Y293392D01*
X488146Y293819D01*
X489965Y295035D01*
X491181Y296854D01*
X491608Y299000D01*
X491181Y301146D01*
X489965Y302965D01*
X488146Y304181D01*
X486000Y304608D01*
D02*
G37*
G36*
X580000Y333155D02*
X575301Y332537D01*
X570922Y330723D01*
X567162Y327838D01*
X564277Y324078D01*
X562463Y319699D01*
X561845Y315000D01*
Y295000D01*
X562463Y290301D01*
X564277Y285922D01*
X567162Y282162D01*
X570922Y279277D01*
X575301Y277463D01*
X580000Y276845D01*
X584699Y277463D01*
X589078Y279277D01*
X592838Y282162D01*
X595723Y285922D01*
X597537Y290301D01*
X598155Y295000D01*
Y315000D01*
X597537Y319699D01*
X595723Y324078D01*
X592838Y327838D01*
X589078Y330723D01*
X584699Y332537D01*
X580000Y333155D01*
D02*
G37*
G36*
X279000Y286608D02*
X276854Y286181D01*
X275035Y284965D01*
X273965D01*
X272146Y286181D01*
X270000Y286608D01*
X267854Y286181D01*
X266035Y284965D01*
X264965D01*
X263146Y286181D01*
X261000Y286608D01*
X258854Y286181D01*
X257035Y284965D01*
X255819Y283146D01*
X255392Y281000D01*
X255819Y278854D01*
X257035Y277035D01*
X258854Y275819D01*
X261000Y275392D01*
X263146Y275819D01*
X264965Y277035D01*
X266035D01*
X267854Y275819D01*
X270000Y275392D01*
X272146Y275819D01*
X273965Y277035D01*
X275035D01*
X276854Y275819D01*
X279000Y275392D01*
X281146Y275819D01*
X282965Y277035D01*
X284181Y278854D01*
X284608Y281000D01*
X284181Y283146D01*
X282965Y284965D01*
X281146Y286181D01*
X279000Y286608D01*
D02*
G37*
G36*
X530000Y290608D02*
X527854Y290181D01*
X527098Y289676D01*
X525000Y289200D01*
X522901Y289676D01*
X522146Y290181D01*
X520000Y290608D01*
X517854Y290181D01*
X516035Y288965D01*
X513965D01*
X512146Y290181D01*
X510000Y290608D01*
X507854Y290181D01*
X506035Y288965D01*
X503965D01*
X502146Y290181D01*
X500000Y290608D01*
X497854Y290181D01*
X496035Y288965D01*
X492965D01*
X491146Y290181D01*
X489000Y290608D01*
X486854Y290181D01*
X485035Y288965D01*
X483819Y287146D01*
X483392Y285000D01*
X483819Y282854D01*
X485035Y281035D01*
X486854Y279819D01*
X489000Y279392D01*
X491146Y279819D01*
X492965Y281035D01*
X496035D01*
X497854Y279819D01*
X500000Y279392D01*
X502146Y279819D01*
X503965Y281035D01*
X506035D01*
X507854Y279819D01*
X510000Y279392D01*
X512146Y279819D01*
X513965Y281035D01*
X516035D01*
X517854Y279819D01*
X520000Y279392D01*
X522146Y279819D01*
X522901Y280324D01*
X525000Y280800D01*
X527098Y280324D01*
X527854Y279819D01*
X530000Y279392D01*
X532146Y279819D01*
X533965Y281035D01*
X535181Y282854D01*
X535608Y285000D01*
X535181Y287146D01*
X533965Y288965D01*
X532146Y290181D01*
X530000Y290608D01*
D02*
G37*
G36*
X477114Y437722D02*
X474968Y437295D01*
X473149Y436079D01*
X471933Y434260D01*
X471506Y432114D01*
X471933Y429968D01*
X473149Y428149D01*
X474968Y426933D01*
X477114Y426506D01*
X479260Y426933D01*
X481079Y428149D01*
X482295Y429968D01*
X482722Y432114D01*
X482295Y434260D01*
X481079Y436079D01*
X479260Y437295D01*
X477114Y437722D01*
D02*
G37*
G36*
X416000Y428608D02*
X413854Y428181D01*
X412035Y426965D01*
X411734Y426516D01*
X408266D01*
X407965Y426965D01*
X406146Y428181D01*
X404000Y428608D01*
X401854Y428181D01*
X400035Y426965D01*
X398819Y425146D01*
X398392Y423000D01*
X398819Y420854D01*
X400035Y419035D01*
X401854Y417819D01*
X404000Y417392D01*
X406146Y417819D01*
X407965Y419035D01*
X408266Y419484D01*
X411734D01*
X412035Y419035D01*
X413854Y417819D01*
X416000Y417392D01*
X418146Y417819D01*
X419965Y419035D01*
X421181Y420854D01*
X421608Y423000D01*
X421181Y425146D01*
X419965Y426965D01*
X418146Y428181D01*
X416000Y428608D01*
D02*
G37*
G36*
X442499Y355607D02*
X440353Y355180D01*
X438534Y353965D01*
X437318Y352145D01*
X436891Y349999D01*
X436933Y349791D01*
X432430Y345288D01*
X428308D01*
X425629Y344179D01*
X425629Y344179D01*
X412919Y331469D01*
X410339Y332814D01*
X410210Y333003D01*
X410608Y335000D01*
X410181Y337146D01*
X408965Y338965D01*
X407146Y340181D01*
X405000Y340608D01*
X402854Y340181D01*
X401035Y338965D01*
X399819Y337146D01*
X399392Y335000D01*
X399819Y332854D01*
X401035Y331035D01*
X402854Y329819D01*
X405000Y329392D01*
X406997Y329790D01*
X407186Y329661D01*
X408531Y327081D01*
X407321Y325871D01*
X406212Y323192D01*
X406212Y323192D01*
Y270808D01*
X406212Y270808D01*
X407321Y268129D01*
X412712Y262738D01*
Y243127D01*
X410000Y240608D01*
X407854Y240181D01*
X406035Y238965D01*
X404819Y237146D01*
X404392Y235000D01*
X404819Y232854D01*
X406035Y231035D01*
X407854Y229819D01*
X410000Y229392D01*
X412712Y226873D01*
Y213127D01*
X410000Y210608D01*
X407854Y210181D01*
X406035Y208965D01*
X404819Y207146D01*
X404392Y205000D01*
X404819Y202854D01*
X406035Y201035D01*
X407854Y199819D01*
X410000Y199392D01*
X412712Y196873D01*
Y188500D01*
X412712Y188500D01*
X413821Y185821D01*
X414434Y185209D01*
X414392Y185000D01*
X414819Y182854D01*
X416035Y181035D01*
X417854Y179819D01*
X420000Y179392D01*
X422146Y179819D01*
X423965Y181035D01*
X425181Y182854D01*
X425427Y184093D01*
X425608Y185000D01*
X427500Y186506D01*
X429646Y186933D01*
X431465Y188149D01*
X431780Y188620D01*
X435369Y189274D01*
X437321Y187321D01*
Y187321D01*
X440000Y186212D01*
X440000Y186212D01*
X441917D01*
X442035Y186035D01*
X443854Y184819D01*
X446000Y184392D01*
X446318Y182754D01*
X445000Y180608D01*
X442854Y180181D01*
X441035Y178965D01*
X439819Y177146D01*
X439392Y175000D01*
X436891Y172247D01*
X411500D01*
X409379Y171369D01*
X408059Y172094D01*
X406704Y173039D01*
X406560Y173480D01*
X406863Y175000D01*
X406416Y177243D01*
X405145Y179146D01*
X403243Y180416D01*
X401000Y180863D01*
X398756Y180416D01*
X396855Y179146D01*
X395584Y177243D01*
X395137Y175000D01*
X395584Y172757D01*
X396855Y170854D01*
X398756Y169584D01*
X400154Y169306D01*
X401463Y168000D01*
X402152Y166308D01*
X401892Y165000D01*
X402319Y162854D01*
X403535Y161035D01*
X405354Y159819D01*
X407500Y159392D01*
X409646Y159819D01*
X411465Y161035D01*
X412681Y162854D01*
X413108Y165000D01*
X413726Y165753D01*
X447485D01*
X449781Y166704D01*
X454796Y171719D01*
X456375Y172033D01*
X462144Y166264D01*
X461892Y165000D01*
X462319Y162854D01*
X463535Y161035D01*
X465354Y159819D01*
X467500Y159392D01*
X469646Y159819D01*
X471465Y161035D01*
X472681Y162854D01*
X473108Y165000D01*
X472681Y167146D01*
X471465Y168965D01*
X469646Y170181D01*
X467500Y170608D01*
X467070Y170522D01*
X460950Y176642D01*
X462428Y179407D01*
X462500Y179392D01*
X464646Y179819D01*
X466465Y181035D01*
X467681Y182854D01*
X468108Y185000D01*
X467681Y187146D01*
X466465Y188965D01*
X464646Y190181D01*
X462500Y190608D01*
X462247Y190557D01*
X459247Y192775D01*
Y208000D01*
X458296Y210296D01*
X452104Y216488D01*
X452219Y217331D01*
X453286Y219549D01*
X454646Y219819D01*
X456465Y221035D01*
X457681Y222854D01*
X458108Y225000D01*
X457681Y227146D01*
X456465Y228965D01*
X454646Y230181D01*
X452500Y230608D01*
X450354Y230181D01*
X448535Y228965D01*
X445828Y229984D01*
X440788Y235024D01*
Y255431D01*
X461179Y275821D01*
X462288Y278500D01*
X462288Y278500D01*
Y284373D01*
X465000Y286892D01*
X467146Y287319D01*
X468965Y288535D01*
X470181Y290354D01*
X470608Y292500D01*
X470181Y294646D01*
X468965Y296465D01*
X467146Y297681D01*
X465000Y298108D01*
X462288Y300627D01*
Y320780D01*
X464157Y323253D01*
X476500D01*
X478796Y324204D01*
X481653Y327061D01*
X482500Y326892D01*
X484646Y327319D01*
X486465Y328535D01*
X487681Y330354D01*
X488108Y332500D01*
X487681Y334646D01*
X486465Y336465D01*
X484646Y337681D01*
X482500Y338108D01*
X480354Y337681D01*
X478535Y336465D01*
X476079Y336465D01*
X475472Y336871D01*
X474260Y337681D01*
X472114Y338108D01*
X469968Y337681D01*
X468149Y336465D01*
X465350Y337677D01*
X456231Y346796D01*
X453935Y347747D01*
X450718D01*
X448107Y349999D01*
X447680Y352145D01*
X446464Y353965D01*
X444645Y355180D01*
X442499Y355607D01*
D02*
G37*
G36*
X347000Y347608D02*
X344854Y347181D01*
X343035Y345965D01*
X341819Y344146D01*
X341392Y342000D01*
X341819Y339854D01*
X343035Y338035D01*
X344854Y336819D01*
X347000Y336392D01*
X349146Y336819D01*
X350965Y338035D01*
X352181Y339854D01*
X352608Y342000D01*
X352181Y344146D01*
X350965Y345965D01*
X349146Y347181D01*
X347000Y347608D01*
D02*
G37*
G36*
X522500Y245608D02*
X520354Y245181D01*
X518535Y243965D01*
X517319Y242146D01*
X516892Y240000D01*
X517319Y237854D01*
X518535Y236035D01*
X520354Y234819D01*
X522500Y234392D01*
X524646Y234819D01*
X526465Y236035D01*
X527681Y237854D01*
X528108Y240000D01*
X527681Y242146D01*
X526465Y243965D01*
X524646Y245181D01*
X522500Y245608D01*
D02*
G37*
G36*
X339529D02*
X337383Y245181D01*
X335564Y243965D01*
X334348Y242146D01*
X333921Y240000D01*
X334030Y239451D01*
X331954Y238272D01*
X331244Y238079D01*
X329596Y239181D01*
X327450Y239608D01*
X325304Y239181D01*
X323484Y237965D01*
X322269Y236146D01*
X321842Y234000D01*
X322269Y231854D01*
X323484Y230035D01*
X325304Y228819D01*
X327450Y228392D01*
X329596Y228819D01*
X331415Y230035D01*
X332631Y231854D01*
X333057Y234000D01*
X332948Y234549D01*
X335024Y235728D01*
X335734Y235921D01*
X337383Y234819D01*
X339529Y234392D01*
X341675Y234819D01*
X343494Y236035D01*
X344710Y237854D01*
X345136Y240000D01*
X344710Y242146D01*
X343494Y243965D01*
X341675Y245181D01*
X339529Y245608D01*
D02*
G37*
G36*
X352450Y251608D02*
X350304Y251181D01*
X348484Y249965D01*
X347269Y248146D01*
X346842Y246000D01*
X347269Y243854D01*
X348484Y242035D01*
X350304Y240819D01*
X352450Y240392D01*
X354596Y240819D01*
X356415Y242035D01*
X357631Y243854D01*
X358057Y246000D01*
X357631Y248146D01*
X356415Y249965D01*
X354596Y251181D01*
X352450Y251608D01*
D02*
G37*
G36*
X250000Y218108D02*
X247854Y217681D01*
X246035Y216465D01*
X244819Y214646D01*
X244392Y212500D01*
X244819Y210354D01*
X246035Y208535D01*
X247854Y207319D01*
X250000Y206892D01*
X252146Y207319D01*
X253965Y208535D01*
X255181Y210354D01*
X255608Y212500D01*
X255181Y214646D01*
X253965Y216465D01*
X252146Y217681D01*
X250000Y218108D01*
D02*
G37*
G36*
X315000Y230608D02*
X312854Y230181D01*
X311035Y228965D01*
X309819Y227146D01*
X309392Y225000D01*
X309819Y222854D01*
X311035Y221035D01*
X311501Y220723D01*
Y217262D01*
X311035Y216951D01*
X309819Y215131D01*
X309392Y212985D01*
X309819Y210839D01*
X311035Y209020D01*
X312854Y207805D01*
X315000Y207378D01*
X317146Y207805D01*
X318965Y209020D01*
X319583Y209945D01*
X319893Y210046D01*
X322607D01*
X322917Y209945D01*
X323535Y209020D01*
X325354Y207805D01*
X327500Y207378D01*
X329646Y207805D01*
X331465Y209020D01*
X331788Y209503D01*
X335241Y209503D01*
X335564Y209020D01*
X337383Y207805D01*
X339529Y207378D01*
X341675Y207805D01*
X343494Y209020D01*
X344325Y210263D01*
X345697Y210532D01*
X346282D01*
X347654Y210263D01*
X348484Y209020D01*
X350304Y207805D01*
X352450Y207378D01*
X354596Y207805D01*
X356415Y209020D01*
X357350Y210419D01*
X358978Y210649D01*
X360606Y210419D01*
X361541Y209020D01*
X363360Y207805D01*
X365506Y207378D01*
X367652Y207805D01*
X369471Y209020D01*
X370271Y210216D01*
X371433Y210464D01*
X372442D01*
X373604Y210216D01*
X374403Y209020D01*
X376223Y207805D01*
X378369Y207378D01*
X380515Y207805D01*
X382334Y209020D01*
X383550Y210839D01*
X383976Y212985D01*
X383550Y215131D01*
X382334Y216951D01*
X380515Y218166D01*
X378369Y218593D01*
X376223Y218166D01*
X374403Y216951D01*
X373604Y215754D01*
X372442Y215506D01*
X371433D01*
X370271Y215754D01*
X369471Y216951D01*
X367652Y218166D01*
X365506Y218593D01*
X363360Y218166D01*
X361541Y216951D01*
X360606Y215551D01*
X358978Y215322D01*
X357350Y215551D01*
X356415Y216951D01*
X354596Y218166D01*
X352450Y218593D01*
X350304Y218166D01*
X348484Y216951D01*
X347654Y215707D01*
X346282Y215439D01*
X345697D01*
X344325Y215707D01*
X343494Y216951D01*
X341675Y218166D01*
X339529Y218593D01*
X337383Y218166D01*
X335564Y216951D01*
X335241Y216468D01*
X331788Y216468D01*
X331465Y216951D01*
X329646Y218166D01*
X327500Y218593D01*
X325354Y218166D01*
X323535Y216951D01*
X322917Y216026D01*
X322607Y215924D01*
X319893D01*
X319583Y216026D01*
X318965Y216951D01*
X318499Y217262D01*
Y220723D01*
X318965Y221035D01*
X320181Y222854D01*
X320608Y225000D01*
X320181Y227146D01*
X318965Y228965D01*
X317146Y230181D01*
X315000Y230608D01*
D02*
G37*
G36*
X565000Y220608D02*
X562854Y220181D01*
X561035Y218965D01*
X559819Y217146D01*
X559392Y215000D01*
X559819Y212854D01*
X561035Y211035D01*
X562854Y209819D01*
X565000Y209392D01*
X567146Y209819D01*
X568965Y211035D01*
X570181Y212854D01*
X570608Y215000D01*
X570181Y217146D01*
X568965Y218965D01*
X567146Y220181D01*
X565000Y220608D01*
D02*
G37*
G36*
X347300Y290408D02*
X345154Y289981D01*
X343335Y288765D01*
X342119Y286946D01*
X341692Y284800D01*
X342119Y282654D01*
X343335Y280835D01*
X344176Y280273D01*
X344280Y277115D01*
X344210Y276916D01*
X343535Y276465D01*
X342319Y274646D01*
X341892Y272500D01*
X342319Y270354D01*
X343535Y268535D01*
X345354Y267319D01*
X347500Y266892D01*
X349646Y267319D01*
X351465Y268535D01*
X352681Y270354D01*
X353108Y272500D01*
X352681Y274646D01*
X351465Y276465D01*
X350624Y277027D01*
X350521Y280184D01*
X350590Y280383D01*
X351265Y280835D01*
X352481Y282654D01*
X352908Y284800D01*
X352481Y286946D01*
X351265Y288765D01*
X349446Y289981D01*
X347300Y290408D01*
D02*
G37*
G36*
X382500Y285608D02*
X380354Y285181D01*
X378535Y283965D01*
X377319Y282146D01*
X376892Y280000D01*
X377319Y277854D01*
X378535Y276035D01*
X380354Y274819D01*
X382500Y274392D01*
X384646Y274819D01*
X386465Y276035D01*
X387681Y277854D01*
X388108Y280000D01*
X387681Y282146D01*
X386465Y283965D01*
X384646Y285181D01*
X382500Y285608D01*
D02*
G37*
G36*
X472500Y261608D02*
X470354Y261181D01*
X468535Y259965D01*
X467319Y258146D01*
X466892Y256000D01*
X467319Y253854D01*
X468535Y252035D01*
X470354Y250819D01*
X472500Y250392D01*
X474646Y250819D01*
X476465Y252035D01*
X477681Y253854D01*
X478108Y256000D01*
X477681Y258146D01*
X476465Y259965D01*
X474646Y261181D01*
X472500Y261608D01*
D02*
G37*
G36*
X378419Y264108D02*
X376273Y263681D01*
X374454Y262465D01*
X373238Y260646D01*
X372811Y258500D01*
X372921Y257947D01*
X372920Y257885D01*
X370299Y255864D01*
X370033Y255940D01*
X369965Y255965D01*
X369374Y256360D01*
X368146Y257181D01*
X366000Y257608D01*
X363854Y257181D01*
X362035Y255965D01*
X360819Y254146D01*
X360392Y252000D01*
X360819Y249854D01*
X362035Y248035D01*
X363854Y246819D01*
X366000Y246392D01*
X368146Y246819D01*
X369965Y248035D01*
X371181Y249854D01*
X371608Y252000D01*
X371498Y252553D01*
X371499Y252615D01*
X374120Y254636D01*
X374385Y254560D01*
X374454Y254535D01*
X375045Y254140D01*
X376273Y253319D01*
X378419Y252892D01*
X380565Y253319D01*
X382384Y254535D01*
X383600Y256354D01*
X384027Y258500D01*
X383600Y260646D01*
X382384Y262465D01*
X380565Y263681D01*
X378419Y264108D01*
D02*
G37*
G36*
X62500Y170608D02*
X60354Y170181D01*
X58535Y168965D01*
X57319Y167146D01*
X56892Y165000D01*
X57319Y162854D01*
X58535Y161035D01*
X60354Y159819D01*
X62500Y159392D01*
X64646Y159819D01*
X66465Y161035D01*
X67681Y162854D01*
X68108Y165000D01*
X67681Y167146D01*
X66465Y168965D01*
X64646Y170181D01*
X62500Y170608D01*
D02*
G37*
G36*
X97500Y165608D02*
X95354Y165181D01*
X93535Y163965D01*
X92319Y162146D01*
X91892Y160000D01*
X92319Y157854D01*
X93535Y156035D01*
X95354Y154819D01*
X97500Y154392D01*
X99646Y154819D01*
X101465Y156035D01*
X102681Y157854D01*
X103108Y160000D01*
X102681Y162146D01*
X101465Y163965D01*
X99646Y165181D01*
X97500Y165608D01*
D02*
G37*
G36*
Y137186D02*
X93793Y136449D01*
X90651Y134349D01*
X88551Y131207D01*
X87814Y127500D01*
X88551Y123793D01*
X90651Y120651D01*
X93793Y118551D01*
X97500Y117814D01*
X101207Y118551D01*
X104349Y120651D01*
X106449Y123793D01*
X107186Y127500D01*
X106449Y131207D01*
X104349Y134349D01*
X101207Y136449D01*
X97500Y137186D01*
D02*
G37*
G36*
X85000Y215608D02*
X82854Y215181D01*
X81035Y213965D01*
X79819Y212146D01*
X79392Y210000D01*
X79819Y207854D01*
X81035Y206035D01*
X82854Y204819D01*
X85000Y204392D01*
X87146Y204819D01*
X88965Y206035D01*
X90181Y207854D01*
X90608Y210000D01*
X90181Y212146D01*
X88965Y213965D01*
X87146Y215181D01*
X85000Y215608D01*
D02*
G37*
G36*
X92500Y308108D02*
X90354Y307681D01*
X88535Y306465D01*
X87319Y304646D01*
X86892Y302500D01*
X87319Y300354D01*
X88535Y298535D01*
X90354Y297319D01*
X92500Y296892D01*
X94646Y297319D01*
X96465Y298535D01*
X97681Y300354D01*
X98108Y302500D01*
X97681Y304646D01*
X96465Y306465D01*
X94646Y307681D01*
X92500Y308108D01*
D02*
G37*
G36*
X83000Y323608D02*
X80854Y323181D01*
X79035Y321965D01*
X77819Y320146D01*
X77392Y318000D01*
X77819Y315854D01*
X79035Y314035D01*
X80854Y312819D01*
X83000Y312392D01*
X85146Y312819D01*
X86965Y314035D01*
X88181Y315854D01*
X88608Y318000D01*
X88181Y320146D01*
X86965Y321965D01*
X85146Y323181D01*
X83000Y323608D01*
D02*
G37*
G36*
X117500Y378108D02*
X115354Y377681D01*
X113535Y376465D01*
X112319Y374646D01*
X111892Y372500D01*
X112319Y370354D01*
X113535Y368535D01*
X115354Y367319D01*
X117500Y366892D01*
X119646Y367319D01*
X121465Y368535D01*
X122681Y370354D01*
X123108Y372500D01*
X122681Y374646D01*
X121465Y376465D01*
X119646Y377681D01*
X117500Y378108D01*
D02*
G37*
G36*
X92500D02*
X90354Y377681D01*
X88535Y376465D01*
X87319Y374646D01*
X86892Y372500D01*
X87319Y370354D01*
X88535Y368535D01*
X90354Y367319D01*
X92500Y366892D01*
X94646Y367319D01*
X96465Y368535D01*
X97681Y370354D01*
X98108Y372500D01*
X97681Y374646D01*
X96465Y376465D01*
X94646Y377681D01*
X92500Y378108D01*
D02*
G37*
G36*
X62500Y235608D02*
X60354Y235181D01*
X58535Y233965D01*
X57319Y232146D01*
X56892Y230000D01*
X57319Y227854D01*
X58535Y226035D01*
X60354Y224819D01*
X62500Y224392D01*
X64646Y224819D01*
X66465Y226035D01*
X67681Y227854D01*
X68108Y230000D01*
X67681Y232146D01*
X66465Y233965D01*
X64646Y235181D01*
X62500Y235608D01*
D02*
G37*
G36*
X35000Y333155D02*
X30301Y332537D01*
X25922Y330723D01*
X22162Y327838D01*
X19277Y324078D01*
X17463Y319699D01*
X16845Y315000D01*
Y295000D01*
X17463Y290301D01*
X19277Y285922D01*
X22162Y282162D01*
X25922Y279277D01*
X30301Y277463D01*
X35000Y276845D01*
X39699Y277463D01*
X44078Y279277D01*
X47838Y282162D01*
X50723Y285922D01*
X52537Y290301D01*
X53155Y295000D01*
Y315000D01*
X52537Y319699D01*
X50723Y324078D01*
X47838Y327838D01*
X44078Y330723D01*
X39699Y332537D01*
X35000Y333155D01*
D02*
G37*
G36*
X85000Y260608D02*
X82854Y260181D01*
X81035Y258965D01*
X79819Y257146D01*
X79392Y255000D01*
X79819Y252854D01*
X81035Y251035D01*
X82854Y249819D01*
X85000Y249392D01*
X87146Y249819D01*
X88965Y251035D01*
X90181Y252854D01*
X90608Y255000D01*
X90181Y257146D01*
X88965Y258965D01*
X87146Y260181D01*
X85000Y260608D01*
D02*
G37*
%LPD*%
D34*
X445455Y225000D02*
X452500D01*
X421000Y209000D02*
X440000Y190000D01*
X458500Y278500D02*
Y326500D01*
X416500Y188500D02*
Y264308D01*
Y188500D02*
X420000Y185000D01*
X421000Y209000D02*
Y266808D01*
X424000Y269808D01*
Y276808D01*
X428308Y341500D02*
X434000D01*
X442499Y349999D01*
X440000Y190000D02*
X446000D01*
X437000Y233455D02*
X445455Y225000D01*
X437000Y233455D02*
Y257000D01*
X458500Y278500D01*
X450000Y335000D02*
X458500Y326500D01*
X416000Y320000D02*
X431000Y335000D01*
X410000Y323192D02*
X428308Y341500D01*
X410000Y270808D02*
X416500Y264308D01*
X410000Y270808D02*
Y323192D01*
X416000Y284808D02*
Y320000D01*
Y284808D02*
X424000Y276808D01*
D36*
X429500Y229550D02*
X452500Y206550D01*
X454500Y280157D02*
Y322015D01*
X444000Y332515D02*
X454500Y322015D01*
X444000Y332515D02*
Y337485D01*
X433000Y258657D02*
X454500Y280157D01*
X433000Y231000D02*
Y258657D01*
Y231000D02*
X456000Y208000D01*
X429500Y229550D02*
Y260500D01*
X451000Y282000D01*
Y320565D01*
X440500Y331065D02*
X451000Y320565D01*
X456000Y334657D02*
Y337485D01*
X452485Y341000D02*
X456000Y337485D01*
X447515Y341000D02*
X452485D01*
X444000Y337485D02*
X447515Y341000D01*
X440500Y331065D02*
Y338935D01*
X446065Y344500D01*
X453935D01*
X465935Y332500D01*
X472114D01*
X464157Y326500D02*
X476500D01*
X456000Y334657D02*
X464157Y326500D01*
X476500D02*
X482500Y332500D01*
X456000Y177000D02*
Y208000D01*
X452500Y174015D02*
Y206550D01*
X411500Y169000D02*
X447485D01*
X452500Y174015D01*
X407500Y165000D02*
X411500Y169000D01*
X467500Y165000D02*
Y165500D01*
X456000Y177000D02*
X467500Y165500D01*
D39*
X175000Y60000D02*
D03*
X415000Y40000D02*
D03*
D42*
X184600Y397900D02*
D03*
X133800Y423300D02*
D03*
X210000Y397900D02*
D03*
D44*
Y162500D02*
D03*
X227500D02*
D03*
X339000Y425000D02*
D03*
X97000Y197000D02*
D03*
X472114Y332500D02*
D03*
X323419Y88386D02*
D03*
X278419Y88386D02*
D03*
X482500Y240000D02*
D03*
X477114Y384614D02*
D03*
X582500Y205000D02*
D03*
X442499Y349999D02*
D03*
X357500Y157500D02*
D03*
X368419Y88386D02*
D03*
X457499Y252500D02*
D03*
X420000Y185000D02*
D03*
X482500Y332500D02*
D03*
X452500Y237500D02*
D03*
Y225000D02*
D03*
X462500Y222500D02*
D03*
X431000Y335000D02*
D03*
X446000Y190000D02*
D03*
X450000Y335000D02*
D03*
X375000D02*
D03*
X407500Y165000D02*
D03*
X109000Y362000D02*
D03*
X245000Y197500D02*
D03*
X262500D02*
D03*
X227500D02*
D03*
X210000D02*
D03*
Y180000D02*
D03*
X227500D02*
D03*
X245000D02*
D03*
X262500D02*
D03*
X470000Y80000D02*
D03*
X511157Y103657D02*
D03*
X467500Y165000D02*
D03*
D45*
X118000Y221000D02*
D03*
Y232000D02*
D03*
Y243000D02*
D03*
M02*
