G04 Layer_Physical_Order=2*
G04 Layer_Color=36540*
%FSLAX44Y44*%
%MOMM*%
G71*
G01*
G75*
%ADD34C,0.3000*%
%ADD35C,0.2000*%
%ADD39C,1.4000*%
%ADD41C,1.7000*%
%ADD43C,0.7000*%
G36*
X77600Y111771D02*
X79087Y112067D01*
X82891Y114609D01*
X85433Y118413D01*
X85771Y120112D01*
X88829D01*
X89167Y118413D01*
X91709Y114609D01*
X95513Y112067D01*
X97000Y111771D01*
Y122900D01*
X103000D01*
Y111771D01*
X104487Y112067D01*
X108291Y114609D01*
X110833Y118413D01*
X111426Y121393D01*
X114484D01*
X115038Y118608D01*
X117469Y114969D01*
X121108Y112538D01*
X125000Y111764D01*
X125000Y87000D01*
X85000D01*
Y73753D01*
X82151Y71849D01*
X80051Y68707D01*
X79314Y65000D01*
X80051Y61293D01*
X82151Y58151D01*
X85000Y56247D01*
X85000Y-168000D01*
X375000Y-168000D01*
X375000Y-216850D01*
X372000Y-217760D01*
X370093Y-214907D01*
X365462Y-211812D01*
X360000Y-210726D01*
X354537Y-211812D01*
X349907Y-214907D01*
X346812Y-219538D01*
X345726Y-225000D01*
X346812Y-230463D01*
X349907Y-235093D01*
X354537Y-238188D01*
X360000Y-239274D01*
X365462Y-238188D01*
X370093Y-235093D01*
X372000Y-232240D01*
X375000Y-233150D01*
X375000Y-268883D01*
X-30000D01*
Y-268773D01*
X-31444Y-268485D01*
X-32668Y-267668D01*
X-33485Y-266444D01*
X-33772Y-265000D01*
X-33883D01*
Y-225000D01*
X-34348Y-222659D01*
X-35674Y-220674D01*
X-37659Y-219348D01*
X-40000Y-218883D01*
X-100000D01*
Y-218773D01*
X-101444Y-218485D01*
X-102668Y-217668D01*
X-103485Y-216444D01*
X-103772Y-215000D01*
X-103883D01*
Y-190000D01*
X-93155D01*
X-92537Y-194699D01*
X-90723Y-199078D01*
X-87838Y-202838D01*
X-84078Y-205723D01*
X-79699Y-207537D01*
X-75000Y-208155D01*
X-70301Y-207537D01*
X-65922Y-205723D01*
X-62162Y-202838D01*
X-59277Y-199078D01*
X-57463Y-194699D01*
X-56845Y-190000D01*
X42500D01*
Y110814D01*
X45500Y112421D01*
X49200Y111685D01*
X53492Y112538D01*
X57130Y114969D01*
X59562Y118608D01*
X60116Y121393D01*
X63175D01*
X63767Y118413D01*
X66309Y114609D01*
X70113Y112067D01*
X71600Y111771D01*
Y122900D01*
X77600D01*
Y111771D01*
D02*
G37*
G36*
X428708Y165325D02*
X428773Y165000D01*
X428862D01*
X428882Y164957D01*
Y75000D01*
X429348Y72659D01*
X430674Y70674D01*
X432659Y69348D01*
X435000Y68882D01*
X495000D01*
Y68773D01*
X496444Y68485D01*
X497668Y67668D01*
X498485Y66444D01*
X498773Y65000D01*
X498882D01*
Y-215000D01*
X498773D01*
X498485Y-216444D01*
X497668Y-217668D01*
X496444Y-218485D01*
X495000Y-218773D01*
Y-218883D01*
X435000D01*
X432659Y-219348D01*
X430674Y-220674D01*
X429348Y-222659D01*
X428882Y-225000D01*
Y-265000D01*
X428773D01*
X428485Y-266444D01*
X427668Y-267668D01*
X426444Y-268485D01*
X425000Y-268773D01*
Y-268883D01*
X380000D01*
Y-163000D01*
X90000D01*
Y-14075D01*
X93000Y-13166D01*
X93534Y-13965D01*
X95354Y-15181D01*
X97500Y-15608D01*
X99646Y-15181D01*
X101465Y-13965D01*
X102680Y-12146D01*
X103107Y-10000D01*
X102680Y-7854D01*
X101465Y-6035D01*
Y-3966D01*
X102680Y-2147D01*
X103107Y-0D01*
X102680Y2146D01*
X102268Y2763D01*
X101709Y4900D01*
X102268Y7036D01*
X102681Y7654D01*
X103108Y9800D01*
X102681Y11946D01*
X101465Y13765D01*
X99646Y14981D01*
X97500Y15408D01*
X95354Y14981D01*
X93535Y13765D01*
X93000Y12965D01*
X90000Y13875D01*
Y55513D01*
X92707Y56051D01*
X95849Y58151D01*
X97949Y61293D01*
X98686Y65000D01*
X97949Y68707D01*
X95849Y71849D01*
X92707Y73949D01*
X90000Y74487D01*
Y82000D01*
X130000D01*
Y110000D01*
X216000D01*
X216000Y167500D01*
X427675Y167500D01*
X428708Y165325D01*
D02*
G37*
G36*
X32500Y159926D02*
X29500Y158322D01*
X28287Y159133D01*
X26800Y159429D01*
Y148300D01*
X20800D01*
Y159429D01*
X19313Y159133D01*
X15509Y156591D01*
X12967Y152787D01*
X12375Y149807D01*
X9316D01*
X8762Y152592D01*
X6331Y156230D01*
X2692Y158662D01*
X-1600Y159515D01*
X-5892Y158662D01*
X-9531Y156230D01*
X-11962Y152592D01*
X-12816Y148300D01*
X-11962Y144008D01*
X-9531Y140369D01*
X-5892Y137938D01*
X-1600Y137085D01*
X2692Y137938D01*
X6331Y140369D01*
X8762Y144008D01*
X9316Y146793D01*
X12375D01*
X12967Y143813D01*
X15509Y140009D01*
X19313Y137467D01*
X22293Y136875D01*
Y133816D01*
X19508Y133262D01*
X15869Y130830D01*
X13438Y127192D01*
X12585Y122900D01*
X13438Y118608D01*
X15869Y114969D01*
X19508Y112538D01*
X23800Y111685D01*
X28092Y112538D01*
X28297Y112675D01*
X30906Y112010D01*
X31812Y111416D01*
X32500Y110386D01*
Y-180000D01*
X-56845Y-180000D01*
Y-170000D01*
X-57463Y-165301D01*
X-59277Y-160922D01*
X-62162Y-157162D01*
X-65922Y-154277D01*
X-70301Y-152463D01*
X-75000Y-151845D01*
X-79699Y-152463D01*
X-84078Y-154277D01*
X-87838Y-157162D01*
X-90723Y-160922D01*
X-92537Y-165301D01*
X-93155Y-170000D01*
Y-180000D01*
X-103883D01*
Y65000D01*
X-103772D01*
X-103485Y66444D01*
X-102668Y67668D01*
X-101444Y68485D01*
X-100000Y68773D01*
Y68882D01*
X-40000D01*
X-37659Y69348D01*
X-35674Y70674D01*
X-34348Y72659D01*
X-33883Y75000D01*
Y165000D01*
X-33883Y165000D01*
X-33772D01*
X-33485Y166444D01*
X-32668Y167668D01*
X-31444Y168485D01*
X-30000Y168773D01*
Y168882D01*
X32500D01*
Y159926D01*
D02*
G37*
%LPC*%
G36*
X57500Y-62392D02*
X55354Y-62819D01*
X53535Y-64035D01*
X52319Y-65854D01*
X51892Y-68000D01*
X52319Y-70146D01*
X53535Y-71965D01*
X55354Y-73181D01*
X57500Y-73608D01*
X59646Y-73181D01*
X61465Y-71965D01*
X62681Y-70146D01*
X63108Y-68000D01*
X62681Y-65854D01*
X61465Y-64035D01*
X59646Y-62819D01*
X57500Y-62392D01*
D02*
G37*
G36*
X68000Y-85392D02*
X65854Y-85819D01*
X64035Y-87035D01*
X62819Y-88854D01*
X62392Y-91000D01*
X62819Y-93146D01*
X64035Y-94965D01*
X65854Y-96181D01*
X68000Y-96608D01*
X70146Y-96181D01*
X71965Y-94965D01*
X73181Y-93146D01*
X73608Y-91000D01*
X73181Y-88854D01*
X71965Y-87035D01*
X70146Y-85819D01*
X68000Y-85392D01*
D02*
G37*
G36*
X145000Y-205314D02*
X141293Y-206051D01*
X138151Y-208151D01*
X136667Y-210372D01*
X136411Y-210459D01*
X133589D01*
X133333Y-210372D01*
X131849Y-208151D01*
X128707Y-206051D01*
X125000Y-205314D01*
X121293Y-206051D01*
X118151Y-208151D01*
X116667Y-210372D01*
X116411Y-210459D01*
X113589D01*
X113333Y-210372D01*
X111849Y-208151D01*
X108707Y-206051D01*
X105000Y-205314D01*
X101293Y-206051D01*
X98151Y-208151D01*
X96667Y-210372D01*
X96411Y-210459D01*
X93589D01*
X93333Y-210372D01*
X91849Y-208151D01*
X88707Y-206051D01*
X85000Y-205314D01*
X81293Y-206051D01*
X78151Y-208151D01*
X77002Y-209871D01*
X73529Y-209765D01*
X72210Y-207790D01*
X68902Y-205580D01*
X68000Y-205401D01*
Y-215000D01*
X62000D01*
Y-205401D01*
X61098Y-205580D01*
X57790Y-207790D01*
X57500Y-208225D01*
X54500Y-207315D01*
Y-205500D01*
X35500D01*
Y-224500D01*
X38215D01*
X39125Y-227500D01*
X38151Y-228151D01*
X36051Y-231293D01*
X35314Y-235000D01*
X36051Y-238707D01*
X38151Y-241849D01*
X41293Y-243949D01*
X45000Y-244686D01*
X48707Y-243949D01*
X51849Y-241849D01*
X53333Y-239628D01*
X53589Y-239541D01*
X56411D01*
X56667Y-239628D01*
X58151Y-241849D01*
X61293Y-243949D01*
X65000Y-244686D01*
X68707Y-243949D01*
X71849Y-241849D01*
X73333Y-239628D01*
X73589Y-239541D01*
X76411D01*
X76667Y-239628D01*
X78151Y-241849D01*
X81293Y-243949D01*
X85000Y-244686D01*
X88707Y-243949D01*
X91849Y-241849D01*
X93333Y-239628D01*
X93589Y-239541D01*
X96411D01*
X96667Y-239628D01*
X98151Y-241849D01*
X101293Y-243949D01*
X105000Y-244686D01*
X108707Y-243949D01*
X111849Y-241849D01*
X113333Y-239628D01*
X113589Y-239541D01*
X116411D01*
X116667Y-239628D01*
X118151Y-241849D01*
X121293Y-243949D01*
X125000Y-244686D01*
X128707Y-243949D01*
X131849Y-241849D01*
X133333Y-239628D01*
X133589Y-239541D01*
X136411D01*
X136667Y-239628D01*
X138151Y-241849D01*
X141293Y-243949D01*
X145000Y-244686D01*
X148707Y-243949D01*
X151849Y-241849D01*
X153949Y-238707D01*
X154686Y-235000D01*
X153949Y-231293D01*
X151849Y-228151D01*
X149628Y-226667D01*
X149541Y-226411D01*
Y-223589D01*
X149628Y-223333D01*
X151849Y-221849D01*
X153949Y-218707D01*
X154686Y-215000D01*
X153949Y-211293D01*
X151849Y-208151D01*
X148707Y-206051D01*
X145000Y-205314D01*
D02*
G37*
G36*
X342500Y-189392D02*
X340354Y-189819D01*
X338535Y-191035D01*
X337319Y-192854D01*
X336892Y-195000D01*
X337319Y-197146D01*
X338535Y-198965D01*
X340354Y-200181D01*
X342500Y-200608D01*
X344646Y-200181D01*
X346465Y-198965D01*
X347681Y-197146D01*
X348108Y-195000D01*
X347681Y-192854D01*
X346465Y-191035D01*
X344646Y-189819D01*
X342500Y-189392D01*
D02*
G37*
G36*
X222500Y-201892D02*
X220354Y-202319D01*
X218535Y-203535D01*
X217917Y-204460D01*
X217607Y-204561D01*
X214893D01*
X214583Y-204460D01*
X213965Y-203535D01*
X212146Y-202319D01*
X210000Y-201892D01*
X207854Y-202319D01*
X206035Y-203535D01*
X204819Y-205354D01*
X204392Y-207500D01*
X204819Y-209646D01*
X206035Y-211465D01*
X207854Y-212681D01*
X210000Y-213108D01*
X212146Y-212681D01*
X213965Y-211465D01*
X214583Y-210540D01*
X214893Y-210439D01*
X217607D01*
X217917Y-210540D01*
X218535Y-211465D01*
X220354Y-212681D01*
X222500Y-213108D01*
X224646Y-212681D01*
X226465Y-211465D01*
X227681Y-209646D01*
X228108Y-207500D01*
X227681Y-205354D01*
X226465Y-203535D01*
X224646Y-202319D01*
X222500Y-201892D01*
D02*
G37*
G36*
X180000Y-210216D02*
X174342Y-211341D01*
X169546Y-214546D01*
X166341Y-219342D01*
X165216Y-225000D01*
X166341Y-230658D01*
X169546Y-235454D01*
X174342Y-238659D01*
X180000Y-239784D01*
X185658Y-238659D01*
X190454Y-235454D01*
X193659Y-230658D01*
X194784Y-225000D01*
X193659Y-219342D01*
X190454Y-214546D01*
X185658Y-211341D01*
X180000Y-210216D01*
D02*
G37*
G36*
X10000D02*
X4342Y-211341D01*
X-454Y-214546D01*
X-3659Y-219342D01*
X-4784Y-225000D01*
X-3659Y-230658D01*
X-454Y-235454D01*
X4342Y-238659D01*
X10000Y-239784D01*
X15658Y-238659D01*
X20454Y-235454D01*
X23659Y-230658D01*
X24784Y-225000D01*
X23659Y-219342D01*
X20454Y-214546D01*
X15658Y-211341D01*
X10000Y-210216D01*
D02*
G37*
G36*
X325000Y-205314D02*
X321293Y-206051D01*
X318151Y-208151D01*
X316667Y-210372D01*
X316411Y-210459D01*
X313589D01*
X313333Y-210372D01*
X311849Y-208151D01*
X308707Y-206051D01*
X305000Y-205314D01*
X301293Y-206051D01*
X298151Y-208151D01*
X297500Y-209125D01*
X294500Y-208215D01*
Y-205500D01*
X275500D01*
Y-224500D01*
X278215D01*
X279125Y-227500D01*
X278151Y-228151D01*
X276051Y-231293D01*
X275314Y-235000D01*
X276051Y-238707D01*
X278151Y-241849D01*
X281293Y-243949D01*
X285000Y-244686D01*
X288707Y-243949D01*
X291849Y-241849D01*
X292998Y-240129D01*
X296471Y-240235D01*
X297790Y-242210D01*
X301098Y-244420D01*
X302000Y-244599D01*
Y-235000D01*
X308000D01*
Y-244599D01*
X308902Y-244420D01*
X312210Y-242210D01*
X313529Y-240235D01*
X317002Y-240129D01*
X318151Y-241849D01*
X321293Y-243949D01*
X325000Y-244686D01*
X328707Y-243949D01*
X331849Y-241849D01*
X333949Y-238707D01*
X334686Y-235000D01*
X333949Y-231293D01*
X331849Y-228151D01*
X329628Y-226667D01*
X329541Y-226411D01*
Y-223589D01*
X329628Y-223333D01*
X331849Y-221849D01*
X333949Y-218707D01*
X334686Y-215000D01*
X333949Y-211293D01*
X331849Y-208151D01*
X328707Y-206051D01*
X325000Y-205314D01*
D02*
G37*
G36*
X250000Y-210726D02*
X244538Y-211812D01*
X239907Y-214907D01*
X236812Y-219538D01*
X235726Y-225000D01*
X236812Y-230463D01*
X239907Y-235093D01*
X244538Y-238188D01*
X250000Y-239274D01*
X255462Y-238188D01*
X260093Y-235093D01*
X263188Y-230463D01*
X264274Y-225000D01*
X263188Y-219538D01*
X260093Y-214907D01*
X255462Y-211812D01*
X250000Y-210726D01*
D02*
G37*
G36*
X155000Y-187392D02*
X152854Y-187819D01*
X151035Y-189035D01*
X148965D01*
X147146Y-187819D01*
X145000Y-187392D01*
X142854Y-187819D01*
X141035Y-189035D01*
X138965D01*
X137146Y-187819D01*
X135000Y-187392D01*
X132854Y-187819D01*
X131035Y-189035D01*
X129819Y-190854D01*
X129392Y-193000D01*
X129819Y-195146D01*
X131035Y-196965D01*
X132854Y-198181D01*
X135000Y-198608D01*
X137146Y-198181D01*
X138965Y-196965D01*
X141035D01*
X142854Y-198181D01*
X145000Y-198608D01*
X147146Y-198181D01*
X148965Y-196965D01*
X151035D01*
X152854Y-198181D01*
X155000Y-198608D01*
X157146Y-198181D01*
X158965Y-196965D01*
X160181Y-195146D01*
X160608Y-193000D01*
X160181Y-190854D01*
X158965Y-189035D01*
X157146Y-187819D01*
X155000Y-187392D01*
D02*
G37*
G36*
X225919Y-181506D02*
X223773Y-181933D01*
X221954Y-183149D01*
X220738Y-184968D01*
X220311Y-187114D01*
X220738Y-189260D01*
X221954Y-191079D01*
X223773Y-192295D01*
X225919Y-192722D01*
X228065Y-192295D01*
X229884Y-191079D01*
X231100Y-189260D01*
X231527Y-187114D01*
X231100Y-184968D01*
X229884Y-183149D01*
X228065Y-181933D01*
X225919Y-181506D01*
D02*
G37*
G36*
X180919Y-181006D02*
X178773Y-181433D01*
X176954Y-182649D01*
X175738Y-184468D01*
X175311Y-186614D01*
X175738Y-188760D01*
X176954Y-190579D01*
X178773Y-191795D01*
X180919Y-192222D01*
X183065Y-191795D01*
X184884Y-190579D01*
X186100Y-188760D01*
X186527Y-186614D01*
X186100Y-184468D01*
X184884Y-182649D01*
X183065Y-181433D01*
X180919Y-181006D01*
D02*
G37*
G36*
X270919Y-181006D02*
X268773Y-181433D01*
X266954Y-182649D01*
X265738Y-184468D01*
X265311Y-186614D01*
X265738Y-188760D01*
X266954Y-190579D01*
X268773Y-191795D01*
X270919Y-192222D01*
X273065Y-191795D01*
X274884Y-190579D01*
X276100Y-188760D01*
X276527Y-186614D01*
X276100Y-184468D01*
X274884Y-182649D01*
X273065Y-181433D01*
X270919Y-181006D01*
D02*
G37*
G36*
X73500Y33108D02*
X71354Y32681D01*
X69535Y31465D01*
X68319Y29646D01*
X67892Y27500D01*
X68319Y25354D01*
X69535Y23535D01*
X71354Y22319D01*
X73500Y21892D01*
X75646Y22319D01*
X77465Y23535D01*
X78681Y25354D01*
X79108Y27500D01*
X78681Y29646D01*
X77465Y31465D01*
X75646Y32681D01*
X73500Y33108D01*
D02*
G37*
G36*
X57500Y103108D02*
X55354Y102681D01*
X53535Y101465D01*
X52319Y99646D01*
X51892Y97500D01*
X52319Y95354D01*
X53535Y93535D01*
X55354Y92319D01*
X57500Y91892D01*
X59646Y92319D01*
X61465Y93535D01*
X62681Y95354D01*
X63108Y97500D01*
X62681Y99646D01*
X61465Y101465D01*
X59646Y102681D01*
X57500Y103108D01*
D02*
G37*
G36*
X60500Y-3892D02*
X58354Y-4319D01*
X56535Y-5535D01*
X55319Y-7354D01*
X54892Y-9500D01*
X55319Y-11646D01*
X56535Y-13465D01*
X58354Y-14681D01*
X60500Y-15108D01*
X62646Y-14681D01*
X64465Y-13465D01*
X65681Y-11646D01*
X66108Y-9500D01*
X65681Y-7354D01*
X64465Y-5535D01*
X62646Y-4319D01*
X60500Y-3892D01*
D02*
G37*
G36*
X407000Y-94892D02*
X404854Y-95319D01*
X403035Y-96535D01*
X401819Y-98354D01*
X401392Y-100500D01*
X401819Y-102646D01*
X403035Y-104465D01*
X404854Y-105681D01*
X407000Y-106108D01*
X409146Y-105681D01*
X410965Y-104465D01*
X412181Y-102646D01*
X412608Y-100500D01*
X412181Y-98354D01*
X410965Y-96535D01*
X409146Y-95319D01*
X407000Y-94892D01*
D02*
G37*
G36*
X175000Y-91892D02*
X172854Y-92319D01*
X171035Y-93535D01*
X169819Y-95354D01*
X169392Y-97500D01*
X169819Y-99646D01*
X171035Y-101465D01*
X172854Y-102681D01*
X175000Y-103108D01*
X177146Y-102681D01*
X178965Y-101465D01*
X180181Y-99646D01*
X180608Y-97500D01*
X180181Y-95354D01*
X178965Y-93535D01*
X177146Y-92319D01*
X175000Y-91892D01*
D02*
G37*
G36*
X224000Y-92392D02*
X221854Y-92819D01*
X220034Y-94035D01*
X218819Y-95854D01*
X218392Y-98000D01*
X218819Y-100146D01*
X220034Y-101965D01*
X221854Y-103181D01*
X224000Y-103608D01*
X226145Y-103181D01*
X227965Y-101965D01*
X229180Y-100146D01*
X229607Y-98000D01*
X229180Y-95854D01*
X227965Y-94035D01*
X226145Y-92819D01*
X224000Y-92392D01*
D02*
G37*
G36*
X348000Y-127392D02*
X345854Y-127819D01*
X344035Y-129035D01*
X342819Y-130854D01*
X342392Y-133000D01*
X342819Y-135146D01*
X344035Y-136965D01*
X345854Y-138181D01*
X348000Y-138608D01*
X350146Y-138181D01*
X351965Y-136965D01*
X353181Y-135146D01*
X353608Y-133000D01*
X353181Y-130854D01*
X351965Y-129035D01*
X350146Y-127819D01*
X348000Y-127392D01*
D02*
G37*
G36*
X490000Y-61892D02*
X487854Y-62319D01*
X486035Y-63535D01*
X484819Y-65354D01*
X484392Y-67500D01*
X484819Y-69646D01*
X486035Y-71465D01*
X487854Y-72681D01*
X490000Y-73108D01*
X492146Y-72681D01*
X493965Y-71465D01*
X495181Y-69646D01*
X495608Y-67500D01*
X495181Y-65354D01*
X493965Y-63535D01*
X492146Y-62319D01*
X490000Y-61892D01*
D02*
G37*
G36*
X140000Y-56892D02*
X137854Y-57319D01*
X136035Y-58535D01*
X134819Y-60354D01*
X134392Y-62500D01*
X134819Y-64646D01*
X136035Y-66465D01*
X137854Y-67681D01*
X140000Y-68108D01*
X142146Y-67681D01*
X143965Y-66465D01*
X145181Y-64646D01*
X145608Y-62500D01*
X145181Y-60354D01*
X143965Y-58535D01*
X142146Y-57319D01*
X140000Y-56892D01*
D02*
G37*
G36*
X267999Y-91392D02*
X265854Y-91819D01*
X264034Y-93034D01*
X262819Y-94854D01*
X262392Y-97000D01*
X262819Y-99146D01*
X264034Y-100965D01*
X265854Y-102181D01*
X267999Y-102607D01*
X270145Y-102181D01*
X271965Y-100965D01*
X273180Y-99146D01*
X273607Y-97000D01*
X273180Y-94854D01*
X271965Y-93034D01*
X270145Y-91819D01*
X267999Y-91392D01*
D02*
G37*
G36*
X209000D02*
X206854Y-91819D01*
X205034Y-93034D01*
X203819Y-94854D01*
X203392Y-97000D01*
X203819Y-99146D01*
X205034Y-100965D01*
X206854Y-102181D01*
X209000Y-102607D01*
X211146Y-102181D01*
X212965Y-100965D01*
X214180Y-99146D01*
X214607Y-97000D01*
X214180Y-94854D01*
X212965Y-93034D01*
X211146Y-91819D01*
X209000Y-91392D01*
D02*
G37*
G36*
X175000Y-65892D02*
X172854Y-66319D01*
X171035Y-67535D01*
X169819Y-69354D01*
X169392Y-71500D01*
X169819Y-73646D01*
X171035Y-75465D01*
X172854Y-76681D01*
X175000Y-77108D01*
X177146Y-76681D01*
X178965Y-75465D01*
X180181Y-73646D01*
X180608Y-71500D01*
X180181Y-69354D01*
X178965Y-67535D01*
X177146Y-66319D01*
X175000Y-65892D01*
D02*
G37*
G36*
X470000Y-151845D02*
X465301Y-152463D01*
X460922Y-154277D01*
X457162Y-157162D01*
X454277Y-160922D01*
X452463Y-165301D01*
X451845Y-170000D01*
Y-190000D01*
X452463Y-194699D01*
X454277Y-199078D01*
X457162Y-202838D01*
X460922Y-205723D01*
X465301Y-207537D01*
X470000Y-208155D01*
X474699Y-207537D01*
X479078Y-205723D01*
X482838Y-202838D01*
X485723Y-199078D01*
X487537Y-194699D01*
X488155Y-190000D01*
Y-170000D01*
X487537Y-165301D01*
X485723Y-160922D01*
X482838Y-157162D01*
X479078Y-154277D01*
X474699Y-152463D01*
X470000Y-151845D01*
D02*
G37*
G36*
X223838Y-141392D02*
X221692Y-141819D01*
X219873Y-143035D01*
X218657Y-144854D01*
X218230Y-147000D01*
X218657Y-149146D01*
X219873Y-150965D01*
X221692Y-152181D01*
X223838Y-152608D01*
X225984Y-152181D01*
X227803Y-150965D01*
X229019Y-149146D01*
X229446Y-147000D01*
X229019Y-144854D01*
X227803Y-143035D01*
X225984Y-141819D01*
X223838Y-141392D01*
D02*
G37*
G36*
X197000D02*
X194854Y-141819D01*
X193035Y-143035D01*
X191819Y-144854D01*
X191392Y-147000D01*
X191819Y-149146D01*
X193035Y-150965D01*
X194854Y-152181D01*
X197000Y-152608D01*
X199146Y-152181D01*
X200965Y-150965D01*
X202181Y-149146D01*
X202608Y-147000D01*
X202181Y-144854D01*
X200965Y-143035D01*
X199146Y-141819D01*
X197000Y-141392D01*
D02*
G37*
G36*
X400000Y-184392D02*
X397854Y-184819D01*
X396035Y-186035D01*
X394819Y-187854D01*
X394392Y-190000D01*
X394819Y-192146D01*
X396035Y-193965D01*
X397854Y-195181D01*
X400000Y-195608D01*
X402146Y-195181D01*
X403965Y-193965D01*
X405181Y-192146D01*
X405608Y-190000D01*
X405181Y-187854D01*
X403965Y-186035D01*
X402146Y-184819D01*
X400000Y-184392D01*
D02*
G37*
G36*
X455000Y-54392D02*
X452854Y-54819D01*
X451035Y-56035D01*
X449819Y-57854D01*
X449392Y-60000D01*
X449819Y-62146D01*
X451035Y-63965D01*
X452854Y-65181D01*
X455000Y-65608D01*
X457146Y-65181D01*
X458965Y-63965D01*
X460181Y-62146D01*
X460608Y-60000D01*
X460181Y-57854D01*
X458965Y-56035D01*
X457146Y-54819D01*
X455000Y-54392D01*
D02*
G37*
G36*
X111600Y61008D02*
X109454Y60581D01*
X107635Y59365D01*
X106419Y57546D01*
X105992Y55400D01*
X106419Y53254D01*
X107635Y51435D01*
X109454Y50219D01*
X111600Y49792D01*
X113746Y50219D01*
X115565Y51435D01*
X116781Y53254D01*
X117208Y55400D01*
X116781Y57546D01*
X115565Y59365D01*
X113746Y60581D01*
X111600Y61008D01*
D02*
G37*
G36*
X238000Y22608D02*
X235854Y22181D01*
X234035Y20965D01*
X232819Y19146D01*
X232392Y17000D01*
X232819Y14854D01*
X234035Y13035D01*
X235854Y11819D01*
X238000Y11392D01*
X240146Y11819D01*
X241965Y13035D01*
X243181Y14854D01*
X243608Y17000D01*
X243181Y19146D01*
X241965Y20965D01*
X240146Y22181D01*
X238000Y22608D01*
D02*
G37*
G36*
X169000Y14608D02*
X166854Y14181D01*
X166790Y14138D01*
X164500Y13187D01*
X162210Y14138D01*
X162146Y14181D01*
X160000Y14608D01*
X157854Y14181D01*
X157790Y14138D01*
X155500Y13187D01*
X153210Y14138D01*
X153146Y14181D01*
X151000Y14608D01*
X148854Y14181D01*
X147035Y12965D01*
X145819Y11146D01*
X145392Y9000D01*
X145819Y6854D01*
X147035Y5035D01*
X148854Y3819D01*
X151000Y3392D01*
X153146Y3819D01*
X153210Y3862D01*
X155500Y4813D01*
X157790Y3862D01*
X157854Y3819D01*
X160000Y3392D01*
X162146Y3819D01*
X162210Y3862D01*
X164500Y4813D01*
X166790Y3862D01*
X166854Y3819D01*
X169000Y3392D01*
X171146Y3819D01*
X172965Y5035D01*
X174181Y6854D01*
X174608Y9000D01*
X174181Y11146D01*
X172965Y12965D01*
X171146Y14181D01*
X169000Y14608D01*
D02*
G37*
G36*
X390000Y25608D02*
X387854Y25181D01*
X386035Y23965D01*
X384819Y22146D01*
X384392Y20000D01*
X384819Y17854D01*
X385374Y17024D01*
X385375Y16863D01*
X384981Y15937D01*
X381815Y14734D01*
X381146Y15181D01*
X379000Y15608D01*
X376854Y15181D01*
X375035Y13965D01*
X373819Y12146D01*
X373392Y10000D01*
X373819Y7854D01*
X375035Y6035D01*
X376854Y4819D01*
X379000Y4392D01*
X381146Y4819D01*
X382965Y6035D01*
X386035D01*
X387854Y4819D01*
X390000Y4392D01*
X392146Y4819D01*
X393965Y6035D01*
X395181Y7854D01*
X395471Y9311D01*
X398529D01*
X398819Y7854D01*
X400035Y6035D01*
X401854Y4819D01*
X404000Y4392D01*
X406146Y4819D01*
X407965Y6035D01*
X409035D01*
X410854Y4819D01*
X413000Y4392D01*
X415146Y4819D01*
X416965Y6035D01*
X418181Y7854D01*
X418608Y10000D01*
X418181Y12146D01*
X416965Y13965D01*
X415146Y15181D01*
X413000Y15608D01*
X410854Y15181D01*
X409035Y13965D01*
X407965D01*
X406146Y15181D01*
X404000Y15608D01*
X401854Y15181D01*
X400035Y13965D01*
X398819Y12146D01*
X398529Y10689D01*
X395471D01*
X395181Y12146D01*
X393965Y13965D01*
Y16035D01*
X395181Y17854D01*
X395608Y20000D01*
X395181Y22146D01*
X393965Y23965D01*
X392146Y25181D01*
X390000Y25608D01*
D02*
G37*
G36*
X237000Y72608D02*
X234854Y72181D01*
X233035Y70965D01*
X231819Y69146D01*
X231392Y67000D01*
X231819Y64854D01*
X233035Y63035D01*
X234854Y61819D01*
X237000Y61392D01*
X239146Y61819D01*
X240965Y63035D01*
X242181Y64854D01*
X242608Y67000D01*
X242181Y69146D01*
X240965Y70965D01*
X239146Y72181D01*
X237000Y72608D01*
D02*
G37*
G36*
X367114Y162722D02*
X364968Y162295D01*
X363149Y161079D01*
X361933Y159260D01*
X361506Y157114D01*
X361933Y154968D01*
X363149Y153149D01*
X364968Y151933D01*
X367114Y151506D01*
X369260Y151933D01*
X371079Y153149D01*
X372295Y154968D01*
X372722Y157114D01*
X372295Y159260D01*
X371079Y161079D01*
X369260Y162295D01*
X367114Y162722D01*
D02*
G37*
G36*
X306000Y153608D02*
X303854Y153181D01*
X302035Y151965D01*
X301734Y151516D01*
X298266D01*
X297965Y151965D01*
X296146Y153181D01*
X294000Y153608D01*
X291854Y153181D01*
X290035Y151965D01*
X288819Y150146D01*
X288392Y148000D01*
X288819Y145854D01*
X290035Y144035D01*
X291854Y142819D01*
X294000Y142392D01*
X296146Y142819D01*
X297965Y144035D01*
X298266Y144484D01*
X301734D01*
X302035Y144035D01*
X303854Y142819D01*
X306000Y142392D01*
X308146Y142819D01*
X309965Y144035D01*
X311181Y145854D01*
X311608Y148000D01*
X311181Y150146D01*
X309965Y151965D01*
X308146Y153181D01*
X306000Y153608D01*
D02*
G37*
G36*
X334000Y81608D02*
X331854Y81181D01*
X330035Y79965D01*
X329916Y79788D01*
X323000D01*
X320321Y78679D01*
X320321Y78679D01*
X303331Y61688D01*
X301289Y61985D01*
X299926Y62527D01*
X298965Y63965D01*
X297146Y65181D01*
X295000Y65608D01*
X292854Y65181D01*
X291035Y63965D01*
X289819Y62146D01*
X289392Y60000D01*
X289819Y57854D01*
X291035Y56035D01*
X292854Y54819D01*
X293652Y54660D01*
X295362Y53551D01*
X296211Y51574D01*
Y-30100D01*
X296211Y-30100D01*
X297017Y-32045D01*
X297276Y-32905D01*
X296214Y-35915D01*
X296035Y-36035D01*
X294819Y-37854D01*
X294392Y-40000D01*
X294819Y-42146D01*
X296035Y-43965D01*
X297854Y-45181D01*
X300000Y-45608D01*
X301211Y-45367D01*
X303650Y-46804D01*
X304211Y-47409D01*
Y-67591D01*
X303650Y-68196D01*
X301211Y-69633D01*
X300000Y-69392D01*
X297854Y-69819D01*
X296035Y-71035D01*
X294819Y-72854D01*
X294392Y-75000D01*
X294819Y-77146D01*
X296035Y-78965D01*
X297854Y-80181D01*
X300000Y-80608D01*
X302146Y-80181D01*
X302285Y-80088D01*
X303597Y-79868D01*
X306212Y-82024D01*
Y-85917D01*
X306035Y-86035D01*
X304819Y-87854D01*
X304392Y-90000D01*
X304819Y-92146D01*
X306035Y-93965D01*
X307854Y-95181D01*
X310000Y-95608D01*
X312146Y-95181D01*
X313965Y-93965D01*
X315181Y-92146D01*
X315427Y-90907D01*
X315608Y-90000D01*
X317500Y-88494D01*
X319646Y-88067D01*
X321465Y-86851D01*
X321780Y-86380D01*
X325369Y-85726D01*
X329321Y-89679D01*
Y-89679D01*
X332000Y-90788D01*
X332001Y-90791D01*
X332451Y-93788D01*
X332379Y-94136D01*
X331034Y-95035D01*
X329818Y-96854D01*
X329392Y-99000D01*
X329541Y-99753D01*
X327559Y-102753D01*
X301500D01*
X299204Y-103704D01*
X298832Y-104076D01*
X296375Y-104065D01*
X295927Y-103673D01*
X294293Y-101582D01*
X294608Y-100000D01*
X294181Y-97854D01*
X292965Y-96035D01*
X291146Y-94819D01*
X289000Y-94392D01*
X286854Y-94819D01*
X285035Y-96035D01*
X283819Y-97854D01*
X283392Y-100000D01*
X283819Y-102146D01*
X285035Y-103965D01*
X286854Y-105181D01*
X289000Y-105608D01*
X290398Y-105330D01*
X292149Y-107276D01*
X292381Y-107761D01*
X292319Y-107854D01*
X291892Y-110000D01*
X292319Y-112146D01*
X293535Y-113965D01*
X295354Y-115181D01*
X297500Y-115608D01*
X299646Y-115181D01*
X301465Y-113965D01*
X302681Y-112146D01*
X303108Y-110000D01*
X303726Y-109247D01*
X337485D01*
X339781Y-108296D01*
X346796Y-101281D01*
X347747Y-98985D01*
Y-96713D01*
X350747Y-95110D01*
X350854Y-95181D01*
X353000Y-95608D01*
X353079Y-95592D01*
X354026Y-96534D01*
X354967Y-98275D01*
X354253Y-100000D01*
Y-105555D01*
X353535Y-106035D01*
X352319Y-107854D01*
X351892Y-110000D01*
X352319Y-112146D01*
X353535Y-113965D01*
X355354Y-115181D01*
X357500Y-115608D01*
X359646Y-115181D01*
X361465Y-113965D01*
X362681Y-112146D01*
X363108Y-110000D01*
X362681Y-107854D01*
X361465Y-106035D01*
X360747Y-105555D01*
Y-101345D01*
X361796Y-100296D01*
X362747Y-98000D01*
Y-87308D01*
X361796Y-85012D01*
X351747Y-74963D01*
Y-49843D01*
X350796Y-47547D01*
X338747Y-35498D01*
Y-22866D01*
X368296Y6683D01*
X369247Y8979D01*
Y18807D01*
X371154Y19647D01*
X372247Y19893D01*
X373854Y18819D01*
X376000Y18392D01*
X378146Y18819D01*
X379965Y20035D01*
X381181Y21854D01*
X381608Y24000D01*
X381181Y26146D01*
X379965Y27965D01*
X378146Y29181D01*
X376000Y29608D01*
X373854Y29181D01*
X372247Y28107D01*
X371154Y28353D01*
X369247Y29193D01*
Y45501D01*
X371485Y47495D01*
X372000Y47392D01*
X374146Y47819D01*
X375965Y49035D01*
X377181Y50854D01*
X377608Y53000D01*
X377181Y55146D01*
X375965Y56965D01*
X374146Y58181D01*
X372000Y58608D01*
X369854Y58181D01*
X369177Y57729D01*
X367057Y57206D01*
X364937Y57729D01*
X364260Y58181D01*
X362114Y58608D01*
X359968Y58181D01*
X358149Y56965D01*
X356933Y55146D01*
X356506Y53000D01*
X356933Y50854D01*
X358149Y49035D01*
X358753Y48631D01*
Y24941D01*
X355753Y22958D01*
X355000Y23108D01*
X354788Y23066D01*
X351788Y25302D01*
Y48917D01*
X351965Y49035D01*
X353181Y50854D01*
X353608Y53000D01*
X353181Y55146D01*
X351965Y56965D01*
X350146Y58181D01*
X348000Y58608D01*
X345854Y58181D01*
X344035Y56965D01*
X342819Y55146D01*
X342392Y53000D01*
X342819Y50854D01*
X344035Y49035D01*
X344212Y48917D01*
Y4569D01*
X324321Y-15321D01*
X323212Y-18000D01*
X323212Y-18000D01*
Y-44000D01*
X323212Y-44000D01*
X324321Y-46679D01*
X332434Y-54791D01*
X332392Y-55000D01*
X332819Y-57146D01*
X334035Y-58965D01*
X335854Y-60181D01*
X338000Y-60608D01*
X338253Y-60557D01*
X341253Y-62775D01*
Y-79619D01*
X340658Y-80240D01*
X338253Y-81642D01*
X337000Y-81392D01*
X334854Y-81819D01*
X333249Y-82892D01*
X317788Y-67431D01*
Y899D01*
X317410Y1813D01*
X317240Y3749D01*
X319358Y6035D01*
X321035D01*
X322854Y4819D01*
X325000Y4392D01*
X327146Y4819D01*
X328965Y6035D01*
X329299Y6535D01*
X330478D01*
X332298Y5319D01*
X334444Y4892D01*
X336590Y5319D01*
X338409Y6535D01*
X339624Y8354D01*
X340051Y10500D01*
X339624Y12646D01*
X338409Y14465D01*
X336590Y15681D01*
X334444Y16108D01*
X332298Y15681D01*
X330478Y14465D01*
X330144Y13965D01*
X328965D01*
X327146Y15181D01*
X325000Y15608D01*
X322854Y15181D01*
X321035Y13965D01*
X318965D01*
X317146Y15181D01*
X315000Y15608D01*
X312854Y15181D01*
X312288Y14803D01*
X309288Y16340D01*
Y19698D01*
X312288Y21934D01*
X312500Y21892D01*
X314646Y22319D01*
X316465Y23535D01*
X317681Y25354D01*
X318108Y27500D01*
X317681Y29646D01*
X316465Y31465D01*
X314646Y32681D01*
X312500Y33108D01*
X312288Y33066D01*
X309288Y35302D01*
Y42931D01*
X320791Y54434D01*
X321000Y54392D01*
X323146Y54819D01*
X324965Y56035D01*
X326181Y57854D01*
X326608Y60000D01*
X326181Y62146D01*
X324965Y63965D01*
X323146Y65181D01*
X322007Y65407D01*
X320846Y68131D01*
X320826Y68468D01*
X324569Y72212D01*
X329916D01*
X330035Y72035D01*
X331854Y70819D01*
X334000Y70392D01*
X336146Y70819D01*
X337965Y72035D01*
X339181Y73854D01*
X339608Y76000D01*
X339181Y78146D01*
X337965Y79965D01*
X336146Y81181D01*
X334000Y81608D01*
D02*
G37*
G36*
X470000Y58155D02*
X465301Y57537D01*
X460922Y55723D01*
X457162Y52838D01*
X454277Y49078D01*
X452463Y44699D01*
X451845Y40000D01*
Y20000D01*
X452463Y15301D01*
X454277Y10922D01*
X457162Y7162D01*
X460922Y4277D01*
X465301Y2463D01*
X470000Y1845D01*
X474699Y2463D01*
X479078Y4277D01*
X482838Y7162D01*
X485723Y10922D01*
X487537Y15301D01*
X488155Y20000D01*
Y40000D01*
X487537Y44699D01*
X485723Y49078D01*
X482838Y52838D01*
X479078Y55723D01*
X474699Y57537D01*
X470000Y58155D01*
D02*
G37*
G36*
X231000Y-28392D02*
X228854Y-28819D01*
X227035Y-30035D01*
X225819Y-31854D01*
X225392Y-34000D01*
X225819Y-36146D01*
X227035Y-37965D01*
X228854Y-39181D01*
X231000Y-39608D01*
X233146Y-39181D01*
X234965Y-37965D01*
X236181Y-36146D01*
X236608Y-34000D01*
X236181Y-31854D01*
X234965Y-30035D01*
X233146Y-28819D01*
X231000Y-28392D01*
D02*
G37*
G36*
X411999Y-28392D02*
X409853Y-28819D01*
X408034Y-30035D01*
X406818Y-31854D01*
X406391Y-34000D01*
X406818Y-36146D01*
X408034Y-37965D01*
X409853Y-39181D01*
X411999Y-39608D01*
X414145Y-39181D01*
X415964Y-37965D01*
X417180Y-36146D01*
X417607Y-34000D01*
X417180Y-31854D01*
X415964Y-30035D01*
X414145Y-28819D01*
X411999Y-28392D01*
D02*
G37*
G36*
X244000Y-21392D02*
X241854Y-21819D01*
X240035Y-23035D01*
X238819Y-24854D01*
X238392Y-27000D01*
X238819Y-29146D01*
X240035Y-30965D01*
X241854Y-32181D01*
X244000Y-32608D01*
X246146Y-32181D01*
X247965Y-30965D01*
X249181Y-29146D01*
X249608Y-27000D01*
X249181Y-24854D01*
X247965Y-23035D01*
X246146Y-21819D01*
X244000Y-21392D01*
D02*
G37*
G36*
X218000Y-35392D02*
X215854Y-35819D01*
X214035Y-37035D01*
X212819Y-38854D01*
X212392Y-41000D01*
X212819Y-43146D01*
X214035Y-44965D01*
X215854Y-46181D01*
X218000Y-46608D01*
X220146Y-46181D01*
X221965Y-44965D01*
X223181Y-43146D01*
X223608Y-41000D01*
X223181Y-38854D01*
X221965Y-37035D01*
X220146Y-35819D01*
X218000Y-35392D01*
D02*
G37*
G36*
X270000Y-57392D02*
X267854Y-57819D01*
X266035Y-59035D01*
X265143Y-60369D01*
X263503Y-60638D01*
X263497D01*
X261857Y-60369D01*
X260965Y-59035D01*
X259146Y-57819D01*
X257000Y-57392D01*
X254854Y-57819D01*
X253035Y-59035D01*
X252143Y-60369D01*
X250503Y-60638D01*
X250497D01*
X248857Y-60369D01*
X247965Y-59035D01*
X246146Y-57819D01*
X244000Y-57392D01*
X241854Y-57819D01*
X240035Y-59035D01*
X239143Y-60369D01*
X237503Y-60638D01*
X237497D01*
X235857Y-60369D01*
X234965Y-59035D01*
X233146Y-57819D01*
X231000Y-57392D01*
X228854Y-57819D01*
X227035Y-59035D01*
X226143Y-60369D01*
X224503Y-60638D01*
X224497D01*
X222857Y-60369D01*
X221965Y-59035D01*
X220146Y-57819D01*
X218000Y-57392D01*
X215854Y-57819D01*
X214035Y-59035D01*
X213143Y-60369D01*
X211503Y-60638D01*
X211497D01*
X209857Y-60369D01*
X208965Y-59035D01*
X207146Y-57819D01*
X205000Y-57392D01*
X202854Y-57819D01*
X201035Y-59035D01*
X199819Y-60854D01*
X199392Y-63000D01*
X199819Y-65146D01*
X201035Y-66965D01*
X202854Y-68181D01*
X205000Y-68608D01*
X207146Y-68181D01*
X208965Y-66965D01*
X209857Y-65631D01*
X211497Y-65362D01*
X211503D01*
X213143Y-65631D01*
X214035Y-66965D01*
X215854Y-68181D01*
X218000Y-68608D01*
X220146Y-68181D01*
X221965Y-66965D01*
X222857Y-65631D01*
X224497Y-65362D01*
X224503D01*
X226143Y-65631D01*
X227035Y-66965D01*
X228854Y-68181D01*
X231000Y-68608D01*
X233146Y-68181D01*
X234965Y-66965D01*
X235857Y-65631D01*
X237497Y-65362D01*
X237503D01*
X239143Y-65631D01*
X240035Y-66965D01*
X241854Y-68181D01*
X244000Y-68608D01*
X246146Y-68181D01*
X247965Y-66965D01*
X248857Y-65631D01*
X250497Y-65362D01*
X250503D01*
X252143Y-65631D01*
X253035Y-66965D01*
X254854Y-68181D01*
X257000Y-68608D01*
X259146Y-68181D01*
X260965Y-66965D01*
X261857Y-65631D01*
X263497Y-65362D01*
X263503D01*
X265143Y-65631D01*
X266035Y-66965D01*
X267854Y-68181D01*
X270000Y-68608D01*
X272146Y-68181D01*
X273965Y-66965D01*
X275181Y-65146D01*
X275608Y-63000D01*
X275181Y-60854D01*
X273965Y-59035D01*
X272146Y-57819D01*
X270000Y-57392D01*
D02*
G37*
G36*
X205000Y-42392D02*
X202854Y-42819D01*
X201035Y-44035D01*
X199819Y-45854D01*
X199392Y-48000D01*
X199819Y-50146D01*
X201035Y-51965D01*
X202854Y-53181D01*
X205000Y-53608D01*
X207146Y-53181D01*
X208965Y-51965D01*
X210181Y-50146D01*
X210608Y-48000D01*
X210181Y-45854D01*
X208965Y-44035D01*
X207146Y-42819D01*
X205000Y-42392D01*
D02*
G37*
G36*
X272500Y10608D02*
X270354Y10181D01*
X268535Y8965D01*
X267319Y7146D01*
X266892Y5000D01*
X267319Y2854D01*
X268535Y1035D01*
X270354Y-181D01*
X272500Y-608D01*
X274646Y-181D01*
X276465Y1035D01*
X277681Y2854D01*
X278108Y5000D01*
X277681Y7146D01*
X276465Y8965D01*
X274646Y10181D01*
X272500Y10608D01*
D02*
G37*
G36*
X246000Y10608D02*
X243854Y10181D01*
X242035Y8965D01*
X240819Y7146D01*
X240392Y5000D01*
X240819Y2854D01*
X242035Y1035D01*
X243854Y-181D01*
X246000Y-608D01*
X248146Y-181D01*
X249965Y1035D01*
X251181Y2854D01*
X251608Y5000D01*
X251181Y7146D01*
X249965Y8965D01*
X248146Y10181D01*
X246000Y10608D01*
D02*
G37*
G36*
X257000Y-14392D02*
X254854Y-14819D01*
X253035Y-16035D01*
X251819Y-17854D01*
X251392Y-20000D01*
X251819Y-22146D01*
X253035Y-23965D01*
X254854Y-25181D01*
X257000Y-25608D01*
X259146Y-25181D01*
X260965Y-23965D01*
X262181Y-22146D01*
X262608Y-20000D01*
X262181Y-17854D01*
X260965Y-16035D01*
X259146Y-14819D01*
X257000Y-14392D01*
D02*
G37*
G36*
X361000Y-13392D02*
X358854Y-13819D01*
X357035Y-15035D01*
X355819Y-16854D01*
X355392Y-19000D01*
X355819Y-21146D01*
X357035Y-22965D01*
X358854Y-24181D01*
X361000Y-24608D01*
X363146Y-24181D01*
X364965Y-22965D01*
X366181Y-21146D01*
X366608Y-19000D01*
X366181Y-16854D01*
X364965Y-15035D01*
X363146Y-13819D01*
X361000Y-13392D01*
D02*
G37*
G36*
X270000Y-7392D02*
X267854Y-7819D01*
X266035Y-9035D01*
X264819Y-10854D01*
X264392Y-13000D01*
X264819Y-15146D01*
X266035Y-16965D01*
X267854Y-18181D01*
X270000Y-18608D01*
X272146Y-18181D01*
X273965Y-16965D01*
X275181Y-15146D01*
X275608Y-13000D01*
X275181Y-10854D01*
X273965Y-9035D01*
X272146Y-7819D01*
X270000Y-7392D01*
D02*
G37*
G36*
X15000Y-137392D02*
X12854Y-137819D01*
X11035Y-139035D01*
X9819Y-140854D01*
X9392Y-143000D01*
X9819Y-145146D01*
X11035Y-146965D01*
X12854Y-148181D01*
X15000Y-148608D01*
X17146Y-148181D01*
X18965Y-146965D01*
X20181Y-145146D01*
X20608Y-143000D01*
X20181Y-140854D01*
X18965Y-139035D01*
X17146Y-137819D01*
X15000Y-137392D01*
D02*
G37*
G36*
X-47500Y-104392D02*
X-49646Y-104819D01*
X-51465Y-106035D01*
X-52681Y-107854D01*
X-53108Y-110000D01*
X-52681Y-112146D01*
X-51465Y-113965D01*
X-49646Y-115181D01*
X-47500Y-115608D01*
X-45354Y-115181D01*
X-43535Y-113965D01*
X-42319Y-112146D01*
X-41892Y-110000D01*
X-42319Y-107854D01*
X-43535Y-106035D01*
X-45354Y-104819D01*
X-47500Y-104392D01*
D02*
G37*
G36*
X-12500Y-109392D02*
X-14646Y-109819D01*
X-16465Y-111035D01*
X-17681Y-112854D01*
X-18108Y-115000D01*
X-17681Y-117146D01*
X-16465Y-118965D01*
X-14646Y-120181D01*
X-12500Y-120608D01*
X-10354Y-120181D01*
X-8535Y-118965D01*
X-7319Y-117146D01*
X-6892Y-115000D01*
X-7319Y-112854D01*
X-8535Y-111035D01*
X-10354Y-109819D01*
X-12500Y-109392D01*
D02*
G37*
G36*
X-25000Y-59392D02*
X-27146Y-59819D01*
X-28965Y-61035D01*
X-30181Y-62854D01*
X-30608Y-65000D01*
X-30181Y-67146D01*
X-28965Y-68965D01*
X-27146Y-70181D01*
X-25000Y-70608D01*
X-22854Y-70181D01*
X-21035Y-68965D01*
X-19819Y-67146D01*
X-19392Y-65000D01*
X-19819Y-62854D01*
X-21035Y-61035D01*
X-22854Y-59819D01*
X-25000Y-59392D01*
D02*
G37*
G36*
X-12500Y-137814D02*
X-16207Y-138551D01*
X-19349Y-140651D01*
X-21449Y-143793D01*
X-22186Y-147500D01*
X-21449Y-151207D01*
X-19349Y-154349D01*
X-16207Y-156449D01*
X-12500Y-157186D01*
X-8793Y-156449D01*
X-5651Y-154349D01*
X-3551Y-151207D01*
X-2814Y-147500D01*
X-3551Y-143793D01*
X-5651Y-140651D01*
X-8793Y-138551D01*
X-12500Y-137814D01*
D02*
G37*
G36*
X-27000Y48608D02*
X-29146Y48181D01*
X-30965Y46965D01*
X-32181Y45146D01*
X-32608Y43000D01*
X-32181Y40854D01*
X-30965Y39035D01*
X-29146Y37819D01*
X-27000Y37392D01*
X-24854Y37819D01*
X-23035Y39035D01*
X-21819Y40854D01*
X-21392Y43000D01*
X-21819Y45146D01*
X-23035Y46965D01*
X-24854Y48181D01*
X-27000Y48608D01*
D02*
G37*
G36*
X-17500Y33108D02*
X-19646Y32681D01*
X-21465Y31465D01*
X-22681Y29646D01*
X-23108Y27500D01*
X-22681Y25354D01*
X-21465Y23535D01*
X-19646Y22319D01*
X-17500Y21892D01*
X-15354Y22319D01*
X-13535Y23535D01*
X-12319Y25354D01*
X-11892Y27500D01*
X-12319Y29646D01*
X-13535Y31465D01*
X-15354Y32681D01*
X-17500Y33108D01*
D02*
G37*
G36*
X-1600Y134115D02*
X-5892Y133262D01*
X-9531Y130830D01*
X-11962Y127192D01*
X-12816Y122900D01*
X-11962Y118608D01*
X-9531Y114969D01*
X-5892Y112538D01*
X-1600Y111685D01*
X2692Y112538D01*
X6331Y114969D01*
X8762Y118608D01*
X9615Y122900D01*
X8762Y127192D01*
X6331Y130830D01*
X2692Y133262D01*
X-1600Y134115D01*
D02*
G37*
G36*
X6000Y103608D02*
X3854Y103181D01*
X2035Y101965D01*
X819Y100146D01*
X392Y98000D01*
X819Y95854D01*
X2035Y94035D01*
X3854Y92819D01*
X6000Y92392D01*
X8146Y92819D01*
X9965Y94035D01*
X11181Y95854D01*
X11608Y98000D01*
X11181Y100146D01*
X9965Y101965D01*
X8146Y103181D01*
X6000Y103608D01*
D02*
G37*
G36*
X-17500Y103108D02*
X-19646Y102681D01*
X-21465Y101465D01*
X-22681Y99646D01*
X-23108Y97500D01*
X-22681Y95354D01*
X-21465Y93535D01*
X-19646Y92319D01*
X-17500Y91892D01*
X-15354Y92319D01*
X-13535Y93535D01*
X-12319Y95354D01*
X-11892Y97500D01*
X-12319Y99646D01*
X-13535Y101465D01*
X-15354Y102681D01*
X-17500Y103108D01*
D02*
G37*
G36*
X-47500Y-39392D02*
X-49646Y-39819D01*
X-51465Y-41035D01*
X-52681Y-42854D01*
X-53108Y-45000D01*
X-52681Y-47146D01*
X-51465Y-48965D01*
X-49646Y-50181D01*
X-47500Y-50608D01*
X-45354Y-50181D01*
X-43535Y-48965D01*
X-42319Y-47146D01*
X-41892Y-45000D01*
X-42319Y-42854D01*
X-43535Y-41035D01*
X-45354Y-39819D01*
X-47500Y-39392D01*
D02*
G37*
G36*
X-25000Y-14392D02*
X-27146Y-14819D01*
X-28965Y-16035D01*
X-30181Y-17854D01*
X-30608Y-20000D01*
X-30181Y-22146D01*
X-28965Y-23965D01*
X-27146Y-25181D01*
X-25000Y-25608D01*
X-22854Y-25181D01*
X-21035Y-23965D01*
X-19819Y-22146D01*
X-19392Y-20000D01*
X-19819Y-17854D01*
X-21035Y-16035D01*
X-22854Y-14819D01*
X-25000Y-14392D01*
D02*
G37*
G36*
X-75000Y58155D02*
X-79699Y57537D01*
X-84078Y55723D01*
X-87838Y52838D01*
X-90723Y49078D01*
X-92537Y44699D01*
X-93155Y40000D01*
Y20000D01*
X-92537Y15301D01*
X-90723Y10922D01*
X-87838Y7162D01*
X-84078Y4277D01*
X-79699Y2463D01*
X-75000Y1845D01*
X-70301Y2463D01*
X-65922Y4277D01*
X-62162Y7162D01*
X-59277Y10922D01*
X-57463Y15301D01*
X-56845Y20000D01*
Y40000D01*
X-57463Y44699D01*
X-59277Y49078D01*
X-62162Y52838D01*
X-65922Y55723D01*
X-70301Y57537D01*
X-75000Y58155D01*
D02*
G37*
%LPD*%
D34*
X305500Y44500D02*
X321000Y60000D01*
X332000Y-87000D02*
X337000D01*
X314000Y-69000D02*
X332000Y-87000D01*
X307999Y-76900D02*
X310000Y-78901D01*
Y-90000D02*
Y-78901D01*
X307999Y-76900D02*
Y-38100D01*
X299999Y-30100D02*
X307999Y-38100D01*
X327000Y-44000D02*
X338000Y-55000D01*
X299999Y52999D02*
X323000Y76000D01*
X299999Y-30100D02*
Y52999D01*
X323000Y76000D02*
X334000D01*
X348000Y3000D02*
Y53000D01*
X327000Y-18000D02*
X348000Y3000D01*
X327000Y-44000D02*
Y-18000D01*
X314000Y-69000D02*
Y899D01*
X305500Y9399D02*
Y44500D01*
Y9399D02*
X314000Y899D01*
D35*
X331500Y-38500D02*
X344500Y-51500D01*
X335500Y-36843D02*
X348500Y-49843D01*
X359500Y-98000D02*
Y-87308D01*
X357500Y-110000D02*
Y-100000D01*
X359500Y-98000D01*
X348500Y-76308D02*
X359500Y-87308D01*
X348500Y-76308D02*
Y-49843D01*
X337485Y-106000D02*
X344500Y-98985D01*
X301500Y-106000D02*
X337485D01*
X344500Y-98985D02*
Y-51500D01*
X366000Y47000D02*
X372000Y53000D01*
X366000Y8979D02*
Y47000D01*
X335500Y-21521D02*
X366000Y8979D01*
X335500Y-36843D02*
Y-21521D01*
X362000Y52886D02*
X362114Y53000D01*
X362000Y10636D02*
Y52886D01*
X331500Y-19864D02*
X362000Y10636D01*
X331500Y-38500D02*
Y-19864D01*
X297500Y-110000D02*
X301500Y-106000D01*
D39*
X65000Y-215000D02*
D03*
X305000Y-235000D02*
D03*
D41*
X100000Y122900D02*
D03*
X23800Y148300D02*
D03*
X74600Y122900D02*
D03*
D43*
X213419Y-186614D02*
D03*
X310000Y-90000D02*
D03*
X338000Y-55000D02*
D03*
X337000Y-87000D02*
D03*
X401157Y-171343D02*
D03*
X374000Y-35000D02*
D03*
X353000Y-40000D02*
D03*
X348000Y53000D02*
D03*
X362114Y53000D02*
D03*
X372000D02*
D03*
X18000Y-54000D02*
D03*
Y-43000D02*
D03*
Y-32000D02*
D03*
X357500Y-110000D02*
D03*
X360000Y-195000D02*
D03*
X152500Y-95000D02*
D03*
X135000D02*
D03*
X117500D02*
D03*
X100000D02*
D03*
Y-77500D02*
D03*
X117500D02*
D03*
X152500D02*
D03*
X135000D02*
D03*
X-1000Y87000D02*
D03*
X8000Y-32000D02*
D03*
Y-43000D02*
D03*
X297500Y-110000D02*
D03*
X265000Y60000D02*
D03*
X321000Y60000D02*
D03*
X347499Y-22501D02*
D03*
X258419Y-186614D02*
D03*
X247500Y-117500D02*
D03*
X334000Y76000D02*
D03*
X472500Y-70000D02*
D03*
X367114Y109614D02*
D03*
X168419Y-186614D02*
D03*
X-13000Y-78000D02*
D03*
X8000Y-54000D02*
D03*
X229000Y150000D02*
D03*
X117500Y-112500D02*
D03*
X100000D02*
D03*
M02*
