G04 Layer_Physical_Order=3*
G04 Layer_Color=16440176*
%FSLAX44Y44*%
%MOMM*%
G71*
G01*
G75*
%ADD38R,1.4000X1.4000*%
%ADD39C,1.4000*%
%ADD41C,1.7000*%
%ADD43C,0.7000*%
%ADD44R,1.0000X0.8500*%
%ADD45R,1.0000X0.6000*%
%ADD46R,2.8000X1.4000*%
G36*
X42500Y157053D02*
X41269Y156230D01*
X38838Y152592D01*
X37984Y148300D01*
X38838Y144008D01*
X41269Y140369D01*
X42500Y139547D01*
Y131653D01*
X41269Y130830D01*
X38838Y127192D01*
X38013Y123044D01*
X37851Y122947D01*
X36975Y123188D01*
X34601Y124983D01*
X34162Y127192D01*
X31730Y130830D01*
X28092Y133262D01*
X23800Y134115D01*
X19508Y133262D01*
X15869Y130830D01*
X13438Y127192D01*
X12585Y122900D01*
X13438Y118608D01*
X15869Y114969D01*
X19508Y112538D01*
X23800Y111685D01*
X28092Y112538D01*
X28297Y112675D01*
X30906Y112010D01*
X31812Y111416D01*
X32735Y110035D01*
X34554Y108819D01*
X36700Y108392D01*
X38846Y108819D01*
X39500Y109256D01*
X42500Y107792D01*
Y-20000D01*
X147000Y-20000D01*
X147000Y10000D01*
X173000D01*
X173000Y-50000D01*
X23120Y-50000D01*
X22032Y-47328D01*
X22214Y-46593D01*
X23181Y-45146D01*
X23608Y-43000D01*
X23181Y-40854D01*
X21965Y-39035D01*
Y-35965D01*
X23181Y-34146D01*
X23608Y-32000D01*
X23181Y-29854D01*
X21965Y-28035D01*
X20146Y-26819D01*
X18000Y-26392D01*
X15854Y-26819D01*
X14035Y-28035D01*
X11965D01*
X10146Y-26819D01*
X8000Y-26392D01*
X5854Y-26819D01*
X4035Y-28035D01*
X2819Y-29854D01*
X2392Y-32000D01*
X2819Y-34146D01*
X4035Y-35965D01*
Y-39035D01*
X2819Y-40854D01*
X2392Y-43000D01*
X2819Y-45146D01*
X4035Y-46965D01*
Y-50035D01*
X2819Y-51854D01*
X2392Y-54000D01*
X2819Y-56146D01*
X4035Y-57965D01*
X5854Y-59181D01*
X8000Y-59608D01*
X9500Y-59309D01*
X11643Y-60475D01*
X12500Y-61216D01*
Y-138056D01*
X11035Y-139035D01*
X9819Y-140854D01*
X9392Y-143000D01*
X9819Y-145146D01*
X11035Y-146965D01*
X12500Y-147944D01*
Y-153000D01*
X278000D01*
Y-77500D01*
X295056D01*
X296035Y-78965D01*
X297854Y-80181D01*
X300000Y-80608D01*
X302146Y-80181D01*
X303965Y-78965D01*
X304944Y-77500D01*
X325000D01*
X325000Y-155000D01*
X302500Y-177500D01*
X82500Y-177500D01*
X82500Y-200000D01*
X53000D01*
Y-191750D01*
X48000D01*
Y-199000D01*
X42000D01*
Y-191750D01*
X37000D01*
Y-200000D01*
X-5000D01*
X-34000Y-171000D01*
X-34000Y74409D01*
X-33883Y75000D01*
Y165000D01*
X-33883Y165000D01*
X-33772D01*
X-33485Y166444D01*
X-32668Y167668D01*
X-31444Y168485D01*
X-30000Y168773D01*
Y168882D01*
X42500D01*
Y157053D01*
D02*
G37*
G36*
X425000Y168773D02*
X426444Y168485D01*
X427668Y167668D01*
X428485Y166444D01*
X428773Y165000D01*
X428882D01*
Y75000D01*
X429348Y72659D01*
X430674Y70674D01*
X432659Y69348D01*
X435000Y68882D01*
X495000D01*
Y68773D01*
X496444Y68485D01*
X497668Y67668D01*
X498485Y66444D01*
X498773Y65000D01*
X498882D01*
Y-215000D01*
X498773D01*
X498485Y-216444D01*
X497668Y-217668D01*
X496444Y-218485D01*
X495000Y-218773D01*
Y-218883D01*
X435000D01*
X432659Y-219348D01*
X430674Y-220674D01*
X429348Y-222659D01*
X428882Y-225000D01*
Y-265000D01*
X428773D01*
X428485Y-266444D01*
X427668Y-267668D01*
X426444Y-268485D01*
X425000Y-268773D01*
Y-268883D01*
X-30000D01*
Y-268773D01*
X-31444Y-268485D01*
X-32668Y-267668D01*
X-33485Y-266444D01*
X-33772Y-265000D01*
X-33883D01*
Y-225000D01*
X-34348Y-222659D01*
X-35674Y-220674D01*
X-37659Y-219348D01*
X-40000Y-218883D01*
X-100000D01*
Y-218773D01*
X-101444Y-218485D01*
X-102668Y-217668D01*
X-103485Y-216444D01*
X-103772Y-215000D01*
X-103883D01*
Y65000D01*
X-103772D01*
X-103485Y66444D01*
X-102668Y67668D01*
X-101444Y68485D01*
X-100000Y68773D01*
Y68882D01*
X-40000D01*
X-39165Y69049D01*
X-36165Y67013D01*
X-36165Y-171000D01*
X-35531Y-172531D01*
X-6531Y-201531D01*
X-5000Y-202165D01*
X34602D01*
X35000Y-205000D01*
X35000D01*
Y-212000D01*
X45000D01*
Y-218000D01*
X35000D01*
Y-225000D01*
X36567D01*
X37408Y-226918D01*
X37650Y-228000D01*
X35580Y-231098D01*
X35401Y-232000D01*
X45000D01*
Y-235000D01*
X48000D01*
Y-244599D01*
X48902Y-244420D01*
X52210Y-242210D01*
X53529Y-240235D01*
X57002Y-240129D01*
X58151Y-241849D01*
X61293Y-243949D01*
X65000Y-244686D01*
X68707Y-243949D01*
X71849Y-241849D01*
X73333Y-239628D01*
X73589Y-239541D01*
X76411D01*
X76667Y-239628D01*
X78151Y-241849D01*
X81293Y-243949D01*
X85000Y-244686D01*
X88707Y-243949D01*
X91849Y-241849D01*
X93333Y-239628D01*
X93589Y-239541D01*
X96411D01*
X96667Y-239628D01*
X98151Y-241849D01*
X101293Y-243949D01*
X105000Y-244686D01*
X108707Y-243949D01*
X111849Y-241849D01*
X113333Y-239628D01*
X113589Y-239541D01*
X116411D01*
X116667Y-239628D01*
X118151Y-241849D01*
X121293Y-243949D01*
X125000Y-244686D01*
X128707Y-243949D01*
X131849Y-241849D01*
X133333Y-239628D01*
X133589Y-239541D01*
X136411D01*
X136667Y-239628D01*
X138151Y-241849D01*
X141293Y-243949D01*
X145000Y-244686D01*
X148707Y-243949D01*
X151849Y-241849D01*
X153949Y-238707D01*
X154686Y-235000D01*
X153949Y-231293D01*
X151849Y-228151D01*
X149628Y-226667D01*
X149541Y-226411D01*
Y-223589D01*
X149628Y-223333D01*
X151849Y-221849D01*
X153949Y-218707D01*
X154686Y-215000D01*
X153949Y-211293D01*
X151849Y-208151D01*
X148707Y-206051D01*
X145000Y-205314D01*
X141293Y-206051D01*
X138151Y-208151D01*
X136667Y-210372D01*
X136411Y-210459D01*
X133589D01*
X133333Y-210372D01*
X131849Y-208151D01*
X128707Y-206051D01*
X125000Y-205314D01*
X121293Y-206051D01*
X118151Y-208151D01*
X116667Y-210372D01*
X116411Y-210459D01*
X113589D01*
X113333Y-210372D01*
X111849Y-208151D01*
X108707Y-206051D01*
X105000Y-205314D01*
X101293Y-206051D01*
X98151Y-208151D01*
X96667Y-210372D01*
X96411Y-210459D01*
X93589D01*
X93333Y-210372D01*
X91849Y-208151D01*
X88707Y-206051D01*
X85000Y-205314D01*
X81293Y-206051D01*
X78151Y-208151D01*
X76667Y-210372D01*
X76411Y-210459D01*
X73589D01*
X73333Y-210372D01*
X71849Y-208151D01*
X68707Y-206051D01*
X65000Y-205314D01*
X61293Y-206051D01*
X58509Y-207912D01*
X56568Y-207335D01*
X55491Y-206781D01*
X55000Y-205000D01*
X55398Y-202165D01*
X82500D01*
X84031Y-201531D01*
X84665Y-200000D01*
X84665Y-179665D01*
X163519D01*
X164454Y-182649D01*
X163238Y-184468D01*
X162811Y-186614D01*
X163238Y-188760D01*
X164454Y-190579D01*
X166273Y-191795D01*
X168419Y-192222D01*
X170565Y-191795D01*
X172384Y-190579D01*
X173600Y-188760D01*
X174027Y-186614D01*
X173600Y-184468D01*
X172384Y-182649D01*
X173319Y-179665D01*
X208520Y-179665D01*
X209454Y-182649D01*
X208238Y-184468D01*
X207811Y-186614D01*
X208238Y-188760D01*
X209454Y-190579D01*
X211273Y-191795D01*
X213419Y-192222D01*
X215565Y-191795D01*
X217384Y-190579D01*
X218600Y-188760D01*
X219027Y-186614D01*
X218600Y-184468D01*
X217384Y-182649D01*
X218318Y-179665D01*
X253520D01*
X254454Y-182649D01*
X253238Y-184468D01*
X252811Y-186614D01*
X253238Y-188760D01*
X254454Y-190579D01*
X256273Y-191795D01*
X258419Y-192222D01*
X260565Y-191795D01*
X262384Y-190579D01*
X263600Y-188760D01*
X264027Y-186614D01*
X263600Y-184468D01*
X262384Y-182649D01*
X263318Y-179665D01*
X302500D01*
X304031Y-179031D01*
X326531Y-156531D01*
X327165Y-155000D01*
X327165Y-102163D01*
X327731Y-101946D01*
X330165Y-101664D01*
X331034Y-102965D01*
X332853Y-104181D01*
X334999Y-104607D01*
X337145Y-104181D01*
X338965Y-102965D01*
X340180Y-101146D01*
X340607Y-99000D01*
X340180Y-96854D01*
X339107Y-95247D01*
X339119Y-94287D01*
X339620Y-91864D01*
X340965Y-90965D01*
X342181Y-89146D01*
X342608Y-87000D01*
X342181Y-84854D01*
X340965Y-83035D01*
X339146Y-81819D01*
X337000Y-81392D01*
X334854Y-81819D01*
X333035Y-83035D01*
X331819Y-84854D01*
X331392Y-87000D01*
X331819Y-89146D01*
X332892Y-90752D01*
X332880Y-91713D01*
X332379Y-94136D01*
X331034Y-95035D01*
X330165Y-96335D01*
X327731Y-96054D01*
X327165Y-95836D01*
Y-77500D01*
X326531Y-75969D01*
X325000Y-75335D01*
X305883D01*
X305608Y-75000D01*
X305181Y-72854D01*
X303965Y-71035D01*
X302146Y-69819D01*
X300000Y-69392D01*
X297854Y-69819D01*
X296035Y-71035D01*
X294819Y-72854D01*
X294392Y-75000D01*
X294117Y-75335D01*
X278000D01*
X276469Y-75969D01*
X275835Y-77500D01*
Y-93838D01*
X275255Y-94060D01*
X272835Y-94337D01*
X271965Y-93034D01*
X270145Y-91819D01*
X267999Y-91392D01*
X265854Y-91819D01*
X264034Y-93034D01*
X262819Y-94854D01*
X262392Y-97000D01*
X262819Y-99146D01*
X264034Y-100965D01*
X265854Y-102181D01*
X267999Y-102607D01*
X270145Y-102181D01*
X271965Y-100965D01*
X272835Y-99662D01*
X275255Y-99939D01*
X275835Y-100161D01*
Y-150835D01*
X14665D01*
Y-147944D01*
X14580Y-147739D01*
X14623Y-147522D01*
X14272Y-146997D01*
X14031Y-146414D01*
X13826Y-146329D01*
X13703Y-146144D01*
X12595Y-145405D01*
X11858Y-144301D01*
X11599Y-143000D01*
X11858Y-141699D01*
X12595Y-140596D01*
X13703Y-139856D01*
X13826Y-139671D01*
X14031Y-139586D01*
X14272Y-139003D01*
X14623Y-138478D01*
X14580Y-138261D01*
X14665Y-138056D01*
Y-61770D01*
X14709Y-61674D01*
X16298Y-60025D01*
X17208Y-59450D01*
X18000Y-59608D01*
X20146Y-59181D01*
X21965Y-57965D01*
X23181Y-56146D01*
X23608Y-54000D01*
X25114Y-52165D01*
X173000Y-52165D01*
X174531Y-51531D01*
X175165Y-50000D01*
X175165Y10000D01*
X174531Y11531D01*
X173692Y11878D01*
X172965Y12965D01*
X171146Y14181D01*
X169000Y14608D01*
X166854Y14181D01*
X166790Y14138D01*
X164500Y13187D01*
X162210Y14138D01*
X162146Y14181D01*
X160000Y14608D01*
X157854Y14181D01*
X156035Y12965D01*
X154965D01*
X153146Y14181D01*
X151000Y14608D01*
X148854Y14181D01*
X147035Y12965D01*
X146308Y11878D01*
X145469Y11531D01*
X144835Y10000D01*
X144835Y-17835D01*
X100662Y-17835D01*
X100442Y-17261D01*
X100163Y-14835D01*
X101465Y-13965D01*
X102680Y-12146D01*
X103107Y-10000D01*
X102680Y-7854D01*
X101465Y-6035D01*
Y-3966D01*
X102680Y-2147D01*
X103107Y-0D01*
X102680Y2146D01*
X102268Y2763D01*
X101709Y4900D01*
X102268Y7036D01*
X102681Y7654D01*
X103108Y9800D01*
X102681Y11946D01*
X101465Y13765D01*
X99646Y14981D01*
X97500Y15408D01*
X95354Y14981D01*
X93535Y13765D01*
X92319Y11946D01*
X91892Y9800D01*
X92319Y7654D01*
X92732Y7037D01*
X93290Y4899D01*
X92732Y2763D01*
X92319Y2146D01*
X91892Y-0D01*
X92319Y-2147D01*
X93534Y-3966D01*
Y-6035D01*
X92319Y-7854D01*
X91892Y-10000D01*
X92319Y-12146D01*
X93534Y-13965D01*
X94836Y-14835D01*
X94557Y-17261D01*
X94337Y-17835D01*
X44665Y-17835D01*
Y107792D01*
X44525Y108130D01*
X44547Y108496D01*
X44220Y108866D01*
X44031Y109323D01*
X43923Y109863D01*
X44808Y111083D01*
X46136Y112294D01*
X49200Y111685D01*
X53492Y112538D01*
X57130Y114969D01*
X59562Y118608D01*
X60415Y122900D01*
X59562Y127192D01*
X57130Y130830D01*
X53492Y133262D01*
X49200Y134115D01*
X48318Y135197D01*
X48183Y135600D01*
X48318Y136002D01*
X49200Y137085D01*
X53492Y137938D01*
X57130Y140369D01*
X59562Y144008D01*
X60415Y148300D01*
X59562Y152592D01*
X57130Y156230D01*
X53492Y158662D01*
X49200Y159515D01*
X47665Y159210D01*
X44665Y161672D01*
Y168882D01*
X425000D01*
Y168773D01*
D02*
G37*
%LPC*%
G36*
X310000Y-84392D02*
X307854Y-84819D01*
X306035Y-86035D01*
X304819Y-87854D01*
X304392Y-90000D01*
X304819Y-92146D01*
X306035Y-93965D01*
X307854Y-95181D01*
X310000Y-95608D01*
X312146Y-95181D01*
X313965Y-93965D01*
X315181Y-92146D01*
X315608Y-90000D01*
X315181Y-87854D01*
X313965Y-86035D01*
X312146Y-84819D01*
X310000Y-84392D01*
D02*
G37*
G36*
X-13000Y-72392D02*
X-15146Y-72819D01*
X-16965Y-74035D01*
X-18181Y-75854D01*
X-18608Y-78000D01*
X-18181Y-80146D01*
X-16965Y-81965D01*
X-15146Y-83181D01*
X-13000Y-83608D01*
X-10854Y-83181D01*
X-9035Y-81965D01*
X-7819Y-80146D01*
X-7392Y-78000D01*
X-7819Y-75854D01*
X-9035Y-74035D01*
X-10854Y-72819D01*
X-13000Y-72392D01*
D02*
G37*
G36*
X297500Y-104392D02*
X295354Y-104819D01*
X293535Y-106035D01*
X292319Y-107854D01*
X291892Y-110000D01*
X292319Y-112146D01*
X293535Y-113965D01*
X295354Y-115181D01*
X297500Y-115608D01*
X299646Y-115181D01*
X301465Y-113965D01*
X302681Y-112146D01*
X303108Y-110000D01*
X302681Y-107854D01*
X301465Y-106035D01*
X299646Y-104819D01*
X297500Y-104392D01*
D02*
G37*
G36*
X-9500Y-137901D02*
Y-144500D01*
X-2901D01*
X-3080Y-143598D01*
X-5290Y-140290D01*
X-8598Y-138080D01*
X-9500Y-137901D01*
D02*
G37*
G36*
X-15500D02*
X-16402Y-138080D01*
X-19710Y-140290D01*
X-21920Y-143598D01*
X-22099Y-144500D01*
X-15500D01*
Y-137901D01*
D02*
G37*
G36*
X-2901Y-150500D02*
X-9500D01*
Y-157099D01*
X-8598Y-156920D01*
X-5290Y-154710D01*
X-3080Y-151402D01*
X-2901Y-150500D01*
D02*
G37*
G36*
X-15500D02*
X-22099D01*
X-21920Y-151402D01*
X-19710Y-154710D01*
X-16402Y-156920D01*
X-15500Y-157099D01*
Y-150500D01*
D02*
G37*
G36*
X6000Y103608D02*
X3854Y103181D01*
X2035Y101965D01*
X819Y100146D01*
X392Y98000D01*
X819Y95854D01*
X1243Y95220D01*
X-562Y92521D01*
X-1000Y92608D01*
X-3146Y92181D01*
X-4965Y90965D01*
X-6181Y89146D01*
X-6608Y87000D01*
X-6181Y84854D01*
X-4965Y83035D01*
X-3146Y81819D01*
X-1000Y81392D01*
X1146Y81819D01*
X2965Y83035D01*
X4181Y84854D01*
X4608Y87000D01*
X4181Y89146D01*
X3758Y89780D01*
X5562Y92479D01*
X6000Y92392D01*
X8146Y92819D01*
X9965Y94035D01*
X11181Y95854D01*
X11608Y98000D01*
X11181Y100146D01*
X9965Y101965D01*
X8146Y103181D01*
X6000Y103608D01*
D02*
G37*
G36*
X23800Y159515D02*
X19508Y158662D01*
X15869Y156230D01*
X13438Y152592D01*
X12884Y149807D01*
X9826D01*
X9233Y152787D01*
X6691Y156591D01*
X2887Y159133D01*
X1400Y159429D01*
Y148300D01*
X-1600D01*
Y145300D01*
X-12729D01*
X-12433Y143813D01*
X-9891Y140009D01*
X-6087Y137467D01*
X-3107Y136875D01*
Y133816D01*
X-5892Y133262D01*
X-9531Y130830D01*
X-11962Y127192D01*
X-12816Y122900D01*
X-11962Y118608D01*
X-9531Y114969D01*
X-5892Y112538D01*
X-1600Y111685D01*
X2692Y112538D01*
X6331Y114969D01*
X8762Y118608D01*
X9615Y122900D01*
X8762Y127192D01*
X6331Y130830D01*
X2692Y133262D01*
X-93Y133816D01*
Y136875D01*
X2887Y137467D01*
X6691Y140009D01*
X9233Y143813D01*
X9826Y146793D01*
X12884D01*
X13438Y144008D01*
X15869Y140369D01*
X19508Y137938D01*
X23800Y137085D01*
X28092Y137938D01*
X31730Y140369D01*
X34162Y144008D01*
X35015Y148300D01*
X34162Y152592D01*
X31730Y156230D01*
X28092Y158662D01*
X23800Y159515D01*
D02*
G37*
G36*
X-4600Y159429D02*
X-6087Y159133D01*
X-9891Y156591D01*
X-12433Y152787D01*
X-12729Y151300D01*
X-4600D01*
Y159429D01*
D02*
G37*
G36*
X-17500Y33108D02*
X-19646Y32681D01*
X-21465Y31465D01*
X-22681Y29646D01*
X-23108Y27500D01*
X-22681Y25354D01*
X-21465Y23535D01*
X-19646Y22319D01*
X-17500Y21892D01*
X-15354Y22319D01*
X-13535Y23535D01*
X-12319Y25354D01*
X-11892Y27500D01*
X-12319Y29646D01*
X-13535Y31465D01*
X-15354Y32681D01*
X-17500Y33108D01*
D02*
G37*
G36*
X135000Y-89392D02*
X132854Y-89819D01*
X131035Y-91035D01*
X129819Y-92854D01*
X129392Y-95000D01*
X129819Y-97146D01*
X131035Y-98965D01*
X132854Y-100181D01*
X135000Y-100608D01*
X137146Y-100181D01*
X138965Y-98965D01*
X140181Y-97146D01*
X140608Y-95000D01*
X140181Y-92854D01*
X138965Y-91035D01*
X137146Y-89819D01*
X135000Y-89392D01*
D02*
G37*
G36*
X152500D02*
X150354Y-89819D01*
X148535Y-91035D01*
X147319Y-92854D01*
X146892Y-95000D01*
X147319Y-97146D01*
X148535Y-98965D01*
X150354Y-100181D01*
X152500Y-100608D01*
X154646Y-100181D01*
X156465Y-98965D01*
X157681Y-97146D01*
X158108Y-95000D01*
X157681Y-92854D01*
X156465Y-91035D01*
X154646Y-89819D01*
X152500Y-89392D01*
D02*
G37*
G36*
X117500D02*
X115354Y-89819D01*
X113535Y-91035D01*
X112319Y-92854D01*
X111892Y-95000D01*
X112319Y-97146D01*
X113535Y-98965D01*
X115354Y-100181D01*
X117500Y-100608D01*
X119646Y-100181D01*
X121465Y-98965D01*
X122681Y-97146D01*
X123108Y-95000D01*
X122681Y-92854D01*
X121465Y-91035D01*
X119646Y-89819D01*
X117500Y-89392D01*
D02*
G37*
G36*
X224000Y-92392D02*
X221854Y-92819D01*
X220034Y-94035D01*
X218819Y-95854D01*
X218392Y-98000D01*
X218819Y-100146D01*
X220034Y-101965D01*
X221854Y-103181D01*
X224000Y-103608D01*
X226145Y-103181D01*
X227965Y-101965D01*
X229180Y-100146D01*
X229607Y-98000D01*
X229180Y-95854D01*
X227965Y-94035D01*
X226145Y-92819D01*
X224000Y-92392D01*
D02*
G37*
G36*
X357500Y-104392D02*
X355354Y-104819D01*
X353535Y-106035D01*
X352319Y-107854D01*
X351892Y-110000D01*
X352319Y-112146D01*
X353535Y-113965D01*
X355354Y-115181D01*
X357500Y-115608D01*
X359646Y-115181D01*
X361465Y-113965D01*
X362681Y-112146D01*
X363108Y-110000D01*
X362681Y-107854D01*
X361465Y-106035D01*
X359646Y-104819D01*
X357500Y-104392D01*
D02*
G37*
G36*
X175000Y-91892D02*
X172854Y-92319D01*
X171035Y-93535D01*
X169819Y-95354D01*
X169392Y-97500D01*
X169819Y-99646D01*
X171035Y-101465D01*
X172854Y-102681D01*
X175000Y-103108D01*
X177146Y-102681D01*
X178965Y-101465D01*
X180181Y-99646D01*
X180608Y-97500D01*
X180181Y-95354D01*
X178965Y-93535D01*
X177146Y-92319D01*
X175000Y-91892D01*
D02*
G37*
G36*
X100000Y-89392D02*
X97854Y-89819D01*
X96035Y-91035D01*
X94819Y-92854D01*
X94392Y-95000D01*
X94819Y-97146D01*
X96035Y-98965D01*
X97854Y-100181D01*
X100000Y-100608D01*
X102146Y-100181D01*
X103965Y-98965D01*
X105181Y-97146D01*
X105608Y-95000D01*
X105181Y-92854D01*
X103965Y-91035D01*
X102146Y-89819D01*
X100000Y-89392D01*
D02*
G37*
G36*
X209000Y-91392D02*
X206854Y-91819D01*
X205034Y-93034D01*
X203819Y-94854D01*
X203392Y-97000D01*
X203819Y-99146D01*
X205034Y-100965D01*
X206854Y-102181D01*
X209000Y-102607D01*
X211146Y-102181D01*
X212965Y-100965D01*
X214180Y-99146D01*
X214607Y-97000D01*
X214180Y-94854D01*
X212965Y-93034D01*
X211146Y-91819D01*
X209000Y-91392D01*
D02*
G37*
G36*
X270000Y-57392D02*
X267854Y-57819D01*
X266035Y-59035D01*
X265143Y-60369D01*
X263503Y-60638D01*
X263497D01*
X261857Y-60369D01*
X260965Y-59035D01*
X259146Y-57819D01*
X257000Y-57392D01*
X254854Y-57819D01*
X253035Y-59035D01*
X252143Y-60369D01*
X250503Y-60638D01*
X250497D01*
X248857Y-60369D01*
X247965Y-59035D01*
X246146Y-57819D01*
X244000Y-57392D01*
X241854Y-57819D01*
X240035Y-59035D01*
X239143Y-60369D01*
X237503Y-60638D01*
X237497D01*
X235857Y-60369D01*
X234965Y-59035D01*
X233146Y-57819D01*
X231000Y-57392D01*
X228854Y-57819D01*
X227035Y-59035D01*
X226143Y-60369D01*
X224503Y-60638D01*
X224497D01*
X222857Y-60369D01*
X221965Y-59035D01*
X220146Y-57819D01*
X218000Y-57392D01*
X215854Y-57819D01*
X214035Y-59035D01*
X213143Y-60369D01*
X211503Y-60638D01*
X211497D01*
X209857Y-60369D01*
X208965Y-59035D01*
X207146Y-57819D01*
X205000Y-57392D01*
X202854Y-57819D01*
X201035Y-59035D01*
X199819Y-60854D01*
X199392Y-63000D01*
X199819Y-65146D01*
X201035Y-66965D01*
X202854Y-68181D01*
X205000Y-68608D01*
X207146Y-68181D01*
X208965Y-66965D01*
X209857Y-65631D01*
X211497Y-65362D01*
X211503D01*
X213143Y-65631D01*
X214035Y-66965D01*
X215854Y-68181D01*
X218000Y-68608D01*
X220146Y-68181D01*
X221965Y-66965D01*
X222857Y-65631D01*
X224497Y-65362D01*
X224503D01*
X226143Y-65631D01*
X227035Y-66965D01*
X228854Y-68181D01*
X231000Y-68608D01*
X233146Y-68181D01*
X234965Y-66965D01*
X235857Y-65631D01*
X237497Y-65362D01*
X237503D01*
X239143Y-65631D01*
X240035Y-66965D01*
X241854Y-68181D01*
X244000Y-68608D01*
X246146Y-68181D01*
X247965Y-66965D01*
X248857Y-65631D01*
X250497Y-65362D01*
X250503D01*
X252143Y-65631D01*
X253035Y-66965D01*
X254854Y-68181D01*
X257000Y-68608D01*
X259146Y-68181D01*
X260965Y-66965D01*
X261857Y-65631D01*
X263497Y-65362D01*
X263503D01*
X265143Y-65631D01*
X266035Y-66965D01*
X267854Y-68181D01*
X270000Y-68608D01*
X272146Y-68181D01*
X273965Y-66965D01*
X275181Y-65146D01*
X275608Y-63000D01*
X275181Y-60854D01*
X273965Y-59035D01*
X272146Y-57819D01*
X270000Y-57392D01*
D02*
G37*
G36*
X472500Y-64392D02*
X470354Y-64819D01*
X468535Y-66035D01*
X467319Y-67854D01*
X466892Y-70000D01*
X467319Y-72146D01*
X468535Y-73965D01*
X470354Y-75181D01*
X472500Y-75608D01*
X474646Y-75181D01*
X476465Y-73965D01*
X477681Y-72146D01*
X478108Y-70000D01*
X477681Y-67854D01*
X476465Y-66035D01*
X474646Y-64819D01*
X472500Y-64392D01*
D02*
G37*
G36*
X338000Y-49392D02*
X335854Y-49819D01*
X334035Y-51035D01*
X332819Y-52854D01*
X332392Y-55000D01*
X332819Y-57146D01*
X334035Y-58965D01*
X335854Y-60181D01*
X338000Y-60608D01*
X340146Y-60181D01*
X341965Y-58965D01*
X343181Y-57146D01*
X343608Y-55000D01*
X343181Y-52854D01*
X341965Y-51035D01*
X340146Y-49819D01*
X338000Y-49392D01*
D02*
G37*
G36*
X-47500Y-39392D02*
X-49646Y-39819D01*
X-51465Y-41035D01*
X-52681Y-42854D01*
X-53108Y-45000D01*
X-52681Y-47146D01*
X-51465Y-48965D01*
X-49646Y-50181D01*
X-47500Y-50608D01*
X-45354Y-50181D01*
X-43535Y-48965D01*
X-42319Y-47146D01*
X-41892Y-45000D01*
X-42319Y-42854D01*
X-43535Y-41035D01*
X-45354Y-39819D01*
X-47500Y-39392D01*
D02*
G37*
G36*
X205000Y-42392D02*
X202854Y-42819D01*
X201035Y-44035D01*
X199819Y-45854D01*
X199392Y-48000D01*
X199819Y-50146D01*
X201035Y-51965D01*
X202854Y-53181D01*
X205000Y-53608D01*
X207146Y-53181D01*
X208965Y-51965D01*
X210181Y-50146D01*
X210608Y-48000D01*
X210181Y-45854D01*
X208965Y-44035D01*
X207146Y-42819D01*
X205000Y-42392D01*
D02*
G37*
G36*
X117500Y-71892D02*
X115354Y-72319D01*
X113535Y-73535D01*
X112319Y-75354D01*
X111892Y-77500D01*
X112319Y-79646D01*
X113535Y-81465D01*
X115354Y-82681D01*
X117500Y-83108D01*
X119646Y-82681D01*
X121465Y-81465D01*
X122681Y-79646D01*
X123108Y-77500D01*
X122681Y-75354D01*
X121465Y-73535D01*
X119646Y-72319D01*
X117500Y-71892D01*
D02*
G37*
G36*
X100000D02*
X97854Y-72319D01*
X96035Y-73535D01*
X94819Y-75354D01*
X94392Y-77500D01*
X94819Y-79646D01*
X96035Y-81465D01*
X97854Y-82681D01*
X100000Y-83108D01*
X102146Y-82681D01*
X103965Y-81465D01*
X105181Y-79646D01*
X105608Y-77500D01*
X105181Y-75354D01*
X103965Y-73535D01*
X102146Y-72319D01*
X100000Y-71892D01*
D02*
G37*
G36*
X135000D02*
X132854Y-72319D01*
X131035Y-73535D01*
X129819Y-75354D01*
X129392Y-77500D01*
X129819Y-79646D01*
X131035Y-81465D01*
X132854Y-82681D01*
X135000Y-83108D01*
X137146Y-82681D01*
X138965Y-81465D01*
X140181Y-79646D01*
X140608Y-77500D01*
X140181Y-75354D01*
X138965Y-73535D01*
X137146Y-72319D01*
X135000Y-71892D01*
D02*
G37*
G36*
X175000Y-65892D02*
X172854Y-66319D01*
X171035Y-67535D01*
X169819Y-69354D01*
X169392Y-71500D01*
X169819Y-73646D01*
X171035Y-75465D01*
X172854Y-76681D01*
X175000Y-77108D01*
X177146Y-76681D01*
X178965Y-75465D01*
X180181Y-73646D01*
X180608Y-71500D01*
X180181Y-69354D01*
X178965Y-67535D01*
X177146Y-66319D01*
X175000Y-65892D01*
D02*
G37*
G36*
X152500Y-71892D02*
X150354Y-72319D01*
X148535Y-73535D01*
X147319Y-75354D01*
X146892Y-77500D01*
X147319Y-79646D01*
X148535Y-81465D01*
X150354Y-82681D01*
X152500Y-83108D01*
X154646Y-82681D01*
X156465Y-81465D01*
X157681Y-79646D01*
X158108Y-77500D01*
X157681Y-75354D01*
X156465Y-73535D01*
X154646Y-72319D01*
X152500Y-71892D01*
D02*
G37*
G36*
X360000Y-210726D02*
X354537Y-211812D01*
X349907Y-214907D01*
X346812Y-219538D01*
X345726Y-225000D01*
X346812Y-230463D01*
X349907Y-235093D01*
X354537Y-238188D01*
X360000Y-239274D01*
X365462Y-238188D01*
X370093Y-235093D01*
X373188Y-230463D01*
X374274Y-225000D01*
X373188Y-219538D01*
X370093Y-214907D01*
X365462Y-211812D01*
X360000Y-210726D01*
D02*
G37*
G36*
X250000D02*
X244538Y-211812D01*
X239907Y-214907D01*
X236812Y-219538D01*
X235726Y-225000D01*
X236812Y-230463D01*
X239907Y-235093D01*
X244538Y-238188D01*
X250000Y-239274D01*
X255462Y-238188D01*
X260093Y-235093D01*
X263188Y-230463D01*
X264274Y-225000D01*
X263188Y-219538D01*
X260093Y-214907D01*
X255462Y-211812D01*
X250000Y-210726D01*
D02*
G37*
G36*
X325000Y-205314D02*
X321293Y-206051D01*
X318151Y-208151D01*
X316667Y-210372D01*
X316411Y-210459D01*
X313589D01*
X313333Y-210372D01*
X311849Y-208151D01*
X308707Y-206051D01*
X305000Y-205314D01*
X301293Y-206051D01*
X298151Y-208151D01*
X297500Y-209125D01*
X294500Y-208215D01*
Y-205500D01*
X275500D01*
Y-224500D01*
X277315D01*
X278225Y-227500D01*
X277790Y-227791D01*
X275580Y-231098D01*
X275401Y-232000D01*
X285000D01*
Y-235000D01*
X288000D01*
Y-244599D01*
X288902Y-244420D01*
X292210Y-242210D01*
X293529Y-240235D01*
X297002Y-240129D01*
X298151Y-241849D01*
X301293Y-243949D01*
X305000Y-244686D01*
X308707Y-243949D01*
X311849Y-241849D01*
X312998Y-240129D01*
X316471Y-240235D01*
X317790Y-242210D01*
X321098Y-244420D01*
X322000Y-244599D01*
Y-235000D01*
X325000D01*
Y-232000D01*
X334599D01*
X334420Y-231098D01*
X332210Y-227791D01*
X330235Y-226471D01*
X330129Y-222998D01*
X331849Y-221849D01*
X333949Y-218707D01*
X334686Y-215000D01*
X333949Y-211293D01*
X331849Y-208151D01*
X328707Y-206051D01*
X325000Y-205314D01*
D02*
G37*
G36*
X470000Y-151845D02*
X465301Y-152463D01*
X460922Y-154277D01*
X457162Y-157162D01*
X454277Y-160922D01*
X452463Y-165301D01*
X451845Y-170000D01*
Y-190000D01*
X452463Y-194699D01*
X454277Y-199078D01*
X457162Y-202838D01*
X460922Y-205723D01*
X465301Y-207537D01*
X470000Y-208155D01*
X474699Y-207537D01*
X479078Y-205723D01*
X482838Y-202838D01*
X485723Y-199078D01*
X487537Y-194699D01*
X488155Y-190000D01*
Y-170000D01*
X487537Y-165301D01*
X485723Y-160922D01*
X482838Y-157162D01*
X479078Y-154277D01*
X474699Y-152463D01*
X470000Y-151845D01*
D02*
G37*
G36*
X-75000Y-151845D02*
X-79699Y-152463D01*
X-84078Y-154277D01*
X-87838Y-157162D01*
X-90723Y-160922D01*
X-92537Y-165301D01*
X-93155Y-170000D01*
Y-190000D01*
X-92537Y-194699D01*
X-90723Y-199078D01*
X-87838Y-202838D01*
X-84078Y-205723D01*
X-79699Y-207537D01*
X-75000Y-208155D01*
X-70301Y-207537D01*
X-65922Y-205723D01*
X-62162Y-202838D01*
X-59277Y-199078D01*
X-57463Y-194699D01*
X-56845Y-190000D01*
Y-170000D01*
X-57463Y-165301D01*
X-59277Y-160922D01*
X-62162Y-157162D01*
X-65922Y-154277D01*
X-70301Y-152463D01*
X-75000Y-151845D01*
D02*
G37*
G36*
X282000Y-238000D02*
X275401D01*
X275580Y-238902D01*
X277790Y-242210D01*
X281098Y-244420D01*
X282000Y-244599D01*
Y-238000D01*
D02*
G37*
G36*
X42000Y-238000D02*
X35401D01*
X35580Y-238902D01*
X37790Y-242210D01*
X41098Y-244420D01*
X42000Y-244599D01*
Y-238000D01*
D02*
G37*
G36*
X334599Y-238000D02*
X328000D01*
Y-244599D01*
X328902Y-244420D01*
X332210Y-242210D01*
X334420Y-238902D01*
X334599Y-238000D01*
D02*
G37*
G36*
X180000Y-210216D02*
X174342Y-211341D01*
X169546Y-214546D01*
X166341Y-219342D01*
X165216Y-225000D01*
X166341Y-230658D01*
X169546Y-235454D01*
X174342Y-238659D01*
X180000Y-239784D01*
X185658Y-238659D01*
X190454Y-235454D01*
X193659Y-230658D01*
X194784Y-225000D01*
X193659Y-219342D01*
X190454Y-214546D01*
X185658Y-211341D01*
X180000Y-210216D01*
D02*
G37*
G36*
X10000D02*
X4342Y-211341D01*
X-454Y-214546D01*
X-3659Y-219342D01*
X-4784Y-225000D01*
X-3659Y-230658D01*
X-454Y-235454D01*
X4342Y-238659D01*
X10000Y-239784D01*
X15658Y-238659D01*
X20454Y-235454D01*
X23659Y-230658D01*
X24784Y-225000D01*
X23659Y-219342D01*
X20454Y-214546D01*
X15658Y-211341D01*
X10000Y-210216D01*
D02*
G37*
G36*
X247500Y-111892D02*
X245354Y-112319D01*
X243535Y-113535D01*
X242319Y-115354D01*
X241892Y-117500D01*
X242319Y-119646D01*
X243535Y-121465D01*
X245354Y-122681D01*
X247500Y-123108D01*
X249646Y-122681D01*
X251465Y-121465D01*
X252681Y-119646D01*
X253108Y-117500D01*
X252681Y-115354D01*
X251465Y-113535D01*
X249646Y-112319D01*
X247500Y-111892D01*
D02*
G37*
G36*
X117500Y-106892D02*
X115354Y-107319D01*
X113535Y-108535D01*
X112319Y-110354D01*
X111892Y-112500D01*
X112319Y-114646D01*
X113535Y-116465D01*
X115354Y-117681D01*
X117500Y-118108D01*
X119646Y-117681D01*
X121465Y-116465D01*
X122681Y-114646D01*
X123108Y-112500D01*
X122681Y-110354D01*
X121465Y-108535D01*
X119646Y-107319D01*
X117500Y-106892D01*
D02*
G37*
G36*
X100000D02*
X97854Y-107319D01*
X96035Y-108535D01*
X94819Y-110354D01*
X94392Y-112500D01*
X94819Y-114646D01*
X96035Y-116465D01*
X97854Y-117681D01*
X100000Y-118108D01*
X102146Y-117681D01*
X103965Y-116465D01*
X105181Y-114646D01*
X105608Y-112500D01*
X105181Y-110354D01*
X103965Y-108535D01*
X102146Y-107319D01*
X100000Y-106892D01*
D02*
G37*
G36*
X360000Y-189392D02*
X357854Y-189819D01*
X356035Y-191035D01*
X354819Y-192854D01*
X354392Y-195000D01*
X354819Y-197146D01*
X356035Y-198965D01*
X357854Y-200181D01*
X360000Y-200608D01*
X362146Y-200181D01*
X363965Y-198965D01*
X365181Y-197146D01*
X365608Y-195000D01*
X365181Y-192854D01*
X363965Y-191035D01*
X362146Y-189819D01*
X360000Y-189392D01*
D02*
G37*
G36*
X222500Y-201892D02*
X220354Y-202319D01*
X218535Y-203535D01*
X217917Y-204460D01*
X217607Y-204561D01*
X214893D01*
X214583Y-204460D01*
X213965Y-203535D01*
X212146Y-202319D01*
X210000Y-201892D01*
X207854Y-202319D01*
X206035Y-203535D01*
X204819Y-205354D01*
X204392Y-207500D01*
X204819Y-209646D01*
X206035Y-211465D01*
X207854Y-212681D01*
X210000Y-213108D01*
X212146Y-212681D01*
X213965Y-211465D01*
X214583Y-210540D01*
X214893Y-210439D01*
X217607D01*
X217917Y-210540D01*
X218535Y-211465D01*
X220354Y-212681D01*
X222500Y-213108D01*
X224646Y-212681D01*
X226465Y-211465D01*
X227681Y-209646D01*
X228108Y-207500D01*
X227681Y-205354D01*
X226465Y-203535D01*
X224646Y-202319D01*
X222500Y-201892D01*
D02*
G37*
G36*
X401157Y-165735D02*
X399011Y-166162D01*
X397192Y-167378D01*
X395976Y-169197D01*
X395549Y-171343D01*
X395976Y-173489D01*
X397192Y-175308D01*
X399011Y-176524D01*
X401157Y-176951D01*
X403303Y-176524D01*
X405122Y-175308D01*
X406338Y-173489D01*
X406765Y-171343D01*
X406338Y-169197D01*
X405122Y-167378D01*
X403303Y-166162D01*
X401157Y-165735D01*
D02*
G37*
G36*
X218000Y-35392D02*
X215854Y-35819D01*
X214035Y-37035D01*
X212819Y-38854D01*
X212392Y-41000D01*
X212819Y-43146D01*
X214035Y-44965D01*
X215854Y-46181D01*
X218000Y-46608D01*
X220146Y-46181D01*
X221965Y-44965D01*
X223181Y-43146D01*
X223608Y-41000D01*
X223181Y-38854D01*
X221965Y-37035D01*
X220146Y-35819D01*
X218000Y-35392D01*
D02*
G37*
G36*
X57500Y103108D02*
X55354Y102681D01*
X53535Y101465D01*
X52319Y99646D01*
X51892Y97500D01*
X52319Y95354D01*
X53535Y93535D01*
X55354Y92319D01*
X57500Y91892D01*
X59646Y92319D01*
X61465Y93535D01*
X62681Y95354D01*
X63108Y97500D01*
X62681Y99646D01*
X61465Y101465D01*
X59646Y102681D01*
X57500Y103108D01*
D02*
G37*
G36*
X334000Y81608D02*
X331854Y81181D01*
X330035Y79965D01*
X328819Y78146D01*
X328392Y76000D01*
X328819Y73854D01*
X330035Y72035D01*
X331854Y70819D01*
X334000Y70392D01*
X336146Y70819D01*
X337965Y72035D01*
X339181Y73854D01*
X339608Y76000D01*
X339181Y78146D01*
X337965Y79965D01*
X336146Y81181D01*
X334000Y81608D01*
D02*
G37*
G36*
X74600Y134115D02*
X70308Y133262D01*
X66669Y130830D01*
X64238Y127192D01*
X63384Y122900D01*
X64238Y118608D01*
X66669Y114969D01*
X70308Y112538D01*
X74600Y111685D01*
X78892Y112538D01*
X82530Y114969D01*
X84962Y118608D01*
X85815Y122900D01*
X84962Y127192D01*
X82530Y130830D01*
X78892Y133262D01*
X74600Y134115D01*
D02*
G37*
G36*
X367114Y115222D02*
X364968Y114795D01*
X363149Y113579D01*
X361933Y111760D01*
X361506Y109614D01*
X361933Y107468D01*
X363149Y105649D01*
X364968Y104433D01*
X367114Y104006D01*
X369260Y104433D01*
X371079Y105649D01*
X372295Y107468D01*
X372722Y109614D01*
X372295Y111760D01*
X371079Y113579D01*
X369260Y114795D01*
X367114Y115222D01*
D02*
G37*
G36*
X372000Y58608D02*
X369854Y58181D01*
X368035Y56965D01*
X366079D01*
X364260Y58181D01*
X362114Y58608D01*
X359968Y58181D01*
X358149Y56965D01*
X356933Y55146D01*
X356506Y53000D01*
X356933Y50854D01*
X358149Y49035D01*
X359968Y47819D01*
X362114Y47392D01*
X364260Y47819D01*
X366079Y49035D01*
X368035D01*
X369854Y47819D01*
X372000Y47392D01*
X374146Y47819D01*
X375965Y49035D01*
X377181Y50854D01*
X377608Y53000D01*
X377181Y55146D01*
X375965Y56965D01*
X374146Y58181D01*
X372000Y58608D01*
D02*
G37*
G36*
X98599Y62000D02*
X92000D01*
Y55401D01*
X92902Y55580D01*
X96210Y57790D01*
X98420Y61098D01*
X98599Y62000D01*
D02*
G37*
G36*
X237000Y72608D02*
X234854Y72181D01*
X233035Y70965D01*
X231819Y69146D01*
X231392Y67000D01*
X231819Y64854D01*
X233035Y63035D01*
X234854Y61819D01*
X237000Y61392D01*
X239146Y61819D01*
X240965Y63035D01*
X242181Y64854D01*
X242608Y67000D01*
X242181Y69146D01*
X240965Y70965D01*
X239146Y72181D01*
X237000Y72608D01*
D02*
G37*
G36*
X92000Y74599D02*
Y68000D01*
X98599D01*
X98420Y68902D01*
X96210Y72210D01*
X92902Y74420D01*
X92000Y74599D01*
D02*
G37*
G36*
X86000D02*
X85098Y74420D01*
X81790Y72210D01*
X79580Y68902D01*
X79401Y68000D01*
X86000D01*
Y74599D01*
D02*
G37*
G36*
X229000Y155608D02*
X226854Y155181D01*
X225035Y153965D01*
X223819Y152146D01*
X223392Y150000D01*
X223819Y147854D01*
X225035Y146035D01*
X226854Y144819D01*
X229000Y144392D01*
X231146Y144819D01*
X232965Y146035D01*
X234181Y147854D01*
X234608Y150000D01*
X234181Y152146D01*
X232965Y153965D01*
X231146Y155181D01*
X229000Y155608D01*
D02*
G37*
G36*
X306000Y153608D02*
X303854Y153181D01*
X302035Y151965D01*
X300819Y150146D01*
X300392Y148000D01*
X300819Y145854D01*
X302035Y144035D01*
X303854Y142819D01*
X306000Y142392D01*
X308146Y142819D01*
X309965Y144035D01*
X311181Y145854D01*
X311608Y148000D01*
X311181Y150146D01*
X309965Y151965D01*
X308146Y153181D01*
X306000Y153608D01*
D02*
G37*
G36*
X150800Y159515D02*
X146508Y158662D01*
X142869Y156230D01*
X140438Y152592D01*
X139884Y149807D01*
X136826D01*
X136233Y152787D01*
X133691Y156591D01*
X129887Y159133D01*
X128400Y159429D01*
Y148300D01*
X122400D01*
Y159429D01*
X120913Y159133D01*
X117109Y156591D01*
X114567Y152787D01*
X114229Y151088D01*
X111171D01*
X110833Y152787D01*
X108291Y156591D01*
X104487Y159133D01*
X103000Y159429D01*
Y148300D01*
X97000D01*
Y159429D01*
X95513Y159133D01*
X91709Y156591D01*
X89167Y152787D01*
X88574Y149807D01*
X85516D01*
X84962Y152592D01*
X82530Y156230D01*
X78892Y158662D01*
X74600Y159515D01*
X70308Y158662D01*
X66669Y156230D01*
X64238Y152592D01*
X63384Y148300D01*
X64238Y144008D01*
X66669Y140369D01*
X70308Y137938D01*
X74600Y137085D01*
X78892Y137938D01*
X82530Y140369D01*
X84962Y144008D01*
X85516Y146793D01*
X88574D01*
X89167Y143813D01*
X91709Y140009D01*
X95513Y137467D01*
X98493Y136875D01*
Y133816D01*
X95708Y133262D01*
X92069Y130830D01*
X89638Y127192D01*
X88785Y122900D01*
X89638Y118608D01*
X92069Y114969D01*
X95708Y112538D01*
X100000Y111685D01*
X104292Y112538D01*
X107930Y114969D01*
X110362Y118608D01*
X111215Y122900D01*
X110362Y127192D01*
X107930Y130830D01*
X104292Y133262D01*
X101507Y133816D01*
Y136875D01*
X104487Y137467D01*
X108291Y140009D01*
X110833Y143813D01*
X111171Y145512D01*
X114229D01*
X114567Y143813D01*
X117109Y140009D01*
X120913Y137467D01*
X123893Y136875D01*
Y133816D01*
X121108Y133262D01*
X117469Y130830D01*
X115038Y127192D01*
X114185Y122900D01*
X115038Y118608D01*
X117469Y114969D01*
X121108Y112538D01*
X125400Y111685D01*
X129692Y112538D01*
X133330Y114969D01*
X135762Y118608D01*
X136615Y122900D01*
X135762Y127192D01*
X133330Y130830D01*
X129692Y133262D01*
X126907Y133816D01*
Y136875D01*
X129887Y137467D01*
X133691Y140009D01*
X136233Y143813D01*
X136826Y146793D01*
X139884D01*
X140438Y144008D01*
X142869Y140369D01*
X146508Y137938D01*
X150800Y137085D01*
X155092Y137938D01*
X158730Y140369D01*
X161162Y144008D01*
X162015Y148300D01*
X161162Y152592D01*
X158730Y156230D01*
X155092Y158662D01*
X150800Y159515D01*
D02*
G37*
G36*
X176200Y134115D02*
X171908Y133262D01*
X168269Y130830D01*
X165838Y127192D01*
X164984Y122900D01*
X165838Y118608D01*
X168269Y114969D01*
X171908Y112538D01*
X176200Y111685D01*
X180492Y112538D01*
X184130Y114969D01*
X186562Y118608D01*
X187415Y122900D01*
X186562Y127192D01*
X184130Y130830D01*
X180492Y133262D01*
X176200Y134115D01*
D02*
G37*
G36*
X150800D02*
X146508Y133262D01*
X142869Y130830D01*
X140438Y127192D01*
X139585Y122900D01*
X140438Y118608D01*
X142869Y114969D01*
X146508Y112538D01*
X150800Y111685D01*
X155092Y112538D01*
X158730Y114969D01*
X161162Y118608D01*
X162015Y122900D01*
X161162Y127192D01*
X158730Y130830D01*
X155092Y133262D01*
X150800Y134115D01*
D02*
G37*
G36*
X201600D02*
X197308Y133262D01*
X193669Y130830D01*
X191238Y127192D01*
X190385Y122900D01*
X191238Y118608D01*
X193669Y114969D01*
X197308Y112538D01*
X201600Y111685D01*
X205892Y112538D01*
X209531Y114969D01*
X211962Y118608D01*
X212815Y122900D01*
X211962Y127192D01*
X209531Y130830D01*
X205892Y133262D01*
X201600Y134115D01*
D02*
G37*
G36*
X212600Y159300D02*
X190600D01*
Y137300D01*
X212600D01*
Y159300D01*
D02*
G37*
G36*
X176200Y159515D02*
X171908Y158662D01*
X168269Y156230D01*
X165838Y152592D01*
X164984Y148300D01*
X165838Y144008D01*
X168269Y140369D01*
X171908Y137938D01*
X176200Y137085D01*
X180492Y137938D01*
X184130Y140369D01*
X186562Y144008D01*
X187415Y148300D01*
X186562Y152592D01*
X184130Y156230D01*
X180492Y158662D01*
X176200Y159515D01*
D02*
G37*
G36*
X86000Y62000D02*
X79401D01*
X79580Y61098D01*
X81790Y57790D01*
X85098Y55580D01*
X86000Y55401D01*
Y62000D01*
D02*
G37*
G36*
X270000Y-7392D02*
X267854Y-7819D01*
X266035Y-9035D01*
X264819Y-10854D01*
X264392Y-13000D01*
X264819Y-15146D01*
X266035Y-16965D01*
X267854Y-18181D01*
X270000Y-18608D01*
X272146Y-18181D01*
X273965Y-16965D01*
X275181Y-15146D01*
X275608Y-13000D01*
X275181Y-10854D01*
X273965Y-9035D01*
X272146Y-7819D01*
X270000Y-7392D01*
D02*
G37*
G36*
X361000Y-13392D02*
X358854Y-13819D01*
X357035Y-15035D01*
X355819Y-16854D01*
X355530Y-18310D01*
X355392Y-19000D01*
X355284Y-19240D01*
X352293Y-19776D01*
X351465Y-18535D01*
X349645Y-17320D01*
X347499Y-16893D01*
X345353Y-17320D01*
X343534Y-18535D01*
X342318Y-20354D01*
X341892Y-22501D01*
X342318Y-24646D01*
X343534Y-26466D01*
X345353Y-27681D01*
X347499Y-28108D01*
X349645Y-27681D01*
X351465Y-26466D01*
X352680Y-24646D01*
X352970Y-23190D01*
X353107Y-22501D01*
X353215Y-22260D01*
X356206Y-21725D01*
X357035Y-22965D01*
X358854Y-24181D01*
X361000Y-24608D01*
X363146Y-24181D01*
X364965Y-22965D01*
X366181Y-21146D01*
X366608Y-19000D01*
X366181Y-16854D01*
X364965Y-15035D01*
X363146Y-13819D01*
X361000Y-13392D01*
D02*
G37*
G36*
X306999Y3608D02*
X304853Y3181D01*
X303034Y1965D01*
X301819Y146D01*
X301392Y-2000D01*
X301819Y-4146D01*
X303034Y-5965D01*
X304853Y-7181D01*
X306999Y-7608D01*
X309145Y-7181D01*
X310965Y-5965D01*
X312180Y-4146D01*
X312607Y-2000D01*
X312180Y146D01*
X310965Y1965D01*
X309145Y3181D01*
X306999Y3608D01*
D02*
G37*
G36*
X-75000Y58155D02*
X-79699Y57537D01*
X-84078Y55723D01*
X-87838Y52838D01*
X-90723Y49078D01*
X-92537Y44699D01*
X-93155Y40000D01*
Y20000D01*
X-92537Y15301D01*
X-90723Y10922D01*
X-87838Y7162D01*
X-84078Y4277D01*
X-79699Y2463D01*
X-75000Y1845D01*
X-70301Y2463D01*
X-65922Y4277D01*
X-62162Y7162D01*
X-59277Y10922D01*
X-57463Y15301D01*
X-56845Y20000D01*
Y40000D01*
X-57463Y44699D01*
X-59277Y49078D01*
X-62162Y52838D01*
X-65922Y55723D01*
X-70301Y57537D01*
X-75000Y58155D01*
D02*
G37*
G36*
X246000Y10608D02*
X243854Y10181D01*
X242035Y8965D01*
X240819Y7146D01*
X240392Y5000D01*
X240819Y2854D01*
X242035Y1035D01*
X243854Y-181D01*
X246000Y-608D01*
X248146Y-181D01*
X249965Y1035D01*
X251181Y2854D01*
X251608Y5000D01*
X251181Y7146D01*
X249965Y8965D01*
X248146Y10181D01*
X246000Y10608D01*
D02*
G37*
G36*
X374000Y-29392D02*
X371854Y-29819D01*
X370035Y-31035D01*
X368819Y-32854D01*
X368392Y-35000D01*
X368819Y-37146D01*
X370035Y-38965D01*
X371854Y-40181D01*
X374000Y-40608D01*
X376146Y-40181D01*
X377965Y-38965D01*
X379181Y-37146D01*
X379608Y-35000D01*
X379181Y-32854D01*
X377965Y-31035D01*
X376146Y-29819D01*
X374000Y-29392D01*
D02*
G37*
G36*
X353000Y-34392D02*
X350854Y-34819D01*
X349035Y-36035D01*
X347819Y-37854D01*
X347392Y-40000D01*
X347819Y-42146D01*
X349035Y-43965D01*
X350854Y-45181D01*
X353000Y-45608D01*
X355146Y-45181D01*
X356965Y-43965D01*
X358181Y-42146D01*
X358608Y-40000D01*
X358181Y-37854D01*
X356965Y-36035D01*
X355146Y-34819D01*
X353000Y-34392D01*
D02*
G37*
G36*
X231000Y-28392D02*
X228854Y-28819D01*
X227035Y-30035D01*
X225819Y-31854D01*
X225392Y-34000D01*
X225819Y-36146D01*
X227035Y-37965D01*
X228854Y-39181D01*
X231000Y-39608D01*
X233146Y-39181D01*
X234965Y-37965D01*
X236181Y-36146D01*
X236608Y-34000D01*
X236181Y-31854D01*
X234965Y-30035D01*
X233146Y-28819D01*
X231000Y-28392D01*
D02*
G37*
G36*
X257000Y-14392D02*
X254854Y-14819D01*
X253035Y-16035D01*
X251819Y-17854D01*
X251392Y-20000D01*
X251819Y-22146D01*
X253035Y-23965D01*
X254854Y-25181D01*
X257000Y-25608D01*
X259146Y-25181D01*
X260965Y-23965D01*
X262181Y-22146D01*
X262608Y-20000D01*
X262181Y-17854D01*
X260965Y-16035D01*
X259146Y-14819D01*
X257000Y-14392D01*
D02*
G37*
G36*
X244000Y-21392D02*
X241854Y-21819D01*
X240035Y-23035D01*
X238819Y-24854D01*
X238392Y-27000D01*
X238819Y-29146D01*
X240035Y-30965D01*
X241854Y-32181D01*
X244000Y-32608D01*
X246146Y-32181D01*
X247965Y-30965D01*
X249181Y-29146D01*
X249608Y-27000D01*
X249181Y-24854D01*
X247965Y-23035D01*
X246146Y-21819D01*
X244000Y-21392D01*
D02*
G37*
G36*
X312500Y33108D02*
X310354Y32681D01*
X308535Y31465D01*
X307319Y29646D01*
X306892Y27500D01*
X307319Y25354D01*
X308535Y23535D01*
X310354Y22319D01*
X312500Y21892D01*
X314646Y22319D01*
X316465Y23535D01*
X317681Y25354D01*
X318108Y27500D01*
X317681Y29646D01*
X316465Y31465D01*
X314646Y32681D01*
X312500Y33108D01*
D02*
G37*
G36*
X73500D02*
X71354Y32681D01*
X69535Y31465D01*
X68319Y29646D01*
X67892Y27500D01*
X68319Y25354D01*
X69535Y23535D01*
X71354Y22319D01*
X73500Y21892D01*
X75646Y22319D01*
X77465Y23535D01*
X78681Y25354D01*
X79108Y27500D01*
X78681Y29646D01*
X77465Y31465D01*
X75646Y32681D01*
X73500Y33108D01*
D02*
G37*
G36*
X348000Y58608D02*
X345854Y58181D01*
X344035Y56965D01*
X342819Y55146D01*
X342392Y53000D01*
X342819Y50854D01*
X344035Y49035D01*
X345854Y47819D01*
X348000Y47392D01*
X350146Y47819D01*
X351965Y49035D01*
X353181Y50854D01*
X353608Y53000D01*
X353181Y55146D01*
X351965Y56965D01*
X350146Y58181D01*
X348000Y58608D01*
D02*
G37*
G36*
X321000Y65608D02*
X318854Y65181D01*
X317035Y63965D01*
X315819Y62146D01*
X315392Y60000D01*
X315819Y57854D01*
X317035Y56035D01*
X318854Y54819D01*
X321000Y54392D01*
X323146Y54819D01*
X324965Y56035D01*
X326181Y57854D01*
X326608Y60000D01*
X326181Y62146D01*
X324965Y63965D01*
X323146Y65181D01*
X321000Y65608D01*
D02*
G37*
G36*
X265000Y65608D02*
X262854Y65181D01*
X261035Y63965D01*
X259819Y62146D01*
X259392Y60000D01*
X259819Y57854D01*
X261035Y56035D01*
X262854Y54819D01*
X265000Y54392D01*
X267146Y54819D01*
X268965Y56035D01*
X270181Y57854D01*
X270608Y60000D01*
X270181Y62146D01*
X268965Y63965D01*
X267146Y65181D01*
X265000Y65608D01*
D02*
G37*
G36*
X334444Y16108D02*
X332298Y15681D01*
X330478Y14465D01*
X330144Y13965D01*
X328965D01*
X327146Y15181D01*
X325000Y15608D01*
X322854Y15181D01*
X321035Y13965D01*
X318965D01*
X317146Y15181D01*
X315000Y15608D01*
X312854Y15181D01*
X311035Y13965D01*
X309819Y12146D01*
X309392Y10000D01*
X309819Y7854D01*
X311035Y6035D01*
X312854Y4819D01*
X315000Y4392D01*
X317146Y4819D01*
X318965Y6035D01*
X321035D01*
X322854Y4819D01*
X325000Y4392D01*
X327146Y4819D01*
X328965Y6035D01*
X329299Y6535D01*
X330478D01*
X332298Y5319D01*
X334444Y4892D01*
X336590Y5319D01*
X338409Y6535D01*
X339624Y8354D01*
X340051Y10500D01*
X339624Y12646D01*
X338409Y14465D01*
X336590Y15681D01*
X334444Y16108D01*
D02*
G37*
G36*
X470000Y58155D02*
X465301Y57537D01*
X460922Y55723D01*
X457162Y52838D01*
X454277Y49078D01*
X452463Y44699D01*
X451845Y40000D01*
Y20000D01*
X452463Y15301D01*
X454277Y10922D01*
X457162Y7162D01*
X460922Y4277D01*
X465301Y2463D01*
X470000Y1845D01*
X474699Y2463D01*
X479078Y4277D01*
X482838Y7162D01*
X485723Y10922D01*
X487537Y15301D01*
X488155Y20000D01*
Y40000D01*
X487537Y44699D01*
X485723Y49078D01*
X482838Y52838D01*
X479078Y55723D01*
X474699Y57537D01*
X470000Y58155D01*
D02*
G37*
G36*
X390000Y25608D02*
X387854Y25181D01*
X386035Y23965D01*
X384819Y22146D01*
X384392Y20000D01*
X384819Y17854D01*
X385374Y17024D01*
X385375Y16863D01*
X384981Y15937D01*
X381815Y14734D01*
X381146Y15181D01*
X379000Y15608D01*
X376854Y15181D01*
X375035Y13965D01*
X373819Y12146D01*
X373392Y10000D01*
X373819Y7854D01*
X375035Y6035D01*
X376854Y4819D01*
X379000Y4392D01*
X381146Y4819D01*
X382965Y6035D01*
X386035D01*
X387854Y4819D01*
X390000Y4392D01*
X392146Y4819D01*
X393965Y6035D01*
X395181Y7854D01*
X395471Y9311D01*
X398529D01*
X398819Y7854D01*
X400035Y6035D01*
X401854Y4819D01*
X404000Y4392D01*
X406146Y4819D01*
X407965Y6035D01*
X409035D01*
X410854Y4819D01*
X413000Y4392D01*
X415146Y4819D01*
X416965Y6035D01*
X418181Y7854D01*
X418608Y10000D01*
X418181Y12146D01*
X416965Y13965D01*
X415146Y15181D01*
X413000Y15608D01*
X410854Y15181D01*
X409035Y13965D01*
X407965D01*
X406146Y15181D01*
X404000Y15608D01*
X401854Y15181D01*
X400035Y13965D01*
X398819Y12146D01*
X398529Y10689D01*
X395471D01*
X395181Y12146D01*
X393965Y13965D01*
Y16035D01*
X395181Y17854D01*
X395608Y20000D01*
X395181Y22146D01*
X393965Y23965D01*
X392146Y25181D01*
X390000Y25608D01*
D02*
G37*
G36*
X376000Y29608D02*
X373854Y29181D01*
X372035Y27965D01*
X370819Y26146D01*
X370392Y24000D01*
X370819Y21854D01*
X372035Y20035D01*
X373854Y18819D01*
X376000Y18392D01*
X378146Y18819D01*
X379965Y20035D01*
X381181Y21854D01*
X381608Y24000D01*
X381181Y26146D01*
X379965Y27965D01*
X378146Y29181D01*
X376000Y29608D01*
D02*
G37*
%LPD*%
D38*
X45000Y-215000D02*
D03*
D39*
Y-235000D02*
D03*
X285000D02*
D03*
X325000D02*
D03*
X-12500Y-147500D02*
D03*
X89000Y65000D02*
D03*
D41*
X-1600Y148300D02*
D03*
X125400D02*
D03*
X100000D02*
D03*
D43*
X225919Y-187114D02*
D03*
X289000Y-100000D02*
D03*
X317500Y-82886D02*
D03*
X151000Y9000D02*
D03*
X160000D02*
D03*
X169000D02*
D03*
X238000Y17000D02*
D03*
X111600Y55400D02*
D03*
X353000Y-90000D02*
D03*
X355000Y17500D02*
D03*
X300000Y-40000D02*
D03*
X411999Y-34000D02*
D03*
X145000Y-193000D02*
D03*
X155000D02*
D03*
X135000D02*
D03*
X15000Y-143000D02*
D03*
X400000Y-190000D02*
D03*
X57500Y-68000D02*
D03*
X455000Y-60000D02*
D03*
X490000Y-67500D02*
D03*
X60500Y-9500D02*
D03*
X-25000Y-20000D02*
D03*
X-12500Y-115000D02*
D03*
X-25000Y-65000D02*
D03*
X140000Y-62500D02*
D03*
X-27000Y43000D02*
D03*
X68000Y-91000D02*
D03*
X-47500Y-110000D02*
D03*
X270919Y-186614D02*
D03*
X348000Y-133000D02*
D03*
X272500Y5000D02*
D03*
X342500Y-195000D02*
D03*
X407000Y-100500D02*
D03*
X-17500Y97500D02*
D03*
X223838Y-147000D02*
D03*
X197000D02*
D03*
X295000Y60000D02*
D03*
X180919Y-186614D02*
D03*
X367114Y157114D02*
D03*
X294000Y148000D02*
D03*
D44*
X45000Y-213000D02*
D03*
Y-199000D02*
D03*
D45*
Y-206002D02*
D03*
D46*
X45000Y-193000D02*
D03*
M02*
