G04 Layer_Color=8388736*
%FSLAX44Y44*%
%MOMM*%
G71*
G01*
G75*
%ADD66C,2.0000*%
%ADD67R,1.0500X1.0500*%
%ADD68R,1.0500X1.0500*%
%ADD69P,1.4849X4X180.0*%
%ADD70R,0.8000X1.2000*%
%ADD71R,1.7000X3.5500*%
%ADD72R,2.6000X1.0000*%
%ADD73O,2.4000X0.8500*%
%ADD74O,3.0000X0.8500*%
%ADD75O,0.8500X2.4000*%
%ADD76R,2.4000X2.4000*%
%ADD77R,1.2000X2.7000*%
%ADD78R,1.5000X1.7000*%
%ADD79R,0.8000X2.1000*%
G04:AMPARAMS|DCode=80|XSize=0.4mm|YSize=1.4mm|CornerRadius=0mm|HoleSize=0mm|Usage=FLASHONLY|Rotation=135.000|XOffset=0mm|YOffset=0mm|HoleType=Round|Shape=Round|*
%AMOVALD80*
21,1,1.0000,0.4000,0.0000,0.0000,225.0*
1,1,0.4000,0.3535,0.3535*
1,1,0.4000,-0.3535,-0.3535*
%
%ADD80OVALD80*%

G04:AMPARAMS|DCode=81|XSize=0.4mm|YSize=1.4mm|CornerRadius=0mm|HoleSize=0mm|Usage=FLASHONLY|Rotation=225.000|XOffset=0mm|YOffset=0mm|HoleType=Round|Shape=Round|*
%AMOVALD81*
21,1,1.0000,0.4000,0.0000,0.0000,315.0*
1,1,0.4000,-0.3535,0.3535*
1,1,0.4000,0.3535,-0.3535*
%
%ADD81OVALD81*%

%ADD82O,1.4000X0.4000*%
%ADD83O,0.4000X1.4000*%
%ADD84R,2.6000X1.6000*%
%ADD85R,1.4500X1.2000*%
%ADD86R,1.8000X1.4000*%
%ADD87O,3.4000X5.4000*%
%ADD88R,2.0000X2.0000*%
%ADD89C,2.4000*%
%ADD90C,1.6000*%
%ADD91R,1.6000X1.6000*%
G36*
X483114Y299000D02*
X471114D01*
Y326000D01*
X483114D01*
Y299000D01*
D02*
G37*
G36*
X463114D02*
X451114D01*
Y326000D01*
X463114D01*
Y299000D01*
D02*
G37*
G36*
X483114Y349000D02*
X471114D01*
Y376000D01*
X483114D01*
Y349000D01*
D02*
G37*
G36*
X463114D02*
X451114D01*
Y376000D01*
X463114D01*
Y349000D01*
D02*
G37*
D66*
X68000Y281000D02*
D03*
X527000Y-33000D02*
D03*
X184600Y347900D02*
D03*
X159200D02*
D03*
X133800D02*
D03*
X159200Y373300D02*
D03*
X184600D02*
D03*
X133800D02*
D03*
X210000D02*
D03*
X260800D02*
D03*
X235400D02*
D03*
X210000Y347900D02*
D03*
X235400D02*
D03*
X311600Y373300D02*
D03*
X286200Y347900D02*
D03*
Y373300D02*
D03*
X260800Y347900D02*
D03*
X108400Y373300D02*
D03*
Y347900D02*
D03*
D67*
X203000Y260200D02*
D03*
X217000D02*
D03*
X132000Y252500D02*
D03*
X118000D02*
D03*
X302000Y117500D02*
D03*
X288000D02*
D03*
X347919D02*
D03*
X333919D02*
D03*
X569500Y155000D02*
D03*
X555500D02*
D03*
X589500Y207500D02*
D03*
X575500D02*
D03*
X572000Y92500D02*
D03*
X558000D02*
D03*
X575500Y173772D02*
D03*
X589500D02*
D03*
X502000Y127500D02*
D03*
X488000D02*
D03*
X503000Y112500D02*
D03*
X517000D02*
D03*
X534500Y12500D02*
D03*
X520500D02*
D03*
X575500Y190886D02*
D03*
X589500D02*
D03*
X363919Y117500D02*
D03*
X377919D02*
D03*
X73000Y85000D02*
D03*
X87000D02*
D03*
X441500Y62000D02*
D03*
X455500D02*
D03*
X72999Y147499D02*
D03*
X86999D02*
D03*
X205000Y83500D02*
D03*
X219000D02*
D03*
D68*
X157500Y215500D02*
D03*
Y201500D02*
D03*
X88500Y49500D02*
D03*
Y35500D02*
D03*
X590000Y120500D02*
D03*
Y134500D02*
D03*
X535000Y123000D02*
D03*
Y137000D02*
D03*
X120000Y120500D02*
D03*
Y134500D02*
D03*
X107500Y134500D02*
D03*
Y120500D02*
D03*
X302500Y152000D02*
D03*
Y138000D02*
D03*
X352167Y152000D02*
D03*
Y138000D02*
D03*
X315000Y152000D02*
D03*
Y138000D02*
D03*
X327500Y152000D02*
D03*
Y138000D02*
D03*
X378369Y152000D02*
D03*
Y138000D02*
D03*
X365506Y152000D02*
D03*
Y138000D02*
D03*
X464292Y102000D02*
D03*
Y88000D02*
D03*
X405000Y295500D02*
D03*
Y309500D02*
D03*
X390000Y295500D02*
D03*
Y309500D02*
D03*
X360000Y295500D02*
D03*
Y309500D02*
D03*
X375000Y295500D02*
D03*
Y309500D02*
D03*
X290919Y48000D02*
D03*
Y62000D02*
D03*
X278419Y48000D02*
D03*
Y62000D02*
D03*
X335919Y48000D02*
D03*
Y62000D02*
D03*
X323419Y48000D02*
D03*
Y62000D02*
D03*
X380919Y48000D02*
D03*
Y62000D02*
D03*
X368419Y48000D02*
D03*
Y62000D02*
D03*
X160000Y309500D02*
D03*
Y295500D02*
D03*
X132500Y309500D02*
D03*
Y295500D02*
D03*
X97500Y309300D02*
D03*
Y295300D02*
D03*
X303419Y62000D02*
D03*
Y48000D02*
D03*
X348419Y62000D02*
D03*
Y48000D02*
D03*
X393419Y62000D02*
D03*
Y48000D02*
D03*
X160000Y268000D02*
D03*
Y282000D02*
D03*
X132500Y268000D02*
D03*
Y282000D02*
D03*
X97500D02*
D03*
Y268000D02*
D03*
X422500Y295500D02*
D03*
Y309500D02*
D03*
X339529Y152000D02*
D03*
Y138000D02*
D03*
X71000Y49500D02*
D03*
Y35500D02*
D03*
D69*
X407550Y137550D02*
D03*
X417450Y147450D02*
D03*
D70*
X562500Y110500D02*
D03*
X553000Y134500D02*
D03*
X572000D02*
D03*
X333419Y102000D02*
D03*
X342919Y78000D02*
D03*
X323919D02*
D03*
X378419Y102000D02*
D03*
X387919Y78000D02*
D03*
X368919D02*
D03*
X288419Y102000D02*
D03*
X297919Y78000D02*
D03*
X278919D02*
D03*
D71*
X86750Y115000D02*
D03*
X48250D02*
D03*
Y182500D02*
D03*
X86750D02*
D03*
D72*
X402419Y357700D02*
D03*
Y345000D02*
D03*
Y332300D02*
D03*
X363419Y357700D02*
D03*
Y345000D02*
D03*
Y332300D02*
D03*
D73*
X242250Y222100D02*
D03*
Y234800D02*
D03*
Y260200D02*
D03*
Y272900D02*
D03*
X322750D02*
D03*
Y260200D02*
D03*
Y247500D02*
D03*
Y234800D02*
D03*
Y222100D02*
D03*
D74*
X245250Y247500D02*
D03*
D75*
X257100Y287750D02*
D03*
X269800D02*
D03*
X282500D02*
D03*
X295200D02*
D03*
X307900D02*
D03*
Y207250D02*
D03*
X295200D02*
D03*
X282500D02*
D03*
X269800D02*
D03*
X257100D02*
D03*
D76*
X492000Y37000D02*
D03*
X534000D02*
D03*
Y91000D02*
D03*
X492000Y91100D02*
D03*
D77*
X457114Y312500D02*
D03*
Y362500D02*
D03*
X477114Y312500D02*
D03*
Y362500D02*
D03*
X497114Y312500D02*
D03*
Y362500D02*
D03*
X517114Y312500D02*
D03*
Y362500D02*
D03*
D78*
X195500Y37500D02*
D03*
X214500D02*
D03*
D79*
X167500Y176500D02*
D03*
X187500Y83500D02*
D03*
X177500D02*
D03*
X157500D02*
D03*
X147500D02*
D03*
X147500Y176500D02*
D03*
X157500D02*
D03*
X177500D02*
D03*
X167500Y83500D02*
D03*
X187500Y176500D02*
D03*
D80*
X499314Y220700D02*
D03*
X434914Y156300D02*
D03*
D81*
Y220700D02*
D03*
X499314Y156300D02*
D03*
D82*
X499864Y213500D02*
D03*
Y208500D02*
D03*
Y203500D02*
D03*
Y198500D02*
D03*
Y193500D02*
D03*
Y188500D02*
D03*
Y183500D02*
D03*
Y178500D02*
D03*
Y173500D02*
D03*
Y168500D02*
D03*
Y163500D02*
D03*
X434364D02*
D03*
Y168500D02*
D03*
Y173500D02*
D03*
Y178500D02*
D03*
Y183500D02*
D03*
Y188500D02*
D03*
Y193500D02*
D03*
Y198500D02*
D03*
Y203500D02*
D03*
Y208500D02*
D03*
Y213500D02*
D03*
D83*
X492114Y155750D02*
D03*
X487114D02*
D03*
X482114D02*
D03*
X477114D02*
D03*
X472114D02*
D03*
X467114D02*
D03*
X462114D02*
D03*
X457114D02*
D03*
X452114D02*
D03*
X447114D02*
D03*
X442114D02*
D03*
X447114Y221250D02*
D03*
X452114D02*
D03*
X457114D02*
D03*
X462114D02*
D03*
X467114D02*
D03*
X472114D02*
D03*
X477114D02*
D03*
X482114D02*
D03*
X487114D02*
D03*
X492114D02*
D03*
X442114D02*
D03*
D84*
X252500Y108500D02*
D03*
Y76500D02*
D03*
D85*
X441708Y82500D02*
D03*
Y102500D02*
D03*
D86*
X413500Y101500D02*
D03*
Y69500D02*
D03*
D87*
X35000Y255000D02*
D03*
Y45000D02*
D03*
X580000Y45000D02*
D03*
Y255000D02*
D03*
D88*
X311600Y347900D02*
D03*
D89*
X460000Y3000D02*
D03*
X350000D02*
D03*
X120000Y3000D02*
D03*
X270000D02*
D03*
D90*
X425000Y-7000D02*
D03*
Y13000D02*
D03*
X405000Y-7000D02*
D03*
Y13000D02*
D03*
X385000Y-7000D02*
D03*
X100000Y67500D02*
D03*
Y235000D02*
D03*
X235000Y-7000D02*
D03*
X155000D02*
D03*
X175000Y13000D02*
D03*
Y-7000D02*
D03*
X195000Y13000D02*
D03*
Y-7000D02*
D03*
X215000Y13000D02*
D03*
Y-7000D02*
D03*
X235000Y13000D02*
D03*
D91*
X385000Y13000D02*
D03*
X155000Y13000D02*
D03*
M02*
