G04 Layer_Color=8388736*
%FSLAX44Y44*%
%MOMM*%
G71*
G01*
G75*
%ADD58R,0.9000X1.2000*%
%ADD59R,2.6000X1.8500*%
%ADD60O,0.9000X2.2000*%
%ADD61O,2.2000X0.9000*%
%ADD62O,0.9000X2.0000*%
%ADD63O,3.2000X0.9000*%
%ADD64R,1.2000X2.7000*%
G04:AMPARAMS|DCode=65|XSize=1.2mm|YSize=2.7mm|CornerRadius=0mm|HoleSize=0mm|Usage=FLASHONLY|Rotation=0.000|XOffset=0mm|YOffset=0mm|HoleType=Round|Shape=Octagon|*
%AMOCTAGOND65*
4,1,8,-0.3000,1.3500,0.3000,1.3500,0.6000,1.0500,0.6000,-1.0500,0.3000,-1.3500,-0.3000,-1.3500,-0.6000,-1.0500,-0.6000,1.0500,-0.3000,1.3500,0.0*
%
%ADD65OCTAGOND65*%

%ADD66R,2.8000X1.0000*%
G04:AMPARAMS|DCode=67|XSize=2.7mm|YSize=1mm|CornerRadius=0mm|HoleSize=0mm|Usage=FLASHONLY|Rotation=0.000|XOffset=0mm|YOffset=0mm|HoleType=Round|Shape=Octagon|*
%AMOCTAGOND67*
4,1,8,1.3500,-0.2500,1.3500,0.2500,1.1000,0.5000,-1.1000,0.5000,-1.3500,0.2500,-1.3500,-0.2500,-1.1000,-0.5000,1.1000,-0.5000,1.3500,-0.2500,0.0*
%
%ADD67OCTAGOND67*%

%ADD68R,2.4000X2.4000*%
%ADD69R,1.6000X1.8500*%
%ADD70R,1.7000X1.5000*%
%ADD71R,1.3000X2.8000*%
%ADD72R,1.0500X1.0500*%
%ADD73C,0.4000*%
%ADD74O,0.4000X1.3000*%
%ADD75O,1.3000X0.4000*%
G04:AMPARAMS|DCode=76|XSize=0.4mm|YSize=1.3mm|CornerRadius=0mm|HoleSize=0mm|Usage=FLASHONLY|Rotation=225.000|XOffset=0mm|YOffset=0mm|HoleType=Round|Shape=Round|*
%AMOVALD76*
21,1,0.9000,0.4000,0.0000,0.0000,315.0*
1,1,0.4000,-0.3182,0.3182*
1,1,0.4000,0.3182,-0.3182*
%
%ADD76OVALD76*%

G04:AMPARAMS|DCode=77|XSize=0.4mm|YSize=1.3mm|CornerRadius=0mm|HoleSize=0mm|Usage=FLASHONLY|Rotation=315.000|XOffset=0mm|YOffset=0mm|HoleType=Round|Shape=Round|*
%AMOVALD77*
21,1,0.9000,0.4000,0.0000,0.0000,45.0*
1,1,0.4000,-0.3182,-0.3182*
1,1,0.4000,0.3182,0.3182*
%
%ADD77OVALD77*%

%ADD78R,0.8000X2.2000*%
%ADD79R,1.5000X1.7000*%
%ADD80R,1.0500X1.0500*%
%ADD81C,2.0000*%
%ADD82R,1.6000X1.6000*%
%ADD83C,1.6000*%
%ADD84C,2.6000*%
%ADD85C,1.9000*%
%ADD86R,1.9000X1.9000*%
%ADD87O,3.4000X5.4000*%
G36*
X383864Y-59498D02*
X394364Y-59499D01*
X394462Y-59508D01*
X394519Y-59525D01*
X394556Y-59537D01*
X394556Y-59537D01*
D01*
X394643Y-59583D01*
X394702Y-59632D01*
X394719Y-59646D01*
Y-59646D01*
X394719D01*
X394733Y-59662D01*
X394781Y-59722D01*
X394828Y-59809D01*
D01*
X394828Y-59809D01*
X394839Y-59846D01*
X394856Y-59903D01*
X394866Y-60001D01*
X394866Y-63001D01*
X394857Y-63099D01*
X394828Y-63193D01*
X394782Y-63280D01*
X394719Y-63356D01*
X394643Y-63419D01*
X394556Y-63465D01*
X394462Y-63494D01*
X394364Y-63503D01*
X388113Y-63504D01*
D01*
X388112Y-63504D01*
X388048Y-63498D01*
X388014Y-63494D01*
X388014Y-63494D01*
X388014D01*
X387991Y-63487D01*
X387920Y-63466D01*
X387833Y-63419D01*
X387833Y-63419D01*
X387833Y-63419D01*
X387791Y-63384D01*
X387757Y-63357D01*
X387757Y-63357D01*
X387757Y-63357D01*
X387405Y-63004D01*
X384618Y-63003D01*
X384573Y-62998D01*
X384525Y-62994D01*
X384523Y-62993D01*
X384520Y-62993D01*
X384477Y-62980D01*
X384431Y-62966D01*
X384428Y-62965D01*
X384426Y-62965D01*
X384387Y-62944D01*
X384343Y-62921D01*
X384341Y-62919D01*
X384339Y-62918D01*
X384304Y-62889D01*
X384267Y-62859D01*
X383512Y-62118D01*
X383510Y-62116D01*
X383508Y-62114D01*
X383478Y-62078D01*
X383448Y-62042D01*
X383447Y-62040D01*
X383446Y-62038D01*
X383424Y-61996D01*
X383401Y-61955D01*
X383401Y-61953D01*
X383399Y-61951D01*
X383385Y-61905D01*
X383372Y-61861D01*
X383372Y-61859D01*
X383371Y-61857D01*
X383366Y-61811D01*
X383361Y-61764D01*
X383361Y-61761D01*
X383361Y-61759D01*
X383362Y-60001D01*
X383365Y-59962D01*
X383371Y-59903D01*
X383371Y-59903D01*
Y-59903D01*
X383377Y-59883D01*
X383400Y-59809D01*
X383400Y-59809D01*
Y-59809D01*
X383412Y-59786D01*
X383446Y-59722D01*
X383446Y-59722D01*
X383446Y-59722D01*
X383475Y-59687D01*
X383509Y-59646D01*
X383509Y-59646D01*
X383509Y-59646D01*
X383550Y-59612D01*
X383585Y-59583D01*
X383585Y-59583D01*
X383585Y-59583D01*
X383649Y-59549D01*
X383672Y-59537D01*
X383672D01*
X383672Y-59537D01*
X383746Y-59514D01*
X383766Y-59508D01*
X383766D01*
X383766Y-59508D01*
X383825Y-59502D01*
X383864Y-59498D01*
X383864D01*
D01*
D01*
D02*
G37*
G36*
X319864Y-59497D02*
X330364Y-59498D01*
X330412Y-59502D01*
X330462Y-59507D01*
X330462Y-59507D01*
X330462D01*
X330511Y-59522D01*
X330556Y-59536D01*
X330556Y-59536D01*
X330556Y-59536D01*
X330615Y-59567D01*
X330643Y-59582D01*
X330643Y-59582D01*
X330643Y-59582D01*
X330689Y-59620D01*
X330719Y-59645D01*
X330719Y-59645D01*
X330719Y-59645D01*
X330744Y-59675D01*
X330782Y-59721D01*
X330782Y-59721D01*
X330782Y-59721D01*
X330797Y-59749D01*
X330828Y-59808D01*
X330828Y-59808D01*
X330828Y-59808D01*
X330842Y-59853D01*
X330857Y-59902D01*
Y-59902D01*
X330857Y-59902D01*
X330862Y-59952D01*
X330866Y-60000D01*
X330867Y-61759D01*
X330867Y-61761D01*
X330867Y-61764D01*
X330862Y-61812D01*
X330857Y-61857D01*
X330857Y-61859D01*
X330856Y-61862D01*
X330842Y-61907D01*
X330829Y-61951D01*
X330827Y-61954D01*
X330827Y-61956D01*
X330804Y-61998D01*
X330782Y-62038D01*
X330781Y-62040D01*
X330779Y-62042D01*
X330749Y-62078D01*
X330720Y-62114D01*
X330718Y-62116D01*
X330716Y-62118D01*
X329961Y-62858D01*
X329925Y-62887D01*
X329889Y-62917D01*
X329887Y-62918D01*
X329884Y-62920D01*
X329843Y-62941D01*
X329802Y-62963D01*
X329799Y-62964D01*
X329797Y-62965D01*
X329753Y-62978D01*
X329708Y-62992D01*
X329705Y-62992D01*
X329703Y-62993D01*
X329656Y-62997D01*
X329610Y-63001D01*
X326822Y-63003D01*
X326470Y-63355D01*
X326469Y-63355D01*
X326469Y-63355D01*
X326430Y-63388D01*
X326394Y-63418D01*
X326393Y-63418D01*
X326393Y-63418D01*
X326366Y-63432D01*
X326307Y-63464D01*
X326306Y-63464D01*
X326306Y-63464D01*
X326243Y-63484D01*
X326212Y-63493D01*
X326212D01*
X326212Y-63493D01*
X326168Y-63497D01*
X326114Y-63502D01*
X326114Y-63502D01*
X326114D01*
X319864Y-63502D01*
X319864D01*
D01*
X319766Y-63493D01*
X319672Y-63464D01*
X319625Y-63439D01*
X319585Y-63418D01*
X319509Y-63355D01*
Y-63355D01*
X319509D01*
X319446Y-63279D01*
X319424Y-63239D01*
X319400Y-63192D01*
X319371Y-63098D01*
X319361Y-63000D01*
D01*
Y-63000D01*
X319362Y-60000D01*
X319371Y-59902D01*
X319400Y-59808D01*
X319425Y-59761D01*
X319446Y-59721D01*
X319509Y-59645D01*
X319509D01*
Y-59645D01*
X319585Y-59582D01*
X319625Y-59561D01*
X319672Y-59536D01*
X319766Y-59507D01*
X319864Y-59497D01*
X319864D01*
D01*
D01*
D02*
G37*
G36*
X333613Y-62748D02*
X333652Y-62751D01*
X333711Y-62757D01*
X333711Y-62757D01*
X333711D01*
X333731Y-62763D01*
X333805Y-62786D01*
X333805Y-62786D01*
X333806D01*
X333828Y-62798D01*
X333892Y-62832D01*
X333892Y-62832D01*
X333892Y-62832D01*
X333927Y-62861D01*
X333968Y-62895D01*
X333968Y-62895D01*
X333968Y-62895D01*
X334002Y-62936D01*
X334031Y-62971D01*
X334031Y-62971D01*
X334031Y-62971D01*
X334065Y-63035D01*
X334077Y-63058D01*
Y-63058D01*
X334077Y-63058D01*
X334100Y-63132D01*
X334106Y-63152D01*
Y-63152D01*
X334106Y-63152D01*
X334112Y-63211D01*
X334115Y-63250D01*
Y-63250D01*
D01*
D01*
X334115Y-73750D01*
X334106Y-73848D01*
X334088Y-73905D01*
X334077Y-73942D01*
X334077Y-73942D01*
D01*
X334031Y-74029D01*
X333982Y-74088D01*
X333968Y-74105D01*
X333968D01*
Y-74105D01*
X333952Y-74119D01*
X333892Y-74167D01*
X333805Y-74214D01*
D01*
X333805Y-74214D01*
X333768Y-74225D01*
X333711Y-74243D01*
X333613Y-74252D01*
X330613Y-74253D01*
X330515Y-74243D01*
X330421Y-74214D01*
X330334Y-74168D01*
X330258Y-74105D01*
X330195Y-74029D01*
X330149Y-73942D01*
X330120Y-73848D01*
X330111Y-73750D01*
X330110Y-67499D01*
D01*
X330110Y-67498D01*
X330116Y-67435D01*
X330120Y-67401D01*
X330120Y-67400D01*
Y-67400D01*
X330127Y-67377D01*
X330148Y-67306D01*
X330195Y-67219D01*
X330195Y-67219D01*
X330195Y-67219D01*
X330229Y-67177D01*
X330257Y-67143D01*
X330257Y-67143D01*
X330257Y-67143D01*
X330610Y-66791D01*
X330611Y-64004D01*
X330616Y-63959D01*
X330620Y-63911D01*
X330620Y-63909D01*
X330621Y-63906D01*
X330634Y-63863D01*
X330648Y-63817D01*
X330649Y-63814D01*
X330649Y-63812D01*
X330670Y-63773D01*
X330693Y-63729D01*
X330695Y-63727D01*
X330696Y-63725D01*
X330725Y-63689D01*
X330755Y-63653D01*
X331497Y-62898D01*
X331498Y-62896D01*
X331500Y-62894D01*
X331536Y-62864D01*
X331572Y-62834D01*
X331574Y-62833D01*
X331576Y-62832D01*
X331617Y-62810D01*
X331659Y-62787D01*
X331661Y-62787D01*
X331663Y-62785D01*
X331709Y-62771D01*
X331753Y-62758D01*
X331755Y-62758D01*
X331757Y-62757D01*
X331803Y-62752D01*
X331850Y-62747D01*
X331853Y-62747D01*
X331855Y-62747D01*
X333613Y-62748D01*
D02*
G37*
G36*
X382426Y-62752D02*
X382471Y-62757D01*
X382473Y-62758D01*
X382476Y-62758D01*
X382521Y-62772D01*
X382565Y-62785D01*
X382567Y-62786D01*
X382570Y-62787D01*
X382612Y-62810D01*
X382652Y-62832D01*
X382654Y-62833D01*
X382656Y-62835D01*
X382692Y-62865D01*
X382728Y-62894D01*
X382730Y-62896D01*
X382732Y-62898D01*
X383472Y-63653D01*
X383501Y-63689D01*
X383531Y-63725D01*
X383532Y-63727D01*
X383534Y-63730D01*
X383555Y-63771D01*
X383577Y-63812D01*
X383578Y-63815D01*
X383579Y-63817D01*
X383592Y-63861D01*
X383606Y-63906D01*
X383606Y-63909D01*
X383607Y-63911D01*
X383611Y-63958D01*
X383615Y-64004D01*
X383617Y-66792D01*
X383969Y-67144D01*
X383969Y-67144D01*
X383969Y-67145D01*
X384002Y-67184D01*
X384032Y-67221D01*
X384032Y-67221D01*
X384032Y-67221D01*
X384046Y-67248D01*
X384078Y-67307D01*
X384078Y-67307D01*
X384078Y-67308D01*
X384098Y-67371D01*
X384107Y-67401D01*
Y-67402D01*
X384107Y-67402D01*
X384111Y-67446D01*
X384117Y-67499D01*
X384117Y-67500D01*
Y-67500D01*
X384117Y-73750D01*
D01*
Y-73750D01*
X384107Y-73848D01*
X384078Y-73942D01*
X384053Y-73989D01*
X384032Y-74029D01*
X383969Y-74105D01*
X383969D01*
Y-74105D01*
X383893Y-74168D01*
X383853Y-74189D01*
X383806Y-74214D01*
X383712Y-74243D01*
X383614Y-74253D01*
X383614D01*
D01*
X380614Y-74252D01*
X380516Y-74243D01*
X380422Y-74214D01*
X380375Y-74189D01*
X380335Y-74168D01*
X380259Y-74105D01*
Y-74105D01*
X380259D01*
X380196Y-74029D01*
X380175Y-73989D01*
X380150Y-73942D01*
X380121Y-73848D01*
X380112Y-73750D01*
Y-73750D01*
D01*
D01*
X380112Y-63250D01*
X380116Y-63202D01*
X380121Y-63152D01*
X380121Y-63152D01*
Y-63152D01*
X380136Y-63103D01*
X380150Y-63058D01*
X380150Y-63058D01*
X380150Y-63058D01*
X380181Y-62999D01*
X380196Y-62971D01*
X380196Y-62971D01*
X380196Y-62971D01*
X380234Y-62925D01*
X380259Y-62895D01*
X380259Y-62895D01*
X380259Y-62895D01*
X380289Y-62870D01*
X380335Y-62832D01*
X380335Y-62832D01*
X380335Y-62832D01*
X380363Y-62817D01*
X380422Y-62786D01*
X380422Y-62786D01*
X380422Y-62786D01*
X380467Y-62772D01*
X380516Y-62757D01*
X380516D01*
X380516Y-62757D01*
X380566Y-62752D01*
X380614Y-62748D01*
X382373Y-62747D01*
X382375Y-62747D01*
X382378Y-62747D01*
X382426Y-62752D01*
D02*
G37*
G36*
X326168Y-9503D02*
X326212Y-9507D01*
X326212Y-9507D01*
X326212D01*
X326243Y-9516D01*
X326306Y-9536D01*
X326306Y-9536D01*
X326307Y-9536D01*
X326366Y-9568D01*
X326393Y-9582D01*
X326393Y-9582D01*
X326394Y-9582D01*
X326430Y-9612D01*
X326469Y-9645D01*
X326469Y-9645D01*
X326470Y-9645D01*
X326822Y-9997D01*
X329610Y-9999D01*
X329656Y-10003D01*
X329703Y-10007D01*
X329705Y-10008D01*
X329708Y-10008D01*
X329753Y-10022D01*
X329797Y-10035D01*
X329799Y-10036D01*
X329802Y-10037D01*
X329843Y-10059D01*
X329884Y-10080D01*
X329887Y-10082D01*
X329889Y-10083D01*
X329925Y-10113D01*
X329961Y-10142D01*
X330716Y-10882D01*
X330718Y-10884D01*
X330720Y-10886D01*
X330749Y-10922D01*
X330779Y-10957D01*
X330781Y-10960D01*
X330782Y-10962D01*
X330804Y-11002D01*
X330827Y-11044D01*
X330827Y-11046D01*
X330829Y-11049D01*
X330842Y-11093D01*
X330856Y-11138D01*
X330857Y-11140D01*
X330857Y-11143D01*
X330862Y-11188D01*
X330867Y-11236D01*
X330867Y-11238D01*
X330867Y-11241D01*
X330866Y-13000D01*
X330862Y-13048D01*
X330857Y-13098D01*
X330857Y-13098D01*
Y-13098D01*
X330842Y-13147D01*
X330828Y-13192D01*
X330828Y-13192D01*
X330828Y-13192D01*
X330797Y-13251D01*
X330782Y-13279D01*
X330782Y-13279D01*
X330782Y-13279D01*
X330744Y-13325D01*
X330719Y-13355D01*
X330719Y-13355D01*
X330719Y-13355D01*
X330689Y-13380D01*
X330643Y-13418D01*
X330643Y-13418D01*
X330643Y-13418D01*
X330615Y-13433D01*
X330556Y-13464D01*
X330556Y-13464D01*
X330556Y-13464D01*
X330511Y-13478D01*
X330462Y-13493D01*
X330462D01*
X330462Y-13493D01*
X330412Y-13498D01*
X330364Y-13502D01*
X319864Y-13502D01*
D01*
D01*
X319864D01*
X319766Y-13493D01*
X319672Y-13464D01*
X319625Y-13439D01*
X319585Y-13418D01*
X319509Y-13355D01*
Y-13355D01*
X319509D01*
X319446Y-13279D01*
X319425Y-13239D01*
X319400Y-13192D01*
X319371Y-13098D01*
X319362Y-13000D01*
X319361Y-10000D01*
Y-10000D01*
D01*
X319371Y-9902D01*
X319400Y-9808D01*
X319424Y-9761D01*
X319446Y-9721D01*
X319509Y-9645D01*
X319509D01*
Y-9645D01*
X319585Y-9582D01*
X319625Y-9560D01*
X319672Y-9536D01*
X319766Y-9507D01*
X319864Y-9497D01*
D01*
X319864D01*
X326114Y-9497D01*
X326114D01*
X326114Y-9497D01*
X326168Y-9503D01*
D02*
G37*
G36*
X383712Y1243D02*
X383806Y1214D01*
X383853Y1190D01*
X383893Y1168D01*
X383969Y1105D01*
Y1105D01*
X383969D01*
X384032Y1029D01*
X384053Y989D01*
X384078Y942D01*
X384107Y848D01*
X384117Y750D01*
Y750D01*
D01*
X384117Y-5500D01*
Y-5500D01*
X384117Y-5500D01*
X384111Y-5554D01*
X384107Y-5598D01*
X384107Y-5598D01*
Y-5598D01*
X384098Y-5629D01*
X384078Y-5692D01*
X384078Y-5692D01*
X384078Y-5693D01*
X384046Y-5752D01*
X384032Y-5779D01*
X384032Y-5779D01*
X384032Y-5780D01*
X384002Y-5816D01*
X383969Y-5855D01*
X383969Y-5856D01*
X383969Y-5856D01*
X383617Y-6208D01*
X383615Y-8996D01*
X383611Y-9042D01*
X383607Y-9089D01*
X383606Y-9091D01*
X383606Y-9094D01*
X383592Y-9139D01*
X383579Y-9183D01*
X383578Y-9186D01*
X383577Y-9188D01*
X383555Y-9229D01*
X383534Y-9270D01*
X383532Y-9273D01*
X383531Y-9275D01*
X383501Y-9311D01*
X383472Y-9347D01*
X382732Y-10102D01*
X382730Y-10104D01*
X382728Y-10106D01*
X382692Y-10135D01*
X382656Y-10165D01*
X382654Y-10167D01*
X382652Y-10168D01*
X382612Y-10190D01*
X382570Y-10213D01*
X382567Y-10213D01*
X382565Y-10215D01*
X382521Y-10228D01*
X382476Y-10242D01*
X382473Y-10243D01*
X382471Y-10243D01*
X382426Y-10248D01*
X382378Y-10253D01*
X382375Y-10253D01*
X382373Y-10253D01*
X380614Y-10252D01*
X380566Y-10248D01*
X380516Y-10243D01*
X380516Y-10243D01*
X380516D01*
X380467Y-10228D01*
X380422Y-10214D01*
X380422Y-10214D01*
X380422Y-10214D01*
X380363Y-10183D01*
X380335Y-10168D01*
X380335Y-10168D01*
X380335Y-10168D01*
X380289Y-10130D01*
X380259Y-10105D01*
X380259Y-10105D01*
X380259Y-10105D01*
X380234Y-10075D01*
X380196Y-10029D01*
X380196Y-10029D01*
X380196Y-10029D01*
X380181Y-10000D01*
X380150Y-9942D01*
X380150Y-9942D01*
X380150Y-9942D01*
X380136Y-9897D01*
X380121Y-9848D01*
Y-9848D01*
X380121Y-9848D01*
X380116Y-9798D01*
X380112Y-9750D01*
X380112Y750D01*
D01*
D01*
Y750D01*
X380121Y848D01*
X380150Y942D01*
X380175Y989D01*
X380196Y1029D01*
X380259Y1105D01*
X380259D01*
Y1105D01*
X380335Y1168D01*
X380375Y1189D01*
X380422Y1214D01*
X380516Y1243D01*
X380614Y1252D01*
X383614Y1252D01*
D01*
X383614D01*
X383712Y1243D01*
D02*
G37*
G36*
X388113Y-9496D02*
D01*
X394364Y-9496D01*
X394462Y-9506D01*
X394556Y-9535D01*
X394643Y-9581D01*
X394719Y-9644D01*
X394782Y-9720D01*
X394828Y-9807D01*
X394857Y-9901D01*
X394866Y-9999D01*
X394866Y-12999D01*
X394856Y-13097D01*
X394839Y-13154D01*
X394828Y-13191D01*
X394828Y-13191D01*
D01*
X394781Y-13278D01*
X394733Y-13338D01*
X394719Y-13354D01*
X394719D01*
Y-13354D01*
X394702Y-13368D01*
X394643Y-13417D01*
X394556Y-13463D01*
D01*
X394556Y-13463D01*
X394519Y-13474D01*
X394462Y-13492D01*
X394364Y-13501D01*
X383864Y-13501D01*
D01*
D01*
X383864D01*
X383825Y-13498D01*
X383766Y-13492D01*
X383766Y-13492D01*
X383766D01*
X383746Y-13486D01*
X383672Y-13463D01*
X383672Y-13463D01*
X383672D01*
X383649Y-13451D01*
X383585Y-13417D01*
X383585Y-13417D01*
X383585Y-13417D01*
X383550Y-13388D01*
X383509Y-13355D01*
X383509Y-13354D01*
X383509Y-13354D01*
X383475Y-13313D01*
X383446Y-13278D01*
X383446Y-13278D01*
X383446Y-13278D01*
X383412Y-13214D01*
X383400Y-13191D01*
Y-13191D01*
X383400Y-13191D01*
X383377Y-13117D01*
X383371Y-13097D01*
Y-13097D01*
X383371Y-13097D01*
X383365Y-13038D01*
X383362Y-12999D01*
X383361Y-11241D01*
X383361Y-11239D01*
X383361Y-11236D01*
X383366Y-11189D01*
X383371Y-11143D01*
X383372Y-11141D01*
X383372Y-11138D01*
X383385Y-11095D01*
X383399Y-11049D01*
X383401Y-11047D01*
X383401Y-11044D01*
X383424Y-11003D01*
X383446Y-10962D01*
X383447Y-10960D01*
X383448Y-10958D01*
X383478Y-10922D01*
X383508Y-10886D01*
X383510Y-10884D01*
X383512Y-10883D01*
X384267Y-10141D01*
X384304Y-10111D01*
X384339Y-10082D01*
X384341Y-10081D01*
X384343Y-10079D01*
X384387Y-10056D01*
X384426Y-10035D01*
X384428Y-10035D01*
X384431Y-10034D01*
X384477Y-10020D01*
X384520Y-10007D01*
X384523Y-10007D01*
X384525Y-10006D01*
X384573Y-10002D01*
X384618Y-9997D01*
X387405Y-9996D01*
X387757Y-9643D01*
X387757Y-9643D01*
X387757Y-9643D01*
X387791Y-9615D01*
X387833Y-9581D01*
X387833Y-9581D01*
X387833Y-9581D01*
X387920Y-9534D01*
X387991Y-9513D01*
X388014Y-9506D01*
X388014D01*
X388014Y-9506D01*
X388048Y-9502D01*
X388112Y-9496D01*
X388113Y-9496D01*
D02*
G37*
G36*
X333613Y1252D02*
X333711Y1243D01*
X333768Y1225D01*
X333805Y1214D01*
X333805Y1214D01*
D01*
X333892Y1168D01*
X333952Y1119D01*
X333968Y1105D01*
Y1105D01*
X333968D01*
X333982Y1088D01*
X334031Y1029D01*
X334077Y942D01*
D01*
X334077Y942D01*
X334088Y905D01*
X334106Y848D01*
X334115Y750D01*
X334115Y-9750D01*
D01*
D01*
Y-9750D01*
X334112Y-9789D01*
X334106Y-9848D01*
X334106Y-9848D01*
Y-9848D01*
X334100Y-9868D01*
X334077Y-9942D01*
X334077Y-9942D01*
Y-9942D01*
X334065Y-9965D01*
X334031Y-10029D01*
X334031Y-10029D01*
X334031Y-10029D01*
X334002Y-10064D01*
X333968Y-10105D01*
X333968Y-10105D01*
X333968Y-10105D01*
X333927Y-10139D01*
X333892Y-10168D01*
X333892Y-10168D01*
X333892Y-10168D01*
X333828Y-10202D01*
X333806Y-10214D01*
X333805D01*
X333805Y-10214D01*
X333731Y-10237D01*
X333711Y-10243D01*
X333711D01*
X333711Y-10243D01*
X333652Y-10249D01*
X333613Y-10252D01*
X331855Y-10253D01*
X331853Y-10252D01*
X331850Y-10253D01*
X331803Y-10248D01*
X331757Y-10243D01*
X331755Y-10242D01*
X331753Y-10242D01*
X331709Y-10229D01*
X331663Y-10215D01*
X331661Y-10213D01*
X331659Y-10213D01*
X331617Y-10190D01*
X331576Y-10168D01*
X331574Y-10167D01*
X331572Y-10165D01*
X331536Y-10136D01*
X331500Y-10106D01*
X331498Y-10104D01*
X331497Y-10102D01*
X330755Y-9347D01*
X330725Y-9310D01*
X330696Y-9275D01*
X330695Y-9273D01*
X330693Y-9271D01*
X330670Y-9227D01*
X330649Y-9188D01*
X330649Y-9186D01*
X330648Y-9183D01*
X330634Y-9137D01*
X330621Y-9093D01*
X330620Y-9091D01*
X330620Y-9089D01*
X330616Y-9041D01*
X330611Y-8996D01*
X330610Y-6209D01*
X330257Y-5857D01*
X330257Y-5857D01*
X330257Y-5857D01*
X330229Y-5823D01*
X330195Y-5781D01*
X330195Y-5781D01*
X330195Y-5781D01*
X330148Y-5694D01*
X330127Y-5623D01*
X330120Y-5600D01*
Y-5599D01*
X330120Y-5599D01*
X330116Y-5566D01*
X330110Y-5502D01*
X330110Y-5501D01*
D01*
X330111Y750D01*
X330120Y848D01*
X330149Y942D01*
X330195Y1029D01*
X330258Y1105D01*
X330334Y1168D01*
X330421Y1214D01*
X330515Y1243D01*
X330613Y1252D01*
X333613Y1252D01*
D02*
G37*
D58*
X452500Y-114500D02*
D03*
X443000Y-90500D02*
D03*
X462000D02*
D03*
X258919Y-147000D02*
D03*
X277919D02*
D03*
X268419Y-123000D02*
D03*
X223419D02*
D03*
X232919Y-147000D02*
D03*
X213919D02*
D03*
X168919D02*
D03*
X187919D02*
D03*
X178419Y-123000D02*
D03*
D59*
X145000Y-150000D02*
D03*
Y-116000D02*
D03*
D60*
X147100Y71500D02*
D03*
X159800D02*
D03*
X172500D02*
D03*
X185200D02*
D03*
X197900D02*
D03*
X185200Y-11500D02*
D03*
X172500D02*
D03*
X159800D02*
D03*
X147100D02*
D03*
D61*
X214000Y55400D02*
D03*
Y42700D02*
D03*
Y30000D02*
D03*
Y17300D02*
D03*
Y4600D02*
D03*
X131000D02*
D03*
Y17300D02*
D03*
Y42700D02*
D03*
Y55400D02*
D03*
D62*
X197900Y-11500D02*
D03*
D63*
X136000Y30000D02*
D03*
D64*
X407114Y137500D02*
D03*
Y87500D02*
D03*
X387114Y137500D02*
D03*
Y87500D02*
D03*
X367114Y137500D02*
D03*
Y87500D02*
D03*
X347114Y137500D02*
D03*
D65*
Y87500D02*
D03*
D66*
X293419Y132700D02*
D03*
Y120000D02*
D03*
Y107300D02*
D03*
X252419Y120000D02*
D03*
Y107300D02*
D03*
D67*
Y132700D02*
D03*
D68*
X376500Y-187050D02*
D03*
X418500D02*
D03*
Y-133050D02*
D03*
X376500Y-132950D02*
D03*
D69*
X310000Y-131000D02*
D03*
Y-161000D02*
D03*
D70*
X332000Y-143500D02*
D03*
Y-162500D02*
D03*
D71*
X-60000Y-45000D02*
D03*
X-25000D02*
D03*
Y-105000D02*
D03*
X-60000D02*
D03*
D72*
X109000Y-141500D02*
D03*
X95000D02*
D03*
X-25501Y-77501D02*
D03*
X-39501D02*
D03*
X346000Y-182000D02*
D03*
X332000D02*
D03*
X379000Y-99000D02*
D03*
X393000D02*
D03*
X324500Y-100000D02*
D03*
X310500D02*
D03*
X310500Y-112500D02*
D03*
X324500D02*
D03*
X-25500Y-130000D02*
D03*
X-39500D02*
D03*
X267919Y-107500D02*
D03*
X253919D02*
D03*
X408000Y-212500D02*
D03*
X422000D02*
D03*
X407000Y-112500D02*
D03*
X393000D02*
D03*
X487000Y-117500D02*
D03*
X473000D02*
D03*
X445500Y-70000D02*
D03*
X459500D02*
D03*
X223919Y-107500D02*
D03*
X237919D02*
D03*
X179000Y-108000D02*
D03*
X193000D02*
D03*
X103000Y43000D02*
D03*
X89000D02*
D03*
D73*
X394364Y-11500D02*
D03*
X382114Y750D02*
D03*
Y-73750D02*
D03*
X394364Y-61500D02*
D03*
X319864D02*
D03*
X332114Y-73750D02*
D03*
X319864Y-11500D02*
D03*
X332114Y750D02*
D03*
D74*
X377114Y-3750D02*
D03*
X372114D02*
D03*
X367114D02*
D03*
X362114D02*
D03*
X357114D02*
D03*
X352114D02*
D03*
X347114D02*
D03*
X342114D02*
D03*
X337114D02*
D03*
Y-69250D02*
D03*
X342114D02*
D03*
X347114D02*
D03*
X352114D02*
D03*
X357114D02*
D03*
X362114D02*
D03*
X367114D02*
D03*
X372114D02*
D03*
X377114D02*
D03*
D75*
X324364Y-16500D02*
D03*
Y-21500D02*
D03*
Y-26500D02*
D03*
Y-31500D02*
D03*
Y-36500D02*
D03*
Y-41500D02*
D03*
Y-46500D02*
D03*
Y-51500D02*
D03*
Y-56500D02*
D03*
X389864D02*
D03*
Y-51500D02*
D03*
Y-46500D02*
D03*
Y-41500D02*
D03*
Y-36500D02*
D03*
Y-31500D02*
D03*
Y-26500D02*
D03*
Y-21500D02*
D03*
Y-16500D02*
D03*
D76*
X324914Y-4300D02*
D03*
X389314Y-68700D02*
D03*
D77*
X324914D02*
D03*
X389314Y-4300D02*
D03*
D78*
X77500Y-48500D02*
D03*
X57500Y-141500D02*
D03*
X67500Y-48500D02*
D03*
X47500D02*
D03*
X37500D02*
D03*
X37500Y-141500D02*
D03*
X47500D02*
D03*
X67500D02*
D03*
X77500D02*
D03*
X57500Y-48500D02*
D03*
D79*
X104500Y-187500D02*
D03*
X85500D02*
D03*
D80*
X-12500Y-184500D02*
D03*
Y-170500D02*
D03*
X295000Y84500D02*
D03*
Y70500D02*
D03*
X270000Y-87000D02*
D03*
Y-73000D02*
D03*
X312500Y84500D02*
D03*
Y70500D02*
D03*
X472500Y-49500D02*
D03*
Y-35500D02*
D03*
X-12500Y43000D02*
D03*
Y57000D02*
D03*
X23500D02*
D03*
Y43000D02*
D03*
X50000Y57000D02*
D03*
Y43000D02*
D03*
X283419Y-177000D02*
D03*
Y-163000D02*
D03*
X238419Y-177000D02*
D03*
Y-163000D02*
D03*
X193419Y-177000D02*
D03*
Y-163000D02*
D03*
X455000Y-49500D02*
D03*
Y-35500D02*
D03*
X-12500Y70300D02*
D03*
Y84300D02*
D03*
X23500Y70500D02*
D03*
Y84500D02*
D03*
X50000Y70500D02*
D03*
Y84500D02*
D03*
X258419Y-163000D02*
D03*
Y-177000D02*
D03*
X270919Y-163000D02*
D03*
Y-177000D02*
D03*
X213419Y-163000D02*
D03*
Y-177000D02*
D03*
X225919Y-163000D02*
D03*
Y-177000D02*
D03*
X168419Y-163000D02*
D03*
Y-177000D02*
D03*
X180919Y-163000D02*
D03*
Y-177000D02*
D03*
X265000Y84500D02*
D03*
Y70500D02*
D03*
X250000Y84500D02*
D03*
Y70500D02*
D03*
X280000Y84500D02*
D03*
Y70500D02*
D03*
X351000Y-157000D02*
D03*
Y-143000D02*
D03*
X244000Y-87000D02*
D03*
Y-73000D02*
D03*
X257000Y-87000D02*
D03*
Y-73000D02*
D03*
X218000Y-87000D02*
D03*
Y-73000D02*
D03*
X205000Y-87000D02*
D03*
Y-73000D02*
D03*
X231000Y-87000D02*
D03*
Y-73000D02*
D03*
X192000Y-87000D02*
D03*
Y-73000D02*
D03*
X-2500Y-104500D02*
D03*
Y-90500D02*
D03*
X10000Y-90500D02*
D03*
Y-104500D02*
D03*
X490000Y-35500D02*
D03*
Y-49500D02*
D03*
X425000Y-88000D02*
D03*
Y-102000D02*
D03*
X477500Y-90500D02*
D03*
Y-104500D02*
D03*
X289000Y-75000D02*
D03*
Y-89000D02*
D03*
X5000Y-184500D02*
D03*
Y-170500D02*
D03*
X47500Y-23500D02*
D03*
Y-9500D02*
D03*
D81*
X406000Y-244000D02*
D03*
X0Y0D02*
D03*
D82*
X45000Y-215000D02*
D03*
X285000D02*
D03*
D83*
X125000Y-235000D02*
D03*
X145000Y-215000D02*
D03*
Y-235000D02*
D03*
X45000D02*
D03*
X65000Y-215000D02*
D03*
Y-235000D02*
D03*
X85000Y-215000D02*
D03*
Y-235000D02*
D03*
X105000Y-215000D02*
D03*
Y-235000D02*
D03*
X125000Y-215000D02*
D03*
X285000Y-235000D02*
D03*
X305000Y-215000D02*
D03*
Y-235000D02*
D03*
X325000Y-215000D02*
D03*
Y-235000D02*
D03*
X-12500Y-147500D02*
D03*
X89000Y65000D02*
D03*
D84*
X10000Y-225000D02*
D03*
X180000D02*
D03*
X250000D02*
D03*
X360000D02*
D03*
D85*
X-1600Y122900D02*
D03*
Y148300D02*
D03*
X150800Y122900D02*
D03*
X176200Y148300D02*
D03*
Y122900D02*
D03*
X201600D02*
D03*
X125400D02*
D03*
X100000D02*
D03*
X125400Y148300D02*
D03*
X150800D02*
D03*
X100000D02*
D03*
X23800D02*
D03*
X74600D02*
D03*
X49200D02*
D03*
X23800Y122900D02*
D03*
X49200D02*
D03*
X74600D02*
D03*
D86*
X201600Y148300D02*
D03*
D87*
X-75000Y30000D02*
D03*
X470000D02*
D03*
Y-180000D02*
D03*
X-75000Y-180000D02*
D03*
M02*
