G04 Layer_Physical_Order=1*
G04 Layer_Color=255*
%FSLAX44Y44*%
%MOMM*%
G71*
G01*
G75*
%ADD10R,0.7000X1.0000*%
%ADD11R,2.4000X1.6500*%
%ADD12O,0.7000X2.0000*%
%ADD13O,2.0000X0.7000*%
%ADD14O,0.7000X1.8000*%
%ADD15O,3.0000X0.7000*%
%ADD16R,1.0000X2.5000*%
G04:AMPARAMS|DCode=17|XSize=1mm|YSize=2.5mm|CornerRadius=0mm|HoleSize=0mm|Usage=FLASHONLY|Rotation=0.000|XOffset=0mm|YOffset=0mm|HoleType=Round|Shape=Octagon|*
%AMOCTAGOND17*
4,1,8,-0.2500,1.2500,0.2500,1.2500,0.5000,1.0000,0.5000,-1.0000,0.2500,-1.2500,-0.2500,-1.2500,-0.5000,-1.0000,-0.5000,1.0000,-0.2500,1.2500,0.0*
%
%ADD17OCTAGOND17*%

%ADD18R,2.6000X0.8000*%
G04:AMPARAMS|DCode=19|XSize=2.5mm|YSize=0.8mm|CornerRadius=0mm|HoleSize=0mm|Usage=FLASHONLY|Rotation=0.000|XOffset=0mm|YOffset=0mm|HoleType=Round|Shape=Octagon|*
%AMOCTAGOND19*
4,1,8,1.2500,-0.2000,1.2500,0.2000,1.0500,0.4000,-1.0500,0.4000,-1.2500,0.2000,-1.2500,-0.2000,-1.0500,-0.4000,1.0500,-0.4000,1.2500,-0.2000,0.0*
%
%ADD19OCTAGOND19*%

%ADD20R,2.2000X2.2000*%
%ADD21R,1.4000X1.6500*%
%ADD22R,1.5000X1.3000*%
%ADD23R,1.1000X2.6000*%
%ADD24R,0.8500X0.8500*%
%ADD25C,0.3000*%
%ADD26O,0.3000X1.2000*%
%ADD27O,1.2000X0.3000*%
G04:AMPARAMS|DCode=28|XSize=0.3mm|YSize=1.2mm|CornerRadius=0mm|HoleSize=0mm|Usage=FLASHONLY|Rotation=225.000|XOffset=0mm|YOffset=0mm|HoleType=Round|Shape=Round|*
%AMOVALD28*
21,1,0.9000,0.3000,0.0000,0.0000,315.0*
1,1,0.3000,-0.3182,0.3182*
1,1,0.3000,0.3182,-0.3182*
%
%ADD28OVALD28*%

G04:AMPARAMS|DCode=29|XSize=0.3mm|YSize=1.2mm|CornerRadius=0mm|HoleSize=0mm|Usage=FLASHONLY|Rotation=315.000|XOffset=0mm|YOffset=0mm|HoleType=Round|Shape=Round|*
%AMOVALD29*
21,1,0.9000,0.3000,0.0000,0.0000,45.0*
1,1,0.3000,-0.3182,-0.3182*
1,1,0.3000,0.3182,0.3182*
%
%ADD29OVALD29*%

%ADD30R,0.6000X2.0000*%
%ADD31R,1.3000X1.5000*%
%ADD32R,0.8500X0.8500*%
%ADD33C,1.0000*%
%ADD34C,0.3000*%
%ADD35C,0.2000*%
%ADD36C,0.5000*%
%ADD37C,0.4000*%
%ADD38R,1.4000X1.4000*%
%ADD39C,1.4000*%
%ADD40C,2.2000*%
%ADD41C,1.7000*%
%ADD42R,1.7000X1.7000*%
%ADD43C,0.7000*%
G36*
X383113Y-64004D02*
X383114Y-67001D01*
X383614Y-67500D01*
X383614Y-73750D01*
X380614Y-73750D01*
X380614Y-63250D01*
X382373Y-63250D01*
X383113Y-64004D01*
D02*
G37*
G36*
X394364Y-60001D02*
X394364Y-63001D01*
X388112Y-63001D01*
X387613Y-62502D01*
X384619Y-62501D01*
X383864Y-61759D01*
X383864Y-60001D01*
X394364Y-60001D01*
D02*
G37*
G36*
X333613Y-63250D02*
X333613Y-73750D01*
X330613Y-73750D01*
X330612Y-67498D01*
X331112Y-66999D01*
X331114Y-64005D01*
X331855Y-63250D01*
X333613Y-63250D01*
D02*
G37*
G36*
X159000Y-141000D02*
X159000Y-198000D01*
X131000Y-198000D01*
X131000Y-141000D01*
X159000Y-141000D01*
D02*
G37*
G36*
X165000Y-132000D02*
X87500D01*
Y-70000D01*
X165000D01*
Y-132000D01*
D02*
G37*
G36*
X333613Y750D02*
X333613Y-9750D01*
X331855Y-9750D01*
X331114Y-8995D01*
X331112Y-6001D01*
X330612Y-5501D01*
X330613Y750D01*
X333613Y750D01*
D02*
G37*
G36*
X383614Y-5500D02*
X383114Y-5999D01*
X383113Y-8996D01*
X382373Y-9750D01*
X380614Y-9750D01*
X380614Y750D01*
X383614Y750D01*
X383614Y-5500D01*
D02*
G37*
G36*
X394364Y-9999D02*
X394364Y-12999D01*
X383864Y-12999D01*
X383864Y-11241D01*
X384619Y-10500D01*
X387613Y-10498D01*
X388112Y-9998D01*
X394364Y-9999D01*
D02*
G37*
G36*
X330364Y-60000D02*
X330364Y-61759D01*
X329609Y-62499D01*
X326613Y-62500D01*
X326114Y-63000D01*
X319864Y-63000D01*
X319864Y-60000D01*
X330364Y-60000D01*
D02*
G37*
G36*
X326114Y-10000D02*
X326613Y-10500D01*
X329609Y-10501D01*
X330364Y-11241D01*
X330364Y-13000D01*
X319864Y-13000D01*
X319864Y-10000D01*
X326114Y-10000D01*
D02*
G37*
%LPC*%
G36*
X142000Y-119000D02*
X130000D01*
Y-127250D01*
X142000D01*
Y-119000D01*
D02*
G37*
G36*
X160000Y-104750D02*
X148000D01*
Y-113000D01*
X160000D01*
Y-104750D01*
D02*
G37*
G36*
X142000D02*
X130000D01*
Y-113000D01*
X142000D01*
Y-104750D01*
D02*
G37*
G36*
X160000Y-119000D02*
X148000D01*
Y-127250D01*
X160000D01*
Y-119000D01*
D02*
G37*
%LPD*%
D10*
X452500Y-114500D02*
D03*
X443000Y-90500D02*
D03*
X462000D02*
D03*
X258919Y-147000D02*
D03*
X277919D02*
D03*
X268419Y-123000D02*
D03*
X223419D02*
D03*
X232919Y-147000D02*
D03*
X213919D02*
D03*
X168919D02*
D03*
X187919D02*
D03*
X178419Y-123000D02*
D03*
D11*
X145000Y-150000D02*
D03*
Y-116000D02*
D03*
D12*
X147100Y71500D02*
D03*
X159800D02*
D03*
X172500D02*
D03*
X185200D02*
D03*
X197900D02*
D03*
X185200Y-11500D02*
D03*
X172500D02*
D03*
X159800D02*
D03*
X147100D02*
D03*
D13*
X214000Y55400D02*
D03*
Y42700D02*
D03*
Y30000D02*
D03*
Y17300D02*
D03*
Y4600D02*
D03*
X131000D02*
D03*
Y17300D02*
D03*
Y42700D02*
D03*
Y55400D02*
D03*
D14*
X197900Y-11500D02*
D03*
D15*
X136000Y30000D02*
D03*
D16*
X407114Y137500D02*
D03*
Y87500D02*
D03*
X387114Y137500D02*
D03*
Y87500D02*
D03*
X367114Y137500D02*
D03*
Y87500D02*
D03*
X347114Y137500D02*
D03*
D17*
Y87500D02*
D03*
D18*
X293419Y132700D02*
D03*
Y120000D02*
D03*
Y107300D02*
D03*
X252419Y120000D02*
D03*
Y107300D02*
D03*
D19*
Y132700D02*
D03*
D20*
X376500Y-187050D02*
D03*
X418500D02*
D03*
Y-133050D02*
D03*
X376500Y-132950D02*
D03*
D21*
X310000Y-131000D02*
D03*
Y-161000D02*
D03*
D22*
X332000Y-143500D02*
D03*
Y-162500D02*
D03*
D23*
X-60000Y-45000D02*
D03*
X-25000D02*
D03*
Y-105000D02*
D03*
X-60000D02*
D03*
D24*
X109000Y-141500D02*
D03*
X95000D02*
D03*
X-25501Y-77501D02*
D03*
X-39501D02*
D03*
X346000Y-182000D02*
D03*
X332000D02*
D03*
X379000Y-99000D02*
D03*
X393000D02*
D03*
X324500Y-100000D02*
D03*
X310500D02*
D03*
X310500Y-112500D02*
D03*
X324500D02*
D03*
X-25500Y-130000D02*
D03*
X-39500D02*
D03*
X267919Y-107500D02*
D03*
X253919D02*
D03*
X408000Y-212500D02*
D03*
X422000D02*
D03*
X407000Y-112500D02*
D03*
X393000D02*
D03*
X487000Y-117500D02*
D03*
X473000D02*
D03*
X445500Y-70000D02*
D03*
X459500D02*
D03*
X223919Y-107500D02*
D03*
X237919D02*
D03*
X179000Y-108000D02*
D03*
X193000D02*
D03*
X103000Y43000D02*
D03*
X89000D02*
D03*
D25*
X394364Y-11500D02*
D03*
X382114Y750D02*
D03*
Y-73750D02*
D03*
X394364Y-61500D02*
D03*
X319864D02*
D03*
X332114Y-73750D02*
D03*
X319864Y-11500D02*
D03*
X332114Y750D02*
D03*
D26*
X377114Y-3750D02*
D03*
X372114D02*
D03*
X367114D02*
D03*
X362114D02*
D03*
X357114D02*
D03*
X352114D02*
D03*
X347114D02*
D03*
X342114D02*
D03*
X337114D02*
D03*
Y-69250D02*
D03*
X342114D02*
D03*
X347114D02*
D03*
X352114D02*
D03*
X357114D02*
D03*
X362114D02*
D03*
X367114D02*
D03*
X372114D02*
D03*
X377114D02*
D03*
D27*
X324364Y-16500D02*
D03*
Y-21500D02*
D03*
Y-26500D02*
D03*
Y-31500D02*
D03*
Y-36500D02*
D03*
Y-41500D02*
D03*
Y-46500D02*
D03*
Y-51500D02*
D03*
Y-56500D02*
D03*
X389864D02*
D03*
Y-51500D02*
D03*
Y-46500D02*
D03*
Y-41500D02*
D03*
Y-36500D02*
D03*
Y-31500D02*
D03*
Y-26500D02*
D03*
Y-21500D02*
D03*
Y-16500D02*
D03*
D28*
X324914Y-4300D02*
D03*
X389314Y-68700D02*
D03*
D29*
X324914D02*
D03*
X389314Y-4300D02*
D03*
D30*
X77500Y-48500D02*
D03*
X57500Y-141500D02*
D03*
X67500Y-48500D02*
D03*
X47500D02*
D03*
X37500D02*
D03*
X37500Y-141500D02*
D03*
X47500D02*
D03*
X67500D02*
D03*
X77500D02*
D03*
X57500Y-48500D02*
D03*
D31*
X104500Y-187500D02*
D03*
X85500D02*
D03*
D32*
X-12500Y-184500D02*
D03*
Y-170500D02*
D03*
X295000Y84500D02*
D03*
Y70500D02*
D03*
X270000Y-87000D02*
D03*
Y-73000D02*
D03*
X312500Y84500D02*
D03*
Y70500D02*
D03*
X472500Y-49500D02*
D03*
Y-35500D02*
D03*
X-12500Y43000D02*
D03*
Y57000D02*
D03*
X23500D02*
D03*
Y43000D02*
D03*
X50000Y57000D02*
D03*
Y43000D02*
D03*
X283419Y-177000D02*
D03*
Y-163000D02*
D03*
X238419Y-177000D02*
D03*
Y-163000D02*
D03*
X193419Y-177000D02*
D03*
Y-163000D02*
D03*
X455000Y-49500D02*
D03*
Y-35500D02*
D03*
X-12500Y70300D02*
D03*
Y84300D02*
D03*
X23500Y70500D02*
D03*
Y84500D02*
D03*
X50000Y70500D02*
D03*
Y84500D02*
D03*
X258419Y-163000D02*
D03*
Y-177000D02*
D03*
X270919Y-163000D02*
D03*
Y-177000D02*
D03*
X213419Y-163000D02*
D03*
Y-177000D02*
D03*
X225919Y-163000D02*
D03*
Y-177000D02*
D03*
X168419Y-163000D02*
D03*
Y-177000D02*
D03*
X180919Y-163000D02*
D03*
Y-177000D02*
D03*
X265000Y84500D02*
D03*
Y70500D02*
D03*
X250000Y84500D02*
D03*
Y70500D02*
D03*
X280000Y84500D02*
D03*
Y70500D02*
D03*
X351000Y-157000D02*
D03*
Y-143000D02*
D03*
X244000Y-87000D02*
D03*
Y-73000D02*
D03*
X257000Y-87000D02*
D03*
Y-73000D02*
D03*
X218000Y-87000D02*
D03*
Y-73000D02*
D03*
X205000Y-87000D02*
D03*
Y-73000D02*
D03*
X231000Y-87000D02*
D03*
Y-73000D02*
D03*
X192000Y-87000D02*
D03*
Y-73000D02*
D03*
X-2500Y-104500D02*
D03*
Y-90500D02*
D03*
X10000Y-90500D02*
D03*
Y-104500D02*
D03*
X490000Y-35500D02*
D03*
Y-49500D02*
D03*
X425000Y-88000D02*
D03*
Y-102000D02*
D03*
X477500Y-90500D02*
D03*
Y-104500D02*
D03*
X289000Y-75000D02*
D03*
Y-89000D02*
D03*
X5000Y-184500D02*
D03*
Y-170500D02*
D03*
X47500Y-23500D02*
D03*
Y-9500D02*
D03*
D33*
X406000Y-244000D02*
D03*
X0Y0D02*
D03*
D34*
X214000Y55400D02*
Y97000D01*
X201600Y109400D02*
X214000Y97000D01*
X235000Y120000D02*
X253419D01*
X232000Y117000D02*
X235000Y120000D01*
X232000Y94000D02*
Y117000D01*
X312500Y84500D02*
Y105500D01*
X310700Y107300D02*
X312500Y105500D01*
X292419Y107300D02*
X310700D01*
X344000Y-143000D02*
X350000D01*
X333000D02*
X344000D01*
X253419Y98581D02*
Y107300D01*
Y98581D02*
X257000Y95000D01*
X277500D01*
X280000Y92500D01*
Y84500D02*
Y92500D01*
X248419Y-189419D02*
Y-165419D01*
X246000Y-163000D02*
X248419Y-165419D01*
X238419Y-163000D02*
X246000D01*
X211500Y-199000D02*
X281000D01*
X205000Y-192500D02*
Y-166400D01*
Y-192500D02*
X211500Y-199000D01*
X248419Y-189419D02*
X253000Y-194000D01*
X147100Y71500D02*
Y85400D01*
X125400Y107100D02*
X147100Y85400D01*
X125400Y107100D02*
Y121600D01*
X462000Y-106500D02*
X473000Y-117500D01*
X462000Y-106500D02*
Y-90500D01*
X104500Y-187500D02*
Y-177000D01*
X100000Y-172500D02*
X104500Y-177000D01*
X62500Y-172500D02*
X100000D01*
X67500Y-48500D02*
Y-30500D01*
X60500Y-23500D02*
X67500Y-30500D01*
X47500Y-23500D02*
X60500D01*
X67500Y-62500D02*
Y-48500D01*
Y-62500D02*
X71000Y-66000D01*
X84000D01*
X97500Y-52500D01*
X52500Y97500D02*
X57500D01*
X50000Y95000D02*
X52500Y97500D01*
X50000Y84500D02*
Y95000D01*
Y84500D02*
X50500Y85000D01*
X179000Y-108000D02*
X190000Y-97000D01*
X209000D01*
X178419Y-123000D02*
Y-108581D01*
X179000Y-108000D01*
X285000Y-215000D02*
Y-203000D01*
X281000Y-199000D02*
X285000Y-203000D01*
X298000Y-194000D02*
X305000Y-201000D01*
X253000Y-194000D02*
X298000D01*
X224000Y-107419D02*
Y-98000D01*
X223919Y-107500D02*
X224000Y-107419D01*
X267999Y-107420D02*
Y-97000D01*
X267919Y-107500D02*
X267999Y-107420D01*
X11300Y105700D02*
X15000Y102000D01*
Y79000D02*
Y102000D01*
Y79000D02*
X23500Y70500D01*
X6000Y77300D02*
Y97000D01*
X-12500Y70300D02*
X-1000D01*
X6000Y77300D01*
X245600Y4600D02*
X246000Y5000D01*
X214000Y4600D02*
X245600D01*
X236500Y38000D02*
Y67000D01*
X228500Y30000D02*
X236500Y38000D01*
X214000Y30000D02*
X228500D01*
X230000Y46000D02*
Y67000D01*
X226700Y42700D02*
X230000Y46000D01*
X214000Y42700D02*
X226700D01*
X270000Y-73000D02*
Y-63000D01*
X257000Y-73000D02*
Y-63000D01*
X244000Y-73000D02*
Y-63000D01*
X231000Y-73000D02*
Y-63000D01*
X218000Y-73000D02*
Y-63000D01*
X205000Y-73000D02*
Y-63000D01*
X314000Y167000D02*
X334000Y147000D01*
Y76000D02*
Y147000D01*
X-3000Y167000D02*
X314000D01*
X-30000Y140000D02*
X-3000Y167000D01*
X310136Y161000D02*
X327000Y144136D01*
X18822Y161000D02*
X310136D01*
X11300Y153478D02*
X18822Y161000D01*
X327000Y72101D02*
X346101Y53000D01*
X327000Y77899D02*
Y144136D01*
X327000Y77899D02*
X327000Y77899D01*
X327000Y72101D02*
Y77899D01*
X346101Y53000D02*
X348000D01*
X321000Y60000D02*
Y133000D01*
X325000Y-215000D02*
Y-204581D01*
X283419Y-163000D02*
X325000Y-204581D01*
X194000Y-251000D02*
X210000Y-235000D01*
X199500Y-258000D02*
X222500Y-235000D01*
X73000Y-258000D02*
X199500D01*
X65000Y-250000D02*
X73000Y-258000D01*
X176200Y148300D02*
X189100Y135400D01*
X150800Y148300D02*
X163300Y135800D01*
X150800Y111200D02*
Y122900D01*
X-1600Y102400D02*
Y122900D01*
X104500Y-211500D02*
Y-187500D01*
Y-211500D02*
X105000Y-212000D01*
X85500Y-211500D02*
Y-187500D01*
X85000Y-212000D02*
X85500Y-211500D01*
X-17500Y27500D02*
X73500D01*
X11300Y105700D02*
Y153478D01*
X-12500Y91500D02*
X-1600Y102400D01*
X-12500Y84300D02*
Y91500D01*
X305000Y-215000D02*
Y-201000D01*
X332500Y-142500D02*
X333000Y-143000D01*
X42000Y70500D02*
X50000D01*
X36700Y75800D02*
X42000Y70500D01*
X36700Y75800D02*
Y114000D01*
X306000Y148000D02*
X321000Y133000D01*
X321000Y60000D02*
X321000Y60000D01*
X222500Y-235000D02*
Y-207500D01*
X210000Y-235000D02*
Y-207500D01*
X125000Y-215000D02*
X145000D01*
X189100Y108900D02*
X197900Y100100D01*
Y71500D02*
Y100100D01*
X176200Y108800D02*
X185200Y99800D01*
Y71500D02*
Y99800D01*
X150800Y111200D02*
X159800Y102200D01*
Y71500D02*
Y102200D01*
X201600Y109400D02*
Y122900D01*
X189100Y108900D02*
Y135400D01*
X172500Y71500D02*
Y100500D01*
X163300Y109700D02*
X172500Y100500D01*
X163300Y109700D02*
Y135800D01*
X280000Y84500D02*
X295000D01*
X-12500Y57000D02*
Y70300D01*
X50000Y57000D02*
Y70500D01*
X-30000Y80000D02*
Y140000D01*
Y80000D02*
X-20300Y70300D01*
X82500Y-0D02*
X97500D01*
X77500Y-5000D02*
X82500Y-0D01*
X47300Y9800D02*
X97500D01*
X37500Y0D02*
X47300Y9800D01*
X-20300Y70300D02*
X-12500D01*
X425000Y-110000D02*
Y-102000D01*
Y-110000D02*
X429500Y-114500D01*
X452500D01*
X462000Y-90500D02*
X480000D01*
X47500Y-48500D02*
Y-23500D01*
X37500Y-48500D02*
Y0D01*
X77500Y-48500D02*
Y-5000D01*
X201600Y-163000D02*
X205000Y-166400D01*
X180919Y-163000D02*
X193419D01*
X168919D02*
X180919D01*
X193419D02*
X201600D01*
X125000Y-215000D02*
Y-182500D01*
X47500Y-157500D02*
X62500Y-172500D01*
X47500Y-157500D02*
Y-141500D01*
X267919Y-107500D02*
X268419Y-107000D01*
X268419Y-123000D02*
Y-108000D01*
X223419Y-123000D02*
Y-108000D01*
X168919Y-163000D02*
Y-147000D01*
X213919Y-162500D02*
Y-147000D01*
X258419Y-163000D02*
X283419D01*
X258919Y-162500D02*
Y-147000D01*
X10000Y-104500D02*
X62000D01*
X67500Y-110000D01*
Y-141500D02*
Y-110000D01*
X-2500Y-112500D02*
Y-104500D01*
Y-112500D02*
X2500Y-117500D01*
X42500D01*
X47500Y-122500D01*
Y-141500D02*
Y-122500D01*
X213419Y-163000D02*
X225919D01*
X238419D01*
X250000Y84500D02*
X265000D01*
X430000Y-70000D02*
X445500D01*
X425000Y-88000D02*
Y-75000D01*
X430000Y-70000D01*
X97500Y-52500D02*
Y-10000D01*
X176200Y108800D02*
Y122900D01*
X23500Y84500D02*
X23800Y84800D01*
Y122900D01*
X23500Y57000D02*
Y70500D01*
X223000Y74000D02*
X230000Y67000D01*
X223000Y74000D02*
Y126900D01*
X201600Y148300D02*
X223000Y126900D01*
X241500Y84500D02*
X250000D01*
X232000Y94000D02*
X241500Y84500D01*
X253000Y106881D02*
X253419Y107300D01*
X65000Y-250000D02*
Y-235000D01*
X107500Y-165000D02*
X125000Y-182500D01*
X67500Y-158500D02*
Y-141500D01*
Y-158500D02*
X74000Y-165000D01*
X107500D01*
X85000Y-247000D02*
Y-235000D01*
Y-247000D02*
X89000Y-251000D01*
X194000D01*
D35*
X197900Y-11500D02*
X199400Y-13000D01*
X270000D01*
X131000Y-23921D02*
Y4600D01*
Y-23921D02*
X155079Y-48000D01*
X115000Y14000D02*
X118300Y17300D01*
X131000D01*
X115000Y-17000D02*
Y14000D01*
X343750Y-143250D02*
X344000Y-143000D01*
X343750Y-162493D02*
Y-143250D01*
Y-162493D02*
X346000Y-164743D01*
Y-182000D02*
Y-164743D01*
X395614Y-75000D02*
X415500D01*
X389314Y-68700D02*
X395614Y-75000D01*
X354000Y63500D02*
X371500D01*
X347114Y70386D02*
X354000Y63500D01*
X347114Y70386D02*
Y87500D01*
X425000Y42000D02*
Y152500D01*
X420000Y157500D02*
X425000Y152500D01*
X392500Y157500D02*
X420000D01*
X387500Y152500D02*
X392500Y157500D01*
X448500Y-24000D02*
X479000D01*
X444828Y-27672D02*
X448500Y-24000D01*
X444828Y-34299D02*
Y-27672D01*
X310000Y-131500D02*
X311500Y-130000D01*
X322192D01*
X367114Y-85078D01*
X420000Y40000D02*
Y134000D01*
X416500Y137500D02*
X420000Y134000D01*
X407114Y137500D02*
X416500D01*
X420000Y40000D02*
X436000Y24000D01*
X425000Y42000D02*
X440828Y26172D01*
X347114Y-3750D02*
Y12950D01*
X312500Y27500D02*
Y70500D01*
X318614Y-75000D02*
X324914Y-68700D01*
X300000Y-75000D02*
X318614D01*
X310000Y-90000D02*
X324000D01*
X317500Y-82886D02*
X325457D01*
X324000Y-90000D02*
X337114Y-76886D01*
X325457Y-82886D02*
X332114Y-76229D01*
Y-73750D01*
X338000Y-55000D02*
X342114Y-59114D01*
X337114Y-76886D02*
Y-69250D01*
X347114Y-76886D02*
Y-69250D01*
X337000Y-87000D02*
X347114Y-76886D01*
X334999Y-99000D02*
Y-98193D01*
X352114Y-81078D01*
Y-69250D01*
X337000Y-87000D02*
Y-85500D01*
X367114Y-85078D02*
Y-69250D01*
X372114Y-86043D02*
Y-69250D01*
X332500Y-125657D02*
X372114Y-86043D01*
X332500Y-142500D02*
Y-125657D01*
X306999Y-2000D02*
X307000D01*
X316500Y-11500D01*
X155079Y-48000D02*
X205000D01*
X289000Y-51500D02*
X324364D01*
X285500Y-48000D02*
X289000Y-51500D01*
X205000Y-48000D02*
X285500D01*
X147100Y-27100D02*
Y-11500D01*
Y-27100D02*
X161000Y-41000D01*
X159800Y-30800D02*
Y-11500D01*
Y-30800D02*
X163000Y-34000D01*
X231000D01*
X172500Y-27500D02*
Y-11500D01*
Y-27500D02*
X175000Y-30000D01*
X208151D01*
X211151Y-27000D01*
X187500Y-25000D02*
X207000D01*
X185200Y-22700D02*
Y-11500D01*
Y-22700D02*
X187500Y-25000D01*
X207000D02*
X212000Y-20000D01*
X192000Y-56500D02*
X324364D01*
X324364Y-56500D01*
X192000D02*
X192000Y-56500D01*
X161000Y-41000D02*
X218000D01*
X211151Y-27000D02*
X244000D01*
X212000Y-20000D02*
X257000D01*
X154500Y-56500D02*
X192000D01*
Y-73000D02*
Y-56500D01*
X115000Y-17000D02*
X154500Y-56500D01*
X291500Y-46500D02*
X324364D01*
X286000Y-41000D02*
X291500Y-46500D01*
X218000Y-41000D02*
X286000D01*
X288500Y-31500D02*
X324364D01*
X286000Y-34000D02*
X288500Y-31500D01*
X231000Y-34000D02*
X286000D01*
X244000Y-27000D02*
X244500Y-26500D01*
X287500Y-21500D02*
X324364D01*
X286000Y-20000D02*
X287500Y-21500D01*
X257000Y-20000D02*
X286000D01*
X270000Y-13000D02*
X288000D01*
X291500Y-16500D01*
X324364D01*
X382000Y-3000D02*
Y2500D01*
X361000Y-41976D02*
X372114Y-53090D01*
X361000Y-41976D02*
Y-19000D01*
X374000Y-35000D02*
X379000D01*
X374000Y-36500D02*
Y-35000D01*
X374000Y-36500D02*
X374000Y-36500D01*
X334444Y10500D02*
X337114Y7830D01*
Y-3750D02*
Y7830D01*
X440828Y-32642D02*
Y26172D01*
X436000Y-31814D02*
Y24000D01*
X432000Y-30157D02*
Y21000D01*
X407500Y45500D02*
X432000Y21000D01*
X407500Y45500D02*
Y87114D01*
X427500Y-29000D02*
Y19500D01*
X386996Y60004D02*
X427500Y19500D01*
X386996Y60004D02*
Y94496D01*
X423500Y-6500D02*
Y17500D01*
X373500Y67500D02*
X423500Y17500D01*
X362500Y67500D02*
X373500D01*
X419500Y-814D02*
Y15500D01*
X371500Y63500D02*
X419500Y15500D01*
X342114Y-69250D02*
Y-59114D01*
X325500Y-99000D02*
X334999D01*
X324500Y-100000D02*
X325500Y-99000D01*
X362114Y-69250D02*
Y-58114D01*
X353000Y-49000D02*
Y-40000D01*
Y-49000D02*
X362114Y-58114D01*
X342000Y-40000D02*
X353000D01*
X340500Y-41500D02*
X342000Y-40000D01*
X324364Y-41500D02*
X340500D01*
X353000Y-90000D02*
Y-89500D01*
X357114Y-85386D01*
X372114Y-69250D02*
Y-53090D01*
X355000Y8000D02*
Y17500D01*
X342114Y-3750D02*
Y13000D01*
X367114Y-3750D02*
Y48114D01*
X376000Y16192D02*
Y24000D01*
X390000Y20000D02*
Y20000D01*
X362114Y-3750D02*
Y53000D01*
X325000Y10000D02*
X332114Y2886D01*
X315000Y5614D02*
Y10000D01*
X244500Y-26500D02*
X324364D01*
X300000Y-40000D02*
X303500Y-36500D01*
X367114Y48114D02*
X372000Y53000D01*
X357500Y72500D02*
X362500Y67500D01*
X417627Y-61500D02*
X444828Y-34299D01*
X389864Y-61500D02*
X394364D01*
X417627D01*
X415500Y-75000D02*
X455000Y-35500D01*
X416970Y-56500D02*
X440828Y-32642D01*
X389864Y-56500D02*
X416970D01*
X479000Y-24000D02*
X490000Y-35000D01*
X416314Y-51500D02*
X436000Y-31814D01*
X389864Y-51500D02*
X416314D01*
X415657Y-46500D02*
X432000Y-30157D01*
X389864Y-46500D02*
X415657D01*
X415000Y-41500D02*
X427500Y-29000D01*
X411500Y-34000D02*
X411999D01*
X409000Y-31500D02*
X411500Y-34000D01*
X389864Y-31500D02*
X409000D01*
X403500Y-26500D02*
X423500Y-6500D01*
X389864Y-26500D02*
X403500D01*
X372114Y-3750D02*
Y12306D01*
X376000Y16192D01*
X413000Y-1657D02*
Y10000D01*
X398157Y-16500D02*
X413000Y-1657D01*
X389864Y-16500D02*
X398157D01*
X394364Y-11500D02*
X397500D01*
X390500D02*
X394364D01*
X404000Y-5000D02*
Y10000D01*
X397500Y-11500D02*
X404000Y-5000D01*
X390000Y-12000D02*
X390500Y-11500D01*
X390000Y20000D02*
X397000Y13000D01*
Y3386D02*
Y13000D01*
X389314Y-4300D02*
X397000Y3386D01*
X382000Y2500D02*
X390000Y10500D01*
X379000Y6157D02*
Y10000D01*
X355000Y8000D02*
X357114Y5886D01*
Y-3750D02*
Y5886D01*
X377114Y-3750D02*
Y4271D01*
X379000Y6157D01*
X390000Y-222500D02*
X427601D01*
X435000Y-215100D01*
Y-145500D01*
X455000Y-35500D02*
X472500D01*
X379000Y-35000D02*
X380500Y-36500D01*
X389864D01*
X347499Y-22501D02*
X352114Y-17886D01*
Y-3750D01*
X407114Y87500D02*
X407500Y87114D01*
X347114Y115386D02*
X357500Y105000D01*
X347114Y115386D02*
Y137500D01*
X408300Y145800D02*
X409100Y145000D01*
X482500Y-130000D02*
X487000Y-125500D01*
X450500Y-130000D02*
X482500D01*
X435000Y-145500D02*
X450500Y-130000D01*
X487000Y-125500D02*
Y-117500D01*
X316500Y-11500D02*
X324364D01*
X315000Y5614D02*
X324914Y-4300D01*
X324500Y-112500D02*
Y-100000D01*
X324500Y-100000D01*
X357114Y-85386D02*
Y-69250D01*
X357500Y72500D02*
Y105000D01*
X387500Y145000D02*
Y152500D01*
X332114Y-3750D02*
Y2886D01*
X332000Y-69364D02*
X332114Y-69250D01*
X389864Y-41500D02*
X415000D01*
X303500Y-36500D02*
X324364D01*
X382114Y-80000D02*
Y-69250D01*
X250000Y23056D02*
Y70500D01*
X280000Y-130000D02*
Y-66000D01*
X284500Y-61500D01*
X324364D01*
X347114Y12950D02*
Y15886D01*
X342000Y21000D02*
X347114Y15886D01*
X338114Y17000D02*
X342114Y13000D01*
X256056Y17000D02*
X338114D01*
X250000Y23056D02*
X256056Y17000D01*
X280000Y27000D02*
Y70500D01*
Y27000D02*
X286000Y21000D01*
X342000D01*
X389864Y-21500D02*
X398814D01*
X419500Y-814D01*
X280000Y-130000D02*
X292000Y-142000D01*
Y-163000D02*
Y-142000D01*
Y-163000D02*
X331000Y-202000D01*
X369500D01*
X390000Y-222500D01*
X393000Y-98500D02*
Y-90886D01*
X382114Y-80000D02*
X393000Y-90886D01*
X378000Y-100814D02*
X379000Y-99814D01*
Y-82543D01*
X377114Y-80657D02*
Y-69250D01*
Y-80657D02*
X379000Y-82543D01*
D36*
X420000Y-184000D02*
X424000Y-188000D01*
X410843Y-155000D02*
X418500Y-162657D01*
Y-187050D02*
Y-162657D01*
X377000Y-132900D02*
Y-117000D01*
X360000Y-118814D02*
X378000Y-100814D01*
X360000Y-150000D02*
Y-118814D01*
Y-150000D02*
X365000Y-155000D01*
X237919Y-129581D02*
Y-107500D01*
X238419Y-117500D02*
X247500D01*
X311000Y-162500D02*
X332500D01*
X332000Y-163000D02*
X332500Y-162500D01*
X332000Y-182000D02*
Y-163000D01*
X225919Y-177500D02*
X236305D01*
X225919Y-187114D02*
Y-177500D01*
X213419Y-186614D02*
Y-177000D01*
X2500Y-77500D02*
X97500D01*
X-2500Y-82500D02*
X2500Y-77500D01*
X-2500Y-90500D02*
Y-82500D01*
X443000Y-90500D02*
X453000Y-80500D01*
X489500D01*
X480000Y-104500D02*
X485500D01*
X490000Y-100000D01*
Y-67500D01*
X229000Y139000D02*
Y150000D01*
Y139000D02*
X235300Y132700D01*
X253419D01*
X193000Y-126000D02*
Y-108000D01*
Y-126000D02*
X202000Y-135000D01*
X232500D01*
X289000Y-100000D02*
Y-89000D01*
Y-100000D02*
X310500D01*
X289000Y-75000D02*
X300000D01*
X300000Y-75000D01*
X214000Y17300D02*
X237700D01*
X89000Y43000D02*
Y65000D01*
Y35000D02*
Y43000D01*
Y35000D02*
X94000Y30000D01*
X136000D01*
X103000Y43000D02*
Y108000D01*
X100000Y111000D02*
X103000Y108000D01*
X100000Y111000D02*
Y122900D01*
X102000Y42700D02*
X131000D01*
X111600Y55400D02*
X131000D01*
X16500Y-141500D02*
X37500D01*
X15000Y-143000D02*
X16500Y-141500D01*
X365000Y-155000D02*
X410843D01*
X422000Y-212500D02*
Y-192500D01*
X57500Y-68000D02*
Y-48500D01*
X58000Y-49000D01*
X455000Y-60000D02*
Y-49500D01*
X472500Y-49500D02*
X490000D01*
X472500Y-70000D02*
Y-49500D01*
X-7500Y-130000D02*
X5000Y-142500D01*
X-25500Y-130000D02*
X-7500D01*
X47500Y-9500D02*
X60500D01*
X-25000Y-45000D02*
Y-20000D01*
X-60000Y-45000D02*
X-47500D01*
X-60000Y-72500D02*
Y-45000D01*
Y-72500D02*
X-54999Y-77501D01*
X-39501D01*
X-39500Y-130000D02*
Y-113000D01*
X-42500Y-110000D02*
X-39500Y-113000D01*
X-47500Y-110000D02*
X-42500D01*
X-39500Y-143500D02*
X-12500Y-170500D01*
X-39500Y-143500D02*
Y-130000D01*
X-12500Y-184500D02*
X5000D01*
X-25501Y-104499D02*
Y-77501D01*
X-25500Y-112250D02*
X-23250Y-110000D01*
X-25500Y-130000D02*
Y-112250D01*
X140000Y-62500D02*
X140000Y-62500D01*
X-27000Y43000D02*
X-12500D01*
X11500Y-91000D02*
X68000D01*
X10500Y-90000D02*
X11500Y-91000D01*
X10000Y-90500D02*
X10500Y-90000D01*
X-60000Y-110000D02*
X-47500D01*
X-60000Y-110000D02*
X-60000Y-110000D01*
X270919Y-186614D02*
Y-177000D01*
X232919Y-147000D02*
X244919Y-135000D01*
X275000D01*
X277919Y-137919D01*
Y-147000D02*
Y-137919D01*
X-61750Y-42500D02*
X-60000Y-44250D01*
X310500Y-112500D02*
Y-100000D01*
X310000Y-163500D02*
X311000Y-162500D01*
X265000Y60000D02*
Y70500D01*
X407000Y-112500D02*
Y-100500D01*
X258419Y-186614D02*
Y-177000D01*
X-12500Y43000D02*
X50000D01*
X95000Y-141500D02*
Y-127500D01*
X480000Y-104500D02*
X480500Y-105000D01*
X459500Y-70000D02*
X472500D01*
X223838Y-147000D02*
X232919D01*
X187919D02*
X197000D01*
X232500Y-135000D02*
X237919Y-129581D01*
X295000Y60000D02*
Y70500D01*
X367114Y87500D02*
Y109614D01*
X77500Y-141500D02*
X95000D01*
X180919Y-186614D02*
Y-177000D01*
X237919Y-107500D02*
X253919D01*
X180919Y-177000D02*
X193419D01*
X168419Y-186614D02*
Y-177000D01*
X270919Y-177000D02*
X283419D01*
X367114Y137500D02*
Y157114D01*
X192500Y-87000D02*
X268369D01*
X183000Y-87000D02*
X192500D01*
X183000D02*
Y-68000D01*
X175000Y-97500D02*
Y-71500D01*
X140000Y-62500D02*
X177500D01*
X183000Y-68000D01*
X292419Y132700D02*
X294000Y134281D01*
Y148000D01*
X5000Y-170500D02*
X37500D01*
X65000Y-198000D01*
Y-215000D02*
Y-198000D01*
X5000Y-170500D02*
Y-142500D01*
X109000Y-141500D02*
X117500D01*
X125000Y-149000D01*
X145000D01*
X337000Y-195000D02*
X342500D01*
X332000Y-190000D02*
X337000Y-195000D01*
X332000Y-190000D02*
Y-182000D01*
X377000Y-117000D02*
X381500Y-112500D01*
X393000D01*
Y-99000D01*
Y-98500D01*
X400000Y-204500D02*
X408000Y-212500D01*
X400000Y-204500D02*
Y-190000D01*
D37*
X127500Y29900D02*
X146550D01*
X351000Y-157000D02*
X358000Y-164000D01*
X393814D01*
X401157Y-171343D01*
D38*
X45000Y-215000D02*
D03*
X285000D02*
D03*
D39*
X125000Y-235000D02*
D03*
X145000Y-215000D02*
D03*
Y-235000D02*
D03*
X45000D02*
D03*
X65000Y-215000D02*
D03*
Y-235000D02*
D03*
X85000Y-215000D02*
D03*
Y-235000D02*
D03*
X105000Y-215000D02*
D03*
Y-235000D02*
D03*
X125000Y-215000D02*
D03*
X285000Y-235000D02*
D03*
X305000Y-215000D02*
D03*
Y-235000D02*
D03*
X325000Y-215000D02*
D03*
Y-235000D02*
D03*
X-12500Y-147500D02*
D03*
X89000Y65000D02*
D03*
D40*
X10000Y-225000D02*
D03*
X180000D02*
D03*
X250000D02*
D03*
X360000D02*
D03*
D41*
X-1600Y122900D02*
D03*
Y148300D02*
D03*
X150800Y122900D02*
D03*
X176200Y148300D02*
D03*
Y122900D02*
D03*
X201600D02*
D03*
X125400D02*
D03*
X100000D02*
D03*
X125400Y148300D02*
D03*
X150800D02*
D03*
X100000D02*
D03*
X23800D02*
D03*
X74600D02*
D03*
X49200D02*
D03*
X23800Y122900D02*
D03*
X49200D02*
D03*
X74600D02*
D03*
D42*
X201600Y148300D02*
D03*
D43*
X225919Y-187114D02*
D03*
X213419Y-186614D02*
D03*
X312500Y27500D02*
D03*
X289000Y-100000D02*
D03*
X310000Y-90000D02*
D03*
X317500Y-82886D02*
D03*
X300000Y-75000D02*
D03*
X338000Y-55000D02*
D03*
X337000Y-87000D02*
D03*
X306999Y-2000D02*
D03*
X209000Y-97000D02*
D03*
X224000Y-98000D02*
D03*
X267999Y-97000D02*
D03*
X6000Y98000D02*
D03*
X151000Y9000D02*
D03*
X160000D02*
D03*
X169000D02*
D03*
X246000Y5000D02*
D03*
X238000Y17000D02*
D03*
X111600Y55400D02*
D03*
X205000Y-48000D02*
D03*
X270000Y-63000D02*
D03*
X257000D02*
D03*
X244000D02*
D03*
X231000D02*
D03*
X218000D02*
D03*
X205000D02*
D03*
X270000Y-13000D02*
D03*
X257000Y-20000D02*
D03*
X244000Y-27000D02*
D03*
X231000Y-34000D02*
D03*
X401157Y-171343D02*
D03*
X361000Y-19000D02*
D03*
X374000Y-35000D02*
D03*
X334999Y-99000D02*
D03*
X353000Y-90000D02*
D03*
Y-40000D02*
D03*
X348000Y53000D02*
D03*
X355000Y17500D02*
D03*
X334444Y10500D02*
D03*
X376000Y24000D02*
D03*
X390000Y20000D02*
D03*
X325000Y10000D02*
D03*
X315000D02*
D03*
X300000Y-40000D02*
D03*
X218000Y-41000D02*
D03*
X362114Y53000D02*
D03*
X411999Y-34000D02*
D03*
X372000Y53000D02*
D03*
X404000Y10000D02*
D03*
X390000Y10000D02*
D03*
X379000D02*
D03*
X413000Y10000D02*
D03*
X18000Y-54000D02*
D03*
Y-43000D02*
D03*
Y-32000D02*
D03*
X145000Y-193000D02*
D03*
X155000D02*
D03*
X135000D02*
D03*
X15000Y-143000D02*
D03*
X400000Y-190000D02*
D03*
X357500Y-110000D02*
D03*
X57500Y-68000D02*
D03*
X455000Y-60000D02*
D03*
X490000Y-67500D02*
D03*
X360000Y-195000D02*
D03*
X152500Y-95000D02*
D03*
X135000D02*
D03*
X117500D02*
D03*
X100000D02*
D03*
Y-77500D02*
D03*
X117500D02*
D03*
X152500D02*
D03*
X135000D02*
D03*
X73500Y27500D02*
D03*
X60500Y-9500D02*
D03*
X-1000Y87000D02*
D03*
X8000Y-32000D02*
D03*
Y-43000D02*
D03*
X-25000Y-20000D02*
D03*
X-47500Y-45000D02*
D03*
X-12500Y-115000D02*
D03*
X-25000Y-65000D02*
D03*
X140000Y-62500D02*
D03*
X-27000Y43000D02*
D03*
X68000Y-91000D02*
D03*
X-47500Y-110000D02*
D03*
X270919Y-186614D02*
D03*
X348000Y-133000D02*
D03*
X272500Y5000D02*
D03*
X297500Y-110000D02*
D03*
X342500Y-195000D02*
D03*
X265000Y60000D02*
D03*
X36700Y114000D02*
D03*
X306000Y148000D02*
D03*
X321000Y60000D02*
D03*
X347499Y-22501D02*
D03*
X222500Y-207500D02*
D03*
X210000D02*
D03*
X407000Y-100500D02*
D03*
X258419Y-186614D02*
D03*
X247500Y-117500D02*
D03*
X-17500Y27500D02*
D03*
X57500Y97500D02*
D03*
X334000Y76000D02*
D03*
X-17500Y97500D02*
D03*
X97500Y9800D02*
D03*
X97500Y-0D02*
D03*
X472500Y-70000D02*
D03*
X223838Y-147000D02*
D03*
X197000D02*
D03*
X295000Y60000D02*
D03*
X367114Y109614D02*
D03*
X180919Y-186614D02*
D03*
X168419Y-186614D02*
D03*
X367114Y157114D02*
D03*
X175000Y-97500D02*
D03*
X237000Y67000D02*
D03*
X97500Y-10000D02*
D03*
X175000Y-71500D02*
D03*
X-13000Y-78000D02*
D03*
X8000Y-54000D02*
D03*
X229000Y150000D02*
D03*
X294000Y148000D02*
D03*
X117500Y-112500D02*
D03*
X100000D02*
D03*
M02*
