G04 Layer_Physical_Order=4*
G04 Layer_Color=16711680*
%FSLAX44Y44*%
%MOMM*%
G71*
G01*
G75*
%ADD10R,0.7000X1.0000*%
%ADD21R,1.4000X1.6500*%
%ADD24R,0.8500X0.8500*%
%ADD30R,0.6000X2.0000*%
%ADD32R,0.8500X0.8500*%
%ADD33C,1.0000*%
%ADD34C,0.3000*%
%ADD35C,0.2000*%
%ADD36C,0.5000*%
%ADD37C,0.4000*%
%ADD38R,1.4000X1.4000*%
%ADD39C,1.4000*%
%ADD40C,2.2000*%
%ADD41C,1.7000*%
%ADD42R,1.7000X1.7000*%
%ADD43C,0.7000*%
%ADD47R,1.0000X0.7000*%
%ADD48R,2.0000X0.6000*%
%ADD49R,7.7000X6.1000*%
%ADD50R,2.9000X3.5000*%
%ADD51R,2.6000X1.1000*%
%ADD52R,2.6000X1.8000*%
G36*
X182500Y-62500D02*
X145608D01*
X145608Y-62500D01*
X145181Y-60354D01*
X143965Y-58535D01*
X142146Y-57319D01*
X140000Y-56892D01*
X137854Y-57319D01*
X136035Y-58535D01*
X134819Y-60354D01*
X134392Y-62500D01*
X134392Y-62500D01*
X58042D01*
X57500Y-62392D01*
X56958Y-62500D01*
X6500D01*
X2500Y-58500D01*
X2500Y-24000D01*
X182500D01*
X182500Y-62500D01*
D02*
G37*
G36*
X95000Y-157000D02*
X18000Y-157000D01*
X18000Y-199000D01*
X37000Y-199000D01*
X50000Y-212000D01*
X50000Y-235000D01*
X41000D01*
X41000Y-211000D01*
X35000Y-205000D01*
X31000D01*
X0Y-205000D01*
X-0Y-139000D01*
X95000Y-139000D01*
X95000Y-157000D01*
D02*
G37*
G36*
X88000Y-169000D02*
X88000Y-177000D01*
X125000Y-177000D01*
X132000D01*
Y-170000D01*
X161000D01*
X161000Y-185000D01*
X47000Y-185000D01*
X47000Y-189000D01*
X67500Y-209500D01*
X67500Y-215000D01*
X60000Y-215000D01*
X60000Y-210000D01*
X45000Y-195000D01*
X23000D01*
X23000Y-169000D01*
X88000Y-169000D01*
D02*
G37*
%LPC*%
G36*
X78000Y-32250D02*
X66000D01*
X66000Y-52750D01*
X78000Y-52750D01*
Y-52500D01*
X102000D01*
Y-42500D01*
Y-32500D01*
X78000D01*
Y-32250D01*
D02*
G37*
G36*
X157000Y-34000D02*
X144000D01*
Y-39500D01*
X157000D01*
Y-34000D01*
D02*
G37*
G36*
X176000D02*
X163000D01*
Y-39500D01*
X176000D01*
Y-34000D01*
D02*
G37*
G36*
X157000Y-45500D02*
X144000D01*
Y-51000D01*
X157000D01*
Y-45500D01*
D02*
G37*
G36*
X176000D02*
X163000D01*
Y-51000D01*
X176000D01*
Y-45500D01*
D02*
G37*
%LPD*%
D10*
X357500Y-123000D02*
D03*
X348000Y-147000D02*
D03*
X367000D02*
D03*
X307000D02*
D03*
X288000D02*
D03*
X297500Y-123000D02*
D03*
D21*
X31000Y-148000D02*
D03*
Y-178000D02*
D03*
D24*
X324500Y-100000D02*
D03*
X310500D02*
D03*
X53000Y87500D02*
D03*
X67000D02*
D03*
X67000Y72500D02*
D03*
X53000D02*
D03*
X385500Y-35000D02*
D03*
X399500D02*
D03*
X329000Y-40000D02*
D03*
X315000D02*
D03*
D30*
X5000Y17500D02*
D03*
X55000D02*
D03*
X45000D02*
D03*
X35000D02*
D03*
X25000D02*
D03*
X15000D02*
D03*
X5000Y-102500D02*
D03*
X15000D02*
D03*
X25000D02*
D03*
X35000D02*
D03*
X45000D02*
D03*
X55000D02*
D03*
D32*
X260000Y5000D02*
D03*
Y19000D02*
D03*
X327500Y-123000D02*
D03*
Y-137000D02*
D03*
X-23000Y14000D02*
D03*
Y0D02*
D03*
X-12500Y-90500D02*
D03*
Y-104500D02*
D03*
X235000Y-115500D02*
D03*
Y-129500D02*
D03*
X342500Y-179500D02*
D03*
Y-165500D02*
D03*
X282500Y-179500D02*
D03*
Y-165500D02*
D03*
X10000Y73000D02*
D03*
Y87000D02*
D03*
X25000Y73000D02*
D03*
Y87000D02*
D03*
X-30000Y-78000D02*
D03*
Y-92000D02*
D03*
X-45000Y-78000D02*
D03*
Y-92000D02*
D03*
X367500Y-165500D02*
D03*
Y-179500D02*
D03*
X355000Y-165500D02*
D03*
Y-179500D02*
D03*
X307500Y-165500D02*
D03*
Y-179500D02*
D03*
X295000Y-165500D02*
D03*
Y-179500D02*
D03*
X-17500Y87000D02*
D03*
Y73000D02*
D03*
X40000Y73000D02*
D03*
Y87000D02*
D03*
X270000Y-123000D02*
D03*
Y-137000D02*
D03*
X192501Y-59499D02*
D03*
Y-45499D02*
D03*
X380000Y-132000D02*
D03*
Y-118000D02*
D03*
X352500Y-9500D02*
D03*
Y4500D02*
D03*
X390000Y-5500D02*
D03*
Y-19500D02*
D03*
X353000Y-65000D02*
D03*
Y-79000D02*
D03*
D33*
X370000Y125000D02*
D03*
X202500Y-167500D02*
D03*
D34*
X222500Y-202500D02*
X224386Y-200614D01*
X390000Y-239000D02*
Y-63000D01*
X377000Y-252000D02*
X390000Y-239000D01*
X380000Y-132000D02*
X390000D01*
Y-63000D02*
X399500D01*
X380500D02*
X390000D01*
X142500Y35000D02*
X384000D01*
X137500Y40000D02*
X396000D01*
X132700Y45000D02*
X400000D01*
X97500Y-10000D02*
X142500Y35000D01*
X384000D02*
X390000Y29000D01*
X104500Y7000D02*
X137500Y40000D01*
X396000D02*
X404000Y32000D01*
X97500Y9800D02*
X132700Y45000D01*
X400000D02*
X413000Y32000D01*
X260500Y-165500D02*
X282500D01*
X231000Y-195000D02*
X260500Y-165500D01*
X222500Y-195000D02*
X231000D01*
X-17000Y-130000D02*
X35000D01*
X-45000Y-102000D02*
X-17000Y-130000D01*
X-45000Y-102000D02*
Y-92000D01*
X35000Y-130000D02*
X45000Y-120000D01*
X316886Y-200614D02*
X330000Y-187500D01*
X224386Y-200614D02*
X316886D01*
X292000Y-35000D02*
X297000Y-30000D01*
X292000Y-72999D02*
Y-35000D01*
X267999Y-97000D02*
X292000Y-72999D01*
X319000Y-30000D02*
X334444Y-14556D01*
X297000Y-30000D02*
X319000D01*
X312000Y-23000D02*
X325000Y-10000D01*
X293000Y-23000D02*
X312000D01*
X285000Y-31000D02*
X293000Y-23000D01*
X285000Y-70000D02*
Y-31000D01*
X315000Y-6000D02*
Y10000D01*
X305000Y-16000D02*
X315000Y-6000D01*
X291000Y-16000D02*
X305000D01*
X278000Y-29000D02*
X291000Y-16000D01*
X278000Y-67000D02*
Y-29000D01*
X257000Y-98000D02*
X285000Y-70000D01*
X254249Y-90751D02*
X278000Y-67000D01*
X325000Y-10000D02*
Y10000D01*
X334444Y-14556D02*
Y10500D01*
X215248Y-90751D02*
X254249D01*
X209000Y-97000D02*
X215248Y-90751D01*
X224000Y-98000D02*
X257000D01*
X267999Y-97000D02*
X268033D01*
X6000Y98000D02*
X22000D01*
X25000Y95000D01*
X104500Y6901D02*
Y7000D01*
X97599Y-0D02*
X104500Y6901D01*
X97500Y-0D02*
X97599D01*
X246000Y5000D02*
X260000Y19000D01*
X246000Y5000D02*
Y5000D01*
X205000Y-62999D02*
Y-50000D01*
X205000Y-63000D02*
X205000Y-62999D01*
X205000Y-63000D02*
X205000Y-63000D01*
X270000D02*
Y-13000D01*
X257000Y-63000D02*
Y-20000D01*
X244000Y-63000D02*
Y-27000D01*
X231000Y-63000D02*
Y-35000D01*
X218000Y-63000D02*
Y-41000D01*
X419000Y-220000D02*
Y-69000D01*
X402000Y-82000D02*
X418000D01*
X399500D02*
X402000D01*
X418000D02*
X418000Y-82000D01*
X409000Y-59000D02*
X419000Y-69000D01*
X406000Y-56000D02*
X409000Y-59000D01*
X381000Y-258000D02*
X419000Y-220000D01*
X384000Y-264000D02*
X426500Y-221500D01*
X119000Y-264000D02*
X384000D01*
X134000Y-258000D02*
X381000D01*
X151000Y-252000D02*
X377000D01*
X145000Y-246000D02*
X151000Y-252000D01*
X125000Y-249000D02*
X134000Y-258000D01*
X105000Y-250000D02*
X119000Y-264000D01*
X380500Y-5500D02*
X390000D01*
X374000Y-12000D02*
X380500Y-5500D01*
X374000Y-23763D02*
Y-12000D01*
X366500Y-31263D02*
X374000Y-23763D01*
X366500Y-41929D02*
Y-31263D01*
Y-41929D02*
X380571Y-56000D01*
X406000D01*
X426500Y-221500D02*
Y26000D01*
X314660Y19000D02*
X320160Y24500D01*
X375500D01*
X376000Y24000D01*
X237500Y67500D02*
X385000D01*
X334371Y10500D02*
X334444D01*
X260000Y19000D02*
X314660D01*
X390000Y20000D02*
Y29000D01*
X413000Y10000D02*
Y32000D01*
X404000Y10000D02*
Y32000D01*
X390000Y-5500D02*
Y10000D01*
X369500Y500D02*
X379000Y10000D01*
X378500D02*
X379000D01*
X49200Y148300D02*
X61700Y135800D01*
X357500Y-123000D02*
Y-110000D01*
X357500Y-110000D01*
X40000Y57500D02*
Y73000D01*
X35000Y52500D02*
X40000Y57500D01*
X369000Y-21692D02*
Y0D01*
X343500Y-165500D02*
X368500D01*
X95000Y-19000D02*
X234000D01*
X81000Y-5000D02*
X95000Y-19000D01*
X81000Y-5000D02*
Y20000D01*
X73500Y27500D02*
X81000Y20000D01*
X43000Y163000D02*
X291000D01*
X36700Y156700D02*
X43000Y163000D01*
X36700Y114000D02*
Y156700D01*
X291000Y163000D02*
X306000Y148000D01*
X35000Y-5000D02*
Y17500D01*
X31000Y-9000D02*
X35000Y-5000D01*
X-21000Y-9000D02*
X31000D01*
X-23000Y-7000D02*
X-21000Y-9000D01*
X-23000Y-7000D02*
Y0D01*
Y22000D02*
X-17500Y27500D01*
X-23000Y14000D02*
Y22000D01*
X35000Y17500D02*
Y52500D01*
X25000Y87000D02*
Y95000D01*
X53000Y72500D02*
Y87500D01*
X40000Y87000D02*
X52500D01*
X25000Y17500D02*
Y73000D01*
X10000Y57500D02*
Y73000D01*
Y57500D02*
X15000Y52500D01*
Y17500D02*
Y52500D01*
X-5000Y73000D02*
X10000D01*
X45000Y-120000D02*
Y-102500D01*
X-30000Y-107500D02*
Y-92000D01*
Y-107500D02*
X-15000Y-122500D01*
X35000Y-120000D02*
Y-102500D01*
X32500Y-122500D02*
X35000Y-120000D01*
X-15000Y-122500D02*
X32500D01*
X327500Y-123000D02*
X357500D01*
X270000D02*
X297500D01*
X367000Y-165000D02*
Y-147000D01*
X307500Y-165500D02*
X308500D01*
X283500D02*
X307500D01*
X307500Y-165500D01*
X307000Y-165000D02*
X307500Y-165500D01*
X307000Y-165000D02*
Y-147000D01*
X105000Y-250000D02*
Y-235000D01*
X125000Y-249000D02*
Y-235000D01*
X145000Y-246000D02*
Y-235000D01*
X297500Y-123000D02*
Y-110000D01*
X385000Y67500D02*
X426500Y26000D01*
X361500Y-29192D02*
X369000Y-21692D01*
X361500Y-44000D02*
X380500Y-63000D01*
X361500Y-44000D02*
Y-29192D01*
X210000Y-207500D02*
X222500Y-195000D01*
X334500Y-165500D02*
X342500D01*
X330000Y-170000D02*
X334500Y-165500D01*
X330000Y-187500D02*
Y-170000D01*
X222500Y-207500D02*
Y-202500D01*
X-17500Y27500D02*
Y73000D01*
X61700Y109200D02*
Y135800D01*
X57500Y105000D02*
X61700Y109200D01*
X57500Y97500D02*
Y105000D01*
X-5000Y73000D02*
X-5000Y73000D01*
X-17500Y73000D02*
X-5000D01*
X234000Y-19000D02*
X248000Y-5000D01*
X303999D01*
X306999Y-2000D01*
D35*
X312500Y27500D02*
X315500Y30500D01*
X379500D01*
X361000Y1192D02*
X376308Y16500D01*
X361000Y-19000D02*
Y1192D01*
X379500Y30500D02*
X382500Y27500D01*
X325500Y-99000D02*
X334999D01*
X324500Y-100000D02*
X325500Y-99000D01*
X382500Y18500D02*
Y27500D01*
X380500Y16500D02*
X382500Y18500D01*
X376308Y16500D02*
X380500D01*
D36*
X75500Y87500D02*
X77500Y85500D01*
Y58500D02*
Y85500D01*
X65000Y46000D02*
X77500Y58500D01*
X380000Y-118000D02*
Y-97500D01*
X375500Y-93000D02*
X380000Y-97500D01*
X225919Y-187114D02*
X266033Y-147000D01*
X270313Y-106000D02*
X300999Y-75314D01*
X300000Y-75000D02*
X300686D01*
X300999Y-75314D01*
X179000Y-45000D02*
X179499Y-45499D01*
X192501D01*
X4000Y-72000D02*
X15000Y-83000D01*
X-11000Y-57000D02*
X4000Y-72000D01*
Y-74000D02*
Y-72000D01*
X-12500Y-90500D02*
X4000Y-74000D01*
X15000Y-102500D02*
Y-83000D01*
X-42000Y-57000D02*
X-11000D01*
X266033Y-147000D02*
X288000D01*
X-47500Y-51500D02*
X-42000Y-57000D01*
X-47500Y-51500D02*
Y-45000D01*
X302886Y-194614D02*
X307500Y-190000D01*
X258419Y-186614D02*
X266419Y-194614D01*
X302886D01*
X175000Y-97500D02*
X183500Y-106000D01*
X270313D01*
X374000Y-35000D02*
X385500D01*
X353000Y-65000D02*
X360000D01*
X367500Y-72500D01*
X353000Y-90000D02*
Y-79000D01*
X329000Y-40000D02*
X353000D01*
Y-65000D02*
Y-40000D01*
X300000D02*
X315000D01*
X352500Y15000D02*
X355000Y17500D01*
X400500Y-34000D02*
X411999D01*
X399500Y-35000D02*
X400500Y-34000D01*
X260000Y5000D02*
X272500D01*
X45000Y38000D02*
X67000Y60000D01*
X45000Y17500D02*
Y38000D01*
X67000Y60000D02*
Y72500D01*
X367500Y-195000D02*
Y-179500D01*
X360000Y-195000D02*
X367500D01*
X67000Y87500D02*
X75500D01*
X71000Y-27000D02*
Y-7000D01*
X65000Y-1000D02*
X71000Y-7000D01*
X65000Y-1000D02*
Y46000D01*
X143250Y-85000D02*
X197500D01*
X192501Y-84499D02*
Y-59499D01*
X175000Y-71500D02*
Y-60000D01*
X-25000Y-20000D02*
X-21000Y-16000D01*
X37000D01*
X45000Y-8000D01*
Y17500D01*
X-1000Y87000D02*
X10000D01*
X-12500Y-115000D02*
Y-107000D01*
X-40000Y-65000D02*
X-25000D01*
X-45000Y-70000D02*
X-40000Y-65000D01*
X-45000Y-78000D02*
Y-70000D01*
X367500Y-72500D02*
X375500D01*
X270919Y-186614D02*
Y-181581D01*
X273000Y-179500D01*
X348000Y-147000D02*
Y-133000D01*
X307500Y-190000D02*
Y-179500D01*
X247500Y-130000D02*
Y-117500D01*
Y-130000D02*
X254500Y-137000D01*
X270000D01*
X375500Y-93000D02*
Y-72500D01*
X283500Y-179500D02*
X296000D01*
X273000Y-179500D02*
X282500D01*
X318000Y-179500D02*
Y-135500D01*
X310500Y-128000D02*
X318000Y-135500D01*
X127500Y-100750D02*
X143250Y-85000D01*
X343500Y-179500D02*
X356000D01*
X342500Y-195000D02*
Y-179500D01*
X307500Y-179500D02*
X318000D01*
X310500Y-128000D02*
Y-100000D01*
X347499Y-22501D02*
Y-14501D01*
X352500Y-9500D01*
X245500Y-115500D02*
X247500Y-117500D01*
X235000Y-115500D02*
X245500D01*
X-17500Y87000D02*
Y95000D01*
X352500Y4500D02*
Y15000D01*
X385500Y-35000D02*
Y-24000D01*
X390000Y-19500D01*
X343500Y-179500D02*
X343500Y-179500D01*
X228000Y-129500D02*
X235000D01*
X223838Y-133662D02*
X228000Y-129500D01*
X223838Y-147000D02*
Y-133662D01*
X-30000Y-78000D02*
X-13000D01*
X197000Y-147000D02*
Y-120500D01*
D37*
X372500Y-118000D02*
X380000D01*
X367500Y-123000D02*
X372500Y-118000D01*
X367500Y-130500D02*
Y-123000D01*
X359000Y-139000D02*
X367500Y-130500D01*
X359000Y-151000D02*
Y-139000D01*
X334000Y-156000D02*
X354000D01*
X359000Y-151000D01*
X327500Y-149500D02*
X334000Y-156000D01*
X327500Y-149500D02*
Y-137000D01*
D38*
X45000Y-215000D02*
D03*
X285000D02*
D03*
D39*
X125000Y-235000D02*
D03*
X145000Y-215000D02*
D03*
Y-235000D02*
D03*
X45000D02*
D03*
X65000Y-215000D02*
D03*
Y-235000D02*
D03*
X85000Y-215000D02*
D03*
Y-235000D02*
D03*
X105000Y-215000D02*
D03*
Y-235000D02*
D03*
X125000Y-215000D02*
D03*
X285000Y-235000D02*
D03*
X305000Y-215000D02*
D03*
Y-235000D02*
D03*
X325000Y-215000D02*
D03*
Y-235000D02*
D03*
X-12500Y-147500D02*
D03*
X89000Y65000D02*
D03*
D40*
X10000Y-225000D02*
D03*
X180000D02*
D03*
X250000D02*
D03*
X360000D02*
D03*
D41*
X-1600Y122900D02*
D03*
Y148300D02*
D03*
X150800Y122900D02*
D03*
X176200Y148300D02*
D03*
Y122900D02*
D03*
X201600D02*
D03*
X125400D02*
D03*
X100000D02*
D03*
X125400Y148300D02*
D03*
X150800D02*
D03*
X100000D02*
D03*
X23800D02*
D03*
X74600D02*
D03*
X49200D02*
D03*
X23800Y122900D02*
D03*
X49200D02*
D03*
X74600D02*
D03*
D42*
X201600Y148300D02*
D03*
D43*
X225919Y-187114D02*
D03*
X213419Y-186614D02*
D03*
X312500Y27500D02*
D03*
X289000Y-100000D02*
D03*
X310000Y-90000D02*
D03*
X317500Y-82886D02*
D03*
X300000Y-75000D02*
D03*
X338000Y-55000D02*
D03*
X337000Y-87000D02*
D03*
X306999Y-2000D02*
D03*
X209000Y-97000D02*
D03*
X224000Y-98000D02*
D03*
X267999Y-97000D02*
D03*
X6000Y98000D02*
D03*
X151000Y9000D02*
D03*
X160000D02*
D03*
X169000D02*
D03*
X246000Y5000D02*
D03*
X238000Y17000D02*
D03*
X111600Y55400D02*
D03*
X205000Y-48000D02*
D03*
X270000Y-63000D02*
D03*
X257000D02*
D03*
X244000D02*
D03*
X231000D02*
D03*
X218000D02*
D03*
X205000D02*
D03*
X270000Y-13000D02*
D03*
X257000Y-20000D02*
D03*
X244000Y-27000D02*
D03*
X231000Y-34000D02*
D03*
X401157Y-171343D02*
D03*
X361000Y-19000D02*
D03*
X374000Y-35000D02*
D03*
X334999Y-99000D02*
D03*
X353000Y-90000D02*
D03*
Y-40000D02*
D03*
X348000Y53000D02*
D03*
X355000Y17500D02*
D03*
X334444Y10500D02*
D03*
X376000Y24000D02*
D03*
X390000Y20000D02*
D03*
X325000Y10000D02*
D03*
X315000D02*
D03*
X300000Y-40000D02*
D03*
X218000Y-41000D02*
D03*
X362114Y53000D02*
D03*
X411999Y-34000D02*
D03*
X372000Y53000D02*
D03*
X404000Y10000D02*
D03*
X390000Y10000D02*
D03*
X379000D02*
D03*
X413000Y10000D02*
D03*
X18000Y-54000D02*
D03*
Y-43000D02*
D03*
Y-32000D02*
D03*
X145000Y-193000D02*
D03*
X155000D02*
D03*
X135000D02*
D03*
X15000Y-143000D02*
D03*
X400000Y-190000D02*
D03*
X357500Y-110000D02*
D03*
X57500Y-68000D02*
D03*
X455000Y-60000D02*
D03*
X490000Y-67500D02*
D03*
X360000Y-195000D02*
D03*
X152500Y-95000D02*
D03*
X135000D02*
D03*
X117500D02*
D03*
X100000D02*
D03*
Y-77500D02*
D03*
X117500D02*
D03*
X152500D02*
D03*
X135000D02*
D03*
X73500Y27500D02*
D03*
X60500Y-9500D02*
D03*
X-1000Y87000D02*
D03*
X8000Y-32000D02*
D03*
Y-43000D02*
D03*
X-25000Y-20000D02*
D03*
X-47500Y-45000D02*
D03*
X-12500Y-115000D02*
D03*
X-25000Y-65000D02*
D03*
X140000Y-62500D02*
D03*
X-27000Y43000D02*
D03*
X68000Y-91000D02*
D03*
X-47500Y-110000D02*
D03*
X270919Y-186614D02*
D03*
X348000Y-133000D02*
D03*
X272500Y5000D02*
D03*
X297500Y-110000D02*
D03*
X342500Y-195000D02*
D03*
X265000Y60000D02*
D03*
X36700Y114000D02*
D03*
X306000Y148000D02*
D03*
X321000Y60000D02*
D03*
X347499Y-22501D02*
D03*
X222500Y-207500D02*
D03*
X210000D02*
D03*
X407000Y-100500D02*
D03*
X258419Y-186614D02*
D03*
X247500Y-117500D02*
D03*
X-17500Y27500D02*
D03*
X57500Y97500D02*
D03*
X334000Y76000D02*
D03*
X-17500Y97500D02*
D03*
X97500Y9800D02*
D03*
X97500Y-0D02*
D03*
X472500Y-70000D02*
D03*
X223838Y-147000D02*
D03*
X197000D02*
D03*
X295000Y60000D02*
D03*
X367114Y109614D02*
D03*
X180919Y-186614D02*
D03*
X168419Y-186614D02*
D03*
X367114Y157114D02*
D03*
X175000Y-97500D02*
D03*
X237000Y67000D02*
D03*
X97500Y-10000D02*
D03*
X175000Y-71500D02*
D03*
X-13000Y-78000D02*
D03*
X8000Y-54000D02*
D03*
X229000Y150000D02*
D03*
X294000Y148000D02*
D03*
X117500Y-112500D02*
D03*
X100000D02*
D03*
D47*
X399500Y-63000D02*
D03*
Y-82000D02*
D03*
X375500Y-72500D02*
D03*
D48*
X90000Y-47500D02*
D03*
Y-37500D02*
D03*
X-30000Y-47500D02*
D03*
Y-37500D02*
D03*
D49*
X127500Y-100750D02*
D03*
D50*
X108450Y-154250D02*
D03*
X146550D02*
D03*
D51*
X63000Y-179500D02*
D03*
Y-144500D02*
D03*
X160000Y-42500D02*
D03*
Y-7500D02*
D03*
X197500Y-85000D02*
D03*
Y-120000D02*
D03*
D52*
X160000Y4000D02*
D03*
M02*
