M48
;Layer_Color=9474304
;FILE_FORMAT=4:4
METRIC,LZ
;TYPE=PLATED
T1F00S00C0.3000
T2F00S00C0.8000
T3F00S00C1.0000
;TYPE=NON_PLATED
T4F00S00C2.2000
%
T01
X00258419Y-00186614
X00270919
X003425Y-00195
X0036
X004Y-0019
X00401157Y-00171343
X00407Y-001005
X003575Y-0011
X00353Y-0009
X00337Y-00087
X00334999Y-00099
X003175Y-00082886
X0031Y-0009
X003Y-00075
X00289Y-001
X002975Y-0011
X00267999Y-00097
X0027Y-00063
X00257
X00244
X002475Y-001175
X00348Y-00133
X00455Y-0006
X004725Y-0007
X0049Y-000675
X00231Y-00063
X00218
X00205
X00209Y-00097
X00224Y-00098
X00223838Y-00147
X00197
X00180919Y-00186614
X00168419Y-00186614
X00155Y-00193
X00145
X00135
X00213419Y-00186614
X00225919Y-00187114
X002225Y-002075
X0021
X00175Y-000975
X001525Y-00095
X00135
X001175
X001
Y-000775
X001175
X00135
X001525
X0014Y-000625
X00175Y-000715
X001175Y-001125
X001
X00068Y-00091
X000575Y-00068
X-00013Y-00078
X-00025Y-00065
X-000125Y-00115
X-000475Y-0011
X00015Y-00143
X00018Y-00054
X00008
Y-00043
X00018
Y-00032
X00008
X-00025Y-0002
X-000475Y-00045
X-000175Y000275
X-00027Y00043
X-000175Y000975
X00006Y00098
X-00001Y00087
X000367Y00114
X000575Y000975
X000735Y000275
X000975Y000098
X000975Y-0
Y-0001
X000605Y-000095
X00151Y00009
X0016
X00169
X00205Y-00048
X00218Y-00041
X00231Y-00034
X00229Y0015
X001116Y000554
X00237Y00067
X00265Y0006
X00295
X00321Y0006
X00334Y00076
X00348Y00053
X00362114Y00053
X00372
X00376Y00024
X00379Y0001
X0039
X0039Y0002
X00404Y0001
X00413
X00411999Y-00034
X00374Y-00035
X00353Y-0004
X00347499Y-00022501
X00361Y-00019
X00355Y000175
X00334444Y000105
X00325Y0001
X00315
X003125Y000275
X00306999Y-00002
X002725Y00005
X0027Y-00013
X00257Y-0002
X00244Y-00027
X00246Y00005
X00238Y00017
X003Y-0004
X00338Y-00055
X00367114Y00109614
Y00157114
X00306Y00148
X00294
T02
X00285Y-00235
Y-00215
X00305
Y-00235
X00325
Y-00215
X00145
X00125
Y-00235
X00145
X00105
X00085
X00065
X00045
Y-00215
X00065
X00085
X00105
X-000125Y-001475
X00089Y00065
T03
X-000016Y001229
Y001483
X000238
X000492
X000746
X001
Y001229
X001254
X001508
X001762
Y001483
X002016
Y001229
X001508Y001483
X001254
X000746Y001229
X000492
X000238
T04
X0025Y-00225
X0036
X0018
X0001
M30
