M48
;Layer_Color=9474304
;FILE_FORMAT=4:4
METRIC,LZ
;TYPE=PLATED
T1F00S00C0.3000
T2F00S00C0.8000
T3F00S00C1.1000
;TYPE=NON_PLATED
T4F00S00C2.2000
%
T01
X00368419Y00038386
X00380919
X00387919Y00087081
X003975Y00115
X004025Y00125
X00377919Y00127886
X00378369Y00162985
X00365506
X0035245
X003575Y001075
X0042Y00135
X004275Y00142114
X004475Y0014
X004625Y00135
X00464292Y00078208
X004475Y0005
X005075Y000125
X00517Y001245
X005825Y00155
X0041
X00339529Y00162985
X003275Y00162985
X00315Y00162985
X00285Y001535
X002675Y001475
X00255
X002425
Y00135
X0023
Y001475
X002175
X00205
Y00135
X002175
Y001225
Y0011
X0023
Y001225
X002425
X00255
Y00135
X002675
Y001225
X00285Y001275
X00324341
X00333919Y00127886
X00333838Y00078
X00307
X00290919Y00038386
X00278419Y00038386
X0026Y000375
Y0003
X002525
X00245
Y000375
X002525
Y00045
X0026
X00245
X0023Y000975
X002175
X00205
Y0011
Y001225
X001675Y00135
Y0016
X001645Y001055
X001385Y000835
X0014Y00055
X00073Y00068
X000675Y00115
X00103Y001055
X00323419Y00038386
X00335919Y00037886
X0032745Y00184
X00339529Y0019
X003446Y002221
X00315Y00175
X0025Y0017
X00219Y0018
Y00187
Y00194
Y00201
X002075Y00215
Y00225
X002075Y002348
X002035Y002475
X00175Y00225
X001275Y002275
X00115Y00205
X000675Y0019
X000925Y002525
Y003225
X001175
X001675
X001925Y0032
X0024Y003225
X00265Y00325
X00145Y00285
X00347Y00292
X00375Y00285
X00405
X00431Y00285
X0045Y00285
X00442499Y00299999
X00472114Y002825
X0048Y002775
X00486Y00249
X00489Y002355
X00499
X0051
X0052
X0053Y00235
X005225Y0019
X004825
X004725Y00206
X004625Y002025
X004525Y001875
Y00175
X004625Y001725
X0041Y00185
X004175Y002225
X00425Y00235
X00435
X00444444Y002355
X00465Y002425
X004225Y002525
X003845Y00223
X00378419Y002085
X00366Y00202
X0035245Y00196
X003473Y002348
X0042Y003525
X00402419Y00372419
X00477114Y00382114
Y00334614
X006Y002075
X006Y00173772
T02
X00385Y-00007
X00405
X00425
Y00013
X00405
X00385
X00235Y00013
Y-00007
X00215
X00195
X00175
X00155
Y00013
X00175
X00195
X00215
X001Y000675
Y00235
T03
X001084Y003479
X001338
X001592
X001846
Y003733
X001592
X001338
X001084
X0021
X002354
X002608
X002862
X003116
Y003479
X002862
X002608
X002354
X0021
T04
X0035Y00003
X0046
X0027Y00003
X0012
M30
