M48
;Layer_Color=9474304
;FILE_FORMAT=4:4
METRIC,LZ
;TYPE=PLATED
T1F00S00C0.3000
T2F00S00C0.4000
T3F00S00C0.8000
T4F00S00C1.1000
;TYPE=NON_PLATED
T5F00S00C2.2000
%
T01
X00368419Y00088386
X00380919
X004525Y0008
X0047
X0051Y00085
X00511157Y00103657
X00517Y001745
X004675Y00165
X004625Y00185
X00446Y0019
X00445Y00175
X004275Y00192114
X0042Y00185
X00401Y00175
X004075Y00165
X00377919Y00177886
X00378369Y00212985
X00365506
X0035245
X003575Y001575
X0041Y00205
X00458Y00142
X00565Y00215
X005825Y00205
X006Y002075
X00339529Y00212985
X003275Y00212985
X00315Y00212985
X00317Y00178
X00333919Y00177886
X00285Y001775
X002625Y0018
X00245
Y001975
X002625
X0025Y002125
X002275Y001975
X0021
Y0018
X002275
Y001625
X0021
X00178Y00184
X001675Y00207
X00097Y00197
X00085Y0021
X000975Y0016
X000625Y00165
X00135Y00139
X00278419Y00088386
X00290919Y00088386
X00323419
X00335919Y00087886
X003325Y000675
X0032
X00333838Y00128
X00285Y002035
X00315Y00225
X0032745Y00234
X00339529Y0024
X00279Y00281
X0027Y00281
X00261Y00281
X002075Y002848
X002075Y00275
Y00265
X002075Y002975
X001835Y003025
X001705Y002655
X00085Y00255
X000625Y0023
X000925Y003025
X00083Y00318
X000925Y003725
X001175
X00109Y00362
X001467Y00389
X001675Y003725
X00339Y00425
X00404Y00423
X00416
X00477114Y00432114
Y00384614
X00472114Y003325
X004825
X0045Y00335
X00431Y00335
X00405Y00335
X00375
X00347Y00342
X003473Y002848
X003475Y002725
X0035245Y00246
X00366Y00252
X00378419Y002585
X003825Y0028
X004175Y002725
X00425Y00285
X00435
X00444444Y002855
X00465Y002925
X00486Y00299
X00489Y00285
X005
X0051
X0052
X0053
X005225Y0024
X004825
X004725Y00256
X00457499Y002525
X004525Y002375
Y00225
X004625Y002225
X0041Y00235
X004225Y003025
X00442499Y00349999
T02
X00248Y00083
X00261
X00307Y00128
X00118Y00221
Y00232
Y00243
T03
X00395Y0004
X00415
X00435
Y0006
X00415
X00395
X00255
X00235
X00215
X00195
Y0004
X00215
X00235
X00255
X00175
Y0006
X00155
Y0004
X000975Y001275
X002Y0034
T04
X001084Y003979
X001338
X001592
X001846
Y004233
X001592
X001338
X001084
X0021
X002354
X002608
X002862
X003116
Y003979
X002862
X002608
X002354
X0021
T05
X0036Y0005
X0047
X0029
X0012
M30
