G04 Layer_Physical_Order=4*
G04 Layer_Color=16711680*
%FSLAX44Y44*%
%MOMM*%
G71*
G01*
G75*
%ADD10R,0.6000X2.0000*%
%ADD11R,2.0000X0.6000*%
%ADD15R,0.8500X0.8500*%
%ADD16R,1.5000X1.3000*%
%ADD17C,1.0000*%
%ADD18R,1.3000X1.5000*%
%ADD20R,0.8500X0.8500*%
%ADD21R,0.7000X1.0000*%
%ADD24C,0.5000*%
%ADD25C,0.8000*%
%ADD26C,0.6000*%
%ADD27C,0.3000*%
%ADD32C,1.8000*%
%ADD33R,1.8000X1.8000*%
%ADD34R,1.4000X1.4000*%
%ADD35C,1.4000*%
%ADD36C,2.0000*%
%ADD37R,2.0000X2.0000*%
%ADD38O,2.0000X1.6000*%
%ADD39R,2.0000X1.6000*%
%ADD40C,2.4000*%
%ADD41C,0.7000*%
%ADD42C,0.8000*%
%ADD44R,1.6000X3.0000*%
%ADD45R,6.7000X6.7000*%
%ADD46R,1.0000X0.7000*%
%ADD47R,1.3000X10.7500*%
%ADD48R,6.7000X7.9418*%
%ADD49R,6.7000X10.6069*%
%ADD50R,4.0000X4.2500*%
G36*
X534902Y-505000D02*
X534902Y-505001D01*
Y-505432D01*
X533933Y-510304D01*
X533603Y-511101D01*
X530843Y-515232D01*
X530232Y-515843D01*
X526101Y-518603D01*
X525304Y-518933D01*
X520432Y-519902D01*
X520001D01*
X520000Y-519902D01*
X480000D01*
X478049Y-520290D01*
X476395Y-521395D01*
X475290Y-523049D01*
X474902Y-525000D01*
Y-526549D01*
X406500D01*
X402501Y-527345D01*
X399110Y-529610D01*
X396845Y-533001D01*
X396049Y-537000D01*
Y-589902D01*
X205500D01*
X205500Y-560000D01*
X177500D01*
Y-589902D01*
X-26049D01*
Y-537000D01*
X-26845Y-533001D01*
X-29110Y-529610D01*
X-32501Y-527345D01*
X-36500Y-526549D01*
X-104902D01*
Y-525000D01*
X-105290Y-523049D01*
X-106395Y-521395D01*
X-108049Y-520290D01*
X-110000Y-519902D01*
X-184902D01*
Y-340098D01*
X-180000D01*
X-178049Y-339710D01*
X-176395Y-338605D01*
X-175290Y-336951D01*
X-174902Y-335000D01*
Y-328000D01*
X-104127D01*
Y-338919D01*
X-104565Y-339574D01*
X-105147Y-342500D01*
X-104565Y-345426D01*
X-102907Y-347907D01*
X-100426Y-349565D01*
X-97500Y-350147D01*
X-95647Y-349778D01*
X-92647Y-351611D01*
Y-363645D01*
X-93007Y-364184D01*
X-93666Y-367500D01*
X-93007Y-370816D01*
X-91128Y-373628D01*
X-88316Y-375507D01*
X-85000Y-376166D01*
X-81684Y-375507D01*
X-80000Y-374382D01*
X-77000Y-375816D01*
Y-377188D01*
X-77078Y-377582D01*
Y-483652D01*
X-76768Y-485212D01*
X-75884Y-486535D01*
X-74561Y-487419D01*
X-73000Y-487730D01*
X-6000D01*
X-4439Y-487419D01*
X-3116Y-486535D01*
X-2232Y-485212D01*
X-1922Y-483652D01*
Y-377582D01*
X-2000Y-377188D01*
Y-372314D01*
X1000Y-371296D01*
X1089Y-371411D01*
X4431Y-373976D01*
X8323Y-375588D01*
X8500Y-375611D01*
Y-360000D01*
Y-344389D01*
X8323Y-344412D01*
X4431Y-346024D01*
X1089Y-348589D01*
X1000Y-348704D01*
X-2000Y-347686D01*
Y-328000D01*
X34500D01*
Y-352000D01*
X73000D01*
X111500D01*
Y-328000D01*
X120500D01*
Y-377188D01*
X120422Y-377582D01*
Y-457000D01*
X120732Y-458561D01*
X121616Y-459884D01*
X122939Y-460768D01*
X124500Y-461078D01*
X191500D01*
X193061Y-460768D01*
X194384Y-459884D01*
X195268Y-458561D01*
X195578Y-457000D01*
Y-377582D01*
X195500Y-377188D01*
Y-328000D01*
X232000D01*
Y-351392D01*
X229000Y-351989D01*
X228976Y-351931D01*
X226411Y-348589D01*
X223069Y-346024D01*
X219177Y-344412D01*
X219000Y-344389D01*
Y-360000D01*
Y-375611D01*
X219177Y-375588D01*
X223069Y-373976D01*
X226411Y-371411D01*
X228976Y-368069D01*
X229000Y-368011D01*
X232000Y-368608D01*
Y-400500D01*
X260500D01*
Y-362000D01*
X270500D01*
Y-352000D01*
X309000D01*
Y-328000D01*
X333000D01*
Y-394606D01*
X332922Y-395000D01*
Y-447710D01*
X333232Y-449271D01*
X334116Y-450594D01*
X335439Y-451478D01*
X337000Y-451788D01*
X392778D01*
X394382Y-454788D01*
X392812Y-457137D01*
X391726Y-462600D01*
X392812Y-468063D01*
X395906Y-472693D01*
X397563Y-473800D01*
Y-476800D01*
X395906Y-477907D01*
X392812Y-482537D01*
X391726Y-488000D01*
X392812Y-493462D01*
X395906Y-498093D01*
X400537Y-501188D01*
X406000Y-502274D01*
X411463Y-501188D01*
X416093Y-498093D01*
X419188Y-493462D01*
X420274Y-488000D01*
X419188Y-482537D01*
X416093Y-477907D01*
X414437Y-476800D01*
Y-473800D01*
X416093Y-472693D01*
X419188Y-468063D01*
X420274Y-462600D01*
X419188Y-457137D01*
X417618Y-454788D01*
X419221Y-451788D01*
X442778D01*
X444382Y-454788D01*
X442812Y-457137D01*
X441726Y-462600D01*
X442812Y-468063D01*
X444775Y-471000D01*
X443172Y-474000D01*
X442000D01*
Y-502000D01*
X470000D01*
Y-474000D01*
X468829D01*
X467225Y-471000D01*
X469188Y-468063D01*
X470274Y-462600D01*
X469188Y-457137D01*
X467579Y-454729D01*
X468478Y-451751D01*
X468874Y-451268D01*
X469884Y-450594D01*
X470768Y-449271D01*
X471078Y-447710D01*
Y-426000D01*
X470768Y-424439D01*
X469884Y-423116D01*
X468561Y-422232D01*
X467000Y-421922D01*
X408078D01*
Y-395000D01*
X408000Y-394606D01*
Y-328000D01*
X452000D01*
Y-352000D01*
X490500D01*
X529000D01*
Y-328000D01*
X534902D01*
Y-505000D01*
D02*
G37*
G36*
X404000Y-426000D02*
X467000D01*
Y-447710D01*
X337000D01*
Y-395000D01*
X404000D01*
Y-426000D01*
D02*
G37*
G36*
X33000Y-282000D02*
X33000Y-312115D01*
X-25000Y-312115D01*
X-25000Y-282000D01*
X33000Y-282000D01*
D02*
G37*
G36*
X443000Y-312115D02*
X385000D01*
X385000Y-282000D01*
X443000D01*
X443000Y-312115D01*
D02*
G37*
G36*
X230500Y-282000D02*
X230500Y-312115D01*
X172000Y-312115D01*
X172000Y-282000D01*
X230500Y-282000D01*
D02*
G37*
%LPC*%
G36*
X63000Y-372000D02*
X34500D01*
Y-400500D01*
X63000D01*
Y-372000D01*
D02*
G37*
G36*
X-93000Y-414765D02*
X-97682Y-415696D01*
X-101651Y-418349D01*
X-104304Y-422318D01*
X-105235Y-427000D01*
X-104304Y-431682D01*
X-101651Y-435652D01*
X-97682Y-438304D01*
X-93000Y-439235D01*
X-88318Y-438304D01*
X-84348Y-435652D01*
X-81696Y-431682D01*
X-80765Y-427000D01*
X-81696Y-422318D01*
X-84348Y-418349D01*
X-88318Y-415696D01*
X-93000Y-414765D01*
D02*
G37*
G36*
X480500Y-372000D02*
X452000D01*
Y-400500D01*
X480500D01*
Y-372000D01*
D02*
G37*
G36*
X309000D02*
X280500D01*
Y-400500D01*
X309000D01*
Y-372000D01*
D02*
G37*
G36*
X111500D02*
X83000D01*
Y-400500D01*
X111500D01*
Y-372000D01*
D02*
G37*
G36*
X-143001Y-461476D02*
X-152001D01*
Y-470476D01*
X-143001D01*
Y-461476D01*
D02*
G37*
G36*
X-160001Y-478476D02*
X-169001D01*
Y-487476D01*
X-160001D01*
Y-478476D01*
D02*
G37*
G36*
X-121001Y-460202D02*
X-126464Y-461288D01*
X-131095Y-464383D01*
X-134189Y-469013D01*
X-135276Y-474476D01*
X-134189Y-479939D01*
X-131095Y-484569D01*
X-126464Y-487664D01*
X-121001Y-488750D01*
X-115539Y-487664D01*
X-110908Y-484569D01*
X-107814Y-479939D01*
X-106727Y-474476D01*
X-107814Y-469013D01*
X-110908Y-464383D01*
X-115539Y-461288D01*
X-121001Y-460202D01*
D02*
G37*
G36*
X45000Y-502765D02*
X40318Y-503696D01*
X36349Y-506348D01*
X33651D01*
X29682Y-503696D01*
X25000Y-502765D01*
X20318Y-503696D01*
X16349Y-506348D01*
X13696Y-510318D01*
X12765Y-515000D01*
X13696Y-519682D01*
X16349Y-523652D01*
X20318Y-526304D01*
X25000Y-527235D01*
X29682Y-526304D01*
X33651Y-523652D01*
X36349D01*
X40318Y-526304D01*
X45000Y-527235D01*
X49682Y-526304D01*
X53651Y-523652D01*
X56304Y-519682D01*
X57235Y-515000D01*
X56304Y-510318D01*
X53651Y-506348D01*
X49682Y-503696D01*
X45000Y-502765D01*
D02*
G37*
G36*
X-160001Y-461476D02*
X-169001D01*
Y-470476D01*
X-160001D01*
Y-461476D01*
D02*
G37*
G36*
X25000Y-462765D02*
X20318Y-463696D01*
X16349Y-466348D01*
X13696Y-470318D01*
X12765Y-475000D01*
X13696Y-479682D01*
X16349Y-483652D01*
X20318Y-486304D01*
X25000Y-487235D01*
X29682Y-486304D01*
X31000Y-485423D01*
X34000Y-486000D01*
Y-486000D01*
X56000D01*
Y-464000D01*
X34000D01*
Y-464000D01*
X31000Y-464577D01*
X29682Y-463696D01*
X25000Y-462765D01*
D02*
G37*
G36*
X-143001Y-478476D02*
X-152001D01*
Y-487476D01*
X-143001D01*
Y-478476D01*
D02*
G37*
G36*
X529000Y-372000D02*
X500500D01*
Y-400500D01*
X529000D01*
Y-372000D01*
D02*
G37*
G36*
X426000Y-344389D02*
X425823Y-344412D01*
X421931Y-346024D01*
X418589Y-348589D01*
X416024Y-351931D01*
X414412Y-355823D01*
X414389Y-356000D01*
X426000D01*
Y-344389D01*
D02*
G37*
G36*
X-143001Y-361476D02*
X-152001D01*
Y-370476D01*
X-143001D01*
Y-361476D01*
D02*
G37*
G36*
X-160001D02*
X-169001D01*
Y-370476D01*
X-160001D01*
Y-361476D01*
D02*
G37*
G36*
X211000Y-344389D02*
X210823Y-344412D01*
X206931Y-346024D01*
X203589Y-348589D01*
X201024Y-351931D01*
X199412Y-355823D01*
X199389Y-356000D01*
X211000D01*
Y-344389D01*
D02*
G37*
G36*
X16500Y-344389D02*
Y-356000D01*
X28111D01*
X28088Y-355823D01*
X26476Y-351931D01*
X23911Y-348589D01*
X20569Y-346024D01*
X16677Y-344412D01*
X16500Y-344389D01*
D02*
G37*
G36*
X434000D02*
Y-356000D01*
X445611D01*
X445588Y-355823D01*
X443976Y-351931D01*
X441411Y-348589D01*
X438069Y-346024D01*
X434177Y-344412D01*
X434000Y-344389D01*
D02*
G37*
G36*
X211000Y-364000D02*
X199389D01*
X199412Y-364177D01*
X201024Y-368069D01*
X203589Y-371411D01*
X206931Y-373976D01*
X210823Y-375588D01*
X211000Y-375611D01*
Y-364000D01*
D02*
G37*
G36*
X-143001Y-378476D02*
X-152001D01*
Y-387476D01*
X-143001D01*
Y-378476D01*
D02*
G37*
G36*
X-160001D02*
X-169001D01*
Y-387476D01*
X-160001D01*
Y-378476D01*
D02*
G37*
G36*
X-121001Y-360202D02*
X-126464Y-361288D01*
X-131095Y-364383D01*
X-134189Y-369013D01*
X-135276Y-374476D01*
X-134189Y-379939D01*
X-131095Y-384569D01*
X-126464Y-387664D01*
X-121001Y-388750D01*
X-115539Y-387664D01*
X-110908Y-384569D01*
X-107814Y-379939D01*
X-106727Y-374476D01*
X-107814Y-369013D01*
X-110908Y-364383D01*
X-115539Y-361288D01*
X-121001Y-360202D01*
D02*
G37*
G36*
X445611Y-364000D02*
X434000D01*
Y-375611D01*
X434177Y-375588D01*
X438069Y-373976D01*
X441411Y-371411D01*
X443976Y-368069D01*
X445588Y-364177D01*
X445611Y-364000D01*
D02*
G37*
G36*
X28111D02*
X16500D01*
Y-375611D01*
X16677Y-375588D01*
X20569Y-373976D01*
X23911Y-371411D01*
X26476Y-368069D01*
X28088Y-364177D01*
X28111Y-364000D01*
D02*
G37*
G36*
X426000D02*
X414389D01*
X414412Y-364177D01*
X416024Y-368069D01*
X418589Y-371411D01*
X421931Y-373976D01*
X425823Y-375588D01*
X426000Y-375611D01*
Y-364000D01*
D02*
G37*
%LPD*%
D10*
X197500Y-0D02*
D03*
X187500Y-120000D02*
D03*
X197500D02*
D03*
X187500Y-0D02*
D03*
D11*
X252500Y-35000D02*
D03*
Y-45000D02*
D03*
Y-55000D02*
D03*
Y-65000D02*
D03*
Y-75000D02*
D03*
Y-85000D02*
D03*
X132500D02*
D03*
Y-75000D02*
D03*
Y-65000D02*
D03*
Y-55000D02*
D03*
Y-45000D02*
D03*
Y-35000D02*
D03*
D15*
X303000Y-31000D02*
D03*
Y-45000D02*
D03*
X50000Y-30500D02*
D03*
Y-44500D02*
D03*
X65000Y-75000D02*
D03*
Y-89000D02*
D03*
X333000Y-31000D02*
D03*
Y-45000D02*
D03*
X318000Y-45000D02*
D03*
Y-31000D02*
D03*
D16*
X517500Y-122000D02*
D03*
Y-103000D02*
D03*
D17*
X191500Y-575000D02*
D03*
X0Y0D02*
D03*
D18*
X50500Y-209615D02*
D03*
X69500D02*
D03*
X-62500D02*
D03*
X-43500D02*
D03*
X247500D02*
D03*
X266500D02*
D03*
X135000D02*
D03*
X154000D02*
D03*
X467500D02*
D03*
X486500D02*
D03*
X347500D02*
D03*
X366500D02*
D03*
D20*
X-75000Y-137500D02*
D03*
X-61000D02*
D03*
X318000Y-80000D02*
D03*
X332000D02*
D03*
X79000Y-75000D02*
D03*
X93000D02*
D03*
X290500Y-80000D02*
D03*
X304500D02*
D03*
X65500Y0D02*
D03*
X79500D02*
D03*
X9500Y-115000D02*
D03*
X-4500D02*
D03*
X83500Y-257115D02*
D03*
X97500D02*
D03*
X-31500Y-257115D02*
D03*
X-17500D02*
D03*
X281000Y-257115D02*
D03*
X295000D02*
D03*
X332000Y-59000D02*
D03*
X318000D02*
D03*
X168500Y-257115D02*
D03*
X182500D02*
D03*
X93000Y-60000D02*
D03*
X79000D02*
D03*
X49500Y-57500D02*
D03*
X35500D02*
D03*
X79500Y-45000D02*
D03*
X65500D02*
D03*
X79000Y-89000D02*
D03*
X93000D02*
D03*
X79500Y-30000D02*
D03*
X65500D02*
D03*
X49500Y-17500D02*
D03*
X35500D02*
D03*
X79500Y-15000D02*
D03*
X65500D02*
D03*
X503500Y-257115D02*
D03*
X517500D02*
D03*
X381000D02*
D03*
X395000D02*
D03*
X9500Y-127500D02*
D03*
X-4500D02*
D03*
X372000Y-117500D02*
D03*
X358000D02*
D03*
X149500D02*
D03*
X135500D02*
D03*
X372000Y-137500D02*
D03*
X358000D02*
D03*
D21*
X22000Y-232000D02*
D03*
X3000D02*
D03*
X12500Y-208000D02*
D03*
X-15000Y-207000D02*
D03*
X-5500Y-183000D02*
D03*
X-24500D02*
D03*
X224500Y-232000D02*
D03*
X205500D02*
D03*
X215000Y-208000D02*
D03*
X185000Y-207000D02*
D03*
X194500Y-183000D02*
D03*
X175500D02*
D03*
X447000Y-229500D02*
D03*
X428000D02*
D03*
X437500Y-205500D02*
D03*
X397500Y-207000D02*
D03*
X407000Y-183000D02*
D03*
X388000D02*
D03*
D24*
X-85000Y-367500D02*
Y-320816D01*
X-92816Y-313000D02*
X-85000Y-320816D01*
X-153101Y-313000D02*
X-92816D01*
X-97500Y-342500D02*
Y-324561D01*
X-101061Y-321000D02*
X-97500Y-324561D01*
X-155000Y-321000D02*
X-101061D01*
X-36500Y-230000D02*
X-15000D01*
X-42500Y-224000D02*
X-36500Y-230000D01*
X-42500Y-224000D02*
Y-209615D01*
X155000Y-224500D02*
Y-209615D01*
Y-224500D02*
X160500Y-230000D01*
X185000D01*
X368000Y-225000D02*
Y-210115D01*
Y-225000D02*
X372500Y-229500D01*
X397500D01*
X437500Y-180000D02*
X477500D01*
X486500Y-189000D01*
Y-208615D02*
Y-189000D01*
X9500Y-133700D02*
Y-127500D01*
X3700Y-139500D02*
X9500Y-133700D01*
X-12700Y-139500D02*
X3700D01*
X279500Y-44500D02*
Y-2500D01*
X273500Y3500D02*
X279500Y-2500D01*
X266000Y3500D02*
X273500D01*
X-164500Y-311500D02*
X-155000Y-321000D01*
X-157500Y-308601D02*
X-153101Y-313000D01*
X-62500Y-208615D02*
Y-192500D01*
X-53000Y-183000D01*
X-24500D01*
X-157500Y-308601D02*
Y-82500D01*
X-164500Y-311500D02*
Y-79601D01*
X-62500Y-208615D02*
X-61500Y-209615D01*
X60000Y-177500D02*
X69500Y-187000D01*
Y-209615D02*
Y-187000D01*
X135000Y-192500D02*
X144500Y-183000D01*
X135000Y-208615D02*
Y-192500D01*
Y-208615D02*
X136000Y-209615D01*
X255000Y-177500D02*
X266500Y-189000D01*
Y-208615D02*
Y-189000D01*
Y-208615D02*
X267500Y-209615D01*
X347600Y-194900D02*
X359500Y-183000D01*
X347600Y-208715D02*
Y-194900D01*
Y-208715D02*
X348500Y-209615D01*
X486500Y-208615D02*
X487500Y-209615D01*
X13000Y-17500D02*
X35500D01*
X-34500Y-65000D02*
X13000Y-17500D01*
X280000Y-45000D02*
X318000D01*
X333000D01*
X252500D02*
X280000D01*
X279500Y-44500D02*
X280000Y-45000D01*
X176000Y-75000D02*
X209000D01*
X210000Y-74000D01*
Y-6000D01*
X242000D01*
X321500Y-337000D02*
Y-186500D01*
X346000Y-162000D01*
X379000D01*
X415000Y-126000D01*
Y-72000D01*
X374000Y-31000D02*
X415000Y-72000D01*
X333000Y-31000D02*
X374000D01*
X252500Y-55000D02*
X300000D01*
X280000Y-65000D02*
Y-55000D01*
X252500Y-65000D02*
X280000D01*
X300000Y-55000D02*
X304000Y-59000D01*
X318000D01*
X304500Y-80000D02*
Y-69500D01*
X289000Y-31000D02*
X303000D01*
X318000D01*
X52000Y0D02*
X65500D01*
X65000Y-75000D02*
Y-63000D01*
X132500Y-45000D02*
X175500D01*
X176000Y-98000D02*
Y-75000D01*
X382000Y-107500D02*
X404000D01*
X372000Y-117500D02*
X382000Y-107500D01*
X-33000Y-98000D02*
X176000D01*
X-48800Y-113800D02*
X-33000Y-98000D01*
X-113700Y-113800D02*
X-48800D01*
X93000Y-89000D02*
Y-60000D01*
X79500Y-45000D02*
X80500Y-46000D01*
X79000Y-75000D02*
Y-45500D01*
X79500Y-30000D02*
Y0D01*
X65500Y-15000D02*
Y0D01*
X49500Y-57500D02*
Y-45000D01*
X50000Y-44500D02*
X65000D01*
X50000Y-30500D02*
X65000D01*
X49500Y-30000D02*
Y-17500D01*
Y-30000D02*
X50000Y-30500D01*
X-12500Y-57500D02*
X35500D01*
X215000Y-177500D02*
X255000D01*
X9500Y-127500D02*
Y-115000D01*
X372000Y-137500D02*
Y-117500D01*
X95000Y-45000D02*
X115000Y-65000D01*
X79500Y-45000D02*
X95000D01*
X79500Y-30000D02*
X90000D01*
X115000Y-55000D01*
X-27000Y-72000D02*
X-12500Y-57500D01*
X-147000Y-72000D02*
X-27000D01*
X-164500Y-79601D02*
X-149900Y-65000D01*
X-34500D01*
X304500Y-80000D02*
X318000D01*
X94500Y-75000D02*
X132500D01*
X115000Y-65000D02*
X132500D01*
X-157500Y-82500D02*
X-147000Y-72000D01*
X74500Y-239615D02*
X92115D01*
X97500Y-245000D01*
Y-257115D02*
Y-245000D01*
X-15000Y-230000D02*
Y-207000D01*
X22000Y-232000D02*
X49115D01*
X12500Y-177500D02*
X60000D01*
X12500Y-208000D02*
Y-177500D01*
X215000Y-208000D02*
Y-177500D01*
X224500Y-232000D02*
X246615D01*
X248500Y-230115D01*
X144500Y-183000D02*
X175500D01*
X185000Y-230000D02*
Y-207000D01*
X437500Y-205500D02*
Y-180000D01*
X447000Y-229500D02*
X467885D01*
X359500Y-183000D02*
X388000D01*
X397500Y-229500D02*
Y-207000D01*
X115000Y-55000D02*
X132500D01*
X132500Y-55000D01*
X209000Y-75000D02*
X252500D01*
X272000D01*
X277000Y-80000D01*
X290500D01*
D25*
X-64500Y-257115D02*
X-31500D01*
X50500D02*
X83500D01*
X135500D02*
X168500D01*
X248000D02*
X281000D01*
X348000D02*
X381000D01*
X470500D02*
X503500D01*
D26*
X517500Y-102000D02*
Y-77500D01*
Y-274115D02*
X518000Y-274615D01*
X180000Y-296215D02*
X180900Y-297115D01*
X182500Y-296215D02*
Y-259115D01*
X-39000Y-239615D02*
X-24500D01*
X-17500Y-246615D01*
Y-296215D02*
Y-257115D01*
Y-246615D01*
X182500Y-257115D02*
Y-246615D01*
X175500Y-239615D02*
X182500Y-246615D01*
X159000Y-239615D02*
X175500D01*
X288000D02*
X295000Y-246615D01*
X272000Y-239615D02*
X288000D01*
X388000D02*
X395000Y-246615D01*
X372000Y-239615D02*
X388000D01*
X97500Y-271615D02*
X100500Y-274615D01*
X97500Y-271615D02*
Y-257115D01*
X295000Y-271615D02*
X298000Y-274615D01*
X295000Y-271615D02*
Y-257115D01*
Y-246615D01*
X393400Y-297115D02*
X395000Y-295515D01*
Y-257115D01*
Y-246615D01*
X517500Y-257115D02*
Y-246615D01*
Y-274115D02*
Y-257115D01*
X514500Y-102500D02*
X515000Y-103000D01*
X514500Y-102500D02*
X515000Y-102000D01*
X497500Y-127500D02*
X503000Y-122000D01*
X515000D01*
X510505Y-239620D02*
X517500Y-246615D01*
X492000Y-239620D02*
X510505D01*
D27*
X-139100Y-303015D02*
Y-291600D01*
Y-303015D02*
X-137115Y-305000D01*
X-97000D01*
X-139100Y-276900D02*
Y-266200D01*
Y-276900D02*
X-137000Y-279000D01*
X-100200D01*
X-139100Y-240800D02*
Y-229600D01*
X-137500Y-228000D01*
X-105907D01*
X120000Y-152500D02*
Y-137500D01*
X115000Y-157500D02*
X120000Y-152500D01*
X-52142Y-157500D02*
X115000D01*
X-105907Y-228000D02*
X-99561Y-221653D01*
X-97000Y-305000D02*
X-74561Y-282561D01*
X-79561Y-272561D02*
Y-191990D01*
X-98600Y-291600D02*
X-79561Y-272561D01*
X-113700Y-291600D02*
X-98600D01*
X-74561Y-282561D02*
Y-194061D01*
X-99561Y-221653D02*
Y-183490D01*
X-61000Y-144929D01*
Y-137500D01*
X-56500Y-147500D02*
X-30000D01*
X-94561Y-185561D02*
X-56500Y-147500D01*
X-94561Y-236361D02*
Y-185561D01*
X-33286Y-152500D02*
X107500D01*
X-33286Y-152500D02*
X-33286Y-152500D01*
X-54213Y-152500D02*
X-33286D01*
X-89561Y-187848D02*
X-54213Y-152500D01*
X-89561Y-256561D02*
Y-187848D01*
X-84561Y-189919D02*
X-52142Y-157500D01*
X-84561Y-263361D02*
Y-189919D01*
X-50071Y-162500D02*
X318500D01*
X-79561Y-191990D02*
X-50071Y-162500D01*
X-48000Y-167500D02*
X328500D01*
X-74561Y-194061D02*
X-48000Y-167500D01*
X107500Y-152500D02*
X112000Y-148000D01*
X-99000Y-240800D02*
X-94561Y-236361D01*
X-99200Y-266200D02*
X-89561Y-256561D01*
X-100200Y-279000D02*
X-84561Y-263361D01*
X-113700Y-240800D02*
X-99000D01*
X-139100Y-266200D02*
X-138500Y-266800D01*
X-113700Y-266200D02*
X-99200D01*
X-28048Y-115000D02*
X-4500D01*
X-30000Y-116952D02*
X-28048Y-115000D01*
X341000Y-155000D02*
Y-137500D01*
X358000D01*
X327500Y-141000D02*
X341000Y-127500D01*
X-30048Y-127900D02*
Y-117000D01*
X332000Y-118000D02*
Y-80000D01*
Y-59000D02*
X332000Y-59000D01*
X332000Y-80000D02*
Y-59000D01*
X-97000Y-134000D02*
X-93500Y-137500D01*
X-75000D01*
X-61000D02*
X-39941D01*
X-30000Y-147500D02*
Y-127948D01*
X9500Y-127500D02*
X99399D01*
X117900Y-109000D01*
X-28000Y-104000D02*
X152200D01*
X117900Y-109000D02*
X141000D01*
X149500Y-117500D01*
X183200Y-135000D02*
X315000D01*
X152200Y-104000D02*
X183200Y-135000D01*
X-51000Y-127000D02*
X-28000Y-104000D01*
X-22500Y-147500D02*
X100000D01*
X-22500D02*
Y-127500D01*
X100000Y-147500D02*
X120000Y-127500D01*
X-91000Y-89000D02*
X65000D01*
X-103000Y-101000D02*
X-91000Y-89000D01*
X120000Y-127500D02*
X133500Y-141000D01*
X-125900Y-127000D02*
X-51000D01*
X-126500Y-101000D02*
X-103000D01*
X315000Y-135000D02*
X332000Y-118000D01*
X133500Y-141000D02*
X327500D01*
X65000Y-89000D02*
X79000D01*
X318500Y-162500D02*
X333000Y-148000D01*
X-139100Y-113800D02*
X-125900Y-127000D01*
X-30048Y-127900D02*
X-30000Y-127948D01*
X-30048Y-117000D02*
X-30000Y-116952D01*
X328500Y-167500D02*
X341000Y-155000D01*
X120000Y-117500D02*
X135500D01*
X341000Y-117500D02*
X358000D01*
X-7000Y-127500D02*
X-4500Y-125000D01*
X-22500Y-127500D02*
X-7000D01*
X-139100Y-88400D02*
X-126500Y-101000D01*
D32*
X-121001Y-374476D02*
D03*
Y-474476D02*
D03*
D33*
X-156001Y-374476D02*
D03*
Y-474476D02*
D03*
D34*
X45000Y-475000D02*
D03*
D35*
X25000D02*
D03*
X45000Y-495000D02*
D03*
X25000D02*
D03*
X45000Y-515000D02*
D03*
X25000D02*
D03*
X294000Y-1000D02*
D03*
X-93000Y-427000D02*
D03*
X103000Y-1000D02*
D03*
D36*
X406000Y-437200D02*
D03*
X456000D02*
D03*
X406000Y-488000D02*
D03*
X456000Y-462600D02*
D03*
X406000D02*
D03*
D37*
X456000Y-488000D02*
D03*
D38*
X-139100Y-88400D02*
D03*
X-113700D02*
D03*
Y-139200D02*
D03*
X-139100D02*
D03*
X-113700Y-113800D02*
D03*
X-139100D02*
D03*
Y-164600D02*
D03*
X-113700D02*
D03*
X-139100Y-190000D02*
D03*
X-113700D02*
D03*
X-139100Y-215400D02*
D03*
X-113700D02*
D03*
X-139100Y-240800D02*
D03*
X-113700D02*
D03*
X-139100Y-266200D02*
D03*
X-113700D02*
D03*
X-139100Y-291600D02*
D03*
D39*
X-113700D02*
D03*
D40*
X430000Y-260000D02*
D03*
Y-360000D02*
D03*
X12500Y-260000D02*
D03*
Y-360000D02*
D03*
X215000D02*
D03*
Y-260000D02*
D03*
D41*
X-96000Y-169000D02*
D03*
X-84000Y-158000D02*
D03*
X86000Y-113000D02*
D03*
X341000Y-137500D02*
D03*
Y-127500D02*
D03*
X23000Y-26000D02*
D03*
X304500Y-69500D02*
D03*
X289000Y-31000D02*
D03*
X52000Y0D02*
D03*
X65000Y-63000D02*
D03*
X175500Y-45000D02*
D03*
X-39941Y-137500D02*
D03*
X95000Y-113000D02*
D03*
X104000D02*
D03*
X-12700Y-139500D02*
D03*
X120000Y-127500D02*
D03*
X361000Y-14000D02*
D03*
X404000Y-107500D02*
D03*
X-97000Y-134000D02*
D03*
X178500Y-107500D02*
D03*
X312500Y-113000D02*
D03*
X303500D02*
D03*
X321500D02*
D03*
X-49000Y-193000D02*
D03*
X333000Y-148000D02*
D03*
X215000Y-177500D02*
D03*
X185000Y-230000D02*
D03*
X-97500Y-342500D02*
D03*
X-85000Y-367500D02*
D03*
X120000Y-117500D02*
D03*
X341000Y-117500D02*
D03*
X120000Y-137500D02*
D03*
X112000Y-148000D02*
D03*
X-15000Y-230000D02*
D03*
X-22500Y-127500D02*
D03*
X437500Y-180000D02*
D03*
X12500Y-177500D02*
D03*
X397500Y-229500D02*
D03*
X526500Y-78000D02*
D03*
X517500D02*
D03*
X508500D02*
D03*
X497500Y-127500D02*
D03*
X-30000Y-116952D02*
D03*
X163000Y-31000D02*
D03*
D42*
X498000Y-294615D02*
D03*
Y-284615D02*
D03*
X528000Y-294615D02*
D03*
X518000Y-274615D02*
D03*
X508000D02*
D03*
X415500Y-215500D02*
D03*
X350000Y-180000D02*
D03*
X130000D02*
D03*
X80500Y-284615D02*
D03*
Y-304615D02*
D03*
X110500Y-284615D02*
D03*
X80500Y-274615D02*
D03*
X90500D02*
D03*
X110500D02*
D03*
X308000D02*
D03*
X298000D02*
D03*
X288000D02*
D03*
X278000D02*
D03*
X308000Y-284615D02*
D03*
Y-294615D02*
D03*
Y-304615D02*
D03*
X278000D02*
D03*
Y-294615D02*
D03*
Y-284615D02*
D03*
X528000Y-274615D02*
D03*
Y-284615D02*
D03*
Y-304615D02*
D03*
X498000D02*
D03*
X28000Y-297115D02*
D03*
X-2000Y-307115D02*
D03*
X8000D02*
D03*
X18000D02*
D03*
X28000D02*
D03*
X225500Y-297115D02*
D03*
X195500Y-307115D02*
D03*
X205500D02*
D03*
X215500D02*
D03*
X225500D02*
D03*
X100500Y-274615D02*
D03*
X408000Y-287115D02*
D03*
X418000D02*
D03*
X428000D02*
D03*
X438000D02*
D03*
X408000Y-297115D02*
D03*
X418000D02*
D03*
X428000D02*
D03*
X438000D02*
D03*
X408000Y-307115D02*
D03*
X418000D02*
D03*
X428000D02*
D03*
X438000D02*
D03*
X-28000Y-476254D02*
D03*
X-16000D02*
D03*
X-64000D02*
D03*
X-52000D02*
D03*
X-40000D02*
D03*
X-28000Y-465836D02*
D03*
X-16000D02*
D03*
X-64000D02*
D03*
X-52000D02*
D03*
X-40000D02*
D03*
X-28000Y-455418D02*
D03*
X-16000D02*
D03*
X-64000D02*
D03*
X-52000D02*
D03*
X-40000D02*
D03*
X-52000Y-445000D02*
D03*
X-28000D02*
D03*
X-16000D02*
D03*
X-40000D02*
D03*
X-64000D02*
D03*
X170000Y-451254D02*
D03*
X182000D02*
D03*
X134000D02*
D03*
X146000D02*
D03*
X158000D02*
D03*
X170000Y-440836D02*
D03*
X182000D02*
D03*
X134000D02*
D03*
X146000D02*
D03*
X158000D02*
D03*
Y-430418D02*
D03*
X146000D02*
D03*
X134000D02*
D03*
X182000D02*
D03*
X170000D02*
D03*
X146000Y-420000D02*
D03*
X134000D02*
D03*
X182000D02*
D03*
X170000D02*
D03*
X158000D02*
D03*
X110500Y-304615D02*
D03*
X225500Y-287115D02*
D03*
X215500Y-297115D02*
D03*
Y-287115D02*
D03*
X205500Y-297115D02*
D03*
Y-287115D02*
D03*
X195500Y-297115D02*
D03*
Y-287115D02*
D03*
X110500Y-294615D02*
D03*
X80500D02*
D03*
X28000Y-287115D02*
D03*
X18000Y-297115D02*
D03*
Y-287115D02*
D03*
X8000Y-297115D02*
D03*
Y-287115D02*
D03*
X-2000Y-297115D02*
D03*
Y-287115D02*
D03*
X498000Y-274615D02*
D03*
D44*
X347600Y-297000D02*
D03*
X393400D02*
D03*
X95900D02*
D03*
X50100D02*
D03*
X-62400D02*
D03*
X-16600D02*
D03*
X293400D02*
D03*
X247600D02*
D03*
X135100D02*
D03*
X180900D02*
D03*
X513400D02*
D03*
X467600D02*
D03*
D45*
X370500Y-362000D02*
D03*
X73000D02*
D03*
X-39500D02*
D03*
X270500D02*
D03*
X158000D02*
D03*
X490500D02*
D03*
D46*
X50500Y-249115D02*
D03*
Y-230115D02*
D03*
X74500Y-239615D02*
D03*
X-39000D02*
D03*
X-63000Y-230115D02*
D03*
Y-249115D02*
D03*
X248000Y-249115D02*
D03*
Y-230115D02*
D03*
X272000Y-239615D02*
D03*
X242000Y-6000D02*
D03*
X266000Y-15500D02*
D03*
Y3500D02*
D03*
X135000Y-249115D02*
D03*
Y-230115D02*
D03*
X159000Y-239615D02*
D03*
X468000Y-249120D02*
D03*
Y-230120D02*
D03*
X492000Y-239620D02*
D03*
X372000Y-239615D02*
D03*
X348000Y-230115D02*
D03*
Y-249115D02*
D03*
D47*
X-62500Y-255865D02*
D03*
X50000D02*
D03*
X135000D02*
D03*
X247500D02*
D03*
X347500D02*
D03*
X467500D02*
D03*
D48*
X158000Y-417291D02*
D03*
D49*
X-39500Y-430617D02*
D03*
D50*
X95500Y-290865D02*
D03*
X293000D02*
D03*
X513000D02*
D03*
M02*
