G04 Layer_Physical_Order=2*
G04 Layer_Color=36540*
%FSLAX44Y44*%
%MOMM*%
G71*
G01*
G75*
%ADD25C,0.5000*%
%ADD32C,1.4000*%
%ADD34O,2.0000X1.5000*%
%ADD36C,2.0000*%
%ADD37R,2.0000X2.0000*%
%ADD40R,1.4000X1.4000*%
%ADD41C,0.7000*%
%ADD42C,0.8000*%
%ADD43C,1.0000*%
G36*
X228000Y488000D02*
Y484749D01*
X227074Y484565D01*
X224593Y482907D01*
X222935Y480426D01*
X222353Y477500D01*
X222935Y474574D01*
X224321Y472500D01*
X222935Y470426D01*
X222353Y467500D01*
X222935Y464574D01*
X224321Y462500D01*
X222935Y460426D01*
X222353Y457500D01*
X222000Y454647D01*
X219074Y454065D01*
X216593Y452407D01*
X214935Y449926D01*
X214353Y447000D01*
X214935Y444074D01*
X216593Y441593D01*
X219074Y439935D01*
X222000Y439353D01*
X224926Y439935D01*
X225000Y439984D01*
X228000Y438381D01*
X228000Y325000D01*
X228000Y117000D01*
X592000Y117000D01*
X592000Y96000D01*
X467000D01*
Y5098D01*
X38000D01*
Y15836D01*
X55000D01*
X59960Y16489D01*
X64582Y18404D01*
X68551Y21449D01*
X71596Y25418D01*
X73511Y30040D01*
X74164Y35000D01*
X73511Y39960D01*
X71596Y44582D01*
X68551Y48551D01*
X64582Y51596D01*
X59960Y53511D01*
X55000Y54164D01*
X38000D01*
Y97000D01*
X38000Y195000D01*
X145824Y195000D01*
Y131000D01*
X144000D01*
Y130824D01*
X141000Y129221D01*
X139292Y130362D01*
X135000Y131215D01*
X130708Y130362D01*
X127069Y127931D01*
X124638Y124292D01*
X123785Y120000D01*
X124638Y115708D01*
X127069Y112070D01*
X127922Y111500D01*
Y108500D01*
X127069Y107930D01*
X124638Y104292D01*
X123785Y100000D01*
X124638Y95708D01*
X127069Y92070D01*
X127922Y91500D01*
Y88500D01*
X127069Y87930D01*
X124638Y84292D01*
X123785Y80000D01*
X124638Y75708D01*
X127069Y72070D01*
X130708Y69638D01*
X135000Y68784D01*
X139292Y69638D01*
X142930Y72070D01*
X143500Y72922D01*
X146500D01*
X147070Y72070D01*
X150708Y69638D01*
X155000Y68784D01*
X159292Y69638D01*
X162931Y72070D01*
X165362Y75708D01*
X166215Y80000D01*
X165362Y84292D01*
X162931Y87930D01*
X162078Y88500D01*
Y91500D01*
X162931Y92070D01*
X165362Y95708D01*
X166215Y100000D01*
X165362Y104292D01*
X164220Y106000D01*
X165824Y109000D01*
X166000D01*
Y131000D01*
X164176D01*
Y195000D01*
X183000Y195000D01*
X183000Y326000D01*
X183000Y488000D01*
X228000Y488000D01*
D02*
G37*
G36*
X643000Y522500D02*
X643000Y325596D01*
X643000Y147750D01*
X467000Y147750D01*
X467000Y168000D01*
X603000Y168000D01*
X603000Y325596D01*
X602500Y326096D01*
Y458487D01*
X605500Y460251D01*
X607500Y459853D01*
X610426Y460435D01*
X612907Y462093D01*
X614565Y464574D01*
X615147Y467500D01*
X614565Y470426D01*
X612907Y472907D01*
X610426Y474565D01*
X607500Y475147D01*
X605500Y474749D01*
X602500Y476513D01*
Y522500D01*
X643000Y522500D01*
D02*
G37*
G36*
X575304Y608933D02*
X576102Y608603D01*
X580232Y605843D01*
X580843Y605232D01*
X583603Y601102D01*
X583933Y600304D01*
X584902Y595432D01*
Y595001D01*
X584902Y595000D01*
Y545000D01*
X585290Y543049D01*
X586395Y541395D01*
X588049Y540290D01*
X590000Y539902D01*
Y520000D01*
X132500Y520000D01*
X132500Y421023D01*
X129764Y420467D01*
X129500Y420524D01*
X127907Y422907D01*
X125426Y424565D01*
X122500Y425147D01*
X119574Y424565D01*
X117093Y422907D01*
X115435Y420426D01*
X114952Y418000D01*
X6341Y418000D01*
X5431Y421000D01*
X7091Y422109D01*
X9633Y425913D01*
X10525Y430400D01*
X9633Y434887D01*
X7091Y438691D01*
X3287Y441233D01*
X1588Y441571D01*
Y444629D01*
X3287Y444967D01*
X7091Y447509D01*
X9633Y451313D01*
X10151Y453920D01*
X13000Y453353D01*
X15926Y453935D01*
X16373Y454233D01*
X19373Y452630D01*
Y440581D01*
X18935Y439926D01*
X18353Y437000D01*
X18935Y434074D01*
X20593Y431593D01*
X23074Y429935D01*
X26000Y429353D01*
X28926Y429935D01*
X31407Y431593D01*
X33065Y434074D01*
X33647Y437000D01*
X33065Y439926D01*
X32627Y440581D01*
Y477000D01*
X32123Y479536D01*
X30686Y481686D01*
X26486Y485886D01*
X24336Y487323D01*
X21800Y487827D01*
X8203D01*
X7091Y489491D01*
X3287Y492033D01*
X1588Y492371D01*
Y495429D01*
X3287Y495767D01*
X7091Y498309D01*
X9633Y502113D01*
X9730Y502600D01*
X-3700D01*
Y510600D01*
X9730D01*
X9633Y511087D01*
X7091Y514891D01*
X3287Y517433D01*
X-1200Y518325D01*
X-3700D01*
Y539902D01*
X0D01*
X1951Y540290D01*
X3605Y541395D01*
X4710Y543049D01*
X5098Y545000D01*
Y595000D01*
X5098Y595001D01*
Y595432D01*
X6067Y600304D01*
X6397Y601101D01*
X9158Y605232D01*
X9768Y605843D01*
X13899Y608603D01*
X14696Y608933D01*
X19569Y609902D01*
X19999D01*
X20000Y609902D01*
X570000D01*
X570001Y609902D01*
X570432D01*
X575304Y608933D01*
D02*
G37*
G36*
X442000Y475000D02*
X426000D01*
X426000Y326000D01*
X426000Y196000D01*
X461000D01*
Y143000D01*
X592000D01*
Y122000D01*
X233000D01*
Y196000D01*
X380000D01*
X380000Y326000D01*
Y488000D01*
X442000Y488000D01*
X442000Y475000D01*
D02*
G37*
%LPC*%
G36*
X273000Y573647D02*
X270074Y573065D01*
X267593Y571407D01*
X265935Y568926D01*
X265353Y566000D01*
X265935Y563074D01*
X267593Y560593D01*
X270074Y558935D01*
X273000Y558353D01*
X275926Y558935D01*
X278407Y560593D01*
X280065Y563074D01*
X280647Y566000D01*
X280065Y568926D01*
X278407Y571407D01*
X275926Y573065D01*
X273000Y573647D01*
D02*
G37*
G36*
X55000Y599164D02*
X35000D01*
X30040Y598511D01*
X25418Y596596D01*
X21449Y593551D01*
X18404Y589582D01*
X16489Y584960D01*
X15836Y580000D01*
X16489Y575040D01*
X18404Y570418D01*
X21449Y566449D01*
X25418Y563404D01*
X30040Y561489D01*
X35000Y560836D01*
X55000D01*
X59960Y561489D01*
X64582Y563404D01*
X68551Y566449D01*
X71596Y570418D01*
X73511Y575040D01*
X74164Y580000D01*
X73511Y584960D01*
X71596Y589582D01*
X68551Y593551D01*
X64582Y596596D01*
X59960Y598511D01*
X55000Y599164D01*
D02*
G37*
G36*
X80000Y485695D02*
X77074Y485113D01*
X74593Y483455D01*
X72935Y480974D01*
X72353Y478048D01*
X72935Y475122D01*
X74593Y472641D01*
X77074Y470983D01*
X80000Y470401D01*
X79873Y467600D01*
X79853Y467500D01*
X80435Y464574D01*
X82093Y462093D01*
X84574Y460435D01*
X87500Y459853D01*
X87701Y459893D01*
X88148Y459634D01*
X90010Y457294D01*
X89653Y455500D01*
X90235Y452574D01*
X91893Y450093D01*
X94374Y448435D01*
X97300Y447853D01*
X100226Y448435D01*
X102707Y450093D01*
X104365Y452574D01*
X104947Y455500D01*
X104365Y458426D01*
X102707Y460907D01*
X100226Y462565D01*
X97300Y463147D01*
X97099Y463107D01*
X96652Y463366D01*
X94790Y465706D01*
X95147Y467500D01*
X94565Y470426D01*
X92907Y472907D01*
X90426Y474565D01*
X87500Y475147D01*
X87627Y477948D01*
X87647Y478048D01*
X87065Y480974D01*
X85407Y483455D01*
X82926Y485113D01*
X80000Y485695D01*
D02*
G37*
G36*
X70059Y465147D02*
X67132Y464565D01*
X64651Y462907D01*
X62994Y460426D01*
X62412Y457500D01*
X62994Y454574D01*
X64651Y452093D01*
X67132Y450435D01*
X70059Y449853D01*
X72985Y450435D01*
X75466Y452093D01*
X77123Y454574D01*
X77706Y457500D01*
X77123Y460426D01*
X75466Y462907D01*
X72985Y464565D01*
X70059Y465147D01*
D02*
G37*
G36*
X555000Y599164D02*
X535000D01*
X530040Y598511D01*
X525418Y596596D01*
X521449Y593551D01*
X518404Y589582D01*
X516489Y584960D01*
X515836Y580000D01*
X516489Y575040D01*
X518404Y570418D01*
X521449Y566449D01*
X525418Y563404D01*
X530040Y561489D01*
X535000Y560836D01*
X555000D01*
X559960Y561489D01*
X564582Y563404D01*
X568551Y566449D01*
X571596Y570418D01*
X573511Y575040D01*
X574164Y580000D01*
X573511Y584960D01*
X571596Y589582D01*
X568551Y593551D01*
X564582Y596596D01*
X559960Y598511D01*
X555000Y599164D01*
D02*
G37*
G36*
X209000Y590000D02*
X202580D01*
X202638Y589708D01*
X205070Y586069D01*
X208708Y583638D01*
X209000Y583580D01*
Y590000D01*
D02*
G37*
G36*
Y604420D02*
X208708Y604362D01*
X205070Y601931D01*
X202638Y598292D01*
X202580Y598000D01*
X209000D01*
Y604420D01*
D02*
G37*
G36*
X217000Y604420D02*
Y598000D01*
X223420D01*
X223362Y598292D01*
X220931Y601931D01*
X217292Y604362D01*
X217000Y604420D01*
D02*
G37*
G36*
X223420Y590000D02*
X217000D01*
Y583580D01*
X217292Y583638D01*
X220931Y586069D01*
X223362Y589708D01*
X223420Y590000D01*
D02*
G37*
G36*
X132000Y576647D02*
X129074Y576065D01*
X126593Y574407D01*
X124935Y571926D01*
X124353Y569000D01*
X124935Y566074D01*
X126593Y563593D01*
X129074Y561935D01*
X132000Y561353D01*
X134926Y561935D01*
X137407Y563593D01*
X139065Y566074D01*
X139647Y569000D01*
X139065Y571926D01*
X137407Y574407D01*
X134926Y576065D01*
X132000Y576647D01*
D02*
G37*
G36*
X471000Y588647D02*
X468074Y588065D01*
X465593Y586407D01*
X463935Y583926D01*
X463353Y581000D01*
X463935Y578074D01*
X465593Y575593D01*
X468074Y573935D01*
X471000Y573353D01*
X473926Y573935D01*
X476407Y575593D01*
X478065Y578074D01*
X478647Y581000D01*
X478065Y583926D01*
X476407Y586407D01*
X473926Y588065D01*
X471000Y588647D01*
D02*
G37*
G36*
X404000Y605215D02*
X399708Y604362D01*
X396069Y601931D01*
X393638Y598292D01*
X392785Y594000D01*
X393638Y589708D01*
X396069Y586069D01*
X399708Y583638D01*
X404000Y582785D01*
X408292Y583638D01*
X411931Y586069D01*
X414362Y589708D01*
X415215Y594000D01*
X414362Y598292D01*
X411931Y601931D01*
X408292Y604362D01*
X404000Y605215D01*
D02*
G37*
%LPD*%
D25*
X61000Y402000D02*
X155000D01*
X-3700Y481200D02*
X21800D01*
X26000Y477000D01*
Y437000D02*
Y477000D01*
D32*
X213000Y594000D02*
D03*
D34*
X-3700Y481200D02*
D03*
Y506600D02*
D03*
D36*
X516000Y132400D02*
D03*
X566000D02*
D03*
X516000Y107000D02*
D03*
X566000Y157800D02*
D03*
X516000D02*
D03*
D37*
X566000Y107000D02*
D03*
D40*
X155000Y120000D02*
D03*
D41*
X618500Y517000D02*
D03*
X627500D02*
D03*
X636500D02*
D03*
X61000Y402000D02*
D03*
X431500Y482000D02*
D03*
X413500D02*
D03*
X422500D02*
D03*
X214000D02*
D03*
X205000D02*
D03*
X285500Y550000D02*
D03*
X175000Y532000D02*
D03*
X162000Y595000D02*
D03*
X399000Y564000D02*
D03*
X414500Y525500D02*
D03*
X14000Y426000D02*
D03*
X26000Y437000D02*
D03*
X196000Y482000D02*
D03*
D42*
X608000Y320385D02*
D03*
X190500Y300385D02*
D03*
X220500D02*
D03*
Y290385D02*
D03*
X268000Y175000D02*
D03*
X280000D02*
D03*
X292000D02*
D03*
X244000D02*
D03*
X256000D02*
D03*
X280000Y164582D02*
D03*
X292000D02*
D03*
X244000D02*
D03*
X256000D02*
D03*
X268000D02*
D03*
Y154164D02*
D03*
X256000D02*
D03*
X244000D02*
D03*
X292000D02*
D03*
X280000D02*
D03*
X268000Y143746D02*
D03*
X256000D02*
D03*
X244000D02*
D03*
X292000D02*
D03*
X280000D02*
D03*
X46000Y150000D02*
D03*
X70000D02*
D03*
X94000D02*
D03*
X82000D02*
D03*
X58000D02*
D03*
X70000Y139582D02*
D03*
X58000D02*
D03*
X46000D02*
D03*
X94000D02*
D03*
X82000D02*
D03*
X70000Y129164D02*
D03*
X58000D02*
D03*
X46000D02*
D03*
X94000D02*
D03*
X82000D02*
D03*
X70000Y118746D02*
D03*
X58000D02*
D03*
X46000D02*
D03*
X94000D02*
D03*
X82000D02*
D03*
X210500Y320385D02*
D03*
X608000Y290385D02*
D03*
X638000D02*
D03*
Y310385D02*
D03*
Y320385D02*
D03*
X388000Y310385D02*
D03*
Y300385D02*
D03*
Y290385D02*
D03*
X418000D02*
D03*
Y300385D02*
D03*
Y310385D02*
D03*
X388000Y320385D02*
D03*
X398000D02*
D03*
X408000D02*
D03*
X418000D02*
D03*
X220500D02*
D03*
X200500D02*
D03*
X190500D02*
D03*
X220500Y310385D02*
D03*
X190500Y290385D02*
D03*
Y310385D02*
D03*
X240000Y415000D02*
D03*
X460000D02*
D03*
X525500Y379500D02*
D03*
X618000Y320385D02*
D03*
X628000D02*
D03*
X638000Y300385D02*
D03*
X608000Y310385D02*
D03*
Y300385D02*
D03*
D43*
X460000Y415000D02*
X470000Y425000D01*
X240000Y415000D02*
X247500Y422500D01*
Y499000D01*
X525500Y379500D02*
Y499000D01*
X470000Y425000D02*
Y499000D01*
X247500D02*
X525500D01*
X155000D02*
X247500D01*
X155000Y120000D02*
Y402000D01*
Y499000D01*
M02*
