G04 Layer_Physical_Order=2*
G04 Layer_Color=36540*
%FSLAX44Y44*%
%MOMM*%
G71*
G01*
G75*
%ADD24C,0.5000*%
%ADD34R,1.4000X1.4000*%
%ADD35C,1.4000*%
%ADD36C,2.0000*%
%ADD37R,2.0000X2.0000*%
%ADD38O,2.0000X1.6000*%
%ADD41C,0.7000*%
%ADD42C,0.8000*%
%ADD43C,1.0000*%
G36*
X118000Y-107000D02*
Y-110251D01*
X117074Y-110435D01*
X114593Y-112093D01*
X112935Y-114574D01*
X112353Y-117500D01*
X112935Y-120426D01*
X114321Y-122500D01*
X112935Y-124574D01*
X112353Y-127500D01*
X112935Y-130426D01*
X114321Y-132500D01*
X112935Y-134574D01*
X112353Y-137500D01*
X112000Y-140353D01*
X109074Y-140935D01*
X106593Y-142593D01*
X104935Y-145074D01*
X104353Y-148000D01*
X104935Y-150926D01*
X106593Y-153407D01*
X109074Y-155065D01*
X112000Y-155647D01*
X114926Y-155065D01*
X115000Y-155016D01*
X118000Y-156619D01*
X118000Y-270000D01*
X118000Y-478000D01*
X482000Y-478000D01*
X482000Y-499000D01*
X357000D01*
Y-589902D01*
X-72000D01*
Y-579164D01*
X-55000D01*
X-50040Y-578511D01*
X-45418Y-576596D01*
X-41449Y-573551D01*
X-38403Y-569582D01*
X-36489Y-564960D01*
X-35836Y-560000D01*
X-36489Y-555040D01*
X-38403Y-550418D01*
X-41449Y-546449D01*
X-45418Y-543404D01*
X-50040Y-541489D01*
X-55000Y-540836D01*
X-72000D01*
Y-498000D01*
X-72000Y-400000D01*
X35824Y-400000D01*
Y-464000D01*
X34000D01*
Y-464176D01*
X31000Y-465779D01*
X29292Y-464638D01*
X25000Y-463784D01*
X20708Y-464638D01*
X17069Y-467069D01*
X14638Y-470708D01*
X13785Y-475000D01*
X14638Y-479292D01*
X17069Y-482930D01*
X17922Y-483500D01*
Y-486500D01*
X17069Y-487070D01*
X14638Y-490708D01*
X13785Y-495000D01*
X14638Y-499292D01*
X17069Y-502930D01*
X17922Y-503500D01*
Y-506500D01*
X17069Y-507070D01*
X14638Y-510708D01*
X13785Y-515000D01*
X14638Y-519292D01*
X17069Y-522931D01*
X20708Y-525362D01*
X25000Y-526216D01*
X29292Y-525362D01*
X32931Y-522931D01*
X33500Y-522078D01*
X36500D01*
X37069Y-522931D01*
X40708Y-525362D01*
X45000Y-526216D01*
X49292Y-525362D01*
X52930Y-522931D01*
X55362Y-519292D01*
X56216Y-515000D01*
X55362Y-510708D01*
X52930Y-507070D01*
X52078Y-506500D01*
Y-503500D01*
X52930Y-502930D01*
X55362Y-499292D01*
X56216Y-495000D01*
X55362Y-490708D01*
X54220Y-489000D01*
X55824Y-486000D01*
X56000D01*
Y-464000D01*
X54176D01*
Y-400000D01*
X73000Y-400000D01*
X73000Y-269000D01*
X73000Y-107000D01*
X118000Y-107000D01*
D02*
G37*
G36*
X533000Y-72500D02*
X533000Y-269404D01*
X533000Y-447250D01*
X357000Y-447250D01*
X357000Y-427000D01*
X493000Y-427000D01*
X493000Y-269404D01*
X492500Y-268904D01*
Y-136513D01*
X495500Y-134749D01*
X497500Y-135147D01*
X500426Y-134565D01*
X502907Y-132907D01*
X504565Y-130426D01*
X505147Y-127500D01*
X504565Y-124574D01*
X502907Y-122093D01*
X500426Y-120435D01*
X497500Y-119853D01*
X495500Y-120251D01*
X492500Y-118487D01*
Y-72500D01*
X533000Y-72500D01*
D02*
G37*
G36*
X465304Y13933D02*
X466102Y13603D01*
X470232Y10842D01*
X470843Y10232D01*
X473603Y6102D01*
X473933Y5304D01*
X474902Y432D01*
Y1D01*
X474902Y0D01*
Y-50000D01*
X475290Y-51951D01*
X476395Y-53605D01*
X478049Y-54710D01*
X480000Y-55098D01*
Y-75000D01*
X22500Y-75000D01*
X22500Y-173977D01*
X19764Y-174533D01*
X19500Y-174476D01*
X17907Y-172093D01*
X15426Y-170435D01*
X12500Y-169853D01*
X9574Y-170435D01*
X7093Y-172093D01*
X5435Y-174574D01*
X4952Y-177000D01*
X-103259Y-177000D01*
X-104169Y-174000D01*
X-103048Y-173251D01*
X-100396Y-169282D01*
X-99465Y-164600D01*
X-100396Y-159918D01*
X-103048Y-155948D01*
X-106711Y-153501D01*
X-106875Y-151900D01*
X-106711Y-150299D01*
X-103048Y-147851D01*
X-100396Y-143882D01*
X-99839Y-141082D01*
X-97000Y-141647D01*
X-94074Y-141065D01*
X-93627Y-140767D01*
X-90627Y-142370D01*
Y-154419D01*
X-91065Y-155074D01*
X-91647Y-158000D01*
X-91065Y-160926D01*
X-89407Y-163407D01*
X-86926Y-165065D01*
X-84000Y-165647D01*
X-81074Y-165065D01*
X-78593Y-163407D01*
X-76935Y-160926D01*
X-76353Y-158000D01*
X-76935Y-155074D01*
X-77373Y-154419D01*
Y-118000D01*
X-77877Y-115464D01*
X-79314Y-113314D01*
X-83514Y-109114D01*
X-85664Y-107677D01*
X-88200Y-107173D01*
X-101696D01*
X-103048Y-105148D01*
X-106711Y-102701D01*
X-106875Y-101100D01*
X-106711Y-99499D01*
X-103048Y-97051D01*
X-100396Y-93082D01*
X-100261Y-92400D01*
X-113700D01*
Y-84400D01*
X-100261D01*
X-100396Y-83718D01*
X-103048Y-79749D01*
X-107018Y-77096D01*
X-111700Y-76165D01*
X-113700D01*
Y-55098D01*
X-110000D01*
X-108049Y-54710D01*
X-106395Y-53605D01*
X-105290Y-51951D01*
X-104902Y-50000D01*
Y0D01*
X-104902Y1D01*
Y432D01*
X-103933Y5304D01*
X-103603Y6101D01*
X-100843Y10232D01*
X-100232Y10842D01*
X-96102Y13603D01*
X-95304Y13933D01*
X-90431Y14902D01*
X-90001D01*
X-90000Y14902D01*
X460000D01*
X460001Y14902D01*
X460432D01*
X465304Y13933D01*
D02*
G37*
G36*
X332000Y-120000D02*
X316000D01*
X316000Y-269000D01*
X316000Y-399000D01*
X351000D01*
Y-452000D01*
X482000D01*
Y-473000D01*
X123000D01*
Y-399000D01*
X270000D01*
X270000Y-269000D01*
Y-107000D01*
X332000Y-107000D01*
X332000Y-120000D01*
D02*
G37*
%LPC*%
G36*
X163000Y-23353D02*
X160074Y-23935D01*
X157593Y-25593D01*
X155935Y-28074D01*
X155353Y-31000D01*
X155935Y-33926D01*
X157593Y-36407D01*
X160074Y-38065D01*
X163000Y-38647D01*
X165926Y-38065D01*
X168407Y-36407D01*
X170065Y-33926D01*
X170647Y-31000D01*
X170065Y-28074D01*
X168407Y-25593D01*
X165926Y-23935D01*
X163000Y-23353D01*
D02*
G37*
G36*
X-55000Y4164D02*
X-75000D01*
X-79960Y3511D01*
X-84582Y1596D01*
X-88551Y-1449D01*
X-91596Y-5418D01*
X-93511Y-10040D01*
X-94164Y-15000D01*
X-93511Y-19960D01*
X-91596Y-24582D01*
X-88551Y-28551D01*
X-84582Y-31597D01*
X-79960Y-33511D01*
X-75000Y-34164D01*
X-55000D01*
X-50040Y-33511D01*
X-45418Y-31597D01*
X-41449Y-28551D01*
X-38403Y-24582D01*
X-36489Y-19960D01*
X-35836Y-15000D01*
X-36489Y-10040D01*
X-38403Y-5418D01*
X-41449Y-1449D01*
X-45418Y1596D01*
X-50040Y3511D01*
X-55000Y4164D01*
D02*
G37*
G36*
X-30000Y-109305D02*
X-32926Y-109887D01*
X-35407Y-111545D01*
X-37065Y-114026D01*
X-37647Y-116952D01*
X-37065Y-119878D01*
X-35407Y-122359D01*
X-32926Y-124017D01*
X-30000Y-124599D01*
X-30127Y-127400D01*
X-30147Y-127500D01*
X-29565Y-130426D01*
X-27907Y-132907D01*
X-25426Y-134565D01*
X-22500Y-135147D01*
X-22299Y-135107D01*
X-21852Y-135366D01*
X-19990Y-137706D01*
X-20347Y-139500D01*
X-19765Y-142426D01*
X-18107Y-144907D01*
X-15626Y-146565D01*
X-12700Y-147147D01*
X-9774Y-146565D01*
X-7293Y-144907D01*
X-5635Y-142426D01*
X-5053Y-139500D01*
X-5635Y-136574D01*
X-7293Y-134093D01*
X-9774Y-132435D01*
X-12700Y-131853D01*
X-12901Y-131893D01*
X-13348Y-131634D01*
X-15210Y-129293D01*
X-14853Y-127500D01*
X-15435Y-124574D01*
X-17093Y-122093D01*
X-19574Y-120435D01*
X-22500Y-119853D01*
X-22373Y-117052D01*
X-22353Y-116952D01*
X-22935Y-114026D01*
X-24593Y-111545D01*
X-27074Y-109887D01*
X-30000Y-109305D01*
D02*
G37*
G36*
X-39941Y-129853D02*
X-42868Y-130435D01*
X-45349Y-132093D01*
X-47006Y-134574D01*
X-47588Y-137500D01*
X-47006Y-140426D01*
X-45349Y-142907D01*
X-42868Y-144565D01*
X-39941Y-145147D01*
X-37015Y-144565D01*
X-34534Y-142907D01*
X-32877Y-140426D01*
X-32294Y-137500D01*
X-32877Y-134574D01*
X-34534Y-132093D01*
X-37015Y-130435D01*
X-39941Y-129853D01*
D02*
G37*
G36*
X445000Y4164D02*
X425000D01*
X420040Y3511D01*
X415418Y1596D01*
X411449Y-1449D01*
X408404Y-5418D01*
X406489Y-10040D01*
X405836Y-15000D01*
X406489Y-19960D01*
X408404Y-24582D01*
X411449Y-28551D01*
X415418Y-31597D01*
X420040Y-33511D01*
X425000Y-34164D01*
X445000D01*
X449960Y-33511D01*
X454582Y-31597D01*
X458551Y-28551D01*
X461596Y-24582D01*
X463511Y-19960D01*
X464164Y-15000D01*
X463511Y-10040D01*
X461596Y-5418D01*
X458551Y-1449D01*
X454582Y1596D01*
X449960Y3511D01*
X445000Y4164D01*
D02*
G37*
G36*
X99000Y-5000D02*
X92580D01*
X92638Y-5292D01*
X95070Y-8931D01*
X98708Y-11362D01*
X99000Y-11420D01*
Y-5000D01*
D02*
G37*
G36*
Y9420D02*
X98708Y9362D01*
X95070Y6931D01*
X92638Y3292D01*
X92580Y3000D01*
X99000D01*
Y9420D01*
D02*
G37*
G36*
X107000Y9420D02*
Y3000D01*
X113420D01*
X113362Y3292D01*
X110931Y6931D01*
X107292Y9362D01*
X107000Y9420D01*
D02*
G37*
G36*
X113420Y-5000D02*
X107000D01*
Y-11420D01*
X107292Y-11362D01*
X110931Y-8931D01*
X113362Y-5292D01*
X113420Y-5000D01*
D02*
G37*
G36*
X23000Y-18353D02*
X20074Y-18935D01*
X17593Y-20593D01*
X15935Y-23074D01*
X15353Y-26000D01*
X15935Y-28926D01*
X17593Y-31407D01*
X20074Y-33065D01*
X23000Y-33647D01*
X25926Y-33065D01*
X28407Y-31407D01*
X30065Y-28926D01*
X30647Y-26000D01*
X30065Y-23074D01*
X28407Y-20593D01*
X25926Y-18935D01*
X23000Y-18353D01*
D02*
G37*
G36*
X361000Y-6353D02*
X358074Y-6935D01*
X355593Y-8593D01*
X353935Y-11074D01*
X353353Y-14000D01*
X353935Y-16926D01*
X355593Y-19407D01*
X358074Y-21065D01*
X361000Y-21647D01*
X363926Y-21065D01*
X366407Y-19407D01*
X368065Y-16926D01*
X368647Y-14000D01*
X368065Y-11074D01*
X366407Y-8593D01*
X363926Y-6935D01*
X361000Y-6353D01*
D02*
G37*
G36*
X294000Y10216D02*
X289708Y9362D01*
X286070Y6931D01*
X283638Y3292D01*
X282785Y-1000D01*
X283638Y-5292D01*
X286070Y-8931D01*
X289708Y-11362D01*
X294000Y-12215D01*
X298292Y-11362D01*
X301931Y-8931D01*
X304362Y-5292D01*
X305215Y-1000D01*
X304362Y3292D01*
X301931Y6931D01*
X298292Y9362D01*
X294000Y10216D01*
D02*
G37*
%LPD*%
D24*
X-84000Y-158000D02*
Y-118000D01*
X-88200Y-113800D02*
X-84000Y-118000D01*
X-113700Y-113800D02*
X-88200D01*
X-49000Y-193000D02*
X45000D01*
D34*
Y-475000D02*
D03*
D35*
X103000Y-1000D02*
D03*
D36*
X406000Y-437200D02*
D03*
X456000D02*
D03*
X406000Y-488000D02*
D03*
X456000Y-462600D02*
D03*
X406000D02*
D03*
D37*
X456000Y-488000D02*
D03*
D38*
X-113700Y-88400D02*
D03*
Y-113800D02*
D03*
D41*
X-96000Y-169000D02*
D03*
X-84000Y-158000D02*
D03*
X86000Y-113000D02*
D03*
X304500Y-69500D02*
D03*
X289000Y-31000D02*
D03*
X52000Y0D02*
D03*
X65000Y-63000D02*
D03*
X175500Y-45000D02*
D03*
X95000Y-113000D02*
D03*
X104000D02*
D03*
X312500D02*
D03*
X303500D02*
D03*
X321500D02*
D03*
X-49000Y-193000D02*
D03*
X526500Y-78000D02*
D03*
X517500D02*
D03*
X508500D02*
D03*
D42*
X498000Y-294615D02*
D03*
Y-284615D02*
D03*
X528000Y-294615D02*
D03*
X518000Y-274615D02*
D03*
X508000D02*
D03*
X415500Y-215500D02*
D03*
X350000Y-180000D02*
D03*
X130000D02*
D03*
X80500Y-284615D02*
D03*
Y-304615D02*
D03*
X110500Y-284615D02*
D03*
X80500Y-274615D02*
D03*
X90500D02*
D03*
X110500D02*
D03*
X308000D02*
D03*
X298000D02*
D03*
X288000D02*
D03*
X278000D02*
D03*
X308000Y-284615D02*
D03*
Y-294615D02*
D03*
Y-304615D02*
D03*
X278000D02*
D03*
Y-294615D02*
D03*
Y-284615D02*
D03*
X528000Y-274615D02*
D03*
Y-284615D02*
D03*
Y-304615D02*
D03*
X498000D02*
D03*
X100500Y-274615D02*
D03*
X-28000Y-476254D02*
D03*
X-16000D02*
D03*
X-64000D02*
D03*
X-52000D02*
D03*
X-40000D02*
D03*
X-28000Y-465836D02*
D03*
X-16000D02*
D03*
X-64000D02*
D03*
X-52000D02*
D03*
X-40000D02*
D03*
X-28000Y-455418D02*
D03*
X-16000D02*
D03*
X-64000D02*
D03*
X-52000D02*
D03*
X-40000D02*
D03*
X-52000Y-445000D02*
D03*
X-28000D02*
D03*
X-16000D02*
D03*
X-40000D02*
D03*
X-64000D02*
D03*
X170000Y-451254D02*
D03*
X182000D02*
D03*
X134000D02*
D03*
X146000D02*
D03*
X158000D02*
D03*
X170000Y-440836D02*
D03*
X182000D02*
D03*
X134000D02*
D03*
X146000D02*
D03*
X158000D02*
D03*
Y-430418D02*
D03*
X146000D02*
D03*
X134000D02*
D03*
X182000D02*
D03*
X170000D02*
D03*
X146000Y-420000D02*
D03*
X134000D02*
D03*
X182000D02*
D03*
X170000D02*
D03*
X158000D02*
D03*
X110500Y-304615D02*
D03*
Y-294615D02*
D03*
X80500D02*
D03*
X498000Y-274615D02*
D03*
D43*
X45000Y-193000D02*
Y-96000D01*
Y-475000D02*
Y-193000D01*
Y-96000D02*
X137500D01*
X415500D01*
X360000Y-170000D02*
Y-96000D01*
X415500Y-215500D02*
Y-96000D01*
X137500Y-172500D02*
Y-96000D01*
X130000Y-180000D02*
X137500Y-172500D01*
X350000Y-180000D02*
X360000Y-170000D01*
M02*
