G04 Layer_Color=8388736*
%FSLAX44Y44*%
%MOMM*%
G71*
G01*
G75*
%ADD59R,1.6800X1.4800*%
%ADD60R,1.0300X1.0300*%
%ADD61R,0.8300X2.1800*%
%ADD62R,2.1800X0.8300*%
%ADD63R,2.1500X0.8000*%
%ADD64C,2.0000*%
%ADD65R,2.6800X2.4800*%
%ADD66R,0.7800X1.1800*%
%ADD67R,1.0300X1.0300*%
%ADD68R,3.4800X1.1800*%
%ADD69R,1.7800X1.3800*%
%ADD70R,2.7800X1.2800*%
%ADD71R,1.3800X1.7800*%
%ADD72R,3.3800X1.7800*%
%ADD73R,1.4800X1.6800*%
%ADD74C,1.5800*%
%ADD75R,2.1800X1.6800*%
%ADD76O,2.1800X1.6800*%
%ADD77C,2.5800*%
%ADD78C,2.1800*%
%ADD79R,2.1800X2.1800*%
%ADD80C,1.7800*%
%ADD81R,1.7800X1.7800*%
%ADD82O,5.4000X3.4000*%
%ADD83R,1.5800X1.5800*%
D59*
X-46000Y161500D02*
D03*
Y142500D02*
D03*
X396157Y487000D02*
D03*
Y468000D02*
D03*
X550000Y360500D02*
D03*
Y379500D02*
D03*
X351000Y383500D02*
D03*
Y402500D02*
D03*
X135500Y383500D02*
D03*
Y402500D02*
D03*
X177500Y487000D02*
D03*
Y468000D02*
D03*
D60*
X-46000Y195000D02*
D03*
Y181000D02*
D03*
X449000Y548000D02*
D03*
Y534000D02*
D03*
X227500Y548000D02*
D03*
Y534000D02*
D03*
X49500Y376500D02*
D03*
Y362500D02*
D03*
X24500Y376500D02*
D03*
Y362500D02*
D03*
X37000Y362500D02*
D03*
Y376500D02*
D03*
D61*
X525000Y532500D02*
D03*
X535000Y412500D02*
D03*
X525000D02*
D03*
X535000Y532500D02*
D03*
X312500D02*
D03*
X302500Y412500D02*
D03*
X312500D02*
D03*
X302500Y532500D02*
D03*
X85000Y532500D02*
D03*
X95000Y412500D02*
D03*
X85000D02*
D03*
X95000Y532500D02*
D03*
D62*
X470000Y497500D02*
D03*
Y487500D02*
D03*
Y477500D02*
D03*
Y467500D02*
D03*
Y447500D02*
D03*
X590000D02*
D03*
Y457500D02*
D03*
Y467500D02*
D03*
Y477500D02*
D03*
Y487500D02*
D03*
Y497500D02*
D03*
X367500D02*
D03*
Y487500D02*
D03*
Y477500D02*
D03*
Y467500D02*
D03*
Y457500D02*
D03*
Y447500D02*
D03*
X247500D02*
D03*
Y467500D02*
D03*
Y477500D02*
D03*
Y487500D02*
D03*
Y497500D02*
D03*
X30000Y497500D02*
D03*
Y487500D02*
D03*
Y477500D02*
D03*
Y467500D02*
D03*
Y447500D02*
D03*
X150000D02*
D03*
Y457500D02*
D03*
Y467500D02*
D03*
Y477500D02*
D03*
Y487500D02*
D03*
Y497500D02*
D03*
D63*
X470000Y457500D02*
D03*
X247500D02*
D03*
X30000Y457500D02*
D03*
D64*
X110000Y595000D02*
D03*
X620000Y104292D02*
D03*
D65*
X371000Y225000D02*
D03*
X414000D02*
D03*
X491500D02*
D03*
X448500D02*
D03*
X171000D02*
D03*
X214000D02*
D03*
D66*
X627000Y439000D02*
D03*
X636500Y415000D02*
D03*
X617500D02*
D03*
X422500Y447000D02*
D03*
X432000Y423000D02*
D03*
X413000D02*
D03*
X205000Y447000D02*
D03*
X214500Y423000D02*
D03*
X195500D02*
D03*
X34000Y419000D02*
D03*
X43500Y395000D02*
D03*
X24500D02*
D03*
D67*
X580000Y415000D02*
D03*
X594000D02*
D03*
X351000Y423000D02*
D03*
X365000D02*
D03*
X135500D02*
D03*
X149500D02*
D03*
X132000Y557500D02*
D03*
X118000D02*
D03*
X243000Y427600D02*
D03*
X257000D02*
D03*
D68*
X66059Y206500D02*
D03*
Y268500D02*
D03*
X25000D02*
D03*
Y206500D02*
D03*
D69*
X471000Y566000D02*
D03*
Y534000D02*
D03*
X247500Y566000D02*
D03*
Y534000D02*
D03*
D70*
X580000Y360000D02*
D03*
Y395000D02*
D03*
X627500Y502500D02*
D03*
Y467500D02*
D03*
X385000Y367500D02*
D03*
Y402500D02*
D03*
X165000Y367500D02*
D03*
Y402500D02*
D03*
X422500Y502500D02*
D03*
Y467500D02*
D03*
X205000D02*
D03*
Y502500D02*
D03*
D71*
X150000Y536000D02*
D03*
X118000D02*
D03*
D72*
X622500Y339500D02*
D03*
Y395500D02*
D03*
X425000Y347000D02*
D03*
Y403000D02*
D03*
X205000Y347000D02*
D03*
Y403000D02*
D03*
D73*
X-26500Y259000D02*
D03*
X-45500D02*
D03*
D74*
X213000Y594000D02*
D03*
X404000D02*
D03*
X17000Y168000D02*
D03*
X135000Y80000D02*
D03*
X155000D02*
D03*
X135000Y100000D02*
D03*
X155000D02*
D03*
X135000Y120000D02*
D03*
D75*
X-3700Y303400D02*
D03*
D76*
X-29100D02*
D03*
X-3700Y328800D02*
D03*
X-29100D02*
D03*
X-3700Y354200D02*
D03*
X-29100D02*
D03*
X-3700Y379600D02*
D03*
X-29100D02*
D03*
X-3700Y405000D02*
D03*
X-29100D02*
D03*
X-3700Y430400D02*
D03*
X-29100D02*
D03*
Y481200D02*
D03*
X-3700D02*
D03*
X-29100Y455800D02*
D03*
X-3700D02*
D03*
Y506600D02*
D03*
X-29100D02*
D03*
D77*
X540000Y235000D02*
D03*
Y335000D02*
D03*
X325000D02*
D03*
Y235000D02*
D03*
X122500D02*
D03*
Y335000D02*
D03*
D78*
X516000Y132400D02*
D03*
X566000D02*
D03*
X516000Y107000D02*
D03*
X566000Y157800D02*
D03*
X516000D02*
D03*
D79*
X566000Y107000D02*
D03*
D80*
X-11001Y120524D02*
D03*
Y220524D02*
D03*
D81*
X-46001Y120524D02*
D03*
Y220524D02*
D03*
D82*
X45000Y35000D02*
D03*
X545000D02*
D03*
Y580000D02*
D03*
X45000D02*
D03*
D83*
X155000Y120000D02*
D03*
M02*
