G04 Layer_Physical_Order=1*
G04 Layer_Color=255*
%FSLAX44Y44*%
%MOMM*%
G71*
G01*
G75*
%ADD10R,1.5000X1.3000*%
%ADD11R,0.8500X0.8500*%
%ADD12R,0.6500X2.0000*%
%ADD13R,2.0000X0.6500*%
%ADD14C,1.0000*%
%ADD15R,2.5000X2.3000*%
%ADD16R,0.6000X1.0000*%
%ADD17R,0.8500X0.8500*%
%ADD18R,3.3000X1.0000*%
%ADD19R,1.6000X1.2000*%
%ADD20R,2.6000X1.1000*%
%ADD21R,1.2000X1.6000*%
%ADD22R,3.2000X1.6000*%
%ADD23R,1.3000X1.5000*%
%ADD24C,0.6000*%
%ADD25C,0.5000*%
%ADD26C,0.8000*%
%ADD27C,0.3000*%
%ADD28R,2.6000X2.6000*%
%ADD29R,2.6000X3.0000*%
%ADD30R,1.8000X0.6000*%
%ADD31R,1.5843X0.6000*%
%ADD32C,1.4000*%
%ADD33R,2.0000X1.5000*%
%ADD34O,2.0000X1.5000*%
%ADD35C,2.4000*%
%ADD36C,2.0000*%
%ADD37R,2.0000X2.0000*%
%ADD38C,1.6000*%
%ADD39R,1.6000X1.6000*%
%ADD40R,1.4000X1.4000*%
%ADD41C,0.7000*%
%ADD42C,0.8000*%
G36*
X183019Y215500D02*
X111000D01*
X111000Y224000D01*
X111000Y235000D01*
X135000Y235000D01*
X183019D01*
Y215500D01*
D02*
G37*
G36*
X382232D02*
X313500D01*
X313500Y224000D01*
X313500Y235000D01*
X337500Y235000D01*
X382232D01*
Y215500D01*
D02*
G37*
G36*
X551500Y235000D02*
X551500Y224000D01*
X551500Y215500D01*
X479481D01*
Y235000D01*
X527500D01*
X551500Y235000D01*
D02*
G37*
G36*
X94798Y206500D02*
X203000Y206500D01*
Y214000D01*
X225102D01*
Y206500D01*
X403000D01*
Y214000D01*
X425000D01*
Y206500D01*
X438000D01*
Y215000D01*
X459000D01*
Y206500D01*
X459000Y186000D01*
X94798Y186000D01*
Y162000D01*
X33000Y162000D01*
X33000Y70000D01*
X5098D01*
X4710Y71951D01*
X3605Y73605D01*
X1951Y74710D01*
X0Y75098D01*
X-74902D01*
Y237000D01*
X-53648D01*
Y233524D01*
X-59001D01*
Y207524D01*
X-53647D01*
Y204250D01*
X-55250D01*
Y185750D01*
X-54250D01*
Y172750D01*
X-56939Y172000D01*
X-57500D01*
Y151000D01*
Y146500D01*
X-46000D01*
X-34500D01*
Y151000D01*
Y172000D01*
X-35061D01*
X-37750Y172750D01*
Y185750D01*
X-36750D01*
Y204250D01*
X-38353D01*
Y207524D01*
X-33001D01*
Y233524D01*
X-38354D01*
Y237000D01*
X94798D01*
Y206500D01*
D02*
G37*
G36*
X461000Y142467D02*
X592000D01*
Y122000D01*
X233000D01*
Y181000D01*
X461000D01*
Y142467D01*
D02*
G37*
G36*
X227980Y117000D02*
X413000Y117000D01*
X592000Y117000D01*
X592000Y97000D01*
X467000D01*
Y5098D01*
X82370D01*
X81405Y7939D01*
X84606Y10394D01*
X90136Y17601D01*
X93612Y25994D01*
X94798Y35000D01*
X93612Y44006D01*
X90136Y52399D01*
X84606Y59606D01*
X77399Y65136D01*
X69006Y68612D01*
X60000Y69798D01*
Y69588D01*
X38000D01*
Y97000D01*
Y157000D01*
X100000D01*
Y181000D01*
X227980D01*
Y117000D01*
D02*
G37*
G36*
X484883Y73536D02*
X485151Y73512D01*
X485469Y73438D01*
X485835Y73316D01*
X486225Y73145D01*
X486616Y72901D01*
X486982Y72584D01*
X487031Y72535D01*
X487128Y72413D01*
X487275Y72218D01*
X487446Y71949D01*
X487641Y71608D01*
X487788Y71217D01*
X487885Y70753D01*
X487934Y70265D01*
Y70241D01*
Y70216D01*
Y70143D01*
X487910Y70045D01*
X487885Y69777D01*
X487812Y69460D01*
X487690Y69093D01*
X487543Y68703D01*
X487299Y68312D01*
X486982Y67946D01*
X486933Y67897D01*
X486811Y67800D01*
X486616Y67653D01*
X486323Y67483D01*
X486006Y67287D01*
X485591Y67141D01*
X485151Y67043D01*
X484663Y66994D01*
X483199D01*
X483077Y67019D01*
X482930Y67043D01*
X482784Y67067D01*
X482393Y67165D01*
X481978Y67312D01*
X481539Y67556D01*
X481319Y67702D01*
X481099Y67873D01*
X480904Y68093D01*
X480709Y68312D01*
X480684Y68288D01*
X480660Y68264D01*
X480538Y68117D01*
X480294Y67897D01*
X480001Y67653D01*
X479635Y67409D01*
X479171Y67190D01*
X478658Y67043D01*
X478366Y67019D01*
X478073Y66994D01*
X477951D01*
X477853Y67019D01*
X477584Y67043D01*
X477267Y67116D01*
X476901Y67238D01*
X476510Y67385D01*
X476120Y67629D01*
X475754Y67946D01*
X475705Y67995D01*
X475607Y68117D01*
X475436Y68312D01*
X475266Y68605D01*
X475095Y68923D01*
X474924Y69338D01*
X474826Y69777D01*
X474777Y70265D01*
Y70290D01*
Y70338D01*
Y70387D01*
X474802Y70485D01*
X474826Y70753D01*
X474899Y71071D01*
X475021Y71437D01*
X475192Y71827D01*
X475436Y72218D01*
X475754Y72584D01*
X475802Y72633D01*
X475925Y72730D01*
X476120Y72901D01*
X476388Y73072D01*
X476730Y73243D01*
X477121Y73414D01*
X477584Y73512D01*
X478073Y73560D01*
X478219D01*
X478341Y73536D01*
X478488Y73512D01*
X478634Y73487D01*
X479025Y73390D01*
X479440Y73243D01*
X479879Y72999D01*
X480099Y72853D01*
X480318Y72682D01*
X480513Y72486D01*
X480709Y72242D01*
X480733Y72291D01*
X480831Y72389D01*
X480977Y72560D01*
X481197Y72730D01*
X481441Y72950D01*
X481758Y73145D01*
X482100Y73316D01*
X482466Y73438D01*
X482491D01*
X482564Y73463D01*
X482735Y73487D01*
X482930Y73512D01*
X483247D01*
X483614Y73536D01*
X483833Y73560D01*
X484785D01*
X484883Y73536D01*
D02*
G37*
G36*
X643000Y147000D02*
X467000Y147000D01*
X467000Y169000D01*
X603000Y169000D01*
Y325596D01*
X643000D01*
X643000Y147000D01*
D02*
G37*
G36*
X484883Y35408D02*
X485151Y35384D01*
X485469Y35311D01*
X485835Y35189D01*
X486225Y35018D01*
X486616Y34774D01*
X486982Y34457D01*
X487031Y34408D01*
X487128Y34286D01*
X487275Y34066D01*
X487446Y33798D01*
X487641Y33456D01*
X487788Y33065D01*
X487885Y32626D01*
X487934Y32138D01*
Y29501D01*
Y29477D01*
Y29404D01*
X487910Y29306D01*
X487861Y29184D01*
X487763Y29062D01*
X487665Y28964D01*
X487495Y28891D01*
X487275Y28867D01*
X487177D01*
X487055Y28891D01*
X486933Y28940D01*
X486836Y29013D01*
X486713Y29135D01*
X486640Y29282D01*
X486616Y29501D01*
Y32138D01*
Y32187D01*
Y32284D01*
X486591Y32431D01*
X486543Y32626D01*
X486469Y32845D01*
X486372Y33065D01*
X486250Y33309D01*
X486054Y33529D01*
X486030Y33553D01*
X485957Y33627D01*
X485835Y33724D01*
X485664Y33822D01*
X485469Y33919D01*
X485225Y34017D01*
X484956Y34090D01*
X484663Y34115D01*
X483199D01*
X483052Y34090D01*
X482857Y34042D01*
X482662Y33968D01*
X482417Y33871D01*
X482173Y33724D01*
X481954Y33529D01*
X481929Y33505D01*
X481856Y33431D01*
X481758Y33309D01*
X481661Y33138D01*
X481563Y32943D01*
X481465Y32699D01*
X481392Y32431D01*
X481368Y32138D01*
Y29501D01*
Y29477D01*
Y29404D01*
X481343Y29306D01*
X481295Y29184D01*
X481197Y29062D01*
X481099Y28964D01*
X480928Y28891D01*
X480709Y28867D01*
X475339D01*
X475217Y28891D01*
X475095Y28940D01*
X474997Y29013D01*
X474875Y29135D01*
X474802Y29282D01*
X474777Y29501D01*
Y34115D01*
Y34139D01*
Y34213D01*
X474802Y34310D01*
X474851Y34432D01*
X474948Y34554D01*
X475046Y34652D01*
X475217Y34725D01*
X475436Y34750D01*
X475534D01*
X475656Y34725D01*
X475754Y34676D01*
X475876Y34603D01*
X475998Y34481D01*
X476071Y34334D01*
X476095Y34115D01*
Y30185D01*
X480050D01*
Y32138D01*
Y32162D01*
Y32211D01*
Y32260D01*
X480074Y32357D01*
X480099Y32626D01*
X480172Y32943D01*
X480294Y33309D01*
X480465Y33700D01*
X480709Y34090D01*
X481026Y34457D01*
X481075Y34505D01*
X481197Y34603D01*
X481417Y34774D01*
X481685Y34945D01*
X482027Y35116D01*
X482417Y35287D01*
X482857Y35384D01*
X483345Y35433D01*
X484785D01*
X484883Y35408D01*
D02*
G37*
G36*
X487495Y26206D02*
X487592Y26157D01*
X487714Y26060D01*
X487836Y25962D01*
X487910Y25791D01*
X487934Y25571D01*
Y20299D01*
Y20275D01*
Y20201D01*
X487910Y20079D01*
X487861Y19982D01*
X487788Y19860D01*
X487665Y19738D01*
X487519Y19664D01*
X487299Y19640D01*
X487251D01*
X487177Y19664D01*
X487031Y19689D01*
X486909Y19762D01*
X479171Y24571D01*
X479147Y24595D01*
X479073Y24620D01*
X478976Y24668D01*
X478829Y24742D01*
X478658Y24815D01*
X478488Y24864D01*
X478292Y24888D01*
X478073Y24913D01*
X477926D01*
X477780Y24888D01*
X477584Y24839D01*
X477389Y24766D01*
X477145Y24668D01*
X476901Y24522D01*
X476681Y24327D01*
X476657Y24302D01*
X476584Y24229D01*
X476486Y24107D01*
X476388Y23936D01*
X476291Y23741D01*
X476193Y23497D01*
X476120Y23228D01*
X476095Y22935D01*
Y22887D01*
X476120Y22740D01*
X476193Y22520D01*
X476291Y22252D01*
X476510Y21934D01*
X476632Y21764D01*
X476803Y21593D01*
X476974Y21422D01*
X477218Y21251D01*
X477462Y21056D01*
X477755Y20885D01*
X477780D01*
X477804Y20861D01*
X477902Y20738D01*
X478024Y20568D01*
X478048Y20446D01*
X478073Y20299D01*
Y20275D01*
Y20201D01*
X478048Y20079D01*
X477999Y19982D01*
X477902Y19860D01*
X477804Y19738D01*
X477633Y19664D01*
X477413Y19640D01*
X477316D01*
X477243Y19664D01*
X477145Y19713D01*
X477121Y19738D01*
X477047Y19762D01*
X476925Y19835D01*
X476779Y19933D01*
X476584Y20055D01*
X476388Y20201D01*
X476193Y20372D01*
X475949Y20568D01*
X475534Y21031D01*
X475314Y21300D01*
X475144Y21593D01*
X474997Y21886D01*
X474875Y22227D01*
X474802Y22569D01*
X474777Y22935D01*
Y22960D01*
Y23008D01*
Y23057D01*
X474802Y23155D01*
X474826Y23424D01*
X474899Y23741D01*
X475021Y24107D01*
X475192Y24497D01*
X475436Y24888D01*
X475754Y25254D01*
X475802Y25303D01*
X475925Y25401D01*
X476120Y25571D01*
X476388Y25742D01*
X476730Y25913D01*
X477121Y26084D01*
X477584Y26182D01*
X478073Y26231D01*
X478243D01*
X478414Y26206D01*
X478658Y26157D01*
X478951Y26084D01*
X479269Y25962D01*
X479610Y25816D01*
X479977Y25620D01*
X486616Y21495D01*
Y25571D01*
Y25596D01*
Y25669D01*
X486640Y25791D01*
X486689Y25913D01*
X486787Y26011D01*
X486884Y26133D01*
X487055Y26206D01*
X487275Y26231D01*
X487373D01*
X487495Y26206D01*
D02*
G37*
G36*
X484883Y17004D02*
X485151Y16979D01*
X485469Y16906D01*
X485835Y16784D01*
X486225Y16613D01*
X486616Y16369D01*
X486982Y16052D01*
X487031Y16003D01*
X487128Y15881D01*
X487275Y15686D01*
X487446Y15417D01*
X487641Y15076D01*
X487788Y14685D01*
X487885Y14221D01*
X487934Y13733D01*
Y9779D01*
Y9754D01*
Y9681D01*
X487910Y9559D01*
X487861Y9461D01*
X487763Y9339D01*
X487665Y9217D01*
X487495Y9144D01*
X487275Y9120D01*
X487177D01*
X487055Y9144D01*
X486933Y9193D01*
X486836Y9291D01*
X486713Y9388D01*
X486640Y9559D01*
X486616Y9779D01*
Y13733D01*
Y13782D01*
Y13879D01*
X486591Y14026D01*
X486543Y14221D01*
X486469Y14441D01*
X486372Y14661D01*
X486250Y14905D01*
X486054Y15124D01*
X486030Y15149D01*
X485957Y15222D01*
X485835Y15320D01*
X485664Y15417D01*
X485469Y15515D01*
X485225Y15612D01*
X484956Y15686D01*
X484663Y15710D01*
X481368D01*
Y12415D01*
Y12391D01*
Y12317D01*
X481343Y12195D01*
X481295Y12098D01*
X481197Y11976D01*
X481099Y11853D01*
X480928Y11780D01*
X480709Y11756D01*
X480611D01*
X480489Y11780D01*
X480367Y11829D01*
X480269Y11927D01*
X480147Y12024D01*
X480074Y12195D01*
X480050Y12415D01*
Y15710D01*
X477926D01*
X477780Y15686D01*
X477584Y15637D01*
X477389Y15564D01*
X477145Y15466D01*
X476901Y15320D01*
X476681Y15124D01*
X476657Y15100D01*
X476584Y15027D01*
X476486Y14905D01*
X476388Y14734D01*
X476291Y14539D01*
X476193Y14294D01*
X476120Y14026D01*
X476095Y13733D01*
Y9779D01*
Y9754D01*
Y9681D01*
X476071Y9559D01*
X476022Y9461D01*
X475925Y9339D01*
X475827Y9217D01*
X475656Y9144D01*
X475436Y9120D01*
X475339D01*
X475217Y9144D01*
X475095Y9193D01*
X474997Y9291D01*
X474875Y9388D01*
X474802Y9559D01*
X474777Y9779D01*
Y13733D01*
Y13757D01*
Y13806D01*
Y13855D01*
X474802Y13953D01*
X474826Y14221D01*
X474899Y14539D01*
X474997Y14905D01*
X475168Y15295D01*
X475412Y15686D01*
X475729Y16052D01*
X475778Y16101D01*
X475900Y16198D01*
X476095Y16369D01*
X476388Y16540D01*
X476730Y16711D01*
X477121Y16882D01*
X477560Y16979D01*
X478073Y17028D01*
X484785D01*
X484883Y17004D01*
D02*
G37*
G36*
Y44611D02*
X485151Y44586D01*
X485469Y44513D01*
X485835Y44391D01*
X486225Y44220D01*
X486616Y43976D01*
X486982Y43659D01*
X487031Y43610D01*
X487128Y43488D01*
X487275Y43268D01*
X487446Y43000D01*
X487641Y42658D01*
X487788Y42268D01*
X487885Y41828D01*
X487934Y41340D01*
Y38704D01*
Y38679D01*
Y38606D01*
X487910Y38484D01*
X487861Y38386D01*
X487763Y38264D01*
X487665Y38142D01*
X487495Y38069D01*
X487275Y38045D01*
X487177D01*
X487055Y38069D01*
X486933Y38118D01*
X486836Y38216D01*
X486713Y38313D01*
X486640Y38484D01*
X486616Y38704D01*
Y41340D01*
Y41389D01*
Y41487D01*
X486591Y41633D01*
X486543Y41828D01*
X486469Y42048D01*
X486372Y42268D01*
X486250Y42512D01*
X486054Y42731D01*
X486030Y42756D01*
X485957Y42829D01*
X485835Y42927D01*
X485664Y43024D01*
X485469Y43122D01*
X485225Y43219D01*
X484956Y43293D01*
X484663Y43317D01*
X483199D01*
X483052Y43293D01*
X482857Y43244D01*
X482662Y43171D01*
X482417Y43073D01*
X482173Y42927D01*
X481954Y42731D01*
X481929Y42707D01*
X481856Y42634D01*
X481758Y42512D01*
X481661Y42341D01*
X481563Y42146D01*
X481465Y41901D01*
X481392Y41633D01*
X481368Y41340D01*
Y40022D01*
Y39997D01*
Y39924D01*
X481343Y39802D01*
X481295Y39705D01*
X481197Y39583D01*
X481099Y39460D01*
X480928Y39387D01*
X480709Y39363D01*
X480611D01*
X480489Y39387D01*
X480367Y39436D01*
X480269Y39534D01*
X480147Y39631D01*
X480074Y39802D01*
X480050Y40022D01*
Y41340D01*
Y41389D01*
Y41487D01*
X480025Y41633D01*
X479977Y41828D01*
X479903Y42048D01*
X479806Y42268D01*
X479684Y42512D01*
X479488Y42731D01*
X479464Y42756D01*
X479391Y42829D01*
X479269Y42927D01*
X479098Y43024D01*
X478878Y43122D01*
X478634Y43219D01*
X478366Y43293D01*
X478073Y43317D01*
X477926D01*
X477780Y43293D01*
X477584Y43244D01*
X477389Y43171D01*
X477145Y43073D01*
X476901Y42927D01*
X476681Y42731D01*
X476657Y42707D01*
X476584Y42634D01*
X476486Y42512D01*
X476388Y42341D01*
X476291Y42146D01*
X476193Y41901D01*
X476120Y41633D01*
X476095Y41340D01*
Y38704D01*
Y38679D01*
Y38606D01*
X476071Y38484D01*
X476022Y38386D01*
X475925Y38264D01*
X475827Y38142D01*
X475656Y38069D01*
X475436Y38045D01*
X475339D01*
X475217Y38069D01*
X475095Y38118D01*
X474997Y38216D01*
X474875Y38313D01*
X474802Y38484D01*
X474777Y38704D01*
Y41340D01*
Y41364D01*
Y41413D01*
Y41462D01*
X474802Y41560D01*
X474826Y41828D01*
X474899Y42146D01*
X475021Y42512D01*
X475192Y42902D01*
X475436Y43293D01*
X475754Y43659D01*
X475802Y43708D01*
X475925Y43805D01*
X476144Y43976D01*
X476413Y44147D01*
X476754Y44318D01*
X477145Y44489D01*
X477584Y44586D01*
X478073Y44635D01*
X478243D01*
X478341Y44611D01*
X478488Y44586D01*
X478658Y44562D01*
X479025Y44464D01*
X479440Y44318D01*
X479879Y44074D01*
X480099Y43927D01*
X480318Y43756D01*
X480513Y43561D01*
X480709Y43317D01*
Y43342D01*
X480758Y43366D01*
X480880Y43512D01*
X481099Y43732D01*
X481417Y43976D01*
X481783Y44220D01*
X482247Y44440D01*
X482759Y44586D01*
X483052Y44611D01*
X483345Y44635D01*
X484785D01*
X484883Y44611D01*
D02*
G37*
G36*
X487495Y64334D02*
X487592Y64285D01*
X487714Y64187D01*
X487836Y64090D01*
X487910Y63919D01*
X487934Y63699D01*
Y58427D01*
Y58402D01*
Y58329D01*
X487910Y58207D01*
X487861Y58109D01*
X487788Y57987D01*
X487665Y57865D01*
X487519Y57792D01*
X487299Y57768D01*
X487251D01*
X487177Y57792D01*
X487031Y57816D01*
X486909Y57890D01*
X479171Y62698D01*
X479147Y62723D01*
X479073Y62747D01*
X478976Y62796D01*
X478829Y62869D01*
X478658Y62942D01*
X478488Y62991D01*
X478292Y63015D01*
X478073Y63040D01*
X477926D01*
X477780Y63015D01*
X477584Y62967D01*
X477389Y62894D01*
X477145Y62796D01*
X476901Y62649D01*
X476681Y62454D01*
X476657Y62430D01*
X476584Y62357D01*
X476486Y62234D01*
X476388Y62064D01*
X476291Y61868D01*
X476193Y61624D01*
X476120Y61356D01*
X476095Y61063D01*
Y61014D01*
X476120Y60868D01*
X476193Y60648D01*
X476291Y60379D01*
X476510Y60062D01*
X476632Y59891D01*
X476803Y59720D01*
X476974Y59549D01*
X477218Y59378D01*
X477462Y59183D01*
X477755Y59012D01*
X477780D01*
X477804Y58988D01*
X477902Y58866D01*
X478024Y58695D01*
X478048Y58573D01*
X478073Y58427D01*
Y58402D01*
Y58329D01*
X478048Y58207D01*
X477999Y58109D01*
X477902Y57987D01*
X477804Y57865D01*
X477633Y57792D01*
X477413Y57768D01*
X477316D01*
X477243Y57792D01*
X477145Y57841D01*
X477121Y57865D01*
X477047Y57890D01*
X476925Y57963D01*
X476779Y58060D01*
X476584Y58183D01*
X476388Y58329D01*
X476193Y58500D01*
X475949Y58695D01*
X475534Y59159D01*
X475314Y59427D01*
X475144Y59720D01*
X474997Y60013D01*
X474875Y60355D01*
X474802Y60697D01*
X474777Y61063D01*
Y61087D01*
Y61136D01*
Y61185D01*
X474802Y61283D01*
X474826Y61551D01*
X474899Y61868D01*
X475021Y62234D01*
X475192Y62625D01*
X475436Y63015D01*
X475754Y63382D01*
X475802Y63431D01*
X475925Y63528D01*
X476120Y63699D01*
X476388Y63870D01*
X476730Y64041D01*
X477121Y64212D01*
X477584Y64309D01*
X478073Y64358D01*
X478243D01*
X478414Y64334D01*
X478658Y64285D01*
X478951Y64212D01*
X479269Y64090D01*
X479610Y63943D01*
X479977Y63748D01*
X486616Y59623D01*
Y63699D01*
Y63723D01*
Y63797D01*
X486640Y63919D01*
X486689Y64041D01*
X486787Y64138D01*
X486884Y64260D01*
X487055Y64334D01*
X487275Y64358D01*
X487373D01*
X487495Y64334D01*
D02*
G37*
G36*
X110006Y325000D02*
X111089Y323589D01*
X114431Y321024D01*
X118323Y319412D01*
X122500Y318862D01*
X126677Y319412D01*
X130569Y321024D01*
X133911Y323589D01*
X134994Y325000D01*
X180629D01*
X182665Y322000D01*
X182343Y320385D01*
X182964Y317263D01*
X184219Y315385D01*
X182964Y313506D01*
X182343Y310385D01*
X182964Y307263D01*
X184219Y305385D01*
X182964Y303506D01*
X182343Y300385D01*
X182964Y297263D01*
X184219Y295385D01*
X182964Y293506D01*
X182343Y290385D01*
X182964Y287263D01*
X184732Y284617D01*
X187379Y282849D01*
X190500Y282228D01*
X193621Y282849D01*
X196268Y284617D01*
X198036Y287263D01*
X198657Y290385D01*
X198036Y293506D01*
X196781Y295385D01*
X198036Y297263D01*
X198657Y300385D01*
X198036Y303506D01*
X196781Y305385D01*
X198036Y307263D01*
X198657Y310385D01*
X201317Y312390D01*
X203621Y312849D01*
X205500Y314104D01*
X207379Y312849D01*
X210500Y312228D01*
X212506Y309568D01*
X212964Y307263D01*
X214219Y305385D01*
X212964Y303506D01*
X212343Y300385D01*
X212964Y297263D01*
X214219Y295385D01*
X212964Y293506D01*
X212343Y290385D01*
X212964Y287263D01*
X214732Y284617D01*
X217379Y282849D01*
X220500Y282228D01*
X223621Y282849D01*
X226268Y284617D01*
X228036Y287263D01*
X228657Y290385D01*
X228036Y293506D01*
X226780Y295385D01*
X228036Y297263D01*
X228657Y300385D01*
X228036Y303506D01*
X226780Y305385D01*
X228036Y307263D01*
X228657Y310385D01*
X228036Y313506D01*
X226780Y315385D01*
X228036Y317263D01*
X228657Y320385D01*
X228335Y322000D01*
X230371Y325000D01*
X312506Y325000D01*
X313589Y323589D01*
X316931Y321024D01*
X320823Y319412D01*
X325000Y318862D01*
X329177Y319412D01*
X333069Y321024D01*
X336411Y323589D01*
X337494Y325000D01*
X378129D01*
X380165Y322000D01*
X379843Y320385D01*
X380464Y317263D01*
X381719Y315385D01*
X380464Y313506D01*
X379843Y310385D01*
X380464Y307263D01*
X381719Y305385D01*
X380464Y303506D01*
X379843Y300385D01*
X380464Y297263D01*
X381719Y295385D01*
X380464Y293506D01*
X379843Y290385D01*
X380464Y287263D01*
X382232Y284617D01*
X384879Y282849D01*
X388000Y282228D01*
X391121Y282849D01*
X393768Y284617D01*
X395536Y287263D01*
X396157Y290385D01*
X395536Y293506D01*
X394281Y295385D01*
X395536Y297263D01*
X396157Y300385D01*
X395536Y303506D01*
X394281Y305385D01*
X395536Y307263D01*
X396157Y310385D01*
X398000Y312228D01*
X401121Y312849D01*
X403000Y314104D01*
X404879Y312849D01*
X408000Y312228D01*
X410006Y309568D01*
X410464Y307263D01*
X411719Y305385D01*
X410464Y303506D01*
X409843Y300385D01*
X410464Y297263D01*
X411719Y295385D01*
X410464Y293506D01*
X409843Y290385D01*
X410464Y287263D01*
X412232Y284617D01*
X414879Y282849D01*
X418000Y282228D01*
X421121Y282849D01*
X423768Y284617D01*
X425536Y287263D01*
X426157Y290385D01*
X425536Y293506D01*
X424281Y295385D01*
X425536Y297263D01*
X426157Y300385D01*
X425536Y303506D01*
X424281Y305385D01*
X425536Y307263D01*
X426157Y310385D01*
X425536Y313506D01*
X424281Y315385D01*
X425536Y317263D01*
X426157Y320385D01*
X425835Y322000D01*
X427871Y325000D01*
X527506D01*
X528589Y323589D01*
X531931Y321024D01*
X535823Y319412D01*
X540000Y318862D01*
X544177Y319412D01*
X548069Y321024D01*
X551411Y323589D01*
X552494Y325000D01*
X598000D01*
X598000Y247000D01*
X550644D01*
X548069Y248976D01*
X544177Y250588D01*
X540000Y251138D01*
X535823Y250588D01*
X531931Y248976D01*
X529356Y247000D01*
X335644Y247000D01*
X333069Y248976D01*
X329177Y250588D01*
X325000Y251138D01*
X320823Y250588D01*
X316931Y248976D01*
X314356Y247000D01*
X133144Y247000D01*
X130569Y248976D01*
X126677Y250588D01*
X122500Y251138D01*
X118323Y250588D01*
X114431Y248976D01*
X111856Y247000D01*
X-2000Y247000D01*
Y287263D01*
X29263Y287263D01*
X67000Y325000D01*
X110006D01*
D02*
G37*
G36*
X484858Y55107D02*
X484956Y55058D01*
X485078Y54960D01*
X485200Y54863D01*
X485273Y54692D01*
X485298Y54472D01*
Y53179D01*
X487373D01*
X487495Y53154D01*
X487592Y53105D01*
X487714Y53008D01*
X487836Y52910D01*
X487910Y52739D01*
X487934Y52519D01*
Y52495D01*
Y52422D01*
X487910Y52300D01*
X487861Y52202D01*
X487763Y52080D01*
X487665Y51958D01*
X487495Y51885D01*
X487275Y51860D01*
X485298D01*
Y47906D01*
Y47882D01*
Y47808D01*
X485273Y47686D01*
X485225Y47589D01*
X485151Y47467D01*
X485029Y47345D01*
X484883Y47271D01*
X484663Y47247D01*
X484590D01*
X484468Y47271D01*
X475266Y49908D01*
X475241D01*
X475192Y49932D01*
X475021Y50030D01*
X474924Y50127D01*
X474851Y50225D01*
X474802Y50371D01*
X474777Y50542D01*
Y50567D01*
Y50640D01*
X474802Y50762D01*
X474851Y50884D01*
X474948Y50982D01*
X475046Y51104D01*
X475217Y51177D01*
X475436Y51201D01*
X475485D01*
X475632Y51153D01*
X483980Y48760D01*
Y51860D01*
X481929D01*
X481807Y51885D01*
X481685Y51934D01*
X481588Y52031D01*
X481465Y52129D01*
X481392Y52300D01*
X481368Y52519D01*
Y52544D01*
Y52617D01*
X481392Y52739D01*
X481441Y52861D01*
X481539Y52959D01*
X481636Y53081D01*
X481807Y53154D01*
X482027Y53179D01*
X483980D01*
Y54472D01*
Y54497D01*
Y54570D01*
X484004Y54692D01*
X484053Y54814D01*
X484151Y54912D01*
X484248Y55034D01*
X484419Y55107D01*
X484639Y55131D01*
X484736D01*
X484858Y55107D01*
D02*
G37*
%LPC*%
G36*
X-15001Y131963D02*
X-15683Y131828D01*
X-19653Y129176D01*
X-22305Y125206D01*
X-22441Y124524D01*
X-15001D01*
Y131963D01*
D02*
G37*
G36*
X-7001D02*
Y124524D01*
X438D01*
X302Y125206D01*
X-2350Y129176D01*
X-6319Y131828D01*
X-7001Y131963D01*
D02*
G37*
G36*
X438Y116524D02*
X-7001D01*
Y109085D01*
X-6319Y109220D01*
X-2350Y111873D01*
X302Y115842D01*
X438Y116524D01*
D02*
G37*
G36*
X-15001D02*
X-22441D01*
X-22305Y115842D01*
X-19653Y111873D01*
X-15683Y109220D01*
X-15001Y109085D01*
Y116524D01*
D02*
G37*
G36*
X-34500Y138500D02*
X-46000D01*
X-57500D01*
Y133524D01*
X-59001D01*
Y107524D01*
X-33001D01*
Y133524D01*
X-34500D01*
Y138500D01*
D02*
G37*
G36*
X-15001Y231963D02*
X-15683Y231828D01*
X-19653Y229175D01*
X-22305Y225206D01*
X-22441Y224524D01*
X-15001D01*
Y231963D01*
D02*
G37*
G36*
X-7001D02*
Y224524D01*
X438D01*
X302Y225206D01*
X-2350Y229175D01*
X-6319Y231828D01*
X-7001Y231963D01*
D02*
G37*
G36*
X21000Y215500D02*
X4500D01*
Y210500D01*
X21000D01*
Y215500D01*
D02*
G37*
G36*
X70059D02*
Y210500D01*
X86559D01*
Y215500D01*
X70059D01*
D02*
G37*
G36*
X13000Y178420D02*
X12708Y178362D01*
X9069Y175931D01*
X6638Y172292D01*
X6580Y172000D01*
X13000D01*
Y178420D01*
D02*
G37*
G36*
X21000Y178420D02*
Y172000D01*
X27420D01*
X27362Y172292D01*
X24931Y175931D01*
X21292Y178362D01*
X21000Y178420D01*
D02*
G37*
G36*
X27420Y164000D02*
X21000D01*
Y157580D01*
X21292Y157638D01*
X24931Y160070D01*
X27362Y163708D01*
X27420Y164000D01*
D02*
G37*
G36*
X13000D02*
X6580D01*
X6638Y163708D01*
X9069Y160070D01*
X12708Y157638D01*
X13000Y157580D01*
Y164000D01*
D02*
G37*
G36*
X45559Y215500D02*
X42559Y215500D01*
X29000D01*
Y206500D01*
Y197500D01*
X42559D01*
X45500Y197500D01*
X48500Y197500D01*
X62059D01*
Y206500D01*
Y215500D01*
X48500D01*
X45559Y215500D01*
D02*
G37*
G36*
X-15001Y216524D02*
X-22441D01*
X-22305Y215842D01*
X-19653Y211873D01*
X-15683Y209220D01*
X-15001Y209085D01*
Y216524D01*
D02*
G37*
G36*
X438D02*
X-7001D01*
Y209085D01*
X-6319Y209220D01*
X-2350Y211873D01*
X302Y215842D01*
X438Y216524D01*
D02*
G37*
G36*
X21000Y202500D02*
X4500D01*
Y197500D01*
X21000D01*
Y202500D01*
D02*
G37*
G36*
X86559D02*
X70059D01*
Y197500D01*
X86559D01*
Y202500D01*
D02*
G37*
G36*
X135000Y131215D02*
X130708Y130362D01*
X127069Y127931D01*
X124638Y124292D01*
X123785Y120000D01*
X124638Y115708D01*
X127069Y112070D01*
X127922Y111500D01*
Y108500D01*
X127069Y107930D01*
X124638Y104292D01*
X123785Y100000D01*
X124638Y95708D01*
X127069Y92070D01*
X127922Y91500D01*
Y88500D01*
X127069Y87930D01*
X124638Y84292D01*
X123785Y80000D01*
X124638Y75708D01*
X127069Y72070D01*
X130708Y69638D01*
X135000Y68784D01*
X139292Y69638D01*
X142930Y72070D01*
X143500Y72922D01*
X146500D01*
X147070Y72070D01*
X150708Y69638D01*
X155000Y68784D01*
X159292Y69638D01*
X162931Y72070D01*
X165362Y75708D01*
X166215Y80000D01*
X165362Y84292D01*
X162931Y87930D01*
X162078Y88500D01*
Y91500D01*
X162931Y92070D01*
X165362Y95708D01*
X166215Y100000D01*
X165362Y104292D01*
X164220Y106000D01*
X165824Y109000D01*
X166000D01*
Y131000D01*
X144000D01*
Y130824D01*
X141000Y129221D01*
X139292Y130362D01*
X135000Y131215D01*
D02*
G37*
G36*
X484663Y72242D02*
X483199D01*
X483052Y72218D01*
X482857Y72169D01*
X482637Y72096D01*
X482417Y71998D01*
X482173Y71852D01*
X481954Y71656D01*
X481929Y71632D01*
X481856Y71559D01*
X481758Y71437D01*
X481661Y71266D01*
X481563Y71071D01*
X481465Y70827D01*
X481392Y70558D01*
X481368Y70265D01*
Y70241D01*
Y70119D01*
X481392Y69972D01*
X481441Y69777D01*
X481514Y69557D01*
X481612Y69338D01*
X481758Y69093D01*
X481954Y68874D01*
X481978Y68849D01*
X482051Y68776D01*
X482173Y68703D01*
X482344Y68605D01*
X482539Y68483D01*
X482784Y68410D01*
X483052Y68337D01*
X483345Y68312D01*
X484810D01*
X484956Y68337D01*
X485151Y68386D01*
X485371Y68459D01*
X485591Y68556D01*
X485835Y68678D01*
X486054Y68874D01*
X486079Y68898D01*
X486152Y68971D01*
X486225Y69093D01*
X486323Y69264D01*
X486445Y69460D01*
X486518Y69704D01*
X486591Y69972D01*
X486616Y70265D01*
Y70314D01*
Y70412D01*
X486591Y70558D01*
X486543Y70753D01*
X486469Y70973D01*
X486372Y71193D01*
X486250Y71437D01*
X486054Y71656D01*
X486030Y71681D01*
X485957Y71754D01*
X485835Y71852D01*
X485664Y71949D01*
X485469Y72047D01*
X485225Y72145D01*
X484956Y72218D01*
X484663Y72242D01*
D02*
G37*
G36*
X478073D02*
X477926D01*
X477780Y72218D01*
X477609Y72169D01*
X477389Y72096D01*
X477145Y71998D01*
X476925Y71852D01*
X476706Y71656D01*
X476681Y71632D01*
X476608Y71559D01*
X476510Y71437D01*
X476413Y71266D01*
X476315Y71071D01*
X476217Y70827D01*
X476144Y70558D01*
X476120Y70265D01*
Y70241D01*
Y70119D01*
X476144Y69972D01*
X476193Y69777D01*
X476266Y69557D01*
X476364Y69338D01*
X476486Y69093D01*
X476681Y68874D01*
X476706Y68849D01*
X476779Y68776D01*
X476901Y68703D01*
X477072Y68605D01*
X477267Y68483D01*
X477511Y68410D01*
X477780Y68337D01*
X478073Y68312D01*
X478219D01*
X478366Y68337D01*
X478561Y68386D01*
X478781Y68459D01*
X479025Y68556D01*
X479269Y68678D01*
X479488Y68874D01*
X479513Y68898D01*
X479586Y68971D01*
X479659Y69093D01*
X479757Y69264D01*
X479879Y69460D01*
X479952Y69704D01*
X480025Y69972D01*
X480050Y70265D01*
Y70314D01*
Y70412D01*
X480025Y70558D01*
X479977Y70753D01*
X479903Y70973D01*
X479806Y71193D01*
X479684Y71437D01*
X479488Y71656D01*
X479464Y71681D01*
X479391Y71754D01*
X479269Y71852D01*
X479098Y71949D01*
X478878Y72047D01*
X478634Y72145D01*
X478366Y72218D01*
X478073Y72242D01*
D02*
G37*
G36*
X45559Y277500D02*
X42559Y277500D01*
X29000D01*
Y268500D01*
Y259500D01*
X42559D01*
X45500Y259500D01*
X48500Y259500D01*
X62059D01*
Y268500D01*
Y277500D01*
X48500D01*
X45559Y277500D01*
D02*
G37*
G36*
X21000Y277500D02*
X4500D01*
Y272500D01*
X21000D01*
Y277500D01*
D02*
G37*
G36*
X70059D02*
Y272500D01*
X86559D01*
Y277500D01*
X70059D01*
D02*
G37*
G36*
X21000Y264500D02*
X4500D01*
Y259500D01*
X21000D01*
Y264500D01*
D02*
G37*
G36*
X86559D02*
X70059D01*
Y259500D01*
X86559D01*
Y264500D01*
D02*
G37*
%LPD*%
D10*
X-46000Y161500D02*
D03*
Y142500D02*
D03*
X396157Y487000D02*
D03*
Y468000D02*
D03*
X550000Y360500D02*
D03*
Y379500D02*
D03*
X351000Y383500D02*
D03*
Y402500D02*
D03*
X135500Y383500D02*
D03*
Y402500D02*
D03*
X177500Y487000D02*
D03*
Y468000D02*
D03*
D11*
X-46000Y195000D02*
D03*
Y181000D02*
D03*
X449000Y548000D02*
D03*
Y534000D02*
D03*
X227500Y548000D02*
D03*
Y534000D02*
D03*
X49500Y376500D02*
D03*
Y362500D02*
D03*
X24500Y376500D02*
D03*
Y362500D02*
D03*
X37000Y362500D02*
D03*
Y376500D02*
D03*
D12*
X525000Y532500D02*
D03*
X535000Y412500D02*
D03*
X525000D02*
D03*
X535000Y532500D02*
D03*
X312500D02*
D03*
X302500Y412500D02*
D03*
X312500D02*
D03*
X302500Y532500D02*
D03*
X85000Y532500D02*
D03*
X95000Y412500D02*
D03*
X85000D02*
D03*
X95000Y532500D02*
D03*
D13*
X470000Y497500D02*
D03*
Y487500D02*
D03*
Y477500D02*
D03*
Y467500D02*
D03*
Y457500D02*
D03*
Y447500D02*
D03*
X590000D02*
D03*
Y457500D02*
D03*
Y467500D02*
D03*
Y477500D02*
D03*
Y487500D02*
D03*
Y497500D02*
D03*
X367500D02*
D03*
Y487500D02*
D03*
Y477500D02*
D03*
Y467500D02*
D03*
Y457500D02*
D03*
Y447500D02*
D03*
X247500D02*
D03*
Y457500D02*
D03*
Y467500D02*
D03*
Y477500D02*
D03*
Y487500D02*
D03*
Y497500D02*
D03*
X30000Y497500D02*
D03*
Y487500D02*
D03*
Y477500D02*
D03*
Y467500D02*
D03*
Y457500D02*
D03*
Y447500D02*
D03*
X150000D02*
D03*
Y457500D02*
D03*
Y467500D02*
D03*
Y477500D02*
D03*
Y487500D02*
D03*
Y497500D02*
D03*
D14*
X110000Y595000D02*
D03*
X620000Y104292D02*
D03*
D15*
X371000Y225000D02*
D03*
X414000D02*
D03*
X491500D02*
D03*
X448500D02*
D03*
X171000D02*
D03*
X214000D02*
D03*
D16*
X627000Y439000D02*
D03*
X636500Y415000D02*
D03*
X617500D02*
D03*
X422500Y447000D02*
D03*
X432000Y423000D02*
D03*
X413000D02*
D03*
X205000Y447000D02*
D03*
X214500Y423000D02*
D03*
X195500D02*
D03*
X34000Y419000D02*
D03*
X43500Y395000D02*
D03*
X24500D02*
D03*
D17*
X580000Y415000D02*
D03*
X594000D02*
D03*
X351000Y423000D02*
D03*
X365000D02*
D03*
X135500D02*
D03*
X149500D02*
D03*
X132000Y557500D02*
D03*
X118000D02*
D03*
X243000Y427600D02*
D03*
X257000D02*
D03*
D18*
X66059Y206500D02*
D03*
Y268500D02*
D03*
X25000D02*
D03*
Y206500D02*
D03*
D19*
X471000Y566000D02*
D03*
Y534000D02*
D03*
X247500Y566000D02*
D03*
Y534000D02*
D03*
D20*
X580000Y360000D02*
D03*
Y395000D02*
D03*
X627500Y502500D02*
D03*
Y467500D02*
D03*
X385000Y367500D02*
D03*
Y402500D02*
D03*
X165000Y367500D02*
D03*
Y402500D02*
D03*
X422500Y502500D02*
D03*
Y467500D02*
D03*
X205000D02*
D03*
Y502500D02*
D03*
D21*
X150000Y536000D02*
D03*
X118000D02*
D03*
D22*
X622500Y339500D02*
D03*
Y395500D02*
D03*
X425000Y347000D02*
D03*
Y403000D02*
D03*
X205000Y347000D02*
D03*
Y403000D02*
D03*
D23*
X-26500Y259000D02*
D03*
X-45500D02*
D03*
D24*
X-46000Y161000D02*
Y181000D01*
X430096Y403000D02*
X431500Y401596D01*
X430000Y403096D02*
X430096Y403000D01*
X396157Y487000D02*
X397500D01*
X395657Y487500D02*
X396157Y487000D01*
X367500Y487500D02*
X395657D01*
X627500Y502500D02*
Y517000D01*
Y487500D02*
Y502500D01*
X592000Y487500D02*
X627500D01*
X607500Y467500D02*
X625000D01*
X590000D02*
X607500D01*
X202500Y470000D02*
X205000D01*
X150000Y467500D02*
X202500D01*
X413500Y482000D02*
Y487000D01*
X470500Y497500D02*
Y521000D01*
Y533548D01*
D25*
X-46000Y195000D02*
Y220523D01*
X205000Y403048D02*
X205048Y403000D01*
X135500Y402500D02*
Y423000D01*
X136000Y403000D02*
X205000D01*
X351000D02*
X425000D01*
X351000D02*
Y423000D01*
X430096Y403000D02*
X448000D01*
X425048D02*
X430096D01*
X351000Y423000D02*
Y441000D01*
X351000Y441000D02*
Y447500D01*
X367500D01*
X367500Y447500D01*
X149500Y423000D02*
X195500D01*
X135500Y447500D02*
X150000D01*
X135500Y423000D02*
Y447500D01*
X512000Y412500D02*
X525000D01*
X493000Y393500D02*
X512000Y412500D01*
X493000Y319000D02*
Y393500D01*
X312500Y412500D02*
X312500Y412500D01*
Y365000D02*
Y412500D01*
X471000Y534000D02*
X523500D01*
X301000D02*
X302500Y532500D01*
X247500Y534000D02*
X301000D01*
X590000Y437000D02*
Y447500D01*
X580000Y427000D02*
X590000Y437000D01*
X580000Y415000D02*
Y427000D01*
X547500Y477500D02*
X590000D01*
X470000Y447500D02*
X514000D01*
X470000Y487500D02*
X514000D01*
X247500Y566000D02*
X273000D01*
X247500Y566000D02*
X247500Y566000D01*
X246500Y566000D02*
X246500Y566000D01*
X227500Y566000D02*
X246500D01*
X247500Y497500D02*
Y534000D01*
X227500D02*
X247500D01*
X325000Y477500D02*
X367500D01*
X85000Y547000D02*
X95500Y557500D01*
X85000Y532500D02*
Y547000D01*
X85000Y532500D02*
X85000Y532500D01*
X66000Y532500D02*
X85000D01*
X58500Y525000D02*
X66000Y532500D01*
X-34000Y525000D02*
X58500D01*
X30000Y497500D02*
Y525000D01*
X-46000Y513000D02*
X-34000Y525000D01*
X30000Y497500D02*
X30500Y498000D01*
X150000Y447500D02*
X150000Y447500D01*
X138000Y477500D02*
X150000D01*
X177000Y487500D02*
X177500Y487000D01*
X150000Y487500D02*
X177000D01*
X107500Y417500D02*
X122500D01*
X107500D02*
Y477500D01*
X110000D01*
X107500D02*
X138000Y477500D01*
X95000Y365000D02*
Y412500D01*
X547500Y415000D02*
Y477500D01*
X205000Y447000D02*
Y470000D01*
X555000Y395000D02*
X580000D01*
X550000Y390000D02*
X555000Y395000D01*
X550000Y379500D02*
Y390000D01*
X594000Y415000D02*
X617500D01*
X367500Y467500D02*
X422500D01*
X422500Y467500D01*
Y447000D02*
Y467500D01*
X205000Y447000D02*
X205000Y447000D01*
X295000Y365000D02*
X312500D01*
X325000Y417500D02*
Y477500D01*
X228000Y403000D02*
X240000Y415000D01*
X205000Y403000D02*
X205048D01*
X228000D01*
X448000D02*
X460000Y415000D01*
X507500Y365500D02*
Y377500D01*
X522500Y392500D01*
X525500Y379500D02*
X550000D01*
X535000Y397500D02*
Y412500D01*
X530000Y392500D02*
X535000Y397500D01*
X522500Y392500D02*
X530000D01*
X627000Y439000D02*
Y465500D01*
X365000Y423000D02*
X413000D01*
X132000Y557500D02*
X149500D01*
X150000Y557000D01*
Y536000D02*
Y557000D01*
X227500Y548000D02*
Y566000D01*
X449000Y534000D02*
X470048D01*
X449000Y548000D02*
Y566000D01*
X471000D01*
X-43400Y430400D02*
X-29100D01*
X-46000Y433000D02*
X-43400Y430400D01*
X-46000Y433000D02*
Y513000D01*
X423000Y581000D02*
X432000Y572000D01*
X212500Y534000D02*
X227500D01*
X207500Y539000D02*
X212500Y534000D01*
X207500Y539000D02*
Y581000D01*
X130000Y581000D02*
X423000D01*
X432000Y539000D02*
Y572000D01*
Y539000D02*
X437000Y534000D01*
X449000D01*
X-29100Y405000D02*
Y430400D01*
X118000Y535000D02*
Y557500D01*
X247500Y487500D02*
X288500D01*
X13000Y448000D02*
X13500Y447500D01*
X30000D01*
X13000Y448000D02*
Y461000D01*
Y487000D01*
X13500Y487500D01*
X30000D01*
X288500Y447500D02*
Y487500D01*
X247500Y447500D02*
X288500D01*
X514000D02*
Y487500D01*
X471000Y566000D02*
Y581000D01*
X288500Y427500D02*
Y447500D01*
X257100Y427500D02*
X288500D01*
X-3700Y379600D02*
Y405000D01*
X85000Y312394D02*
Y412500D01*
X84606Y312000D02*
X85000Y312394D01*
X302500Y391000D02*
Y412500D01*
X279000Y367500D02*
X302500Y391000D01*
X279000Y316000D02*
Y367500D01*
X580000Y395000D02*
X622000D01*
X580000D02*
Y415000D01*
X34000Y419000D02*
Y429000D01*
X26000Y437000D02*
X34000Y429000D01*
X-26500Y259000D02*
X-16000D01*
X-11001Y254001D01*
Y220524D02*
Y254001D01*
X-46001Y220524D02*
Y258499D01*
X132000Y557500D02*
Y569000D01*
X118000Y557500D02*
Y569000D01*
X130000Y581000D01*
X95500Y557500D02*
X118000D01*
X470500Y521000D02*
X471000Y520500D01*
D26*
X469000Y315000D02*
Y358000D01*
X459500Y367500D02*
X469000Y358000D01*
X385000Y367500D02*
X459500D01*
X351000D02*
Y383500D01*
Y367500D02*
X385000D01*
X135500Y368500D02*
Y383500D01*
Y368500D02*
X136500Y367500D01*
X165000D01*
X550000Y360500D02*
X579500D01*
X25000Y268500D02*
X66059D01*
X25000Y206500D02*
X66059D01*
X134500Y347000D02*
X205000D01*
X122500Y335000D02*
X134500Y347000D01*
X337000D02*
X425000D01*
X325000Y335000D02*
X337000Y347000D01*
X570500Y339500D02*
X622500D01*
X566000Y335000D02*
X570500Y339500D01*
X540000Y335000D02*
X566000D01*
X165000Y367500D02*
X239500D01*
X249000Y358000D01*
Y315000D02*
Y358000D01*
X526500Y360500D02*
X550000D01*
X510000Y344000D02*
X526500Y360500D01*
X510000Y322000D02*
Y344000D01*
D27*
X79452Y477500D02*
X80000Y478048D01*
X30000Y477500D02*
X79452D01*
X222000Y469500D02*
X230000Y477500D01*
X222000Y447000D02*
Y469500D01*
X230000Y457500D02*
X247500D01*
X451000Y477500D02*
X470000D01*
X230000Y477500D02*
X247500D01*
X451000Y457500D02*
X470000D01*
X443000Y447000D02*
Y469500D01*
X451000Y477500D01*
X24500Y376500D02*
X49500D01*
X63500Y341000D02*
X70000Y347500D01*
X49500Y362500D02*
X56500D01*
X61000Y367000D01*
Y402000D01*
X24500Y395000D02*
Y427600D01*
X24500Y376500D02*
Y422600D01*
X-3700Y455800D02*
X24500Y427600D01*
X24500Y362500D02*
X37000D01*
X-15900Y341000D02*
X63500D01*
X230000Y467500D02*
X247500D01*
X230000Y430100D02*
Y457500D01*
Y430100D02*
X232500Y427600D01*
X243000D01*
X-29100Y354200D02*
X-15900Y341000D01*
X75000Y446000D02*
X87500Y458500D01*
Y467500D01*
X30000D02*
X87500D01*
X70000Y347500D02*
Y457441D01*
X30000Y457500D02*
X70059D01*
X-3700Y303400D02*
X33400D01*
X75000Y345000D01*
Y446000D01*
X16000Y362500D02*
X24500D01*
X14000Y364500D02*
X16000Y362500D01*
X14000Y364500D02*
Y426000D01*
X451000Y467500D02*
X470000D01*
D28*
X627500Y510000D02*
D03*
D29*
X422500Y493000D02*
D03*
X205000D02*
D03*
D30*
X183000Y487000D02*
D03*
D31*
X404078D02*
D03*
D32*
X213000Y594000D02*
D03*
X404000D02*
D03*
X17000Y168000D02*
D03*
X135000Y80000D02*
D03*
X155000D02*
D03*
X135000Y100000D02*
D03*
X155000D02*
D03*
X135000Y120000D02*
D03*
D33*
X-3700Y303400D02*
D03*
D34*
X-29100D02*
D03*
X-3700Y328800D02*
D03*
X-29100D02*
D03*
X-3700Y354200D02*
D03*
X-29100D02*
D03*
X-3700Y379600D02*
D03*
X-29100D02*
D03*
X-3700Y405000D02*
D03*
X-29100D02*
D03*
X-3700Y430400D02*
D03*
X-29100D02*
D03*
Y481200D02*
D03*
X-3700D02*
D03*
X-29100Y455800D02*
D03*
X-3700D02*
D03*
Y506600D02*
D03*
X-29100D02*
D03*
D35*
X540000Y235000D02*
D03*
Y335000D02*
D03*
X325000D02*
D03*
Y235000D02*
D03*
X122500D02*
D03*
Y335000D02*
D03*
D36*
X516000Y132400D02*
D03*
X566000D02*
D03*
X516000Y107000D02*
D03*
X566000Y157800D02*
D03*
X516000D02*
D03*
D37*
X566000Y107000D02*
D03*
D38*
X-11001Y120524D02*
D03*
Y220524D02*
D03*
D39*
X-46001Y120524D02*
D03*
Y220524D02*
D03*
D40*
X155000Y120000D02*
D03*
D41*
X273000Y566000D02*
D03*
X80000Y478048D02*
D03*
X607500Y467500D02*
D03*
X618500Y517000D02*
D03*
X627500D02*
D03*
X636500D02*
D03*
X507500Y365500D02*
D03*
X122500Y417500D02*
D03*
X547500Y415000D02*
D03*
X87500Y467500D02*
D03*
X95000Y365000D02*
D03*
X222000Y447000D02*
D03*
X230000Y457500D02*
D03*
X451000Y477500D02*
D03*
X230000Y477500D02*
D03*
X25000Y227500D02*
D03*
X12500Y252500D02*
D03*
X295000Y365000D02*
D03*
X325000Y417500D02*
D03*
X443000Y447000D02*
D03*
X61000Y402000D02*
D03*
X431500Y482000D02*
D03*
X413500D02*
D03*
X422500D02*
D03*
X288500Y487500D02*
D03*
X13000Y461000D02*
D03*
X514000Y487500D02*
D03*
X471000Y581000D02*
D03*
X230000Y467500D02*
D03*
X97300Y455500D02*
D03*
X214000Y482000D02*
D03*
X205000D02*
D03*
X70059Y457500D02*
D03*
X285500Y550000D02*
D03*
X175000Y532000D02*
D03*
X162000Y595000D02*
D03*
X399000Y564000D02*
D03*
X414500Y525500D02*
D03*
X14000Y426000D02*
D03*
X26000Y437000D02*
D03*
X132000Y569000D02*
D03*
X451000Y467500D02*
D03*
Y457500D02*
D03*
X196000Y482000D02*
D03*
D42*
X608000Y320385D02*
D03*
X108000Y307885D02*
D03*
Y297885D02*
D03*
X118000Y307885D02*
D03*
Y297885D02*
D03*
X128000Y307885D02*
D03*
Y297885D02*
D03*
X138000Y307885D02*
D03*
X190500Y300385D02*
D03*
X220500D02*
D03*
X305500Y307885D02*
D03*
Y297885D02*
D03*
X315500Y307885D02*
D03*
Y297885D02*
D03*
X325500Y307885D02*
D03*
Y297885D02*
D03*
X335500Y307885D02*
D03*
X220500Y290385D02*
D03*
X268000Y175000D02*
D03*
X280000D02*
D03*
X292000D02*
D03*
X244000D02*
D03*
X256000D02*
D03*
X280000Y164582D02*
D03*
X292000D02*
D03*
X244000D02*
D03*
X256000D02*
D03*
X268000D02*
D03*
Y154164D02*
D03*
X256000D02*
D03*
X244000D02*
D03*
X292000D02*
D03*
X280000D02*
D03*
X268000Y143746D02*
D03*
X256000D02*
D03*
X244000D02*
D03*
X292000D02*
D03*
X280000D02*
D03*
X46000Y150000D02*
D03*
X70000D02*
D03*
X94000D02*
D03*
X82000D02*
D03*
X58000D02*
D03*
X70000Y139582D02*
D03*
X58000D02*
D03*
X46000D02*
D03*
X94000D02*
D03*
X82000D02*
D03*
X70000Y129164D02*
D03*
X58000D02*
D03*
X46000D02*
D03*
X94000D02*
D03*
X82000D02*
D03*
X70000Y118746D02*
D03*
X58000D02*
D03*
X46000D02*
D03*
X94000D02*
D03*
X82000D02*
D03*
X548000Y287885D02*
D03*
X538000D02*
D03*
X528000D02*
D03*
X518000D02*
D03*
X548000Y297885D02*
D03*
X538000D02*
D03*
X528000D02*
D03*
X518000D02*
D03*
X548000Y307885D02*
D03*
X538000D02*
D03*
X528000D02*
D03*
X518000D02*
D03*
X210500Y320385D02*
D03*
X335500Y287885D02*
D03*
X325500D02*
D03*
X315500D02*
D03*
X305500D02*
D03*
X335500Y297885D02*
D03*
X138000Y287885D02*
D03*
X128000D02*
D03*
X118000D02*
D03*
X108000D02*
D03*
X138000Y297885D02*
D03*
X608000Y290385D02*
D03*
X638000D02*
D03*
Y310385D02*
D03*
Y320385D02*
D03*
X388000Y310385D02*
D03*
Y300385D02*
D03*
Y290385D02*
D03*
X418000D02*
D03*
Y300385D02*
D03*
Y310385D02*
D03*
X388000Y320385D02*
D03*
X398000D02*
D03*
X408000D02*
D03*
X418000D02*
D03*
X220500D02*
D03*
X200500D02*
D03*
X190500D02*
D03*
X220500Y310385D02*
D03*
X190500Y290385D02*
D03*
Y310385D02*
D03*
X240000Y415000D02*
D03*
X460000D02*
D03*
X525500Y379500D02*
D03*
X618000Y320385D02*
D03*
X628000D02*
D03*
X638000Y300385D02*
D03*
X608000Y310385D02*
D03*
Y300385D02*
D03*
M02*
