G04 Layer_Physical_Order=1*
G04 Layer_Color=255*
%FSLAX44Y44*%
%MOMM*%
G71*
G01*
G75*
%ADD10R,0.6000X2.0000*%
%ADD11R,2.0000X0.6000*%
%ADD12R,2.9000X2.6000*%
%ADD13R,1.6500X1.4000*%
%ADD14R,1.4000X1.6500*%
%ADD15R,0.8500X0.8500*%
%ADD16R,1.5000X1.3000*%
%ADD17C,1.0000*%
%ADD18R,1.3000X1.5000*%
%ADD19R,3.3000X1.0000*%
%ADD20R,0.8500X0.8500*%
%ADD21R,0.7000X1.0000*%
%ADD22R,2.5000X2.3000*%
%ADD23R,2.6000X1.1000*%
%ADD24C,0.5000*%
%ADD25C,0.8000*%
%ADD26C,0.6000*%
%ADD27C,0.3000*%
%ADD28R,2.6000X3.0000*%
%ADD29R,1.5843X0.6000*%
%ADD30R,1.8000X0.6000*%
%ADD31R,2.6000X2.6000*%
%ADD32C,1.8000*%
%ADD33R,1.8000X1.8000*%
%ADD34R,1.4000X1.4000*%
%ADD35C,1.4000*%
%ADD36C,2.0000*%
%ADD37R,2.0000X2.0000*%
%ADD38O,2.0000X1.6000*%
%ADD39R,2.0000X1.6000*%
%ADD40C,2.4000*%
%ADD41C,0.7000*%
%ADD42C,0.8000*%
G36*
X272232Y-379500D02*
X203500D01*
X203500Y-371000D01*
X203500Y-360000D01*
X227500Y-360000D01*
X272232D01*
Y-379500D01*
D02*
G37*
G36*
X441500Y-360000D02*
X441500Y-371000D01*
X441500Y-379500D01*
X369481D01*
Y-360000D01*
X417500D01*
X441500Y-360000D01*
D02*
G37*
G36*
X381000Y-452533D02*
X482000D01*
Y-473000D01*
X123000D01*
Y-414000D01*
X381000D01*
Y-452533D01*
D02*
G37*
G36*
X533000Y-448000D02*
X386000Y-448000D01*
X386000Y-426000D01*
X493000Y-426000D01*
Y-270000D01*
X533000D01*
Y-448000D01*
D02*
G37*
G36*
X-15202Y-388500D02*
X93000Y-388500D01*
Y-381000D01*
X115102D01*
Y-388500D01*
X293000D01*
Y-381000D01*
X315000D01*
Y-388500D01*
X328000D01*
Y-380000D01*
X349000D01*
Y-388500D01*
X349000Y-409000D01*
X-15202Y-409000D01*
Y-433000D01*
X-77000Y-433000D01*
X-77000Y-525000D01*
X-104902D01*
X-105290Y-523049D01*
X-106395Y-521395D01*
X-108049Y-520290D01*
X-110000Y-519902D01*
X-184902D01*
Y-358000D01*
X-171266D01*
X-170001Y-360476D01*
Y-388476D01*
X-167003D01*
X-165250Y-390750D01*
Y-409250D01*
X-164250D01*
Y-422250D01*
X-166939Y-423000D01*
X-167500D01*
Y-444000D01*
Y-448500D01*
X-156000D01*
X-144500D01*
Y-444000D01*
Y-423000D01*
X-145061D01*
X-147750Y-422250D01*
Y-409250D01*
X-146750D01*
Y-390750D01*
X-144997Y-388476D01*
X-142001D01*
Y-360476D01*
X-140736Y-358000D01*
X-15202D01*
Y-388500D01*
D02*
G37*
G36*
X73019Y-379500D02*
X1000D01*
X1000Y-371000D01*
X1000Y-360000D01*
X25000Y-360000D01*
X73019D01*
Y-379500D01*
D02*
G37*
G36*
X117980Y-478000D02*
X303000Y-478000D01*
X482000Y-478000D01*
X482000Y-498000D01*
X357000D01*
Y-589902D01*
X-27630D01*
X-28595Y-587061D01*
X-25394Y-584606D01*
X-19864Y-577399D01*
X-16388Y-569006D01*
X-15202Y-560000D01*
X-16388Y-550994D01*
X-19864Y-542601D01*
X-25394Y-535394D01*
X-32601Y-529864D01*
X-40994Y-526388D01*
X-50000Y-525202D01*
Y-525412D01*
X-72000D01*
Y-498000D01*
Y-438000D01*
X-10000D01*
Y-414000D01*
X117980D01*
Y-478000D01*
D02*
G37*
G36*
X6Y-270000D02*
X1089Y-271411D01*
X4431Y-273976D01*
X8323Y-275588D01*
X12500Y-276138D01*
X16677Y-275588D01*
X20569Y-273976D01*
X23911Y-271411D01*
X24994Y-270000D01*
X70629D01*
X72665Y-273000D01*
X72343Y-274615D01*
X72964Y-277737D01*
X74219Y-279615D01*
X72964Y-281494D01*
X72343Y-284615D01*
X72964Y-287737D01*
X74219Y-289615D01*
X72964Y-291494D01*
X72343Y-294615D01*
X72964Y-297737D01*
X74219Y-299615D01*
X72964Y-301494D01*
X72343Y-304615D01*
X72964Y-307737D01*
X74732Y-310383D01*
X77379Y-312151D01*
X80500Y-312772D01*
X83621Y-312151D01*
X86268Y-310383D01*
X88036Y-307737D01*
X88657Y-304615D01*
X88036Y-301494D01*
X86781Y-299615D01*
X88036Y-297737D01*
X88657Y-294615D01*
X88036Y-291494D01*
X86781Y-289615D01*
X88036Y-287737D01*
X88657Y-284615D01*
X91316Y-282610D01*
X93621Y-282151D01*
X95500Y-280896D01*
X97379Y-282151D01*
X100500Y-282772D01*
X102506Y-285432D01*
X102964Y-287737D01*
X104219Y-289615D01*
X102964Y-291494D01*
X102343Y-294615D01*
X102964Y-297737D01*
X104219Y-299615D01*
X102964Y-301494D01*
X102343Y-304615D01*
X102964Y-307737D01*
X104732Y-310383D01*
X107379Y-312151D01*
X110500Y-312772D01*
X113621Y-312151D01*
X116268Y-310383D01*
X118036Y-307737D01*
X118657Y-304615D01*
X118036Y-301494D01*
X116781Y-299615D01*
X118036Y-297737D01*
X118657Y-294615D01*
X118036Y-291494D01*
X116781Y-289615D01*
X118036Y-287737D01*
X118657Y-284615D01*
X118036Y-281494D01*
X116781Y-279615D01*
X118036Y-277737D01*
X118657Y-274615D01*
X118335Y-273000D01*
X120371Y-270000D01*
X202506Y-270000D01*
X203589Y-271411D01*
X206931Y-273976D01*
X210823Y-275588D01*
X215000Y-276138D01*
X219177Y-275588D01*
X223069Y-273976D01*
X226411Y-271411D01*
X227494Y-270000D01*
X268129D01*
X270165Y-273000D01*
X269843Y-274615D01*
X270464Y-277737D01*
X271719Y-279615D01*
X270464Y-281494D01*
X269843Y-284615D01*
X270464Y-287737D01*
X271719Y-289615D01*
X270464Y-291494D01*
X269843Y-294615D01*
X270464Y-297737D01*
X271719Y-299615D01*
X270464Y-301494D01*
X269843Y-304615D01*
X270464Y-307737D01*
X272232Y-310383D01*
X274879Y-312151D01*
X278000Y-312772D01*
X281121Y-312151D01*
X283768Y-310383D01*
X285536Y-307737D01*
X286157Y-304615D01*
X285536Y-301494D01*
X284281Y-299615D01*
X285536Y-297737D01*
X286157Y-294615D01*
X285536Y-291494D01*
X284281Y-289615D01*
X285536Y-287737D01*
X286157Y-284615D01*
X288000Y-282772D01*
X291121Y-282151D01*
X293000Y-280896D01*
X294879Y-282151D01*
X298000Y-282772D01*
X300006Y-285432D01*
X300464Y-287737D01*
X301719Y-289615D01*
X300464Y-291494D01*
X299843Y-294615D01*
X300464Y-297737D01*
X301719Y-299615D01*
X300464Y-301494D01*
X299843Y-304615D01*
X300464Y-307737D01*
X302232Y-310383D01*
X304879Y-312151D01*
X308000Y-312772D01*
X311121Y-312151D01*
X313768Y-310383D01*
X315536Y-307737D01*
X316157Y-304615D01*
X315536Y-301494D01*
X314281Y-299615D01*
X315536Y-297737D01*
X316157Y-294615D01*
X315536Y-291494D01*
X314281Y-289615D01*
X315536Y-287737D01*
X316157Y-284615D01*
X315536Y-281494D01*
X314281Y-279615D01*
X315536Y-277737D01*
X316157Y-274615D01*
X315835Y-273000D01*
X317871Y-270000D01*
X417506D01*
X418589Y-271411D01*
X421931Y-273976D01*
X425823Y-275588D01*
X430000Y-276138D01*
X434177Y-275588D01*
X438069Y-273976D01*
X441411Y-271411D01*
X442494Y-270000D01*
X488000D01*
X488000Y-348000D01*
X440644D01*
X438069Y-346024D01*
X434177Y-344412D01*
X430000Y-343862D01*
X425823Y-344412D01*
X421931Y-346024D01*
X419356Y-348000D01*
X225644Y-348000D01*
X223069Y-346024D01*
X219177Y-344412D01*
X215000Y-343862D01*
X210823Y-344412D01*
X206931Y-346024D01*
X204356Y-348000D01*
X23144Y-348000D01*
X20569Y-346024D01*
X16677Y-344412D01*
X12500Y-343862D01*
X8323Y-344412D01*
X4431Y-346024D01*
X1856Y-348000D01*
X-112000Y-348000D01*
Y-307737D01*
X-90000D01*
Y-270000D01*
X-43000Y-270000D01*
X6D01*
D02*
G37*
%LPC*%
G36*
X-82580Y-431000D02*
X-89000D01*
Y-437420D01*
X-88708Y-437362D01*
X-85070Y-434930D01*
X-82638Y-431292D01*
X-82580Y-431000D01*
D02*
G37*
G36*
X-97000D02*
X-103420D01*
X-103362Y-431292D01*
X-100931Y-434930D01*
X-97292Y-437362D01*
X-97000Y-437420D01*
Y-431000D01*
D02*
G37*
G36*
X-89000Y-416580D02*
Y-423000D01*
X-82580D01*
X-82638Y-422708D01*
X-85070Y-419070D01*
X-88708Y-416638D01*
X-89000Y-416580D01*
D02*
G37*
G36*
X-97000Y-416580D02*
X-97292Y-416638D01*
X-100931Y-419070D01*
X-103362Y-422708D01*
X-103420Y-423000D01*
X-97000D01*
Y-416580D01*
D02*
G37*
G36*
X-108542Y-478476D02*
X-117001D01*
Y-486935D01*
X-115929Y-486722D01*
X-111629Y-483848D01*
X-108756Y-479548D01*
X-108542Y-478476D01*
D02*
G37*
G36*
X-125001Y-462017D02*
X-126074Y-462230D01*
X-130374Y-465103D01*
X-133247Y-469404D01*
X-133460Y-470476D01*
X-125001D01*
Y-462017D01*
D02*
G37*
G36*
Y-478476D02*
X-133460D01*
X-133247Y-479548D01*
X-130374Y-483848D01*
X-126074Y-486722D01*
X-125001Y-486935D01*
Y-478476D01*
D02*
G37*
G36*
X-117001Y-462017D02*
Y-470476D01*
X-108542D01*
X-108756Y-469404D01*
X-111629Y-465103D01*
X-115929Y-462230D01*
X-117001Y-462017D01*
D02*
G37*
G36*
X-144500Y-456500D02*
X-156000D01*
X-167500D01*
Y-460476D01*
X-170001D01*
Y-488476D01*
X-142001D01*
Y-460476D01*
X-144500D01*
Y-456500D01*
D02*
G37*
G36*
X-117001Y-362017D02*
Y-370476D01*
X-108542D01*
X-108756Y-369404D01*
X-111629Y-365103D01*
X-115929Y-362230D01*
X-117001Y-362017D01*
D02*
G37*
G36*
X-125001D02*
X-126074Y-362230D01*
X-130374Y-365103D01*
X-133247Y-369404D01*
X-133460Y-370476D01*
X-125001D01*
Y-362017D01*
D02*
G37*
G36*
X-23441Y-392500D02*
X-39941D01*
Y-397500D01*
X-23441D01*
Y-392500D01*
D02*
G37*
G36*
X-89000D02*
X-105500D01*
Y-397500D01*
X-89000D01*
Y-392500D01*
D02*
G37*
G36*
X-64441Y-379500D02*
X-67441Y-379500D01*
X-81000D01*
Y-388500D01*
Y-397500D01*
X-67441D01*
X-64500Y-397500D01*
X-61500Y-397500D01*
X-47941D01*
Y-388500D01*
Y-379500D01*
X-61500D01*
X-64441Y-379500D01*
D02*
G37*
G36*
X-125001Y-378476D02*
X-133460D01*
X-133247Y-379548D01*
X-130374Y-383848D01*
X-126074Y-386722D01*
X-125001Y-386935D01*
Y-378476D01*
D02*
G37*
G36*
X-39941Y-379500D02*
Y-384500D01*
X-23441D01*
Y-379500D01*
X-39941D01*
D02*
G37*
G36*
X-89000D02*
X-105500D01*
Y-384500D01*
X-89000D01*
Y-379500D01*
D02*
G37*
G36*
X-108542Y-378476D02*
X-117001D01*
Y-386935D01*
X-115929Y-386722D01*
X-111629Y-383848D01*
X-108756Y-379548D01*
X-108542Y-378476D01*
D02*
G37*
G36*
X25000Y-463784D02*
X20708Y-464638D01*
X17069Y-467069D01*
X14638Y-470708D01*
X13785Y-475000D01*
X14638Y-479292D01*
X17069Y-482930D01*
X17922Y-483500D01*
Y-486500D01*
X17069Y-487070D01*
X14638Y-490708D01*
X13785Y-495000D01*
X14638Y-499292D01*
X17069Y-502930D01*
X17922Y-503500D01*
Y-506500D01*
X17069Y-507070D01*
X14638Y-510708D01*
X13785Y-515000D01*
X14638Y-519292D01*
X17069Y-522931D01*
X20708Y-525362D01*
X25000Y-526216D01*
X29292Y-525362D01*
X32931Y-522931D01*
X33500Y-522078D01*
X36500D01*
X37069Y-522931D01*
X40708Y-525362D01*
X45000Y-526216D01*
X49292Y-525362D01*
X52930Y-522931D01*
X55362Y-519292D01*
X56216Y-515000D01*
X55362Y-510708D01*
X52930Y-507070D01*
X52078Y-506500D01*
Y-503500D01*
X52930Y-502930D01*
X55362Y-499292D01*
X56216Y-495000D01*
X55362Y-490708D01*
X54220Y-489000D01*
X55824Y-486000D01*
X56000D01*
Y-464000D01*
X34000D01*
Y-464176D01*
X31000Y-465779D01*
X29292Y-464638D01*
X25000Y-463784D01*
D02*
G37*
G36*
X-64441Y-317500D02*
X-67441Y-317500D01*
X-81000D01*
Y-326500D01*
Y-335500D01*
X-67441D01*
X-64500Y-335500D01*
X-61500Y-335500D01*
X-47941D01*
Y-326500D01*
Y-317500D01*
X-61500D01*
X-64441Y-317500D01*
D02*
G37*
G36*
X-89000Y-330500D02*
X-105500D01*
Y-335500D01*
X-89000D01*
Y-330500D01*
D02*
G37*
G36*
X-39941Y-317500D02*
Y-322500D01*
X-23441D01*
Y-317500D01*
X-39941D01*
D02*
G37*
G36*
X-89000D02*
X-105500D01*
Y-322500D01*
X-89000D01*
Y-317500D01*
D02*
G37*
G36*
X-23441Y-330500D02*
X-39941D01*
Y-335500D01*
X-23441D01*
Y-330500D01*
D02*
G37*
%LPD*%
D10*
X-15000Y-62500D02*
D03*
X-25000Y-182500D02*
D03*
X-15000D02*
D03*
X-25000Y-62500D02*
D03*
X192500Y-62500D02*
D03*
X202500Y-182500D02*
D03*
X192500D02*
D03*
X202500Y-62500D02*
D03*
X425000D02*
D03*
X415000Y-182500D02*
D03*
X425000D02*
D03*
X415000Y-62500D02*
D03*
D11*
X40000Y-97500D02*
D03*
Y-107500D02*
D03*
Y-117500D02*
D03*
Y-127500D02*
D03*
Y-137500D02*
D03*
Y-147500D02*
D03*
X-80000D02*
D03*
Y-137500D02*
D03*
Y-127500D02*
D03*
Y-117500D02*
D03*
Y-107500D02*
D03*
Y-97500D02*
D03*
X137500Y-97500D02*
D03*
Y-107500D02*
D03*
Y-117500D02*
D03*
Y-127500D02*
D03*
Y-137500D02*
D03*
Y-147500D02*
D03*
X257500D02*
D03*
Y-137500D02*
D03*
Y-127500D02*
D03*
Y-117500D02*
D03*
Y-107500D02*
D03*
Y-97500D02*
D03*
X480000D02*
D03*
Y-107500D02*
D03*
Y-117500D02*
D03*
Y-127500D02*
D03*
Y-137500D02*
D03*
Y-147500D02*
D03*
X360000D02*
D03*
Y-137500D02*
D03*
Y-127500D02*
D03*
Y-117500D02*
D03*
Y-107500D02*
D03*
Y-97500D02*
D03*
D12*
X95048Y-200000D02*
D03*
Y-250000D02*
D03*
X315048D02*
D03*
Y-200000D02*
D03*
X512500D02*
D03*
Y-250000D02*
D03*
D13*
X9000Y-59000D02*
D03*
X39000D02*
D03*
D14*
X137500Y-31000D02*
D03*
Y-61000D02*
D03*
X361000D02*
D03*
Y-31000D02*
D03*
D15*
X-156000Y-414000D02*
D03*
Y-400000D02*
D03*
X339000Y-61000D02*
D03*
Y-47000D02*
D03*
X-73000Y-218500D02*
D03*
Y-232500D02*
D03*
X-85500Y-232500D02*
D03*
Y-218500D02*
D03*
X-60500Y-232500D02*
D03*
Y-218500D02*
D03*
X117500Y-61000D02*
D03*
Y-47000D02*
D03*
D16*
X-156000Y-452500D02*
D03*
Y-433500D02*
D03*
X440000Y-215500D02*
D03*
Y-234500D02*
D03*
X67500Y-127000D02*
D03*
Y-108000D02*
D03*
X25500Y-192500D02*
D03*
Y-211500D02*
D03*
X241000Y-192500D02*
D03*
Y-211500D02*
D03*
X286157Y-127000D02*
D03*
Y-108000D02*
D03*
D17*
X372500Y-525000D02*
D03*
X0Y0D02*
D03*
D18*
X-155500Y-336000D02*
D03*
X-136500D02*
D03*
D19*
X-43941Y-326500D02*
D03*
Y-388500D02*
D03*
X-85000D02*
D03*
Y-326500D02*
D03*
D20*
X484000Y-172000D02*
D03*
X470000D02*
D03*
X147000Y-167400D02*
D03*
X133000D02*
D03*
X9000Y-37500D02*
D03*
X23000D02*
D03*
X39500Y-172000D02*
D03*
X25500D02*
D03*
X255000D02*
D03*
X241000D02*
D03*
D21*
X517000Y-148000D02*
D03*
X526500Y-172000D02*
D03*
X507500D02*
D03*
X95000Y-148000D02*
D03*
X104500Y-172000D02*
D03*
X85500D02*
D03*
X303000Y-172000D02*
D03*
X322000D02*
D03*
X312500Y-148000D02*
D03*
X-76000Y-176000D02*
D03*
X-66500Y-200000D02*
D03*
X-85500D02*
D03*
D22*
X304000Y-370000D02*
D03*
X261000D02*
D03*
X104000D02*
D03*
X61000D02*
D03*
X338500D02*
D03*
X381500D02*
D03*
D23*
X95000Y-92500D02*
D03*
Y-127500D02*
D03*
X312500D02*
D03*
Y-92500D02*
D03*
X55000Y-192500D02*
D03*
Y-227500D02*
D03*
X275000Y-192500D02*
D03*
Y-227500D02*
D03*
X517500Y-127500D02*
D03*
Y-92500D02*
D03*
X470000Y-200000D02*
D03*
Y-235000D02*
D03*
D24*
X23000Y-37500D02*
Y-26000D01*
Y-37500D02*
X34500D01*
X-14500D02*
X9000D01*
Y-25000D01*
X20000Y-14000D01*
X9000Y-59000D02*
Y-37500D01*
X39000Y-59000D02*
Y-42000D01*
X34500Y-37500D02*
X39000Y-42000D01*
X163000Y-31000D02*
X163000Y-31000D01*
X137500Y-31000D02*
X163000D01*
X122500D02*
X137500D01*
X117500Y-36000D02*
X122500Y-31000D01*
X117500Y-47000D02*
Y-36000D01*
X191000Y-61000D02*
X192500Y-62500D01*
X137500Y-61000D02*
X191000D01*
X137500Y-97500D02*
Y-61000D01*
X117500D02*
X137500D01*
X344000Y-31000D02*
X361000D01*
X339000Y-36000D02*
X344000Y-31000D01*
X339000Y-47000D02*
Y-36000D01*
X361000Y-29000D02*
Y-14000D01*
X339000Y-61000D02*
X361000D01*
X517000Y-148000D02*
Y-127500D01*
X480000Y-127500D02*
X517000D01*
X517500Y-92500D02*
Y-89000D01*
Y-102500D02*
Y-92500D01*
X512500Y-107500D02*
X517500Y-102500D01*
X480000Y-107500D02*
X512500D01*
X480000Y-154000D02*
Y-147500D01*
X470000Y-164000D02*
X480000Y-154000D01*
X470000Y-200000D02*
Y-164000D01*
X202500Y-225000D02*
Y-182500D01*
X197500Y-230000D02*
X202500Y-225000D01*
X185000Y-230000D02*
X197500D01*
X245000Y-147500D02*
X257500D01*
X241000Y-151500D02*
X245000Y-147500D01*
X241000Y-172000D02*
Y-151500D01*
X7749Y-117500D02*
X28000Y-117500D01*
X-2500Y-127749D02*
X7749Y-117500D01*
X-2500Y-168144D02*
Y-127749D01*
X6856Y-177500D02*
X12500D01*
X-2500Y-168144D02*
X6856Y-177500D01*
X-93500Y-107500D02*
X-80000D01*
X-97000Y-111000D02*
X-93500Y-107500D01*
X-97000Y-134000D02*
Y-111000D01*
X-93500Y-147500D02*
X-80000D01*
X-97000Y-144000D02*
X-93500Y-147500D01*
X-97000Y-144000D02*
Y-134000D01*
X215000Y-177500D02*
Y-129025D01*
X226525Y-117500D01*
X257500D01*
X360000Y-147500D02*
X392500D01*
X404000Y-136000D01*
Y-107500D01*
X437500Y-180000D02*
Y-125000D01*
X445000Y-117500D01*
X480000D01*
X-157500Y-83500D02*
X-144000Y-70000D01*
X-157500Y-160500D02*
Y-83500D01*
Y-160500D02*
X-153400Y-164600D01*
X-84000Y-158000D02*
X-76000Y-166000D01*
X360500Y-74000D02*
X361000Y-74500D01*
X-156001Y-374476D02*
Y-336501D01*
X-121001Y-374476D02*
Y-340999D01*
X-126000Y-336000D02*
X-121001Y-340999D01*
X-136500Y-336000D02*
X-126000D01*
X-76000Y-176000D02*
Y-166000D01*
X470000Y-200000D02*
X512500D01*
X169000Y-279000D02*
Y-227500D01*
X192500Y-204000D01*
Y-182500D01*
X-25394Y-283000D02*
X-25000Y-282606D01*
Y-182500D01*
X-113700Y-215400D02*
Y-190000D01*
X147100Y-167500D02*
X178500D01*
Y-147500D01*
X137500D02*
X178500D01*
Y-107500D01*
X137500D02*
X178500D01*
X-139100Y-190000D02*
Y-164600D01*
X327000Y-61000D02*
X339000D01*
X322000Y-56000D02*
X327000Y-61000D01*
X322000Y-56000D02*
Y-23000D01*
X20000Y-14000D02*
X313000D01*
X97500Y-56000D02*
Y-14000D01*
Y-56000D02*
X102500Y-61000D01*
X117500D01*
X313000Y-14000D02*
X322000Y-23000D01*
X-153400Y-164600D02*
X-139100D01*
X255000Y-172000D02*
X303000D01*
X412500Y-202500D02*
X420000D01*
X425000Y-197500D01*
Y-182500D01*
X415500Y-215500D02*
X440000D01*
X397500Y-217500D02*
X412500Y-202500D01*
X397500Y-229500D02*
Y-217500D01*
X338000Y-192000D02*
X350000Y-180000D01*
X95048Y-192000D02*
X118000D01*
X26000D02*
X95048D01*
X118000D02*
X130000Y-180000D01*
X95000Y-148000D02*
X95000Y-148000D01*
X312500Y-148000D02*
Y-127500D01*
X312500Y-127500D02*
X312500Y-127500D01*
X257500Y-127500D02*
X312500D01*
X484000Y-172000D02*
X507500D01*
X440000Y-215500D02*
Y-205000D01*
X445000Y-200000D01*
X470000D01*
X95000Y-148000D02*
Y-125000D01*
X-15000Y-230000D02*
Y-182500D01*
X40000Y-107500D02*
X67000D01*
X67500Y-108000D01*
X28000Y-117500D02*
X40000D01*
Y-147500D02*
X40000Y-147500D01*
X-80000Y-97500D02*
X-79500Y-97000D01*
X-80000Y-97500D02*
Y-70000D01*
X-144000Y-70000D02*
X-51500D01*
X-44000Y-62500D01*
X-25000D01*
X-25000Y-62500D01*
Y-48000D01*
X-14500Y-37500D01*
X360000Y-107500D02*
X404000D01*
X361000Y-61000D02*
X413500D01*
X202500Y-182500D02*
X202500Y-182500D01*
X383000Y-276000D02*
Y-201500D01*
X402000Y-182500D01*
X415000D01*
X25500Y-172000D02*
Y-147500D01*
X40000D01*
X39500Y-172000D02*
X85500D01*
X315048Y-192000D02*
X320096D01*
X338000D01*
X241000D02*
Y-172000D01*
Y-192000D02*
X315000D01*
X25500Y-192500D02*
Y-172000D01*
X95000Y-191952D02*
X95048Y-192000D01*
X-156000Y-400000D02*
Y-374477D01*
D25*
X440000Y-250000D02*
X512500D01*
X430000Y-260000D02*
X440000Y-250000D01*
X22500D02*
X95048D01*
X12500Y-260000D02*
X22500Y-250000D01*
X225000D02*
X315048D01*
X215000Y-260000D02*
X225000Y-250000D01*
X246000Y-227500D02*
X275000D01*
X241000Y-222500D02*
Y-211500D01*
Y-222500D02*
X246000Y-227500D01*
X28000Y-227500D02*
X55000D01*
X25500Y-225000D02*
X28000Y-227500D01*
X25500Y-225000D02*
Y-211500D01*
X400000Y-273000D02*
Y-251000D01*
X416500Y-234500D01*
X440000D01*
X139000Y-280000D02*
Y-237000D01*
X129500Y-227500D02*
X139000Y-237000D01*
X55000Y-227500D02*
X129500D01*
X-85000Y-388500D02*
X-43941D01*
X-85000Y-326500D02*
X-43941D01*
X440000Y-234500D02*
X469500D01*
X275000Y-227500D02*
X349500D01*
X359000Y-237000D01*
Y-280000D02*
Y-237000D01*
D26*
X517500Y-89000D02*
Y-78000D01*
X360500Y-74000D02*
Y-61452D01*
Y-97500D02*
Y-74000D01*
X303500Y-113000D02*
Y-108000D01*
X40000Y-127500D02*
X92500D01*
Y-125000D02*
X95000D01*
X257500Y-107500D02*
X285657D01*
X286157Y-108000D01*
X287500D01*
X320000Y-191904D02*
X320096Y-192000D01*
X321500Y-193404D01*
X-156000Y-434000D02*
Y-414000D01*
D27*
X-157000Y-248000D02*
Y-219500D01*
X-152900Y-215400D01*
X-139100D01*
X-57000Y-254000D02*
X-36000Y-233000D01*
X-151000Y-254000D02*
X-57000D01*
X-157000Y-248000D02*
X-151000Y-254000D01*
X-22500Y-155500D02*
Y-127500D01*
X-36000Y-169000D02*
X-22500Y-155500D01*
X-36000Y-233000D02*
Y-169000D01*
X-96000Y-230500D02*
Y-169000D01*
X-85500Y-200000D02*
Y-167400D01*
X-113700Y-139200D02*
X-85500Y-167400D01*
X341000Y-127500D02*
X360000D01*
X-96000Y-230500D02*
X-94000Y-232500D01*
X-85500D01*
X-80000Y-137500D02*
X-39941D01*
X-80000Y-127500D02*
X-22500D01*
X122500Y-167400D02*
X133000D01*
X120000Y-164900D02*
X122500Y-167400D01*
X120000Y-164900D02*
Y-137500D01*
Y-127500D02*
X137500D01*
X-85500Y-232500D02*
X-73000D01*
X-85500Y-218500D02*
Y-172400D01*
X-49000Y-228000D02*
Y-193000D01*
X-53500Y-232500D02*
X-49000Y-228000D01*
X-60500Y-232500D02*
X-53500D01*
X-85500Y-218500D02*
X-60500D01*
X333000Y-125500D02*
X341000Y-117500D01*
X333000Y-148000D02*
Y-125500D01*
X341000Y-137500D02*
X360000D01*
X120000Y-117500D02*
X137500D01*
X341000Y-117500D02*
X360000D01*
X120000Y-137500D02*
X137500D01*
X112000Y-148000D02*
Y-125500D01*
X120000Y-117500D01*
X-80000Y-117500D02*
X-30548D01*
X-30000Y-116952D01*
D28*
X95000Y-102000D02*
D03*
X312500D02*
D03*
D29*
X294078Y-108000D02*
D03*
D30*
X73000D02*
D03*
D31*
X517500Y-85000D02*
D03*
D32*
X-121001Y-374476D02*
D03*
Y-474476D02*
D03*
D33*
X-156001Y-374476D02*
D03*
Y-474476D02*
D03*
D34*
X45000Y-475000D02*
D03*
D35*
X25000D02*
D03*
X45000Y-495000D02*
D03*
X25000D02*
D03*
X45000Y-515000D02*
D03*
X25000D02*
D03*
X294000Y-1000D02*
D03*
X-93000Y-427000D02*
D03*
X103000Y-1000D02*
D03*
D36*
X406000Y-437200D02*
D03*
X456000D02*
D03*
X406000Y-488000D02*
D03*
X456000Y-462600D02*
D03*
X406000D02*
D03*
D37*
X456000Y-488000D02*
D03*
D38*
X-139100Y-88400D02*
D03*
X-113700D02*
D03*
Y-139200D02*
D03*
X-139100D02*
D03*
X-113700Y-113800D02*
D03*
X-139100D02*
D03*
Y-164600D02*
D03*
X-113700D02*
D03*
X-139100Y-190000D02*
D03*
X-113700D02*
D03*
X-139100Y-215400D02*
D03*
X-113700D02*
D03*
X-139100Y-240800D02*
D03*
X-113700D02*
D03*
X-139100Y-266200D02*
D03*
X-113700D02*
D03*
X-139100Y-291600D02*
D03*
D39*
X-113700D02*
D03*
D40*
X430000Y-260000D02*
D03*
Y-360000D02*
D03*
X12500Y-260000D02*
D03*
Y-360000D02*
D03*
X215000D02*
D03*
Y-260000D02*
D03*
D41*
X-96000Y-169000D02*
D03*
X-84000Y-158000D02*
D03*
X86000Y-113000D02*
D03*
X341000Y-137500D02*
D03*
Y-127500D02*
D03*
X23000Y-26000D02*
D03*
X304500Y-69500D02*
D03*
X289000Y-31000D02*
D03*
X52000Y0D02*
D03*
X65000Y-63000D02*
D03*
X175500Y-45000D02*
D03*
X-39941Y-137500D02*
D03*
X95000Y-113000D02*
D03*
X104000D02*
D03*
X-12700Y-139500D02*
D03*
X120000Y-127500D02*
D03*
X361000Y-14000D02*
D03*
X404000Y-107500D02*
D03*
X-97000Y-134000D02*
D03*
X178500Y-107500D02*
D03*
X312500Y-113000D02*
D03*
X303500D02*
D03*
X321500D02*
D03*
X-49000Y-193000D02*
D03*
X333000Y-148000D02*
D03*
X215000Y-177500D02*
D03*
X185000Y-230000D02*
D03*
X-97500Y-342500D02*
D03*
X-85000Y-367500D02*
D03*
X120000Y-117500D02*
D03*
X341000Y-117500D02*
D03*
X120000Y-137500D02*
D03*
X112000Y-148000D02*
D03*
X-15000Y-230000D02*
D03*
X-22500Y-127500D02*
D03*
X437500Y-180000D02*
D03*
X12500Y-177500D02*
D03*
X397500Y-229500D02*
D03*
X526500Y-78000D02*
D03*
X517500D02*
D03*
X508500D02*
D03*
X497500Y-127500D02*
D03*
X-30000Y-116952D02*
D03*
X163000Y-31000D02*
D03*
D42*
X498000Y-294615D02*
D03*
Y-284615D02*
D03*
X528000Y-294615D02*
D03*
X518000Y-274615D02*
D03*
X508000D02*
D03*
X415500Y-215500D02*
D03*
X350000Y-180000D02*
D03*
X130000D02*
D03*
X80500Y-284615D02*
D03*
Y-304615D02*
D03*
X110500Y-284615D02*
D03*
X80500Y-274615D02*
D03*
X90500D02*
D03*
X110500D02*
D03*
X308000D02*
D03*
X298000D02*
D03*
X288000D02*
D03*
X278000D02*
D03*
X308000Y-284615D02*
D03*
Y-294615D02*
D03*
Y-304615D02*
D03*
X278000D02*
D03*
Y-294615D02*
D03*
Y-284615D02*
D03*
X528000Y-274615D02*
D03*
Y-284615D02*
D03*
Y-304615D02*
D03*
X498000D02*
D03*
X28000Y-297115D02*
D03*
X-2000Y-307115D02*
D03*
X8000D02*
D03*
X18000D02*
D03*
X28000D02*
D03*
X225500Y-297115D02*
D03*
X195500Y-307115D02*
D03*
X205500D02*
D03*
X215500D02*
D03*
X225500D02*
D03*
X100500Y-274615D02*
D03*
X408000Y-287115D02*
D03*
X418000D02*
D03*
X428000D02*
D03*
X438000D02*
D03*
X408000Y-297115D02*
D03*
X418000D02*
D03*
X428000D02*
D03*
X438000D02*
D03*
X408000Y-307115D02*
D03*
X418000D02*
D03*
X428000D02*
D03*
X438000D02*
D03*
X-28000Y-476254D02*
D03*
X-16000D02*
D03*
X-64000D02*
D03*
X-52000D02*
D03*
X-40000D02*
D03*
X-28000Y-465836D02*
D03*
X-16000D02*
D03*
X-64000D02*
D03*
X-52000D02*
D03*
X-40000D02*
D03*
X-28000Y-455418D02*
D03*
X-16000D02*
D03*
X-64000D02*
D03*
X-52000D02*
D03*
X-40000D02*
D03*
X-52000Y-445000D02*
D03*
X-28000D02*
D03*
X-16000D02*
D03*
X-40000D02*
D03*
X-64000D02*
D03*
X170000Y-451254D02*
D03*
X182000D02*
D03*
X134000D02*
D03*
X146000D02*
D03*
X158000D02*
D03*
X170000Y-440836D02*
D03*
X182000D02*
D03*
X134000D02*
D03*
X146000D02*
D03*
X158000D02*
D03*
Y-430418D02*
D03*
X146000D02*
D03*
X134000D02*
D03*
X182000D02*
D03*
X170000D02*
D03*
X146000Y-420000D02*
D03*
X134000D02*
D03*
X182000D02*
D03*
X170000D02*
D03*
X158000D02*
D03*
X110500Y-304615D02*
D03*
X225500Y-287115D02*
D03*
X215500Y-297115D02*
D03*
Y-287115D02*
D03*
X205500Y-297115D02*
D03*
Y-287115D02*
D03*
X195500Y-297115D02*
D03*
Y-287115D02*
D03*
X110500Y-294615D02*
D03*
X80500D02*
D03*
X28000Y-287115D02*
D03*
X18000Y-297115D02*
D03*
Y-287115D02*
D03*
X8000Y-297115D02*
D03*
Y-287115D02*
D03*
X-2000Y-297115D02*
D03*
Y-287115D02*
D03*
X498000Y-274615D02*
D03*
M02*
