M48
;Layer_Color=9474304
;FILE_FORMAT=4:4
METRIC,LZ
;TYPE=PLATED
T1F00S00C0.3000
T2F00S00C0.4000
T3F00S00C0.8000
T4F00S00C2.7000
;TYPE=NON_PLATED
T5F00S00C2.2000
%
T01
X0061Y00142
X005875Y0027
T02
X00204581Y00078
X00307725Y004125
Y00424
Y00433522
Y00443045
Y00452567
Y00462089
Y00471611
Y00481133
Y00490656
Y005025
X003175
X003275
X003375
X003475
X003575
X003675
X003775
X003875
X00448Y004835
Y00474
X00458
Y004835
X00468Y00484
Y00474
Y00464
X00458
X00448
X00478Y004645
X00488
X00498
Y004745
Y004845
X00488Y00484
Y004745
X00478
Y00484
X00565Y004275
Y00413
X00565Y00367
X00612058Y00461611
X003875Y004125
X003775
X003675
X003575
X003475
X003375
X003275
X003175
T03
X003233Y001775
X003741
X003995
X004249
X004503
X002979
X002725
X000575Y0018
Y002
X000375
Y0018
Y0016
Y0014
X000575
Y0016
Y0012
X000375
Y001
Y0008
X000575
Y001
X00129Y00047
X000575Y0022
X000375
X0008Y003625
X001
X0012
X0014
X0016
X0018
Y003825
X0016
X0014
X0012
X001
X0008
X001775Y0048
X001975
Y005
X001775
Y0052
X001975
X002725Y00295
X002979
X003233
X003741
X003995
X004249
X004503
X00605Y005025
X00625
Y005225
X00605
T04
X0047Y00075
X00205Y00035
X0027Y00575
X0047Y00525
T05
X000475Y00045
Y00255
X00045Y003725
X00215
X001875Y00445
Y00555
X0057Y005125
X0066
M30
