M48
;Layer_Color=9474304
;FILE_FORMAT=4:4
METRIC,LZ
;TYPE=PLATED
T1F00S00C0.4000
T2F00S00C0.8000
T3F00S00C2.7000
;TYPE=NON_PLATED
T4F00S00C2.2000
%
T01
X0033Y-003655
X-00075419Y-004295
X00027725Y-00093
Y-000835
Y-00073978
Y-00064455
Y-00054933
Y-00045411
Y-00035889
Y-00026367
Y-00016844
Y-00005
X000375
X000475
X000575
X000675
X000775
X000875
X000975
X001075
X00168Y-00024
Y-000335
X00178
Y-00024
X00188Y-000235
Y-000335
Y-000435
X00178
X00168
X00198Y-00043
X00208
X00218
Y-00033
Y-00023
X00208Y-000235
Y-00033
X00198
Y-000235
X00285Y-0008
Y-000945
X00285Y-001405
X003075Y-002375
X00332058Y-00045889
X001075Y-00093
X000975
X000875
X000775
X000675
X000575
X000475
X000375
T02
X000433Y-0033
X000941
X001195
X001449
X001703
X000179
X-000075
X-002225Y-003275
Y-003075
X-002425
Y-003275
Y-003475
Y-003675
Y-003875
Y-004075
Y-004275
X-002225
Y-004075
Y-003875
Y-003675
Y-003475
X-00151Y-004605
X-002225Y-002875
X-002425
X-002Y-00145
X-0018
Y-00125
X-002
X-0016
X-0014
Y-00145
X-0016
X-0012
Y-00125
X-001
Y-00145
X-001025Y-000275
Y-000075
Y000125
X-000825
Y-000075
Y-000275
X-000075Y-002125
X000179
X000433
X000941
X001195
X001449
X001703
X00325Y-00005
Y00015
X00345
Y-00005
T03
X0019Y-004325
X-00075Y-004725
X-0001Y000675
X0019Y000175
T04
X-002325Y-004625
Y-002525
X-00235Y-00135
X-00065
X-000925Y-000625
Y000475
X0029Y00005
X0038
M30
