M48
;Layer_Color=9474304
;FILE_FORMAT=4:4
METRIC,LZ
;TYPE=PLATED
T1F00S00C0.3000
T2F00S00C0.4000
T3F00S00C0.8000
T4F00S00C1.0000
T5F00S00C1.2000
;TYPE=NON_PLATED
%
T01
X-00085Y-003675
X-000975Y-003425
X-00096Y-00169
X-00084Y-00158
X-00097Y-00134
X-00039941Y-001375
X-000225Y-001275
X-0003Y-00116952
X-00049Y-00193
X-00015Y-0023
X000125Y-001775
X-000127Y-001395
X00086Y-00113
X00095
X00104
X0012Y-001175
Y-001275
Y-001375
X00112Y-00148
X001785Y-001075
X001755Y-00045
X00163Y-00031
X00289
X003045Y-000695
X003035Y-00113
X003125
X003215
X00341Y-001175
Y-001275
Y-001375
X00333Y-00148
X00215Y-001775
X00185Y-0023
X00065Y-00063
X00052Y0
X00023Y-00026
X00361Y-00014
X00404Y-001075
X004375Y-0018
X003975Y-002295
X004975Y-001275
X005085Y-00078
X005175
X005265
T02
X-00016Y-00476254
Y-00465836
Y-00455418
Y-00445
X00134Y-00440836
Y-00451254
X00146
Y-00440836
Y-00430418
Y-0042
X00134
Y-00430418
X00158
Y-00440836
Y-00451254
X0017
Y-00440836
Y-00430418
Y-0042
X00182
Y-00430418
Y-00440836
Y-00451254
X00158Y-0042
X-00028Y-00445
Y-00455418
Y-00465836
Y-00476254
X-0004
Y-00465836
Y-00455418
Y-00445
X-00052
Y-00455418
Y-00465836
Y-00476254
X-00064
Y-00465836
Y-00455418
Y-00445
X-00002Y-00307115
X00008
X00018
X00028
Y-00297115
Y-00287115
X00018
Y-00297115
X00008
Y-00287115
X-00002
Y-00297115
X000805Y-00294615
Y-00284615
Y-00274615
X000905
X001005
X001105
Y-00284615
Y-00294615
Y-00304615
X000805
X001955Y-00307115
X002055
X002155
X002255
Y-00297115
Y-00287115
X002155
Y-00297115
X002055
Y-00287115
X001955
Y-00297115
X00278Y-00294615
Y-00284615
Y-00274615
X00288
X00298
X00308
Y-00284615
Y-00294615
Y-00304615
X00278
X0035Y-0018
X0013
X004155Y-002155
X00418Y-00287115
X00428
Y-00297115
X00418
X00408
Y-00287115
Y-00307115
X00418
X00428
X00438
Y-00297115
Y-00287115
X00498Y-00284615
Y-00294615
Y-00304615
X00528
Y-00294615
Y-00284615
Y-00274615
X00518
X00508
X00498
T03
X00025Y-00515
Y-00495
Y-00475
X00045
Y-00495
Y-00515
X-00093Y-00427
X00103Y-00001
X00294
T04
X-00156001Y-00474476
X-00121001
Y-00374476
X-00156001
X-001391Y-002916
Y-002662
Y-002408
Y-002154
Y-0019
Y-001646
Y-001392
X-001137
Y-001138
Y-000884
X-001391
Y-001138
X-001137Y-001646
Y-0019
Y-002154
Y-002408
Y-002662
Y-002916
T05
X00406Y-00488
Y-004626
Y-004372
X00456
Y-004626
Y-00488
X0043Y-0036
X00215
X000125
Y-0026
X00215
X0043
M30
