M48
;Layer_Color=9474304
;FILE_FORMAT=4:4
METRIC,LZ
;TYPE=PLATED
T1F00S00C0.3000
T2F00S00C0.4000
T3F00S00C0.8000
T4F00S00C1.0000
T5F00S00C1.2000
;TYPE=NON_PLATED
%
T01
X00025Y002275
X000125Y002525
X00014Y00426
X00026Y00437
X00013Y00461
X00070059Y004575
X000875Y004675
X0008Y00478048
X00061Y00402
X00095Y00365
X001225Y004175
X000973Y004555
X00196Y00482
X00205
X00214
X0023Y004775
Y004675
Y004575
X00222Y00447
X002885Y004875
X002855Y0055
X00273Y00566
X00399Y00564
X004145Y005255
X004135Y00482
X004225
X004315
X00451Y004775
Y004675
Y004575
X00443Y00447
X00325Y004175
X00295Y00365
X00175Y00532
X00162Y00595
X00132Y00569
X00471Y00581
X00514Y004875
X005475Y00415
X005075Y003655
X006075Y004675
X006185Y00517
X006275
X006365
T02
X00094Y00118746
Y00129164
Y00139582
Y0015
X00244Y00154164
Y00164582
Y00175
X00256
Y00164582
Y00154164
Y00143746
X00268
Y00154164
Y00164582
Y00175
X0028
Y00164582
Y00154164
Y00143746
X00292
Y00154164
Y00164582
Y00175
X00244Y00143746
X00082Y00139582
Y0015
X0007
Y00139582
Y00129164
Y00118746
X00058
Y00129164
Y00139582
Y0015
X00046
Y00139582
Y00129164
Y00118746
X00082
Y00129164
X00108Y00287885
Y00297885
Y00307885
X00118
Y00297885
X00128
Y00307885
X00138
Y00297885
Y00287885
X00128
X00118
X001905Y00290385
Y00300385
Y00310385
Y00320385
X002005
X002105
X002205
Y00310385
Y00300385
Y00290385
X003055Y00287885
Y00297885
Y00307885
X003155
Y00297885
X003255
Y00307885
X003355
Y00297885
Y00287885
X003255
X003155
X00388Y00290385
Y00300385
Y00310385
Y00320385
X00398
X00408
X00418
Y00310385
Y00300385
Y00290385
X0046Y00415
X0024
X005255Y003795
X00528Y00307885
Y00297885
X00538
Y00307885
X00548
Y00297885
Y00287885
X00538
X00528
X00518
Y00297885
Y00307885
X00608Y00310385
Y00300385
Y00290385
Y00320385
X00618
X00628
X00638
Y00310385
Y00300385
Y00290385
T03
X00135Y0008
X00155
Y001
X00135
Y0012
X00155
X-00011001Y00120524
X-00046001
Y00220524
X-00011001
X00017Y00168
X00213Y00594
X00404
T04
X-000291Y003034
X-000037
Y003288
X-000291
Y003542
X-000037
Y003796
X-000291
Y00405
X-000037
Y004304
X-000291
Y004558
Y004812
X-000037
Y004558
Y005066
X-000291
T05
X00516Y00107
Y001324
Y001578
X00566
Y001324
Y00107
X0054Y00235
X00325
X001225
Y00335
X00325
X0054
M30
